<?xml version="1.0" encoding="UTF-8" standalone="no"?>
<!DOCTYPE svg PUBLIC "-//W3C//DTD SVG 1.1//EN"
 "http://www.w3.org/Graphics/SVG/1.1/DTD/svg11.dtd">
<!-- Generated by graphviz version 2.40.1 (20161225.0304)
 -->
<!-- Title: DFA Pages: 1 -->
<svg width="730pt" height="233pt"
 viewBox="0.00 0.00 730.00 233.00" xmlns="http://www.w3.org/2000/svg" xmlns:xlink="http://www.w3.org/1999/xlink">
<g id="graph0" class="graph" transform="scale(1 1) rotate(0) translate(4 229)">
<title>DFA</title>
<!-- state_2 -->
<g id="state_2" class="node">
<title>state_2</title>
<path fill="#fffff0" stroke="#b8860b" stroke-width="1.5" d="M237.5,-221C237.5,-221 173.5,-221 173.5,-221 167.5,-221 161.5,-215 161.5,-209 161.5,-209 161.5,-176 161.5,-176 161.5,-170 167.5,-164 173.5,-164 173.5,-164 237.5,-164 237.5,-164 243.5,-164 249.5,-170 249.5,-176 249.5,-176 249.5,-209 249.5,-209 249.5,-215 243.5,-221 237.5,-221"/>
<g id="a_state_2_title"><a xlink:href="#" xlink:title="state_2_title">
<text text-anchor="start" x="182.5" y="-200.1" font-family="Calibri" font-weight="bold" font-size="13.00" fill="#8b4513">Estado </text>
<text text-anchor="start" x="221.5" y="-200.1" font-family="Calibri" font-weight="bold" font-size="13.00" fill="#8b4513">2</text>
</a>
</g>
<g id="a_state_2_item_1"><a xlink:href="#" xlink:title="state_2_item_1">
<text text-anchor="start" x="172.5" y="-179.3" font-family="Times,serif" font-size="14.00" fill="#bc1f29">S&#39; </text>
<text text-anchor="start" x="186.5" y="-179.3" font-family="Times,serif" font-size="14.00" fill="#0a5040">→ </text>
<text text-anchor="start" x="205.5" y="-179.3" font-family="Times,serif" font-size="14.00" fill="#bc1f29"> S</text>
<text text-anchor="start" x="217.5" y="-179.3" font-family="Times,serif" font-size="14.00" fill="#f5a70a"> •</text>
<text text-anchor="start" x="227.5" y="-179.3" font-family="Times,serif" font-size="14.00" fill="#0a5040"> $</text>
</a>
</g>
</g>
<!-- state_4 -->
<g id="state_4" class="node">
<title>state_4</title>
<path fill="#fffff0" stroke="#b8860b" stroke-width="1.5" d="M390.5,-221C390.5,-221 326.5,-221 326.5,-221 320.5,-221 314.5,-215 314.5,-209 314.5,-209 314.5,-176 314.5,-176 314.5,-170 320.5,-164 326.5,-164 326.5,-164 390.5,-164 390.5,-164 396.5,-164 402.5,-170 402.5,-176 402.5,-176 402.5,-209 402.5,-209 402.5,-215 396.5,-221 390.5,-221"/>
<path fill="none" stroke="#b8860b" stroke-width="1.5" d="M394.5,-225C394.5,-225 322.5,-225 322.5,-225 316.5,-225 310.5,-219 310.5,-213 310.5,-213 310.5,-172 310.5,-172 310.5,-166 316.5,-160 322.5,-160 322.5,-160 394.5,-160 394.5,-160 400.5,-160 406.5,-166 406.5,-172 406.5,-172 406.5,-213 406.5,-213 406.5,-219 400.5,-225 394.5,-225"/>
<g id="a_state_4_title"><a xlink:href="#" xlink:title="state_4_title">
<text text-anchor="start" x="335.5" y="-200.1" font-family="Calibri" font-weight="bold" font-size="13.00" fill="#8b4513">Estado </text>
<text text-anchor="start" x="374.5" y="-200.1" font-family="Calibri" font-weight="bold" font-size="13.00" fill="#8b4513">4</text>
</a>
</g>
<g id="a_state_4_item_1"><a xlink:href="#" xlink:title="state_4_item_1">
<text text-anchor="start" x="325.5" y="-179.3" font-family="Times,serif" font-size="14.00" fill="#bc1f29">S&#39; </text>
<text text-anchor="start" x="339.5" y="-179.3" font-family="Times,serif" font-size="14.00" fill="#0a5040">→ </text>
<text text-anchor="start" x="358.5" y="-179.3" font-family="Times,serif" font-size="14.00" fill="#bc1f29"> S</text>
<text text-anchor="start" x="370.5" y="-179.3" font-family="Times,serif" font-size="14.00" fill="#0a5040"> $</text>
<text text-anchor="start" x="381.5" y="-179.3" font-family="Times,serif" font-size="14.00" fill="#f5a70a"> •</text>
</a>
</g>
</g>
<!-- state_2&#45;&gt;state_4 -->
<g id="trans_3" class="edge">
<title>state_2&#45;&gt;state_4</title>
<path fill="none" stroke="#b8860b" stroke-width="1.5" d="M249.7539,-192.5C265.4675,-192.5 283.4029,-192.5 300.1146,-192.5"/>
<polygon fill="#b8860b" stroke="#b8860b" stroke-width="1.5" points="300.331,-196.0001 310.331,-192.5 300.331,-189.0001 300.331,-196.0001"/>
<text text-anchor="start" x="276.5" y="-196.3" font-family="Times,serif" font-size="14.00" fill="#0a5040"> $</text>
</g>
<!-- state_5 -->
<g id="state_5" class="node">
<title>state_5</title>
<path fill="#fffff0" stroke="#b8860b" stroke-width="1.5" d="M399,-124C399,-124 318,-124 318,-124 312,-124 306,-118 306,-112 306,-112 306,-79 306,-79 306,-73 312,-67 318,-67 318,-67 399,-67 399,-67 405,-67 411,-73 411,-79 411,-79 411,-112 411,-112 411,-118 405,-124 399,-124"/>
<g id="a_state_5_title"><a xlink:href="#" xlink:title="state_5_title">
<text text-anchor="start" x="336" y="-103.1" font-family="Calibri" font-weight="bold" font-size="13.00" fill="#8b4513">Estado </text>
<text text-anchor="start" x="375" y="-103.1" font-family="Calibri" font-weight="bold" font-size="13.00" fill="#8b4513">5</text>
</a>
</g>
<g id="a_state_5_item_1"><a xlink:href="#" xlink:title="state_5_item_1">
<text text-anchor="start" x="317.5" y="-82.3" font-family="Times,serif" font-size="14.00" fill="#bc1f29">S </text>
<text text-anchor="start" x="329.5" y="-82.3" font-family="Times,serif" font-size="14.00" fill="#0a5040">→ </text>
<text text-anchor="start" x="348.5" y="-82.3" font-family="Times,serif" font-size="14.00" fill="#0a5040"> (</text>
<text text-anchor="start" x="357.5" y="-82.3" font-family="Times,serif" font-size="14.00" fill="#bc1f29"> S</text>
<text text-anchor="start" x="369.5" y="-82.3" font-family="Times,serif" font-size="14.00" fill="#f5a70a"> •</text>
<text text-anchor="start" x="379.5" y="-82.3" font-family="Times,serif" font-size="14.00" fill="#0a5040"> )</text>
<text text-anchor="start" x="388.5" y="-82.3" font-family="Times,serif" font-size="14.00" fill="#bc1f29"> S</text>
</a>
</g>
</g>
<!-- state_6 -->
<g id="state_6" class="node">
<title>state_6</title>
<path fill="#f5f5dc" stroke="#b8860b" stroke-width="1.5" stroke-dasharray="5,2" d="M549,-99C549,-99 468,-99 468,-99 462,-99 456,-93 456,-87 456,-87 456,-12 456,-12 456,-6 462,0 468,0 468,0 549,0 549,0 555,0 561,-6 561,-12 561,-12 561,-87 561,-87 561,-93 555,-99 549,-99"/>
<g id="a_state_6_title"><a xlink:href="#" xlink:title="state_6_title">
<text text-anchor="start" x="486" y="-78.1" font-family="Calibri" font-weight="bold" font-size="13.00" fill="#8b4513">Estado </text>
<text text-anchor="start" x="525" y="-78.1" font-family="Calibri" font-weight="bold" font-size="13.00" fill="#8b4513">6</text>
</a>
</g>
<g id="a_state_6_item_1"><a xlink:href="#" xlink:title="state_6_item_1">
<text text-anchor="start" x="467.5" y="-57.3" font-family="Times,serif" font-size="14.00" fill="#bc1f29">S </text>
<text text-anchor="start" x="479.5" y="-57.3" font-family="Times,serif" font-size="14.00" fill="#0a5040">→ </text>
<text text-anchor="start" x="498.5" y="-57.3" font-family="Times,serif" font-size="14.00" fill="#0a5040"> (</text>
<text text-anchor="start" x="507.5" y="-57.3" font-family="Times,serif" font-size="14.00" fill="#bc1f29"> S</text>
<text text-anchor="start" x="519.5" y="-57.3" font-family="Times,serif" font-size="14.00" fill="#0a5040"> )</text>
<text text-anchor="start" x="528.5" y="-57.3" font-family="Times,serif" font-size="14.00" fill="#f5a70a"> •</text>
<text text-anchor="start" x="538.5" y="-57.3" font-family="Times,serif" font-size="14.00" fill="#bc1f29"> S</text>
</a>
</g>
<g id="a_state_6_item_2"><a xlink:href="#" xlink:title="state_6_item_2">
<text text-anchor="start" x="467.5" y="-36.3" font-family="Times,serif" font-size="14.00" fill="#bc1f29">S </text>
<text text-anchor="start" x="479.5" y="-36.3" font-family="Times,serif" font-size="14.00" fill="#0a5040">→ </text>
<text text-anchor="start" x="498.5" y="-36.3" font-family="Times,serif" font-size="14.00" fill="#f5a70a"> •</text>
<text text-anchor="start" x="508.5" y="-36.3" font-family="Times,serif" font-size="14.00" fill="#0a5040"> (</text>
<text text-anchor="start" x="517.5" y="-36.3" font-family="Times,serif" font-size="14.00" fill="#bc1f29"> S</text>
<text text-anchor="start" x="529.5" y="-36.3" font-family="Times,serif" font-size="14.00" fill="#0a5040"> )</text>
<text text-anchor="start" x="538.5" y="-36.3" font-family="Times,serif" font-size="14.00" fill="#bc1f29"> S</text>
</a>
</g>
<g id="a_state_6_item_3"><a xlink:href="#" xlink:title="state_6_item_3">
<text text-anchor="start" x="467.5" y="-15.3" font-family="Times,serif" font-size="14.00" fill="#bc1f29">S </text>
<text text-anchor="start" x="479.5" y="-15.3" font-family="Times,serif" font-size="14.00" fill="#0a5040">→ </text>
<text text-anchor="start" x="498.5" y="-15.3" font-family="Times,serif" font-size="14.00" fill="#f5a70a"> •</text>
</a>
</g>
</g>
<!-- state_5&#45;&gt;state_6 -->
<g id="trans_6" class="edge">
<title>state_5&#45;&gt;state_6</title>
<path fill="none" stroke="#b8860b" stroke-width="1.5" d="M411.3844,-79.2821C422.6527,-75.8265 434.6524,-72.1466 446.2348,-68.5947"/>
<polygon fill="#b8860b" stroke="#b8860b" stroke-width="1.5" points="447.3062,-71.9271 455.8405,-65.6489 445.2538,-65.2347 447.3062,-71.9271"/>
<text text-anchor="start" x="429" y="-77.3" font-family="Times,serif" font-size="14.00" fill="#0a5040"> )</text>
</g>
<!-- state_7 -->
<g id="state_7" class="node">
<title>state_7</title>
<path fill="#fffff0" stroke="#b8860b" stroke-width="1.5" d="M706,-78C706,-78 625,-78 625,-78 619,-78 613,-72 613,-66 613,-66 613,-33 613,-33 613,-27 619,-21 625,-21 625,-21 706,-21 706,-21 712,-21 718,-27 718,-33 718,-33 718,-66 718,-66 718,-72 712,-78 706,-78"/>
<path fill="none" stroke="#b8860b" stroke-width="1.5" d="M710,-82C710,-82 621,-82 621,-82 615,-82 609,-76 609,-70 609,-70 609,-29 609,-29 609,-23 615,-17 621,-17 621,-17 710,-17 710,-17 716,-17 722,-23 722,-29 722,-29 722,-70 722,-70 722,-76 716,-82 710,-82"/>
<g id="a_state_7_title"><a xlink:href="#" xlink:title="state_7_title">
<text text-anchor="start" x="643" y="-57.1" font-family="Calibri" font-weight="bold" font-size="13.00" fill="#8b4513">Estado </text>
<text text-anchor="start" x="682" y="-57.1" font-family="Calibri" font-weight="bold" font-size="13.00" fill="#8b4513">7</text>
</a>
</g>
<g id="a_state_7_item_1"><a xlink:href="#" xlink:title="state_7_item_1">
<text text-anchor="start" x="624.5" y="-36.3" font-family="Times,serif" font-size="14.00" fill="#bc1f29">S </text>
<text text-anchor="start" x="636.5" y="-36.3" font-family="Times,serif" font-size="14.00" fill="#0a5040">→ </text>
<text text-anchor="start" x="655.5" y="-36.3" font-family="Times,serif" font-size="14.00" fill="#0a5040"> (</text>
<text text-anchor="start" x="664.5" y="-36.3" font-family="Times,serif" font-size="14.00" fill="#bc1f29"> S</text>
<text text-anchor="start" x="676.5" y="-36.3" font-family="Times,serif" font-size="14.00" fill="#0a5040"> )</text>
<text text-anchor="start" x="685.5" y="-36.3" font-family="Times,serif" font-size="14.00" fill="#bc1f29"> S</text>
<text text-anchor="start" x="697.5" y="-36.3" font-family="Times,serif" font-size="14.00" fill="#f5a70a"> •</text>
</a>
</g>
</g>
<!-- state_1 -->
<g id="state_1" class="node">
<title>state_1</title>
<path fill="#f5f5dc" stroke="#b8860b" stroke-width="1.5" stroke-dasharray="5,2" d="M93,-177C93,-177 12,-177 12,-177 6,-177 0,-171 0,-165 0,-165 0,-90 0,-90 0,-84 6,-78 12,-78 12,-78 93,-78 93,-78 99,-78 105,-84 105,-90 105,-90 105,-165 105,-165 105,-171 99,-177 93,-177"/>
<g id="a_state_1_title"><a xlink:href="#" xlink:title="state_1_title">
<text text-anchor="start" x="30" y="-156.1" font-family="Calibri" font-weight="bold" font-size="13.00" fill="#8b4513">Estado </text>
<text text-anchor="start" x="69" y="-156.1" font-family="Calibri" font-weight="bold" font-size="13.00" fill="#8b4513">1</text>
</a>
</g>
<g id="a_state_1_item_1"><a xlink:href="#" xlink:title="state_1_item_1">
<text text-anchor="start" x="11.5" y="-135.3" font-family="Times,serif" font-size="14.00" fill="#bc1f29">S&#39; </text>
<text text-anchor="start" x="25.5" y="-135.3" font-family="Times,serif" font-size="14.00" fill="#0a5040">→ </text>
<text text-anchor="start" x="44.5" y="-135.3" font-family="Times,serif" font-size="14.00" fill="#f5a70a"> •</text>
<text text-anchor="start" x="54.5" y="-135.3" font-family="Times,serif" font-size="14.00" fill="#bc1f29"> S</text>
<text text-anchor="start" x="66.5" y="-135.3" font-family="Times,serif" font-size="14.00" fill="#0a5040"> $</text>
</a>
</g>
<g id="a_state_1_item_2"><a xlink:href="#" xlink:title="state_1_item_2">
<text text-anchor="start" x="11.5" y="-114.3" font-family="Times,serif" font-size="14.00" fill="#bc1f29">S </text>
<text text-anchor="start" x="23.5" y="-114.3" font-family="Times,serif" font-size="14.00" fill="#0a5040">→ </text>
<text text-anchor="start" x="42.5" y="-114.3" font-family="Times,serif" font-size="14.00" fill="#f5a70a"> •</text>
<text text-anchor="start" x="52.5" y="-114.3" font-family="Times,serif" font-size="14.00" fill="#0a5040"> (</text>
<text text-anchor="start" x="61.5" y="-114.3" font-family="Times,serif" font-size="14.00" fill="#bc1f29"> S</text>
<text text-anchor="start" x="73.5" y="-114.3" font-family="Times,serif" font-size="14.00" fill="#0a5040"> )</text>
<text text-anchor="start" x="82.5" y="-114.3" font-family="Times,serif" font-size="14.00" fill="#bc1f29"> S</text>
</a>
</g>
<g id="a_state_1_item_3"><a xlink:href="#" xlink:title="state_1_item_3">
<text text-anchor="start" x="11.5" y="-93.3" font-family="Times,serif" font-size="14.00" fill="#bc1f29">S </text>
<text text-anchor="start" x="23.5" y="-93.3" font-family="Times,serif" font-size="14.00" fill="#0a5040">→ </text>
<text text-anchor="start" x="42.5" y="-93.3" font-family="Times,serif" font-size="14.00" fill="#f5a70a"> •</text>
</a>
</g>
</g>
<!-- state_1&#45;&gt;state_2 -->
<g id="trans_1" class="edge">
<title>state_1&#45;&gt;state_2</title>
<path fill="none" stroke="#b8860b" stroke-width="1.5" d="M105.1539,-149.8693C120.3296,-156.3165 136.8964,-163.3547 152.1159,-169.8205"/>
<polygon fill="#b8860b" stroke="#b8860b" stroke-width="1.5" points="150.8212,-173.0732 161.3936,-173.762 153.5583,-166.6305 150.8212,-173.0732"/>
<text text-anchor="start" x="123" y="-165.3" font-family="Times,serif" font-size="14.00" fill="#bc1f29"> S</text>
</g>
<!-- state_3 -->
<g id="state_3" class="node">
<title>state_3</title>
<path fill="#f5f5dc" stroke="#b8860b" stroke-width="1.5" stroke-dasharray="5,2" d="M246,-113C246,-113 165,-113 165,-113 159,-113 153,-107 153,-101 153,-101 153,-26 153,-26 153,-20 159,-14 165,-14 165,-14 246,-14 246,-14 252,-14 258,-20 258,-26 258,-26 258,-101 258,-101 258,-107 252,-113 246,-113"/>
<g id="a_state_3_title"><a xlink:href="#" xlink:title="state_3_title">
<text text-anchor="start" x="183" y="-92.1" font-family="Calibri" font-weight="bold" font-size="13.00" fill="#8b4513">Estado </text>
<text text-anchor="start" x="222" y="-92.1" font-family="Calibri" font-weight="bold" font-size="13.00" fill="#8b4513">3</text>
</a>
</g>
<g id="a_state_3_item_1"><a xlink:href="#" xlink:title="state_3_item_1">
<text text-anchor="start" x="164.5" y="-71.3" font-family="Times,serif" font-size="14.00" fill="#bc1f29">S </text>
<text text-anchor="start" x="176.5" y="-71.3" font-family="Times,serif" font-size="14.00" fill="#0a5040">→ </text>
<text text-anchor="start" x="195.5" y="-71.3" font-family="Times,serif" font-size="14.00" fill="#0a5040"> (</text>
<text text-anchor="start" x="204.5" y="-71.3" font-family="Times,serif" font-size="14.00" fill="#f5a70a"> •</text>
<text text-anchor="start" x="214.5" y="-71.3" font-family="Times,serif" font-size="14.00" fill="#bc1f29"> S</text>
<text text-anchor="start" x="226.5" y="-71.3" font-family="Times,serif" font-size="14.00" fill="#0a5040"> )</text>
<text text-anchor="start" x="235.5" y="-71.3" font-family="Times,serif" font-size="14.00" fill="#bc1f29"> S</text>
</a>
</g>
<g id="a_state_3_item_2"><a xlink:href="#" xlink:title="state_3_item_2">
<text text-anchor="start" x="164.5" y="-50.3" font-family="Times,serif" font-size="14.00" fill="#bc1f29">S </text>
<text text-anchor="start" x="176.5" y="-50.3" font-family="Times,serif" font-size="14.00" fill="#0a5040">→ </text>
<text text-anchor="start" x="195.5" y="-50.3" font-family="Times,serif" font-size="14.00" fill="#f5a70a"> •</text>
<text text-anchor="start" x="205.5" y="-50.3" font-family="Times,serif" font-size="14.00" fill="#0a5040"> (</text>
<text text-anchor="start" x="214.5" y="-50.3" font-family="Times,serif" font-size="14.00" fill="#bc1f29"> S</text>
<text text-anchor="start" x="226.5" y="-50.3" font-family="Times,serif" font-size="14.00" fill="#0a5040"> )</text>
<text text-anchor="start" x="235.5" y="-50.3" font-family="Times,serif" font-size="14.00" fill="#bc1f29"> S</text>
</a>
</g>
<g id="a_state_3_item_3"><a xlink:href="#" xlink:title="state_3_item_3">
<text text-anchor="start" x="164.5" y="-29.3" font-family="Times,serif" font-size="14.00" fill="#bc1f29">S </text>
<text text-anchor="start" x="176.5" y="-29.3" font-family="Times,serif" font-size="14.00" fill="#0a5040">→ </text>
<text text-anchor="start" x="195.5" y="-29.3" font-family="Times,serif" font-size="14.00" fill="#f5a70a"> •</text>
</a>
</g>
</g>
<!-- state_1&#45;&gt;state_3 -->
<g id="trans_2" class="edge">
<title>state_1&#45;&gt;state_3</title>
<path fill="none" stroke="#b8860b" stroke-width="1.5" d="M105.1539,-105.4748C117.4149,-100.346 130.584,-94.8374 143.217,-89.553"/>
<polygon fill="#b8860b" stroke="#b8860b" stroke-width="1.5" points="144.8743,-92.6537 152.749,-85.5658 142.1729,-86.1959 144.8743,-92.6537"/>
<text text-anchor="start" x="124.5" y="-100.3" font-family="Times,serif" font-size="14.00" fill="#0a5040"> (</text>
</g>
<!-- state_3&#45;&gt;state_5 -->
<g id="trans_4" class="edge">
<title>state_3&#45;&gt;state_5</title>
<path fill="none" stroke="#b8860b" stroke-width="1.5" d="M258.1539,-74.5126C270.2947,-77.0518 283.3259,-79.7773 295.8452,-82.3957"/>
<polygon fill="#b8860b" stroke="#b8860b" stroke-width="1.5" points="295.2443,-85.8457 305.749,-84.4671 296.6774,-78.994 295.2443,-85.8457"/>
<text text-anchor="start" x="276" y="-83.3" font-family="Times,serif" font-size="14.00" fill="#bc1f29"> S</text>
</g>
<!-- state_3&#45;&gt;state_3 -->
<g id="trans_5" class="edge">
<title>state_3&#45;&gt;state_3</title>
<path fill="none" stroke="#b8860b" stroke-width="1.5" d="M191.751,-113.2454C193.1982,-123.5732 197.7813,-131 205.5,-131 210.4448,-131 214.1027,-127.9521 216.4737,-123.046"/>
<polygon fill="#b8860b" stroke="#b8860b" stroke-width="1.5" points="219.8919,-123.8207 219.249,-113.2454 213.1568,-121.9134 219.8919,-123.8207"/>
<text text-anchor="start" x="201" y="-134.8" font-family="Times,serif" font-size="14.00" fill="#0a5040"> (</text>
</g>
<!-- state_6&#45;&gt;state_7 -->
<g id="trans_7" class="edge">
<title>state_6&#45;&gt;state_7</title>
<path fill="none" stroke="#b8860b" stroke-width="1.5" d="M561.2155,-49.5C573.1859,-49.5 586.0562,-49.5 598.5295,-49.5"/>
<polygon fill="#b8860b" stroke="#b8860b" stroke-width="1.5" points="598.8853,-53.0001 608.8853,-49.5 598.8852,-46.0001 598.8853,-53.0001"/>
<text text-anchor="start" x="579" y="-53.3" font-family="Times,serif" font-size="14.00" fill="#bc1f29"> S</text>
</g>
<!-- state_6&#45;&gt;state_3 -->
<g id="trans_8" class="edge">
<title>state_6&#45;&gt;state_3</title>
<path fill="none" stroke="#b8860b" stroke-width="1.5" d="M455.9183,-43.7354C414.9635,-40.198 356.7367,-37.2558 306,-42.5 293.6186,-43.7798 280.5138,-45.9239 268.0017,-48.3657"/>
<polygon fill="#b8860b" stroke="#b8860b" stroke-width="1.5" points="267.2204,-44.9529 258.1193,-50.3769 268.6165,-51.8123 267.2204,-44.9529"/>
<text text-anchor="start" x="354" y="-46.3" font-family="Times,serif" font-size="14.00" fill="#0a5040"> (</text>
</g>
</g>
</svg>
