<?xml version="1.0" encoding="UTF-8" standalone="no"?>
<!DOCTYPE svg PUBLIC "-//W3C//DTD SVG 1.1//EN"
 "http://www.w3.org/Graphics/SVG/1.1/DTD/svg11.dtd">
<!-- Generated by graphviz version 2.40.1 (20161225.0304)
 -->
<!-- Title: DFA Pages: 1 -->
<svg width="1722pt" height="509pt"
 viewBox="0.00 0.00 1722.00 508.50" xmlns="http://www.w3.org/2000/svg" xmlns:xlink="http://www.w3.org/1999/xlink">
<g id="graph0" class="graph" transform="scale(1 1) rotate(0) translate(4 504.5)">
<title>DFA</title>
<!-- state_2 -->
<g id="state_2" class="node">
<title>state_2</title>
<path fill="#fffff0" stroke="#b8860b" stroke-width="1.5" d="M531,-428.5C531,-428.5 440,-428.5 440,-428.5 434,-428.5 428,-422.5 428,-416.5 428,-416.5 428,-383.5 428,-383.5 428,-377.5 434,-371.5 440,-371.5 440,-371.5 531,-371.5 531,-371.5 537,-371.5 543,-377.5 543,-383.5 543,-383.5 543,-416.5 543,-416.5 543,-422.5 537,-428.5 531,-428.5"/>
<g id="a_state_2_title"><a xlink:href="#" xlink:title="state_2_title">
<text text-anchor="start" x="463" y="-407.6" font-family="Calibri" font-weight="bold" font-size="13.00" fill="#8b4513">Estado </text>
<text text-anchor="start" x="502" y="-407.6" font-family="Calibri" font-weight="bold" font-size="13.00" fill="#8b4513">2</text>
</a>
</g>
<g id="a_state_2_item_1"><a xlink:href="#" xlink:title="state_2_item_1">
<text text-anchor="start" x="439.5" y="-386.8" font-family="Times,serif" font-size="14.00" fill="#bc1f29">List&#39; </text>
<text text-anchor="start" x="467.5" y="-386.8" font-family="Times,serif" font-size="14.00" fill="#0a5040">→ </text>
<text text-anchor="start" x="486.5" y="-386.8" font-family="Times,serif" font-size="14.00" fill="#bc1f29"> List</text>
<text text-anchor="start" x="511.5" y="-386.8" font-family="Times,serif" font-size="14.00" fill="#f5a70a"> •</text>
<text text-anchor="start" x="521.5" y="-386.8" font-family="Times,serif" font-size="14.00" fill="#0a5040"> $</text>
</a>
</g>
</g>
<!-- state_6 -->
<g id="state_6" class="node">
<title>state_6</title>
<path fill="#fffff0" stroke="#b8860b" stroke-width="1.5" d="M995,-496.5C995,-496.5 904,-496.5 904,-496.5 898,-496.5 892,-490.5 892,-484.5 892,-484.5 892,-451.5 892,-451.5 892,-445.5 898,-439.5 904,-439.5 904,-439.5 995,-439.5 995,-439.5 1001,-439.5 1007,-445.5 1007,-451.5 1007,-451.5 1007,-484.5 1007,-484.5 1007,-490.5 1001,-496.5 995,-496.5"/>
<path fill="none" stroke="#b8860b" stroke-width="1.5" d="M999,-500.5C999,-500.5 900,-500.5 900,-500.5 894,-500.5 888,-494.5 888,-488.5 888,-488.5 888,-447.5 888,-447.5 888,-441.5 894,-435.5 900,-435.5 900,-435.5 999,-435.5 999,-435.5 1005,-435.5 1011,-441.5 1011,-447.5 1011,-447.5 1011,-488.5 1011,-488.5 1011,-494.5 1005,-500.5 999,-500.5"/>
<g id="a_state_6_title"><a xlink:href="#" xlink:title="state_6_title">
<text text-anchor="start" x="927" y="-475.6" font-family="Calibri" font-weight="bold" font-size="13.00" fill="#8b4513">Estado </text>
<text text-anchor="start" x="966" y="-475.6" font-family="Calibri" font-weight="bold" font-size="13.00" fill="#8b4513">6</text>
</a>
</g>
<g id="a_state_6_item_1"><a xlink:href="#" xlink:title="state_6_item_1">
<text text-anchor="start" x="903.5" y="-454.8" font-family="Times,serif" font-size="14.00" fill="#bc1f29">List&#39; </text>
<text text-anchor="start" x="931.5" y="-454.8" font-family="Times,serif" font-size="14.00" fill="#0a5040">→ </text>
<text text-anchor="start" x="950.5" y="-454.8" font-family="Times,serif" font-size="14.00" fill="#bc1f29"> List</text>
<text text-anchor="start" x="975.5" y="-454.8" font-family="Times,serif" font-size="14.00" fill="#0a5040"> $</text>
<text text-anchor="start" x="986.5" y="-454.8" font-family="Times,serif" font-size="14.00" fill="#f5a70a"> •</text>
</a>
</g>
</g>
<!-- state_2&#45;&gt;state_6 -->
<g id="trans_5" class="edge">
<title>state_2&#45;&gt;state_6</title>
<path fill="none" stroke="#b8860b" stroke-width="1.5" d="M543.3277,-408.4748C628.0931,-420.8973 785.9607,-444.033 877.9278,-457.511"/>
<polygon fill="#b8860b" stroke="#b8860b" stroke-width="1.5" points="877.5836,-460.9978 887.9855,-458.9849 878.5987,-454.0718 877.5836,-460.9978"/>
<text text-anchor="start" x="712" y="-449.8" font-family="Times,serif" font-size="14.00" fill="#0a5040"> $</text>
</g>
<!-- state_3 -->
<g id="state_3" class="node">
<title>state_3</title>
<path fill="#fffff0" stroke="#b8860b" stroke-width="1.5" d="M600,-228.5C600,-228.5 371,-228.5 371,-228.5 365,-228.5 359,-222.5 359,-216.5 359,-216.5 359,-141.5 359,-141.5 359,-135.5 365,-129.5 371,-129.5 371,-129.5 600,-129.5 600,-129.5 606,-129.5 612,-135.5 612,-141.5 612,-141.5 612,-216.5 612,-216.5 612,-222.5 606,-228.5 600,-228.5"/>
<g id="a_state_3_title"><a xlink:href="#" xlink:title="state_3_title">
<text text-anchor="start" x="463" y="-207.6" font-family="Calibri" font-weight="bold" font-size="13.00" fill="#8b4513">Estado </text>
<text text-anchor="start" x="502" y="-207.6" font-family="Calibri" font-weight="bold" font-size="13.00" fill="#8b4513">3</text>
</a>
</g>
<g id="a_state_3_item_1"><a xlink:href="#" xlink:title="state_3_item_1">
<text text-anchor="start" x="370.5" y="-186.8" font-family="Times,serif" font-size="14.00" fill="#bc1f29">List </text>
<text text-anchor="start" x="395.5" y="-186.8" font-family="Times,serif" font-size="14.00" fill="#0a5040">→ </text>
<text text-anchor="start" x="414.5" y="-186.8" font-family="Times,serif" font-size="14.00" fill="#bc1f29"> NoCommas</text>
<text text-anchor="start" x="484.5" y="-186.8" font-family="Times,serif" font-size="14.00" fill="#f5a70a"> •</text>
<text text-anchor="start" x="494.5" y="-186.8" font-family="Times,serif" font-size="14.00" fill="#bc1f29"> IdList</text>
<text text-anchor="start" x="531.5" y="-186.8" font-family="Times,serif" font-size="14.00" fill="#bc1f29"> NoCommas</text>
</a>
</g>
<g id="a_state_3_item_2"><a xlink:href="#" xlink:title="state_3_item_2">
<text text-anchor="start" x="370.5" y="-165.8" font-family="Times,serif" font-size="14.00" fill="#bc1f29">IdList </text>
<text text-anchor="start" x="407.5" y="-165.8" font-family="Times,serif" font-size="14.00" fill="#0a5040">→ </text>
<text text-anchor="start" x="426.5" y="-165.8" font-family="Times,serif" font-size="14.00" fill="#f5a70a"> •</text>
<text text-anchor="start" x="436.5" y="-165.8" font-family="Times,serif" font-size="14.00" fill="#0a5040"> id</text>
</a>
</g>
<g id="a_state_3_item_3"><a xlink:href="#" xlink:title="state_3_item_3">
<text text-anchor="start" x="370.5" y="-144.8" font-family="Times,serif" font-size="14.00" fill="#bc1f29">IdList </text>
<text text-anchor="start" x="407.5" y="-144.8" font-family="Times,serif" font-size="14.00" fill="#0a5040">→ </text>
<text text-anchor="start" x="426.5" y="-144.8" font-family="Times,serif" font-size="14.00" fill="#f5a70a"> •</text>
<text text-anchor="start" x="436.5" y="-144.8" font-family="Times,serif" font-size="14.00" fill="#bc1f29"> IdList</text>
<text text-anchor="start" x="473.5" y="-144.8" font-family="Times,serif" font-size="14.00" fill="#bc1f29"> OneComma</text>
<text text-anchor="start" x="544.5" y="-144.8" font-family="Times,serif" font-size="14.00" fill="#0a5040"> id</text>
</a>
</g>
</g>
<!-- state_8 -->
<g id="state_8" class="node">
<title>state_8</title>
<path fill="#fffff0" stroke="#b8860b" stroke-width="1.5" d="M989,-190.5C989,-190.5 910,-190.5 910,-190.5 904,-190.5 898,-184.5 898,-178.5 898,-178.5 898,-145.5 898,-145.5 898,-139.5 904,-133.5 910,-133.5 910,-133.5 989,-133.5 989,-133.5 995,-133.5 1001,-139.5 1001,-145.5 1001,-145.5 1001,-178.5 1001,-178.5 1001,-184.5 995,-190.5 989,-190.5"/>
<path fill="none" stroke="#b8860b" stroke-width="1.5" d="M993,-194.5C993,-194.5 906,-194.5 906,-194.5 900,-194.5 894,-188.5 894,-182.5 894,-182.5 894,-141.5 894,-141.5 894,-135.5 900,-129.5 906,-129.5 906,-129.5 993,-129.5 993,-129.5 999,-129.5 1005,-135.5 1005,-141.5 1005,-141.5 1005,-182.5 1005,-182.5 1005,-188.5 999,-194.5 993,-194.5"/>
<g id="a_state_8_title"><a xlink:href="#" xlink:title="state_8_title">
<text text-anchor="start" x="927" y="-169.6" font-family="Calibri" font-weight="bold" font-size="13.00" fill="#8b4513">Estado </text>
<text text-anchor="start" x="966" y="-169.6" font-family="Calibri" font-weight="bold" font-size="13.00" fill="#8b4513">8</text>
</a>
</g>
<g id="a_state_8_item_1"><a xlink:href="#" xlink:title="state_8_item_1">
<text text-anchor="start" x="909.5" y="-148.8" font-family="Times,serif" font-size="14.00" fill="#bc1f29">IdList </text>
<text text-anchor="start" x="946.5" y="-148.8" font-family="Times,serif" font-size="14.00" fill="#0a5040">→ </text>
<text text-anchor="start" x="965.5" y="-148.8" font-family="Times,serif" font-size="14.00" fill="#0a5040"> id</text>
<text text-anchor="start" x="980.5" y="-148.8" font-family="Times,serif" font-size="14.00" fill="#f5a70a"> •</text>
</a>
</g>
</g>
<!-- state_3&#45;&gt;state_8 -->
<g id="trans_7" class="edge">
<title>state_3&#45;&gt;state_8</title>
<path fill="none" stroke="#b8860b" stroke-width="1.5" d="M612.29,-174.3547C700.1389,-171.1361 813.5218,-166.982 883.8621,-164.4048"/>
<polygon fill="#b8860b" stroke="#b8860b" stroke-width="1.5" points="884.0546,-167.9002 893.9197,-164.0363 883.7983,-160.9049 884.0546,-167.9002"/>
<text text-anchor="start" x="710" y="-176.8" font-family="Times,serif" font-size="14.00" fill="#0a5040"> id</text>
</g>
<!-- state_7 -->
<g id="state_7" class="node">
<title>state_7</title>
<path fill="#f5f5dc" stroke="#b8860b" stroke-width="1.5" stroke-dasharray="5,2" d="M1064,-417C1064,-417 835,-417 835,-417 829,-417 823,-411 823,-405 823,-405 823,-225 823,-225 823,-219 829,-213 835,-213 835,-213 1064,-213 1064,-213 1070,-213 1076,-219 1076,-225 1076,-225 1076,-405 1076,-405 1076,-411 1070,-417 1064,-417"/>
<g id="a_state_7_title"><a xlink:href="#" xlink:title="state_7_title">
<text text-anchor="start" x="927" y="-396.6" font-family="Calibri" font-weight="bold" font-size="13.00" fill="#8b4513">Estado </text>
<text text-anchor="start" x="966" y="-396.6" font-family="Calibri" font-weight="bold" font-size="13.00" fill="#8b4513">7</text>
</a>
</g>
<g id="a_state_7_item_1"><a xlink:href="#" xlink:title="state_7_item_1">
<text text-anchor="start" x="834.5" y="-375.8" font-family="Times,serif" font-size="14.00" fill="#bc1f29">List </text>
<text text-anchor="start" x="859.5" y="-375.8" font-family="Times,serif" font-size="14.00" fill="#0a5040">→ </text>
<text text-anchor="start" x="878.5" y="-375.8" font-family="Times,serif" font-size="14.00" fill="#bc1f29"> NoCommas</text>
<text text-anchor="start" x="948.5" y="-375.8" font-family="Times,serif" font-size="14.00" fill="#bc1f29"> IdList</text>
<text text-anchor="start" x="985.5" y="-375.8" font-family="Times,serif" font-size="14.00" fill="#f5a70a"> •</text>
<text text-anchor="start" x="995.5" y="-375.8" font-family="Times,serif" font-size="14.00" fill="#bc1f29"> NoCommas</text>
</a>
</g>
<g id="a_state_7_item_2"><a xlink:href="#" xlink:title="state_7_item_2">
<text text-anchor="start" x="834.5" y="-354.8" font-family="Times,serif" font-size="14.00" fill="#bc1f29">IdList </text>
<text text-anchor="start" x="871.5" y="-354.8" font-family="Times,serif" font-size="14.00" fill="#0a5040">→ </text>
<text text-anchor="start" x="890.5" y="-354.8" font-family="Times,serif" font-size="14.00" fill="#bc1f29"> IdList</text>
<text text-anchor="start" x="927.5" y="-354.8" font-family="Times,serif" font-size="14.00" fill="#f5a70a"> •</text>
<text text-anchor="start" x="937.5" y="-354.8" font-family="Times,serif" font-size="14.00" fill="#bc1f29"> OneComma</text>
<text text-anchor="start" x="1008.5" y="-354.8" font-family="Times,serif" font-size="14.00" fill="#0a5040"> id</text>
</a>
</g>
<g id="a_state_7_item_3"><a xlink:href="#" xlink:title="state_7_item_3">
<text text-anchor="start" x="834.5" y="-333.8" font-family="Times,serif" font-size="14.00" fill="#bc1f29">NoCommas </text>
<text text-anchor="start" x="904.5" y="-333.8" font-family="Times,serif" font-size="14.00" fill="#0a5040">→ </text>
<text text-anchor="start" x="923.5" y="-333.8" font-family="Times,serif" font-size="14.00" fill="#f5a70a"> •</text>
<text text-anchor="start" x="933.5" y="-333.8" font-family="Times,serif" font-size="14.00" fill="#bc1f29"> Commas</text>
</a>
</g>
<g id="a_state_7_item_4"><a xlink:href="#" xlink:title="state_7_item_4">
<text text-anchor="start" x="834.5" y="-312.8" font-family="Times,serif" font-size="14.00" fill="#bc1f29">NoCommas </text>
<text text-anchor="start" x="904.5" y="-312.8" font-family="Times,serif" font-size="14.00" fill="#0a5040">→ </text>
<text text-anchor="start" x="923.5" y="-312.8" font-family="Times,serif" font-size="14.00" fill="#f5a70a"> •</text>
</a>
</g>
<g id="a_state_7_item_5"><a xlink:href="#" xlink:title="state_7_item_5">
<text text-anchor="start" x="834.5" y="-291.8" font-family="Times,serif" font-size="14.00" fill="#bc1f29">OneComma </text>
<text text-anchor="start" x="905.5" y="-291.8" font-family="Times,serif" font-size="14.00" fill="#0a5040">→ </text>
<text text-anchor="start" x="924.5" y="-291.8" font-family="Times,serif" font-size="14.00" fill="#f5a70a"> •</text>
<text text-anchor="start" x="934.5" y="-291.8" font-family="Times,serif" font-size="14.00" fill="#bc1f29"> Commas</text>
</a>
</g>
<g id="a_state_7_item_6"><a xlink:href="#" xlink:title="state_7_item_6">
<text text-anchor="start" x="834.5" y="-270.8" font-family="Times,serif" font-size="14.00" fill="#bc1f29">OneComma </text>
<text text-anchor="start" x="905.5" y="-270.8" font-family="Times,serif" font-size="14.00" fill="#0a5040">→ </text>
<text text-anchor="start" x="924.5" y="-270.8" font-family="Times,serif" font-size="14.00" fill="#f5a70a"> •</text>
</a>
</g>
<g id="a_state_7_item_7"><a xlink:href="#" xlink:title="state_7_item_7">
<text text-anchor="start" x="834.5" y="-249.8" font-family="Times,serif" font-size="14.00" fill="#bc1f29">Commas </text>
<text text-anchor="start" x="888.5" y="-249.8" font-family="Times,serif" font-size="14.00" fill="#0a5040">→ </text>
<text text-anchor="start" x="907.5" y="-249.8" font-family="Times,serif" font-size="14.00" fill="#f5a70a"> •</text>
<text text-anchor="start" x="917.5" y="-249.8" font-family="Times,serif" font-size="14.00" fill="#bc1f29"> Commas</text>
<text text-anchor="start" x="971.5" y="-249.8" font-family="Times,serif" font-size="14.00" fill="#0a5040"> ,</text>
</a>
</g>
<g id="a_state_7_item_8"><a xlink:href="#" xlink:title="state_7_item_8">
<text text-anchor="start" x="834.5" y="-228.8" font-family="Times,serif" font-size="14.00" fill="#bc1f29">Commas </text>
<text text-anchor="start" x="888.5" y="-228.8" font-family="Times,serif" font-size="14.00" fill="#0a5040">→ </text>
<text text-anchor="start" x="907.5" y="-228.8" font-family="Times,serif" font-size="14.00" fill="#f5a70a"> •</text>
<text text-anchor="start" x="917.5" y="-228.8" font-family="Times,serif" font-size="14.00" fill="#0a5040"> ,</text>
</a>
</g>
</g>
<!-- state_3&#45;&gt;state_7 -->
<g id="trans_6" class="edge">
<title>state_3&#45;&gt;state_7</title>
<path fill="none" stroke="#b8860b" stroke-width="1.5" d="M612.29,-216.1626C674.5642,-234.4154 749.6696,-256.429 813.1777,-275.0435"/>
<polygon fill="#b8860b" stroke="#b8860b" stroke-width="1.5" points="812.2825,-278.4283 822.8633,-277.8823 814.2514,-271.7109 812.2825,-278.4283"/>
<text text-anchor="start" x="699" y="-274.8" font-family="Times,serif" font-size="14.00" fill="#bc1f29"> IdList</text>
</g>
<!-- state_11 -->
<g id="state_11" class="node">
<title>state_11</title>
<path fill="#fffff0" stroke="#b8860b" stroke-width="1.5" d="M1407,-340.5C1407,-340.5 1220,-340.5 1220,-340.5 1214,-340.5 1208,-334.5 1208,-328.5 1208,-328.5 1208,-295.5 1208,-295.5 1208,-289.5 1214,-283.5 1220,-283.5 1220,-283.5 1407,-283.5 1407,-283.5 1413,-283.5 1419,-289.5 1419,-295.5 1419,-295.5 1419,-328.5 1419,-328.5 1419,-334.5 1413,-340.5 1407,-340.5"/>
<g id="a_state_11_title"><a xlink:href="#" xlink:title="state_11_title">
<text text-anchor="start" x="1287.5" y="-319.6" font-family="Calibri" font-weight="bold" font-size="13.00" fill="#8b4513">Estado </text>
<text text-anchor="start" x="1326.5" y="-319.6" font-family="Calibri" font-weight="bold" font-size="13.00" fill="#8b4513">11</text>
</a>
</g>
<g id="a_state_11_item_1"><a xlink:href="#" xlink:title="state_11_item_1">
<text text-anchor="start" x="1219.5" y="-298.8" font-family="Times,serif" font-size="14.00" fill="#bc1f29">IdList </text>
<text text-anchor="start" x="1256.5" y="-298.8" font-family="Times,serif" font-size="14.00" fill="#0a5040">→ </text>
<text text-anchor="start" x="1275.5" y="-298.8" font-family="Times,serif" font-size="14.00" fill="#bc1f29"> IdList</text>
<text text-anchor="start" x="1312.5" y="-298.8" font-family="Times,serif" font-size="14.00" fill="#bc1f29"> OneComma</text>
<text text-anchor="start" x="1383.5" y="-298.8" font-family="Times,serif" font-size="14.00" fill="#f5a70a"> •</text>
<text text-anchor="start" x="1393.5" y="-298.8" font-family="Times,serif" font-size="14.00" fill="#0a5040"> id</text>
</a>
</g>
</g>
<!-- state_13 -->
<g id="state_13" class="node">
<title>state_13</title>
<path fill="#fffff0" stroke="#b8860b" stroke-width="1.5" d="M1698,-340.5C1698,-340.5 1511,-340.5 1511,-340.5 1505,-340.5 1499,-334.5 1499,-328.5 1499,-328.5 1499,-295.5 1499,-295.5 1499,-289.5 1505,-283.5 1511,-283.5 1511,-283.5 1698,-283.5 1698,-283.5 1704,-283.5 1710,-289.5 1710,-295.5 1710,-295.5 1710,-328.5 1710,-328.5 1710,-334.5 1704,-340.5 1698,-340.5"/>
<path fill="none" stroke="#b8860b" stroke-width="1.5" d="M1702,-344.5C1702,-344.5 1507,-344.5 1507,-344.5 1501,-344.5 1495,-338.5 1495,-332.5 1495,-332.5 1495,-291.5 1495,-291.5 1495,-285.5 1501,-279.5 1507,-279.5 1507,-279.5 1702,-279.5 1702,-279.5 1708,-279.5 1714,-285.5 1714,-291.5 1714,-291.5 1714,-332.5 1714,-332.5 1714,-338.5 1708,-344.5 1702,-344.5"/>
<g id="a_state_13_title"><a xlink:href="#" xlink:title="state_13_title">
<text text-anchor="start" x="1578.5" y="-319.6" font-family="Calibri" font-weight="bold" font-size="13.00" fill="#8b4513">Estado </text>
<text text-anchor="start" x="1617.5" y="-319.6" font-family="Calibri" font-weight="bold" font-size="13.00" fill="#8b4513">13</text>
</a>
</g>
<g id="a_state_13_item_1"><a xlink:href="#" xlink:title="state_13_item_1">
<text text-anchor="start" x="1510.5" y="-298.8" font-family="Times,serif" font-size="14.00" fill="#bc1f29">IdList </text>
<text text-anchor="start" x="1547.5" y="-298.8" font-family="Times,serif" font-size="14.00" fill="#0a5040">→ </text>
<text text-anchor="start" x="1566.5" y="-298.8" font-family="Times,serif" font-size="14.00" fill="#bc1f29"> IdList</text>
<text text-anchor="start" x="1603.5" y="-298.8" font-family="Times,serif" font-size="14.00" fill="#bc1f29"> OneComma</text>
<text text-anchor="start" x="1674.5" y="-298.8" font-family="Times,serif" font-size="14.00" fill="#0a5040"> id</text>
<text text-anchor="start" x="1689.5" y="-298.8" font-family="Times,serif" font-size="14.00" fill="#f5a70a"> •</text>
</a>
</g>
</g>
<!-- state_11&#45;&gt;state_13 -->
<g id="trans_13" class="edge">
<title>state_11&#45;&gt;state_13</title>
<path fill="none" stroke="#b8860b" stroke-width="1.5" d="M1419.3809,-312C1440.5647,-312 1462.9613,-312 1484.5801,-312"/>
<polygon fill="#b8860b" stroke="#b8860b" stroke-width="1.5" points="1484.7851,-315.5001 1494.7851,-312 1484.785,-308.5001 1484.7851,-315.5001"/>
<text text-anchor="start" x="1462" y="-315.8" font-family="Times,serif" font-size="14.00" fill="#0a5040"> id</text>
</g>
<!-- state_5 -->
<g id="state_5" class="node">
<title>state_5</title>
<path fill="#fffff0" stroke="#b8860b" stroke-width="1.5" d="M1358,-138.5C1358,-138.5 1269,-138.5 1269,-138.5 1263,-138.5 1257,-132.5 1257,-126.5 1257,-126.5 1257,-93.5 1257,-93.5 1257,-87.5 1263,-81.5 1269,-81.5 1269,-81.5 1358,-81.5 1358,-81.5 1364,-81.5 1370,-87.5 1370,-93.5 1370,-93.5 1370,-126.5 1370,-126.5 1370,-132.5 1364,-138.5 1358,-138.5"/>
<path fill="none" stroke="#b8860b" stroke-width="1.5" d="M1362,-142.5C1362,-142.5 1265,-142.5 1265,-142.5 1259,-142.5 1253,-136.5 1253,-130.5 1253,-130.5 1253,-89.5 1253,-89.5 1253,-83.5 1259,-77.5 1265,-77.5 1265,-77.5 1362,-77.5 1362,-77.5 1368,-77.5 1374,-83.5 1374,-89.5 1374,-89.5 1374,-130.5 1374,-130.5 1374,-136.5 1368,-142.5 1362,-142.5"/>
<g id="a_state_5_title"><a xlink:href="#" xlink:title="state_5_title">
<text text-anchor="start" x="1291" y="-117.6" font-family="Calibri" font-weight="bold" font-size="13.00" fill="#8b4513">Estado </text>
<text text-anchor="start" x="1330" y="-117.6" font-family="Calibri" font-weight="bold" font-size="13.00" fill="#8b4513">5</text>
</a>
</g>
<g id="a_state_5_item_1"><a xlink:href="#" xlink:title="state_5_item_1">
<text text-anchor="start" x="1268.5" y="-96.8" font-family="Times,serif" font-size="14.00" fill="#bc1f29">Commas </text>
<text text-anchor="start" x="1322.5" y="-96.8" font-family="Times,serif" font-size="14.00" fill="#0a5040">→ </text>
<text text-anchor="start" x="1341.5" y="-96.8" font-family="Times,serif" font-size="14.00" fill="#0a5040"> ,</text>
<text text-anchor="start" x="1349.5" y="-96.8" font-family="Times,serif" font-size="14.00" fill="#f5a70a"> •</text>
</a>
</g>
</g>
<!-- state_9 -->
<g id="state_9" class="node">
<title>state_9</title>
<path fill="#fffff0" stroke="#b8860b" stroke-width="1.5" d="M1676,-130.5C1676,-130.5 1533,-130.5 1533,-130.5 1527,-130.5 1521,-124.5 1521,-118.5 1521,-118.5 1521,-85.5 1521,-85.5 1521,-79.5 1527,-73.5 1533,-73.5 1533,-73.5 1676,-73.5 1676,-73.5 1682,-73.5 1688,-79.5 1688,-85.5 1688,-85.5 1688,-118.5 1688,-118.5 1688,-124.5 1682,-130.5 1676,-130.5"/>
<path fill="none" stroke="#b8860b" stroke-width="1.5" d="M1680,-134.5C1680,-134.5 1529,-134.5 1529,-134.5 1523,-134.5 1517,-128.5 1517,-122.5 1517,-122.5 1517,-81.5 1517,-81.5 1517,-75.5 1523,-69.5 1529,-69.5 1529,-69.5 1680,-69.5 1680,-69.5 1686,-69.5 1692,-75.5 1692,-81.5 1692,-81.5 1692,-122.5 1692,-122.5 1692,-128.5 1686,-134.5 1680,-134.5"/>
<g id="a_state_9_title"><a xlink:href="#" xlink:title="state_9_title">
<text text-anchor="start" x="1582" y="-109.6" font-family="Calibri" font-weight="bold" font-size="13.00" fill="#8b4513">Estado </text>
<text text-anchor="start" x="1621" y="-109.6" font-family="Calibri" font-weight="bold" font-size="13.00" fill="#8b4513">9</text>
</a>
</g>
<g id="a_state_9_item_1"><a xlink:href="#" xlink:title="state_9_item_1">
<text text-anchor="start" x="1532.5" y="-88.8" font-family="Times,serif" font-size="14.00" fill="#bc1f29">Commas </text>
<text text-anchor="start" x="1586.5" y="-88.8" font-family="Times,serif" font-size="14.00" fill="#0a5040">→ </text>
<text text-anchor="start" x="1605.5" y="-88.8" font-family="Times,serif" font-size="14.00" fill="#bc1f29"> Commas</text>
<text text-anchor="start" x="1659.5" y="-88.8" font-family="Times,serif" font-size="14.00" fill="#0a5040"> ,</text>
<text text-anchor="start" x="1667.5" y="-88.8" font-family="Times,serif" font-size="14.00" fill="#f5a70a"> •</text>
</a>
</g>
</g>
<!-- state_10 -->
<g id="state_10" class="node">
<title>state_10</title>
<path fill="#fffff0" stroke="#b8860b" stroke-width="1.5" d="M1428,-419.5C1428,-419.5 1199,-419.5 1199,-419.5 1193,-419.5 1187,-413.5 1187,-407.5 1187,-407.5 1187,-374.5 1187,-374.5 1187,-368.5 1193,-362.5 1199,-362.5 1199,-362.5 1428,-362.5 1428,-362.5 1434,-362.5 1440,-368.5 1440,-374.5 1440,-374.5 1440,-407.5 1440,-407.5 1440,-413.5 1434,-419.5 1428,-419.5"/>
<path fill="none" stroke="#b8860b" stroke-width="1.5" d="M1432,-423.5C1432,-423.5 1195,-423.5 1195,-423.5 1189,-423.5 1183,-417.5 1183,-411.5 1183,-411.5 1183,-370.5 1183,-370.5 1183,-364.5 1189,-358.5 1195,-358.5 1195,-358.5 1432,-358.5 1432,-358.5 1438,-358.5 1444,-364.5 1444,-370.5 1444,-370.5 1444,-411.5 1444,-411.5 1444,-417.5 1438,-423.5 1432,-423.5"/>
<g id="a_state_10_title"><a xlink:href="#" xlink:title="state_10_title">
<text text-anchor="start" x="1287.5" y="-398.6" font-family="Calibri" font-weight="bold" font-size="13.00" fill="#8b4513">Estado </text>
<text text-anchor="start" x="1326.5" y="-398.6" font-family="Calibri" font-weight="bold" font-size="13.00" fill="#8b4513">10</text>
</a>
</g>
<g id="a_state_10_item_1"><a xlink:href="#" xlink:title="state_10_item_1">
<text text-anchor="start" x="1198.5" y="-377.8" font-family="Times,serif" font-size="14.00" fill="#bc1f29">List </text>
<text text-anchor="start" x="1223.5" y="-377.8" font-family="Times,serif" font-size="14.00" fill="#0a5040">→ </text>
<text text-anchor="start" x="1242.5" y="-377.8" font-family="Times,serif" font-size="14.00" fill="#bc1f29"> NoCommas</text>
<text text-anchor="start" x="1312.5" y="-377.8" font-family="Times,serif" font-size="14.00" fill="#bc1f29"> IdList</text>
<text text-anchor="start" x="1349.5" y="-377.8" font-family="Times,serif" font-size="14.00" fill="#bc1f29"> NoCommas</text>
<text text-anchor="start" x="1419.5" y="-377.8" font-family="Times,serif" font-size="14.00" fill="#f5a70a"> •</text>
</a>
</g>
</g>
<!-- state_1 -->
<g id="state_1" class="node">
<title>state_1</title>
<path fill="#f5f5dc" stroke="#b8860b" stroke-width="1.5" stroke-dasharray="5,2" d="M241,-198C241,-198 12,-198 12,-198 6,-198 0,-192 0,-186 0,-186 0,-48 0,-48 0,-42 6,-36 12,-36 12,-36 241,-36 241,-36 247,-36 253,-42 253,-48 253,-48 253,-186 253,-186 253,-192 247,-198 241,-198"/>
<g id="a_state_1_title"><a xlink:href="#" xlink:title="state_1_title">
<text text-anchor="start" x="104" y="-177.6" font-family="Calibri" font-weight="bold" font-size="13.00" fill="#8b4513">Estado </text>
<text text-anchor="start" x="143" y="-177.6" font-family="Calibri" font-weight="bold" font-size="13.00" fill="#8b4513">1</text>
</a>
</g>
<g id="a_state_1_item_1"><a xlink:href="#" xlink:title="state_1_item_1">
<text text-anchor="start" x="11.5" y="-156.8" font-family="Times,serif" font-size="14.00" fill="#bc1f29">List&#39; </text>
<text text-anchor="start" x="39.5" y="-156.8" font-family="Times,serif" font-size="14.00" fill="#0a5040">→ </text>
<text text-anchor="start" x="58.5" y="-156.8" font-family="Times,serif" font-size="14.00" fill="#f5a70a"> •</text>
<text text-anchor="start" x="68.5" y="-156.8" font-family="Times,serif" font-size="14.00" fill="#bc1f29"> List</text>
<text text-anchor="start" x="93.5" y="-156.8" font-family="Times,serif" font-size="14.00" fill="#0a5040"> $</text>
</a>
</g>
<g id="a_state_1_item_2"><a xlink:href="#" xlink:title="state_1_item_2">
<text text-anchor="start" x="11.5" y="-135.8" font-family="Times,serif" font-size="14.00" fill="#bc1f29">List </text>
<text text-anchor="start" x="36.5" y="-135.8" font-family="Times,serif" font-size="14.00" fill="#0a5040">→ </text>
<text text-anchor="start" x="55.5" y="-135.8" font-family="Times,serif" font-size="14.00" fill="#f5a70a"> •</text>
<text text-anchor="start" x="65.5" y="-135.8" font-family="Times,serif" font-size="14.00" fill="#bc1f29"> NoCommas</text>
<text text-anchor="start" x="135.5" y="-135.8" font-family="Times,serif" font-size="14.00" fill="#bc1f29"> IdList</text>
<text text-anchor="start" x="172.5" y="-135.8" font-family="Times,serif" font-size="14.00" fill="#bc1f29"> NoCommas</text>
</a>
</g>
<g id="a_state_1_item_3"><a xlink:href="#" xlink:title="state_1_item_3">
<text text-anchor="start" x="11.5" y="-114.8" font-family="Times,serif" font-size="14.00" fill="#bc1f29">NoCommas </text>
<text text-anchor="start" x="81.5" y="-114.8" font-family="Times,serif" font-size="14.00" fill="#0a5040">→ </text>
<text text-anchor="start" x="100.5" y="-114.8" font-family="Times,serif" font-size="14.00" fill="#f5a70a"> •</text>
<text text-anchor="start" x="110.5" y="-114.8" font-family="Times,serif" font-size="14.00" fill="#bc1f29"> Commas</text>
</a>
</g>
<g id="a_state_1_item_4"><a xlink:href="#" xlink:title="state_1_item_4">
<text text-anchor="start" x="11.5" y="-93.8" font-family="Times,serif" font-size="14.00" fill="#bc1f29">NoCommas </text>
<text text-anchor="start" x="81.5" y="-93.8" font-family="Times,serif" font-size="14.00" fill="#0a5040">→ </text>
<text text-anchor="start" x="100.5" y="-93.8" font-family="Times,serif" font-size="14.00" fill="#f5a70a"> •</text>
</a>
</g>
<g id="a_state_1_item_5"><a xlink:href="#" xlink:title="state_1_item_5">
<text text-anchor="start" x="11.5" y="-72.8" font-family="Times,serif" font-size="14.00" fill="#bc1f29">Commas </text>
<text text-anchor="start" x="65.5" y="-72.8" font-family="Times,serif" font-size="14.00" fill="#0a5040">→ </text>
<text text-anchor="start" x="84.5" y="-72.8" font-family="Times,serif" font-size="14.00" fill="#f5a70a"> •</text>
<text text-anchor="start" x="94.5" y="-72.8" font-family="Times,serif" font-size="14.00" fill="#bc1f29"> Commas</text>
<text text-anchor="start" x="148.5" y="-72.8" font-family="Times,serif" font-size="14.00" fill="#0a5040"> ,</text>
</a>
</g>
<g id="a_state_1_item_6"><a xlink:href="#" xlink:title="state_1_item_6">
<text text-anchor="start" x="11.5" y="-51.8" font-family="Times,serif" font-size="14.00" fill="#bc1f29">Commas </text>
<text text-anchor="start" x="65.5" y="-51.8" font-family="Times,serif" font-size="14.00" fill="#0a5040">→ </text>
<text text-anchor="start" x="84.5" y="-51.8" font-family="Times,serif" font-size="14.00" fill="#f5a70a"> •</text>
<text text-anchor="start" x="94.5" y="-51.8" font-family="Times,serif" font-size="14.00" fill="#0a5040"> ,</text>
</a>
</g>
</g>
<!-- state_1&#45;&gt;state_2 -->
<g id="trans_1" class="edge">
<title>state_1&#45;&gt;state_2</title>
<path fill="none" stroke="#b8860b" stroke-width="1.5" d="M229.375,-198.0964C299.3907,-253.2899 388.5545,-323.5777 441.0915,-364.9927"/>
<polygon fill="#b8860b" stroke="#b8860b" stroke-width="1.5" points="439.1803,-367.9428 449.2004,-371.385 443.5138,-362.4455 439.1803,-367.9428"/>
<text text-anchor="start" x="293.5" y="-286.8" font-family="Times,serif" font-size="14.00" fill="#bc1f29"> List</text>
</g>
<!-- state_1&#45;&gt;state_3 -->
<g id="trans_2" class="edge">
<title>state_1&#45;&gt;state_3</title>
<path fill="none" stroke="#b8860b" stroke-width="1.5" d="M253.07,-138.8589C284.0368,-144.2069 317.3117,-149.9536 348.732,-155.3799"/>
<polygon fill="#b8860b" stroke="#b8860b" stroke-width="1.5" points="348.4132,-158.8766 358.863,-157.1295 349.6045,-151.9787 348.4132,-158.8766"/>
<text text-anchor="start" x="271" y="-156.8" font-family="Times,serif" font-size="14.00" fill="#bc1f29"> NoCommas</text>
</g>
<!-- state_1&#45;&gt;state_5 -->
<g id="trans_4" class="edge">
<title>state_1&#45;&gt;state_5</title>
<path fill="none" stroke="#b8860b" stroke-width="1.5" d="M253.2485,-116.2525C502.2272,-114.7843 1047.8568,-111.5666 1242.6485,-110.4178"/>
<polygon fill="#b8860b" stroke="#b8860b" stroke-width="1.5" points="1242.7847,-113.9172 1252.7639,-110.3582 1242.7434,-106.9173 1242.7847,-113.9172"/>
<text text-anchor="start" x="713.5" y="-116.8" font-family="Times,serif" font-size="14.00" fill="#0a5040"> ,</text>
</g>
<!-- state_4 -->
<g id="state_4" class="node">
<title>state_4</title>
<path fill="#f5f5dc" stroke="#b8860b" stroke-width="1.5" stroke-dasharray="5,2" d="M793,-78C793,-78 642,-78 642,-78 636,-78 630,-72 630,-66 630,-66 630,-12 630,-12 630,-6 636,0 642,0 642,0 793,0 793,0 799,0 805,-6 805,-12 805,-12 805,-66 805,-66 805,-72 799,-78 793,-78"/>
<g id="a_state_4_title"><a xlink:href="#" xlink:title="state_4_title">
<text text-anchor="start" x="695" y="-57.6" font-family="Calibri" font-weight="bold" font-size="13.00" fill="#8b4513">Estado </text>
<text text-anchor="start" x="734" y="-57.6" font-family="Calibri" font-weight="bold" font-size="13.00" fill="#8b4513">4</text>
</a>
</g>
<g id="a_state_4_item_1"><a xlink:href="#" xlink:title="state_4_item_1">
<text text-anchor="start" x="641.5" y="-36.8" font-family="Times,serif" font-size="14.00" fill="#bc1f29">NoCommas </text>
<text text-anchor="start" x="711.5" y="-36.8" font-family="Times,serif" font-size="14.00" fill="#0a5040">→ </text>
<text text-anchor="start" x="730.5" y="-36.8" font-family="Times,serif" font-size="14.00" fill="#bc1f29"> Commas</text>
<text text-anchor="start" x="784.5" y="-36.8" font-family="Times,serif" font-size="14.00" fill="#f5a70a"> •</text>
</a>
</g>
<g id="a_state_4_item_2"><a xlink:href="#" xlink:title="state_4_item_2">
<text text-anchor="start" x="641.5" y="-15.8" font-family="Times,serif" font-size="14.00" fill="#bc1f29">Commas </text>
<text text-anchor="start" x="695.5" y="-15.8" font-family="Times,serif" font-size="14.00" fill="#0a5040">→ </text>
<text text-anchor="start" x="714.5" y="-15.8" font-family="Times,serif" font-size="14.00" fill="#bc1f29"> Commas</text>
<text text-anchor="start" x="768.5" y="-15.8" font-family="Times,serif" font-size="14.00" fill="#f5a70a"> •</text>
<text text-anchor="start" x="778.5" y="-15.8" font-family="Times,serif" font-size="14.00" fill="#0a5040"> ,</text>
</a>
</g>
</g>
<!-- state_1&#45;&gt;state_4 -->
<g id="trans_3" class="edge">
<title>state_1&#45;&gt;state_4</title>
<path fill="none" stroke="#b8860b" stroke-width="1.5" d="M253.3519,-75.737C259.2889,-74.3615 265.1921,-73.104 271,-72 389.6839,-49.4409 528.8356,-42.1103 619.8554,-39.8324"/>
<polygon fill="#b8860b" stroke="#b8860b" stroke-width="1.5" points="619.9701,-43.3307 629.8852,-39.597 619.8058,-36.3327 619.9701,-43.3307"/>
<text text-anchor="start" x="279" y="-75.8" font-family="Times,serif" font-size="14.00" fill="#bc1f29"> Commas</text>
</g>
<!-- state_4&#45;&gt;state_9 -->
<g id="trans_8" class="edge">
<title>state_4&#45;&gt;state_9</title>
<path fill="none" stroke="#b8860b" stroke-width="1.5" d="M805.1176,-37.7418C942.0326,-36.8445 1214.784,-39.3552 1444,-68 1464.4024,-70.5497 1486.0606,-74.3649 1506.6441,-78.5292"/>
<polygon fill="#b8860b" stroke="#b8860b" stroke-width="1.5" points="1506.1507,-82.0011 1516.6521,-80.5975 1507.5675,-75.146 1506.1507,-82.0011"/>
<text text-anchor="start" x="1125.5" y="-48.8" font-family="Times,serif" font-size="14.00" fill="#0a5040"> ,</text>
</g>
<!-- state_7&#45;&gt;state_11 -->
<g id="trans_10" class="edge">
<title>state_7&#45;&gt;state_11</title>
<path fill="none" stroke="#b8860b" stroke-width="1.5" d="M1076.0432,-313.9571C1115.5169,-313.6317 1158.8387,-313.2747 1197.5486,-312.9556"/>
<polygon fill="#b8860b" stroke="#b8860b" stroke-width="1.5" points="1197.8388,-316.4535 1207.8096,-312.8711 1197.781,-309.4537 1197.8388,-316.4535"/>
<text text-anchor="start" x="1094" y="-316.8" font-family="Times,serif" font-size="14.00" fill="#bc1f29"> OneComma</text>
</g>
<!-- state_7&#45;&gt;state_5 -->
<g id="trans_12" class="edge">
<title>state_7&#45;&gt;state_5</title>
<path fill="none" stroke="#b8860b" stroke-width="1.5" d="M1076.1288,-220.0646C1109.8117,-197.2708 1146.8958,-174.2651 1183,-156 1201.8818,-146.4477 1223.2202,-138.0229 1243.0891,-131.0805"/>
<polygon fill="#b8860b" stroke="#b8860b" stroke-width="1.5" points="1244.3771,-134.3392 1252.7078,-127.7931 1242.1132,-127.7154 1244.3771,-134.3392"/>
<text text-anchor="start" x="1125.5" y="-209.8" font-family="Times,serif" font-size="14.00" fill="#0a5040"> ,</text>
</g>
<!-- state_7&#45;&gt;state_10 -->
<g id="trans_9" class="edge">
<title>state_7&#45;&gt;state_10</title>
<path fill="none" stroke="#b8860b" stroke-width="1.5" d="M1076.0432,-341.4211C1107.3865,-347.9653 1141.1558,-355.0161 1173.1161,-361.6891"/>
<polygon fill="#b8860b" stroke="#b8860b" stroke-width="1.5" points="1172.4678,-365.1291 1182.972,-363.7469 1173.8985,-358.2769 1172.4678,-365.1291"/>
<text text-anchor="start" x="1094.5" y="-362.8" font-family="Times,serif" font-size="14.00" fill="#bc1f29"> NoCommas</text>
</g>
<!-- state_12 -->
<g id="state_12" class="node">
<title>state_12</title>
<path fill="#f5f5dc" stroke="#b8860b" stroke-width="1.5" stroke-dasharray="5,2" d="M1389.5,-263.5C1389.5,-263.5 1237.5,-263.5 1237.5,-263.5 1231.5,-263.5 1225.5,-257.5 1225.5,-251.5 1225.5,-251.5 1225.5,-176.5 1225.5,-176.5 1225.5,-170.5 1231.5,-164.5 1237.5,-164.5 1237.5,-164.5 1389.5,-164.5 1389.5,-164.5 1395.5,-164.5 1401.5,-170.5 1401.5,-176.5 1401.5,-176.5 1401.5,-251.5 1401.5,-251.5 1401.5,-257.5 1395.5,-263.5 1389.5,-263.5"/>
<g id="a_state_12_title"><a xlink:href="#" xlink:title="state_12_title">
<text text-anchor="start" x="1287" y="-242.6" font-family="Calibri" font-weight="bold" font-size="13.00" fill="#8b4513">Estado </text>
<text text-anchor="start" x="1326" y="-242.6" font-family="Calibri" font-weight="bold" font-size="13.00" fill="#8b4513">12</text>
</a>
</g>
<g id="a_state_12_item_1"><a xlink:href="#" xlink:title="state_12_item_1">
<text text-anchor="start" x="1236.5" y="-221.8" font-family="Times,serif" font-size="14.00" fill="#bc1f29">NoCommas </text>
<text text-anchor="start" x="1306.5" y="-221.8" font-family="Times,serif" font-size="14.00" fill="#0a5040">→ </text>
<text text-anchor="start" x="1325.5" y="-221.8" font-family="Times,serif" font-size="14.00" fill="#bc1f29"> Commas</text>
<text text-anchor="start" x="1379.5" y="-221.8" font-family="Times,serif" font-size="14.00" fill="#f5a70a"> •</text>
</a>
</g>
<g id="a_state_12_item_2"><a xlink:href="#" xlink:title="state_12_item_2">
<text text-anchor="start" x="1236.5" y="-200.8" font-family="Times,serif" font-size="14.00" fill="#bc1f29">OneComma </text>
<text text-anchor="start" x="1307.5" y="-200.8" font-family="Times,serif" font-size="14.00" fill="#0a5040">→ </text>
<text text-anchor="start" x="1326.5" y="-200.8" font-family="Times,serif" font-size="14.00" fill="#bc1f29"> Commas</text>
<text text-anchor="start" x="1380.5" y="-200.8" font-family="Times,serif" font-size="14.00" fill="#f5a70a"> •</text>
</a>
</g>
<g id="a_state_12_item_3"><a xlink:href="#" xlink:title="state_12_item_3">
<text text-anchor="start" x="1236.5" y="-179.8" font-family="Times,serif" font-size="14.00" fill="#bc1f29">Commas </text>
<text text-anchor="start" x="1290.5" y="-179.8" font-family="Times,serif" font-size="14.00" fill="#0a5040">→ </text>
<text text-anchor="start" x="1309.5" y="-179.8" font-family="Times,serif" font-size="14.00" fill="#bc1f29"> Commas</text>
<text text-anchor="start" x="1363.5" y="-179.8" font-family="Times,serif" font-size="14.00" fill="#f5a70a"> •</text>
<text text-anchor="start" x="1373.5" y="-179.8" font-family="Times,serif" font-size="14.00" fill="#0a5040"> ,</text>
</a>
</g>
</g>
<!-- state_7&#45;&gt;state_12 -->
<g id="trans_11" class="edge">
<title>state_7&#45;&gt;state_12</title>
<path fill="none" stroke="#b8860b" stroke-width="1.5" d="M1076.0432,-279.8877C1121.7448,-267.2068 1172.6044,-253.0947 1215.4929,-241.1943"/>
<polygon fill="#b8860b" stroke="#b8860b" stroke-width="1.5" points="1216.6639,-244.5017 1225.364,-238.4553 1214.7922,-237.7565 1216.6639,-244.5017"/>
<text text-anchor="start" x="1102.5" y="-276.8" font-family="Times,serif" font-size="14.00" fill="#bc1f29"> Commas</text>
</g>
<!-- state_12&#45;&gt;state_9 -->
<g id="trans_14" class="edge">
<title>state_12&#45;&gt;state_9</title>
<path fill="none" stroke="#b8860b" stroke-width="1.5" d="M1401.5993,-180.0924C1435.8505,-166.9098 1475.1557,-151.782 1509.9951,-138.373"/>
<polygon fill="#b8860b" stroke="#b8860b" stroke-width="1.5" points="1511.6199,-141.498 1519.6953,-134.6396 1509.1055,-134.9652 1511.6199,-141.498"/>
<text text-anchor="start" x="1465.5" y="-157.8" font-family="Times,serif" font-size="14.00" fill="#0a5040"> ,</text>
</g>
</g>
</svg>
