<?xml version="1.0" encoding="UTF-8" standalone="no"?>
<!DOCTYPE svg PUBLIC "-//W3C//DTD SVG 1.1//EN"
 "http://www.w3.org/Graphics/SVG/1.1/DTD/svg11.dtd">
<!-- Generated by graphviz version 2.40.1 (20161225.0304)
 -->
<!-- Title: DFA Pages: 1 -->
<svg width="722pt" height="464pt"
 viewBox="0.00 0.00 722.00 463.50" xmlns="http://www.w3.org/2000/svg" xmlns:xlink="http://www.w3.org/1999/xlink">
<g id="graph0" class="graph" transform="scale(1 1) rotate(0) translate(4 459.5)">
<title>DFA</title>
<!-- state_1 -->
<g id="state_1" class="node">
<title>state_1</title>
<path fill="#fffff0" stroke="#b8860b" stroke-width="1.5" d="M91,-306.5C91,-306.5 12,-306.5 12,-306.5 6,-306.5 0,-300.5 0,-294.5 0,-294.5 0,-156.5 0,-156.5 0,-150.5 6,-144.5 12,-144.5 12,-144.5 91,-144.5 91,-144.5 97,-144.5 103,-150.5 103,-156.5 103,-156.5 103,-294.5 103,-294.5 103,-300.5 97,-306.5 91,-306.5"/>
<g id="a_state_1_title"><a xlink:href="#" xlink:title="state_1_title">
<text text-anchor="start" x="29" y="-286.1" font-family="Calibri" font-weight="bold" font-size="13.00" fill="#8b4513">Estado </text>
<text text-anchor="start" x="68" y="-286.1" font-family="Calibri" font-weight="bold" font-size="13.00" fill="#8b4513">1</text>
</a>
</g>
<g id="a_state_1_item_1"><a xlink:href="#" xlink:title="state_1_item_1">
<text text-anchor="start" x="11.5" y="-265.3" font-family="Times,serif" font-size="14.00" fill="#bc1f29">E&#39; </text>
<text text-anchor="start" x="26.5" y="-265.3" font-family="Times,serif" font-size="14.00" fill="#0a5040">→ </text>
<text text-anchor="start" x="45.5" y="-265.3" font-family="Times,serif" font-size="14.00" fill="#f5a70a"> •</text>
<text text-anchor="start" x="55.5" y="-265.3" font-family="Times,serif" font-size="14.00" fill="#bc1f29"> E</text>
<text text-anchor="start" x="68.5" y="-265.3" font-family="Times,serif" font-size="14.00" fill="#0a5040"> $</text>
</a>
</g>
<g id="a_state_1_item_2"><a xlink:href="#" xlink:title="state_1_item_2">
<text text-anchor="start" x="11.5" y="-244.3" font-family="Times,serif" font-size="14.00" fill="#bc1f29">E </text>
<text text-anchor="start" x="24.5" y="-244.3" font-family="Times,serif" font-size="14.00" fill="#0a5040">→ </text>
<text text-anchor="start" x="43.5" y="-244.3" font-family="Times,serif" font-size="14.00" fill="#f5a70a"> •</text>
<text text-anchor="start" x="53.5" y="-244.3" font-family="Times,serif" font-size="14.00" fill="#bc1f29"> L</text>
<text text-anchor="start" x="66.5" y="-244.3" font-family="Times,serif" font-size="14.00" fill="#0a5040"> =</text>
<text text-anchor="start" x="79.5" y="-244.3" font-family="Times,serif" font-size="14.00" fill="#bc1f29"> R</text>
</a>
</g>
<g id="a_state_1_item_3"><a xlink:href="#" xlink:title="state_1_item_3">
<text text-anchor="start" x="11.5" y="-223.3" font-family="Times,serif" font-size="14.00" fill="#bc1f29">E </text>
<text text-anchor="start" x="24.5" y="-223.3" font-family="Times,serif" font-size="14.00" fill="#0a5040">→ </text>
<text text-anchor="start" x="43.5" y="-223.3" font-family="Times,serif" font-size="14.00" fill="#f5a70a"> •</text>
<text text-anchor="start" x="53.5" y="-223.3" font-family="Times,serif" font-size="14.00" fill="#bc1f29"> R</text>
</a>
</g>
<g id="a_state_1_item_4"><a xlink:href="#" xlink:title="state_1_item_4">
<text text-anchor="start" x="11.5" y="-202.3" font-family="Times,serif" font-size="14.00" fill="#bc1f29">L </text>
<text text-anchor="start" x="24.5" y="-202.3" font-family="Times,serif" font-size="14.00" fill="#0a5040">→ </text>
<text text-anchor="start" x="43.5" y="-202.3" font-family="Times,serif" font-size="14.00" fill="#f5a70a"> •</text>
<text text-anchor="start" x="53.5" y="-202.3" font-family="Times,serif" font-size="14.00" fill="#0a5040"> *</text>
<text text-anchor="start" x="64.5" y="-202.3" font-family="Times,serif" font-size="14.00" fill="#bc1f29"> R</text>
</a>
</g>
<g id="a_state_1_item_5"><a xlink:href="#" xlink:title="state_1_item_5">
<text text-anchor="start" x="11.5" y="-181.3" font-family="Times,serif" font-size="14.00" fill="#bc1f29">L </text>
<text text-anchor="start" x="24.5" y="-181.3" font-family="Times,serif" font-size="14.00" fill="#0a5040">→ </text>
<text text-anchor="start" x="43.5" y="-181.3" font-family="Times,serif" font-size="14.00" fill="#f5a70a"> •</text>
<text text-anchor="start" x="53.5" y="-181.3" font-family="Times,serif" font-size="14.00" fill="#0a5040"> id</text>
</a>
</g>
<g id="a_state_1_item_6"><a xlink:href="#" xlink:title="state_1_item_6">
<text text-anchor="start" x="11.5" y="-160.3" font-family="Times,serif" font-size="14.00" fill="#bc1f29">R </text>
<text text-anchor="start" x="24.5" y="-160.3" font-family="Times,serif" font-size="14.00" fill="#0a5040">→ </text>
<text text-anchor="start" x="43.5" y="-160.3" font-family="Times,serif" font-size="14.00" fill="#f5a70a"> •</text>
<text text-anchor="start" x="53.5" y="-160.3" font-family="Times,serif" font-size="14.00" fill="#bc1f29"> L</text>
</a>
</g>
</g>
<!-- state_2 -->
<g id="state_2" class="node">
<title>state_2</title>
<path fill="#fffff0" stroke="#b8860b" stroke-width="1.5" d="M236.5,-432C236.5,-432 170.5,-432 170.5,-432 164.5,-432 158.5,-426 158.5,-420 158.5,-420 158.5,-387 158.5,-387 158.5,-381 164.5,-375 170.5,-375 170.5,-375 236.5,-375 236.5,-375 242.5,-375 248.5,-381 248.5,-387 248.5,-387 248.5,-420 248.5,-420 248.5,-426 242.5,-432 236.5,-432"/>
<g id="a_state_2_title"><a xlink:href="#" xlink:title="state_2_title">
<text text-anchor="start" x="180.5" y="-411.1" font-family="Calibri" font-weight="bold" font-size="13.00" fill="#8b4513">Estado </text>
<text text-anchor="start" x="219.5" y="-411.1" font-family="Calibri" font-weight="bold" font-size="13.00" fill="#8b4513">2</text>
</a>
</g>
<g id="a_state_2_item_1"><a xlink:href="#" xlink:title="state_2_item_1">
<text text-anchor="start" x="169.5" y="-390.3" font-family="Times,serif" font-size="14.00" fill="#bc1f29">E&#39; </text>
<text text-anchor="start" x="184.5" y="-390.3" font-family="Times,serif" font-size="14.00" fill="#0a5040">→ </text>
<text text-anchor="start" x="203.5" y="-390.3" font-family="Times,serif" font-size="14.00" fill="#bc1f29"> E</text>
<text text-anchor="start" x="216.5" y="-390.3" font-family="Times,serif" font-size="14.00" fill="#f5a70a"> •</text>
<text text-anchor="start" x="226.5" y="-390.3" font-family="Times,serif" font-size="14.00" fill="#0a5040"> $</text>
</a>
</g>
</g>
<!-- state_1&#45;&gt;state_2 -->
<g id="trans_1" class="edge">
<title>state_1&#45;&gt;state_2</title>
<path fill="none" stroke="#b8860b" stroke-width="1.5" d="M84.17,-306.5699C94.1299,-325.0677 106.3942,-343.6316 121,-358.5 129.1355,-366.7817 139.1222,-373.9362 149.3025,-379.9503"/>
<polygon fill="#b8860b" stroke="#b8860b" stroke-width="1.5" points="147.8182,-383.1299 158.257,-384.9414 151.2263,-377.0155 147.8182,-383.1299"/>
<text text-anchor="start" x="121" y="-372.3" font-family="Times,serif" font-size="14.00" fill="#bc1f29"> E</text>
</g>
<!-- state_5 -->
<g id="state_5" class="node">
<title>state_5</title>
<path fill="#fffff0" stroke="#b8860b" stroke-width="1.5" d="M543.5,-376.5C543.5,-376.5 479.5,-376.5 479.5,-376.5 473.5,-376.5 467.5,-370.5 467.5,-364.5 467.5,-364.5 467.5,-268.5 467.5,-268.5 467.5,-262.5 473.5,-256.5 479.5,-256.5 479.5,-256.5 543.5,-256.5 543.5,-256.5 549.5,-256.5 555.5,-262.5 555.5,-268.5 555.5,-268.5 555.5,-364.5 555.5,-364.5 555.5,-370.5 549.5,-376.5 543.5,-376.5"/>
<g id="a_state_5_title"><a xlink:href="#" xlink:title="state_5_title">
<text text-anchor="start" x="488.5" y="-356.1" font-family="Calibri" font-weight="bold" font-size="13.00" fill="#8b4513">Estado </text>
<text text-anchor="start" x="527.5" y="-356.1" font-family="Calibri" font-weight="bold" font-size="13.00" fill="#8b4513">5</text>
</a>
</g>
<g id="a_state_5_item_1"><a xlink:href="#" xlink:title="state_5_item_1">
<text text-anchor="start" x="478.5" y="-335.3" font-family="Times,serif" font-size="14.00" fill="#bc1f29">L </text>
<text text-anchor="start" x="491.5" y="-335.3" font-family="Times,serif" font-size="14.00" fill="#0a5040">→ </text>
<text text-anchor="start" x="510.5" y="-335.3" font-family="Times,serif" font-size="14.00" fill="#0a5040"> *</text>
<text text-anchor="start" x="521.5" y="-335.3" font-family="Times,serif" font-size="14.00" fill="#f5a70a"> •</text>
<text text-anchor="start" x="531.5" y="-335.3" font-family="Times,serif" font-size="14.00" fill="#bc1f29"> R</text>
</a>
</g>
<g id="a_state_5_item_2"><a xlink:href="#" xlink:title="state_5_item_2">
<text text-anchor="start" x="478.5" y="-314.3" font-family="Times,serif" font-size="14.00" fill="#bc1f29">R </text>
<text text-anchor="start" x="491.5" y="-314.3" font-family="Times,serif" font-size="14.00" fill="#0a5040">→ </text>
<text text-anchor="start" x="510.5" y="-314.3" font-family="Times,serif" font-size="14.00" fill="#f5a70a"> •</text>
<text text-anchor="start" x="520.5" y="-314.3" font-family="Times,serif" font-size="14.00" fill="#bc1f29"> L</text>
</a>
</g>
<g id="a_state_5_item_3"><a xlink:href="#" xlink:title="state_5_item_3">
<text text-anchor="start" x="478.5" y="-293.3" font-family="Times,serif" font-size="14.00" fill="#bc1f29">L </text>
<text text-anchor="start" x="491.5" y="-293.3" font-family="Times,serif" font-size="14.00" fill="#0a5040">→ </text>
<text text-anchor="start" x="510.5" y="-293.3" font-family="Times,serif" font-size="14.00" fill="#f5a70a"> •</text>
<text text-anchor="start" x="520.5" y="-293.3" font-family="Times,serif" font-size="14.00" fill="#0a5040"> *</text>
<text text-anchor="start" x="531.5" y="-293.3" font-family="Times,serif" font-size="14.00" fill="#bc1f29"> R</text>
</a>
</g>
<g id="a_state_5_item_4"><a xlink:href="#" xlink:title="state_5_item_4">
<text text-anchor="start" x="478.5" y="-272.3" font-family="Times,serif" font-size="14.00" fill="#bc1f29">L </text>
<text text-anchor="start" x="491.5" y="-272.3" font-family="Times,serif" font-size="14.00" fill="#0a5040">→ </text>
<text text-anchor="start" x="510.5" y="-272.3" font-family="Times,serif" font-size="14.00" fill="#f5a70a"> •</text>
<text text-anchor="start" x="520.5" y="-272.3" font-family="Times,serif" font-size="14.00" fill="#0a5040"> id</text>
</a>
</g>
</g>
<!-- state_1&#45;&gt;state_5 -->
<g id="trans_4" class="edge">
<title>state_1&#45;&gt;state_5</title>
<path fill="none" stroke="#b8860b" stroke-width="1.5" d="M103.2212,-253.9421C118.5405,-261.3294 135.6094,-268.5832 152,-273.5 257.0151,-305.0018 385.8156,-313.5384 457.2399,-315.7801"/>
<polygon fill="#b8860b" stroke="#b8860b" stroke-width="1.5" points="457.2566,-319.2819 467.3519,-316.0671 457.4553,-312.2847 457.2566,-319.2819"/>
<text text-anchor="start" x="274" y="-304.3" font-family="Times,serif" font-size="14.00" fill="#0a5040"> *</text>
</g>
<!-- state_4 -->
<g id="state_4" class="node">
<title>state_4</title>
<path fill="#fffff0" stroke="#b8860b" stroke-width="1.5" d="M230,-61C230,-61 177,-61 177,-61 171,-61 165,-55 165,-49 165,-49 165,-16 165,-16 165,-10 171,-4 177,-4 177,-4 230,-4 230,-4 236,-4 242,-10 242,-16 242,-16 242,-49 242,-49 242,-55 236,-61 230,-61"/>
<path fill="none" stroke="#b8860b" stroke-width="1.5" d="M234,-65C234,-65 173,-65 173,-65 167,-65 161,-59 161,-53 161,-53 161,-12 161,-12 161,-6 167,0 173,0 173,0 234,0 234,0 240,0 246,-6 246,-12 246,-12 246,-53 246,-53 246,-59 240,-65 234,-65"/>
<g id="a_state_4_title"><a xlink:href="#" xlink:title="state_4_title">
<text text-anchor="start" x="181" y="-40.1" font-family="Calibri" font-weight="bold" font-size="13.00" fill="#8b4513">Estado </text>
<text text-anchor="start" x="220" y="-40.1" font-family="Calibri" font-weight="bold" font-size="13.00" fill="#8b4513">4</text>
</a>
</g>
<g id="a_state_4_item_1"><a xlink:href="#" xlink:title="state_4_item_1">
<text text-anchor="start" x="176.5" y="-19.3" font-family="Times,serif" font-size="14.00" fill="#bc1f29">E </text>
<text text-anchor="start" x="189.5" y="-19.3" font-family="Times,serif" font-size="14.00" fill="#0a5040">→ </text>
<text text-anchor="start" x="208.5" y="-19.3" font-family="Times,serif" font-size="14.00" fill="#bc1f29"> R</text>
<text text-anchor="start" x="221.5" y="-19.3" font-family="Times,serif" font-size="14.00" fill="#f5a70a"> •</text>
</a>
</g>
</g>
<!-- state_1&#45;&gt;state_4 -->
<g id="trans_3" class="edge">
<title>state_1&#45;&gt;state_4</title>
<path fill="none" stroke="#b8860b" stroke-width="1.5" d="M72.4111,-144.1973C83.0578,-115.9775 98.6341,-86.0425 121,-64.5 129.4723,-56.3396 140.2571,-50.1979 151.2131,-45.5975"/>
<polygon fill="#b8860b" stroke="#b8860b" stroke-width="1.5" points="152.7287,-48.7658 160.8313,-41.9395 150.2403,-42.223 152.7287,-48.7658"/>
<text text-anchor="start" x="121" y="-68.3" font-family="Times,serif" font-size="14.00" fill="#bc1f29"> R</text>
</g>
<!-- state_6 -->
<g id="state_6" class="node">
<title>state_6</title>
<path fill="#fffff0" stroke="#b8860b" stroke-width="1.5" d="M693.5,-252C693.5,-252 638.5,-252 638.5,-252 632.5,-252 626.5,-246 626.5,-240 626.5,-240 626.5,-207 626.5,-207 626.5,-201 632.5,-195 638.5,-195 638.5,-195 693.5,-195 693.5,-195 699.5,-195 705.5,-201 705.5,-207 705.5,-207 705.5,-240 705.5,-240 705.5,-246 699.5,-252 693.5,-252"/>
<path fill="none" stroke="#b8860b" stroke-width="1.5" d="M697.5,-256C697.5,-256 634.5,-256 634.5,-256 628.5,-256 622.5,-250 622.5,-244 622.5,-244 622.5,-203 622.5,-203 622.5,-197 628.5,-191 634.5,-191 634.5,-191 697.5,-191 697.5,-191 703.5,-191 709.5,-197 709.5,-203 709.5,-203 709.5,-244 709.5,-244 709.5,-250 703.5,-256 697.5,-256"/>
<g id="a_state_6_title"><a xlink:href="#" xlink:title="state_6_title">
<text text-anchor="start" x="643.5" y="-231.1" font-family="Calibri" font-weight="bold" font-size="13.00" fill="#8b4513">Estado </text>
<text text-anchor="start" x="682.5" y="-231.1" font-family="Calibri" font-weight="bold" font-size="13.00" fill="#8b4513">6</text>
</a>
</g>
<g id="a_state_6_item_1"><a xlink:href="#" xlink:title="state_6_item_1">
<text text-anchor="start" x="638" y="-210.3" font-family="Times,serif" font-size="14.00" fill="#bc1f29">L </text>
<text text-anchor="start" x="651" y="-210.3" font-family="Times,serif" font-size="14.00" fill="#0a5040">→ </text>
<text text-anchor="start" x="670" y="-210.3" font-family="Times,serif" font-size="14.00" fill="#0a5040"> id</text>
<text text-anchor="start" x="685" y="-210.3" font-family="Times,serif" font-size="14.00" fill="#f5a70a"> •</text>
</a>
</g>
</g>
<!-- state_1&#45;&gt;state_6 -->
<g id="trans_5" class="edge">
<title>state_1&#45;&gt;state_6</title>
<path fill="none" stroke="#b8860b" stroke-width="1.5" d="M103.1419,-148.7151C129.1563,-119.676 163.6563,-93.5 203.5,-93.5 203.5,-93.5 203.5,-93.5 511.5,-93.5 567.555,-93.5 613.8632,-144.2218 640.7301,-182.3002"/>
<polygon fill="#b8860b" stroke="#b8860b" stroke-width="1.5" points="637.9456,-184.4285 646.4881,-190.6955 643.7183,-180.4691 637.9456,-184.4285"/>
<text text-anchor="start" x="348" y="-97.3" font-family="Times,serif" font-size="14.00" fill="#0a5040"> id</text>
</g>
<!-- state_3 -->
<g id="state_3" class="node">
<title>state_3</title>
<path fill="#f5f5dc" stroke="#b8860b" stroke-width="1.5" stroke-dasharray="5,2" d="M243,-264.5C243,-264.5 164,-264.5 164,-264.5 158,-264.5 152,-258.5 152,-252.5 152,-252.5 152,-198.5 152,-198.5 152,-192.5 158,-186.5 164,-186.5 164,-186.5 243,-186.5 243,-186.5 249,-186.5 255,-192.5 255,-198.5 255,-198.5 255,-252.5 255,-252.5 255,-258.5 249,-264.5 243,-264.5"/>
<g id="a_state_3_title"><a xlink:href="#" xlink:title="state_3_title">
<text text-anchor="start" x="181" y="-244.1" font-family="Calibri" font-weight="bold" font-size="13.00" fill="#8b4513">Estado </text>
<text text-anchor="start" x="220" y="-244.1" font-family="Calibri" font-weight="bold" font-size="13.00" fill="#8b4513">3</text>
</a>
</g>
<g id="a_state_3_item_1"><a xlink:href="#" xlink:title="state_3_item_1">
<text text-anchor="start" x="163.5" y="-223.3" font-family="Times,serif" font-size="14.00" fill="#bc1f29">E </text>
<text text-anchor="start" x="176.5" y="-223.3" font-family="Times,serif" font-size="14.00" fill="#0a5040">→ </text>
<text text-anchor="start" x="195.5" y="-223.3" font-family="Times,serif" font-size="14.00" fill="#bc1f29"> L</text>
<text text-anchor="start" x="208.5" y="-223.3" font-family="Times,serif" font-size="14.00" fill="#f5a70a"> •</text>
<text text-anchor="start" x="218.5" y="-223.3" font-family="Times,serif" font-size="14.00" fill="#0a5040"> =</text>
<text text-anchor="start" x="231.5" y="-223.3" font-family="Times,serif" font-size="14.00" fill="#bc1f29"> R</text>
</a>
</g>
<g id="a_state_3_item_2"><a xlink:href="#" xlink:title="state_3_item_2">
<text text-anchor="start" x="163.5" y="-202.3" font-family="Times,serif" font-size="14.00" fill="#bc1f29">R </text>
<text text-anchor="start" x="176.5" y="-202.3" font-family="Times,serif" font-size="14.00" fill="#0a5040">→ </text>
<text text-anchor="start" x="195.5" y="-202.3" font-family="Times,serif" font-size="14.00" fill="#bc1f29"> L</text>
<text text-anchor="start" x="208.5" y="-202.3" font-family="Times,serif" font-size="14.00" fill="#f5a70a"> •</text>
</a>
</g>
</g>
<!-- state_1&#45;&gt;state_3 -->
<g id="trans_2" class="edge">
<title>state_1&#45;&gt;state_3</title>
<path fill="none" stroke="#b8860b" stroke-width="1.5" d="M103.3846,-225.5C115.7354,-225.5 129.0341,-225.5 141.7772,-225.5"/>
<polygon fill="#b8860b" stroke="#b8860b" stroke-width="1.5" points="141.8492,-229.0001 151.8492,-225.5 141.8492,-222.0001 141.8492,-229.0001"/>
<text text-anchor="start" x="121" y="-229.3" font-family="Times,serif" font-size="14.00" fill="#bc1f29"> L</text>
</g>
<!-- state_7 -->
<g id="state_7" class="node">
<title>state_7</title>
<path fill="#fffff0" stroke="#b8860b" stroke-width="1.5" d="M388.5,-434C388.5,-434 322.5,-434 322.5,-434 316.5,-434 310.5,-428 310.5,-422 310.5,-422 310.5,-389 310.5,-389 310.5,-383 316.5,-377 322.5,-377 322.5,-377 388.5,-377 388.5,-377 394.5,-377 400.5,-383 400.5,-389 400.5,-389 400.5,-422 400.5,-422 400.5,-428 394.5,-434 388.5,-434"/>
<path fill="none" stroke="#b8860b" stroke-width="1.5" d="M392.5,-438C392.5,-438 318.5,-438 318.5,-438 312.5,-438 306.5,-432 306.5,-426 306.5,-426 306.5,-385 306.5,-385 306.5,-379 312.5,-373 318.5,-373 318.5,-373 392.5,-373 392.5,-373 398.5,-373 404.5,-379 404.5,-385 404.5,-385 404.5,-426 404.5,-426 404.5,-432 398.5,-438 392.5,-438"/>
<g id="a_state_7_title"><a xlink:href="#" xlink:title="state_7_title">
<text text-anchor="start" x="332.5" y="-413.1" font-family="Calibri" font-weight="bold" font-size="13.00" fill="#8b4513">Estado </text>
<text text-anchor="start" x="371.5" y="-413.1" font-family="Calibri" font-weight="bold" font-size="13.00" fill="#8b4513">7</text>
</a>
</g>
<g id="a_state_7_item_1"><a xlink:href="#" xlink:title="state_7_item_1">
<text text-anchor="start" x="321.5" y="-392.3" font-family="Times,serif" font-size="14.00" fill="#bc1f29">E&#39; </text>
<text text-anchor="start" x="336.5" y="-392.3" font-family="Times,serif" font-size="14.00" fill="#0a5040">→ </text>
<text text-anchor="start" x="355.5" y="-392.3" font-family="Times,serif" font-size="14.00" fill="#bc1f29"> E</text>
<text text-anchor="start" x="368.5" y="-392.3" font-family="Times,serif" font-size="14.00" fill="#0a5040"> $</text>
<text text-anchor="start" x="379.5" y="-392.3" font-family="Times,serif" font-size="14.00" fill="#f5a70a"> •</text>
</a>
</g>
</g>
<!-- state_2&#45;&gt;state_7 -->
<g id="trans_6" class="edge">
<title>state_2&#45;&gt;state_7</title>
<path fill="none" stroke="#b8860b" stroke-width="1.5" d="M248.6935,-404.0947C263.5532,-404.2902 280.3043,-404.5106 296.0578,-404.7179"/>
<polygon fill="#b8860b" stroke="#b8860b" stroke-width="1.5" points="296.1909,-408.2198 306.2361,-404.8518 296.283,-401.2204 296.1909,-408.2198"/>
<text text-anchor="start" x="274" y="-408.3" font-family="Times,serif" font-size="14.00" fill="#0a5040"> $</text>
</g>
<!-- state_5&#45;&gt;state_5 -->
<g id="trans_10" class="edge">
<title>state_5&#45;&gt;state_5</title>
<path fill="none" stroke="#b8860b" stroke-width="1.5" d="M497.4375,-376.6758C499.3125,-387.1875 504,-394.5 511.5,-394.5 516.3047,-394.5 519.9551,-391.4989 522.4513,-386.5783"/>
<polygon fill="#b8860b" stroke="#b8860b" stroke-width="1.5" points="525.9041,-387.2651 525.5625,-376.6758 519.226,-385.1669 525.9041,-387.2651"/>
<text text-anchor="start" x="506" y="-398.3" font-family="Times,serif" font-size="14.00" fill="#0a5040"> *</text>
</g>
<!-- state_5&#45;&gt;state_6 -->
<g id="trans_11" class="edge">
<title>state_5&#45;&gt;state_6</title>
<path fill="none" stroke="#b8860b" stroke-width="1.5" d="M555.7735,-289.8499C573.7863,-279.0073 594.744,-266.392 613.5187,-255.0907"/>
<polygon fill="#b8860b" stroke="#b8860b" stroke-width="1.5" points="615.4916,-257.9883 622.2542,-249.8324 611.8816,-251.991 615.4916,-257.9883"/>
<text text-anchor="start" x="585" y="-273.3" font-family="Times,serif" font-size="14.00" fill="#0a5040"> id</text>
</g>
<!-- state_9 -->
<g id="state_9" class="node">
<title>state_9</title>
<path fill="#fffff0" stroke="#b8860b" stroke-width="1.5" d="M692.5,-451C692.5,-451 639.5,-451 639.5,-451 633.5,-451 627.5,-445 627.5,-439 627.5,-439 627.5,-406 627.5,-406 627.5,-400 633.5,-394 639.5,-394 639.5,-394 692.5,-394 692.5,-394 698.5,-394 704.5,-400 704.5,-406 704.5,-406 704.5,-439 704.5,-439 704.5,-445 698.5,-451 692.5,-451"/>
<path fill="none" stroke="#b8860b" stroke-width="1.5" d="M696.5,-455C696.5,-455 635.5,-455 635.5,-455 629.5,-455 623.5,-449 623.5,-443 623.5,-443 623.5,-402 623.5,-402 623.5,-396 629.5,-390 635.5,-390 635.5,-390 696.5,-390 696.5,-390 702.5,-390 708.5,-396 708.5,-402 708.5,-402 708.5,-443 708.5,-443 708.5,-449 702.5,-455 696.5,-455"/>
<g id="a_state_9_title"><a xlink:href="#" xlink:title="state_9_title">
<text text-anchor="start" x="643.5" y="-430.1" font-family="Calibri" font-weight="bold" font-size="13.00" fill="#8b4513">Estado </text>
<text text-anchor="start" x="682.5" y="-430.1" font-family="Calibri" font-weight="bold" font-size="13.00" fill="#8b4513">9</text>
</a>
</g>
<g id="a_state_9_item_1"><a xlink:href="#" xlink:title="state_9_item_1">
<text text-anchor="start" x="639" y="-409.3" font-family="Times,serif" font-size="14.00" fill="#bc1f29">R </text>
<text text-anchor="start" x="652" y="-409.3" font-family="Times,serif" font-size="14.00" fill="#0a5040">→ </text>
<text text-anchor="start" x="671" y="-409.3" font-family="Times,serif" font-size="14.00" fill="#bc1f29"> L</text>
<text text-anchor="start" x="684" y="-409.3" font-family="Times,serif" font-size="14.00" fill="#f5a70a"> •</text>
</a>
</g>
</g>
<!-- state_5&#45;&gt;state_9 -->
<g id="trans_8" class="edge">
<title>state_5&#45;&gt;state_9</title>
<path fill="none" stroke="#b8860b" stroke-width="1.5" d="M555.7735,-346.8753C574.26,-359.5587 595.8483,-374.37 614.9953,-387.5065"/>
<polygon fill="#b8860b" stroke="#b8860b" stroke-width="1.5" points="613.0912,-390.4447 623.3172,-393.216 617.0514,-384.6726 613.0912,-390.4447"/>
<text text-anchor="start" x="586" y="-379.3" font-family="Times,serif" font-size="14.00" fill="#bc1f29"> L</text>
</g>
<!-- state_10 -->
<g id="state_10" class="node">
<title>state_10</title>
<path fill="#fffff0" stroke="#b8860b" stroke-width="1.5" d="M698,-345C698,-345 634,-345 634,-345 628,-345 622,-339 622,-333 622,-333 622,-300 622,-300 622,-294 628,-288 634,-288 634,-288 698,-288 698,-288 704,-288 710,-294 710,-300 710,-300 710,-333 710,-333 710,-339 704,-345 698,-345"/>
<path fill="none" stroke="#b8860b" stroke-width="1.5" d="M702,-349C702,-349 630,-349 630,-349 624,-349 618,-343 618,-337 618,-337 618,-296 618,-296 618,-290 624,-284 630,-284 630,-284 702,-284 702,-284 708,-284 714,-290 714,-296 714,-296 714,-337 714,-337 714,-343 708,-349 702,-349"/>
<g id="a_state_10_title"><a xlink:href="#" xlink:title="state_10_title">
<text text-anchor="start" x="639.5" y="-324.1" font-family="Calibri" font-weight="bold" font-size="13.00" fill="#8b4513">Estado </text>
<text text-anchor="start" x="678.5" y="-324.1" font-family="Calibri" font-weight="bold" font-size="13.00" fill="#8b4513">10</text>
</a>
</g>
<g id="a_state_10_item_1"><a xlink:href="#" xlink:title="state_10_item_1">
<text text-anchor="start" x="633" y="-303.3" font-family="Times,serif" font-size="14.00" fill="#bc1f29">L </text>
<text text-anchor="start" x="646" y="-303.3" font-family="Times,serif" font-size="14.00" fill="#0a5040">→ </text>
<text text-anchor="start" x="665" y="-303.3" font-family="Times,serif" font-size="14.00" fill="#0a5040"> *</text>
<text text-anchor="start" x="676" y="-303.3" font-family="Times,serif" font-size="14.00" fill="#bc1f29"> R</text>
<text text-anchor="start" x="689" y="-303.3" font-family="Times,serif" font-size="14.00" fill="#f5a70a"> •</text>
</a>
</g>
</g>
<!-- state_5&#45;&gt;state_10 -->
<g id="trans_9" class="edge">
<title>state_5&#45;&gt;state_10</title>
<path fill="none" stroke="#b8860b" stroke-width="1.5" d="M555.7735,-316.5C571.8713,-316.5 590.321,-316.5 607.4627,-316.5"/>
<polygon fill="#b8860b" stroke="#b8860b" stroke-width="1.5" points="607.9341,-320.0001 617.9341,-316.5 607.934,-313.0001 607.9341,-320.0001"/>
<text text-anchor="start" x="586" y="-320.3" font-family="Times,serif" font-size="14.00" fill="#bc1f29"> R</text>
</g>
<!-- state_8 -->
<g id="state_8" class="node">
<title>state_8</title>
<path fill="#fffff0" stroke="#b8860b" stroke-width="1.5" d="M395,-285.5C395,-285.5 316,-285.5 316,-285.5 310,-285.5 304,-279.5 304,-273.5 304,-273.5 304,-177.5 304,-177.5 304,-171.5 310,-165.5 316,-165.5 316,-165.5 395,-165.5 395,-165.5 401,-165.5 407,-171.5 407,-177.5 407,-177.5 407,-273.5 407,-273.5 407,-279.5 401,-285.5 395,-285.5"/>
<g id="a_state_8_title"><a xlink:href="#" xlink:title="state_8_title">
<text text-anchor="start" x="333" y="-265.1" font-family="Calibri" font-weight="bold" font-size="13.00" fill="#8b4513">Estado </text>
<text text-anchor="start" x="372" y="-265.1" font-family="Calibri" font-weight="bold" font-size="13.00" fill="#8b4513">8</text>
</a>
</g>
<g id="a_state_8_item_1"><a xlink:href="#" xlink:title="state_8_item_1">
<text text-anchor="start" x="315.5" y="-244.3" font-family="Times,serif" font-size="14.00" fill="#bc1f29">E </text>
<text text-anchor="start" x="328.5" y="-244.3" font-family="Times,serif" font-size="14.00" fill="#0a5040">→ </text>
<text text-anchor="start" x="347.5" y="-244.3" font-family="Times,serif" font-size="14.00" fill="#bc1f29"> L</text>
<text text-anchor="start" x="360.5" y="-244.3" font-family="Times,serif" font-size="14.00" fill="#0a5040"> =</text>
<text text-anchor="start" x="373.5" y="-244.3" font-family="Times,serif" font-size="14.00" fill="#f5a70a"> •</text>
<text text-anchor="start" x="383.5" y="-244.3" font-family="Times,serif" font-size="14.00" fill="#bc1f29"> R</text>
</a>
</g>
<g id="a_state_8_item_2"><a xlink:href="#" xlink:title="state_8_item_2">
<text text-anchor="start" x="315.5" y="-223.3" font-family="Times,serif" font-size="14.00" fill="#bc1f29">R </text>
<text text-anchor="start" x="328.5" y="-223.3" font-family="Times,serif" font-size="14.00" fill="#0a5040">→ </text>
<text text-anchor="start" x="347.5" y="-223.3" font-family="Times,serif" font-size="14.00" fill="#f5a70a"> •</text>
<text text-anchor="start" x="357.5" y="-223.3" font-family="Times,serif" font-size="14.00" fill="#bc1f29"> L</text>
</a>
</g>
<g id="a_state_8_item_3"><a xlink:href="#" xlink:title="state_8_item_3">
<text text-anchor="start" x="315.5" y="-202.3" font-family="Times,serif" font-size="14.00" fill="#bc1f29">L </text>
<text text-anchor="start" x="328.5" y="-202.3" font-family="Times,serif" font-size="14.00" fill="#0a5040">→ </text>
<text text-anchor="start" x="347.5" y="-202.3" font-family="Times,serif" font-size="14.00" fill="#f5a70a"> •</text>
<text text-anchor="start" x="357.5" y="-202.3" font-family="Times,serif" font-size="14.00" fill="#0a5040"> *</text>
<text text-anchor="start" x="368.5" y="-202.3" font-family="Times,serif" font-size="14.00" fill="#bc1f29"> R</text>
</a>
</g>
<g id="a_state_8_item_4"><a xlink:href="#" xlink:title="state_8_item_4">
<text text-anchor="start" x="315.5" y="-181.3" font-family="Times,serif" font-size="14.00" fill="#bc1f29">L </text>
<text text-anchor="start" x="328.5" y="-181.3" font-family="Times,serif" font-size="14.00" fill="#0a5040">→ </text>
<text text-anchor="start" x="347.5" y="-181.3" font-family="Times,serif" font-size="14.00" fill="#f5a70a"> •</text>
<text text-anchor="start" x="357.5" y="-181.3" font-family="Times,serif" font-size="14.00" fill="#0a5040"> id</text>
</a>
</g>
</g>
<!-- state_8&#45;&gt;state_5 -->
<g id="trans_14" class="edge">
<title>state_8&#45;&gt;state_5</title>
<path fill="none" stroke="#b8860b" stroke-width="1.5" d="M407.0126,-255.549C423.4866,-265.1588 441.7493,-275.8121 458.3384,-285.4891"/>
<polygon fill="#b8860b" stroke="#b8860b" stroke-width="1.5" points="456.959,-288.7364 467.3604,-290.7519 460.4862,-282.6899 456.959,-288.7364"/>
<text text-anchor="start" x="426" y="-274.3" font-family="Times,serif" font-size="14.00" fill="#0a5040"> *</text>
</g>
<!-- state_8&#45;&gt;state_6 -->
<g id="trans_15" class="edge">
<title>state_8&#45;&gt;state_6</title>
<path fill="none" stroke="#b8860b" stroke-width="1.5" d="M407.1213,-225.1675C463.8959,-224.8018 554.6985,-224.2169 612.2912,-223.846"/>
<polygon fill="#b8860b" stroke="#b8860b" stroke-width="1.5" points="612.3141,-227.346 622.2913,-223.7815 612.269,-220.3461 612.3141,-227.346"/>
<text text-anchor="start" x="504" y="-228.3" font-family="Times,serif" font-size="14.00" fill="#0a5040"> id</text>
</g>
<!-- state_8&#45;&gt;state_9 -->
<g id="trans_12" class="edge">
<title>state_8&#45;&gt;state_9</title>
<path fill="none" stroke="#b8860b" stroke-width="1.5" d="M378.8748,-285.7034C399.929,-336.4455 431.2756,-403.175 456,-418.5 503.112,-447.7016 568.3141,-443.6357 613.514,-435.5131"/>
<polygon fill="#b8860b" stroke="#b8860b" stroke-width="1.5" points="614.2491,-438.936 623.4098,-433.6132 612.9292,-432.0616 614.2491,-438.936"/>
<text text-anchor="start" x="505" y="-444.3" font-family="Times,serif" font-size="14.00" fill="#bc1f29"> L</text>
</g>
<!-- state_11 -->
<g id="state_11" class="node">
<title>state_11</title>
<path fill="#fffff0" stroke="#b8860b" stroke-width="1.5" d="M551,-183C551,-183 472,-183 472,-183 466,-183 460,-177 460,-171 460,-171 460,-138 460,-138 460,-132 466,-126 472,-126 472,-126 551,-126 551,-126 557,-126 563,-132 563,-138 563,-138 563,-171 563,-171 563,-177 557,-183 551,-183"/>
<path fill="none" stroke="#b8860b" stroke-width="1.5" d="M555,-187C555,-187 468,-187 468,-187 462,-187 456,-181 456,-175 456,-175 456,-134 456,-134 456,-128 462,-122 468,-122 468,-122 555,-122 555,-122 561,-122 567,-128 567,-134 567,-134 567,-175 567,-175 567,-181 561,-187 555,-187"/>
<g id="a_state_11_title"><a xlink:href="#" xlink:title="state_11_title">
<text text-anchor="start" x="485.5" y="-162.1" font-family="Calibri" font-weight="bold" font-size="13.00" fill="#8b4513">Estado </text>
<text text-anchor="start" x="524.5" y="-162.1" font-family="Calibri" font-weight="bold" font-size="13.00" fill="#8b4513">11</text>
</a>
</g>
<g id="a_state_11_item_1"><a xlink:href="#" xlink:title="state_11_item_1">
<text text-anchor="start" x="471.5" y="-141.3" font-family="Times,serif" font-size="14.00" fill="#bc1f29">E </text>
<text text-anchor="start" x="484.5" y="-141.3" font-family="Times,serif" font-size="14.00" fill="#0a5040">→ </text>
<text text-anchor="start" x="503.5" y="-141.3" font-family="Times,serif" font-size="14.00" fill="#bc1f29"> L</text>
<text text-anchor="start" x="516.5" y="-141.3" font-family="Times,serif" font-size="14.00" fill="#0a5040"> =</text>
<text text-anchor="start" x="529.5" y="-141.3" font-family="Times,serif" font-size="14.00" fill="#bc1f29"> R</text>
<text text-anchor="start" x="542.5" y="-141.3" font-family="Times,serif" font-size="14.00" fill="#f5a70a"> •</text>
</a>
</g>
</g>
<!-- state_8&#45;&gt;state_11 -->
<g id="trans_13" class="edge">
<title>state_8&#45;&gt;state_11</title>
<path fill="none" stroke="#b8860b" stroke-width="1.5" d="M407.0126,-202.0552C419.5816,-196.3347 433.1919,-190.1402 446.3057,-184.1718"/>
<polygon fill="#b8860b" stroke="#b8860b" stroke-width="1.5" points="448.093,-187.2038 455.7449,-179.8757 445.1933,-180.8326 448.093,-187.2038"/>
<text text-anchor="start" x="425" y="-195.3" font-family="Times,serif" font-size="14.00" fill="#bc1f29"> R</text>
</g>
<!-- state_3&#45;&gt;state_8 -->
<g id="trans_7" class="edge">
<title>state_3&#45;&gt;state_8</title>
<path fill="none" stroke="#b8860b" stroke-width="1.5" d="M255.3846,-225.5C267.7354,-225.5 281.0341,-225.5 293.7772,-225.5"/>
<polygon fill="#b8860b" stroke="#b8860b" stroke-width="1.5" points="293.8492,-229.0001 303.8492,-225.5 293.8492,-222.0001 293.8492,-229.0001"/>
<text text-anchor="start" x="273" y="-229.3" font-family="Times,serif" font-size="14.00" fill="#0a5040"> =</text>
</g>
</g>
</svg>
