<?xml version="1.0" encoding="UTF-8" standalone="no"?>
<!DOCTYPE svg PUBLIC "-//W3C//DTD SVG 1.1//EN"
 "http://www.w3.org/Graphics/SVG/1.1/DTD/svg11.dtd">
<!-- Generated by graphviz version 2.40.1 (20161225.0304)
 -->
<!-- Title: NFA Pages: 1 -->
<svg width="1433pt" height="545pt"
 viewBox="0.00 0.00 1433.00 544.50" xmlns="http://www.w3.org/2000/svg" xmlns:xlink="http://www.w3.org/1999/xlink">
<g id="graph0" class="graph" transform="scale(1 1) rotate(0) translate(4 540.5)">
<title>NFA</title>
<!-- state_10002 -->
<g id="state_10002" class="node">
<title>state_10002</title>
<path fill="#fffff0" stroke="#b8860b" stroke-width="1.5" d="M218,-275C218,-275 142,-275 142,-275 136,-275 130,-269 130,-263 130,-263 130,-236 130,-236 130,-230 136,-224 142,-224 142,-224 218,-224 218,-224 224,-224 230,-230 230,-236 230,-236 230,-263 230,-263 230,-269 224,-275 218,-275"/>
<g id="a_state_10002_title"><a xlink:href="#" xlink:title="state_10002_title">
<text text-anchor="start" x="157" y="-257.1" font-family="Calibri" font-weight="bold" font-size="13.00" fill="#8b4513">Estado </text>
<text text-anchor="start" x="196" y="-257.1" font-family="Calibri" font-weight="bold" font-size="13.00" fill="#8b4513">2</text>
</a>
</g>
<g id="a_state_10002_item_1"><a xlink:href="#" xlink:title="state_10002_item_1">
<text text-anchor="start" x="138" y="-236.3" font-family="Times,serif" font-size="14.00" fill="#bc1f29">S </text>
<text text-anchor="start" x="150" y="-236.3" font-family="Times,serif" font-size="14.00" fill="#0a5040">→ </text>
<text text-anchor="start" x="169" y="-236.3" font-family="Times,serif" font-size="14.00" fill="#f5a70a"> •</text>
<text text-anchor="start" x="179" y="-236.3" font-family="Times,serif" font-size="14.00" fill="#0a5040"> (</text>
<text text-anchor="start" x="188" y="-236.3" font-family="Times,serif" font-size="14.00" fill="#bc1f29"> E</text>
<text text-anchor="start" x="201" y="-236.3" font-family="Times,serif" font-size="14.00" fill="#0a5040"> )</text>
<text text-anchor="start" x="210" y="-236.3" font-family="Times,serif" font-size="14.00" fill="#bc1f29"> S</text>
</a>
</g>
</g>
<!-- state_10006 -->
<g id="state_10006" class="node">
<title>state_10006</title>
<path fill="#fffff0" stroke="#b8860b" stroke-width="1.5" d="M365,-338C365,-338 289,-338 289,-338 283,-338 277,-332 277,-326 277,-326 277,-299 277,-299 277,-293 283,-287 289,-287 289,-287 365,-287 365,-287 371,-287 377,-293 377,-299 377,-299 377,-326 377,-326 377,-332 371,-338 365,-338"/>
<g id="a_state_10006_title"><a xlink:href="#" xlink:title="state_10006_title">
<text text-anchor="start" x="304" y="-320.1" font-family="Calibri" font-weight="bold" font-size="13.00" fill="#8b4513">Estado </text>
<text text-anchor="start" x="343" y="-320.1" font-family="Calibri" font-weight="bold" font-size="13.00" fill="#8b4513">6</text>
</a>
</g>
<g id="a_state_10006_item_1"><a xlink:href="#" xlink:title="state_10006_item_1">
<text text-anchor="start" x="285" y="-299.3" font-family="Times,serif" font-size="14.00" fill="#bc1f29">S </text>
<text text-anchor="start" x="297" y="-299.3" font-family="Times,serif" font-size="14.00" fill="#0a5040">→ </text>
<text text-anchor="start" x="316" y="-299.3" font-family="Times,serif" font-size="14.00" fill="#0a5040"> (</text>
<text text-anchor="start" x="325" y="-299.3" font-family="Times,serif" font-size="14.00" fill="#f5a70a"> •</text>
<text text-anchor="start" x="335" y="-299.3" font-family="Times,serif" font-size="14.00" fill="#bc1f29"> E</text>
<text text-anchor="start" x="348" y="-299.3" font-family="Times,serif" font-size="14.00" fill="#0a5040"> )</text>
<text text-anchor="start" x="357" y="-299.3" font-family="Times,serif" font-size="14.00" fill="#bc1f29"> S</text>
</a>
</g>
</g>
<!-- state_10002&#45;&gt;state_10006 -->
<g id="trans_5" class="edge">
<title>state_10002&#45;&gt;state_10006</title>
<path fill="none" stroke="#b8860b" stroke-width="1.5" d="M230.1779,-271.0048C242.1081,-276.1178 254.9528,-281.6226 267.2633,-286.8986"/>
<polygon fill="#b8860b" stroke="#b8860b" stroke-width="1.5" points="265.9789,-290.156 276.5491,-290.8782 268.7364,-283.7219 265.9789,-290.156"/>
<text text-anchor="start" x="249" y="-287.3" font-family="Times,serif" font-size="14.00" fill="#0a5040"> (</text>
</g>
<!-- state_10003 -->
<g id="state_10003" class="node">
<title>state_10003</title>
<path fill="#fffff0" stroke="#b8860b" stroke-width="1.5" d="M811,-251C811,-251 735,-251 735,-251 729,-251 723,-245 723,-239 723,-239 723,-212 723,-212 723,-206 729,-200 735,-200 735,-200 811,-200 811,-200 817,-200 823,-206 823,-212 823,-212 823,-239 823,-239 823,-245 817,-251 811,-251"/>
<g id="a_state_10003_title"><a xlink:href="#" xlink:title="state_10003_title">
<text text-anchor="start" x="750" y="-233.1" font-family="Calibri" font-weight="bold" font-size="13.00" fill="#8b4513">Estado </text>
<text text-anchor="start" x="789" y="-233.1" font-family="Calibri" font-weight="bold" font-size="13.00" fill="#8b4513">3</text>
</a>
</g>
<g id="a_state_10003_item_1"><a xlink:href="#" xlink:title="state_10003_item_1">
<text text-anchor="start" x="731" y="-212.3" font-family="Times,serif" font-size="14.00" fill="#bc1f29">S </text>
<text text-anchor="start" x="743" y="-212.3" font-family="Times,serif" font-size="14.00" fill="#0a5040">→ </text>
<text text-anchor="start" x="762" y="-212.3" font-family="Times,serif" font-size="14.00" fill="#f5a70a"> •</text>
<text text-anchor="start" x="772" y="-212.3" font-family="Times,serif" font-size="14.00" fill="#0a5040"> [</text>
<text text-anchor="start" x="781" y="-212.3" font-family="Times,serif" font-size="14.00" fill="#bc1f29"> E</text>
<text text-anchor="start" x="794" y="-212.3" font-family="Times,serif" font-size="14.00" fill="#0a5040"> ]</text>
<text text-anchor="start" x="803" y="-212.3" font-family="Times,serif" font-size="14.00" fill="#bc1f29"> S</text>
</a>
</g>
</g>
<!-- state_10010 -->
<g id="state_10010" class="node">
<title>state_10010</title>
<path fill="#fffff0" stroke="#b8860b" stroke-width="1.5" d="M960,-302C960,-302 884,-302 884,-302 878,-302 872,-296 872,-290 872,-290 872,-263 872,-263 872,-257 878,-251 884,-251 884,-251 960,-251 960,-251 966,-251 972,-257 972,-263 972,-263 972,-290 972,-290 972,-296 966,-302 960,-302"/>
<g id="a_state_10010_title"><a xlink:href="#" xlink:title="state_10010_title">
<text text-anchor="start" x="895.5" y="-284.1" font-family="Calibri" font-weight="bold" font-size="13.00" fill="#8b4513">Estado </text>
<text text-anchor="start" x="934.5" y="-284.1" font-family="Calibri" font-weight="bold" font-size="13.00" fill="#8b4513">10</text>
</a>
</g>
<g id="a_state_10010_item_1"><a xlink:href="#" xlink:title="state_10010_item_1">
<text text-anchor="start" x="880" y="-263.3" font-family="Times,serif" font-size="14.00" fill="#bc1f29">S </text>
<text text-anchor="start" x="892" y="-263.3" font-family="Times,serif" font-size="14.00" fill="#0a5040">→ </text>
<text text-anchor="start" x="911" y="-263.3" font-family="Times,serif" font-size="14.00" fill="#0a5040"> [</text>
<text text-anchor="start" x="920" y="-263.3" font-family="Times,serif" font-size="14.00" fill="#f5a70a"> •</text>
<text text-anchor="start" x="930" y="-263.3" font-family="Times,serif" font-size="14.00" fill="#bc1f29"> E</text>
<text text-anchor="start" x="943" y="-263.3" font-family="Times,serif" font-size="14.00" fill="#0a5040"> ]</text>
<text text-anchor="start" x="952" y="-263.3" font-family="Times,serif" font-size="14.00" fill="#bc1f29"> S</text>
</a>
</g>
</g>
<!-- state_10003&#45;&gt;state_10010 -->
<g id="trans_6" class="edge">
<title>state_10003&#45;&gt;state_10010</title>
<path fill="none" stroke="#b8860b" stroke-width="1.5" d="M823.0293,-242.6241C835.5602,-246.9132 849.1301,-251.558 862.0874,-255.993"/>
<polygon fill="#b8860b" stroke="#b8860b" stroke-width="1.5" points="861.2545,-259.4072 871.8491,-259.3342 863.5214,-252.7844 861.2545,-259.4072"/>
<text text-anchor="start" x="845" y="-257.3" font-family="Times,serif" font-size="14.00" fill="#0a5040"> [</text>
</g>
<!-- state_10005 -->
<g id="state_10005" class="node">
<title>state_10005</title>
<path fill="#fffff0" stroke="#b8860b" stroke-width="1.5" d="M209,-57C209,-57 151,-57 151,-57 145,-57 139,-51 139,-45 139,-45 139,-18 139,-18 139,-12 145,-6 151,-6 151,-6 209,-6 209,-6 215,-6 221,-12 221,-18 221,-18 221,-45 221,-45 221,-51 215,-57 209,-57"/>
<g id="a_state_10005_title"><a xlink:href="#" xlink:title="state_10005_title">
<text text-anchor="start" x="157" y="-39.1" font-family="Calibri" font-weight="bold" font-size="13.00" fill="#8b4513">Estado </text>
<text text-anchor="start" x="196" y="-39.1" font-family="Calibri" font-weight="bold" font-size="13.00" fill="#8b4513">5</text>
</a>
</g>
<g id="a_state_10005_item_1"><a xlink:href="#" xlink:title="state_10005_item_1">
<text text-anchor="start" x="147" y="-18.3" font-family="Times,serif" font-size="14.00" fill="#bc1f29">S&#39; </text>
<text text-anchor="start" x="161" y="-18.3" font-family="Times,serif" font-size="14.00" fill="#0a5040">→ </text>
<text text-anchor="start" x="180" y="-18.3" font-family="Times,serif" font-size="14.00" fill="#bc1f29"> S</text>
<text text-anchor="start" x="192" y="-18.3" font-family="Times,serif" font-size="14.00" fill="#f5a70a"> •</text>
<text text-anchor="start" x="202" y="-18.3" font-family="Times,serif" font-size="14.00" fill="#0a5040"> $</text>
</a>
</g>
</g>
<!-- state_10011 -->
<g id="state_10011" class="node">
<title>state_10011</title>
<path fill="#f5f5dc" stroke="#b8860b" stroke-width="1.5" d="M356,-55C356,-55 298,-55 298,-55 292,-55 286,-49 286,-43 286,-43 286,-16 286,-16 286,-10 292,-4 298,-4 298,-4 356,-4 356,-4 362,-4 368,-10 368,-16 368,-16 368,-43 368,-43 368,-49 362,-55 356,-55"/>
<path fill="none" stroke="#b8860b" stroke-width="1.5" d="M360,-59C360,-59 294,-59 294,-59 288,-59 282,-53 282,-47 282,-47 282,-12 282,-12 282,-6 288,0 294,0 294,0 360,0 360,0 366,0 372,-6 372,-12 372,-12 372,-47 372,-47 372,-53 366,-59 360,-59"/>
<g id="a_state_10011_title"><a xlink:href="#" xlink:title="state_10011_title">
<text text-anchor="start" x="300.5" y="-37.1" font-family="Calibri" font-weight="bold" font-size="13.00" fill="#8b4513">Estado </text>
<text text-anchor="start" x="339.5" y="-37.1" font-family="Calibri" font-weight="bold" font-size="13.00" fill="#8b4513">11</text>
</a>
</g>
<g id="a_state_10011_item_1"><a xlink:href="#" xlink:title="state_10011_item_1">
<text text-anchor="start" x="294" y="-16.3" font-family="Times,serif" font-size="14.00" fill="#bc1f29">S&#39; </text>
<text text-anchor="start" x="308" y="-16.3" font-family="Times,serif" font-size="14.00" fill="#0a5040">→ </text>
<text text-anchor="start" x="327" y="-16.3" font-family="Times,serif" font-size="14.00" fill="#bc1f29"> S</text>
<text text-anchor="start" x="339" y="-16.3" font-family="Times,serif" font-size="14.00" fill="#0a5040"> $</text>
<text text-anchor="start" x="350" y="-16.3" font-family="Times,serif" font-size="14.00" fill="#f5a70a"> •</text>
</a>
</g>
</g>
<!-- state_10005&#45;&gt;state_10011 -->
<g id="trans_7" class="edge">
<title>state_10005&#45;&gt;state_10011</title>
<path fill="none" stroke="#b8860b" stroke-width="1.5" d="M221.3389,-30.9376C236.9509,-30.7252 254.9743,-30.4799 271.6645,-30.2529"/>
<polygon fill="#b8860b" stroke="#b8860b" stroke-width="1.5" points="271.8993,-33.7501 281.8508,-30.1143 271.804,-26.7507 271.8993,-33.7501"/>
<text text-anchor="start" x="248" y="-35.3" font-family="Times,serif" font-size="14.00" fill="#0a5040"> $</text>
</g>
<!-- state_10008 -->
<g id="state_10008" class="node">
<title>state_10008</title>
<path fill="#fffff0" stroke="#b8860b" stroke-width="1.5" d="M1092,-340C1092,-340 1050,-340 1050,-340 1044,-340 1038,-334 1038,-328 1038,-328 1038,-301 1038,-301 1038,-295 1044,-289 1050,-289 1050,-289 1092,-289 1092,-289 1098,-289 1104,-295 1104,-301 1104,-301 1104,-328 1104,-328 1104,-334 1098,-340 1092,-340"/>
<g id="a_state_10008_title"><a xlink:href="#" xlink:title="state_10008_title">
<text text-anchor="start" x="1048" y="-322.1" font-family="Calibri" font-weight="bold" font-size="13.00" fill="#8b4513">Estado </text>
<text text-anchor="start" x="1087" y="-322.1" font-family="Calibri" font-weight="bold" font-size="13.00" fill="#8b4513">8</text>
</a>
</g>
<g id="a_state_10008_item_1"><a xlink:href="#" xlink:title="state_10008_item_1">
<text text-anchor="start" x="1046" y="-301.3" font-family="Times,serif" font-size="14.00" fill="#bc1f29">E </text>
<text text-anchor="start" x="1059" y="-301.3" font-family="Times,serif" font-size="14.00" fill="#0a5040">→ </text>
<text text-anchor="start" x="1078" y="-301.3" font-family="Times,serif" font-size="14.00" fill="#f5a70a"> •</text>
<text text-anchor="start" x="1088" y="-301.3" font-family="Times,serif" font-size="14.00" fill="#0a5040"> i</text>
</a>
</g>
</g>
<!-- state_10014 -->
<g id="state_10014" class="node">
<title>state_10014</title>
<path fill="#f5f5dc" stroke="#b8860b" stroke-width="1.5" d="M1241.5,-340C1241.5,-340 1196.5,-340 1196.5,-340 1190.5,-340 1184.5,-334 1184.5,-328 1184.5,-328 1184.5,-301 1184.5,-301 1184.5,-295 1190.5,-289 1196.5,-289 1196.5,-289 1241.5,-289 1241.5,-289 1247.5,-289 1253.5,-295 1253.5,-301 1253.5,-301 1253.5,-328 1253.5,-328 1253.5,-334 1247.5,-340 1241.5,-340"/>
<path fill="none" stroke="#b8860b" stroke-width="1.5" d="M1245.5,-344C1245.5,-344 1192.5,-344 1192.5,-344 1186.5,-344 1180.5,-338 1180.5,-332 1180.5,-332 1180.5,-297 1180.5,-297 1180.5,-291 1186.5,-285 1192.5,-285 1192.5,-285 1245.5,-285 1245.5,-285 1251.5,-285 1257.5,-291 1257.5,-297 1257.5,-297 1257.5,-332 1257.5,-332 1257.5,-338 1251.5,-344 1245.5,-344"/>
<g id="a_state_10014_title"><a xlink:href="#" xlink:title="state_10014_title">
<text text-anchor="start" x="1193" y="-322.1" font-family="Calibri" font-weight="bold" font-size="13.00" fill="#8b4513">Estado </text>
<text text-anchor="start" x="1232" y="-322.1" font-family="Calibri" font-weight="bold" font-size="13.00" fill="#8b4513">14</text>
</a>
</g>
<g id="a_state_10014_item_1"><a xlink:href="#" xlink:title="state_10014_item_1">
<text text-anchor="start" x="1194.5" y="-301.3" font-family="Times,serif" font-size="14.00" fill="#bc1f29">E </text>
<text text-anchor="start" x="1207.5" y="-301.3" font-family="Times,serif" font-size="14.00" fill="#0a5040">→ </text>
<text text-anchor="start" x="1226.5" y="-301.3" font-family="Times,serif" font-size="14.00" fill="#0a5040"> i</text>
<text text-anchor="start" x="1234.5" y="-301.3" font-family="Times,serif" font-size="14.00" fill="#f5a70a"> •</text>
</a>
</g>
</g>
<!-- state_10008&#45;&gt;state_10014 -->
<g id="trans_16" class="edge">
<title>state_10008&#45;&gt;state_10014</title>
<path fill="none" stroke="#b8860b" stroke-width="1.5" d="M1104.2141,-314.5C1123.711,-314.5 1148.7012,-314.5 1170.3833,-314.5"/>
<polygon fill="#b8860b" stroke="#b8860b" stroke-width="1.5" points="1170.4009,-318.0001 1180.4008,-314.5 1170.4008,-311.0001 1170.4009,-318.0001"/>
<text text-anchor="start" x="1141" y="-318.3" font-family="Times,serif" font-size="14.00" fill="#0a5040"> i</text>
</g>
<!-- state_10013 -->
<g id="state_10013" class="node">
<title>state_10013</title>
<path fill="#fffff0" stroke="#b8860b" stroke-width="1.5" d="M514,-334C514,-334 438,-334 438,-334 432,-334 426,-328 426,-322 426,-322 426,-295 426,-295 426,-289 432,-283 438,-283 438,-283 514,-283 514,-283 520,-283 526,-289 526,-295 526,-295 526,-322 526,-322 526,-328 520,-334 514,-334"/>
<g id="a_state_10013_title"><a xlink:href="#" xlink:title="state_10013_title">
<text text-anchor="start" x="449.5" y="-316.1" font-family="Calibri" font-weight="bold" font-size="13.00" fill="#8b4513">Estado </text>
<text text-anchor="start" x="488.5" y="-316.1" font-family="Calibri" font-weight="bold" font-size="13.00" fill="#8b4513">13</text>
</a>
</g>
<g id="a_state_10013_item_1"><a xlink:href="#" xlink:title="state_10013_item_1">
<text text-anchor="start" x="434" y="-295.3" font-family="Times,serif" font-size="14.00" fill="#bc1f29">S </text>
<text text-anchor="start" x="446" y="-295.3" font-family="Times,serif" font-size="14.00" fill="#0a5040">→ </text>
<text text-anchor="start" x="465" y="-295.3" font-family="Times,serif" font-size="14.00" fill="#0a5040"> (</text>
<text text-anchor="start" x="474" y="-295.3" font-family="Times,serif" font-size="14.00" fill="#bc1f29"> E</text>
<text text-anchor="start" x="487" y="-295.3" font-family="Times,serif" font-size="14.00" fill="#f5a70a"> •</text>
<text text-anchor="start" x="497" y="-295.3" font-family="Times,serif" font-size="14.00" fill="#0a5040"> )</text>
<text text-anchor="start" x="506" y="-295.3" font-family="Times,serif" font-size="14.00" fill="#bc1f29"> S</text>
</a>
</g>
</g>
<!-- state_10016 -->
<g id="state_10016" class="node">
<title>state_10016</title>
<path fill="#fffff0" stroke="#b8860b" stroke-width="1.5" d="M659,-305C659,-305 583,-305 583,-305 577,-305 571,-299 571,-293 571,-293 571,-266 571,-266 571,-260 577,-254 583,-254 583,-254 659,-254 659,-254 665,-254 671,-260 671,-266 671,-266 671,-293 671,-293 671,-299 665,-305 659,-305"/>
<g id="a_state_10016_title"><a xlink:href="#" xlink:title="state_10016_title">
<text text-anchor="start" x="594.5" y="-287.1" font-family="Calibri" font-weight="bold" font-size="13.00" fill="#8b4513">Estado </text>
<text text-anchor="start" x="633.5" y="-287.1" font-family="Calibri" font-weight="bold" font-size="13.00" fill="#8b4513">16</text>
</a>
</g>
<g id="a_state_10016_item_1"><a xlink:href="#" xlink:title="state_10016_item_1">
<text text-anchor="start" x="579" y="-266.3" font-family="Times,serif" font-size="14.00" fill="#bc1f29">S </text>
<text text-anchor="start" x="591" y="-266.3" font-family="Times,serif" font-size="14.00" fill="#0a5040">→ </text>
<text text-anchor="start" x="610" y="-266.3" font-family="Times,serif" font-size="14.00" fill="#0a5040"> (</text>
<text text-anchor="start" x="619" y="-266.3" font-family="Times,serif" font-size="14.00" fill="#bc1f29"> E</text>
<text text-anchor="start" x="632" y="-266.3" font-family="Times,serif" font-size="14.00" fill="#0a5040"> )</text>
<text text-anchor="start" x="641" y="-266.3" font-family="Times,serif" font-size="14.00" fill="#f5a70a"> •</text>
<text text-anchor="start" x="651" y="-266.3" font-family="Times,serif" font-size="14.00" fill="#bc1f29"> S</text>
</a>
</g>
</g>
<!-- state_10013&#45;&gt;state_10016 -->
<g id="trans_21" class="edge">
<title>state_10013&#45;&gt;state_10016</title>
<path fill="none" stroke="#b8860b" stroke-width="1.5" d="M526.307,-298.4386C537.4415,-296.2117 549.3488,-293.8302 560.831,-291.5338"/>
<polygon fill="#b8860b" stroke="#b8860b" stroke-width="1.5" points="561.6625,-294.9369 570.7819,-289.5436 560.2897,-288.0728 561.6625,-294.9369"/>
<text text-anchor="start" x="544" y="-299.3" font-family="Times,serif" font-size="14.00" fill="#0a5040"> )</text>
</g>
<!-- state_10015 -->
<g id="state_10015" class="node">
<title>state_10015</title>
<path fill="#fffff0" stroke="#b8860b" stroke-width="1.5" d="M1109,-271C1109,-271 1033,-271 1033,-271 1027,-271 1021,-265 1021,-259 1021,-259 1021,-232 1021,-232 1021,-226 1027,-220 1033,-220 1033,-220 1109,-220 1109,-220 1115,-220 1121,-226 1121,-232 1121,-232 1121,-259 1121,-259 1121,-265 1115,-271 1109,-271"/>
<g id="a_state_10015_title"><a xlink:href="#" xlink:title="state_10015_title">
<text text-anchor="start" x="1044.5" y="-253.1" font-family="Calibri" font-weight="bold" font-size="13.00" fill="#8b4513">Estado </text>
<text text-anchor="start" x="1083.5" y="-253.1" font-family="Calibri" font-weight="bold" font-size="13.00" fill="#8b4513">15</text>
</a>
</g>
<g id="a_state_10015_item_1"><a xlink:href="#" xlink:title="state_10015_item_1">
<text text-anchor="start" x="1029" y="-232.3" font-family="Times,serif" font-size="14.00" fill="#bc1f29">S </text>
<text text-anchor="start" x="1041" y="-232.3" font-family="Times,serif" font-size="14.00" fill="#0a5040">→ </text>
<text text-anchor="start" x="1060" y="-232.3" font-family="Times,serif" font-size="14.00" fill="#0a5040"> [</text>
<text text-anchor="start" x="1069" y="-232.3" font-family="Times,serif" font-size="14.00" fill="#bc1f29"> E</text>
<text text-anchor="start" x="1082" y="-232.3" font-family="Times,serif" font-size="14.00" fill="#f5a70a"> •</text>
<text text-anchor="start" x="1092" y="-232.3" font-family="Times,serif" font-size="14.00" fill="#0a5040"> ]</text>
<text text-anchor="start" x="1101" y="-232.3" font-family="Times,serif" font-size="14.00" fill="#bc1f29"> S</text>
</a>
</g>
</g>
<!-- state_10017 -->
<g id="state_10017" class="node">
<title>state_10017</title>
<path fill="#fffff0" stroke="#b8860b" stroke-width="1.5" d="M1257,-442C1257,-442 1181,-442 1181,-442 1175,-442 1169,-436 1169,-430 1169,-430 1169,-403 1169,-403 1169,-397 1175,-391 1181,-391 1181,-391 1257,-391 1257,-391 1263,-391 1269,-397 1269,-403 1269,-403 1269,-430 1269,-430 1269,-436 1263,-442 1257,-442"/>
<g id="a_state_10017_title"><a xlink:href="#" xlink:title="state_10017_title">
<text text-anchor="start" x="1192.5" y="-424.1" font-family="Calibri" font-weight="bold" font-size="13.00" fill="#8b4513">Estado </text>
<text text-anchor="start" x="1231.5" y="-424.1" font-family="Calibri" font-weight="bold" font-size="13.00" fill="#8b4513">17</text>
</a>
</g>
<g id="a_state_10017_item_1"><a xlink:href="#" xlink:title="state_10017_item_1">
<text text-anchor="start" x="1177" y="-403.3" font-family="Times,serif" font-size="14.00" fill="#bc1f29">S </text>
<text text-anchor="start" x="1189" y="-403.3" font-family="Times,serif" font-size="14.00" fill="#0a5040">→ </text>
<text text-anchor="start" x="1208" y="-403.3" font-family="Times,serif" font-size="14.00" fill="#0a5040"> [</text>
<text text-anchor="start" x="1217" y="-403.3" font-family="Times,serif" font-size="14.00" fill="#bc1f29"> E</text>
<text text-anchor="start" x="1230" y="-403.3" font-family="Times,serif" font-size="14.00" fill="#0a5040"> ]</text>
<text text-anchor="start" x="1239" y="-403.3" font-family="Times,serif" font-size="14.00" fill="#f5a70a"> •</text>
<text text-anchor="start" x="1249" y="-403.3" font-family="Times,serif" font-size="14.00" fill="#bc1f29"> S</text>
</a>
</g>
</g>
<!-- state_10015&#45;&gt;state_10017 -->
<g id="trans_22" class="edge">
<title>state_10015&#45;&gt;state_10017</title>
<path fill="none" stroke="#b8860b" stroke-width="1.5" d="M1121.0682,-269.2149C1132.1551,-276.3738 1142.9764,-285.1412 1151,-295.5 1167.2682,-316.503 1156.6253,-328.9916 1169,-352.5 1174.537,-363.0186 1181.8495,-373.55 1189.1678,-382.9451"/>
<polygon fill="#b8860b" stroke="#b8860b" stroke-width="1.5" points="1186.5586,-385.2855 1195.5559,-390.88 1192.0112,-380.8958 1186.5586,-385.2855"/>
<text text-anchor="start" x="1140.5" y="-299.3" font-family="Times,serif" font-size="14.00" fill="#0a5040"> ]</text>
</g>
<!-- state_10001 -->
<g id="state_10001" class="node">
<title>state_10001</title>
<path fill="#fffff0" stroke="#b8860b" stroke-width="1.5" d="M70,-153C70,-153 12,-153 12,-153 6,-153 0,-147 0,-141 0,-141 0,-114 0,-114 0,-108 6,-102 12,-102 12,-102 70,-102 70,-102 76,-102 82,-108 82,-114 82,-114 82,-141 82,-141 82,-147 76,-153 70,-153"/>
<g id="a_state_10001_title"><a xlink:href="#" xlink:title="state_10001_title">
<text text-anchor="start" x="18" y="-135.1" font-family="Calibri" font-weight="bold" font-size="13.00" fill="#8b4513">Estado </text>
<text text-anchor="start" x="57" y="-135.1" font-family="Calibri" font-weight="bold" font-size="13.00" fill="#8b4513">1</text>
</a>
</g>
<g id="a_state_10001_item_1"><a xlink:href="#" xlink:title="state_10001_item_1">
<text text-anchor="start" x="8" y="-114.3" font-family="Times,serif" font-size="14.00" fill="#bc1f29">S&#39; </text>
<text text-anchor="start" x="22" y="-114.3" font-family="Times,serif" font-size="14.00" fill="#0a5040">→ </text>
<text text-anchor="start" x="41" y="-114.3" font-family="Times,serif" font-size="14.00" fill="#f5a70a"> •</text>
<text text-anchor="start" x="51" y="-114.3" font-family="Times,serif" font-size="14.00" fill="#bc1f29"> S</text>
<text text-anchor="start" x="63" y="-114.3" font-family="Times,serif" font-size="14.00" fill="#0a5040"> $</text>
</a>
</g>
</g>
<!-- state_10001&#45;&gt;state_10002 -->
<g id="trans_2" class="edge">
<title>state_10001&#45;&gt;state_10002</title>
<path fill="none" stroke="#b8860b" stroke-width="1.5" d="M70.139,-153.0752C91.3601,-171.7009 120.264,-197.0699 143.0983,-217.1115"/>
<polygon fill="#b8860b" stroke="#b8860b" stroke-width="1.5" points="141.0749,-219.9924 150.8994,-223.9585 145.6925,-214.7314 141.0749,-219.9924"/>
<text text-anchor="start" x="100.5" y="-192.3" font-family="Times,serif" font-size="14.00" fill="#0a5040"> ε</text>
</g>
<!-- state_10001&#45;&gt;state_10003 -->
<g id="trans_3" class="edge">
<title>state_10001&#45;&gt;state_10003</title>
<path fill="none" stroke="#b8860b" stroke-width="1.5" d="M82.188,-133.0142C204.9269,-149.4465 568.619,-198.1375 712.9736,-217.4637"/>
<polygon fill="#b8860b" stroke="#b8860b" stroke-width="1.5" points="712.6058,-220.9456 722.9818,-218.8036 713.5347,-214.0075 712.6058,-220.9456"/>
<text text-anchor="start" x="396" y="-180.3" font-family="Times,serif" font-size="14.00" fill="#0a5040"> ε</text>
</g>
<!-- state_10001&#45;&gt;state_10005 -->
<g id="trans_1" class="edge">
<title>state_10001&#45;&gt;state_10005</title>
<path fill="none" stroke="#b8860b" stroke-width="1.5" d="M57.7175,-101.8114C68.3057,-87.3184 83.1555,-69.8868 100,-58.5 108.8349,-52.5277 119.109,-47.7693 129.2909,-44.0173"/>
<polygon fill="#b8860b" stroke="#b8860b" stroke-width="1.5" points="130.6356,-47.2569 138.9747,-40.7215 128.3802,-40.6301 130.6356,-47.2569"/>
<text text-anchor="start" x="100" y="-62.3" font-family="Times,serif" font-size="14.00" fill="#bc1f29"> S</text>
</g>
<!-- state_10004 -->
<g id="state_10004" class="node">
<title>state_10004</title>
<path fill="#f5f5dc" stroke="#b8860b" stroke-width="1.5" d="M1390,-283C1390,-283 1352,-283 1352,-283 1346,-283 1340,-277 1340,-271 1340,-271 1340,-244 1340,-244 1340,-238 1346,-232 1352,-232 1352,-232 1390,-232 1390,-232 1396,-232 1402,-238 1402,-244 1402,-244 1402,-271 1402,-271 1402,-277 1396,-283 1390,-283"/>
<path fill="none" stroke="#b8860b" stroke-width="1.5" d="M1394,-287C1394,-287 1348,-287 1348,-287 1342,-287 1336,-281 1336,-275 1336,-275 1336,-240 1336,-240 1336,-234 1342,-228 1348,-228 1348,-228 1394,-228 1394,-228 1400,-228 1406,-234 1406,-240 1406,-240 1406,-275 1406,-275 1406,-281 1400,-287 1394,-287"/>
<g id="a_state_10004_title"><a xlink:href="#" xlink:title="state_10004_title">
<text text-anchor="start" x="1348" y="-265.1" font-family="Calibri" font-weight="bold" font-size="13.00" fill="#8b4513">Estado </text>
<text text-anchor="start" x="1387" y="-265.1" font-family="Calibri" font-weight="bold" font-size="13.00" fill="#8b4513">4</text>
</a>
</g>
<g id="a_state_10004_item_1"><a xlink:href="#" xlink:title="state_10004_item_1">
<text text-anchor="start" x="1350.5" y="-244.3" font-family="Times,serif" font-size="14.00" fill="#bc1f29">S </text>
<text text-anchor="start" x="1362.5" y="-244.3" font-family="Times,serif" font-size="14.00" fill="#0a5040">→ </text>
<text text-anchor="start" x="1381.5" y="-244.3" font-family="Times,serif" font-size="14.00" fill="#f5a70a"> •</text>
</a>
</g>
</g>
<!-- state_10001&#45;&gt;state_10004 -->
<g id="trans_4" class="edge">
<title>state_10001&#45;&gt;state_10004</title>
<path fill="none" stroke="#b8860b" stroke-width="1.5" d="M82.0842,-109.139C109.299,-98.6237 146.0998,-87.5 180,-87.5 180,-87.5 180,-87.5 1219,-87.5 1254.1076,-87.5 1313.5229,-169.0904 1346.7166,-219.2229"/>
<polygon fill="#b8860b" stroke="#b8860b" stroke-width="1.5" points="1343.9894,-221.4466 1352.401,-227.8883 1349.8424,-217.607 1343.9894,-221.4466"/>
<text text-anchor="start" x="689.5" y="-91.3" font-family="Times,serif" font-size="14.00" fill="#0a5040"> ε</text>
</g>
<!-- state_10006&#45;&gt;state_10008 -->
<g id="trans_10" class="edge">
<title>state_10006&#45;&gt;state_10008</title>
<path fill="none" stroke="#b8860b" stroke-width="1.5" d="M353.3716,-338.08C381.3948,-362.4674 428.1786,-395.5 476,-395.5 476,-395.5 476,-395.5 695,-395.5 833.0964,-395.5 872.4461,-399.5145 1003,-354.5 1011.7483,-351.4836 1020.6153,-347.2733 1028.929,-342.7094"/>
<polygon fill="#b8860b" stroke="#b8860b" stroke-width="1.5" points="1030.7819,-345.6812 1037.7013,-337.658 1027.2888,-339.6151 1030.7819,-345.6812"/>
<text text-anchor="start" x="689.5" y="-399.3" font-family="Times,serif" font-size="14.00" fill="#0a5040"> ε</text>
</g>
<!-- state_10006&#45;&gt;state_10013 -->
<g id="trans_8" class="edge">
<title>state_10006&#45;&gt;state_10013</title>
<path fill="none" stroke="#b8860b" stroke-width="1.5" d="M377.0293,-311.1569C389.4374,-310.8238 402.8642,-310.4634 415.7061,-310.1186"/>
<polygon fill="#b8860b" stroke="#b8860b" stroke-width="1.5" points="415.9466,-313.6135 425.8491,-309.8463 415.7587,-306.616 415.9466,-313.6135"/>
<text text-anchor="start" x="395" y="-315.3" font-family="Times,serif" font-size="14.00" fill="#bc1f29"> E</text>
</g>
<!-- state_10007 -->
<g id="state_10007" class="node">
<title>state_10007</title>
<path fill="#fffff0" stroke="#b8860b" stroke-width="1.5" d="M1094,-201C1094,-201 1048,-201 1048,-201 1042,-201 1036,-195 1036,-189 1036,-189 1036,-162 1036,-162 1036,-156 1042,-150 1048,-150 1048,-150 1094,-150 1094,-150 1100,-150 1106,-156 1106,-162 1106,-162 1106,-189 1106,-189 1106,-195 1100,-201 1094,-201"/>
<g id="a_state_10007_title"><a xlink:href="#" xlink:title="state_10007_title">
<text text-anchor="start" x="1048" y="-183.1" font-family="Calibri" font-weight="bold" font-size="13.00" fill="#8b4513">Estado </text>
<text text-anchor="start" x="1087" y="-183.1" font-family="Calibri" font-weight="bold" font-size="13.00" fill="#8b4513">7</text>
</a>
</g>
<g id="a_state_10007_item_1"><a xlink:href="#" xlink:title="state_10007_item_1">
<text text-anchor="start" x="1044" y="-162.3" font-family="Times,serif" font-size="14.00" fill="#bc1f29">E </text>
<text text-anchor="start" x="1057" y="-162.3" font-family="Times,serif" font-size="14.00" fill="#0a5040">→ </text>
<text text-anchor="start" x="1076" y="-162.3" font-family="Times,serif" font-size="14.00" fill="#f5a70a"> •</text>
<text text-anchor="start" x="1086" y="-162.3" font-family="Times,serif" font-size="14.00" fill="#bc1f29"> S</text>
</a>
</g>
</g>
<!-- state_10006&#45;&gt;state_10007 -->
<g id="trans_9" class="edge">
<title>state_10006&#45;&gt;state_10007</title>
<path fill="none" stroke="#b8860b" stroke-width="1.5" d="M374.3661,-286.9406C433.4326,-255.5753 531.4481,-205.3279 571,-195.5 734.4166,-154.8939 937.0016,-164.3112 1025.7654,-171.2806"/>
<polygon fill="#b8860b" stroke="#b8860b" stroke-width="1.5" points="1025.5133,-174.7716 1035.7641,-172.0937 1026.0808,-167.7946 1025.5133,-174.7716"/>
<text text-anchor="start" x="689.5" y="-179.3" font-family="Times,serif" font-size="14.00" fill="#0a5040"> ε</text>
</g>
<!-- state_10009 -->
<g id="state_10009" class="node">
<title>state_10009</title>
<path fill="#f5f5dc" stroke="#b8860b" stroke-width="1.5" d="M1090,-413C1090,-413 1052,-413 1052,-413 1046,-413 1040,-407 1040,-401 1040,-401 1040,-374 1040,-374 1040,-368 1046,-362 1052,-362 1052,-362 1090,-362 1090,-362 1096,-362 1102,-368 1102,-374 1102,-374 1102,-401 1102,-401 1102,-407 1096,-413 1090,-413"/>
<path fill="none" stroke="#b8860b" stroke-width="1.5" d="M1094,-417C1094,-417 1048,-417 1048,-417 1042,-417 1036,-411 1036,-405 1036,-405 1036,-370 1036,-370 1036,-364 1042,-358 1048,-358 1048,-358 1094,-358 1094,-358 1100,-358 1106,-364 1106,-370 1106,-370 1106,-405 1106,-405 1106,-411 1100,-417 1094,-417"/>
<g id="a_state_10009_title"><a xlink:href="#" xlink:title="state_10009_title">
<text text-anchor="start" x="1048" y="-395.1" font-family="Calibri" font-weight="bold" font-size="13.00" fill="#8b4513">Estado </text>
<text text-anchor="start" x="1087" y="-395.1" font-family="Calibri" font-weight="bold" font-size="13.00" fill="#8b4513">9</text>
</a>
</g>
<g id="a_state_10009_item_1"><a xlink:href="#" xlink:title="state_10009_item_1">
<text text-anchor="start" x="1050" y="-374.3" font-family="Times,serif" font-size="14.00" fill="#bc1f29">E </text>
<text text-anchor="start" x="1063" y="-374.3" font-family="Times,serif" font-size="14.00" fill="#0a5040">→ </text>
<text text-anchor="start" x="1082" y="-374.3" font-family="Times,serif" font-size="14.00" fill="#f5a70a"> •</text>
</a>
</g>
</g>
<!-- state_10006&#45;&gt;state_10009 -->
<g id="trans_11" class="edge">
<title>state_10006&#45;&gt;state_10009</title>
<path fill="none" stroke="#b8860b" stroke-width="1.5" d="M340.8238,-338.2643C363.525,-376.6787 412.5841,-444.5 476,-444.5 476,-444.5 476,-444.5 773,-444.5 863.9337,-444.5 967.741,-418.579 1025.7067,-401.6969"/>
<polygon fill="#b8860b" stroke="#b8860b" stroke-width="1.5" points="1027.0413,-404.9522 1035.6392,-398.7614 1025.0573,-398.2393 1027.0413,-404.9522"/>
<text text-anchor="start" x="689.5" y="-448.3" font-family="Times,serif" font-size="14.00" fill="#0a5040"> ε</text>
</g>
<!-- state_10007&#45;&gt;state_10002 -->
<g id="trans_13" class="edge">
<title>state_10007&#45;&gt;state_10002</title>
<path fill="none" stroke="#b8860b" stroke-width="1.5" d="M1035.9556,-159.7413C1006.2454,-147.8236 962.1798,-133.5 922,-133.5 695,-133.5 695,-133.5 695,-133.5 526.6473,-133.5 334.7376,-193.2249 239.7571,-226.9642"/>
<polygon fill="#b8860b" stroke="#b8860b" stroke-width="1.5" points="238.553,-223.6777 230.319,-230.345 240.9136,-230.2676 238.553,-223.6777"/>
<text text-anchor="start" x="615.5" y="-146.3" font-family="Times,serif" font-size="14.00" fill="#0a5040"> ε</text>
</g>
<!-- state_10007&#45;&gt;state_10003 -->
<g id="trans_14" class="edge">
<title>state_10007&#45;&gt;state_10003</title>
<path fill="none" stroke="#b8860b" stroke-width="1.5" d="M1035.992,-181.3738C986.1351,-189.7391 893.9841,-205.2006 833.0826,-215.419"/>
<polygon fill="#b8860b" stroke="#b8860b" stroke-width="1.5" points="832.4976,-211.9682 823.2147,-217.0747 833.656,-218.8717 832.4976,-211.9682"/>
<text text-anchor="start" x="916.5" y="-213.3" font-family="Times,serif" font-size="14.00" fill="#0a5040"> ε</text>
</g>
<!-- state_10007&#45;&gt;state_10004 -->
<g id="trans_15" class="edge">
<title>state_10007&#45;&gt;state_10004</title>
<path fill="none" stroke="#b8860b" stroke-width="1.5" d="M1106.1098,-170.9341C1146.5948,-167.0136 1214.5594,-164.6088 1269,-183.5 1292.1215,-191.5233 1314.5129,-206.6651 1332.3971,-221.1719"/>
<polygon fill="#b8860b" stroke="#b8860b" stroke-width="1.5" points="1330.3663,-224.0361 1340.2834,-227.7647 1334.856,-218.6656 1330.3663,-224.0361"/>
<text text-anchor="start" x="1213.5" y="-187.3" font-family="Times,serif" font-size="14.00" fill="#0a5040"> ε</text>
</g>
<!-- state_10012 -->
<g id="state_10012" class="node">
<title>state_10012</title>
<path fill="#f5f5dc" stroke="#b8860b" stroke-width="1.5" d="M1242,-263C1242,-263 1196,-263 1196,-263 1190,-263 1184,-257 1184,-251 1184,-251 1184,-224 1184,-224 1184,-218 1190,-212 1196,-212 1196,-212 1242,-212 1242,-212 1248,-212 1254,-218 1254,-224 1254,-224 1254,-251 1254,-251 1254,-257 1248,-263 1242,-263"/>
<path fill="none" stroke="#b8860b" stroke-width="1.5" d="M1246,-267C1246,-267 1192,-267 1192,-267 1186,-267 1180,-261 1180,-255 1180,-255 1180,-220 1180,-220 1180,-214 1186,-208 1192,-208 1192,-208 1246,-208 1246,-208 1252,-208 1258,-214 1258,-220 1258,-220 1258,-255 1258,-255 1258,-261 1252,-267 1246,-267"/>
<g id="a_state_10012_title"><a xlink:href="#" xlink:title="state_10012_title">
<text text-anchor="start" x="1192.5" y="-245.1" font-family="Calibri" font-weight="bold" font-size="13.00" fill="#8b4513">Estado </text>
<text text-anchor="start" x="1231.5" y="-245.1" font-family="Calibri" font-weight="bold" font-size="13.00" fill="#8b4513">12</text>
</a>
</g>
<g id="a_state_10012_item_1"><a xlink:href="#" xlink:title="state_10012_item_1">
<text text-anchor="start" x="1192" y="-224.3" font-family="Times,serif" font-size="14.00" fill="#bc1f29">E </text>
<text text-anchor="start" x="1205" y="-224.3" font-family="Times,serif" font-size="14.00" fill="#0a5040">→ </text>
<text text-anchor="start" x="1224" y="-224.3" font-family="Times,serif" font-size="14.00" fill="#bc1f29"> S</text>
<text text-anchor="start" x="1236" y="-224.3" font-family="Times,serif" font-size="14.00" fill="#f5a70a"> •</text>
</a>
</g>
</g>
<!-- state_10007&#45;&gt;state_10012 -->
<g id="trans_12" class="edge">
<title>state_10007&#45;&gt;state_10012</title>
<path fill="none" stroke="#b8860b" stroke-width="1.5" d="M1106.0739,-190.1931C1125.2728,-198.2359 1149.3586,-208.3259 1170.3491,-217.1192"/>
<polygon fill="#b8860b" stroke="#b8860b" stroke-width="1.5" points="1169.1712,-220.4204 1179.747,-221.0562 1171.876,-213.9641 1169.1712,-220.4204"/>
<text text-anchor="start" x="1139" y="-212.3" font-family="Times,serif" font-size="14.00" fill="#bc1f29"> S</text>
</g>
<!-- state_10010&#45;&gt;state_10008 -->
<g id="trans_19" class="edge">
<title>state_10010&#45;&gt;state_10008</title>
<path fill="none" stroke="#b8860b" stroke-width="1.5" d="M972.0293,-289.2592C990.1216,-293.8733 1010.3798,-299.0398 1027.8327,-303.4909"/>
<polygon fill="#b8860b" stroke="#b8860b" stroke-width="1.5" points="1027.1921,-306.9395 1037.7469,-306.0194 1028.9221,-300.1566 1027.1921,-306.9395"/>
<text text-anchor="start" x="991" y="-301.3" font-family="Times,serif" font-size="14.00" fill="#0a5040"> ε</text>
</g>
<!-- state_10010&#45;&gt;state_10015 -->
<g id="trans_17" class="edge">
<title>state_10010&#45;&gt;state_10015</title>
<path fill="none" stroke="#b8860b" stroke-width="1.5" d="M972.0293,-266.0912C984.4374,-263.5097 997.8642,-260.7162 1010.7061,-258.0444"/>
<polygon fill="#b8860b" stroke="#b8860b" stroke-width="1.5" points="1011.7717,-261.3977 1020.8491,-255.9341 1010.3458,-254.5445 1011.7717,-261.3977"/>
<text text-anchor="start" x="990" y="-266.3" font-family="Times,serif" font-size="14.00" fill="#bc1f29"> E</text>
</g>
<!-- state_10010&#45;&gt;state_10007 -->
<g id="trans_18" class="edge">
<title>state_10010&#45;&gt;state_10007</title>
<path fill="none" stroke="#b8860b" stroke-width="1.5" d="M959.9845,-250.7521C980.6121,-236.7696 1006.2017,-219.4237 1027.6122,-204.9105"/>
<polygon fill="#b8860b" stroke="#b8860b" stroke-width="1.5" points="1029.5825,-207.8033 1035.8962,-199.2952 1025.6548,-202.0091 1029.5825,-207.8033"/>
<text text-anchor="start" x="991" y="-233.3" font-family="Times,serif" font-size="14.00" fill="#0a5040"> ε</text>
</g>
<!-- state_10010&#45;&gt;state_10009 -->
<g id="trans_20" class="edge">
<title>state_10010&#45;&gt;state_10009</title>
<path fill="none" stroke="#b8860b" stroke-width="1.5" d="M956.5581,-302.2446C977.7669,-318.0445 1005.1073,-338.4122 1027.7463,-355.2774"/>
<polygon fill="#b8860b" stroke="#b8860b" stroke-width="1.5" points="1025.7439,-358.1502 1035.8542,-361.3176 1029.9258,-352.5366 1025.7439,-358.1502"/>
<text text-anchor="start" x="991" y="-339.3" font-family="Times,serif" font-size="14.00" fill="#0a5040"> ε</text>
</g>
<!-- state_10016&#45;&gt;state_10002 -->
<g id="trans_24" class="edge">
<title>state_10016&#45;&gt;state_10002</title>
<path fill="none" stroke="#b8860b" stroke-width="1.5" d="M570.8879,-276.091C489.268,-270.5386 327.9422,-259.5641 240.2227,-253.5968"/>
<polygon fill="#b8860b" stroke="#b8860b" stroke-width="1.5" points="240.3735,-250.099 230.159,-252.9122 239.8983,-257.0829 240.3735,-250.099"/>
<text text-anchor="start" x="396" y="-269.3" font-family="Times,serif" font-size="14.00" fill="#0a5040"> ε</text>
</g>
<!-- state_10016&#45;&gt;state_10003 -->
<g id="trans_25" class="edge">
<title>state_10016&#45;&gt;state_10003</title>
<path fill="none" stroke="#b8860b" stroke-width="1.5" d="M671.2478,-257.3162C677.1925,-254.9164 683.205,-252.5904 689,-250.5 696.8184,-247.6798 705.1247,-244.9248 713.3549,-242.3357"/>
<polygon fill="#b8860b" stroke="#b8860b" stroke-width="1.5" points="714.4225,-245.6692 722.9476,-239.3785 712.3602,-238.9799 714.4225,-245.6692"/>
<text text-anchor="start" x="689.5" y="-254.3" font-family="Times,serif" font-size="14.00" fill="#0a5040"> ε</text>
</g>
<!-- state_10016&#45;&gt;state_10004 -->
<g id="trans_26" class="edge">
<title>state_10016&#45;&gt;state_10004</title>
<path fill="none" stroke="#b8860b" stroke-width="1.5" d="M671.0958,-272.2232C715.4196,-268.3991 780.1496,-269.4411 827,-298.5 859.3892,-318.5893 849.7743,-340.5377 872,-371.5 922.5227,-441.8824 909.8615,-521.5 996.5,-521.5 996.5,-521.5 996.5,-521.5 1219,-521.5 1296.415,-521.5 1289.592,-449.9009 1317,-377.5 1327.4499,-349.8955 1341.1062,-319.5894 1352.0707,-296.3396"/>
<polygon fill="#b8860b" stroke="#b8860b" stroke-width="1.5" points="1355.3034,-297.6914 1356.434,-287.157 1348.9808,-294.687 1355.3034,-297.6914"/>
<text text-anchor="start" x="991" y="-525.3" font-family="Times,serif" font-size="14.00" fill="#0a5040"> ε</text>
</g>
<!-- state_10018 -->
<g id="state_10018" class="node">
<title>state_10018</title>
<path fill="#f5f5dc" stroke="#b8860b" stroke-width="1.5" d="M811,-363C811,-363 735,-363 735,-363 729,-363 723,-357 723,-351 723,-351 723,-324 723,-324 723,-318 729,-312 735,-312 735,-312 811,-312 811,-312 817,-312 823,-318 823,-324 823,-324 823,-351 823,-351 823,-357 817,-363 811,-363"/>
<path fill="none" stroke="#b8860b" stroke-width="1.5" d="M815,-367C815,-367 731,-367 731,-367 725,-367 719,-361 719,-355 719,-355 719,-320 719,-320 719,-314 725,-308 731,-308 731,-308 815,-308 815,-308 821,-308 827,-314 827,-320 827,-320 827,-355 827,-355 827,-361 821,-367 815,-367"/>
<g id="a_state_10018_title"><a xlink:href="#" xlink:title="state_10018_title">
<text text-anchor="start" x="746.5" y="-345.1" font-family="Calibri" font-weight="bold" font-size="13.00" fill="#8b4513">Estado </text>
<text text-anchor="start" x="785.5" y="-345.1" font-family="Calibri" font-weight="bold" font-size="13.00" fill="#8b4513">18</text>
</a>
</g>
<g id="a_state_10018_item_1"><a xlink:href="#" xlink:title="state_10018_item_1">
<text text-anchor="start" x="731" y="-324.3" font-family="Times,serif" font-size="14.00" fill="#bc1f29">S </text>
<text text-anchor="start" x="743" y="-324.3" font-family="Times,serif" font-size="14.00" fill="#0a5040">→ </text>
<text text-anchor="start" x="762" y="-324.3" font-family="Times,serif" font-size="14.00" fill="#0a5040"> (</text>
<text text-anchor="start" x="771" y="-324.3" font-family="Times,serif" font-size="14.00" fill="#bc1f29"> E</text>
<text text-anchor="start" x="784" y="-324.3" font-family="Times,serif" font-size="14.00" fill="#0a5040"> )</text>
<text text-anchor="start" x="793" y="-324.3" font-family="Times,serif" font-size="14.00" fill="#bc1f29"> S</text>
<text text-anchor="start" x="805" y="-324.3" font-family="Times,serif" font-size="14.00" fill="#f5a70a"> •</text>
</a>
</g>
</g>
<!-- state_10016&#45;&gt;state_10018 -->
<g id="trans_23" class="edge">
<title>state_10016&#45;&gt;state_10018</title>
<path fill="none" stroke="#b8860b" stroke-width="1.5" d="M671.1917,-298.6521C683.3885,-303.3061 696.5916,-308.3441 709.3209,-313.2014"/>
<polygon fill="#b8860b" stroke="#b8860b" stroke-width="1.5" points="708.3474,-316.576 718.9382,-316.8711 710.843,-310.036 708.3474,-316.576"/>
<text text-anchor="start" x="689" y="-312.3" font-family="Times,serif" font-size="14.00" fill="#bc1f29"> S</text>
</g>
<!-- state_10017&#45;&gt;state_10002 -->
<g id="trans_28" class="edge">
<title>state_10017&#45;&gt;state_10002</title>
<path fill="none" stroke="#b8860b" stroke-width="1.5" d="M1184.7821,-442.021C1155.9766,-460.9551 1112.884,-483.5 1071,-483.5 327,-483.5 327,-483.5 327,-483.5 234.5542,-483.5 197.9924,-350.9253 185.5626,-285.3541"/>
<polygon fill="#b8860b" stroke="#b8860b" stroke-width="1.5" points="188.9929,-284.6542 183.7701,-275.4362 182.1045,-285.8993 188.9929,-284.6542"/>
<text text-anchor="start" x="689.5" y="-487.3" font-family="Times,serif" font-size="14.00" fill="#0a5040"> ε</text>
</g>
<!-- state_10017&#45;&gt;state_10003 -->
<g id="trans_29" class="edge">
<title>state_10017&#45;&gt;state_10003</title>
<path fill="none" stroke="#b8860b" stroke-width="1.5" d="M1168.7387,-429.1706C1127.8281,-437.1159 1069.1788,-443.043 1021,-426.5 941.6242,-399.2449 934.9036,-366.0562 872,-310.5 850.8002,-291.7765 848.4225,-283.9682 827,-265.5 823.8189,-262.7576 820.4645,-259.9954 817.0487,-257.2733"/>
<polygon fill="#b8860b" stroke="#b8860b" stroke-width="1.5" points="819.06,-254.4036 809.0191,-251.0227 814.7601,-259.9273 819.06,-254.4036"/>
<text text-anchor="start" x="991" y="-422.3" font-family="Times,serif" font-size="14.00" fill="#0a5040"> ε</text>
</g>
<!-- state_10017&#45;&gt;state_10004 -->
<g id="trans_30" class="edge">
<title>state_10017&#45;&gt;state_10004</title>
<path fill="none" stroke="#b8860b" stroke-width="1.5" d="M1243.4214,-390.9539C1268.4098,-364.8147 1307.4837,-323.9414 1335.8077,-294.313"/>
<polygon fill="#b8860b" stroke="#b8860b" stroke-width="1.5" points="1338.3818,-296.6854 1342.762,-287.0384 1333.3219,-291.8483 1338.3818,-296.6854"/>
<text text-anchor="start" x="1287.5" y="-346.3" font-family="Times,serif" font-size="14.00" fill="#0a5040"> ε</text>
</g>
<!-- state_10019 -->
<g id="state_10019" class="node">
<title>state_10019</title>
<path fill="#f5f5dc" stroke="#b8860b" stroke-width="1.5" d="M1409,-442C1409,-442 1333,-442 1333,-442 1327,-442 1321,-436 1321,-430 1321,-430 1321,-403 1321,-403 1321,-397 1327,-391 1333,-391 1333,-391 1409,-391 1409,-391 1415,-391 1421,-397 1421,-403 1421,-403 1421,-430 1421,-430 1421,-436 1415,-442 1409,-442"/>
<path fill="none" stroke="#b8860b" stroke-width="1.5" d="M1413,-446C1413,-446 1329,-446 1329,-446 1323,-446 1317,-440 1317,-434 1317,-434 1317,-399 1317,-399 1317,-393 1323,-387 1329,-387 1329,-387 1413,-387 1413,-387 1419,-387 1425,-393 1425,-399 1425,-399 1425,-434 1425,-434 1425,-440 1419,-446 1413,-446"/>
<g id="a_state_10019_title"><a xlink:href="#" xlink:title="state_10019_title">
<text text-anchor="start" x="1344.5" y="-424.1" font-family="Calibri" font-weight="bold" font-size="13.00" fill="#8b4513">Estado </text>
<text text-anchor="start" x="1383.5" y="-424.1" font-family="Calibri" font-weight="bold" font-size="13.00" fill="#8b4513">19</text>
</a>
</g>
<g id="a_state_10019_item_1"><a xlink:href="#" xlink:title="state_10019_item_1">
<text text-anchor="start" x="1329" y="-403.3" font-family="Times,serif" font-size="14.00" fill="#bc1f29">S </text>
<text text-anchor="start" x="1341" y="-403.3" font-family="Times,serif" font-size="14.00" fill="#0a5040">→ </text>
<text text-anchor="start" x="1360" y="-403.3" font-family="Times,serif" font-size="14.00" fill="#0a5040"> [</text>
<text text-anchor="start" x="1369" y="-403.3" font-family="Times,serif" font-size="14.00" fill="#bc1f29"> E</text>
<text text-anchor="start" x="1382" y="-403.3" font-family="Times,serif" font-size="14.00" fill="#0a5040"> ]</text>
<text text-anchor="start" x="1391" y="-403.3" font-family="Times,serif" font-size="14.00" fill="#bc1f29"> S</text>
<text text-anchor="start" x="1403" y="-403.3" font-family="Times,serif" font-size="14.00" fill="#f5a70a"> •</text>
</a>
</g>
</g>
<!-- state_10017&#45;&gt;state_10019 -->
<g id="trans_27" class="edge">
<title>state_10017&#45;&gt;state_10019</title>
<path fill="none" stroke="#b8860b" stroke-width="1.5" d="M1269.1917,-416.5C1281.1494,-416.5 1294.0742,-416.5 1306.5715,-416.5"/>
<polygon fill="#b8860b" stroke="#b8860b" stroke-width="1.5" points="1306.9382,-420.0001 1316.9382,-416.5 1306.9381,-413.0001 1306.9382,-420.0001"/>
<text text-anchor="start" x="1287" y="-420.3" font-family="Times,serif" font-size="14.00" fill="#bc1f29"> S</text>
</g>
</g>
</svg>
