<?xml version="1.0" encoding="UTF-8" standalone="no"?>
<!DOCTYPE svg PUBLIC "-//W3C//DTD SVG 1.1//EN"
 "http://www.w3.org/Graphics/SVG/1.1/DTD/svg11.dtd">
<!-- Generated by graphviz version 2.40.1 (20161225.0304)
 -->
<!-- Title: NFA Pages: 1 -->
<svg width="831pt" height="257pt"
 viewBox="0.00 0.00 831.00 256.50" xmlns="http://www.w3.org/2000/svg" xmlns:xlink="http://www.w3.org/1999/xlink">
<g id="graph0" class="graph" transform="scale(1 1) rotate(0) translate(4 252.5)">
<title>NFA</title>
<!-- state_10002 -->
<g id="state_10002" class="node">
<title>state_10002</title>
<path fill="#fffff0" stroke="#b8860b" stroke-width="1.5" d="M217,-146C217,-146 142,-146 142,-146 136,-146 130,-140 130,-134 130,-134 130,-107 130,-107 130,-101 136,-95 142,-95 142,-95 217,-95 217,-95 223,-95 229,-101 229,-107 229,-107 229,-134 229,-134 229,-140 223,-146 217,-146"/>
<g id="a_state_10002_title"><a xlink:href="#" xlink:title="state_10002_title">
<text text-anchor="start" x="157" y="-128.1" font-family="Calibri" font-weight="bold" font-size="13.00" fill="#8b4513">Estado </text>
<text text-anchor="start" x="196" y="-128.1" font-family="Calibri" font-weight="bold" font-size="13.00" fill="#8b4513">2</text>
</a>
</g>
<g id="a_state_10002_item_1"><a xlink:href="#" xlink:title="state_10002_item_1">
<text text-anchor="start" x="138.5" y="-107.3" font-family="Times,serif" font-size="14.00" fill="#bc1f29">S </text>
<text text-anchor="start" x="150.5" y="-107.3" font-family="Times,serif" font-size="14.00" fill="#0a5040">→ </text>
<text text-anchor="start" x="169.5" y="-107.3" font-family="Times,serif" font-size="14.00" fill="#f5a70a"> •</text>
<text text-anchor="start" x="179.5" y="-107.3" font-family="Times,serif" font-size="14.00" fill="#0a5040"> (</text>
<text text-anchor="start" x="188.5" y="-107.3" font-family="Times,serif" font-size="14.00" fill="#bc1f29"> S</text>
<text text-anchor="start" x="200.5" y="-107.3" font-family="Times,serif" font-size="14.00" fill="#0a5040"> )</text>
<text text-anchor="start" x="209.5" y="-107.3" font-family="Times,serif" font-size="14.00" fill="#bc1f29"> S</text>
</a>
</g>
</g>
<!-- state_10005 -->
<g id="state_10005" class="node">
<title>state_10005</title>
<path fill="#fffff0" stroke="#b8860b" stroke-width="1.5" d="M363,-176C363,-176 288,-176 288,-176 282,-176 276,-170 276,-164 276,-164 276,-137 276,-137 276,-131 282,-125 288,-125 288,-125 363,-125 363,-125 369,-125 375,-131 375,-137 375,-137 375,-164 375,-164 375,-170 369,-176 363,-176"/>
<g id="a_state_10005_title"><a xlink:href="#" xlink:title="state_10005_title">
<text text-anchor="start" x="303" y="-158.1" font-family="Calibri" font-weight="bold" font-size="13.00" fill="#8b4513">Estado </text>
<text text-anchor="start" x="342" y="-158.1" font-family="Calibri" font-weight="bold" font-size="13.00" fill="#8b4513">5</text>
</a>
</g>
<g id="a_state_10005_item_1"><a xlink:href="#" xlink:title="state_10005_item_1">
<text text-anchor="start" x="284.5" y="-137.3" font-family="Times,serif" font-size="14.00" fill="#bc1f29">S </text>
<text text-anchor="start" x="296.5" y="-137.3" font-family="Times,serif" font-size="14.00" fill="#0a5040">→ </text>
<text text-anchor="start" x="315.5" y="-137.3" font-family="Times,serif" font-size="14.00" fill="#0a5040"> (</text>
<text text-anchor="start" x="324.5" y="-137.3" font-family="Times,serif" font-size="14.00" fill="#f5a70a"> •</text>
<text text-anchor="start" x="334.5" y="-137.3" font-family="Times,serif" font-size="14.00" fill="#bc1f29"> S</text>
<text text-anchor="start" x="346.5" y="-137.3" font-family="Times,serif" font-size="14.00" fill="#0a5040"> )</text>
<text text-anchor="start" x="355.5" y="-137.3" font-family="Times,serif" font-size="14.00" fill="#bc1f29"> S</text>
</a>
</g>
</g>
<!-- state_10002&#45;&gt;state_10005 -->
<g id="trans_4" class="edge">
<title>state_10002&#45;&gt;state_10005</title>
<path fill="none" stroke="#b8860b" stroke-width="1.5" d="M229.24,-118.1939C238.8577,-118.5732 248.8008,-119.5463 258,-121.5 260.6571,-122.0643 263.3392,-122.7354 266.0238,-123.4916"/>
<polygon fill="#b8860b" stroke="#b8860b" stroke-width="1.5" points="265.1251,-126.8783 275.7153,-126.5636 267.2403,-120.2055 265.1251,-126.8783"/>
<text text-anchor="start" x="248" y="-125.3" font-family="Times,serif" font-size="14.00" fill="#0a5040"> (</text>
</g>
<!-- state_10004 -->
<g id="state_10004" class="node">
<title>state_10004</title>
<path fill="#fffff0" stroke="#b8860b" stroke-width="1.5" d="M208.5,-66C208.5,-66 150.5,-66 150.5,-66 144.5,-66 138.5,-60 138.5,-54 138.5,-54 138.5,-27 138.5,-27 138.5,-21 144.5,-15 150.5,-15 150.5,-15 208.5,-15 208.5,-15 214.5,-15 220.5,-21 220.5,-27 220.5,-27 220.5,-54 220.5,-54 220.5,-60 214.5,-66 208.5,-66"/>
<g id="a_state_10004_title"><a xlink:href="#" xlink:title="state_10004_title">
<text text-anchor="start" x="156.5" y="-48.1" font-family="Calibri" font-weight="bold" font-size="13.00" fill="#8b4513">Estado </text>
<text text-anchor="start" x="195.5" y="-48.1" font-family="Calibri" font-weight="bold" font-size="13.00" fill="#8b4513">4</text>
</a>
</g>
<g id="a_state_10004_item_1"><a xlink:href="#" xlink:title="state_10004_item_1">
<text text-anchor="start" x="146.5" y="-27.3" font-family="Times,serif" font-size="14.00" fill="#bc1f29">S&#39; </text>
<text text-anchor="start" x="160.5" y="-27.3" font-family="Times,serif" font-size="14.00" fill="#0a5040">→ </text>
<text text-anchor="start" x="179.5" y="-27.3" font-family="Times,serif" font-size="14.00" fill="#bc1f29"> S</text>
<text text-anchor="start" x="191.5" y="-27.3" font-family="Times,serif" font-size="14.00" fill="#f5a70a"> •</text>
<text text-anchor="start" x="201.5" y="-27.3" font-family="Times,serif" font-size="14.00" fill="#0a5040"> $</text>
</a>
</g>
</g>
<!-- state_10006 -->
<g id="state_10006" class="node">
<title>state_10006</title>
<path fill="#f5f5dc" stroke="#b8860b" stroke-width="1.5" d="M354.5,-55C354.5,-55 296.5,-55 296.5,-55 290.5,-55 284.5,-49 284.5,-43 284.5,-43 284.5,-16 284.5,-16 284.5,-10 290.5,-4 296.5,-4 296.5,-4 354.5,-4 354.5,-4 360.5,-4 366.5,-10 366.5,-16 366.5,-16 366.5,-43 366.5,-43 366.5,-49 360.5,-55 354.5,-55"/>
<path fill="none" stroke="#b8860b" stroke-width="1.5" d="M358.5,-59C358.5,-59 292.5,-59 292.5,-59 286.5,-59 280.5,-53 280.5,-47 280.5,-47 280.5,-12 280.5,-12 280.5,-6 286.5,0 292.5,0 292.5,0 358.5,0 358.5,0 364.5,0 370.5,-6 370.5,-12 370.5,-12 370.5,-47 370.5,-47 370.5,-53 364.5,-59 358.5,-59"/>
<g id="a_state_10006_title"><a xlink:href="#" xlink:title="state_10006_title">
<text text-anchor="start" x="302.5" y="-37.1" font-family="Calibri" font-weight="bold" font-size="13.00" fill="#8b4513">Estado </text>
<text text-anchor="start" x="341.5" y="-37.1" font-family="Calibri" font-weight="bold" font-size="13.00" fill="#8b4513">6</text>
</a>
</g>
<g id="a_state_10006_item_1"><a xlink:href="#" xlink:title="state_10006_item_1">
<text text-anchor="start" x="292.5" y="-16.3" font-family="Times,serif" font-size="14.00" fill="#bc1f29">S&#39; </text>
<text text-anchor="start" x="306.5" y="-16.3" font-family="Times,serif" font-size="14.00" fill="#0a5040">→ </text>
<text text-anchor="start" x="325.5" y="-16.3" font-family="Times,serif" font-size="14.00" fill="#bc1f29"> S</text>
<text text-anchor="start" x="337.5" y="-16.3" font-family="Times,serif" font-size="14.00" fill="#0a5040"> $</text>
<text text-anchor="start" x="348.5" y="-16.3" font-family="Times,serif" font-size="14.00" fill="#f5a70a"> •</text>
</a>
</g>
</g>
<!-- state_10004&#45;&gt;state_10006 -->
<g id="trans_5" class="edge">
<title>state_10004&#45;&gt;state_10006</title>
<path fill="none" stroke="#b8860b" stroke-width="1.5" d="M220.5577,-37.4066C235.9936,-36.2436 253.803,-34.9018 270.3168,-33.6576"/>
<polygon fill="#b8860b" stroke="#b8860b" stroke-width="1.5" points="270.69,-37.1395 280.3988,-32.898 270.1641,-30.1593 270.69,-37.1395"/>
<text text-anchor="start" x="247" y="-39.3" font-family="Times,serif" font-size="14.00" fill="#0a5040"> $</text>
</g>
<!-- state_10007 -->
<g id="state_10007" class="node">
<title>state_10007</title>
<path fill="#fffff0" stroke="#b8860b" stroke-width="1.5" d="M510,-167C510,-167 435,-167 435,-167 429,-167 423,-161 423,-155 423,-155 423,-128 423,-128 423,-122 429,-116 435,-116 435,-116 510,-116 510,-116 516,-116 522,-122 522,-128 522,-128 522,-155 522,-155 522,-161 516,-167 510,-167"/>
<g id="a_state_10007_title"><a xlink:href="#" xlink:title="state_10007_title">
<text text-anchor="start" x="450" y="-149.1" font-family="Calibri" font-weight="bold" font-size="13.00" fill="#8b4513">Estado </text>
<text text-anchor="start" x="489" y="-149.1" font-family="Calibri" font-weight="bold" font-size="13.00" fill="#8b4513">7</text>
</a>
</g>
<g id="a_state_10007_item_1"><a xlink:href="#" xlink:title="state_10007_item_1">
<text text-anchor="start" x="431.5" y="-128.3" font-family="Times,serif" font-size="14.00" fill="#bc1f29">S </text>
<text text-anchor="start" x="443.5" y="-128.3" font-family="Times,serif" font-size="14.00" fill="#0a5040">→ </text>
<text text-anchor="start" x="462.5" y="-128.3" font-family="Times,serif" font-size="14.00" fill="#0a5040"> (</text>
<text text-anchor="start" x="471.5" y="-128.3" font-family="Times,serif" font-size="14.00" fill="#bc1f29"> S</text>
<text text-anchor="start" x="483.5" y="-128.3" font-family="Times,serif" font-size="14.00" fill="#f5a70a"> •</text>
<text text-anchor="start" x="493.5" y="-128.3" font-family="Times,serif" font-size="14.00" fill="#0a5040"> )</text>
<text text-anchor="start" x="502.5" y="-128.3" font-family="Times,serif" font-size="14.00" fill="#bc1f29"> S</text>
</a>
</g>
</g>
<!-- state_10008 -->
<g id="state_10008" class="node">
<title>state_10008</title>
<path fill="#fffff0" stroke="#b8860b" stroke-width="1.5" d="M656,-150C656,-150 581,-150 581,-150 575,-150 569,-144 569,-138 569,-138 569,-111 569,-111 569,-105 575,-99 581,-99 581,-99 656,-99 656,-99 662,-99 668,-105 668,-111 668,-111 668,-138 668,-138 668,-144 662,-150 656,-150"/>
<g id="a_state_10008_title"><a xlink:href="#" xlink:title="state_10008_title">
<text text-anchor="start" x="596" y="-132.1" font-family="Calibri" font-weight="bold" font-size="13.00" fill="#8b4513">Estado </text>
<text text-anchor="start" x="635" y="-132.1" font-family="Calibri" font-weight="bold" font-size="13.00" fill="#8b4513">8</text>
</a>
</g>
<g id="a_state_10008_item_1"><a xlink:href="#" xlink:title="state_10008_item_1">
<text text-anchor="start" x="577.5" y="-111.3" font-family="Times,serif" font-size="14.00" fill="#bc1f29">S </text>
<text text-anchor="start" x="589.5" y="-111.3" font-family="Times,serif" font-size="14.00" fill="#0a5040">→ </text>
<text text-anchor="start" x="608.5" y="-111.3" font-family="Times,serif" font-size="14.00" fill="#0a5040"> (</text>
<text text-anchor="start" x="617.5" y="-111.3" font-family="Times,serif" font-size="14.00" fill="#bc1f29"> S</text>
<text text-anchor="start" x="629.5" y="-111.3" font-family="Times,serif" font-size="14.00" fill="#0a5040"> )</text>
<text text-anchor="start" x="638.5" y="-111.3" font-family="Times,serif" font-size="14.00" fill="#f5a70a"> •</text>
<text text-anchor="start" x="648.5" y="-111.3" font-family="Times,serif" font-size="14.00" fill="#bc1f29"> S</text>
</a>
</g>
</g>
<!-- state_10007&#45;&gt;state_10008 -->
<g id="trans_9" class="edge">
<title>state_10007&#45;&gt;state_10008</title>
<path fill="none" stroke="#b8860b" stroke-width="1.5" d="M522.3366,-135.6971C534.0823,-134.3295 546.7207,-132.8579 558.8499,-131.4456"/>
<polygon fill="#b8860b" stroke="#b8860b" stroke-width="1.5" points="559.36,-134.9099 568.888,-130.2767 558.5503,-127.9569 559.36,-134.9099"/>
<text text-anchor="start" x="541" y="-137.3" font-family="Times,serif" font-size="14.00" fill="#0a5040"> )</text>
</g>
<!-- state_10001 -->
<g id="state_10001" class="node">
<title>state_10001</title>
<path fill="#fffff0" stroke="#b8860b" stroke-width="1.5" d="M70,-146C70,-146 12,-146 12,-146 6,-146 0,-140 0,-134 0,-134 0,-107 0,-107 0,-101 6,-95 12,-95 12,-95 70,-95 70,-95 76,-95 82,-101 82,-107 82,-107 82,-134 82,-134 82,-140 76,-146 70,-146"/>
<g id="a_state_10001_title"><a xlink:href="#" xlink:title="state_10001_title">
<text text-anchor="start" x="18" y="-128.1" font-family="Calibri" font-weight="bold" font-size="13.00" fill="#8b4513">Estado </text>
<text text-anchor="start" x="57" y="-128.1" font-family="Calibri" font-weight="bold" font-size="13.00" fill="#8b4513">1</text>
</a>
</g>
<g id="a_state_10001_item_1"><a xlink:href="#" xlink:title="state_10001_item_1">
<text text-anchor="start" x="8" y="-107.3" font-family="Times,serif" font-size="14.00" fill="#bc1f29">S&#39; </text>
<text text-anchor="start" x="22" y="-107.3" font-family="Times,serif" font-size="14.00" fill="#0a5040">→ </text>
<text text-anchor="start" x="41" y="-107.3" font-family="Times,serif" font-size="14.00" fill="#f5a70a"> •</text>
<text text-anchor="start" x="51" y="-107.3" font-family="Times,serif" font-size="14.00" fill="#bc1f29"> S</text>
<text text-anchor="start" x="63" y="-107.3" font-family="Times,serif" font-size="14.00" fill="#0a5040"> $</text>
</a>
</g>
</g>
<!-- state_10001&#45;&gt;state_10002 -->
<g id="trans_2" class="edge">
<title>state_10001&#45;&gt;state_10002</title>
<path fill="none" stroke="#b8860b" stroke-width="1.5" d="M82.1796,-120.5C94.0083,-120.5 107.1522,-120.5 119.8564,-120.5"/>
<polygon fill="#b8860b" stroke="#b8860b" stroke-width="1.5" points="119.917,-124.0001 129.917,-120.5 119.917,-117.0001 119.917,-124.0001"/>
<text text-anchor="start" x="100.5" y="-124.3" font-family="Times,serif" font-size="14.00" fill="#0a5040"> ε</text>
</g>
<!-- state_10001&#45;&gt;state_10004 -->
<g id="trans_1" class="edge">
<title>state_10001&#45;&gt;state_10004</title>
<path fill="none" stroke="#b8860b" stroke-width="1.5" d="M82.1796,-96.714C96.9773,-88.1666 113.8334,-78.4302 129.3117,-69.4896"/>
<polygon fill="#b8860b" stroke="#b8860b" stroke-width="1.5" points="131.3313,-72.3651 138.2399,-64.3325 127.83,-66.3036 131.3313,-72.3651"/>
<text text-anchor="start" x="100" y="-88.3" font-family="Times,serif" font-size="14.00" fill="#bc1f29"> S</text>
</g>
<!-- state_10003 -->
<g id="state_10003" class="node">
<title>state_10003</title>
<path fill="#f5f5dc" stroke="#b8860b" stroke-width="1.5" d="M788.5,-224C788.5,-224 750.5,-224 750.5,-224 744.5,-224 738.5,-218 738.5,-212 738.5,-212 738.5,-185 738.5,-185 738.5,-179 744.5,-173 750.5,-173 750.5,-173 788.5,-173 788.5,-173 794.5,-173 800.5,-179 800.5,-185 800.5,-185 800.5,-212 800.5,-212 800.5,-218 794.5,-224 788.5,-224"/>
<path fill="none" stroke="#b8860b" stroke-width="1.5" d="M792.5,-228C792.5,-228 746.5,-228 746.5,-228 740.5,-228 734.5,-222 734.5,-216 734.5,-216 734.5,-181 734.5,-181 734.5,-175 740.5,-169 746.5,-169 746.5,-169 792.5,-169 792.5,-169 798.5,-169 804.5,-175 804.5,-181 804.5,-181 804.5,-216 804.5,-216 804.5,-222 798.5,-228 792.5,-228"/>
<g id="a_state_10003_title"><a xlink:href="#" xlink:title="state_10003_title">
<text text-anchor="start" x="746.5" y="-206.1" font-family="Calibri" font-weight="bold" font-size="13.00" fill="#8b4513">Estado </text>
<text text-anchor="start" x="785.5" y="-206.1" font-family="Calibri" font-weight="bold" font-size="13.00" fill="#8b4513">3</text>
</a>
</g>
<g id="a_state_10003_item_1"><a xlink:href="#" xlink:title="state_10003_item_1">
<text text-anchor="start" x="749" y="-185.3" font-family="Times,serif" font-size="14.00" fill="#bc1f29">S </text>
<text text-anchor="start" x="761" y="-185.3" font-family="Times,serif" font-size="14.00" fill="#0a5040">→ </text>
<text text-anchor="start" x="780" y="-185.3" font-family="Times,serif" font-size="14.00" fill="#f5a70a"> •</text>
</a>
</g>
</g>
<!-- state_10001&#45;&gt;state_10003 -->
<g id="trans_3" class="edge">
<title>state_10001&#45;&gt;state_10003</title>
<path fill="none" stroke="#b8860b" stroke-width="1.5" d="M56.7354,-146.1414C79.3902,-179.4812 124.5719,-233.5 179.5,-233.5 179.5,-233.5 179.5,-233.5 618.5,-233.5 654.8867,-233.5 694.9613,-223.7358 724.677,-214.522"/>
<polygon fill="#b8860b" stroke="#b8860b" stroke-width="1.5" points="725.878,-217.8126 734.337,-211.4333 723.7461,-211.1451 725.878,-217.8126"/>
<text text-anchor="start" x="393.5" y="-237.3" font-family="Times,serif" font-size="14.00" fill="#0a5040"> ε</text>
</g>
<!-- state_10005&#45;&gt;state_10002 -->
<g id="trans_7" class="edge">
<title>state_10005&#45;&gt;state_10002</title>
<path fill="none" stroke="#b8860b" stroke-width="1.5" d="M275.5864,-142.0333C266.0765,-140.2971 256.2172,-138.4127 247,-136.5 244.3818,-135.9567 241.7099,-135.3872 239.0135,-134.8003"/>
<polygon fill="#b8860b" stroke="#b8860b" stroke-width="1.5" points="239.7157,-131.371 229.1941,-132.6139 238.1943,-138.2037 239.7157,-131.371"/>
<text text-anchor="start" x="247" y="-142.3" font-family="Times,serif" font-size="14.00" fill="#0a5040"> ε</text>
</g>
<!-- state_10005&#45;&gt;state_10007 -->
<g id="trans_6" class="edge">
<title>state_10005&#45;&gt;state_10007</title>
<path fill="none" stroke="#b8860b" stroke-width="1.5" d="M375.2675,-147.453C387.2408,-146.72 400.1554,-145.9293 412.5389,-145.1711"/>
<polygon fill="#b8860b" stroke="#b8860b" stroke-width="1.5" points="413.0164,-148.6485 422.7838,-144.5439 412.5885,-141.6616 413.0164,-148.6485"/>
<text text-anchor="start" x="393" y="-149.3" font-family="Times,serif" font-size="14.00" fill="#bc1f29"> S</text>
</g>
<!-- state_10005&#45;&gt;state_10003 -->
<g id="trans_8" class="edge">
<title>state_10005&#45;&gt;state_10003</title>
<path fill="none" stroke="#b8860b" stroke-width="1.5" d="M375.1913,-165.7751C390.399,-169.9 407.2668,-173.9286 423,-176.5 530.0054,-193.9886 657.7075,-197.7623 724.1919,-198.4602"/>
<polygon fill="#b8860b" stroke="#b8860b" stroke-width="1.5" points="724.2943,-201.9611 734.3241,-198.5474 724.3547,-194.9613 724.2943,-201.9611"/>
<text text-anchor="start" x="540" y="-194.3" font-family="Times,serif" font-size="14.00" fill="#0a5040"> ε</text>
</g>
<!-- state_10008&#45;&gt;state_10002 -->
<g id="trans_11" class="edge">
<title>state_10008&#45;&gt;state_10002</title>
<path fill="none" stroke="#b8860b" stroke-width="1.5" d="M568.6342,-114.0077C553.7072,-111.3301 537.2522,-108.8332 522,-107.5 423.1868,-98.8627 307.8408,-106.9855 239.3881,-113.7041"/>
<polygon fill="#b8860b" stroke="#b8860b" stroke-width="1.5" points="238.8254,-110.2429 229.2254,-114.7252 239.5252,-117.2078 238.8254,-110.2429"/>
<text text-anchor="start" x="393.5" y="-107.3" font-family="Times,serif" font-size="14.00" fill="#0a5040"> ε</text>
</g>
<!-- state_10008&#45;&gt;state_10003 -->
<g id="trans_12" class="edge">
<title>state_10008&#45;&gt;state_10003</title>
<path fill="none" stroke="#b8860b" stroke-width="1.5" d="M668.3615,-148.9355C686.796,-157.9696 707.5445,-168.1377 725.429,-176.9023"/>
<polygon fill="#b8860b" stroke="#b8860b" stroke-width="1.5" points="723.973,-180.0864 734.4929,-181.3442 727.0534,-173.8006 723.973,-180.0864"/>
<text text-anchor="start" x="686.5" y="-165.3" font-family="Times,serif" font-size="14.00" fill="#0a5040"> ε</text>
</g>
<!-- state_10009 -->
<g id="state_10009" class="node">
<title>state_10009</title>
<path fill="#f5f5dc" stroke="#b8860b" stroke-width="1.5" d="M807,-147C807,-147 732,-147 732,-147 726,-147 720,-141 720,-135 720,-135 720,-108 720,-108 720,-102 726,-96 732,-96 732,-96 807,-96 807,-96 813,-96 819,-102 819,-108 819,-108 819,-135 819,-135 819,-141 813,-147 807,-147"/>
<path fill="none" stroke="#b8860b" stroke-width="1.5" d="M811,-151C811,-151 728,-151 728,-151 722,-151 716,-145 716,-139 716,-139 716,-104 716,-104 716,-98 722,-92 728,-92 728,-92 811,-92 811,-92 817,-92 823,-98 823,-104 823,-104 823,-139 823,-139 823,-145 817,-151 811,-151"/>
<g id="a_state_10009_title"><a xlink:href="#" xlink:title="state_10009_title">
<text text-anchor="start" x="747" y="-129.1" font-family="Calibri" font-weight="bold" font-size="13.00" fill="#8b4513">Estado </text>
<text text-anchor="start" x="786" y="-129.1" font-family="Calibri" font-weight="bold" font-size="13.00" fill="#8b4513">9</text>
</a>
</g>
<g id="a_state_10009_item_1"><a xlink:href="#" xlink:title="state_10009_item_1">
<text text-anchor="start" x="728.5" y="-108.3" font-family="Times,serif" font-size="14.00" fill="#bc1f29">S </text>
<text text-anchor="start" x="740.5" y="-108.3" font-family="Times,serif" font-size="14.00" fill="#0a5040">→ </text>
<text text-anchor="start" x="759.5" y="-108.3" font-family="Times,serif" font-size="14.00" fill="#0a5040"> (</text>
<text text-anchor="start" x="768.5" y="-108.3" font-family="Times,serif" font-size="14.00" fill="#bc1f29"> S</text>
<text text-anchor="start" x="780.5" y="-108.3" font-family="Times,serif" font-size="14.00" fill="#0a5040"> )</text>
<text text-anchor="start" x="789.5" y="-108.3" font-family="Times,serif" font-size="14.00" fill="#bc1f29"> S</text>
<text text-anchor="start" x="801.5" y="-108.3" font-family="Times,serif" font-size="14.00" fill="#f5a70a"> •</text>
</a>
</g>
</g>
<!-- state_10008&#45;&gt;state_10009 -->
<g id="trans_10" class="edge">
<title>state_10008&#45;&gt;state_10009</title>
<path fill="none" stroke="#b8860b" stroke-width="1.5" d="M668.3615,-123.5094C680.2405,-123.2734 693.0803,-123.0183 705.4954,-122.7716"/>
<polygon fill="#b8860b" stroke="#b8860b" stroke-width="1.5" points="705.8654,-126.2651 715.7938,-122.567 705.7262,-119.2664 705.8654,-126.2651"/>
<text text-anchor="start" x="686" y="-126.3" font-family="Times,serif" font-size="14.00" fill="#bc1f29"> S</text>
</g>
</g>
</svg>
