<?xml version="1.0" encoding="UTF-8" standalone="no"?>
<!DOCTYPE svg PUBLIC "-//W3C//DTD SVG 1.1//EN"
 "http://www.w3.org/Graphics/SVG/1.1/DTD/svg11.dtd">
<!-- Generated by graphviz version 2.40.1 (20161225.0304)
 -->
<!-- Title: DFA Pages: 1 -->
<svg width="1204pt" height="469pt"
 viewBox="0.00 0.00 1204.00 468.50" xmlns="http://www.w3.org/2000/svg" xmlns:xlink="http://www.w3.org/1999/xlink">
<g id="graph0" class="graph" transform="scale(1 1) rotate(0) translate(4 464.5)">
<title>DFA</title>
<!-- state_2 -->
<g id="state_2" class="node">
<title>state_2</title>
<path fill="#fffff0" stroke="#b8860b" stroke-width="1.5" d="M239,-451.5C239,-451.5 175,-451.5 175,-451.5 169,-451.5 163,-445.5 163,-439.5 163,-439.5 163,-406.5 163,-406.5 163,-400.5 169,-394.5 175,-394.5 175,-394.5 239,-394.5 239,-394.5 245,-394.5 251,-400.5 251,-406.5 251,-406.5 251,-439.5 251,-439.5 251,-445.5 245,-451.5 239,-451.5"/>
<g id="a_state_2_title"><a xlink:href="#" xlink:title="state_2_title">
<text text-anchor="start" x="184" y="-430.6" font-family="Calibri" font-weight="bold" font-size="13.00" fill="#8b4513">Estado </text>
<text text-anchor="start" x="223" y="-430.6" font-family="Calibri" font-weight="bold" font-size="13.00" fill="#8b4513">2</text>
</a>
</g>
<g id="a_state_2_item_1"><a xlink:href="#" xlink:title="state_2_item_1">
<text text-anchor="start" x="174" y="-409.8" font-family="Times,serif" font-size="14.00" fill="#bc1f29">S&#39; </text>
<text text-anchor="start" x="188" y="-409.8" font-family="Times,serif" font-size="14.00" fill="#0a5040">→ </text>
<text text-anchor="start" x="207" y="-409.8" font-family="Times,serif" font-size="14.00" fill="#bc1f29"> S</text>
<text text-anchor="start" x="219" y="-409.8" font-family="Times,serif" font-size="14.00" fill="#f5a70a"> •</text>
<text text-anchor="start" x="229" y="-409.8" font-family="Times,serif" font-size="14.00" fill="#0a5040"> $</text>
</a>
</g>
</g>
<!-- state_5 -->
<g id="state_5" class="node">
<title>state_5</title>
<path fill="#fffff0" stroke="#b8860b" stroke-width="1.5" d="M394,-456.5C394,-456.5 330,-456.5 330,-456.5 324,-456.5 318,-450.5 318,-444.5 318,-444.5 318,-411.5 318,-411.5 318,-405.5 324,-399.5 330,-399.5 330,-399.5 394,-399.5 394,-399.5 400,-399.5 406,-405.5 406,-411.5 406,-411.5 406,-444.5 406,-444.5 406,-450.5 400,-456.5 394,-456.5"/>
<path fill="none" stroke="#b8860b" stroke-width="1.5" d="M398,-460.5C398,-460.5 326,-460.5 326,-460.5 320,-460.5 314,-454.5 314,-448.5 314,-448.5 314,-407.5 314,-407.5 314,-401.5 320,-395.5 326,-395.5 326,-395.5 398,-395.5 398,-395.5 404,-395.5 410,-401.5 410,-407.5 410,-407.5 410,-448.5 410,-448.5 410,-454.5 404,-460.5 398,-460.5"/>
<g id="a_state_5_title"><a xlink:href="#" xlink:title="state_5_title">
<text text-anchor="start" x="339" y="-435.6" font-family="Calibri" font-weight="bold" font-size="13.00" fill="#8b4513">Estado </text>
<text text-anchor="start" x="378" y="-435.6" font-family="Calibri" font-weight="bold" font-size="13.00" fill="#8b4513">5</text>
</a>
</g>
<g id="a_state_5_item_1"><a xlink:href="#" xlink:title="state_5_item_1">
<text text-anchor="start" x="329" y="-414.8" font-family="Times,serif" font-size="14.00" fill="#bc1f29">S&#39; </text>
<text text-anchor="start" x="343" y="-414.8" font-family="Times,serif" font-size="14.00" fill="#0a5040">→ </text>
<text text-anchor="start" x="362" y="-414.8" font-family="Times,serif" font-size="14.00" fill="#bc1f29"> S</text>
<text text-anchor="start" x="374" y="-414.8" font-family="Times,serif" font-size="14.00" fill="#0a5040"> $</text>
<text text-anchor="start" x="385" y="-414.8" font-family="Times,serif" font-size="14.00" fill="#f5a70a"> •</text>
</a>
</g>
</g>
<!-- state_2&#45;&gt;state_5 -->
<g id="trans_4" class="edge">
<title>state_2&#45;&gt;state_5</title>
<path fill="none" stroke="#b8860b" stroke-width="1.5" d="M251.0022,-424.4194C267.3873,-424.948 286.246,-425.5563 303.7146,-426.1198"/>
<polygon fill="#b8860b" stroke="#b8860b" stroke-width="1.5" points="303.7023,-429.6212 313.81,-426.4455 303.9281,-422.6248 303.7023,-429.6212"/>
<text text-anchor="start" x="279" y="-428.8" font-family="Times,serif" font-size="14.00" fill="#0a5040"> $</text>
</g>
<!-- state_7 -->
<g id="state_7" class="node">
<title>state_7</title>
<path fill="#fffff0" stroke="#b8860b" stroke-width="1.5" d="M403,-243.5C403,-243.5 321,-243.5 321,-243.5 315,-243.5 309,-237.5 309,-231.5 309,-231.5 309,-198.5 309,-198.5 309,-192.5 315,-186.5 321,-186.5 321,-186.5 403,-186.5 403,-186.5 409,-186.5 415,-192.5 415,-198.5 415,-198.5 415,-231.5 415,-231.5 415,-237.5 409,-243.5 403,-243.5"/>
<g id="a_state_7_title"><a xlink:href="#" xlink:title="state_7_title">
<text text-anchor="start" x="339" y="-222.6" font-family="Calibri" font-weight="bold" font-size="13.00" fill="#8b4513">Estado </text>
<text text-anchor="start" x="378" y="-222.6" font-family="Calibri" font-weight="bold" font-size="13.00" fill="#8b4513">7</text>
</a>
</g>
<g id="a_state_7_item_1"><a xlink:href="#" xlink:title="state_7_item_1">
<text text-anchor="start" x="320" y="-201.8" font-family="Times,serif" font-size="14.00" fill="#bc1f29">S </text>
<text text-anchor="start" x="332" y="-201.8" font-family="Times,serif" font-size="14.00" fill="#0a5040">→ </text>
<text text-anchor="start" x="351" y="-201.8" font-family="Times,serif" font-size="14.00" fill="#0a5040"> (</text>
<text text-anchor="start" x="360" y="-201.8" font-family="Times,serif" font-size="14.00" fill="#bc1f29"> E</text>
<text text-anchor="start" x="373" y="-201.8" font-family="Times,serif" font-size="14.00" fill="#f5a70a"> •</text>
<text text-anchor="start" x="383" y="-201.8" font-family="Times,serif" font-size="14.00" fill="#0a5040"> )</text>
<text text-anchor="start" x="392" y="-201.8" font-family="Times,serif" font-size="14.00" fill="#bc1f29"> S</text>
</a>
</g>
</g>
<!-- state_10 -->
<g id="state_10" class="node">
<title>state_10</title>
<path fill="#f5f5dc" stroke="#b8860b" stroke-width="1.5" stroke-dasharray="5,2" d="M554,-250C554,-250 472,-250 472,-250 466,-250 460,-244 460,-238 460,-238 460,-142 460,-142 460,-136 466,-130 472,-130 472,-130 554,-130 554,-130 560,-130 566,-136 566,-142 566,-142 566,-238 566,-238 566,-244 560,-250 554,-250"/>
<g id="a_state_10_title"><a xlink:href="#" xlink:title="state_10_title">
<text text-anchor="start" x="486.5" y="-229.6" font-family="Calibri" font-weight="bold" font-size="13.00" fill="#8b4513">Estado </text>
<text text-anchor="start" x="525.5" y="-229.6" font-family="Calibri" font-weight="bold" font-size="13.00" fill="#8b4513">10</text>
</a>
</g>
<g id="a_state_10_item_1"><a xlink:href="#" xlink:title="state_10_item_1">
<text text-anchor="start" x="471" y="-208.8" font-family="Times,serif" font-size="14.00" fill="#bc1f29">S </text>
<text text-anchor="start" x="483" y="-208.8" font-family="Times,serif" font-size="14.00" fill="#0a5040">→ </text>
<text text-anchor="start" x="502" y="-208.8" font-family="Times,serif" font-size="14.00" fill="#0a5040"> (</text>
<text text-anchor="start" x="511" y="-208.8" font-family="Times,serif" font-size="14.00" fill="#bc1f29"> E</text>
<text text-anchor="start" x="524" y="-208.8" font-family="Times,serif" font-size="14.00" fill="#0a5040"> )</text>
<text text-anchor="start" x="533" y="-208.8" font-family="Times,serif" font-size="14.00" fill="#f5a70a"> •</text>
<text text-anchor="start" x="543" y="-208.8" font-family="Times,serif" font-size="14.00" fill="#bc1f29"> S</text>
</a>
</g>
<g id="a_state_10_item_2"><a xlink:href="#" xlink:title="state_10_item_2">
<text text-anchor="start" x="471" y="-187.8" font-family="Times,serif" font-size="14.00" fill="#bc1f29">S </text>
<text text-anchor="start" x="483" y="-187.8" font-family="Times,serif" font-size="14.00" fill="#0a5040">→ </text>
<text text-anchor="start" x="502" y="-187.8" font-family="Times,serif" font-size="14.00" fill="#f5a70a"> •</text>
<text text-anchor="start" x="512" y="-187.8" font-family="Times,serif" font-size="14.00" fill="#0a5040"> (</text>
<text text-anchor="start" x="521" y="-187.8" font-family="Times,serif" font-size="14.00" fill="#bc1f29"> E</text>
<text text-anchor="start" x="534" y="-187.8" font-family="Times,serif" font-size="14.00" fill="#0a5040"> )</text>
<text text-anchor="start" x="543" y="-187.8" font-family="Times,serif" font-size="14.00" fill="#bc1f29"> S</text>
</a>
</g>
<g id="a_state_10_item_3"><a xlink:href="#" xlink:title="state_10_item_3">
<text text-anchor="start" x="471" y="-166.8" font-family="Times,serif" font-size="14.00" fill="#bc1f29">S </text>
<text text-anchor="start" x="483" y="-166.8" font-family="Times,serif" font-size="14.00" fill="#0a5040">→ </text>
<text text-anchor="start" x="502" y="-166.8" font-family="Times,serif" font-size="14.00" fill="#f5a70a"> •</text>
<text text-anchor="start" x="512" y="-166.8" font-family="Times,serif" font-size="14.00" fill="#0a5040"> [</text>
<text text-anchor="start" x="521" y="-166.8" font-family="Times,serif" font-size="14.00" fill="#bc1f29"> E</text>
<text text-anchor="start" x="534" y="-166.8" font-family="Times,serif" font-size="14.00" fill="#0a5040"> ]</text>
<text text-anchor="start" x="543" y="-166.8" font-family="Times,serif" font-size="14.00" fill="#bc1f29"> S</text>
</a>
</g>
<g id="a_state_10_item_4"><a xlink:href="#" xlink:title="state_10_item_4">
<text text-anchor="start" x="471" y="-145.8" font-family="Times,serif" font-size="14.00" fill="#bc1f29">S </text>
<text text-anchor="start" x="483" y="-145.8" font-family="Times,serif" font-size="14.00" fill="#0a5040">→ </text>
<text text-anchor="start" x="502" y="-145.8" font-family="Times,serif" font-size="14.00" fill="#f5a70a"> •</text>
</a>
</g>
</g>
<!-- state_7&#45;&gt;state_10 -->
<g id="trans_15" class="edge">
<title>state_7&#45;&gt;state_10</title>
<path fill="none" stroke="#b8860b" stroke-width="1.5" d="M415.237,-206.1859C426.4669,-204.3267 438.4186,-202.3479 449.9698,-200.4355"/>
<polygon fill="#b8860b" stroke="#b8860b" stroke-width="1.5" points="450.6955,-203.863 459.9895,-198.7766 449.5521,-196.9571 450.6955,-203.863"/>
<text text-anchor="start" x="433" y="-206.8" font-family="Times,serif" font-size="14.00" fill="#0a5040"> )</text>
</g>
<!-- state_9 -->
<g id="state_9" class="node">
<title>state_9</title>
<path fill="#fffff0" stroke="#b8860b" stroke-width="1.5" d="M871,-328.5C871,-328.5 789,-328.5 789,-328.5 783,-328.5 777,-322.5 777,-316.5 777,-316.5 777,-283.5 777,-283.5 777,-277.5 783,-271.5 789,-271.5 789,-271.5 871,-271.5 871,-271.5 877,-271.5 883,-277.5 883,-283.5 883,-283.5 883,-316.5 883,-316.5 883,-322.5 877,-328.5 871,-328.5"/>
<g id="a_state_9_title"><a xlink:href="#" xlink:title="state_9_title">
<text text-anchor="start" x="807" y="-307.6" font-family="Calibri" font-weight="bold" font-size="13.00" fill="#8b4513">Estado </text>
<text text-anchor="start" x="846" y="-307.6" font-family="Calibri" font-weight="bold" font-size="13.00" fill="#8b4513">9</text>
</a>
</g>
<g id="a_state_9_item_1"><a xlink:href="#" xlink:title="state_9_item_1">
<text text-anchor="start" x="788" y="-286.8" font-family="Times,serif" font-size="14.00" fill="#bc1f29">S </text>
<text text-anchor="start" x="800" y="-286.8" font-family="Times,serif" font-size="14.00" fill="#0a5040">→ </text>
<text text-anchor="start" x="819" y="-286.8" font-family="Times,serif" font-size="14.00" fill="#0a5040"> [</text>
<text text-anchor="start" x="828" y="-286.8" font-family="Times,serif" font-size="14.00" fill="#bc1f29"> E</text>
<text text-anchor="start" x="841" y="-286.8" font-family="Times,serif" font-size="14.00" fill="#f5a70a"> •</text>
<text text-anchor="start" x="851" y="-286.8" font-family="Times,serif" font-size="14.00" fill="#0a5040"> ]</text>
<text text-anchor="start" x="860" y="-286.8" font-family="Times,serif" font-size="14.00" fill="#bc1f29"> S</text>
</a>
</g>
</g>
<!-- state_11 -->
<g id="state_11" class="node">
<title>state_11</title>
<path fill="#f5f5dc" stroke="#b8860b" stroke-width="1.5" stroke-dasharray="5,2" d="M1022,-298C1022,-298 940,-298 940,-298 934,-298 928,-292 928,-286 928,-286 928,-190 928,-190 928,-184 934,-178 940,-178 940,-178 1022,-178 1022,-178 1028,-178 1034,-184 1034,-190 1034,-190 1034,-286 1034,-286 1034,-292 1028,-298 1022,-298"/>
<g id="a_state_11_title"><a xlink:href="#" xlink:title="state_11_title">
<text text-anchor="start" x="954.5" y="-277.6" font-family="Calibri" font-weight="bold" font-size="13.00" fill="#8b4513">Estado </text>
<text text-anchor="start" x="993.5" y="-277.6" font-family="Calibri" font-weight="bold" font-size="13.00" fill="#8b4513">11</text>
</a>
</g>
<g id="a_state_11_item_1"><a xlink:href="#" xlink:title="state_11_item_1">
<text text-anchor="start" x="939" y="-256.8" font-family="Times,serif" font-size="14.00" fill="#bc1f29">S </text>
<text text-anchor="start" x="951" y="-256.8" font-family="Times,serif" font-size="14.00" fill="#0a5040">→ </text>
<text text-anchor="start" x="970" y="-256.8" font-family="Times,serif" font-size="14.00" fill="#0a5040"> [</text>
<text text-anchor="start" x="979" y="-256.8" font-family="Times,serif" font-size="14.00" fill="#bc1f29"> E</text>
<text text-anchor="start" x="992" y="-256.8" font-family="Times,serif" font-size="14.00" fill="#0a5040"> ]</text>
<text text-anchor="start" x="1001" y="-256.8" font-family="Times,serif" font-size="14.00" fill="#f5a70a"> •</text>
<text text-anchor="start" x="1011" y="-256.8" font-family="Times,serif" font-size="14.00" fill="#bc1f29"> S</text>
</a>
</g>
<g id="a_state_11_item_2"><a xlink:href="#" xlink:title="state_11_item_2">
<text text-anchor="start" x="939" y="-235.8" font-family="Times,serif" font-size="14.00" fill="#bc1f29">S </text>
<text text-anchor="start" x="951" y="-235.8" font-family="Times,serif" font-size="14.00" fill="#0a5040">→ </text>
<text text-anchor="start" x="970" y="-235.8" font-family="Times,serif" font-size="14.00" fill="#f5a70a"> •</text>
<text text-anchor="start" x="980" y="-235.8" font-family="Times,serif" font-size="14.00" fill="#0a5040"> (</text>
<text text-anchor="start" x="989" y="-235.8" font-family="Times,serif" font-size="14.00" fill="#bc1f29"> E</text>
<text text-anchor="start" x="1002" y="-235.8" font-family="Times,serif" font-size="14.00" fill="#0a5040"> )</text>
<text text-anchor="start" x="1011" y="-235.8" font-family="Times,serif" font-size="14.00" fill="#bc1f29"> S</text>
</a>
</g>
<g id="a_state_11_item_3"><a xlink:href="#" xlink:title="state_11_item_3">
<text text-anchor="start" x="939" y="-214.8" font-family="Times,serif" font-size="14.00" fill="#bc1f29">S </text>
<text text-anchor="start" x="951" y="-214.8" font-family="Times,serif" font-size="14.00" fill="#0a5040">→ </text>
<text text-anchor="start" x="970" y="-214.8" font-family="Times,serif" font-size="14.00" fill="#f5a70a"> •</text>
<text text-anchor="start" x="980" y="-214.8" font-family="Times,serif" font-size="14.00" fill="#0a5040"> [</text>
<text text-anchor="start" x="989" y="-214.8" font-family="Times,serif" font-size="14.00" fill="#bc1f29"> E</text>
<text text-anchor="start" x="1002" y="-214.8" font-family="Times,serif" font-size="14.00" fill="#0a5040"> ]</text>
<text text-anchor="start" x="1011" y="-214.8" font-family="Times,serif" font-size="14.00" fill="#bc1f29"> S</text>
</a>
</g>
<g id="a_state_11_item_4"><a xlink:href="#" xlink:title="state_11_item_4">
<text text-anchor="start" x="939" y="-193.8" font-family="Times,serif" font-size="14.00" fill="#bc1f29">S </text>
<text text-anchor="start" x="951" y="-193.8" font-family="Times,serif" font-size="14.00" fill="#0a5040">→ </text>
<text text-anchor="start" x="970" y="-193.8" font-family="Times,serif" font-size="14.00" fill="#f5a70a"> •</text>
</a>
</g>
</g>
<!-- state_9&#45;&gt;state_11 -->
<g id="trans_16" class="edge">
<title>state_9&#45;&gt;state_11</title>
<path fill="none" stroke="#b8860b" stroke-width="1.5" d="M883.237,-278.1411C894.6938,-273.437 906.9018,-268.4244 918.6693,-263.5927"/>
<polygon fill="#b8860b" stroke="#b8860b" stroke-width="1.5" points="920.0683,-266.8019 927.9895,-259.7659 917.4095,-260.3265 920.0683,-266.8019"/>
<text text-anchor="start" x="901" y="-272.8" font-family="Times,serif" font-size="14.00" fill="#0a5040"> ]</text>
</g>
<!-- state_6 -->
<g id="state_6" class="node">
<title>state_6</title>
<path fill="#fffff0" stroke="#b8860b" stroke-width="1.5" d="M856,-191.5C856,-191.5 804,-191.5 804,-191.5 798,-191.5 792,-185.5 792,-179.5 792,-179.5 792,-146.5 792,-146.5 792,-140.5 798,-134.5 804,-134.5 804,-134.5 856,-134.5 856,-134.5 862,-134.5 868,-140.5 868,-146.5 868,-146.5 868,-179.5 868,-179.5 868,-185.5 862,-191.5 856,-191.5"/>
<path fill="none" stroke="#b8860b" stroke-width="1.5" d="M860,-195.5C860,-195.5 800,-195.5 800,-195.5 794,-195.5 788,-189.5 788,-183.5 788,-183.5 788,-142.5 788,-142.5 788,-136.5 794,-130.5 800,-130.5 800,-130.5 860,-130.5 860,-130.5 866,-130.5 872,-136.5 872,-142.5 872,-142.5 872,-183.5 872,-183.5 872,-189.5 866,-195.5 860,-195.5"/>
<g id="a_state_6_title"><a xlink:href="#" xlink:title="state_6_title">
<text text-anchor="start" x="807" y="-170.6" font-family="Calibri" font-weight="bold" font-size="13.00" fill="#8b4513">Estado </text>
<text text-anchor="start" x="846" y="-170.6" font-family="Calibri" font-weight="bold" font-size="13.00" fill="#8b4513">6</text>
</a>
</g>
<g id="a_state_6_item_1"><a xlink:href="#" xlink:title="state_6_item_1">
<text text-anchor="start" x="803" y="-149.8" font-family="Times,serif" font-size="14.00" fill="#bc1f29">E </text>
<text text-anchor="start" x="816" y="-149.8" font-family="Times,serif" font-size="14.00" fill="#0a5040">→ </text>
<text text-anchor="start" x="835" y="-149.8" font-family="Times,serif" font-size="14.00" fill="#bc1f29"> S</text>
<text text-anchor="start" x="847" y="-149.8" font-family="Times,serif" font-size="14.00" fill="#f5a70a"> •</text>
</a>
</g>
</g>
<!-- state_8 -->
<g id="state_8" class="node">
<title>state_8</title>
<path fill="#fffff0" stroke="#b8860b" stroke-width="1.5" d="M854,-96.5C854,-96.5 806,-96.5 806,-96.5 800,-96.5 794,-90.5 794,-84.5 794,-84.5 794,-51.5 794,-51.5 794,-45.5 800,-39.5 806,-39.5 806,-39.5 854,-39.5 854,-39.5 860,-39.5 866,-45.5 866,-51.5 866,-51.5 866,-84.5 866,-84.5 866,-90.5 860,-96.5 854,-96.5"/>
<path fill="none" stroke="#b8860b" stroke-width="1.5" d="M858,-100.5C858,-100.5 802,-100.5 802,-100.5 796,-100.5 790,-94.5 790,-88.5 790,-88.5 790,-47.5 790,-47.5 790,-41.5 796,-35.5 802,-35.5 802,-35.5 858,-35.5 858,-35.5 864,-35.5 870,-41.5 870,-47.5 870,-47.5 870,-88.5 870,-88.5 870,-94.5 864,-100.5 858,-100.5"/>
<g id="a_state_8_title"><a xlink:href="#" xlink:title="state_8_title">
<text text-anchor="start" x="807" y="-75.6" font-family="Calibri" font-weight="bold" font-size="13.00" fill="#8b4513">Estado </text>
<text text-anchor="start" x="846" y="-75.6" font-family="Calibri" font-weight="bold" font-size="13.00" fill="#8b4513">8</text>
</a>
</g>
<g id="a_state_8_item_1"><a xlink:href="#" xlink:title="state_8_item_1">
<text text-anchor="start" x="805" y="-54.8" font-family="Times,serif" font-size="14.00" fill="#bc1f29">E </text>
<text text-anchor="start" x="818" y="-54.8" font-family="Times,serif" font-size="14.00" fill="#0a5040">→ </text>
<text text-anchor="start" x="837" y="-54.8" font-family="Times,serif" font-size="14.00" fill="#0a5040"> i</text>
<text text-anchor="start" x="845" y="-54.8" font-family="Times,serif" font-size="14.00" fill="#f5a70a"> •</text>
</a>
</g>
</g>
<!-- state_12 -->
<g id="state_12" class="node">
<title>state_12</title>
<path fill="#fffff0" stroke="#b8860b" stroke-width="1.5" d="M712,-186.5C712,-186.5 630,-186.5 630,-186.5 624,-186.5 618,-180.5 618,-174.5 618,-174.5 618,-141.5 618,-141.5 618,-135.5 624,-129.5 630,-129.5 630,-129.5 712,-129.5 712,-129.5 718,-129.5 724,-135.5 724,-141.5 724,-141.5 724,-174.5 724,-174.5 724,-180.5 718,-186.5 712,-186.5"/>
<path fill="none" stroke="#b8860b" stroke-width="1.5" d="M716,-190.5C716,-190.5 626,-190.5 626,-190.5 620,-190.5 614,-184.5 614,-178.5 614,-178.5 614,-137.5 614,-137.5 614,-131.5 620,-125.5 626,-125.5 626,-125.5 716,-125.5 716,-125.5 722,-125.5 728,-131.5 728,-137.5 728,-137.5 728,-178.5 728,-178.5 728,-184.5 722,-190.5 716,-190.5"/>
<g id="a_state_12_title"><a xlink:href="#" xlink:title="state_12_title">
<text text-anchor="start" x="644.5" y="-165.6" font-family="Calibri" font-weight="bold" font-size="13.00" fill="#8b4513">Estado </text>
<text text-anchor="start" x="683.5" y="-165.6" font-family="Calibri" font-weight="bold" font-size="13.00" fill="#8b4513">12</text>
</a>
</g>
<g id="a_state_12_item_1"><a xlink:href="#" xlink:title="state_12_item_1">
<text text-anchor="start" x="629" y="-144.8" font-family="Times,serif" font-size="14.00" fill="#bc1f29">S </text>
<text text-anchor="start" x="641" y="-144.8" font-family="Times,serif" font-size="14.00" fill="#0a5040">→ </text>
<text text-anchor="start" x="660" y="-144.8" font-family="Times,serif" font-size="14.00" fill="#0a5040"> (</text>
<text text-anchor="start" x="669" y="-144.8" font-family="Times,serif" font-size="14.00" fill="#bc1f29"> E</text>
<text text-anchor="start" x="682" y="-144.8" font-family="Times,serif" font-size="14.00" fill="#0a5040"> )</text>
<text text-anchor="start" x="691" y="-144.8" font-family="Times,serif" font-size="14.00" fill="#bc1f29"> S</text>
<text text-anchor="start" x="703" y="-144.8" font-family="Times,serif" font-size="14.00" fill="#f5a70a"> •</text>
</a>
</g>
</g>
<!-- state_13 -->
<g id="state_13" class="node">
<title>state_13</title>
<path fill="#fffff0" stroke="#b8860b" stroke-width="1.5" d="M1180,-266.5C1180,-266.5 1098,-266.5 1098,-266.5 1092,-266.5 1086,-260.5 1086,-254.5 1086,-254.5 1086,-221.5 1086,-221.5 1086,-215.5 1092,-209.5 1098,-209.5 1098,-209.5 1180,-209.5 1180,-209.5 1186,-209.5 1192,-215.5 1192,-221.5 1192,-221.5 1192,-254.5 1192,-254.5 1192,-260.5 1186,-266.5 1180,-266.5"/>
<path fill="none" stroke="#b8860b" stroke-width="1.5" d="M1184,-270.5C1184,-270.5 1094,-270.5 1094,-270.5 1088,-270.5 1082,-264.5 1082,-258.5 1082,-258.5 1082,-217.5 1082,-217.5 1082,-211.5 1088,-205.5 1094,-205.5 1094,-205.5 1184,-205.5 1184,-205.5 1190,-205.5 1196,-211.5 1196,-217.5 1196,-217.5 1196,-258.5 1196,-258.5 1196,-264.5 1190,-270.5 1184,-270.5"/>
<g id="a_state_13_title"><a xlink:href="#" xlink:title="state_13_title">
<text text-anchor="start" x="1112.5" y="-245.6" font-family="Calibri" font-weight="bold" font-size="13.00" fill="#8b4513">Estado </text>
<text text-anchor="start" x="1151.5" y="-245.6" font-family="Calibri" font-weight="bold" font-size="13.00" fill="#8b4513">13</text>
</a>
</g>
<g id="a_state_13_item_1"><a xlink:href="#" xlink:title="state_13_item_1">
<text text-anchor="start" x="1097" y="-224.8" font-family="Times,serif" font-size="14.00" fill="#bc1f29">S </text>
<text text-anchor="start" x="1109" y="-224.8" font-family="Times,serif" font-size="14.00" fill="#0a5040">→ </text>
<text text-anchor="start" x="1128" y="-224.8" font-family="Times,serif" font-size="14.00" fill="#0a5040"> [</text>
<text text-anchor="start" x="1137" y="-224.8" font-family="Times,serif" font-size="14.00" fill="#bc1f29"> E</text>
<text text-anchor="start" x="1150" y="-224.8" font-family="Times,serif" font-size="14.00" fill="#0a5040"> ]</text>
<text text-anchor="start" x="1159" y="-224.8" font-family="Times,serif" font-size="14.00" fill="#bc1f29"> S</text>
<text text-anchor="start" x="1171" y="-224.8" font-family="Times,serif" font-size="14.00" fill="#f5a70a"> •</text>
</a>
</g>
</g>
<!-- state_1 -->
<g id="state_1" class="node">
<title>state_1</title>
<path fill="#f5f5dc" stroke="#b8860b" stroke-width="1.5" stroke-dasharray="5,2" d="M94,-422C94,-422 12,-422 12,-422 6,-422 0,-416 0,-410 0,-410 0,-314 0,-314 0,-308 6,-302 12,-302 12,-302 94,-302 94,-302 100,-302 106,-308 106,-314 106,-314 106,-410 106,-410 106,-416 100,-422 94,-422"/>
<g id="a_state_1_title"><a xlink:href="#" xlink:title="state_1_title">
<text text-anchor="start" x="30" y="-401.6" font-family="Calibri" font-weight="bold" font-size="13.00" fill="#8b4513">Estado </text>
<text text-anchor="start" x="69" y="-401.6" font-family="Calibri" font-weight="bold" font-size="13.00" fill="#8b4513">1</text>
</a>
</g>
<g id="a_state_1_item_1"><a xlink:href="#" xlink:title="state_1_item_1">
<text text-anchor="start" x="11" y="-380.8" font-family="Times,serif" font-size="14.00" fill="#bc1f29">S&#39; </text>
<text text-anchor="start" x="25" y="-380.8" font-family="Times,serif" font-size="14.00" fill="#0a5040">→ </text>
<text text-anchor="start" x="44" y="-380.8" font-family="Times,serif" font-size="14.00" fill="#f5a70a"> •</text>
<text text-anchor="start" x="54" y="-380.8" font-family="Times,serif" font-size="14.00" fill="#bc1f29"> S</text>
<text text-anchor="start" x="66" y="-380.8" font-family="Times,serif" font-size="14.00" fill="#0a5040"> $</text>
</a>
</g>
<g id="a_state_1_item_2"><a xlink:href="#" xlink:title="state_1_item_2">
<text text-anchor="start" x="11" y="-359.8" font-family="Times,serif" font-size="14.00" fill="#bc1f29">S </text>
<text text-anchor="start" x="23" y="-359.8" font-family="Times,serif" font-size="14.00" fill="#0a5040">→ </text>
<text text-anchor="start" x="42" y="-359.8" font-family="Times,serif" font-size="14.00" fill="#f5a70a"> •</text>
<text text-anchor="start" x="52" y="-359.8" font-family="Times,serif" font-size="14.00" fill="#0a5040"> (</text>
<text text-anchor="start" x="61" y="-359.8" font-family="Times,serif" font-size="14.00" fill="#bc1f29"> E</text>
<text text-anchor="start" x="74" y="-359.8" font-family="Times,serif" font-size="14.00" fill="#0a5040"> )</text>
<text text-anchor="start" x="83" y="-359.8" font-family="Times,serif" font-size="14.00" fill="#bc1f29"> S</text>
</a>
</g>
<g id="a_state_1_item_3"><a xlink:href="#" xlink:title="state_1_item_3">
<text text-anchor="start" x="11" y="-338.8" font-family="Times,serif" font-size="14.00" fill="#bc1f29">S </text>
<text text-anchor="start" x="23" y="-338.8" font-family="Times,serif" font-size="14.00" fill="#0a5040">→ </text>
<text text-anchor="start" x="42" y="-338.8" font-family="Times,serif" font-size="14.00" fill="#f5a70a"> •</text>
<text text-anchor="start" x="52" y="-338.8" font-family="Times,serif" font-size="14.00" fill="#0a5040"> [</text>
<text text-anchor="start" x="61" y="-338.8" font-family="Times,serif" font-size="14.00" fill="#bc1f29"> E</text>
<text text-anchor="start" x="74" y="-338.8" font-family="Times,serif" font-size="14.00" fill="#0a5040"> ]</text>
<text text-anchor="start" x="83" y="-338.8" font-family="Times,serif" font-size="14.00" fill="#bc1f29"> S</text>
</a>
</g>
<g id="a_state_1_item_4"><a xlink:href="#" xlink:title="state_1_item_4">
<text text-anchor="start" x="11" y="-317.8" font-family="Times,serif" font-size="14.00" fill="#bc1f29">S </text>
<text text-anchor="start" x="23" y="-317.8" font-family="Times,serif" font-size="14.00" fill="#0a5040">→ </text>
<text text-anchor="start" x="42" y="-317.8" font-family="Times,serif" font-size="14.00" fill="#f5a70a"> •</text>
</a>
</g>
</g>
<!-- state_1&#45;&gt;state_2 -->
<g id="trans_1" class="edge">
<title>state_1&#45;&gt;state_2</title>
<path fill="none" stroke="#b8860b" stroke-width="1.5" d="M106.4295,-383.1636C121.5373,-389.1479 137.9847,-395.6628 153.1189,-401.6575"/>
<polygon fill="#b8860b" stroke="#b8860b" stroke-width="1.5" points="152.2611,-405.0822 162.8472,-405.5109 154.839,-398.5742 152.2611,-405.0822"/>
<text text-anchor="start" x="124" y="-397.8" font-family="Times,serif" font-size="14.00" fill="#bc1f29"> S</text>
</g>
<!-- state_3 -->
<g id="state_3" class="node">
<title>state_3</title>
<path fill="#f5f5dc" stroke="#b8860b" stroke-width="1.5" stroke-dasharray="5,2" d="M248,-295.5C248,-295.5 166,-295.5 166,-295.5 160,-295.5 154,-289.5 154,-283.5 154,-283.5 154,-124.5 154,-124.5 154,-118.5 160,-112.5 166,-112.5 166,-112.5 248,-112.5 248,-112.5 254,-112.5 260,-118.5 260,-124.5 260,-124.5 260,-283.5 260,-283.5 260,-289.5 254,-295.5 248,-295.5"/>
<g id="a_state_3_title"><a xlink:href="#" xlink:title="state_3_title">
<text text-anchor="start" x="184" y="-274.6" font-family="Calibri" font-weight="bold" font-size="13.00" fill="#8b4513">Estado </text>
<text text-anchor="start" x="223" y="-274.6" font-family="Calibri" font-weight="bold" font-size="13.00" fill="#8b4513">3</text>
</a>
</g>
<g id="a_state_3_item_1"><a xlink:href="#" xlink:title="state_3_item_1">
<text text-anchor="start" x="165" y="-253.8" font-family="Times,serif" font-size="14.00" fill="#bc1f29">S </text>
<text text-anchor="start" x="177" y="-253.8" font-family="Times,serif" font-size="14.00" fill="#0a5040">→ </text>
<text text-anchor="start" x="196" y="-253.8" font-family="Times,serif" font-size="14.00" fill="#0a5040"> (</text>
<text text-anchor="start" x="205" y="-253.8" font-family="Times,serif" font-size="14.00" fill="#f5a70a"> •</text>
<text text-anchor="start" x="215" y="-253.8" font-family="Times,serif" font-size="14.00" fill="#bc1f29"> E</text>
<text text-anchor="start" x="228" y="-253.8" font-family="Times,serif" font-size="14.00" fill="#0a5040"> )</text>
<text text-anchor="start" x="237" y="-253.8" font-family="Times,serif" font-size="14.00" fill="#bc1f29"> S</text>
</a>
</g>
<g id="a_state_3_item_2"><a xlink:href="#" xlink:title="state_3_item_2">
<text text-anchor="start" x="165" y="-232.8" font-family="Times,serif" font-size="14.00" fill="#bc1f29">E </text>
<text text-anchor="start" x="178" y="-232.8" font-family="Times,serif" font-size="14.00" fill="#0a5040">→ </text>
<text text-anchor="start" x="197" y="-232.8" font-family="Times,serif" font-size="14.00" fill="#f5a70a"> •</text>
<text text-anchor="start" x="207" y="-232.8" font-family="Times,serif" font-size="14.00" fill="#bc1f29"> S</text>
</a>
</g>
<g id="a_state_3_item_3"><a xlink:href="#" xlink:title="state_3_item_3">
<text text-anchor="start" x="165" y="-211.8" font-family="Times,serif" font-size="14.00" fill="#bc1f29">E </text>
<text text-anchor="start" x="178" y="-211.8" font-family="Times,serif" font-size="14.00" fill="#0a5040">→ </text>
<text text-anchor="start" x="197" y="-211.8" font-family="Times,serif" font-size="14.00" fill="#f5a70a"> •</text>
<text text-anchor="start" x="207" y="-211.8" font-family="Times,serif" font-size="14.00" fill="#0a5040"> i</text>
</a>
</g>
<g id="a_state_3_item_4"><a xlink:href="#" xlink:title="state_3_item_4">
<text text-anchor="start" x="165" y="-190.8" font-family="Times,serif" font-size="14.00" fill="#bc1f29">E </text>
<text text-anchor="start" x="178" y="-190.8" font-family="Times,serif" font-size="14.00" fill="#0a5040">→ </text>
<text text-anchor="start" x="197" y="-190.8" font-family="Times,serif" font-size="14.00" fill="#f5a70a"> •</text>
</a>
</g>
<g id="a_state_3_item_5"><a xlink:href="#" xlink:title="state_3_item_5">
<text text-anchor="start" x="165" y="-169.8" font-family="Times,serif" font-size="14.00" fill="#bc1f29">S </text>
<text text-anchor="start" x="177" y="-169.8" font-family="Times,serif" font-size="14.00" fill="#0a5040">→ </text>
<text text-anchor="start" x="196" y="-169.8" font-family="Times,serif" font-size="14.00" fill="#f5a70a"> •</text>
<text text-anchor="start" x="206" y="-169.8" font-family="Times,serif" font-size="14.00" fill="#0a5040"> (</text>
<text text-anchor="start" x="215" y="-169.8" font-family="Times,serif" font-size="14.00" fill="#bc1f29"> E</text>
<text text-anchor="start" x="228" y="-169.8" font-family="Times,serif" font-size="14.00" fill="#0a5040"> )</text>
<text text-anchor="start" x="237" y="-169.8" font-family="Times,serif" font-size="14.00" fill="#bc1f29"> S</text>
</a>
</g>
<g id="a_state_3_item_6"><a xlink:href="#" xlink:title="state_3_item_6">
<text text-anchor="start" x="165" y="-148.8" font-family="Times,serif" font-size="14.00" fill="#bc1f29">S </text>
<text text-anchor="start" x="177" y="-148.8" font-family="Times,serif" font-size="14.00" fill="#0a5040">→ </text>
<text text-anchor="start" x="196" y="-148.8" font-family="Times,serif" font-size="14.00" fill="#f5a70a"> •</text>
<text text-anchor="start" x="206" y="-148.8" font-family="Times,serif" font-size="14.00" fill="#0a5040"> [</text>
<text text-anchor="start" x="215" y="-148.8" font-family="Times,serif" font-size="14.00" fill="#bc1f29"> E</text>
<text text-anchor="start" x="228" y="-148.8" font-family="Times,serif" font-size="14.00" fill="#0a5040"> ]</text>
<text text-anchor="start" x="237" y="-148.8" font-family="Times,serif" font-size="14.00" fill="#bc1f29"> S</text>
</a>
</g>
<g id="a_state_3_item_7"><a xlink:href="#" xlink:title="state_3_item_7">
<text text-anchor="start" x="165" y="-127.8" font-family="Times,serif" font-size="14.00" fill="#bc1f29">S </text>
<text text-anchor="start" x="177" y="-127.8" font-family="Times,serif" font-size="14.00" fill="#0a5040">→ </text>
<text text-anchor="start" x="196" y="-127.8" font-family="Times,serif" font-size="14.00" fill="#f5a70a"> •</text>
</a>
</g>
</g>
<!-- state_1&#45;&gt;state_3 -->
<g id="trans_2" class="edge">
<title>state_1&#45;&gt;state_3</title>
<path fill="none" stroke="#b8860b" stroke-width="1.5" d="M106.4295,-307.1827C119.4034,-293.8718 133.3654,-279.5472 146.6351,-265.9328"/>
<polygon fill="#b8860b" stroke="#b8860b" stroke-width="1.5" points="149.4518,-268.0574 153.9253,-258.4533 144.439,-263.1715 149.4518,-268.0574"/>
<text text-anchor="start" x="125.5" y="-290.8" font-family="Times,serif" font-size="14.00" fill="#0a5040"> (</text>
</g>
<!-- state_4 -->
<g id="state_4" class="node">
<title>state_4</title>
<path fill="#f5f5dc" stroke="#b8860b" stroke-width="1.5" stroke-dasharray="5,2" d="M712,-391.5C712,-391.5 630,-391.5 630,-391.5 624,-391.5 618,-385.5 618,-379.5 618,-379.5 618,-220.5 618,-220.5 618,-214.5 624,-208.5 630,-208.5 630,-208.5 712,-208.5 712,-208.5 718,-208.5 724,-214.5 724,-220.5 724,-220.5 724,-379.5 724,-379.5 724,-385.5 718,-391.5 712,-391.5"/>
<g id="a_state_4_title"><a xlink:href="#" xlink:title="state_4_title">
<text text-anchor="start" x="648" y="-370.6" font-family="Calibri" font-weight="bold" font-size="13.00" fill="#8b4513">Estado </text>
<text text-anchor="start" x="687" y="-370.6" font-family="Calibri" font-weight="bold" font-size="13.00" fill="#8b4513">4</text>
</a>
</g>
<g id="a_state_4_item_1"><a xlink:href="#" xlink:title="state_4_item_1">
<text text-anchor="start" x="629" y="-349.8" font-family="Times,serif" font-size="14.00" fill="#bc1f29">S </text>
<text text-anchor="start" x="641" y="-349.8" font-family="Times,serif" font-size="14.00" fill="#0a5040">→ </text>
<text text-anchor="start" x="660" y="-349.8" font-family="Times,serif" font-size="14.00" fill="#0a5040"> [</text>
<text text-anchor="start" x="669" y="-349.8" font-family="Times,serif" font-size="14.00" fill="#f5a70a"> •</text>
<text text-anchor="start" x="679" y="-349.8" font-family="Times,serif" font-size="14.00" fill="#bc1f29"> E</text>
<text text-anchor="start" x="692" y="-349.8" font-family="Times,serif" font-size="14.00" fill="#0a5040"> ]</text>
<text text-anchor="start" x="701" y="-349.8" font-family="Times,serif" font-size="14.00" fill="#bc1f29"> S</text>
</a>
</g>
<g id="a_state_4_item_2"><a xlink:href="#" xlink:title="state_4_item_2">
<text text-anchor="start" x="629" y="-328.8" font-family="Times,serif" font-size="14.00" fill="#bc1f29">E </text>
<text text-anchor="start" x="642" y="-328.8" font-family="Times,serif" font-size="14.00" fill="#0a5040">→ </text>
<text text-anchor="start" x="661" y="-328.8" font-family="Times,serif" font-size="14.00" fill="#f5a70a"> •</text>
<text text-anchor="start" x="671" y="-328.8" font-family="Times,serif" font-size="14.00" fill="#bc1f29"> S</text>
</a>
</g>
<g id="a_state_4_item_3"><a xlink:href="#" xlink:title="state_4_item_3">
<text text-anchor="start" x="629" y="-307.8" font-family="Times,serif" font-size="14.00" fill="#bc1f29">E </text>
<text text-anchor="start" x="642" y="-307.8" font-family="Times,serif" font-size="14.00" fill="#0a5040">→ </text>
<text text-anchor="start" x="661" y="-307.8" font-family="Times,serif" font-size="14.00" fill="#f5a70a"> •</text>
<text text-anchor="start" x="671" y="-307.8" font-family="Times,serif" font-size="14.00" fill="#0a5040"> i</text>
</a>
</g>
<g id="a_state_4_item_4"><a xlink:href="#" xlink:title="state_4_item_4">
<text text-anchor="start" x="629" y="-286.8" font-family="Times,serif" font-size="14.00" fill="#bc1f29">E </text>
<text text-anchor="start" x="642" y="-286.8" font-family="Times,serif" font-size="14.00" fill="#0a5040">→ </text>
<text text-anchor="start" x="661" y="-286.8" font-family="Times,serif" font-size="14.00" fill="#f5a70a"> •</text>
</a>
</g>
<g id="a_state_4_item_5"><a xlink:href="#" xlink:title="state_4_item_5">
<text text-anchor="start" x="629" y="-265.8" font-family="Times,serif" font-size="14.00" fill="#bc1f29">S </text>
<text text-anchor="start" x="641" y="-265.8" font-family="Times,serif" font-size="14.00" fill="#0a5040">→ </text>
<text text-anchor="start" x="660" y="-265.8" font-family="Times,serif" font-size="14.00" fill="#f5a70a"> •</text>
<text text-anchor="start" x="670" y="-265.8" font-family="Times,serif" font-size="14.00" fill="#0a5040"> (</text>
<text text-anchor="start" x="679" y="-265.8" font-family="Times,serif" font-size="14.00" fill="#bc1f29"> E</text>
<text text-anchor="start" x="692" y="-265.8" font-family="Times,serif" font-size="14.00" fill="#0a5040"> )</text>
<text text-anchor="start" x="701" y="-265.8" font-family="Times,serif" font-size="14.00" fill="#bc1f29"> S</text>
</a>
</g>
<g id="a_state_4_item_6"><a xlink:href="#" xlink:title="state_4_item_6">
<text text-anchor="start" x="629" y="-244.8" font-family="Times,serif" font-size="14.00" fill="#bc1f29">S </text>
<text text-anchor="start" x="641" y="-244.8" font-family="Times,serif" font-size="14.00" fill="#0a5040">→ </text>
<text text-anchor="start" x="660" y="-244.8" font-family="Times,serif" font-size="14.00" fill="#f5a70a"> •</text>
<text text-anchor="start" x="670" y="-244.8" font-family="Times,serif" font-size="14.00" fill="#0a5040"> [</text>
<text text-anchor="start" x="679" y="-244.8" font-family="Times,serif" font-size="14.00" fill="#bc1f29"> E</text>
<text text-anchor="start" x="692" y="-244.8" font-family="Times,serif" font-size="14.00" fill="#0a5040"> ]</text>
<text text-anchor="start" x="701" y="-244.8" font-family="Times,serif" font-size="14.00" fill="#bc1f29"> S</text>
</a>
</g>
<g id="a_state_4_item_7"><a xlink:href="#" xlink:title="state_4_item_7">
<text text-anchor="start" x="629" y="-223.8" font-family="Times,serif" font-size="14.00" fill="#bc1f29">S </text>
<text text-anchor="start" x="641" y="-223.8" font-family="Times,serif" font-size="14.00" fill="#0a5040">→ </text>
<text text-anchor="start" x="660" y="-223.8" font-family="Times,serif" font-size="14.00" fill="#f5a70a"> •</text>
</a>
</g>
</g>
<!-- state_1&#45;&gt;state_4 -->
<g id="trans_3" class="edge">
<title>state_1&#45;&gt;state_4</title>
<path fill="none" stroke="#b8860b" stroke-width="1.5" d="M106.0976,-362C135.7801,-362 173.4462,-362 207,-362 207,-362 207,-362 513,-362 545.9603,-362 580.2818,-350.1634 608.4823,-336.8339"/>
<polygon fill="#b8860b" stroke="#b8860b" stroke-width="1.5" points="610.3586,-339.8123 617.8005,-332.2712 607.2802,-333.5255 610.3586,-339.8123"/>
<text text-anchor="start" x="357.5" y="-365.8" font-family="Times,serif" font-size="14.00" fill="#0a5040"> [</text>
</g>
<!-- state_10&#45;&gt;state_12 -->
<g id="trans_17" class="edge">
<title>state_10&#45;&gt;state_12</title>
<path fill="none" stroke="#b8860b" stroke-width="1.5" d="M566.0512,-179.2554C578.1477,-176.8055 591.1572,-174.1707 603.7584,-171.6186"/>
<polygon fill="#b8860b" stroke="#b8860b" stroke-width="1.5" points="604.6453,-175.0101 613.7516,-169.5946 603.2558,-168.1494 604.6453,-175.0101"/>
<text text-anchor="start" x="584" y="-178.8" font-family="Times,serif" font-size="14.00" fill="#bc1f29"> S</text>
</g>
<!-- state_10&#45;&gt;state_3 -->
<g id="trans_18" class="edge">
<title>state_10&#45;&gt;state_3</title>
<path fill="none" stroke="#b8860b" stroke-width="1.5" d="M459.9197,-171.9303C445.517,-167.8293 429.8075,-164.0739 415,-162 368.3443,-155.4656 355.2155,-152.8574 309,-162 295.9007,-164.5914 282.3702,-168.8869 269.6151,-173.766"/>
<polygon fill="#b8860b" stroke="#b8860b" stroke-width="1.5" points="268.0216,-170.6336 260.0325,-177.5923 270.6174,-177.1345 268.0216,-170.6336"/>
<text text-anchor="start" x="357.5" y="-165.8" font-family="Times,serif" font-size="14.00" fill="#0a5040"> (</text>
</g>
<!-- state_10&#45;&gt;state_4 -->
<g id="trans_19" class="edge">
<title>state_10&#45;&gt;state_4</title>
<path fill="none" stroke="#b8860b" stroke-width="1.5" d="M566.0512,-226.9344C579.9904,-236.6389 595.142,-247.1875 609.4842,-257.1725"/>
<polygon fill="#b8860b" stroke="#b8860b" stroke-width="1.5" points="607.6131,-260.1345 617.8198,-262.9758 611.6127,-254.3897 607.6131,-260.1345"/>
<text text-anchor="start" x="585.5" y="-248.8" font-family="Times,serif" font-size="14.00" fill="#0a5040"> [</text>
</g>
<!-- state_11&#45;&gt;state_13 -->
<g id="trans_20" class="edge">
<title>state_11&#45;&gt;state_13</title>
<path fill="none" stroke="#b8860b" stroke-width="1.5" d="M1034.0512,-238C1046.0279,-238 1058.8996,-238 1071.384,-238"/>
<polygon fill="#b8860b" stroke="#b8860b" stroke-width="1.5" points="1071.7516,-241.5001 1081.7516,-238 1071.7515,-234.5001 1071.7516,-241.5001"/>
<text text-anchor="start" x="1052" y="-241.8" font-family="Times,serif" font-size="14.00" fill="#bc1f29"> S</text>
</g>
<!-- state_11&#45;&gt;state_3 -->
<g id="trans_21" class="edge">
<title>state_11&#45;&gt;state_3</title>
<path fill="none" stroke="#b8860b" stroke-width="1.5" d="M970.0819,-177.9426C953.3981,-107.437 914.1665,0 830,0 362,0 362,0 362,0 304.6188,0 265.7085,-51.8035 241.2247,-103.2005"/>
<polygon fill="#b8860b" stroke="#b8860b" stroke-width="1.5" points="237.9725,-101.8954 236.9697,-112.4427 244.331,-104.8228 237.9725,-101.8954"/>
<text text-anchor="start" x="585.5" y="-3.8" font-family="Times,serif" font-size="14.00" fill="#0a5040"> (</text>
</g>
<!-- state_11&#45;&gt;state_4 -->
<g id="trans_22" class="edge">
<title>state_11&#45;&gt;state_4</title>
<path fill="none" stroke="#b8860b" stroke-width="1.5" d="M927.7105,-234.7759C886.0254,-233.6415 826.9568,-235.1094 777,-248 762.2654,-251.802 747.1624,-257.772 733.1439,-264.3327"/>
<polygon fill="#b8860b" stroke="#b8860b" stroke-width="1.5" points="731.5767,-261.2027 724.1031,-268.7124 734.6287,-267.5024 731.5767,-261.2027"/>
<text text-anchor="start" x="825.5" y="-251.8" font-family="Times,serif" font-size="14.00" fill="#0a5040"> [</text>
</g>
<!-- state_3&#45;&gt;state_7 -->
<g id="trans_6" class="edge">
<title>state_3&#45;&gt;state_7</title>
<path fill="none" stroke="#b8860b" stroke-width="1.5" d="M260.3422,-207.7856C272.7108,-208.6633 285.9916,-209.6059 298.7399,-210.5106"/>
<polygon fill="#b8860b" stroke="#b8860b" stroke-width="1.5" points="298.5994,-214.0093 308.8221,-211.2261 299.095,-207.0269 298.5994,-214.0093"/>
<text text-anchor="start" x="278" y="-212.8" font-family="Times,serif" font-size="14.00" fill="#bc1f29"> E</text>
</g>
<!-- state_3&#45;&gt;state_6 -->
<g id="trans_5" class="edge">
<title>state_3&#45;&gt;state_6</title>
<path fill="none" stroke="#b8860b" stroke-width="1.5" d="M260.2774,-143.9318C287.7738,-119.5413 323.5788,-97 362,-97 362,-97 362,-97 671,-97 709.0556,-97 748.5892,-113.3272 778.7162,-129.7402"/>
<polygon fill="#b8860b" stroke="#b8860b" stroke-width="1.5" points="777.3196,-132.9701 787.7519,-134.8186 780.7493,-126.8679 777.3196,-132.9701"/>
<text text-anchor="start" x="507" y="-100.8" font-family="Times,serif" font-size="14.00" fill="#bc1f29"> S</text>
</g>
<!-- state_3&#45;&gt;state_8 -->
<g id="trans_9" class="edge">
<title>state_3&#45;&gt;state_8</title>
<path fill="none" stroke="#b8860b" stroke-width="1.5" d="M256.7299,-112.0907C282.6659,-77.3319 318.1942,-46 362,-46 362,-46 362,-46 671,-46 707.5539,-46 748.3925,-51.776 779.528,-57.4088"/>
<polygon fill="#b8860b" stroke="#b8860b" stroke-width="1.5" points="779.2225,-60.9121 789.6947,-59.305 780.506,-54.0308 779.2225,-60.9121"/>
<text text-anchor="start" x="509" y="-49.8" font-family="Times,serif" font-size="14.00" fill="#0a5040"> i</text>
</g>
<!-- state_3&#45;&gt;state_3 -->
<g id="trans_7" class="edge">
<title>state_3&#45;&gt;state_3</title>
<path fill="none" stroke="#b8860b" stroke-width="1.5" d="M194.8383,-295.8625C197.0828,-306.5482 201.1367,-313.5 207,-313.5 210.8478,-313.5 213.9163,-310.5061 216.2056,-305.4278"/>
<polygon fill="#b8860b" stroke="#b8860b" stroke-width="1.5" points="219.553,-306.4501 219.1617,-295.8625 212.865,-304.3832 219.553,-306.4501"/>
<text text-anchor="start" x="202.5" y="-317.3" font-family="Times,serif" font-size="14.00" fill="#0a5040"> (</text>
</g>
<!-- state_3&#45;&gt;state_4 -->
<g id="trans_8" class="edge">
<title>state_3&#45;&gt;state_4</title>
<path fill="none" stroke="#b8860b" stroke-width="1.5" d="M260.1262,-280.372C265.6915,-284.9096 271.6556,-288.8872 278,-292 384.1968,-344.1045 526.7569,-329.3172 607.7507,-314.3347"/>
<polygon fill="#b8860b" stroke="#b8860b" stroke-width="1.5" points="608.6314,-317.7299 617.7975,-312.4164 607.3185,-310.8541 608.6314,-317.7299"/>
<text text-anchor="start" x="433" y="-331.8" font-family="Times,serif" font-size="14.00" fill="#0a5040"> [</text>
</g>
<!-- state_4&#45;&gt;state_9 -->
<g id="trans_11" class="edge">
<title>state_4&#45;&gt;state_9</title>
<path fill="none" stroke="#b8860b" stroke-width="1.5" d="M724.387,-300C737.9626,-300 752.681,-300 766.6978,-300"/>
<polygon fill="#b8860b" stroke="#b8860b" stroke-width="1.5" points="766.7539,-303.5001 776.7539,-300 766.7539,-296.5001 766.7539,-303.5001"/>
<text text-anchor="start" x="746" y="-303.8" font-family="Times,serif" font-size="14.00" fill="#bc1f29"> E</text>
</g>
<!-- state_4&#45;&gt;state_6 -->
<g id="trans_10" class="edge">
<title>state_4&#45;&gt;state_6</title>
<path fill="none" stroke="#b8860b" stroke-width="1.5" d="M724.0841,-229.805C731.0601,-222.3794 738.4288,-215.2647 746,-209 755.9058,-200.8035 767.4916,-193.3616 778.8387,-186.9663"/>
<polygon fill="#b8860b" stroke="#b8860b" stroke-width="1.5" points="780.7366,-189.9183 787.8509,-182.0673 777.3935,-183.7682 780.7366,-189.9183"/>
<text text-anchor="start" x="746.5" y="-212.8" font-family="Times,serif" font-size="14.00" fill="#bc1f29"> S</text>
</g>
<!-- state_4&#45;&gt;state_8 -->
<g id="trans_14" class="edge">
<title>state_4&#45;&gt;state_8</title>
<path fill="none" stroke="#b8860b" stroke-width="1.5" d="M723.9204,-208.3688C747.0444,-168.7631 770.4121,-129.4881 777,-121 780.341,-116.6953 784.0071,-112.3809 787.8026,-108.1749"/>
<polygon fill="#b8860b" stroke="#b8860b" stroke-width="1.5" points="790.4697,-110.4468 794.7318,-100.7471 785.3511,-105.6719 790.4697,-110.4468"/>
<text text-anchor="start" x="748.5" y="-171.8" font-family="Times,serif" font-size="14.00" fill="#0a5040"> i</text>
</g>
<!-- state_4&#45;&gt;state_3 -->
<g id="trans_12" class="edge">
<title>state_4&#45;&gt;state_3</title>
<path fill="none" stroke="#b8860b" stroke-width="1.5" d="M617.7571,-298.3669C546.189,-294.9885 415.6268,-284.6418 309,-253 295.8148,-249.0872 282.213,-243.6501 269.4085,-237.8148"/>
<polygon fill="#b8860b" stroke="#b8860b" stroke-width="1.5" points="270.7826,-234.5935 260.2432,-233.5116 267.8076,-240.9298 270.7826,-234.5935"/>
<text text-anchor="start" x="433" y="-284.8" font-family="Times,serif" font-size="14.00" fill="#0a5040"> (</text>
</g>
<!-- state_4&#45;&gt;state_4 -->
<g id="trans_13" class="edge">
<title>state_4&#45;&gt;state_4</title>
<path fill="none" stroke="#b8860b" stroke-width="1.5" d="M658.1982,-391.8625C660.5609,-402.5482 664.8281,-409.5 671,-409.5 675.0503,-409.5 678.2803,-406.5061 680.6901,-401.4278"/>
<polygon fill="#b8860b" stroke="#b8860b" stroke-width="1.5" points="684.0365,-402.4548 683.8018,-391.8625 677.3799,-400.2893 684.0365,-402.4548"/>
<text text-anchor="start" x="666.5" y="-413.3" font-family="Times,serif" font-size="14.00" fill="#0a5040"> [</text>
</g>
</g>
</svg>
