<?xml version="1.0" encoding="UTF-8" standalone="no"?>
<!DOCTYPE svg PUBLIC "-//W3C//DTD SVG 1.1//EN"
 "http://www.w3.org/Graphics/SVG/1.1/DTD/svg11.dtd">
<!-- Generated by graphviz version 2.40.1 (20161225.0304)
 -->
<!-- Title: DFA Pages: 1 -->
<svg width="1125pt" height="520pt"
 viewBox="0.00 0.00 1125.00 520.00" xmlns="http://www.w3.org/2000/svg" xmlns:xlink="http://www.w3.org/1999/xlink">
<g id="graph0" class="graph" transform="scale(1 1) rotate(0) translate(4 516)">
<title>DFA</title>
<!-- state_1 -->
<g id="state_1" class="node">
<title>state_1</title>
<path fill="#fffff0" stroke="#b8860b" stroke-width="1.5" d="M91,-418.5C91,-418.5 12,-418.5 12,-418.5 6,-418.5 0,-412.5 0,-406.5 0,-406.5 0,-247.5 0,-247.5 0,-241.5 6,-235.5 12,-235.5 12,-235.5 91,-235.5 91,-235.5 97,-235.5 103,-241.5 103,-247.5 103,-247.5 103,-406.5 103,-406.5 103,-412.5 97,-418.5 91,-418.5"/>
<g id="a_state_1_title"><a xlink:href="#" xlink:title="state_1_title">
<text text-anchor="start" x="29" y="-397.6" font-family="Calibri" font-weight="bold" font-size="13.00" fill="#8b4513">Estado </text>
<text text-anchor="start" x="68" y="-397.6" font-family="Calibri" font-weight="bold" font-size="13.00" fill="#8b4513">1</text>
</a>
</g>
<g id="a_state_1_item_1"><a xlink:href="#" xlink:title="state_1_item_1">
<text text-anchor="start" x="11.5" y="-376.8" font-family="Times,serif" font-size="14.00" fill="#bc1f29">E&#39; </text>
<text text-anchor="start" x="26.5" y="-376.8" font-family="Times,serif" font-size="14.00" fill="#0a5040">→ </text>
<text text-anchor="start" x="45.5" y="-376.8" font-family="Times,serif" font-size="14.00" fill="#f5a70a"> •</text>
<text text-anchor="start" x="55.5" y="-376.8" font-family="Times,serif" font-size="14.00" fill="#bc1f29"> E</text>
<text text-anchor="start" x="68.5" y="-376.8" font-family="Times,serif" font-size="14.00" fill="#0a5040"> $</text>
</a>
</g>
<g id="a_state_1_item_2"><a xlink:href="#" xlink:title="state_1_item_2">
<text text-anchor="start" x="11.5" y="-355.8" font-family="Times,serif" font-size="14.00" fill="#bc1f29">E </text>
<text text-anchor="start" x="24.5" y="-355.8" font-family="Times,serif" font-size="14.00" fill="#0a5040">→ </text>
<text text-anchor="start" x="43.5" y="-355.8" font-family="Times,serif" font-size="14.00" fill="#f5a70a"> •</text>
<text text-anchor="start" x="53.5" y="-355.8" font-family="Times,serif" font-size="14.00" fill="#bc1f29"> E</text>
<text text-anchor="start" x="66.5" y="-355.8" font-family="Times,serif" font-size="14.00" fill="#0a5040"> +</text>
<text text-anchor="start" x="79.5" y="-355.8" font-family="Times,serif" font-size="14.00" fill="#bc1f29"> T</text>
</a>
</g>
<g id="a_state_1_item_3"><a xlink:href="#" xlink:title="state_1_item_3">
<text text-anchor="start" x="11.5" y="-334.8" font-family="Times,serif" font-size="14.00" fill="#bc1f29">E </text>
<text text-anchor="start" x="24.5" y="-334.8" font-family="Times,serif" font-size="14.00" fill="#0a5040">→ </text>
<text text-anchor="start" x="43.5" y="-334.8" font-family="Times,serif" font-size="14.00" fill="#f5a70a"> •</text>
<text text-anchor="start" x="53.5" y="-334.8" font-family="Times,serif" font-size="14.00" fill="#bc1f29"> T</text>
</a>
</g>
<g id="a_state_1_item_4"><a xlink:href="#" xlink:title="state_1_item_4">
<text text-anchor="start" x="11.5" y="-313.8" font-family="Times,serif" font-size="14.00" fill="#bc1f29">T </text>
<text text-anchor="start" x="24.5" y="-313.8" font-family="Times,serif" font-size="14.00" fill="#0a5040">→ </text>
<text text-anchor="start" x="43.5" y="-313.8" font-family="Times,serif" font-size="14.00" fill="#f5a70a"> •</text>
<text text-anchor="start" x="53.5" y="-313.8" font-family="Times,serif" font-size="14.00" fill="#bc1f29"> T</text>
<text text-anchor="start" x="66.5" y="-313.8" font-family="Times,serif" font-size="14.00" fill="#0a5040"> *</text>
<text text-anchor="start" x="77.5" y="-313.8" font-family="Times,serif" font-size="14.00" fill="#bc1f29"> F</text>
</a>
</g>
<g id="a_state_1_item_5"><a xlink:href="#" xlink:title="state_1_item_5">
<text text-anchor="start" x="11.5" y="-292.8" font-family="Times,serif" font-size="14.00" fill="#bc1f29">T </text>
<text text-anchor="start" x="24.5" y="-292.8" font-family="Times,serif" font-size="14.00" fill="#0a5040">→ </text>
<text text-anchor="start" x="43.5" y="-292.8" font-family="Times,serif" font-size="14.00" fill="#f5a70a"> •</text>
<text text-anchor="start" x="53.5" y="-292.8" font-family="Times,serif" font-size="14.00" fill="#bc1f29"> F</text>
</a>
</g>
<g id="a_state_1_item_6"><a xlink:href="#" xlink:title="state_1_item_6">
<text text-anchor="start" x="11.5" y="-271.8" font-family="Times,serif" font-size="14.00" fill="#bc1f29">F </text>
<text text-anchor="start" x="23.5" y="-271.8" font-family="Times,serif" font-size="14.00" fill="#0a5040">→ </text>
<text text-anchor="start" x="42.5" y="-271.8" font-family="Times,serif" font-size="14.00" fill="#f5a70a"> •</text>
<text text-anchor="start" x="52.5" y="-271.8" font-family="Times,serif" font-size="14.00" fill="#0a5040"> ( </text>
<text text-anchor="start" x="65.5" y="-271.8" font-family="Times,serif" font-size="14.00" fill="#bc1f29"> E</text>
<text text-anchor="start" x="78.5" y="-271.8" font-family="Times,serif" font-size="14.00" fill="#0a5040"> )</text>
</a>
</g>
<g id="a_state_1_item_7"><a xlink:href="#" xlink:title="state_1_item_7">
<text text-anchor="start" x="11.5" y="-250.8" font-family="Times,serif" font-size="14.00" fill="#bc1f29">F </text>
<text text-anchor="start" x="23.5" y="-250.8" font-family="Times,serif" font-size="14.00" fill="#0a5040">→ </text>
<text text-anchor="start" x="42.5" y="-250.8" font-family="Times,serif" font-size="14.00" fill="#f5a70a"> •</text>
<text text-anchor="start" x="52.5" y="-250.8" font-family="Times,serif" font-size="14.00" fill="#0a5040"> id</text>
</a>
</g>
</g>
<!-- state_2 -->
<g id="state_2" class="node">
<title>state_2</title>
<path fill="#fffff0" stroke="#b8860b" stroke-width="1.5" d="M243,-299C243,-299 164,-299 164,-299 158,-299 152,-293 152,-287 152,-287 152,-233 152,-233 152,-227 158,-221 164,-221 164,-221 243,-221 243,-221 249,-221 255,-227 255,-233 255,-233 255,-287 255,-287 255,-293 249,-299 243,-299"/>
<g id="a_state_2_title"><a xlink:href="#" xlink:title="state_2_title">
<text text-anchor="start" x="181" y="-278.6" font-family="Calibri" font-weight="bold" font-size="13.00" fill="#8b4513">Estado </text>
<text text-anchor="start" x="220" y="-278.6" font-family="Calibri" font-weight="bold" font-size="13.00" fill="#8b4513">2</text>
</a>
</g>
<g id="a_state_2_item_1"><a xlink:href="#" xlink:title="state_2_item_1">
<text text-anchor="start" x="163.5" y="-257.8" font-family="Times,serif" font-size="14.00" fill="#bc1f29">E&#39; </text>
<text text-anchor="start" x="178.5" y="-257.8" font-family="Times,serif" font-size="14.00" fill="#0a5040">→ </text>
<text text-anchor="start" x="197.5" y="-257.8" font-family="Times,serif" font-size="14.00" fill="#bc1f29"> E</text>
<text text-anchor="start" x="210.5" y="-257.8" font-family="Times,serif" font-size="14.00" fill="#f5a70a"> •</text>
<text text-anchor="start" x="220.5" y="-257.8" font-family="Times,serif" font-size="14.00" fill="#0a5040"> $</text>
</a>
</g>
<g id="a_state_2_item_2"><a xlink:href="#" xlink:title="state_2_item_2">
<text text-anchor="start" x="163.5" y="-236.8" font-family="Times,serif" font-size="14.00" fill="#bc1f29">E </text>
<text text-anchor="start" x="176.5" y="-236.8" font-family="Times,serif" font-size="14.00" fill="#0a5040">→ </text>
<text text-anchor="start" x="195.5" y="-236.8" font-family="Times,serif" font-size="14.00" fill="#bc1f29"> E</text>
<text text-anchor="start" x="208.5" y="-236.8" font-family="Times,serif" font-size="14.00" fill="#f5a70a"> •</text>
<text text-anchor="start" x="218.5" y="-236.8" font-family="Times,serif" font-size="14.00" fill="#0a5040"> +</text>
<text text-anchor="start" x="231.5" y="-236.8" font-family="Times,serif" font-size="14.00" fill="#bc1f29"> T</text>
</a>
</g>
</g>
<!-- state_1&#45;&gt;state_2 -->
<g id="trans_1" class="edge">
<title>state_1&#45;&gt;state_2</title>
<path fill="none" stroke="#b8860b" stroke-width="1.5" d="M103.3846,-304.1298C115.98,-298.5779 129.5611,-292.5915 142.5336,-286.8734"/>
<polygon fill="#b8860b" stroke="#b8860b" stroke-width="1.5" points="144.1104,-290.0033 151.8492,-282.7671 141.287,-283.598 144.1104,-290.0033"/>
<text text-anchor="start" x="121" y="-298.8" font-family="Times,serif" font-size="14.00" fill="#bc1f29"> E</text>
</g>
<!-- state_5 -->
<g id="state_5" class="node">
<title>state_5</title>
<path fill="#fffff0" stroke="#b8860b" stroke-width="1.5" d="M547,-351.5C547,-351.5 468,-351.5 468,-351.5 462,-351.5 456,-345.5 456,-339.5 456,-339.5 456,-180.5 456,-180.5 456,-174.5 462,-168.5 468,-168.5 468,-168.5 547,-168.5 547,-168.5 553,-168.5 559,-174.5 559,-180.5 559,-180.5 559,-339.5 559,-339.5 559,-345.5 553,-351.5 547,-351.5"/>
<g id="a_state_5_title"><a xlink:href="#" xlink:title="state_5_title">
<text text-anchor="start" x="485" y="-330.6" font-family="Calibri" font-weight="bold" font-size="13.00" fill="#8b4513">Estado </text>
<text text-anchor="start" x="524" y="-330.6" font-family="Calibri" font-weight="bold" font-size="13.00" fill="#8b4513">5</text>
</a>
</g>
<g id="a_state_5_item_1"><a xlink:href="#" xlink:title="state_5_item_1">
<text text-anchor="start" x="467.5" y="-309.8" font-family="Times,serif" font-size="14.00" fill="#bc1f29">F </text>
<text text-anchor="start" x="479.5" y="-309.8" font-family="Times,serif" font-size="14.00" fill="#0a5040">→ </text>
<text text-anchor="start" x="498.5" y="-309.8" font-family="Times,serif" font-size="14.00" fill="#0a5040"> ( </text>
<text text-anchor="start" x="511.5" y="-309.8" font-family="Times,serif" font-size="14.00" fill="#f5a70a"> •</text>
<text text-anchor="start" x="521.5" y="-309.8" font-family="Times,serif" font-size="14.00" fill="#bc1f29"> E</text>
<text text-anchor="start" x="534.5" y="-309.8" font-family="Times,serif" font-size="14.00" fill="#0a5040"> )</text>
</a>
</g>
<g id="a_state_5_item_2"><a xlink:href="#" xlink:title="state_5_item_2">
<text text-anchor="start" x="467.5" y="-288.8" font-family="Times,serif" font-size="14.00" fill="#bc1f29">E </text>
<text text-anchor="start" x="480.5" y="-288.8" font-family="Times,serif" font-size="14.00" fill="#0a5040">→ </text>
<text text-anchor="start" x="499.5" y="-288.8" font-family="Times,serif" font-size="14.00" fill="#f5a70a"> •</text>
<text text-anchor="start" x="509.5" y="-288.8" font-family="Times,serif" font-size="14.00" fill="#bc1f29"> E</text>
<text text-anchor="start" x="522.5" y="-288.8" font-family="Times,serif" font-size="14.00" fill="#0a5040"> +</text>
<text text-anchor="start" x="535.5" y="-288.8" font-family="Times,serif" font-size="14.00" fill="#bc1f29"> T</text>
</a>
</g>
<g id="a_state_5_item_3"><a xlink:href="#" xlink:title="state_5_item_3">
<text text-anchor="start" x="467.5" y="-267.8" font-family="Times,serif" font-size="14.00" fill="#bc1f29">E </text>
<text text-anchor="start" x="480.5" y="-267.8" font-family="Times,serif" font-size="14.00" fill="#0a5040">→ </text>
<text text-anchor="start" x="499.5" y="-267.8" font-family="Times,serif" font-size="14.00" fill="#f5a70a"> •</text>
<text text-anchor="start" x="509.5" y="-267.8" font-family="Times,serif" font-size="14.00" fill="#bc1f29"> T</text>
</a>
</g>
<g id="a_state_5_item_4"><a xlink:href="#" xlink:title="state_5_item_4">
<text text-anchor="start" x="467.5" y="-246.8" font-family="Times,serif" font-size="14.00" fill="#bc1f29">T </text>
<text text-anchor="start" x="480.5" y="-246.8" font-family="Times,serif" font-size="14.00" fill="#0a5040">→ </text>
<text text-anchor="start" x="499.5" y="-246.8" font-family="Times,serif" font-size="14.00" fill="#f5a70a"> •</text>
<text text-anchor="start" x="509.5" y="-246.8" font-family="Times,serif" font-size="14.00" fill="#bc1f29"> T</text>
<text text-anchor="start" x="522.5" y="-246.8" font-family="Times,serif" font-size="14.00" fill="#0a5040"> *</text>
<text text-anchor="start" x="533.5" y="-246.8" font-family="Times,serif" font-size="14.00" fill="#bc1f29"> F</text>
</a>
</g>
<g id="a_state_5_item_5"><a xlink:href="#" xlink:title="state_5_item_5">
<text text-anchor="start" x="467.5" y="-225.8" font-family="Times,serif" font-size="14.00" fill="#bc1f29">T </text>
<text text-anchor="start" x="480.5" y="-225.8" font-family="Times,serif" font-size="14.00" fill="#0a5040">→ </text>
<text text-anchor="start" x="499.5" y="-225.8" font-family="Times,serif" font-size="14.00" fill="#f5a70a"> •</text>
<text text-anchor="start" x="509.5" y="-225.8" font-family="Times,serif" font-size="14.00" fill="#bc1f29"> F</text>
</a>
</g>
<g id="a_state_5_item_6"><a xlink:href="#" xlink:title="state_5_item_6">
<text text-anchor="start" x="467.5" y="-204.8" font-family="Times,serif" font-size="14.00" fill="#bc1f29">F </text>
<text text-anchor="start" x="479.5" y="-204.8" font-family="Times,serif" font-size="14.00" fill="#0a5040">→ </text>
<text text-anchor="start" x="498.5" y="-204.8" font-family="Times,serif" font-size="14.00" fill="#f5a70a"> •</text>
<text text-anchor="start" x="508.5" y="-204.8" font-family="Times,serif" font-size="14.00" fill="#0a5040"> ( </text>
<text text-anchor="start" x="521.5" y="-204.8" font-family="Times,serif" font-size="14.00" fill="#bc1f29"> E</text>
<text text-anchor="start" x="534.5" y="-204.8" font-family="Times,serif" font-size="14.00" fill="#0a5040"> )</text>
</a>
</g>
<g id="a_state_5_item_7"><a xlink:href="#" xlink:title="state_5_item_7">
<text text-anchor="start" x="467.5" y="-183.8" font-family="Times,serif" font-size="14.00" fill="#bc1f29">F </text>
<text text-anchor="start" x="479.5" y="-183.8" font-family="Times,serif" font-size="14.00" fill="#0a5040">→ </text>
<text text-anchor="start" x="498.5" y="-183.8" font-family="Times,serif" font-size="14.00" fill="#f5a70a"> •</text>
<text text-anchor="start" x="508.5" y="-183.8" font-family="Times,serif" font-size="14.00" fill="#0a5040"> id</text>
</a>
</g>
</g>
<!-- state_1&#45;&gt;state_5 -->
<g id="trans_4" class="edge">
<title>state_1&#45;&gt;state_5</title>
<path fill="none" stroke="#b8860b" stroke-width="1.5" d="M103.2906,-329.5289C173.2872,-331.6576 301.473,-330.9807 407,-305 420.0911,-301.777 433.5965,-296.9146 446.2944,-291.5608"/>
<polygon fill="#b8860b" stroke="#b8860b" stroke-width="1.5" points="448.0685,-294.605 455.8269,-287.3899 445.2625,-288.192 448.0685,-294.605"/>
<text text-anchor="start" x="273" y="-328.8" font-family="Times,serif" font-size="14.00" fill="#0a5040"> ( </text>
</g>
<!-- state_4 -->
<g id="state_4" class="node">
<title>state_4</title>
<path fill="#fffff0" stroke="#b8860b" stroke-width="1.5" d="M775.5,-202.5C775.5,-202.5 723.5,-202.5 723.5,-202.5 717.5,-202.5 711.5,-196.5 711.5,-190.5 711.5,-190.5 711.5,-157.5 711.5,-157.5 711.5,-151.5 717.5,-145.5 723.5,-145.5 723.5,-145.5 775.5,-145.5 775.5,-145.5 781.5,-145.5 787.5,-151.5 787.5,-157.5 787.5,-157.5 787.5,-190.5 787.5,-190.5 787.5,-196.5 781.5,-202.5 775.5,-202.5"/>
<path fill="none" stroke="#b8860b" stroke-width="1.5" d="M779.5,-206.5C779.5,-206.5 719.5,-206.5 719.5,-206.5 713.5,-206.5 707.5,-200.5 707.5,-194.5 707.5,-194.5 707.5,-153.5 707.5,-153.5 707.5,-147.5 713.5,-141.5 719.5,-141.5 719.5,-141.5 779.5,-141.5 779.5,-141.5 785.5,-141.5 791.5,-147.5 791.5,-153.5 791.5,-153.5 791.5,-194.5 791.5,-194.5 791.5,-200.5 785.5,-206.5 779.5,-206.5"/>
<g id="a_state_4_title"><a xlink:href="#" xlink:title="state_4_title">
<text text-anchor="start" x="726.5" y="-181.6" font-family="Calibri" font-weight="bold" font-size="13.00" fill="#8b4513">Estado </text>
<text text-anchor="start" x="765.5" y="-181.6" font-family="Calibri" font-weight="bold" font-size="13.00" fill="#8b4513">4</text>
</a>
</g>
<g id="a_state_4_item_1"><a xlink:href="#" xlink:title="state_4_item_1">
<text text-anchor="start" x="722.5" y="-160.8" font-family="Times,serif" font-size="14.00" fill="#bc1f29">T </text>
<text text-anchor="start" x="735.5" y="-160.8" font-family="Times,serif" font-size="14.00" fill="#0a5040">→ </text>
<text text-anchor="start" x="754.5" y="-160.8" font-family="Times,serif" font-size="14.00" fill="#bc1f29"> F</text>
<text text-anchor="start" x="766.5" y="-160.8" font-family="Times,serif" font-size="14.00" fill="#f5a70a"> •</text>
</a>
</g>
</g>
<!-- state_1&#45;&gt;state_4 -->
<g id="trans_3" class="edge">
<title>state_1&#45;&gt;state_4</title>
<path fill="none" stroke="#b8860b" stroke-width="1.5" d="M61.3973,-235.1615C76.2117,-150.5381 112.9376,-38 203.5,-38 203.5,-38 203.5,-38 431.5,-38 532.5122,-38 638.0879,-96.7284 698.6097,-137.0002"/>
<polygon fill="#b8860b" stroke="#b8860b" stroke-width="1.5" points="696.9588,-140.1084 707.2063,-142.7989 700.8732,-134.3052 696.9588,-140.1084"/>
<text text-anchor="start" x="349.5" y="-41.8" font-family="Times,serif" font-size="14.00" fill="#bc1f29"> F</text>
</g>
<!-- state_6 -->
<g id="state_6" class="node">
<title>state_6</title>
<path fill="#fffff0" stroke="#b8860b" stroke-width="1.5" d="M1090,-281.5C1090,-281.5 1036,-281.5 1036,-281.5 1030,-281.5 1024,-275.5 1024,-269.5 1024,-269.5 1024,-236.5 1024,-236.5 1024,-230.5 1030,-224.5 1036,-224.5 1036,-224.5 1090,-224.5 1090,-224.5 1096,-224.5 1102,-230.5 1102,-236.5 1102,-236.5 1102,-269.5 1102,-269.5 1102,-275.5 1096,-281.5 1090,-281.5"/>
<path fill="none" stroke="#b8860b" stroke-width="1.5" d="M1094,-285.5C1094,-285.5 1032,-285.5 1032,-285.5 1026,-285.5 1020,-279.5 1020,-273.5 1020,-273.5 1020,-232.5 1020,-232.5 1020,-226.5 1026,-220.5 1032,-220.5 1032,-220.5 1094,-220.5 1094,-220.5 1100,-220.5 1106,-226.5 1106,-232.5 1106,-232.5 1106,-273.5 1106,-273.5 1106,-279.5 1100,-285.5 1094,-285.5"/>
<g id="a_state_6_title"><a xlink:href="#" xlink:title="state_6_title">
<text text-anchor="start" x="1040" y="-260.6" font-family="Calibri" font-weight="bold" font-size="13.00" fill="#8b4513">Estado </text>
<text text-anchor="start" x="1079" y="-260.6" font-family="Calibri" font-weight="bold" font-size="13.00" fill="#8b4513">6</text>
</a>
</g>
<g id="a_state_6_item_1"><a xlink:href="#" xlink:title="state_6_item_1">
<text text-anchor="start" x="1035" y="-239.8" font-family="Times,serif" font-size="14.00" fill="#bc1f29">F </text>
<text text-anchor="start" x="1047" y="-239.8" font-family="Times,serif" font-size="14.00" fill="#0a5040">→ </text>
<text text-anchor="start" x="1066" y="-239.8" font-family="Times,serif" font-size="14.00" fill="#0a5040"> id</text>
<text text-anchor="start" x="1081" y="-239.8" font-family="Times,serif" font-size="14.00" fill="#f5a70a"> •</text>
</a>
</g>
</g>
<!-- state_1&#45;&gt;state_6 -->
<g id="trans_5" class="edge">
<title>state_1&#45;&gt;state_6</title>
<path fill="none" stroke="#b8860b" stroke-width="1.5" d="M93.7622,-418.9657C119.0177,-459.0213 155.595,-497 203.5,-497 203.5,-497 203.5,-497 905,-497 976.8916,-497 961.2914,-425.466 991,-360 1002.505,-334.6476 993.9054,-323.3936 1009,-300 1010.4151,-297.8069 1011.9614,-295.6573 1013.6079,-293.5589"/>
<polygon fill="#b8860b" stroke="#b8860b" stroke-width="1.5" points="1016.4844,-295.5839 1020.3892,-285.7349 1011.1948,-290.9992 1016.4844,-295.5839"/>
<text text-anchor="start" x="500" y="-500.8" font-family="Times,serif" font-size="14.00" fill="#0a5040"> id</text>
</g>
<!-- state_3 -->
<g id="state_3" class="node">
<title>state_3</title>
<path fill="#f5f5dc" stroke="#b8860b" stroke-width="1.5" stroke-dasharray="5,2" d="M787.5,-393C787.5,-393 711.5,-393 711.5,-393 705.5,-393 699.5,-387 699.5,-381 699.5,-381 699.5,-327 699.5,-327 699.5,-321 705.5,-315 711.5,-315 711.5,-315 787.5,-315 787.5,-315 793.5,-315 799.5,-321 799.5,-327 799.5,-327 799.5,-381 799.5,-381 799.5,-387 793.5,-393 787.5,-393"/>
<g id="a_state_3_title"><a xlink:href="#" xlink:title="state_3_title">
<text text-anchor="start" x="726.5" y="-372.6" font-family="Calibri" font-weight="bold" font-size="13.00" fill="#8b4513">Estado </text>
<text text-anchor="start" x="765.5" y="-372.6" font-family="Calibri" font-weight="bold" font-size="13.00" fill="#8b4513">3</text>
</a>
</g>
<g id="a_state_3_item_1"><a xlink:href="#" xlink:title="state_3_item_1">
<text text-anchor="start" x="710.5" y="-351.8" font-family="Times,serif" font-size="14.00" fill="#bc1f29">E </text>
<text text-anchor="start" x="723.5" y="-351.8" font-family="Times,serif" font-size="14.00" fill="#0a5040">→ </text>
<text text-anchor="start" x="742.5" y="-351.8" font-family="Times,serif" font-size="14.00" fill="#bc1f29"> T</text>
<text text-anchor="start" x="755.5" y="-351.8" font-family="Times,serif" font-size="14.00" fill="#f5a70a"> •</text>
</a>
</g>
<g id="a_state_3_item_2"><a xlink:href="#" xlink:title="state_3_item_2">
<text text-anchor="start" x="710.5" y="-330.8" font-family="Times,serif" font-size="14.00" fill="#bc1f29">T </text>
<text text-anchor="start" x="723.5" y="-330.8" font-family="Times,serif" font-size="14.00" fill="#0a5040">→ </text>
<text text-anchor="start" x="742.5" y="-330.8" font-family="Times,serif" font-size="14.00" fill="#bc1f29"> T</text>
<text text-anchor="start" x="755.5" y="-330.8" font-family="Times,serif" font-size="14.00" fill="#f5a70a"> •</text>
<text text-anchor="start" x="765.5" y="-330.8" font-family="Times,serif" font-size="14.00" fill="#0a5040"> *</text>
<text text-anchor="start" x="776.5" y="-330.8" font-family="Times,serif" font-size="14.00" fill="#bc1f29"> F</text>
</a>
</g>
</g>
<!-- state_1&#45;&gt;state_3 -->
<g id="trans_2" class="edge">
<title>state_1&#45;&gt;state_3</title>
<path fill="none" stroke="#b8860b" stroke-width="1.5" d="M103.053,-398.0532C129.3834,-425.759 164.1652,-451 203.5,-451 203.5,-451 203.5,-451 507.5,-451 584.4187,-451 616.9398,-481.0444 680,-437 693.3277,-427.6913 688.6526,-416.9919 696.5831,-401.536"/>
<polygon fill="#b8860b" stroke="#b8860b" stroke-width="1.5" points="699.6016,-403.3123 702.0413,-393.0022 693.7047,-399.5406 699.6016,-403.3123"/>
<text text-anchor="start" x="349" y="-454.8" font-family="Times,serif" font-size="14.00" fill="#bc1f29"> T</text>
</g>
<!-- state_8 -->
<g id="state_8" class="node">
<title>state_8</title>
<path fill="#fffff0" stroke="#b8860b" stroke-width="1.5" d="M395,-212.5C395,-212.5 316,-212.5 316,-212.5 310,-212.5 304,-206.5 304,-200.5 304,-200.5 304,-83.5 304,-83.5 304,-77.5 310,-71.5 316,-71.5 316,-71.5 395,-71.5 395,-71.5 401,-71.5 407,-77.5 407,-83.5 407,-83.5 407,-200.5 407,-200.5 407,-206.5 401,-212.5 395,-212.5"/>
<g id="a_state_8_title"><a xlink:href="#" xlink:title="state_8_title">
<text text-anchor="start" x="333" y="-191.6" font-family="Calibri" font-weight="bold" font-size="13.00" fill="#8b4513">Estado </text>
<text text-anchor="start" x="372" y="-191.6" font-family="Calibri" font-weight="bold" font-size="13.00" fill="#8b4513">8</text>
</a>
</g>
<g id="a_state_8_item_1"><a xlink:href="#" xlink:title="state_8_item_1">
<text text-anchor="start" x="315.5" y="-170.8" font-family="Times,serif" font-size="14.00" fill="#bc1f29">E </text>
<text text-anchor="start" x="328.5" y="-170.8" font-family="Times,serif" font-size="14.00" fill="#0a5040">→ </text>
<text text-anchor="start" x="347.5" y="-170.8" font-family="Times,serif" font-size="14.00" fill="#bc1f29"> E</text>
<text text-anchor="start" x="360.5" y="-170.8" font-family="Times,serif" font-size="14.00" fill="#0a5040"> +</text>
<text text-anchor="start" x="373.5" y="-170.8" font-family="Times,serif" font-size="14.00" fill="#f5a70a"> •</text>
<text text-anchor="start" x="383.5" y="-170.8" font-family="Times,serif" font-size="14.00" fill="#bc1f29"> T</text>
</a>
</g>
<g id="a_state_8_item_2"><a xlink:href="#" xlink:title="state_8_item_2">
<text text-anchor="start" x="315.5" y="-149.8" font-family="Times,serif" font-size="14.00" fill="#bc1f29">T </text>
<text text-anchor="start" x="328.5" y="-149.8" font-family="Times,serif" font-size="14.00" fill="#0a5040">→ </text>
<text text-anchor="start" x="347.5" y="-149.8" font-family="Times,serif" font-size="14.00" fill="#f5a70a"> •</text>
<text text-anchor="start" x="357.5" y="-149.8" font-family="Times,serif" font-size="14.00" fill="#bc1f29"> T</text>
<text text-anchor="start" x="370.5" y="-149.8" font-family="Times,serif" font-size="14.00" fill="#0a5040"> *</text>
<text text-anchor="start" x="381.5" y="-149.8" font-family="Times,serif" font-size="14.00" fill="#bc1f29"> F</text>
</a>
</g>
<g id="a_state_8_item_3"><a xlink:href="#" xlink:title="state_8_item_3">
<text text-anchor="start" x="315.5" y="-128.8" font-family="Times,serif" font-size="14.00" fill="#bc1f29">T </text>
<text text-anchor="start" x="328.5" y="-128.8" font-family="Times,serif" font-size="14.00" fill="#0a5040">→ </text>
<text text-anchor="start" x="347.5" y="-128.8" font-family="Times,serif" font-size="14.00" fill="#f5a70a"> •</text>
<text text-anchor="start" x="357.5" y="-128.8" font-family="Times,serif" font-size="14.00" fill="#bc1f29"> F</text>
</a>
</g>
<g id="a_state_8_item_4"><a xlink:href="#" xlink:title="state_8_item_4">
<text text-anchor="start" x="315.5" y="-107.8" font-family="Times,serif" font-size="14.00" fill="#bc1f29">F </text>
<text text-anchor="start" x="327.5" y="-107.8" font-family="Times,serif" font-size="14.00" fill="#0a5040">→ </text>
<text text-anchor="start" x="346.5" y="-107.8" font-family="Times,serif" font-size="14.00" fill="#f5a70a"> •</text>
<text text-anchor="start" x="356.5" y="-107.8" font-family="Times,serif" font-size="14.00" fill="#0a5040"> ( </text>
<text text-anchor="start" x="369.5" y="-107.8" font-family="Times,serif" font-size="14.00" fill="#bc1f29"> E</text>
<text text-anchor="start" x="382.5" y="-107.8" font-family="Times,serif" font-size="14.00" fill="#0a5040"> )</text>
</a>
</g>
<g id="a_state_8_item_5"><a xlink:href="#" xlink:title="state_8_item_5">
<text text-anchor="start" x="315.5" y="-86.8" font-family="Times,serif" font-size="14.00" fill="#bc1f29">F </text>
<text text-anchor="start" x="327.5" y="-86.8" font-family="Times,serif" font-size="14.00" fill="#0a5040">→ </text>
<text text-anchor="start" x="346.5" y="-86.8" font-family="Times,serif" font-size="14.00" fill="#f5a70a"> •</text>
<text text-anchor="start" x="356.5" y="-86.8" font-family="Times,serif" font-size="14.00" fill="#0a5040"> id</text>
</a>
</g>
</g>
<!-- state_2&#45;&gt;state_8 -->
<g id="trans_7" class="edge">
<title>state_2&#45;&gt;state_8</title>
<path fill="none" stroke="#b8860b" stroke-width="1.5" d="M254.1138,-220.7077C267.4694,-210.3395 282.0067,-199.054 295.7934,-188.3512"/>
<polygon fill="#b8860b" stroke="#b8860b" stroke-width="1.5" points="298.0566,-191.0252 303.8094,-182.1282 293.764,-185.4958 298.0566,-191.0252"/>
<text text-anchor="start" x="273" y="-208.8" font-family="Times,serif" font-size="14.00" fill="#0a5040"> +</text>
</g>
<!-- state_7 -->
<g id="state_7" class="node">
<title>state_7</title>
<path fill="#fffff0" stroke="#b8860b" stroke-width="1.5" d="M388.5,-291.5C388.5,-291.5 322.5,-291.5 322.5,-291.5 316.5,-291.5 310.5,-285.5 310.5,-279.5 310.5,-279.5 310.5,-246.5 310.5,-246.5 310.5,-240.5 316.5,-234.5 322.5,-234.5 322.5,-234.5 388.5,-234.5 388.5,-234.5 394.5,-234.5 400.5,-240.5 400.5,-246.5 400.5,-246.5 400.5,-279.5 400.5,-279.5 400.5,-285.5 394.5,-291.5 388.5,-291.5"/>
<path fill="none" stroke="#b8860b" stroke-width="1.5" d="M392.5,-295.5C392.5,-295.5 318.5,-295.5 318.5,-295.5 312.5,-295.5 306.5,-289.5 306.5,-283.5 306.5,-283.5 306.5,-242.5 306.5,-242.5 306.5,-236.5 312.5,-230.5 318.5,-230.5 318.5,-230.5 392.5,-230.5 392.5,-230.5 398.5,-230.5 404.5,-236.5 404.5,-242.5 404.5,-242.5 404.5,-283.5 404.5,-283.5 404.5,-289.5 398.5,-295.5 392.5,-295.5"/>
<g id="a_state_7_title"><a xlink:href="#" xlink:title="state_7_title">
<text text-anchor="start" x="332.5" y="-270.6" font-family="Calibri" font-weight="bold" font-size="13.00" fill="#8b4513">Estado </text>
<text text-anchor="start" x="371.5" y="-270.6" font-family="Calibri" font-weight="bold" font-size="13.00" fill="#8b4513">7</text>
</a>
</g>
<g id="a_state_7_item_1"><a xlink:href="#" xlink:title="state_7_item_1">
<text text-anchor="start" x="321.5" y="-249.8" font-family="Times,serif" font-size="14.00" fill="#bc1f29">E&#39; </text>
<text text-anchor="start" x="336.5" y="-249.8" font-family="Times,serif" font-size="14.00" fill="#0a5040">→ </text>
<text text-anchor="start" x="355.5" y="-249.8" font-family="Times,serif" font-size="14.00" fill="#bc1f29"> E</text>
<text text-anchor="start" x="368.5" y="-249.8" font-family="Times,serif" font-size="14.00" fill="#0a5040"> $</text>
<text text-anchor="start" x="379.5" y="-249.8" font-family="Times,serif" font-size="14.00" fill="#f5a70a"> •</text>
</a>
</g>
</g>
<!-- state_2&#45;&gt;state_7 -->
<g id="trans_6" class="edge">
<title>state_2&#45;&gt;state_7</title>
<path fill="none" stroke="#b8860b" stroke-width="1.5" d="M255.3846,-261.024C268.543,-261.2837 282.7773,-261.5647 296.2695,-261.831"/>
<polygon fill="#b8860b" stroke="#b8860b" stroke-width="1.5" points="296.3452,-265.3331 306.4123,-262.0312 296.4834,-258.3344 296.3452,-265.3331"/>
<text text-anchor="start" x="274" y="-264.8" font-family="Times,serif" font-size="14.00" fill="#0a5040"> $</text>
</g>
<!-- state_5&#45;&gt;state_5 -->
<g id="trans_12" class="edge">
<title>state_5&#45;&gt;state_5</title>
<path fill="none" stroke="#b8860b" stroke-width="1.5" d="M495.3383,-351.8625C497.5828,-362.5482 501.6367,-369.5 507.5,-369.5 511.3478,-369.5 514.4163,-366.5061 516.7056,-361.4278"/>
<polygon fill="#b8860b" stroke="#b8860b" stroke-width="1.5" points="520.053,-362.4501 519.6617,-351.8625 513.365,-360.3832 520.053,-362.4501"/>
<text text-anchor="start" x="501" y="-373.3" font-family="Times,serif" font-size="14.00" fill="#0a5040"> ( </text>
</g>
<!-- state_10 -->
<g id="state_10" class="node">
<title>state_10</title>
<path fill="#fffff0" stroke="#b8860b" stroke-width="1.5" d="M789,-123C789,-123 710,-123 710,-123 704,-123 698,-117 698,-111 698,-111 698,-57 698,-57 698,-51 704,-45 710,-45 710,-45 789,-45 789,-45 795,-45 801,-51 801,-57 801,-57 801,-111 801,-111 801,-117 795,-123 789,-123"/>
<g id="a_state_10_title"><a xlink:href="#" xlink:title="state_10_title">
<text text-anchor="start" x="723.5" y="-102.6" font-family="Calibri" font-weight="bold" font-size="13.00" fill="#8b4513">Estado </text>
<text text-anchor="start" x="762.5" y="-102.6" font-family="Calibri" font-weight="bold" font-size="13.00" fill="#8b4513">10</text>
</a>
</g>
<g id="a_state_10_item_1"><a xlink:href="#" xlink:title="state_10_item_1">
<text text-anchor="start" x="709.5" y="-81.8" font-family="Times,serif" font-size="14.00" fill="#bc1f29">F </text>
<text text-anchor="start" x="721.5" y="-81.8" font-family="Times,serif" font-size="14.00" fill="#0a5040">→ </text>
<text text-anchor="start" x="740.5" y="-81.8" font-family="Times,serif" font-size="14.00" fill="#0a5040"> ( </text>
<text text-anchor="start" x="753.5" y="-81.8" font-family="Times,serif" font-size="14.00" fill="#bc1f29"> E</text>
<text text-anchor="start" x="766.5" y="-81.8" font-family="Times,serif" font-size="14.00" fill="#f5a70a"> •</text>
<text text-anchor="start" x="776.5" y="-81.8" font-family="Times,serif" font-size="14.00" fill="#0a5040"> )</text>
</a>
</g>
<g id="a_state_10_item_2"><a xlink:href="#" xlink:title="state_10_item_2">
<text text-anchor="start" x="709.5" y="-60.8" font-family="Times,serif" font-size="14.00" fill="#bc1f29">E </text>
<text text-anchor="start" x="722.5" y="-60.8" font-family="Times,serif" font-size="14.00" fill="#0a5040">→ </text>
<text text-anchor="start" x="741.5" y="-60.8" font-family="Times,serif" font-size="14.00" fill="#bc1f29"> E</text>
<text text-anchor="start" x="754.5" y="-60.8" font-family="Times,serif" font-size="14.00" fill="#f5a70a"> •</text>
<text text-anchor="start" x="764.5" y="-60.8" font-family="Times,serif" font-size="14.00" fill="#0a5040"> +</text>
<text text-anchor="start" x="777.5" y="-60.8" font-family="Times,serif" font-size="14.00" fill="#bc1f29"> T</text>
</a>
</g>
</g>
<!-- state_5&#45;&gt;state_10 -->
<g id="trans_9" class="edge">
<title>state_5&#45;&gt;state_10</title>
<path fill="none" stroke="#b8860b" stroke-width="1.5" d="M559.1457,-184.0461C564.7991,-177.9177 570.7754,-172.1242 577,-167 609.9521,-139.8732 653.2548,-119.0752 688.2303,-105.083"/>
<polygon fill="#b8860b" stroke="#b8860b" stroke-width="1.5" points="689.8205,-108.2193 697.8588,-101.3173 687.2709,-101.7001 689.8205,-108.2193"/>
<text text-anchor="start" x="622" y="-170.8" font-family="Times,serif" font-size="14.00" fill="#bc1f29"> E</text>
</g>
<!-- state_5&#45;&gt;state_4 -->
<g id="trans_11" class="edge">
<title>state_5&#45;&gt;state_4</title>
<path fill="none" stroke="#b8860b" stroke-width="1.5" d="M559.0055,-216.7633C564.851,-213.0774 570.9044,-209.7241 577,-207 587.9574,-202.1032 650.6864,-190.7472 697.3603,-182.7294"/>
<polygon fill="#b8860b" stroke="#b8860b" stroke-width="1.5" points="698.0809,-186.1571 707.3483,-181.0223 696.9015,-179.2571 698.0809,-186.1571"/>
<text text-anchor="start" x="622.5" y="-210.8" font-family="Times,serif" font-size="14.00" fill="#bc1f29"> F</text>
</g>
<!-- state_5&#45;&gt;state_6 -->
<g id="trans_13" class="edge">
<title>state_5&#45;&gt;state_6</title>
<path fill="none" stroke="#b8860b" stroke-width="1.5" d="M559.1028,-256.7348C565.1344,-256.4407 571.2017,-256.1846 577,-256 734.1737,-250.9952 920.0791,-251.6875 1009.5801,-252.4343"/>
<polygon fill="#b8860b" stroke="#b8860b" stroke-width="1.5" points="1009.7199,-255.9356 1019.75,-252.523 1009.7809,-248.9359 1009.7199,-255.9356"/>
<text text-anchor="start" x="819" y="-256.8" font-family="Times,serif" font-size="14.00" fill="#0a5040"> id</text>
</g>
<!-- state_5&#45;&gt;state_3 -->
<g id="trans_10" class="edge">
<title>state_5&#45;&gt;state_3</title>
<path fill="none" stroke="#b8860b" stroke-width="1.5" d="M559.0757,-287.8187C565.057,-290.7146 571.1204,-293.5062 577,-296 613.6664,-311.5518 656.0485,-325.851 689.6271,-336.3603"/>
<polygon fill="#b8860b" stroke="#b8860b" stroke-width="1.5" points="688.7116,-339.7408 699.2996,-339.3593 690.7847,-333.0548 688.7116,-339.7408"/>
<text text-anchor="start" x="622" y="-335.8" font-family="Times,serif" font-size="14.00" fill="#bc1f29"> T</text>
</g>
<!-- state_8&#45;&gt;state_5 -->
<g id="trans_16" class="edge">
<title>state_8&#45;&gt;state_5</title>
<path fill="none" stroke="#b8860b" stroke-width="1.5" d="M407.3846,-182.2789C420.3468,-192.3416 434.3531,-203.2149 447.6655,-213.5495"/>
<polygon fill="#b8860b" stroke="#b8860b" stroke-width="1.5" points="445.8038,-216.5351 455.8492,-219.9027 450.0963,-211.0057 445.8038,-216.5351"/>
<text text-anchor="start" x="425" y="-208.8" font-family="Times,serif" font-size="14.00" fill="#0a5040"> ( </text>
</g>
<!-- state_8&#45;&gt;state_4 -->
<g id="trans_15" class="edge">
<title>state_8&#45;&gt;state_4</title>
<path fill="none" stroke="#b8860b" stroke-width="1.5" d="M407.2257,-137.7166C471.7565,-133.603 585.1598,-130.4356 680,-149 685.8044,-150.1362 691.7734,-151.6745 697.6592,-153.4332"/>
<polygon fill="#b8860b" stroke="#b8860b" stroke-width="1.5" points="696.8512,-156.8496 707.4423,-156.5689 698.9878,-150.1836 696.8512,-156.8496"/>
<text text-anchor="start" x="501.5" y="-139.8" font-family="Times,serif" font-size="14.00" fill="#bc1f29"> F</text>
</g>
<!-- state_8&#45;&gt;state_6 -->
<g id="trans_17" class="edge">
<title>state_8&#45;&gt;state_6</title>
<path fill="none" stroke="#b8860b" stroke-width="1.5" d="M396.5224,-71.416C422.9789,-35.7779 461.0951,0 507.5,0 507.5,0 507.5,0 905,0 1002.9754,0 1042.4319,-138.1851 1056.3528,-210.3056"/>
<polygon fill="#b8860b" stroke="#b8860b" stroke-width="1.5" points="1052.967,-211.2448 1058.2254,-220.4426 1059.8506,-209.9732 1052.967,-211.2448"/>
<text text-anchor="start" x="742" y="-3.8" font-family="Times,serif" font-size="14.00" fill="#0a5040"> id</text>
</g>
<!-- state_11 -->
<g id="state_11" class="node">
<title>state_11</title>
<path fill="#f5f5dc" stroke="#b8860b" stroke-width="1.5" stroke-dasharray="5,2" d="M668,-436C668,-436 589,-436 589,-436 583,-436 577,-430 577,-424 577,-424 577,-370 577,-370 577,-364 583,-358 589,-358 589,-358 668,-358 668,-358 674,-358 680,-364 680,-370 680,-370 680,-424 680,-424 680,-430 674,-436 668,-436"/>
<g id="a_state_11_title"><a xlink:href="#" xlink:title="state_11_title">
<text text-anchor="start" x="602.5" y="-415.6" font-family="Calibri" font-weight="bold" font-size="13.00" fill="#8b4513">Estado </text>
<text text-anchor="start" x="641.5" y="-415.6" font-family="Calibri" font-weight="bold" font-size="13.00" fill="#8b4513">11</text>
</a>
</g>
<g id="a_state_11_item_1"><a xlink:href="#" xlink:title="state_11_item_1">
<text text-anchor="start" x="588.5" y="-394.8" font-family="Times,serif" font-size="14.00" fill="#bc1f29">E </text>
<text text-anchor="start" x="601.5" y="-394.8" font-family="Times,serif" font-size="14.00" fill="#0a5040">→ </text>
<text text-anchor="start" x="620.5" y="-394.8" font-family="Times,serif" font-size="14.00" fill="#bc1f29"> E</text>
<text text-anchor="start" x="633.5" y="-394.8" font-family="Times,serif" font-size="14.00" fill="#0a5040"> +</text>
<text text-anchor="start" x="646.5" y="-394.8" font-family="Times,serif" font-size="14.00" fill="#bc1f29"> T</text>
<text text-anchor="start" x="659.5" y="-394.8" font-family="Times,serif" font-size="14.00" fill="#f5a70a"> •</text>
</a>
</g>
<g id="a_state_11_item_2"><a xlink:href="#" xlink:title="state_11_item_2">
<text text-anchor="start" x="588.5" y="-373.8" font-family="Times,serif" font-size="14.00" fill="#bc1f29">T </text>
<text text-anchor="start" x="601.5" y="-373.8" font-family="Times,serif" font-size="14.00" fill="#0a5040">→ </text>
<text text-anchor="start" x="620.5" y="-373.8" font-family="Times,serif" font-size="14.00" fill="#bc1f29"> T</text>
<text text-anchor="start" x="633.5" y="-373.8" font-family="Times,serif" font-size="14.00" fill="#f5a70a"> •</text>
<text text-anchor="start" x="643.5" y="-373.8" font-family="Times,serif" font-size="14.00" fill="#0a5040"> *</text>
<text text-anchor="start" x="654.5" y="-373.8" font-family="Times,serif" font-size="14.00" fill="#bc1f29"> F</text>
</a>
</g>
</g>
<!-- state_8&#45;&gt;state_11 -->
<g id="trans_14" class="edge">
<title>state_8&#45;&gt;state_11</title>
<path fill="none" stroke="#b8860b" stroke-width="1.5" d="M403.1083,-212.9274C404.4768,-215.6215 405.7799,-218.3174 407,-221 440.0852,-293.743 392.6778,-345.2509 456,-394 486.9143,-417.7996 531.027,-418.1571 566.9042,-412.7662"/>
<polygon fill="#b8860b" stroke="#b8860b" stroke-width="1.5" points="567.5043,-416.2145 576.7872,-411.108 566.3459,-409.311 567.5043,-416.2145"/>
<text text-anchor="start" x="425" y="-378.8" font-family="Times,serif" font-size="14.00" fill="#bc1f29"> T</text>
</g>
<!-- state_9 -->
<g id="state_9" class="node">
<title>state_9</title>
<path fill="#fffff0" stroke="#b8860b" stroke-width="1.5" d="M943,-390.5C943,-390.5 867,-390.5 867,-390.5 861,-390.5 855,-384.5 855,-378.5 855,-378.5 855,-303.5 855,-303.5 855,-297.5 861,-291.5 867,-291.5 867,-291.5 943,-291.5 943,-291.5 949,-291.5 955,-297.5 955,-303.5 955,-303.5 955,-378.5 955,-378.5 955,-384.5 949,-390.5 943,-390.5"/>
<g id="a_state_9_title"><a xlink:href="#" xlink:title="state_9_title">
<text text-anchor="start" x="882" y="-369.6" font-family="Calibri" font-weight="bold" font-size="13.00" fill="#8b4513">Estado </text>
<text text-anchor="start" x="921" y="-369.6" font-family="Calibri" font-weight="bold" font-size="13.00" fill="#8b4513">9</text>
</a>
</g>
<g id="a_state_9_item_1"><a xlink:href="#" xlink:title="state_9_item_1">
<text text-anchor="start" x="866" y="-348.8" font-family="Times,serif" font-size="14.00" fill="#bc1f29">T </text>
<text text-anchor="start" x="879" y="-348.8" font-family="Times,serif" font-size="14.00" fill="#0a5040">→ </text>
<text text-anchor="start" x="898" y="-348.8" font-family="Times,serif" font-size="14.00" fill="#bc1f29"> T</text>
<text text-anchor="start" x="911" y="-348.8" font-family="Times,serif" font-size="14.00" fill="#0a5040"> *</text>
<text text-anchor="start" x="922" y="-348.8" font-family="Times,serif" font-size="14.00" fill="#f5a70a"> •</text>
<text text-anchor="start" x="932" y="-348.8" font-family="Times,serif" font-size="14.00" fill="#bc1f29"> F</text>
</a>
</g>
<g id="a_state_9_item_2"><a xlink:href="#" xlink:title="state_9_item_2">
<text text-anchor="start" x="866" y="-327.8" font-family="Times,serif" font-size="14.00" fill="#bc1f29">F </text>
<text text-anchor="start" x="878" y="-327.8" font-family="Times,serif" font-size="14.00" fill="#0a5040">→ </text>
<text text-anchor="start" x="897" y="-327.8" font-family="Times,serif" font-size="14.00" fill="#f5a70a"> •</text>
<text text-anchor="start" x="907" y="-327.8" font-family="Times,serif" font-size="14.00" fill="#0a5040"> ( </text>
<text text-anchor="start" x="920" y="-327.8" font-family="Times,serif" font-size="14.00" fill="#bc1f29"> E</text>
<text text-anchor="start" x="933" y="-327.8" font-family="Times,serif" font-size="14.00" fill="#0a5040"> )</text>
</a>
</g>
<g id="a_state_9_item_3"><a xlink:href="#" xlink:title="state_9_item_3">
<text text-anchor="start" x="866" y="-306.8" font-family="Times,serif" font-size="14.00" fill="#bc1f29">F </text>
<text text-anchor="start" x="878" y="-306.8" font-family="Times,serif" font-size="14.00" fill="#0a5040">→ </text>
<text text-anchor="start" x="897" y="-306.8" font-family="Times,serif" font-size="14.00" fill="#f5a70a"> •</text>
<text text-anchor="start" x="907" y="-306.8" font-family="Times,serif" font-size="14.00" fill="#0a5040"> id</text>
</a>
</g>
</g>
<!-- state_9&#45;&gt;state_5 -->
<g id="trans_19" class="edge">
<title>state_9&#45;&gt;state_5</title>
<path fill="none" stroke="#b8860b" stroke-width="1.5" d="M854.7962,-312.5844C838.1499,-304.3384 819.2119,-296.1717 801,-291 723.0716,-268.8705 629.4524,-262.251 569.2469,-260.4244"/>
<polygon fill="#b8860b" stroke="#b8860b" stroke-width="1.5" points="569.2332,-256.9229 559.143,-260.1534 569.0455,-263.9204 569.2332,-256.9229"/>
<text text-anchor="start" x="743" y="-294.8" font-family="Times,serif" font-size="14.00" fill="#0a5040"> ( </text>
</g>
<!-- state_9&#45;&gt;state_6 -->
<g id="trans_20" class="edge">
<title>state_9&#45;&gt;state_6</title>
<path fill="none" stroke="#b8860b" stroke-width="1.5" d="M955.4266,-312.9143C973.1151,-303.0625 993.0123,-291.9805 1010.84,-282.0512"/>
<polygon fill="#b8860b" stroke="#b8860b" stroke-width="1.5" points="1012.9181,-284.9 1019.9514,-276.9764 1009.512,-278.7846 1012.9181,-284.9"/>
<text text-anchor="start" x="976" y="-302.8" font-family="Times,serif" font-size="14.00" fill="#0a5040"> id</text>
</g>
<!-- state_12 -->
<g id="state_12" class="node">
<title>state_12</title>
<path fill="#fffff0" stroke="#b8860b" stroke-width="1.5" d="M1101,-369.5C1101,-369.5 1025,-369.5 1025,-369.5 1019,-369.5 1013,-363.5 1013,-357.5 1013,-357.5 1013,-324.5 1013,-324.5 1013,-318.5 1019,-312.5 1025,-312.5 1025,-312.5 1101,-312.5 1101,-312.5 1107,-312.5 1113,-318.5 1113,-324.5 1113,-324.5 1113,-357.5 1113,-357.5 1113,-363.5 1107,-369.5 1101,-369.5"/>
<path fill="none" stroke="#b8860b" stroke-width="1.5" d="M1105,-373.5C1105,-373.5 1021,-373.5 1021,-373.5 1015,-373.5 1009,-367.5 1009,-361.5 1009,-361.5 1009,-320.5 1009,-320.5 1009,-314.5 1015,-308.5 1021,-308.5 1021,-308.5 1105,-308.5 1105,-308.5 1111,-308.5 1117,-314.5 1117,-320.5 1117,-320.5 1117,-361.5 1117,-361.5 1117,-367.5 1111,-373.5 1105,-373.5"/>
<g id="a_state_12_title"><a xlink:href="#" xlink:title="state_12_title">
<text text-anchor="start" x="1036.5" y="-348.6" font-family="Calibri" font-weight="bold" font-size="13.00" fill="#8b4513">Estado </text>
<text text-anchor="start" x="1075.5" y="-348.6" font-family="Calibri" font-weight="bold" font-size="13.00" fill="#8b4513">12</text>
</a>
</g>
<g id="a_state_12_item_1"><a xlink:href="#" xlink:title="state_12_item_1">
<text text-anchor="start" x="1024" y="-327.8" font-family="Times,serif" font-size="14.00" fill="#bc1f29">T </text>
<text text-anchor="start" x="1037" y="-327.8" font-family="Times,serif" font-size="14.00" fill="#0a5040">→ </text>
<text text-anchor="start" x="1056" y="-327.8" font-family="Times,serif" font-size="14.00" fill="#bc1f29"> T</text>
<text text-anchor="start" x="1069" y="-327.8" font-family="Times,serif" font-size="14.00" fill="#0a5040"> *</text>
<text text-anchor="start" x="1080" y="-327.8" font-family="Times,serif" font-size="14.00" fill="#bc1f29"> F</text>
<text text-anchor="start" x="1092" y="-327.8" font-family="Times,serif" font-size="14.00" fill="#f5a70a"> •</text>
</a>
</g>
</g>
<!-- state_9&#45;&gt;state_12 -->
<g id="trans_18" class="edge">
<title>state_9&#45;&gt;state_12</title>
<path fill="none" stroke="#b8860b" stroke-width="1.5" d="M955.4266,-341C969.1618,-341 984.2288,-341 998.6245,-341"/>
<polygon fill="#b8860b" stroke="#b8860b" stroke-width="1.5" points="998.9595,-344.5001 1008.9595,-341 998.9594,-337.5001 998.9595,-344.5001"/>
<text text-anchor="start" x="977.5" y="-344.8" font-family="Times,serif" font-size="14.00" fill="#bc1f29"> F</text>
</g>
<!-- state_10&#45;&gt;state_8 -->
<g id="trans_21" class="edge">
<title>state_10&#45;&gt;state_8</title>
<path fill="none" stroke="#b8860b" stroke-width="1.5" d="M697.7458,-87.3695C638.8525,-91.7289 539.9503,-100.6474 456,-116 443.2148,-118.3381 429.6574,-121.4222 416.7775,-124.6465"/>
<polygon fill="#b8860b" stroke="#b8860b" stroke-width="1.5" points="415.9029,-121.2574 407.0842,-127.1294 417.6399,-128.0385 415.9029,-121.2574"/>
<text text-anchor="start" x="501" y="-119.8" font-family="Times,serif" font-size="14.00" fill="#0a5040"> +</text>
</g>
<!-- state_13 -->
<g id="state_13" class="node">
<title>state_13</title>
<path fill="#fffff0" stroke="#b8860b" stroke-width="1.5" d="M942,-112.5C942,-112.5 868,-112.5 868,-112.5 862,-112.5 856,-106.5 856,-100.5 856,-100.5 856,-67.5 856,-67.5 856,-61.5 862,-55.5 868,-55.5 868,-55.5 942,-55.5 942,-55.5 948,-55.5 954,-61.5 954,-67.5 954,-67.5 954,-100.5 954,-100.5 954,-106.5 948,-112.5 942,-112.5"/>
<path fill="none" stroke="#b8860b" stroke-width="1.5" d="M946,-116.5C946,-116.5 864,-116.5 864,-116.5 858,-116.5 852,-110.5 852,-104.5 852,-104.5 852,-63.5 852,-63.5 852,-57.5 858,-51.5 864,-51.5 864,-51.5 946,-51.5 946,-51.5 952,-51.5 958,-57.5 958,-63.5 958,-63.5 958,-104.5 958,-104.5 958,-110.5 952,-116.5 946,-116.5"/>
<g id="a_state_13_title"><a xlink:href="#" xlink:title="state_13_title">
<text text-anchor="start" x="878.5" y="-91.6" font-family="Calibri" font-weight="bold" font-size="13.00" fill="#8b4513">Estado </text>
<text text-anchor="start" x="917.5" y="-91.6" font-family="Calibri" font-weight="bold" font-size="13.00" fill="#8b4513">13</text>
</a>
</g>
<g id="a_state_13_item_1"><a xlink:href="#" xlink:title="state_13_item_1">
<text text-anchor="start" x="867" y="-70.8" font-family="Times,serif" font-size="14.00" fill="#bc1f29">F </text>
<text text-anchor="start" x="879" y="-70.8" font-family="Times,serif" font-size="14.00" fill="#0a5040">→ </text>
<text text-anchor="start" x="898" y="-70.8" font-family="Times,serif" font-size="14.00" fill="#0a5040"> ( </text>
<text text-anchor="start" x="911" y="-70.8" font-family="Times,serif" font-size="14.00" fill="#bc1f29"> E</text>
<text text-anchor="start" x="924" y="-70.8" font-family="Times,serif" font-size="14.00" fill="#0a5040"> )</text>
<text text-anchor="start" x="933" y="-70.8" font-family="Times,serif" font-size="14.00" fill="#f5a70a"> •</text>
</a>
</g>
</g>
<!-- state_10&#45;&gt;state_13 -->
<g id="trans_22" class="edge">
<title>state_10&#45;&gt;state_13</title>
<path fill="none" stroke="#b8860b" stroke-width="1.5" d="M801.2792,-84C814.2335,-84 828.2745,-84 841.7174,-84"/>
<polygon fill="#b8860b" stroke="#b8860b" stroke-width="1.5" points="841.8528,-87.5001 851.8527,-84 841.8527,-80.5001 841.8528,-87.5001"/>
<text text-anchor="start" x="822" y="-87.8" font-family="Times,serif" font-size="14.00" fill="#0a5040"> )</text>
</g>
<!-- state_3&#45;&gt;state_9 -->
<g id="trans_8" class="edge">
<title>state_3&#45;&gt;state_9</title>
<path fill="none" stroke="#b8860b" stroke-width="1.5" d="M799.5571,-349.8152C813.9124,-348.615 829.7166,-347.2938 844.6228,-346.0476"/>
<polygon fill="#b8860b" stroke="#b8860b" stroke-width="1.5" points="845.0966,-349.5203 854.7703,-345.1993 844.5134,-342.5446 845.0966,-349.5203"/>
<text text-anchor="start" x="821" y="-350.8" font-family="Times,serif" font-size="14.00" fill="#0a5040"> *</text>
</g>
<!-- state_11&#45;&gt;state_9 -->
<g id="trans_23" class="edge">
<title>state_11&#45;&gt;state_9</title>
<path fill="none" stroke="#b8860b" stroke-width="1.5" d="M680.3725,-406.2591C715.1121,-410.5868 761.534,-412.7202 801,-402 816.3277,-397.8365 831.7059,-390.7821 845.7581,-382.9162"/>
<polygon fill="#b8860b" stroke="#b8860b" stroke-width="1.5" points="847.9109,-385.7126 854.7871,-377.6522 844.3852,-379.6652 847.9109,-385.7126"/>
<text text-anchor="start" x="744" y="-412.8" font-family="Times,serif" font-size="14.00" fill="#0a5040"> *</text>
</g>
</g>
</svg>
