<?xml version="1.0" encoding="UTF-8" standalone="no"?>
<!DOCTYPE svg PUBLIC "-//W3C//DTD SVG 1.1//EN"
 "http://www.w3.org/Graphics/SVG/1.1/DTD/svg11.dtd">
<!-- Generated by graphviz version 2.40.1 (20161225.0304)
 -->
<!-- Title: NFA Pages: 1 -->
<svg width="1119pt" height="363pt"
 viewBox="0.00 0.00 1119.00 363.00" xmlns="http://www.w3.org/2000/svg" xmlns:xlink="http://www.w3.org/1999/xlink">
<g id="graph0" class="graph" transform="scale(1 1) rotate(0) translate(4 359)">
<title>NFA</title>
<!-- state_10002 -->
<g id="state_10002" class="node">
<title>state_10002</title>
<path fill="#fffff0" stroke="#b8860b" stroke-width="1.5" d="M814,-274C814,-274 753,-274 753,-274 747,-274 741,-268 741,-262 741,-262 741,-235 741,-235 741,-229 747,-223 753,-223 753,-223 814,-223 814,-223 820,-223 826,-229 826,-235 826,-235 826,-262 826,-262 826,-268 820,-274 814,-274"/>
<g id="a_state_10002_title"><a xlink:href="#" xlink:title="state_10002_title">
<text text-anchor="start" x="761" y="-256.1" font-family="Calibri" font-weight="bold" font-size="13.00" fill="#8b4513">Estado </text>
<text text-anchor="start" x="800" y="-256.1" font-family="Calibri" font-weight="bold" font-size="13.00" fill="#8b4513">2</text>
</a>
</g>
<g id="a_state_10002_item_1"><a xlink:href="#" xlink:title="state_10002_item_1">
<text text-anchor="start" x="749.5" y="-235.3" font-family="Times,serif" font-size="14.00" fill="#bc1f29">List </text>
<text text-anchor="start" x="774.5" y="-235.3" font-family="Times,serif" font-size="14.00" fill="#0a5040">→ </text>
<text text-anchor="start" x="793.5" y="-235.3" font-family="Times,serif" font-size="14.00" fill="#f5a70a"> •</text>
<text text-anchor="start" x="803.5" y="-235.3" font-family="Times,serif" font-size="14.00" fill="#0a5040"> id</text>
</a>
</g>
</g>
<!-- state_10010 -->
<g id="state_10010" class="node">
<title>state_10010</title>
<path fill="#f5f5dc" stroke="#b8860b" stroke-width="1.5" d="M1048,-274C1048,-274 987,-274 987,-274 981,-274 975,-268 975,-262 975,-262 975,-235 975,-235 975,-229 981,-223 987,-223 987,-223 1048,-223 1048,-223 1054,-223 1060,-229 1060,-235 1060,-235 1060,-262 1060,-262 1060,-268 1054,-274 1048,-274"/>
<path fill="none" stroke="#b8860b" stroke-width="1.5" d="M1052,-278C1052,-278 983,-278 983,-278 977,-278 971,-272 971,-266 971,-266 971,-231 971,-231 971,-225 977,-219 983,-219 983,-219 1052,-219 1052,-219 1058,-219 1064,-225 1064,-231 1064,-231 1064,-266 1064,-266 1064,-272 1058,-278 1052,-278"/>
<g id="a_state_10010_title"><a xlink:href="#" xlink:title="state_10010_title">
<text text-anchor="start" x="991.5" y="-256.1" font-family="Calibri" font-weight="bold" font-size="13.00" fill="#8b4513">Estado </text>
<text text-anchor="start" x="1030.5" y="-256.1" font-family="Calibri" font-weight="bold" font-size="13.00" fill="#8b4513">10</text>
</a>
</g>
<g id="a_state_10010_item_1"><a xlink:href="#" xlink:title="state_10010_item_1">
<text text-anchor="start" x="983.5" y="-235.3" font-family="Times,serif" font-size="14.00" fill="#bc1f29">List </text>
<text text-anchor="start" x="1008.5" y="-235.3" font-family="Times,serif" font-size="14.00" fill="#0a5040">→ </text>
<text text-anchor="start" x="1027.5" y="-235.3" font-family="Times,serif" font-size="14.00" fill="#0a5040"> id</text>
<text text-anchor="start" x="1042.5" y="-235.3" font-family="Times,serif" font-size="14.00" fill="#f5a70a"> •</text>
</a>
</g>
</g>
<!-- state_10002&#45;&gt;state_10010 -->
<g id="trans_5" class="edge">
<title>state_10002&#45;&gt;state_10010</title>
<path fill="none" stroke="#b8860b" stroke-width="1.5" d="M826.1471,-248.5C863.8198,-248.5 919.0532,-248.5 960.5068,-248.5"/>
<polygon fill="#b8860b" stroke="#b8860b" stroke-width="1.5" points="960.7299,-252.0001 970.7298,-248.5 960.7298,-245.0001 960.7299,-252.0001"/>
<text text-anchor="start" x="891" y="-252.3" font-family="Times,serif" font-size="14.00" fill="#0a5040"> id</text>
</g>
<!-- state_10005 -->
<g id="state_10005" class="node">
<title>state_10005</title>
<path fill="#fffff0" stroke="#b8860b" stroke-width="1.5" d="M302,-111C302,-111 217,-111 217,-111 211,-111 205,-105 205,-99 205,-99 205,-72 205,-72 205,-66 211,-60 217,-60 217,-60 302,-60 302,-60 308,-60 314,-66 314,-72 314,-72 314,-99 314,-99 314,-105 308,-111 302,-111"/>
<g id="a_state_10005_title"><a xlink:href="#" xlink:title="state_10005_title">
<text text-anchor="start" x="237" y="-93.1" font-family="Calibri" font-weight="bold" font-size="13.00" fill="#8b4513">Estado </text>
<text text-anchor="start" x="276" y="-93.1" font-family="Calibri" font-weight="bold" font-size="13.00" fill="#8b4513">5</text>
</a>
</g>
<g id="a_state_10005_item_1"><a xlink:href="#" xlink:title="state_10005_item_1">
<text text-anchor="start" x="213.5" y="-72.3" font-family="Times,serif" font-size="14.00" fill="#bc1f29">List&#39; </text>
<text text-anchor="start" x="241.5" y="-72.3" font-family="Times,serif" font-size="14.00" fill="#0a5040">→ </text>
<text text-anchor="start" x="260.5" y="-72.3" font-family="Times,serif" font-size="14.00" fill="#bc1f29"> List</text>
<text text-anchor="start" x="285.5" y="-72.3" font-family="Times,serif" font-size="14.00" fill="#f5a70a"> •</text>
<text text-anchor="start" x="295.5" y="-72.3" font-family="Times,serif" font-size="14.00" fill="#0a5040"> $</text>
</a>
</g>
</g>
<!-- state_10012 -->
<g id="state_10012" class="node">
<title>state_10012</title>
<path fill="#f5f5dc" stroke="#b8860b" stroke-width="1.5" d="M542,-75C542,-75 457,-75 457,-75 451,-75 445,-69 445,-63 445,-63 445,-36 445,-36 445,-30 451,-24 457,-24 457,-24 542,-24 542,-24 548,-24 554,-30 554,-36 554,-36 554,-63 554,-63 554,-69 548,-75 542,-75"/>
<path fill="none" stroke="#b8860b" stroke-width="1.5" d="M546,-79C546,-79 453,-79 453,-79 447,-79 441,-73 441,-67 441,-67 441,-32 441,-32 441,-26 447,-20 453,-20 453,-20 546,-20 546,-20 552,-20 558,-26 558,-32 558,-32 558,-67 558,-67 558,-73 552,-79 546,-79"/>
<g id="a_state_10012_title"><a xlink:href="#" xlink:title="state_10012_title">
<text text-anchor="start" x="473.5" y="-57.1" font-family="Calibri" font-weight="bold" font-size="13.00" fill="#8b4513">Estado </text>
<text text-anchor="start" x="512.5" y="-57.1" font-family="Calibri" font-weight="bold" font-size="13.00" fill="#8b4513">12</text>
</a>
</g>
<g id="a_state_10012_item_1"><a xlink:href="#" xlink:title="state_10012_item_1">
<text text-anchor="start" x="453.5" y="-36.3" font-family="Times,serif" font-size="14.00" fill="#bc1f29">List&#39; </text>
<text text-anchor="start" x="481.5" y="-36.3" font-family="Times,serif" font-size="14.00" fill="#0a5040">→ </text>
<text text-anchor="start" x="500.5" y="-36.3" font-family="Times,serif" font-size="14.00" fill="#bc1f29"> List</text>
<text text-anchor="start" x="525.5" y="-36.3" font-family="Times,serif" font-size="14.00" fill="#0a5040"> $</text>
<text text-anchor="start" x="536.5" y="-36.3" font-family="Times,serif" font-size="14.00" fill="#f5a70a"> •</text>
</a>
</g>
</g>
<!-- state_10005&#45;&gt;state_10012 -->
<g id="trans_14" class="edge">
<title>state_10005&#45;&gt;state_10012</title>
<path fill="none" stroke="#b8860b" stroke-width="1.5" d="M314.26,-77.286C348.783,-72.1076 393.6562,-65.3766 430.5901,-59.8365"/>
<polygon fill="#b8860b" stroke="#b8860b" stroke-width="1.5" points="431.4115,-63.2525 440.7816,-58.3078 430.373,-56.33 431.4115,-63.2525"/>
<text text-anchor="start" x="374" y="-73.3" font-family="Times,serif" font-size="14.00" fill="#0a5040"> $</text>
</g>
<!-- state_10007 -->
<g id="state_10007" class="node">
<title>state_10007</title>
<path fill="#fffff0" stroke="#b8860b" stroke-width="1.5" d="M823,-347C823,-347 744,-347 744,-347 738,-347 732,-341 732,-335 732,-335 732,-308 732,-308 732,-302 738,-296 744,-296 744,-296 823,-296 823,-296 829,-296 835,-302 835,-308 835,-308 835,-335 835,-335 835,-341 829,-347 823,-347"/>
<g id="a_state_10007_title"><a xlink:href="#" xlink:title="state_10007_title">
<text text-anchor="start" x="761" y="-329.1" font-family="Calibri" font-weight="bold" font-size="13.00" fill="#8b4513">Estado </text>
<text text-anchor="start" x="800" y="-329.1" font-family="Calibri" font-weight="bold" font-size="13.00" fill="#8b4513">7</text>
</a>
</g>
<g id="a_state_10007_item_1"><a xlink:href="#" xlink:title="state_10007_item_1">
<text text-anchor="start" x="740.5" y="-308.3" font-family="Times,serif" font-size="14.00" fill="#bc1f29">List </text>
<text text-anchor="start" x="765.5" y="-308.3" font-family="Times,serif" font-size="14.00" fill="#0a5040">→ </text>
<text text-anchor="start" x="784.5" y="-308.3" font-family="Times,serif" font-size="14.00" fill="#bc1f29"> List</text>
<text text-anchor="start" x="809.5" y="-308.3" font-family="Times,serif" font-size="14.00" fill="#f5a70a"> •</text>
<text text-anchor="start" x="819.5" y="-308.3" font-family="Times,serif" font-size="14.00" fill="#0a5040"> ,</text>
</a>
</g>
</g>
<!-- state_10013 -->
<g id="state_10013" class="node">
<title>state_10013</title>
<path fill="#f5f5dc" stroke="#b8860b" stroke-width="1.5" d="M1057,-351C1057,-351 978,-351 978,-351 972,-351 966,-345 966,-339 966,-339 966,-312 966,-312 966,-306 972,-300 978,-300 978,-300 1057,-300 1057,-300 1063,-300 1069,-306 1069,-312 1069,-312 1069,-339 1069,-339 1069,-345 1063,-351 1057,-351"/>
<path fill="none" stroke="#b8860b" stroke-width="1.5" d="M1061,-355C1061,-355 974,-355 974,-355 968,-355 962,-349 962,-343 962,-343 962,-308 962,-308 962,-302 968,-296 974,-296 974,-296 1061,-296 1061,-296 1067,-296 1073,-302 1073,-308 1073,-308 1073,-343 1073,-343 1073,-349 1067,-355 1061,-355"/>
<g id="a_state_10013_title"><a xlink:href="#" xlink:title="state_10013_title">
<text text-anchor="start" x="991.5" y="-333.1" font-family="Calibri" font-weight="bold" font-size="13.00" fill="#8b4513">Estado </text>
<text text-anchor="start" x="1030.5" y="-333.1" font-family="Calibri" font-weight="bold" font-size="13.00" fill="#8b4513">13</text>
</a>
</g>
<g id="a_state_10013_item_1"><a xlink:href="#" xlink:title="state_10013_item_1">
<text text-anchor="start" x="974.5" y="-312.3" font-family="Times,serif" font-size="14.00" fill="#bc1f29">List </text>
<text text-anchor="start" x="999.5" y="-312.3" font-family="Times,serif" font-size="14.00" fill="#0a5040">→ </text>
<text text-anchor="start" x="1018.5" y="-312.3" font-family="Times,serif" font-size="14.00" fill="#bc1f29"> List</text>
<text text-anchor="start" x="1043.5" y="-312.3" font-family="Times,serif" font-size="14.00" fill="#0a5040"> ,</text>
<text text-anchor="start" x="1051.5" y="-312.3" font-family="Times,serif" font-size="14.00" fill="#f5a70a"> •</text>
</a>
</g>
</g>
<!-- state_10007&#45;&gt;state_10013 -->
<g id="trans_18" class="edge">
<title>state_10007&#45;&gt;state_10013</title>
<path fill="none" stroke="#b8860b" stroke-width="1.5" d="M835.142,-322.3828C869.4658,-322.9695 914.8391,-323.7451 951.7389,-324.3759"/>
<polygon fill="#b8860b" stroke="#b8860b" stroke-width="1.5" points="951.8472,-327.8781 961.9056,-324.5497 951.9669,-320.8792 951.8472,-327.8781"/>
<text text-anchor="start" x="894.5" y="-327.3" font-family="Times,serif" font-size="14.00" fill="#0a5040"> ,</text>
</g>
<!-- state_10008 -->
<g id="state_10008" class="node">
<title>state_10008</title>
<path fill="#fffff0" stroke="#b8860b" stroke-width="1.5" d="M832.5,-197C832.5,-197 734.5,-197 734.5,-197 728.5,-197 722.5,-191 722.5,-185 722.5,-185 722.5,-158 722.5,-158 722.5,-152 728.5,-146 734.5,-146 734.5,-146 832.5,-146 832.5,-146 838.5,-146 844.5,-152 844.5,-158 844.5,-158 844.5,-185 844.5,-185 844.5,-191 838.5,-197 832.5,-197"/>
<g id="a_state_10008_title"><a xlink:href="#" xlink:title="state_10008_title">
<text text-anchor="start" x="760.5" y="-179.1" font-family="Calibri" font-weight="bold" font-size="13.00" fill="#8b4513">Estado </text>
<text text-anchor="start" x="799.5" y="-179.1" font-family="Calibri" font-weight="bold" font-size="13.00" fill="#8b4513">8</text>
</a>
</g>
<g id="a_state_10008_item_1"><a xlink:href="#" xlink:title="state_10008_item_1">
<text text-anchor="start" x="730.5" y="-158.3" font-family="Times,serif" font-size="14.00" fill="#bc1f29">OptComma </text>
<text text-anchor="start" x="799.5" y="-158.3" font-family="Times,serif" font-size="14.00" fill="#0a5040">→ </text>
<text text-anchor="start" x="818.5" y="-158.3" font-family="Times,serif" font-size="14.00" fill="#f5a70a"> •</text>
<text text-anchor="start" x="828.5" y="-158.3" font-family="Times,serif" font-size="14.00" fill="#0a5040"> ,</text>
</a>
</g>
</g>
<!-- state_10014 -->
<g id="state_10014" class="node">
<title>state_10014</title>
<path fill="#f5f5dc" stroke="#b8860b" stroke-width="1.5" d="M1066.5,-197C1066.5,-197 968.5,-197 968.5,-197 962.5,-197 956.5,-191 956.5,-185 956.5,-185 956.5,-158 956.5,-158 956.5,-152 962.5,-146 968.5,-146 968.5,-146 1066.5,-146 1066.5,-146 1072.5,-146 1078.5,-152 1078.5,-158 1078.5,-158 1078.5,-185 1078.5,-185 1078.5,-191 1072.5,-197 1066.5,-197"/>
<path fill="none" stroke="#b8860b" stroke-width="1.5" d="M1070.5,-201C1070.5,-201 964.5,-201 964.5,-201 958.5,-201 952.5,-195 952.5,-189 952.5,-189 952.5,-154 952.5,-154 952.5,-148 958.5,-142 964.5,-142 964.5,-142 1070.5,-142 1070.5,-142 1076.5,-142 1082.5,-148 1082.5,-154 1082.5,-154 1082.5,-189 1082.5,-189 1082.5,-195 1076.5,-201 1070.5,-201"/>
<g id="a_state_10014_title"><a xlink:href="#" xlink:title="state_10014_title">
<text text-anchor="start" x="991" y="-179.1" font-family="Calibri" font-weight="bold" font-size="13.00" fill="#8b4513">Estado </text>
<text text-anchor="start" x="1030" y="-179.1" font-family="Calibri" font-weight="bold" font-size="13.00" fill="#8b4513">14</text>
</a>
</g>
<g id="a_state_10014_item_1"><a xlink:href="#" xlink:title="state_10014_item_1">
<text text-anchor="start" x="964.5" y="-158.3" font-family="Times,serif" font-size="14.00" fill="#bc1f29">OptComma </text>
<text text-anchor="start" x="1033.5" y="-158.3" font-family="Times,serif" font-size="14.00" fill="#0a5040">→ </text>
<text text-anchor="start" x="1052.5" y="-158.3" font-family="Times,serif" font-size="14.00" fill="#0a5040"> ,</text>
<text text-anchor="start" x="1060.5" y="-158.3" font-family="Times,serif" font-size="14.00" fill="#f5a70a"> •</text>
</a>
</g>
</g>
<!-- state_10008&#45;&gt;state_10014 -->
<g id="trans_19" class="edge">
<title>state_10008&#45;&gt;state_10014</title>
<path fill="none" stroke="#b8860b" stroke-width="1.5" d="M844.6751,-171.5C874.4895,-171.5 910.6209,-171.5 942.1231,-171.5"/>
<polygon fill="#b8860b" stroke="#b8860b" stroke-width="1.5" points="942.1746,-175.0001 952.1746,-171.5 942.1745,-168.0001 942.1746,-175.0001"/>
<text text-anchor="start" x="894.5" y="-175.3" font-family="Times,serif" font-size="14.00" fill="#0a5040"> ,</text>
</g>
<!-- state_10011 -->
<g id="state_10011" class="node">
<title>state_10011</title>
<path fill="#fffff0" stroke="#b8860b" stroke-width="1.5" d="M861,-128C861,-128 706,-128 706,-128 700,-128 694,-122 694,-116 694,-116 694,-89 694,-89 694,-83 700,-77 706,-77 706,-77 861,-77 861,-77 867,-77 873,-83 873,-89 873,-89 873,-116 873,-116 873,-122 867,-128 861,-128"/>
<g id="a_state_10011_title"><a xlink:href="#" xlink:title="state_10011_title">
<text text-anchor="start" x="757.5" y="-110.1" font-family="Calibri" font-weight="bold" font-size="13.00" fill="#8b4513">Estado </text>
<text text-anchor="start" x="796.5" y="-110.1" font-family="Calibri" font-weight="bold" font-size="13.00" fill="#8b4513">11</text>
</a>
</g>
<g id="a_state_10011_item_1"><a xlink:href="#" xlink:title="state_10011_item_1">
<text text-anchor="start" x="702.5" y="-89.3" font-family="Times,serif" font-size="14.00" fill="#bc1f29">List </text>
<text text-anchor="start" x="727.5" y="-89.3" font-family="Times,serif" font-size="14.00" fill="#0a5040">→ </text>
<text text-anchor="start" x="746.5" y="-89.3" font-family="Times,serif" font-size="14.00" fill="#bc1f29"> List</text>
<text text-anchor="start" x="771.5" y="-89.3" font-family="Times,serif" font-size="14.00" fill="#bc1f29"> OptComma</text>
<text text-anchor="start" x="840.5" y="-89.3" font-family="Times,serif" font-size="14.00" fill="#f5a70a"> •</text>
<text text-anchor="start" x="850.5" y="-89.3" font-family="Times,serif" font-size="14.00" fill="#0a5040"> id</text>
</a>
</g>
</g>
<!-- state_10015 -->
<g id="state_10015" class="node">
<title>state_10015</title>
<path fill="#f5f5dc" stroke="#b8860b" stroke-width="1.5" d="M1095,-120C1095,-120 940,-120 940,-120 934,-120 928,-114 928,-108 928,-108 928,-81 928,-81 928,-75 934,-69 940,-69 940,-69 1095,-69 1095,-69 1101,-69 1107,-75 1107,-81 1107,-81 1107,-108 1107,-108 1107,-114 1101,-120 1095,-120"/>
<path fill="none" stroke="#b8860b" stroke-width="1.5" d="M1099,-124C1099,-124 936,-124 936,-124 930,-124 924,-118 924,-112 924,-112 924,-77 924,-77 924,-71 930,-65 936,-65 936,-65 1099,-65 1099,-65 1105,-65 1111,-71 1111,-77 1111,-77 1111,-112 1111,-112 1111,-118 1105,-124 1099,-124"/>
<g id="a_state_10015_title"><a xlink:href="#" xlink:title="state_10015_title">
<text text-anchor="start" x="991.5" y="-102.1" font-family="Calibri" font-weight="bold" font-size="13.00" fill="#8b4513">Estado </text>
<text text-anchor="start" x="1030.5" y="-102.1" font-family="Calibri" font-weight="bold" font-size="13.00" fill="#8b4513">15</text>
</a>
</g>
<g id="a_state_10015_item_1"><a xlink:href="#" xlink:title="state_10015_item_1">
<text text-anchor="start" x="936.5" y="-81.3" font-family="Times,serif" font-size="14.00" fill="#bc1f29">List </text>
<text text-anchor="start" x="961.5" y="-81.3" font-family="Times,serif" font-size="14.00" fill="#0a5040">→ </text>
<text text-anchor="start" x="980.5" y="-81.3" font-family="Times,serif" font-size="14.00" fill="#bc1f29"> List</text>
<text text-anchor="start" x="1005.5" y="-81.3" font-family="Times,serif" font-size="14.00" fill="#bc1f29"> OptComma</text>
<text text-anchor="start" x="1074.5" y="-81.3" font-family="Times,serif" font-size="14.00" fill="#0a5040"> id</text>
<text text-anchor="start" x="1089.5" y="-81.3" font-family="Times,serif" font-size="14.00" fill="#f5a70a"> •</text>
</a>
</g>
</g>
<!-- state_10011&#45;&gt;state_10015 -->
<g id="trans_20" class="edge">
<title>state_10011&#45;&gt;state_10015</title>
<path fill="none" stroke="#b8860b" stroke-width="1.5" d="M873.3013,-99.4299C886.4476,-98.9804 900.0789,-98.5144 913.4802,-98.0562"/>
<polygon fill="#b8860b" stroke="#b8860b" stroke-width="1.5" points="913.797,-101.5475 923.6715,-97.7078 913.5578,-94.5516 913.797,-101.5475"/>
<text text-anchor="start" x="891" y="-103.3" font-family="Times,serif" font-size="14.00" fill="#0a5040"> id</text>
</g>
<!-- state_10001 -->
<g id="state_10001" class="node">
<title>state_10001</title>
<path fill="#fffff0" stroke="#b8860b" stroke-width="1.5" d="M97,-287C97,-287 12,-287 12,-287 6,-287 0,-281 0,-275 0,-275 0,-248 0,-248 0,-242 6,-236 12,-236 12,-236 97,-236 97,-236 103,-236 109,-242 109,-248 109,-248 109,-275 109,-275 109,-281 103,-287 97,-287"/>
<g id="a_state_10001_title"><a xlink:href="#" xlink:title="state_10001_title">
<text text-anchor="start" x="32" y="-269.1" font-family="Calibri" font-weight="bold" font-size="13.00" fill="#8b4513">Estado </text>
<text text-anchor="start" x="71" y="-269.1" font-family="Calibri" font-weight="bold" font-size="13.00" fill="#8b4513">1</text>
</a>
</g>
<g id="a_state_10001_item_1"><a xlink:href="#" xlink:title="state_10001_item_1">
<text text-anchor="start" x="8.5" y="-248.3" font-family="Times,serif" font-size="14.00" fill="#bc1f29">List&#39; </text>
<text text-anchor="start" x="36.5" y="-248.3" font-family="Times,serif" font-size="14.00" fill="#0a5040">→ </text>
<text text-anchor="start" x="55.5" y="-248.3" font-family="Times,serif" font-size="14.00" fill="#f5a70a"> •</text>
<text text-anchor="start" x="65.5" y="-248.3" font-family="Times,serif" font-size="14.00" fill="#bc1f29"> List</text>
<text text-anchor="start" x="90.5" y="-248.3" font-family="Times,serif" font-size="14.00" fill="#0a5040"> $</text>
</a>
</g>
</g>
<!-- state_10001&#45;&gt;state_10002 -->
<g id="trans_2" class="edge">
<title>state_10001&#45;&gt;state_10002</title>
<path fill="none" stroke="#b8860b" stroke-width="1.5" d="M109.0806,-272.3239C115.1197,-273.4368 121.1855,-274.518 127,-275.5 252.3161,-296.6652 283.2378,-307.3653 410,-316.5 489.3498,-322.2181 509.4654,-318.3274 589,-316.5 627.6973,-315.6109 641.9636,-330.9336 676,-312.5 688.0392,-305.9797 683.3441,-296.097 694,-287.5 705.0396,-278.5935 718.426,-271.3424 731.445,-265.6161"/>
<polygon fill="#b8860b" stroke="#b8860b" stroke-width="1.5" points="732.9335,-268.7877 740.8212,-261.7141 730.2439,-262.325 732.9335,-268.7877"/>
<text text-anchor="start" x="374" y="-318.3" font-family="Times,serif" font-size="14.00" fill="#0a5040"> ε</text>
</g>
<!-- state_10001&#45;&gt;state_10005 -->
<g id="trans_1" class="edge">
<title>state_10001&#45;&gt;state_10005</title>
<path fill="none" stroke="#b8860b" stroke-width="1.5" d="M81.5739,-235.9385C104.6914,-214.3437 139.0206,-182.8183 170,-156.5 185.3044,-143.4983 202.503,-129.6748 217.7034,-117.7135"/>
<polygon fill="#b8860b" stroke="#b8860b" stroke-width="1.5" points="220.2051,-120.1997 225.9177,-111.2769 215.8876,-114.6898 220.2051,-120.1997"/>
<text text-anchor="start" x="127" y="-196.3" font-family="Times,serif" font-size="14.00" fill="#bc1f29"> List</text>
</g>
<!-- state_10003 -->
<g id="state_10003" class="node">
<title>state_10003</title>
<path fill="#fffff0" stroke="#b8860b" stroke-width="1.5" d="M337,-216C337,-216 182,-216 182,-216 176,-216 170,-210 170,-204 170,-204 170,-177 170,-177 170,-171 176,-165 182,-165 182,-165 337,-165 337,-165 343,-165 349,-171 349,-177 349,-177 349,-204 349,-204 349,-210 343,-216 337,-216"/>
<g id="a_state_10003_title"><a xlink:href="#" xlink:title="state_10003_title">
<text text-anchor="start" x="237" y="-198.1" font-family="Calibri" font-weight="bold" font-size="13.00" fill="#8b4513">Estado </text>
<text text-anchor="start" x="276" y="-198.1" font-family="Calibri" font-weight="bold" font-size="13.00" fill="#8b4513">3</text>
</a>
</g>
<g id="a_state_10003_item_1"><a xlink:href="#" xlink:title="state_10003_item_1">
<text text-anchor="start" x="178.5" y="-177.3" font-family="Times,serif" font-size="14.00" fill="#bc1f29">List </text>
<text text-anchor="start" x="203.5" y="-177.3" font-family="Times,serif" font-size="14.00" fill="#0a5040">→ </text>
<text text-anchor="start" x="222.5" y="-177.3" font-family="Times,serif" font-size="14.00" fill="#f5a70a"> •</text>
<text text-anchor="start" x="232.5" y="-177.3" font-family="Times,serif" font-size="14.00" fill="#bc1f29"> List</text>
<text text-anchor="start" x="257.5" y="-177.3" font-family="Times,serif" font-size="14.00" fill="#bc1f29"> OptComma</text>
<text text-anchor="start" x="326.5" y="-177.3" font-family="Times,serif" font-size="14.00" fill="#0a5040"> id</text>
</a>
</g>
</g>
<!-- state_10001&#45;&gt;state_10003 -->
<g id="trans_3" class="edge">
<title>state_10001&#45;&gt;state_10003</title>
<path fill="none" stroke="#b8860b" stroke-width="1.5" d="M109.1669,-242.5666C129.7161,-235.4495 153.5716,-227.1874 176.143,-219.37"/>
<polygon fill="#b8860b" stroke="#b8860b" stroke-width="1.5" points="177.4206,-222.6315 185.7245,-216.0515 175.1297,-216.017 177.4206,-222.6315"/>
<text text-anchor="start" x="134" y="-237.3" font-family="Times,serif" font-size="14.00" fill="#0a5040"> ε</text>
</g>
<!-- state_10004 -->
<g id="state_10004" class="node">
<title>state_10004</title>
<path fill="#fffff0" stroke="#b8860b" stroke-width="1.5" d="M539,-274C539,-274 460,-274 460,-274 454,-274 448,-268 448,-262 448,-262 448,-235 448,-235 448,-229 454,-223 460,-223 460,-223 539,-223 539,-223 545,-223 551,-229 551,-235 551,-235 551,-262 551,-262 551,-268 545,-274 539,-274"/>
<g id="a_state_10004_title"><a xlink:href="#" xlink:title="state_10004_title">
<text text-anchor="start" x="477" y="-256.1" font-family="Calibri" font-weight="bold" font-size="13.00" fill="#8b4513">Estado </text>
<text text-anchor="start" x="516" y="-256.1" font-family="Calibri" font-weight="bold" font-size="13.00" fill="#8b4513">4</text>
</a>
</g>
<g id="a_state_10004_item_1"><a xlink:href="#" xlink:title="state_10004_item_1">
<text text-anchor="start" x="456.5" y="-235.3" font-family="Times,serif" font-size="14.00" fill="#bc1f29">List </text>
<text text-anchor="start" x="481.5" y="-235.3" font-family="Times,serif" font-size="14.00" fill="#0a5040">→ </text>
<text text-anchor="start" x="500.5" y="-235.3" font-family="Times,serif" font-size="14.00" fill="#f5a70a"> •</text>
<text text-anchor="start" x="510.5" y="-235.3" font-family="Times,serif" font-size="14.00" fill="#bc1f29"> List</text>
<text text-anchor="start" x="535.5" y="-235.3" font-family="Times,serif" font-size="14.00" fill="#0a5040"> ,</text>
</a>
</g>
</g>
<!-- state_10001&#45;&gt;state_10004 -->
<g id="trans_4" class="edge">
<title>state_10001&#45;&gt;state_10004</title>
<path fill="none" stroke="#b8860b" stroke-width="1.5" d="M109.2013,-262.2462C175.9934,-262.8356 292.3793,-262.8237 392,-257.5 406.8153,-256.7083 422.7555,-255.5447 437.7057,-254.3153"/>
<polygon fill="#b8860b" stroke="#b8860b" stroke-width="1.5" points="438.2014,-257.786 447.8717,-253.4574 437.6127,-250.8108 438.2014,-257.786"/>
<text text-anchor="start" x="254" y="-266.3" font-family="Times,serif" font-size="14.00" fill="#0a5040"> ε</text>
</g>
<!-- state_10003&#45;&gt;state_10002 -->
<g id="trans_7" class="edge">
<title>state_10003&#45;&gt;state_10002</title>
<path fill="none" stroke="#b8860b" stroke-width="1.5" d="M349.0878,-187.6643C415.5994,-186.8377 508.359,-188.3784 589,-199.5 637.7659,-206.2255 691.9845,-220.4653 730.7628,-231.8695"/>
<polygon fill="#b8860b" stroke="#b8860b" stroke-width="1.5" points="730.1909,-235.3511 740.7739,-234.8515 732.1892,-228.6423 730.1909,-235.3511"/>
<text text-anchor="start" x="494" y="-203.3" font-family="Times,serif" font-size="14.00" fill="#0a5040"> ε</text>
</g>
<!-- state_10003&#45;&gt;state_10003 -->
<g id="trans_8" class="edge">
<title>state_10003&#45;&gt;state_10003</title>
<path fill="none" stroke="#b8860b" stroke-width="1.5" d="M237.0494,-216.4017C236.3134,-226.0544 243.7969,-234 259.5,-234 269.3145,-234 275.9181,-230.8962 279.311,-226.2118"/>
<polygon fill="#b8860b" stroke="#b8860b" stroke-width="1.5" points="282.7321,-226.9677 281.9506,-216.4017 275.9725,-225.1489 282.7321,-226.9677"/>
<text text-anchor="start" x="254" y="-237.8" font-family="Times,serif" font-size="14.00" fill="#0a5040"> ε</text>
</g>
<!-- state_10003&#45;&gt;state_10004 -->
<g id="trans_9" class="edge">
<title>state_10003&#45;&gt;state_10004</title>
<path fill="none" stroke="#b8860b" stroke-width="1.5" d="M349.1246,-208.6271C363.4979,-211.7677 378.1839,-215.116 392,-218.5 406.9752,-222.1679 423.0267,-226.4539 438.0387,-230.6195"/>
<polygon fill="#b8860b" stroke="#b8860b" stroke-width="1.5" points="437.1586,-234.0077 447.7319,-233.3318 439.0449,-227.2666 437.1586,-234.0077"/>
<text text-anchor="start" x="374" y="-222.3" font-family="Times,serif" font-size="14.00" fill="#0a5040"> ε</text>
</g>
<!-- state_10006 -->
<g id="state_10006" class="node">
<title>state_10006</title>
<path fill="#fffff0" stroke="#b8860b" stroke-width="1.5" d="M577,-148C577,-148 422,-148 422,-148 416,-148 410,-142 410,-136 410,-136 410,-109 410,-109 410,-103 416,-97 422,-97 422,-97 577,-97 577,-97 583,-97 589,-103 589,-109 589,-109 589,-136 589,-136 589,-142 583,-148 577,-148"/>
<g id="a_state_10006_title"><a xlink:href="#" xlink:title="state_10006_title">
<text text-anchor="start" x="477" y="-130.1" font-family="Calibri" font-weight="bold" font-size="13.00" fill="#8b4513">Estado </text>
<text text-anchor="start" x="516" y="-130.1" font-family="Calibri" font-weight="bold" font-size="13.00" fill="#8b4513">6</text>
</a>
</g>
<g id="a_state_10006_item_1"><a xlink:href="#" xlink:title="state_10006_item_1">
<text text-anchor="start" x="418.5" y="-109.3" font-family="Times,serif" font-size="14.00" fill="#bc1f29">List </text>
<text text-anchor="start" x="443.5" y="-109.3" font-family="Times,serif" font-size="14.00" fill="#0a5040">→ </text>
<text text-anchor="start" x="462.5" y="-109.3" font-family="Times,serif" font-size="14.00" fill="#bc1f29"> List</text>
<text text-anchor="start" x="487.5" y="-109.3" font-family="Times,serif" font-size="14.00" fill="#f5a70a"> •</text>
<text text-anchor="start" x="497.5" y="-109.3" font-family="Times,serif" font-size="14.00" fill="#bc1f29"> OptComma</text>
<text text-anchor="start" x="566.5" y="-109.3" font-family="Times,serif" font-size="14.00" fill="#0a5040"> id</text>
</a>
</g>
</g>
<!-- state_10003&#45;&gt;state_10006 -->
<g id="trans_6" class="edge">
<title>state_10003&#45;&gt;state_10006</title>
<path fill="none" stroke="#b8860b" stroke-width="1.5" d="M335.6391,-164.975C346.1393,-161.6705 356.8123,-158.4232 367,-155.5 377.6626,-152.4406 388.8541,-149.397 400.025,-146.4658"/>
<polygon fill="#b8860b" stroke="#b8860b" stroke-width="1.5" points="401.0236,-149.8226 409.8227,-143.9212 399.264,-143.0474 401.0236,-149.8226"/>
<text text-anchor="start" x="367" y="-159.3" font-family="Times,serif" font-size="14.00" fill="#bc1f29"> List</text>
</g>
<!-- state_10004&#45;&gt;state_10002 -->
<g id="trans_11" class="edge">
<title>state_10004&#45;&gt;state_10002</title>
<path fill="none" stroke="#b8860b" stroke-width="1.5" d="M551.2597,-248.5C602.1506,-248.5 679.4452,-248.5 730.6942,-248.5"/>
<polygon fill="#b8860b" stroke="#b8860b" stroke-width="1.5" points="730.8984,-252.0001 740.8983,-248.5 730.8983,-245.0001 730.8984,-252.0001"/>
<text text-anchor="start" x="636" y="-252.3" font-family="Times,serif" font-size="14.00" fill="#0a5040"> ε</text>
</g>
<!-- state_10004&#45;&gt;state_10007 -->
<g id="trans_10" class="edge">
<title>state_10004&#45;&gt;state_10007</title>
<path fill="none" stroke="#b8860b" stroke-width="1.5" d="M551.2597,-261.8044C599.257,-274.1418 670.7408,-292.5161 721.7094,-305.6172"/>
<polygon fill="#b8860b" stroke="#b8860b" stroke-width="1.5" points="721.06,-309.064 731.6165,-308.1637 722.8027,-302.2844 721.06,-309.064"/>
<text text-anchor="start" x="629" y="-297.3" font-family="Times,serif" font-size="14.00" fill="#bc1f29"> List</text>
</g>
<!-- state_10004&#45;&gt;state_10003 -->
<g id="trans_12" class="edge">
<title>state_10004&#45;&gt;state_10003</title>
<path fill="none" stroke="#b8860b" stroke-width="1.5" d="M447.9622,-245.8839C423.2,-243.8138 393.2665,-240.1124 367,-233.5 352.9835,-229.9715 338.3598,-225.0326 324.5757,-219.7542"/>
<polygon fill="#b8860b" stroke="#b8860b" stroke-width="1.5" points="325.7719,-216.4637 315.1848,-216.0587 323.2086,-222.9775 325.7719,-216.4637"/>
<text text-anchor="start" x="374" y="-242.3" font-family="Times,serif" font-size="14.00" fill="#0a5040"> ε</text>
</g>
<!-- state_10004&#45;&gt;state_10004 -->
<g id="trans_13" class="edge">
<title>state_10004&#45;&gt;state_10004</title>
<path fill="none" stroke="#b8860b" stroke-width="1.5" d="M477.0494,-274.4017C476.3134,-284.0544 483.7969,-292 499.5,-292 509.3145,-292 515.9181,-288.8962 519.311,-284.2118"/>
<polygon fill="#b8860b" stroke="#b8860b" stroke-width="1.5" points="522.7321,-284.9677 521.9506,-274.4017 515.9725,-283.1489 522.7321,-284.9677"/>
<text text-anchor="start" x="494" y="-295.8" font-family="Times,serif" font-size="14.00" fill="#0a5040"> ε</text>
</g>
<!-- state_10006&#45;&gt;state_10008 -->
<g id="trans_16" class="edge">
<title>state_10006&#45;&gt;state_10008</title>
<path fill="none" stroke="#b8860b" stroke-width="1.5" d="M589.3594,-138.0039C629.0198,-144.8467 674.9818,-152.7768 712.2264,-159.2028"/>
<polygon fill="#b8860b" stroke="#b8860b" stroke-width="1.5" points="712.0382,-162.722 722.4877,-160.9732 713.2284,-155.8239 712.0382,-162.722"/>
<text text-anchor="start" x="636" y="-156.3" font-family="Times,serif" font-size="14.00" fill="#0a5040"> ε</text>
</g>
<!-- state_10006&#45;&gt;state_10011 -->
<g id="trans_15" class="edge">
<title>state_10006&#45;&gt;state_10011</title>
<path fill="none" stroke="#b8860b" stroke-width="1.5" d="M589.177,-110.1702C595.202,-109.5427 601.185,-108.9764 607,-108.5 631.7088,-106.4757 658.4173,-105.1316 683.3972,-104.24"/>
<polygon fill="#b8860b" stroke="#b8860b" stroke-width="1.5" points="683.7373,-107.7306 693.614,-103.8966 683.5021,-100.7346 683.7373,-107.7306"/>
<text text-anchor="start" x="607" y="-112.3" font-family="Times,serif" font-size="14.00" fill="#bc1f29"> OptComma</text>
</g>
<!-- state_10009 -->
<g id="state_10009" class="node">
<title>state_10009</title>
<path fill="#f5f5dc" stroke="#b8860b" stroke-width="1.5" d="M828.5,-55C828.5,-55 738.5,-55 738.5,-55 732.5,-55 726.5,-49 726.5,-43 726.5,-43 726.5,-16 726.5,-16 726.5,-10 732.5,-4 738.5,-4 738.5,-4 828.5,-4 828.5,-4 834.5,-4 840.5,-10 840.5,-16 840.5,-16 840.5,-43 840.5,-43 840.5,-49 834.5,-55 828.5,-55"/>
<path fill="none" stroke="#b8860b" stroke-width="1.5" d="M832.5,-59C832.5,-59 734.5,-59 734.5,-59 728.5,-59 722.5,-53 722.5,-47 722.5,-47 722.5,-12 722.5,-12 722.5,-6 728.5,0 734.5,0 734.5,0 832.5,0 832.5,0 838.5,0 844.5,-6 844.5,-12 844.5,-12 844.5,-47 844.5,-47 844.5,-53 838.5,-59 832.5,-59"/>
<g id="a_state_10009_title"><a xlink:href="#" xlink:title="state_10009_title">
<text text-anchor="start" x="760.5" y="-37.1" font-family="Calibri" font-weight="bold" font-size="13.00" fill="#8b4513">Estado </text>
<text text-anchor="start" x="799.5" y="-37.1" font-family="Calibri" font-weight="bold" font-size="13.00" fill="#8b4513">9</text>
</a>
</g>
<g id="a_state_10009_item_1"><a xlink:href="#" xlink:title="state_10009_item_1">
<text text-anchor="start" x="734.5" y="-16.3" font-family="Times,serif" font-size="14.00" fill="#bc1f29">OptComma </text>
<text text-anchor="start" x="803.5" y="-16.3" font-family="Times,serif" font-size="14.00" fill="#0a5040">→ </text>
<text text-anchor="start" x="822.5" y="-16.3" font-family="Times,serif" font-size="14.00" fill="#f5a70a"> •</text>
</a>
</g>
</g>
<!-- state_10006&#45;&gt;state_10009 -->
<g id="trans_17" class="edge">
<title>state_10006&#45;&gt;state_10009</title>
<path fill="none" stroke="#b8860b" stroke-width="1.5" d="M572.8599,-96.9852C584.2735,-93.0923 595.9436,-89.1561 607,-85.5 641.576,-74.0664 680.1124,-61.7863 712.334,-51.6476"/>
<polygon fill="#b8860b" stroke="#b8860b" stroke-width="1.5" points="713.6285,-54.9097 722.1196,-48.5732 711.5303,-48.2315 713.6285,-54.9097"/>
<text text-anchor="start" x="636" y="-89.3" font-family="Times,serif" font-size="14.00" fill="#0a5040"> ε</text>
</g>
</g>
</svg>
