<?xml version="1.0" encoding="UTF-8" standalone="no"?>
<!DOCTYPE svg PUBLIC "-//W3C//DTD SVG 1.1//EN"
 "http://www.w3.org/Graphics/SVG/1.1/DTD/svg11.dtd">
<!-- Generated by graphviz version 2.40.1 (20161225.0304)
 -->
<!-- Title: NFA Pages: 1 -->
<svg width="668pt" height="363pt"
 viewBox="0.00 0.00 668.00 363.00" xmlns="http://www.w3.org/2000/svg" xmlns:xlink="http://www.w3.org/1999/xlink">
<g id="graph0" class="graph" transform="scale(1 1) rotate(0) translate(4 359)">
<title>NFA</title>
<!-- state_10004 -->
<g id="state_10004" class="node">
<title>state_10004</title>
<path fill="#fffff0" stroke="#b8860b" stroke-width="1.5" d="M353,-278C353,-278 297,-278 297,-278 291,-278 285,-272 285,-266 285,-266 285,-239 285,-239 285,-233 291,-227 297,-227 297,-227 353,-227 353,-227 359,-227 365,-233 365,-239 365,-239 365,-266 365,-266 365,-272 359,-278 353,-278"/>
<g id="a_state_10004_title"><a xlink:href="#" xlink:title="state_10004_title">
<text text-anchor="start" x="302" y="-260.1" font-family="Calibri" font-weight="bold" font-size="13.00" fill="#8b4513">Estado </text>
<text text-anchor="start" x="341" y="-260.1" font-family="Calibri" font-weight="bold" font-size="13.00" fill="#8b4513">4</text>
</a>
</g>
<g id="a_state_10004_item_1"><a xlink:href="#" xlink:title="state_10004_item_1">
<text text-anchor="start" x="293" y="-239.3" font-family="Times,serif" font-size="14.00" fill="#bc1f29">B </text>
<text text-anchor="start" x="306" y="-239.3" font-family="Times,serif" font-size="14.00" fill="#0a5040">→ </text>
<text text-anchor="start" x="325" y="-239.3" font-family="Times,serif" font-size="14.00" fill="#f5a70a"> •</text>
<text text-anchor="start" x="335" y="-239.3" font-family="Times,serif" font-size="14.00" fill="#0a5040"> x</text>
<text text-anchor="start" x="346" y="-239.3" font-family="Times,serif" font-size="14.00" fill="#0a5040"> y</text>
</a>
</g>
</g>
<!-- state_10009 -->
<g id="state_10009" class="node">
<title>state_10009</title>
<path fill="#fffff0" stroke="#b8860b" stroke-width="1.5" d="M493.5,-284C493.5,-284 437.5,-284 437.5,-284 431.5,-284 425.5,-278 425.5,-272 425.5,-272 425.5,-245 425.5,-245 425.5,-239 431.5,-233 437.5,-233 437.5,-233 493.5,-233 493.5,-233 499.5,-233 505.5,-239 505.5,-245 505.5,-245 505.5,-272 505.5,-272 505.5,-278 499.5,-284 493.5,-284"/>
<g id="a_state_10009_title"><a xlink:href="#" xlink:title="state_10009_title">
<text text-anchor="start" x="442.5" y="-266.1" font-family="Calibri" font-weight="bold" font-size="13.00" fill="#8b4513">Estado </text>
<text text-anchor="start" x="481.5" y="-266.1" font-family="Calibri" font-weight="bold" font-size="13.00" fill="#8b4513">9</text>
</a>
</g>
<g id="a_state_10009_item_1"><a xlink:href="#" xlink:title="state_10009_item_1">
<text text-anchor="start" x="433.5" y="-245.3" font-family="Times,serif" font-size="14.00" fill="#bc1f29">B </text>
<text text-anchor="start" x="446.5" y="-245.3" font-family="Times,serif" font-size="14.00" fill="#0a5040">→ </text>
<text text-anchor="start" x="465.5" y="-245.3" font-family="Times,serif" font-size="14.00" fill="#0a5040"> x</text>
<text text-anchor="start" x="476.5" y="-245.3" font-family="Times,serif" font-size="14.00" fill="#f5a70a"> •</text>
<text text-anchor="start" x="486.5" y="-245.3" font-family="Times,serif" font-size="14.00" fill="#0a5040"> y</text>
</a>
</g>
</g>
<!-- state_10004&#45;&gt;state_10009 -->
<g id="trans_8" class="edge">
<title>state_10004&#45;&gt;state_10009</title>
<path fill="none" stroke="#b8860b" stroke-width="1.5" d="M365.2617,-254.2194C380.6939,-254.8784 398.503,-255.6389 414.7898,-256.3344"/>
<polygon fill="#b8860b" stroke="#b8860b" stroke-width="1.5" points="415.0922,-259.8505 425.2325,-256.7804 415.3909,-252.8568 415.0922,-259.8505"/>
<text text-anchor="start" x="390" y="-259.3" font-family="Times,serif" font-size="14.00" fill="#0a5040"> x</text>
</g>
<!-- state_10005 -->
<g id="state_10005" class="node">
<title>state_10005</title>
<path fill="#fffff0" stroke="#b8860b" stroke-width="1.5" d="M353,-132C353,-132 297,-132 297,-132 291,-132 285,-126 285,-120 285,-120 285,-93 285,-93 285,-87 291,-81 297,-81 297,-81 353,-81 353,-81 359,-81 365,-87 365,-93 365,-93 365,-120 365,-120 365,-126 359,-132 353,-132"/>
<g id="a_state_10005_title"><a xlink:href="#" xlink:title="state_10005_title">
<text text-anchor="start" x="302" y="-114.1" font-family="Calibri" font-weight="bold" font-size="13.00" fill="#8b4513">Estado </text>
<text text-anchor="start" x="341" y="-114.1" font-family="Calibri" font-weight="bold" font-size="13.00" fill="#8b4513">5</text>
</a>
</g>
<g id="a_state_10005_item_1"><a xlink:href="#" xlink:title="state_10005_item_1">
<text text-anchor="start" x="293" y="-93.3" font-family="Times,serif" font-size="14.00" fill="#bc1f29">E </text>
<text text-anchor="start" x="306" y="-93.3" font-family="Times,serif" font-size="14.00" fill="#0a5040">→ </text>
<text text-anchor="start" x="325" y="-93.3" font-family="Times,serif" font-size="14.00" fill="#f5a70a"> •</text>
<text text-anchor="start" x="335" y="-93.3" font-family="Times,serif" font-size="14.00" fill="#0a5040"> x</text>
<text text-anchor="start" x="346" y="-93.3" font-family="Times,serif" font-size="14.00" fill="#0a5040"> y</text>
</a>
</g>
</g>
<!-- state_10010 -->
<g id="state_10010" class="node">
<title>state_10010</title>
<path fill="#fffff0" stroke="#b8860b" stroke-width="1.5" d="M493.5,-132C493.5,-132 437.5,-132 437.5,-132 431.5,-132 425.5,-126 425.5,-120 425.5,-120 425.5,-93 425.5,-93 425.5,-87 431.5,-81 437.5,-81 437.5,-81 493.5,-81 493.5,-81 499.5,-81 505.5,-87 505.5,-93 505.5,-93 505.5,-120 505.5,-120 505.5,-126 499.5,-132 493.5,-132"/>
<g id="a_state_10010_title"><a xlink:href="#" xlink:title="state_10010_title">
<text text-anchor="start" x="439" y="-114.1" font-family="Calibri" font-weight="bold" font-size="13.00" fill="#8b4513">Estado </text>
<text text-anchor="start" x="478" y="-114.1" font-family="Calibri" font-weight="bold" font-size="13.00" fill="#8b4513">10</text>
</a>
</g>
<g id="a_state_10010_item_1"><a xlink:href="#" xlink:title="state_10010_item_1">
<text text-anchor="start" x="433.5" y="-93.3" font-family="Times,serif" font-size="14.00" fill="#bc1f29">E </text>
<text text-anchor="start" x="446.5" y="-93.3" font-family="Times,serif" font-size="14.00" fill="#0a5040">→ </text>
<text text-anchor="start" x="465.5" y="-93.3" font-family="Times,serif" font-size="14.00" fill="#0a5040"> x</text>
<text text-anchor="start" x="476.5" y="-93.3" font-family="Times,serif" font-size="14.00" fill="#f5a70a"> •</text>
<text text-anchor="start" x="486.5" y="-93.3" font-family="Times,serif" font-size="14.00" fill="#0a5040"> y</text>
</a>
</g>
</g>
<!-- state_10005&#45;&gt;state_10010 -->
<g id="trans_9" class="edge">
<title>state_10005&#45;&gt;state_10010</title>
<path fill="none" stroke="#b8860b" stroke-width="1.5" d="M365.2617,-106.5C380.6939,-106.5 398.503,-106.5 414.7898,-106.5"/>
<polygon fill="#b8860b" stroke="#b8860b" stroke-width="1.5" points="415.2325,-110.0001 425.2325,-106.5 415.2324,-103.0001 415.2325,-110.0001"/>
<text text-anchor="start" x="390" y="-110.3" font-family="Times,serif" font-size="14.00" fill="#0a5040"> x</text>
</g>
<!-- state_10006 -->
<g id="state_10006" class="node">
<title>state_10006</title>
<path fill="#fffff0" stroke="#b8860b" stroke-width="1.5" d="M213.5,-324C213.5,-324 151.5,-324 151.5,-324 145.5,-324 139.5,-318 139.5,-312 139.5,-312 139.5,-285 139.5,-285 139.5,-279 145.5,-273 151.5,-273 151.5,-273 213.5,-273 213.5,-273 219.5,-273 225.5,-279 225.5,-285 225.5,-285 225.5,-312 225.5,-312 225.5,-318 219.5,-324 213.5,-324"/>
<g id="a_state_10006_title"><a xlink:href="#" xlink:title="state_10006_title">
<text text-anchor="start" x="159.5" y="-306.1" font-family="Calibri" font-weight="bold" font-size="13.00" fill="#8b4513">Estado </text>
<text text-anchor="start" x="198.5" y="-306.1" font-family="Calibri" font-weight="bold" font-size="13.00" fill="#8b4513">6</text>
</a>
</g>
<g id="a_state_10006_item_1"><a xlink:href="#" xlink:title="state_10006_item_1">
<text text-anchor="start" x="147.5" y="-285.3" font-family="Times,serif" font-size="14.00" fill="#bc1f29">A&#39; </text>
<text text-anchor="start" x="163.5" y="-285.3" font-family="Times,serif" font-size="14.00" fill="#0a5040">→ </text>
<text text-anchor="start" x="182.5" y="-285.3" font-family="Times,serif" font-size="14.00" fill="#bc1f29"> A</text>
<text text-anchor="start" x="196.5" y="-285.3" font-family="Times,serif" font-size="14.00" fill="#f5a70a"> •</text>
<text text-anchor="start" x="206.5" y="-285.3" font-family="Times,serif" font-size="14.00" fill="#0a5040"> $</text>
</a>
</g>
</g>
<!-- state_10011 -->
<g id="state_10011" class="node">
<title>state_10011</title>
<path fill="#f5f5dc" stroke="#b8860b" stroke-width="1.5" d="M356,-351C356,-351 294,-351 294,-351 288,-351 282,-345 282,-339 282,-339 282,-312 282,-312 282,-306 288,-300 294,-300 294,-300 356,-300 356,-300 362,-300 368,-306 368,-312 368,-312 368,-339 368,-339 368,-345 362,-351 356,-351"/>
<path fill="none" stroke="#b8860b" stroke-width="1.5" d="M360,-355C360,-355 290,-355 290,-355 284,-355 278,-349 278,-343 278,-343 278,-308 278,-308 278,-302 284,-296 290,-296 290,-296 360,-296 360,-296 366,-296 372,-302 372,-308 372,-308 372,-343 372,-343 372,-349 366,-355 360,-355"/>
<g id="a_state_10011_title"><a xlink:href="#" xlink:title="state_10011_title">
<text text-anchor="start" x="298.5" y="-333.1" font-family="Calibri" font-weight="bold" font-size="13.00" fill="#8b4513">Estado </text>
<text text-anchor="start" x="337.5" y="-333.1" font-family="Calibri" font-weight="bold" font-size="13.00" fill="#8b4513">11</text>
</a>
</g>
<g id="a_state_10011_item_1"><a xlink:href="#" xlink:title="state_10011_item_1">
<text text-anchor="start" x="290" y="-312.3" font-family="Times,serif" font-size="14.00" fill="#bc1f29">A&#39; </text>
<text text-anchor="start" x="306" y="-312.3" font-family="Times,serif" font-size="14.00" fill="#0a5040">→ </text>
<text text-anchor="start" x="325" y="-312.3" font-family="Times,serif" font-size="14.00" fill="#bc1f29"> A</text>
<text text-anchor="start" x="339" y="-312.3" font-family="Times,serif" font-size="14.00" fill="#0a5040"> $</text>
<text text-anchor="start" x="350" y="-312.3" font-family="Times,serif" font-size="14.00" fill="#f5a70a"> •</text>
</a>
</g>
</g>
<!-- state_10006&#45;&gt;state_10011 -->
<g id="trans_10" class="edge">
<title>state_10006&#45;&gt;state_10011</title>
<path fill="none" stroke="#b8860b" stroke-width="1.5" d="M225.6414,-306.6742C238.8908,-309.1846 253.6846,-311.9876 267.7249,-314.6479"/>
<polygon fill="#b8860b" stroke="#b8860b" stroke-width="1.5" points="267.3055,-318.1306 277.7823,-316.5535 268.6087,-311.253 267.3055,-318.1306"/>
<text text-anchor="start" x="248" y="-316.3" font-family="Times,serif" font-size="14.00" fill="#0a5040"> $</text>
</g>
<!-- state_10007 -->
<g id="state_10007" class="node">
<title>state_10007</title>
<path fill="#fffff0" stroke="#b8860b" stroke-width="1.5" d="M359.5,-209C359.5,-209 290.5,-209 290.5,-209 284.5,-209 278.5,-203 278.5,-197 278.5,-197 278.5,-170 278.5,-170 278.5,-164 284.5,-158 290.5,-158 290.5,-158 359.5,-158 359.5,-158 365.5,-158 371.5,-164 371.5,-170 371.5,-170 371.5,-197 371.5,-197 371.5,-203 365.5,-209 359.5,-209"/>
<g id="a_state_10007_title"><a xlink:href="#" xlink:title="state_10007_title">
<text text-anchor="start" x="302.5" y="-191.1" font-family="Calibri" font-weight="bold" font-size="13.00" fill="#8b4513">Estado </text>
<text text-anchor="start" x="341.5" y="-191.1" font-family="Calibri" font-weight="bold" font-size="13.00" fill="#8b4513">7</text>
</a>
</g>
<g id="a_state_10007_item_1"><a xlink:href="#" xlink:title="state_10007_item_1">
<text text-anchor="start" x="287" y="-170.3" font-family="Times,serif" font-size="14.00" fill="#bc1f29">A </text>
<text text-anchor="start" x="301" y="-170.3" font-family="Times,serif" font-size="14.00" fill="#0a5040">→ </text>
<text text-anchor="start" x="320" y="-170.3" font-family="Times,serif" font-size="14.00" fill="#bc1f29"> B</text>
<text text-anchor="start" x="333" y="-170.3" font-family="Times,serif" font-size="14.00" fill="#f5a70a"> •</text>
<text text-anchor="start" x="343" y="-170.3" font-family="Times,serif" font-size="14.00" fill="#0a5040"> c</text>
<text text-anchor="start" x="353" y="-170.3" font-family="Times,serif" font-size="14.00" fill="#0a5040"> d</text>
</a>
</g>
</g>
<!-- state_10012 -->
<g id="state_10012" class="node">
<title>state_10012</title>
<path fill="#fffff0" stroke="#b8860b" stroke-width="1.5" d="M500,-209C500,-209 431,-209 431,-209 425,-209 419,-203 419,-197 419,-197 419,-170 419,-170 419,-164 425,-158 431,-158 431,-158 500,-158 500,-158 506,-158 512,-164 512,-170 512,-170 512,-197 512,-197 512,-203 506,-209 500,-209"/>
<g id="a_state_10012_title"><a xlink:href="#" xlink:title="state_10012_title">
<text text-anchor="start" x="439.5" y="-191.1" font-family="Calibri" font-weight="bold" font-size="13.00" fill="#8b4513">Estado </text>
<text text-anchor="start" x="478.5" y="-191.1" font-family="Calibri" font-weight="bold" font-size="13.00" fill="#8b4513">12</text>
</a>
</g>
<g id="a_state_10012_item_1"><a xlink:href="#" xlink:title="state_10012_item_1">
<text text-anchor="start" x="427.5" y="-170.3" font-family="Times,serif" font-size="14.00" fill="#bc1f29">A </text>
<text text-anchor="start" x="441.5" y="-170.3" font-family="Times,serif" font-size="14.00" fill="#0a5040">→ </text>
<text text-anchor="start" x="460.5" y="-170.3" font-family="Times,serif" font-size="14.00" fill="#bc1f29"> B</text>
<text text-anchor="start" x="473.5" y="-170.3" font-family="Times,serif" font-size="14.00" fill="#0a5040"> c</text>
<text text-anchor="start" x="483.5" y="-170.3" font-family="Times,serif" font-size="14.00" fill="#f5a70a"> •</text>
<text text-anchor="start" x="493.5" y="-170.3" font-family="Times,serif" font-size="14.00" fill="#0a5040"> d</text>
</a>
</g>
</g>
<!-- state_10007&#45;&gt;state_10012 -->
<g id="trans_11" class="edge">
<title>state_10007&#45;&gt;state_10012</title>
<path fill="none" stroke="#b8860b" stroke-width="1.5" d="M371.7845,-183.5C383.6338,-183.5 396.4895,-183.5 408.772,-183.5"/>
<polygon fill="#b8860b" stroke="#b8860b" stroke-width="1.5" points="408.9199,-187.0001 418.9198,-183.5 408.9198,-180.0001 408.9199,-187.0001"/>
<text text-anchor="start" x="390.5" y="-187.3" font-family="Times,serif" font-size="14.00" fill="#0a5040"> c</text>
</g>
<!-- state_10008 -->
<g id="state_10008" class="node">
<title>state_10008</title>
<path fill="#fffff0" stroke="#b8860b" stroke-width="1.5" d="M358.5,-63C358.5,-63 291.5,-63 291.5,-63 285.5,-63 279.5,-57 279.5,-51 279.5,-51 279.5,-24 279.5,-24 279.5,-18 285.5,-12 291.5,-12 291.5,-12 358.5,-12 358.5,-12 364.5,-12 370.5,-18 370.5,-24 370.5,-24 370.5,-51 370.5,-51 370.5,-57 364.5,-63 358.5,-63"/>
<g id="a_state_10008_title"><a xlink:href="#" xlink:title="state_10008_title">
<text text-anchor="start" x="302.5" y="-45.1" font-family="Calibri" font-weight="bold" font-size="13.00" fill="#8b4513">Estado </text>
<text text-anchor="start" x="341.5" y="-45.1" font-family="Calibri" font-weight="bold" font-size="13.00" fill="#8b4513">8</text>
</a>
</g>
<g id="a_state_10008_item_1"><a xlink:href="#" xlink:title="state_10008_item_1">
<text text-anchor="start" x="288" y="-24.3" font-family="Times,serif" font-size="14.00" fill="#bc1f29">A </text>
<text text-anchor="start" x="302" y="-24.3" font-family="Times,serif" font-size="14.00" fill="#0a5040">→ </text>
<text text-anchor="start" x="321" y="-24.3" font-family="Times,serif" font-size="14.00" fill="#bc1f29"> E</text>
<text text-anchor="start" x="334" y="-24.3" font-family="Times,serif" font-size="14.00" fill="#f5a70a"> •</text>
<text text-anchor="start" x="344" y="-24.3" font-family="Times,serif" font-size="14.00" fill="#0a5040"> c</text>
<text text-anchor="start" x="354" y="-24.3" font-family="Times,serif" font-size="14.00" fill="#0a5040"> f</text>
</a>
</g>
</g>
<!-- state_10013 -->
<g id="state_10013" class="node">
<title>state_10013</title>
<path fill="#fffff0" stroke="#b8860b" stroke-width="1.5" d="M499,-59C499,-59 432,-59 432,-59 426,-59 420,-53 420,-47 420,-47 420,-20 420,-20 420,-14 426,-8 432,-8 432,-8 499,-8 499,-8 505,-8 511,-14 511,-20 511,-20 511,-47 511,-47 511,-53 505,-59 499,-59"/>
<g id="a_state_10013_title"><a xlink:href="#" xlink:title="state_10013_title">
<text text-anchor="start" x="439.5" y="-41.1" font-family="Calibri" font-weight="bold" font-size="13.00" fill="#8b4513">Estado </text>
<text text-anchor="start" x="478.5" y="-41.1" font-family="Calibri" font-weight="bold" font-size="13.00" fill="#8b4513">13</text>
</a>
</g>
<g id="a_state_10013_item_1"><a xlink:href="#" xlink:title="state_10013_item_1">
<text text-anchor="start" x="428.5" y="-20.3" font-family="Times,serif" font-size="14.00" fill="#bc1f29">A </text>
<text text-anchor="start" x="442.5" y="-20.3" font-family="Times,serif" font-size="14.00" fill="#0a5040">→ </text>
<text text-anchor="start" x="461.5" y="-20.3" font-family="Times,serif" font-size="14.00" fill="#bc1f29"> E</text>
<text text-anchor="start" x="474.5" y="-20.3" font-family="Times,serif" font-size="14.00" fill="#0a5040"> c</text>
<text text-anchor="start" x="484.5" y="-20.3" font-family="Times,serif" font-size="14.00" fill="#f5a70a"> •</text>
<text text-anchor="start" x="494.5" y="-20.3" font-family="Times,serif" font-size="14.00" fill="#0a5040"> f</text>
</a>
</g>
</g>
<!-- state_10008&#45;&gt;state_10013 -->
<g id="trans_12" class="edge">
<title>state_10008&#45;&gt;state_10013</title>
<path fill="none" stroke="#b8860b" stroke-width="1.5" d="M370.6163,-36.2013C383.0085,-35.8485 396.5716,-35.4624 409.4676,-35.0952"/>
<polygon fill="#b8860b" stroke="#b8860b" stroke-width="1.5" points="409.7354,-38.5891 419.6318,-34.8059 409.5362,-31.592 409.7354,-38.5891"/>
<text text-anchor="start" x="390.5" y="-39.3" font-family="Times,serif" font-size="14.00" fill="#0a5040"> c</text>
</g>
<!-- state_10014 -->
<g id="state_10014" class="node">
<title>state_10014</title>
<path fill="#f5f5dc" stroke="#b8860b" stroke-width="1.5" d="M637.5,-286C637.5,-286 581.5,-286 581.5,-286 575.5,-286 569.5,-280 569.5,-274 569.5,-274 569.5,-247 569.5,-247 569.5,-241 575.5,-235 581.5,-235 581.5,-235 637.5,-235 637.5,-235 643.5,-235 649.5,-241 649.5,-247 649.5,-247 649.5,-274 649.5,-274 649.5,-280 643.5,-286 637.5,-286"/>
<path fill="none" stroke="#b8860b" stroke-width="1.5" d="M641.5,-290C641.5,-290 577.5,-290 577.5,-290 571.5,-290 565.5,-284 565.5,-278 565.5,-278 565.5,-243 565.5,-243 565.5,-237 571.5,-231 577.5,-231 577.5,-231 641.5,-231 641.5,-231 647.5,-231 653.5,-237 653.5,-243 653.5,-243 653.5,-278 653.5,-278 653.5,-284 647.5,-290 641.5,-290"/>
<g id="a_state_10014_title"><a xlink:href="#" xlink:title="state_10014_title">
<text text-anchor="start" x="583" y="-268.1" font-family="Calibri" font-weight="bold" font-size="13.00" fill="#8b4513">Estado </text>
<text text-anchor="start" x="622" y="-268.1" font-family="Calibri" font-weight="bold" font-size="13.00" fill="#8b4513">14</text>
</a>
</g>
<g id="a_state_10014_item_1"><a xlink:href="#" xlink:title="state_10014_item_1">
<text text-anchor="start" x="577.5" y="-247.3" font-family="Times,serif" font-size="14.00" fill="#bc1f29">B </text>
<text text-anchor="start" x="590.5" y="-247.3" font-family="Times,serif" font-size="14.00" fill="#0a5040">→ </text>
<text text-anchor="start" x="609.5" y="-247.3" font-family="Times,serif" font-size="14.00" fill="#0a5040"> x</text>
<text text-anchor="start" x="620.5" y="-247.3" font-family="Times,serif" font-size="14.00" fill="#0a5040"> y</text>
<text text-anchor="start" x="631.5" y="-247.3" font-family="Times,serif" font-size="14.00" fill="#f5a70a"> •</text>
</a>
</g>
</g>
<!-- state_10009&#45;&gt;state_10014 -->
<g id="trans_13" class="edge">
<title>state_10009&#45;&gt;state_10014</title>
<path fill="none" stroke="#b8860b" stroke-width="1.5" d="M505.612,-259.0571C520.9803,-259.2706 538.7777,-259.5177 555.2525,-259.7466"/>
<polygon fill="#b8860b" stroke="#b8860b" stroke-width="1.5" points="555.2582,-263.2469 565.3059,-259.8862 555.3555,-256.2476 555.2582,-263.2469"/>
<text text-anchor="start" x="530" y="-263.3" font-family="Times,serif" font-size="14.00" fill="#0a5040"> y</text>
</g>
<!-- state_10015 -->
<g id="state_10015" class="node">
<title>state_10015</title>
<path fill="#f5f5dc" stroke="#b8860b" stroke-width="1.5" d="M637.5,-132C637.5,-132 581.5,-132 581.5,-132 575.5,-132 569.5,-126 569.5,-120 569.5,-120 569.5,-93 569.5,-93 569.5,-87 575.5,-81 581.5,-81 581.5,-81 637.5,-81 637.5,-81 643.5,-81 649.5,-87 649.5,-93 649.5,-93 649.5,-120 649.5,-120 649.5,-126 643.5,-132 637.5,-132"/>
<path fill="none" stroke="#b8860b" stroke-width="1.5" d="M641.5,-136C641.5,-136 577.5,-136 577.5,-136 571.5,-136 565.5,-130 565.5,-124 565.5,-124 565.5,-89 565.5,-89 565.5,-83 571.5,-77 577.5,-77 577.5,-77 641.5,-77 641.5,-77 647.5,-77 653.5,-83 653.5,-89 653.5,-89 653.5,-124 653.5,-124 653.5,-130 647.5,-136 641.5,-136"/>
<g id="a_state_10015_title"><a xlink:href="#" xlink:title="state_10015_title">
<text text-anchor="start" x="583" y="-114.1" font-family="Calibri" font-weight="bold" font-size="13.00" fill="#8b4513">Estado </text>
<text text-anchor="start" x="622" y="-114.1" font-family="Calibri" font-weight="bold" font-size="13.00" fill="#8b4513">15</text>
</a>
</g>
<g id="a_state_10015_item_1"><a xlink:href="#" xlink:title="state_10015_item_1">
<text text-anchor="start" x="577.5" y="-93.3" font-family="Times,serif" font-size="14.00" fill="#bc1f29">E </text>
<text text-anchor="start" x="590.5" y="-93.3" font-family="Times,serif" font-size="14.00" fill="#0a5040">→ </text>
<text text-anchor="start" x="609.5" y="-93.3" font-family="Times,serif" font-size="14.00" fill="#0a5040"> x</text>
<text text-anchor="start" x="620.5" y="-93.3" font-family="Times,serif" font-size="14.00" fill="#0a5040"> y</text>
<text text-anchor="start" x="631.5" y="-93.3" font-family="Times,serif" font-size="14.00" fill="#f5a70a"> •</text>
</a>
</g>
</g>
<!-- state_10010&#45;&gt;state_10015 -->
<g id="trans_14" class="edge">
<title>state_10010&#45;&gt;state_10015</title>
<path fill="none" stroke="#b8860b" stroke-width="1.5" d="M505.612,-106.5C520.9803,-106.5 538.7777,-106.5 555.2525,-106.5"/>
<polygon fill="#b8860b" stroke="#b8860b" stroke-width="1.5" points="555.3059,-110.0001 565.3059,-106.5 555.3059,-103.0001 555.3059,-110.0001"/>
<text text-anchor="start" x="530" y="-110.3" font-family="Times,serif" font-size="14.00" fill="#0a5040"> y</text>
</g>
<!-- state_10016 -->
<g id="state_10016" class="node">
<title>state_10016</title>
<path fill="#f5f5dc" stroke="#b8860b" stroke-width="1.5" d="M644,-209C644,-209 575,-209 575,-209 569,-209 563,-203 563,-197 563,-197 563,-170 563,-170 563,-164 569,-158 575,-158 575,-158 644,-158 644,-158 650,-158 656,-164 656,-170 656,-170 656,-197 656,-197 656,-203 650,-209 644,-209"/>
<path fill="none" stroke="#b8860b" stroke-width="1.5" d="M648,-213C648,-213 571,-213 571,-213 565,-213 559,-207 559,-201 559,-201 559,-166 559,-166 559,-160 565,-154 571,-154 571,-154 648,-154 648,-154 654,-154 660,-160 660,-166 660,-166 660,-201 660,-201 660,-207 654,-213 648,-213"/>
<g id="a_state_10016_title"><a xlink:href="#" xlink:title="state_10016_title">
<text text-anchor="start" x="583.5" y="-191.1" font-family="Calibri" font-weight="bold" font-size="13.00" fill="#8b4513">Estado </text>
<text text-anchor="start" x="622.5" y="-191.1" font-family="Calibri" font-weight="bold" font-size="13.00" fill="#8b4513">16</text>
</a>
</g>
<g id="a_state_10016_item_1"><a xlink:href="#" xlink:title="state_10016_item_1">
<text text-anchor="start" x="571.5" y="-170.3" font-family="Times,serif" font-size="14.00" fill="#bc1f29">A </text>
<text text-anchor="start" x="585.5" y="-170.3" font-family="Times,serif" font-size="14.00" fill="#0a5040">→ </text>
<text text-anchor="start" x="604.5" y="-170.3" font-family="Times,serif" font-size="14.00" fill="#bc1f29"> B</text>
<text text-anchor="start" x="617.5" y="-170.3" font-family="Times,serif" font-size="14.00" fill="#0a5040"> c</text>
<text text-anchor="start" x="627.5" y="-170.3" font-family="Times,serif" font-size="14.00" fill="#0a5040"> d</text>
<text text-anchor="start" x="638.5" y="-170.3" font-family="Times,serif" font-size="14.00" fill="#f5a70a"> •</text>
</a>
</g>
</g>
<!-- state_10012&#45;&gt;state_10016 -->
<g id="trans_15" class="edge">
<title>state_10012&#45;&gt;state_10016</title>
<path fill="none" stroke="#b8860b" stroke-width="1.5" d="M512.2527,-183.5C523.8654,-183.5 536.4814,-183.5 548.6608,-183.5"/>
<polygon fill="#b8860b" stroke="#b8860b" stroke-width="1.5" points="548.7571,-187.0001 558.7571,-183.5 548.7571,-180.0001 548.7571,-187.0001"/>
<text text-anchor="start" x="530" y="-187.3" font-family="Times,serif" font-size="14.00" fill="#0a5040"> d</text>
</g>
<!-- state_10017 -->
<g id="state_10017" class="node">
<title>state_10017</title>
<path fill="#f5f5dc" stroke="#b8860b" stroke-width="1.5" d="M643,-55C643,-55 576,-55 576,-55 570,-55 564,-49 564,-43 564,-43 564,-16 564,-16 564,-10 570,-4 576,-4 576,-4 643,-4 643,-4 649,-4 655,-10 655,-16 655,-16 655,-43 655,-43 655,-49 649,-55 643,-55"/>
<path fill="none" stroke="#b8860b" stroke-width="1.5" d="M647,-59C647,-59 572,-59 572,-59 566,-59 560,-53 560,-47 560,-47 560,-12 560,-12 560,-6 566,0 572,0 572,0 647,0 647,0 653,0 659,-6 659,-12 659,-12 659,-47 659,-47 659,-53 653,-59 647,-59"/>
<g id="a_state_10017_title"><a xlink:href="#" xlink:title="state_10017_title">
<text text-anchor="start" x="583.5" y="-37.1" font-family="Calibri" font-weight="bold" font-size="13.00" fill="#8b4513">Estado </text>
<text text-anchor="start" x="622.5" y="-37.1" font-family="Calibri" font-weight="bold" font-size="13.00" fill="#8b4513">17</text>
</a>
</g>
<g id="a_state_10017_item_1"><a xlink:href="#" xlink:title="state_10017_item_1">
<text text-anchor="start" x="572.5" y="-16.3" font-family="Times,serif" font-size="14.00" fill="#bc1f29">A </text>
<text text-anchor="start" x="586.5" y="-16.3" font-family="Times,serif" font-size="14.00" fill="#0a5040">→ </text>
<text text-anchor="start" x="605.5" y="-16.3" font-family="Times,serif" font-size="14.00" fill="#bc1f29"> E</text>
<text text-anchor="start" x="618.5" y="-16.3" font-family="Times,serif" font-size="14.00" fill="#0a5040"> c</text>
<text text-anchor="start" x="628.5" y="-16.3" font-family="Times,serif" font-size="14.00" fill="#0a5040"> f</text>
<text text-anchor="start" x="637.5" y="-16.3" font-family="Times,serif" font-size="14.00" fill="#f5a70a"> •</text>
</a>
</g>
</g>
<!-- state_10013&#45;&gt;state_10017 -->
<g id="trans_16" class="edge">
<title>state_10013&#45;&gt;state_10017</title>
<path fill="none" stroke="#b8860b" stroke-width="1.5" d="M511.0625,-32.2344C523.3507,-31.893 536.8319,-31.5186 549.7687,-31.1592"/>
<polygon fill="#b8860b" stroke="#b8860b" stroke-width="1.5" points="550.0948,-34.6516 559.9938,-30.8752 549.9004,-27.6543 550.0948,-34.6516"/>
<text text-anchor="start" x="531" y="-35.3" font-family="Times,serif" font-size="14.00" fill="#0a5040"> f</text>
</g>
<!-- state_10001 -->
<g id="state_10001" class="node">
<title>state_10001</title>
<path fill="#fffff0" stroke="#b8860b" stroke-width="1.5" d="M74,-236C74,-236 12,-236 12,-236 6,-236 0,-230 0,-224 0,-224 0,-197 0,-197 0,-191 6,-185 12,-185 12,-185 74,-185 74,-185 80,-185 86,-191 86,-197 86,-197 86,-224 86,-224 86,-230 80,-236 74,-236"/>
<g id="a_state_10001_title"><a xlink:href="#" xlink:title="state_10001_title">
<text text-anchor="start" x="20" y="-218.1" font-family="Calibri" font-weight="bold" font-size="13.00" fill="#8b4513">Estado </text>
<text text-anchor="start" x="59" y="-218.1" font-family="Calibri" font-weight="bold" font-size="13.00" fill="#8b4513">1</text>
</a>
</g>
<g id="a_state_10001_item_1"><a xlink:href="#" xlink:title="state_10001_item_1">
<text text-anchor="start" x="8" y="-197.3" font-family="Times,serif" font-size="14.00" fill="#bc1f29">A&#39; </text>
<text text-anchor="start" x="24" y="-197.3" font-family="Times,serif" font-size="14.00" fill="#0a5040">→ </text>
<text text-anchor="start" x="43" y="-197.3" font-family="Times,serif" font-size="14.00" fill="#f5a70a"> •</text>
<text text-anchor="start" x="53" y="-197.3" font-family="Times,serif" font-size="14.00" fill="#bc1f29"> A</text>
<text text-anchor="start" x="67" y="-197.3" font-family="Times,serif" font-size="14.00" fill="#0a5040"> $</text>
</a>
</g>
</g>
<!-- state_10001&#45;&gt;state_10006 -->
<g id="trans_1" class="edge">
<title>state_10001&#45;&gt;state_10006</title>
<path fill="none" stroke="#b8860b" stroke-width="1.5" d="M83.7242,-236.1898C99.1951,-245.9492 116.9848,-257.1714 133.1667,-267.3794"/>
<polygon fill="#b8860b" stroke="#b8860b" stroke-width="1.5" points="131.6412,-270.5552 141.9664,-272.9304 135.376,-264.6348 131.6412,-270.5552"/>
<text text-anchor="start" x="104" y="-260.3" font-family="Times,serif" font-size="14.00" fill="#bc1f29"> A</text>
</g>
<!-- state_10002 -->
<g id="state_10002" class="node">
<title>state_10002</title>
<path fill="#fffff0" stroke="#b8860b" stroke-width="1.5" d="M217,-236C217,-236 148,-236 148,-236 142,-236 136,-230 136,-224 136,-224 136,-197 136,-197 136,-191 142,-185 148,-185 148,-185 217,-185 217,-185 223,-185 229,-191 229,-197 229,-197 229,-224 229,-224 229,-230 223,-236 217,-236"/>
<g id="a_state_10002_title"><a xlink:href="#" xlink:title="state_10002_title">
<text text-anchor="start" x="160" y="-218.1" font-family="Calibri" font-weight="bold" font-size="13.00" fill="#8b4513">Estado </text>
<text text-anchor="start" x="199" y="-218.1" font-family="Calibri" font-weight="bold" font-size="13.00" fill="#8b4513">2</text>
</a>
</g>
<g id="a_state_10002_item_1"><a xlink:href="#" xlink:title="state_10002_item_1">
<text text-anchor="start" x="144.5" y="-197.3" font-family="Times,serif" font-size="14.00" fill="#bc1f29">A </text>
<text text-anchor="start" x="158.5" y="-197.3" font-family="Times,serif" font-size="14.00" fill="#0a5040">→ </text>
<text text-anchor="start" x="177.5" y="-197.3" font-family="Times,serif" font-size="14.00" fill="#f5a70a"> •</text>
<text text-anchor="start" x="187.5" y="-197.3" font-family="Times,serif" font-size="14.00" fill="#bc1f29"> B</text>
<text text-anchor="start" x="200.5" y="-197.3" font-family="Times,serif" font-size="14.00" fill="#0a5040"> c</text>
<text text-anchor="start" x="210.5" y="-197.3" font-family="Times,serif" font-size="14.00" fill="#0a5040"> d</text>
</a>
</g>
</g>
<!-- state_10001&#45;&gt;state_10002 -->
<g id="trans_2" class="edge">
<title>state_10001&#45;&gt;state_10002</title>
<path fill="none" stroke="#b8860b" stroke-width="1.5" d="M86.374,-210.5C98.7436,-210.5 112.4112,-210.5 125.4639,-210.5"/>
<polygon fill="#b8860b" stroke="#b8860b" stroke-width="1.5" points="125.7636,-214.0001 135.7636,-210.5 125.7636,-207.0001 125.7636,-214.0001"/>
<text text-anchor="start" x="105.5" y="-214.3" font-family="Times,serif" font-size="14.00" fill="#0a5040"> ε</text>
</g>
<!-- state_10003 -->
<g id="state_10003" class="node">
<title>state_10003</title>
<path fill="#fffff0" stroke="#b8860b" stroke-width="1.5" d="M216,-132C216,-132 149,-132 149,-132 143,-132 137,-126 137,-120 137,-120 137,-93 137,-93 137,-87 143,-81 149,-81 149,-81 216,-81 216,-81 222,-81 228,-87 228,-93 228,-93 228,-120 228,-120 228,-126 222,-132 216,-132"/>
<g id="a_state_10003_title"><a xlink:href="#" xlink:title="state_10003_title">
<text text-anchor="start" x="160" y="-114.1" font-family="Calibri" font-weight="bold" font-size="13.00" fill="#8b4513">Estado </text>
<text text-anchor="start" x="199" y="-114.1" font-family="Calibri" font-weight="bold" font-size="13.00" fill="#8b4513">3</text>
</a>
</g>
<g id="a_state_10003_item_1"><a xlink:href="#" xlink:title="state_10003_item_1">
<text text-anchor="start" x="145.5" y="-93.3" font-family="Times,serif" font-size="14.00" fill="#bc1f29">A </text>
<text text-anchor="start" x="159.5" y="-93.3" font-family="Times,serif" font-size="14.00" fill="#0a5040">→ </text>
<text text-anchor="start" x="178.5" y="-93.3" font-family="Times,serif" font-size="14.00" fill="#f5a70a"> •</text>
<text text-anchor="start" x="188.5" y="-93.3" font-family="Times,serif" font-size="14.00" fill="#bc1f29"> E</text>
<text text-anchor="start" x="201.5" y="-93.3" font-family="Times,serif" font-size="14.00" fill="#0a5040"> c</text>
<text text-anchor="start" x="211.5" y="-93.3" font-family="Times,serif" font-size="14.00" fill="#0a5040"> f</text>
</a>
</g>
</g>
<!-- state_10001&#45;&gt;state_10003 -->
<g id="trans_3" class="edge">
<title>state_10001&#45;&gt;state_10003</title>
<path fill="none" stroke="#b8860b" stroke-width="1.5" d="M77.4832,-184.7921C96.3461,-170.7295 119.8788,-153.1854 139.8837,-138.2713"/>
<polygon fill="#b8860b" stroke="#b8860b" stroke-width="1.5" points="142.0048,-141.0556 147.9301,-132.2726 137.8209,-135.4436 142.0048,-141.0556"/>
<text text-anchor="start" x="105.5" y="-168.3" font-family="Times,serif" font-size="14.00" fill="#0a5040"> ε</text>
</g>
<!-- state_10002&#45;&gt;state_10004 -->
<g id="trans_5" class="edge">
<title>state_10002&#45;&gt;state_10004</title>
<path fill="none" stroke="#b8860b" stroke-width="1.5" d="M229.1598,-224.2524C243.9416,-228.6091 260.3329,-233.4402 275.3187,-237.8571"/>
<polygon fill="#b8860b" stroke="#b8860b" stroke-width="1.5" points="274.3509,-241.2207 284.9325,-240.6906 276.33,-234.5062 274.3509,-241.2207"/>
<text text-anchor="start" x="248" y="-236.3" font-family="Times,serif" font-size="14.00" fill="#0a5040"> ε</text>
</g>
<!-- state_10002&#45;&gt;state_10007 -->
<g id="trans_4" class="edge">
<title>state_10002&#45;&gt;state_10007</title>
<path fill="none" stroke="#b8860b" stroke-width="1.5" d="M229.1598,-201.6592C241.5852,-199.3049 255.1477,-196.7352 268.0568,-194.2892"/>
<polygon fill="#b8860b" stroke="#b8860b" stroke-width="1.5" points="269.0617,-197.6612 278.2353,-192.3607 267.7586,-190.7835 269.0617,-197.6612"/>
<text text-anchor="start" x="247" y="-201.3" font-family="Times,serif" font-size="14.00" fill="#bc1f29"> B</text>
</g>
<!-- state_10003&#45;&gt;state_10005 -->
<g id="trans_7" class="edge">
<title>state_10003&#45;&gt;state_10005</title>
<path fill="none" stroke="#b8860b" stroke-width="1.5" d="M228.3723,-106.5C243.1801,-106.5 259.6702,-106.5 274.7755,-106.5"/>
<polygon fill="#b8860b" stroke="#b8860b" stroke-width="1.5" points="274.9741,-110.0001 284.974,-106.5 274.974,-103.0001 274.9741,-110.0001"/>
<text text-anchor="start" x="248" y="-110.3" font-family="Times,serif" font-size="14.00" fill="#0a5040"> ε</text>
</g>
<!-- state_10003&#45;&gt;state_10008 -->
<g id="trans_6" class="edge">
<title>state_10003&#45;&gt;state_10008</title>
<path fill="none" stroke="#b8860b" stroke-width="1.5" d="M228.3723,-84.2882C241.5936,-77.8863 256.156,-70.835 269.8763,-64.1915"/>
<polygon fill="#b8860b" stroke="#b8860b" stroke-width="1.5" points="271.7386,-67.1785 279.2137,-59.6702 268.6879,-60.8782 271.7386,-67.1785"/>
<text text-anchor="start" x="247" y="-77.3" font-family="Times,serif" font-size="14.00" fill="#bc1f29"> E</text>
</g>
</g>
</svg>
