<?xml version="1.0" encoding="UTF-8" standalone="no"?>
<!DOCTYPE svg PUBLIC "-//W3C//DTD SVG 1.1//EN"
 "http://www.w3.org/Graphics/SVG/1.1/DTD/svg11.dtd">
<!-- Generated by graphviz version 2.40.1 (20161225.0304)
 -->
<!-- Title: DFA Pages: 1 -->
<svg width="2825pt" height="467pt"
 viewBox="0.00 0.00 2825.00 466.50" xmlns="http://www.w3.org/2000/svg" xmlns:xlink="http://www.w3.org/1999/xlink">
<g id="graph0" class="graph" transform="scale(1 1) rotate(0) translate(4 462.5)">
<title>DFA</title>
<!-- state_1 -->
<g id="state_1" class="node">
<title>state_1</title>
<path fill="#fffff0" stroke="#b8860b" stroke-width="1.5" d="M278,-416C278,-416 12,-416 12,-416 6,-416 0,-410 0,-404 0,-404 0,-308 0,-308 0,-302 6,-296 12,-296 12,-296 278,-296 278,-296 284,-296 290,-302 290,-308 290,-308 290,-404 290,-404 290,-410 284,-416 278,-416"/>
<g id="a_state_1_title"><a xlink:href="#" xlink:title="state_1_title">
<text text-anchor="start" x="122" y="-395.6" font-family="Calibri" font-weight="bold" font-size="13.00" fill="#8b4513">Estado </text>
<text text-anchor="start" x="161" y="-395.6" font-family="Calibri" font-weight="bold" font-size="13.00" fill="#8b4513">1</text>
</a>
</g>
<g id="a_state_1_item_1"><a xlink:href="#" xlink:title="state_1_item_1">
<text text-anchor="start" x="11" y="-374.8" font-family="Times,serif" font-size="14.00" fill="#bc1f29">statement&#39; </text>
<text text-anchor="start" x="70" y="-374.8" font-family="Times,serif" font-size="14.00" fill="#0a5040">→ </text>
<text text-anchor="start" x="89" y="-374.8" font-family="Times,serif" font-size="14.00" fill="#f5a70a"> •</text>
<text text-anchor="start" x="99" y="-374.8" font-family="Times,serif" font-size="14.00" fill="#bc1f29"> statement</text>
<text text-anchor="start" x="156" y="-374.8" font-family="Times,serif" font-size="14.00" fill="#0a5040"> $</text>
</a>
</g>
<g id="a_state_1_item_2"><a xlink:href="#" xlink:title="state_1_item_2">
<text text-anchor="start" x="11" y="-353.8" font-family="Times,serif" font-size="14.00" fill="#bc1f29">statement </text>
<text text-anchor="start" x="68" y="-353.8" font-family="Times,serif" font-size="14.00" fill="#0a5040">→ </text>
<text text-anchor="start" x="87" y="-353.8" font-family="Times,serif" font-size="14.00" fill="#f5a70a"> •</text>
<text text-anchor="start" x="97" y="-353.8" font-family="Times,serif" font-size="14.00" fill="#bc1f29"> if_stmt</text>
</a>
</g>
<g id="a_state_1_item_3"><a xlink:href="#" xlink:title="state_1_item_3">
<text text-anchor="start" x="11" y="-332.8" font-family="Times,serif" font-size="14.00" fill="#bc1f29">statement </text>
<text text-anchor="start" x="68" y="-332.8" font-family="Times,serif" font-size="14.00" fill="#0a5040">→ </text>
<text text-anchor="start" x="87" y="-332.8" font-family="Times,serif" font-size="14.00" fill="#f5a70a"> •</text>
<text text-anchor="start" x="97" y="-332.8" font-family="Times,serif" font-size="14.00" fill="#0a5040"> other</text>
</a>
</g>
<g id="a_state_1_item_4"><a xlink:href="#" xlink:title="state_1_item_4">
<text text-anchor="start" x="11" y="-311.8" font-family="Times,serif" font-size="14.00" fill="#bc1f29">if_stmt </text>
<text text-anchor="start" x="54" y="-311.8" font-family="Times,serif" font-size="14.00" fill="#0a5040">→ </text>
<text text-anchor="start" x="73" y="-311.8" font-family="Times,serif" font-size="14.00" fill="#f5a70a"> •</text>
<text text-anchor="start" x="83" y="-311.8" font-family="Times,serif" font-size="14.00" fill="#0a5040"> if</text>
<text text-anchor="start" x="96" y="-311.8" font-family="Times,serif" font-size="14.00" fill="#0a5040"> (</text>
<text text-anchor="start" x="105" y="-311.8" font-family="Times,serif" font-size="14.00" fill="#bc1f29"> bool_exp</text>
<text text-anchor="start" x="160" y="-311.8" font-family="Times,serif" font-size="14.00" fill="#0a5040"> )</text>
<text text-anchor="start" x="169" y="-311.8" font-family="Times,serif" font-size="14.00" fill="#bc1f29"> statement</text>
<text text-anchor="start" x="226" y="-311.8" font-family="Times,serif" font-size="14.00" fill="#bc1f29"> else_part</text>
</a>
</g>
</g>
<!-- state_2 -->
<g id="state_2" class="node">
<title>state_2</title>
<path fill="#fffff0" stroke="#b8860b" stroke-width="1.5" d="M605,-452.5C605,-452.5 451,-452.5 451,-452.5 445,-452.5 439,-446.5 439,-440.5 439,-440.5 439,-407.5 439,-407.5 439,-401.5 445,-395.5 451,-395.5 451,-395.5 605,-395.5 605,-395.5 611,-395.5 617,-401.5 617,-407.5 617,-407.5 617,-440.5 617,-440.5 617,-446.5 611,-452.5 605,-452.5"/>
<g id="a_state_2_title"><a xlink:href="#" xlink:title="state_2_title">
<text text-anchor="start" x="505" y="-431.6" font-family="Calibri" font-weight="bold" font-size="13.00" fill="#8b4513">Estado </text>
<text text-anchor="start" x="544" y="-431.6" font-family="Calibri" font-weight="bold" font-size="13.00" fill="#8b4513">2</text>
</a>
</g>
<g id="a_state_2_item_1"><a xlink:href="#" xlink:title="state_2_item_1">
<text text-anchor="start" x="450" y="-410.8" font-family="Times,serif" font-size="14.00" fill="#bc1f29">statement&#39; </text>
<text text-anchor="start" x="509" y="-410.8" font-family="Times,serif" font-size="14.00" fill="#0a5040">→ </text>
<text text-anchor="start" x="528" y="-410.8" font-family="Times,serif" font-size="14.00" fill="#bc1f29"> statement</text>
<text text-anchor="start" x="585" y="-410.8" font-family="Times,serif" font-size="14.00" fill="#f5a70a"> •</text>
<text text-anchor="start" x="595" y="-410.8" font-family="Times,serif" font-size="14.00" fill="#0a5040"> $</text>
</a>
</g>
</g>
<!-- state_1&#45;&gt;state_2 -->
<g id="trans_1" class="edge">
<title>state_1&#45;&gt;state_2</title>
<path fill="none" stroke="#b8860b" stroke-width="1.5" d="M290.0689,-381.7564C336.4256,-389.9868 386.6453,-398.9031 428.9469,-406.4135"/>
<polygon fill="#b8860b" stroke="#b8860b" stroke-width="1.5" points="428.5041,-409.8896 438.962,-408.1917 429.7278,-402.9974 428.5041,-409.8896"/>
<text text-anchor="start" x="308" y="-397.8" font-family="Times,serif" font-size="14.00" fill="#bc1f29"> statement</text>
</g>
<!-- state_5 -->
<g id="state_5" class="node">
<title>state_5</title>
<path fill="#fffff0" stroke="#b8860b" stroke-width="1.5" d="M661,-264.5C661,-264.5 395,-264.5 395,-264.5 389,-264.5 383,-258.5 383,-252.5 383,-252.5 383,-219.5 383,-219.5 383,-213.5 389,-207.5 395,-207.5 395,-207.5 661,-207.5 661,-207.5 667,-207.5 673,-213.5 673,-219.5 673,-219.5 673,-252.5 673,-252.5 673,-258.5 667,-264.5 661,-264.5"/>
<g id="a_state_5_title"><a xlink:href="#" xlink:title="state_5_title">
<text text-anchor="start" x="505" y="-243.6" font-family="Calibri" font-weight="bold" font-size="13.00" fill="#8b4513">Estado </text>
<text text-anchor="start" x="544" y="-243.6" font-family="Calibri" font-weight="bold" font-size="13.00" fill="#8b4513">5</text>
</a>
</g>
<g id="a_state_5_item_1"><a xlink:href="#" xlink:title="state_5_item_1">
<text text-anchor="start" x="394" y="-222.8" font-family="Times,serif" font-size="14.00" fill="#bc1f29">if_stmt </text>
<text text-anchor="start" x="437" y="-222.8" font-family="Times,serif" font-size="14.00" fill="#0a5040">→ </text>
<text text-anchor="start" x="456" y="-222.8" font-family="Times,serif" font-size="14.00" fill="#0a5040"> if</text>
<text text-anchor="start" x="469" y="-222.8" font-family="Times,serif" font-size="14.00" fill="#f5a70a"> •</text>
<text text-anchor="start" x="479" y="-222.8" font-family="Times,serif" font-size="14.00" fill="#0a5040"> (</text>
<text text-anchor="start" x="488" y="-222.8" font-family="Times,serif" font-size="14.00" fill="#bc1f29"> bool_exp</text>
<text text-anchor="start" x="543" y="-222.8" font-family="Times,serif" font-size="14.00" fill="#0a5040"> )</text>
<text text-anchor="start" x="552" y="-222.8" font-family="Times,serif" font-size="14.00" fill="#bc1f29"> statement</text>
<text text-anchor="start" x="609" y="-222.8" font-family="Times,serif" font-size="14.00" fill="#bc1f29"> else_part</text>
</a>
</g>
</g>
<!-- state_1&#45;&gt;state_5 -->
<g id="trans_4" class="edge">
<title>state_1&#45;&gt;state_5</title>
<path fill="none" stroke="#b8860b" stroke-width="1.5" d="M290.0689,-310.5476C335.8359,-296.2081 385.3683,-280.6888 427.3288,-267.5419"/>
<polygon fill="#b8860b" stroke="#b8860b" stroke-width="1.5" points="428.495,-270.8444 436.9911,-264.5145 426.402,-264.1646 428.495,-270.8444"/>
<text text-anchor="start" x="330" y="-306.8" font-family="Times,serif" font-size="14.00" fill="#0a5040"> if</text>
</g>
<!-- state_3 -->
<g id="state_3" class="node">
<title>state_3</title>
<path fill="#fffff0" stroke="#b8860b" stroke-width="1.5" d="M2783.5,-355.5C2783.5,-355.5 2656.5,-355.5 2656.5,-355.5 2650.5,-355.5 2644.5,-349.5 2644.5,-343.5 2644.5,-343.5 2644.5,-310.5 2644.5,-310.5 2644.5,-304.5 2650.5,-298.5 2656.5,-298.5 2656.5,-298.5 2783.5,-298.5 2783.5,-298.5 2789.5,-298.5 2795.5,-304.5 2795.5,-310.5 2795.5,-310.5 2795.5,-343.5 2795.5,-343.5 2795.5,-349.5 2789.5,-355.5 2783.5,-355.5"/>
<path fill="none" stroke="#b8860b" stroke-width="1.5" d="M2787.5,-359.5C2787.5,-359.5 2652.5,-359.5 2652.5,-359.5 2646.5,-359.5 2640.5,-353.5 2640.5,-347.5 2640.5,-347.5 2640.5,-306.5 2640.5,-306.5 2640.5,-300.5 2646.5,-294.5 2652.5,-294.5 2652.5,-294.5 2787.5,-294.5 2787.5,-294.5 2793.5,-294.5 2799.5,-300.5 2799.5,-306.5 2799.5,-306.5 2799.5,-347.5 2799.5,-347.5 2799.5,-353.5 2793.5,-359.5 2787.5,-359.5"/>
<g id="a_state_3_title"><a xlink:href="#" xlink:title="state_3_title">
<text text-anchor="start" x="2697.5" y="-334.6" font-family="Calibri" font-weight="bold" font-size="13.00" fill="#8b4513">Estado </text>
<text text-anchor="start" x="2736.5" y="-334.6" font-family="Calibri" font-weight="bold" font-size="13.00" fill="#8b4513">3</text>
</a>
</g>
<g id="a_state_3_item_1"><a xlink:href="#" xlink:title="state_3_item_1">
<text text-anchor="start" x="2656" y="-313.8" font-family="Times,serif" font-size="14.00" fill="#bc1f29">statement </text>
<text text-anchor="start" x="2713" y="-313.8" font-family="Times,serif" font-size="14.00" fill="#0a5040">→ </text>
<text text-anchor="start" x="2732" y="-313.8" font-family="Times,serif" font-size="14.00" fill="#bc1f29"> if_stmt</text>
<text text-anchor="start" x="2775" y="-313.8" font-family="Times,serif" font-size="14.00" fill="#f5a70a"> •</text>
</a>
</g>
</g>
<!-- state_1&#45;&gt;state_3 -->
<g id="trans_2" class="edge">
<title>state_1&#45;&gt;state_3</title>
<path fill="none" stroke="#b8860b" stroke-width="1.5" d="M290.0221,-361.0132C361.6407,-363.0797 449.3503,-365 528,-365 528,-365 528,-365 2381,-365 2465.919,-365 2562.0631,-353.0784 2630.2161,-342.59"/>
<polygon fill="#b8860b" stroke="#b8860b" stroke-width="1.5" points="2631.1444,-345.9876 2640.4853,-340.9879 2630.0653,-339.0713 2631.1444,-345.9876"/>
<text text-anchor="start" x="1409" y="-368.8" font-family="Times,serif" font-size="14.00" fill="#bc1f29"> if_stmt</text>
</g>
<!-- state_4 -->
<g id="state_4" class="node">
<title>state_4</title>
<path fill="#fffff0" stroke="#b8860b" stroke-width="1.5" d="M2778,-95.5C2778,-95.5 2662,-95.5 2662,-95.5 2656,-95.5 2650,-89.5 2650,-83.5 2650,-83.5 2650,-50.5 2650,-50.5 2650,-44.5 2656,-38.5 2662,-38.5 2662,-38.5 2778,-38.5 2778,-38.5 2784,-38.5 2790,-44.5 2790,-50.5 2790,-50.5 2790,-83.5 2790,-83.5 2790,-89.5 2784,-95.5 2778,-95.5"/>
<path fill="none" stroke="#b8860b" stroke-width="1.5" d="M2782,-99.5C2782,-99.5 2658,-99.5 2658,-99.5 2652,-99.5 2646,-93.5 2646,-87.5 2646,-87.5 2646,-46.5 2646,-46.5 2646,-40.5 2652,-34.5 2658,-34.5 2658,-34.5 2782,-34.5 2782,-34.5 2788,-34.5 2794,-40.5 2794,-46.5 2794,-46.5 2794,-87.5 2794,-87.5 2794,-93.5 2788,-99.5 2782,-99.5"/>
<g id="a_state_4_title"><a xlink:href="#" xlink:title="state_4_title">
<text text-anchor="start" x="2697" y="-74.6" font-family="Calibri" font-weight="bold" font-size="13.00" fill="#8b4513">Estado </text>
<text text-anchor="start" x="2736" y="-74.6" font-family="Calibri" font-weight="bold" font-size="13.00" fill="#8b4513">4</text>
</a>
</g>
<g id="a_state_4_item_1"><a xlink:href="#" xlink:title="state_4_item_1">
<text text-anchor="start" x="2661" y="-53.8" font-family="Times,serif" font-size="14.00" fill="#bc1f29">statement </text>
<text text-anchor="start" x="2718" y="-53.8" font-family="Times,serif" font-size="14.00" fill="#0a5040">→ </text>
<text text-anchor="start" x="2737" y="-53.8" font-family="Times,serif" font-size="14.00" fill="#0a5040"> other</text>
<text text-anchor="start" x="2769" y="-53.8" font-family="Times,serif" font-size="14.00" fill="#f5a70a"> •</text>
</a>
</g>
</g>
<!-- state_1&#45;&gt;state_4 -->
<g id="trans_3" class="edge">
<title>state_1&#45;&gt;state_4</title>
<path fill="none" stroke="#b8860b" stroke-width="1.5" d="M174.7134,-295.6095C229.4326,-194.0411 356.4233,0 528,0 528,0 528,0 2381,0 2469.2009,0 2567.9023,-22.0976 2635.9535,-40.9117"/>
<polygon fill="#b8860b" stroke="#b8860b" stroke-width="1.5" points="2635.1931,-44.3334 2645.7666,-43.6607 2637.0814,-37.5928 2635.1931,-44.3334"/>
<text text-anchor="start" x="1414.5" y="-3.8" font-family="Times,serif" font-size="14.00" fill="#0a5040"> other</text>
</g>
<!-- state_6 -->
<g id="state_6" class="node">
<title>state_6</title>
<path fill="#fffff0" stroke="#b8860b" stroke-width="1.5" d="M942,-454.5C942,-454.5 788,-454.5 788,-454.5 782,-454.5 776,-448.5 776,-442.5 776,-442.5 776,-409.5 776,-409.5 776,-403.5 782,-397.5 788,-397.5 788,-397.5 942,-397.5 942,-397.5 948,-397.5 954,-403.5 954,-409.5 954,-409.5 954,-442.5 954,-442.5 954,-448.5 948,-454.5 942,-454.5"/>
<path fill="none" stroke="#b8860b" stroke-width="1.5" d="M946,-458.5C946,-458.5 784,-458.5 784,-458.5 778,-458.5 772,-452.5 772,-446.5 772,-446.5 772,-405.5 772,-405.5 772,-399.5 778,-393.5 784,-393.5 784,-393.5 946,-393.5 946,-393.5 952,-393.5 958,-399.5 958,-405.5 958,-405.5 958,-446.5 958,-446.5 958,-452.5 952,-458.5 946,-458.5"/>
<g id="a_state_6_title"><a xlink:href="#" xlink:title="state_6_title">
<text text-anchor="start" x="842" y="-433.6" font-family="Calibri" font-weight="bold" font-size="13.00" fill="#8b4513">Estado </text>
<text text-anchor="start" x="881" y="-433.6" font-family="Calibri" font-weight="bold" font-size="13.00" fill="#8b4513">6</text>
</a>
</g>
<g id="a_state_6_item_1"><a xlink:href="#" xlink:title="state_6_item_1">
<text text-anchor="start" x="787" y="-412.8" font-family="Times,serif" font-size="14.00" fill="#bc1f29">statement&#39; </text>
<text text-anchor="start" x="846" y="-412.8" font-family="Times,serif" font-size="14.00" fill="#0a5040">→ </text>
<text text-anchor="start" x="865" y="-412.8" font-family="Times,serif" font-size="14.00" fill="#bc1f29"> statement</text>
<text text-anchor="start" x="922" y="-412.8" font-family="Times,serif" font-size="14.00" fill="#0a5040"> $</text>
<text text-anchor="start" x="933" y="-412.8" font-family="Times,serif" font-size="14.00" fill="#f5a70a"> •</text>
</a>
</g>
</g>
<!-- state_2&#45;&gt;state_6 -->
<g id="trans_5" class="edge">
<title>state_2&#45;&gt;state_6</title>
<path fill="none" stroke="#b8860b" stroke-width="1.5" d="M617.425,-424.5307C661.8424,-424.7943 715.7405,-425.1142 761.8919,-425.3881"/>
<polygon fill="#b8860b" stroke="#b8860b" stroke-width="1.5" points="761.8985,-428.8881 771.9191,-425.4476 761.9401,-421.8882 761.8985,-428.8881"/>
<text text-anchor="start" x="691" y="-428.8" font-family="Times,serif" font-size="14.00" fill="#0a5040"> $</text>
</g>
<!-- state_7 -->
<g id="state_7" class="node">
<title>state_7</title>
<path fill="#fffff0" stroke="#b8860b" stroke-width="1.5" d="M998,-260.5C998,-260.5 732,-260.5 732,-260.5 726,-260.5 720,-254.5 720,-248.5 720,-248.5 720,-173.5 720,-173.5 720,-167.5 726,-161.5 732,-161.5 732,-161.5 998,-161.5 998,-161.5 1004,-161.5 1010,-167.5 1010,-173.5 1010,-173.5 1010,-248.5 1010,-248.5 1010,-254.5 1004,-260.5 998,-260.5"/>
<g id="a_state_7_title"><a xlink:href="#" xlink:title="state_7_title">
<text text-anchor="start" x="842" y="-239.6" font-family="Calibri" font-weight="bold" font-size="13.00" fill="#8b4513">Estado </text>
<text text-anchor="start" x="881" y="-239.6" font-family="Calibri" font-weight="bold" font-size="13.00" fill="#8b4513">7</text>
</a>
</g>
<g id="a_state_7_item_1"><a xlink:href="#" xlink:title="state_7_item_1">
<text text-anchor="start" x="731" y="-218.8" font-family="Times,serif" font-size="14.00" fill="#bc1f29">if_stmt </text>
<text text-anchor="start" x="774" y="-218.8" font-family="Times,serif" font-size="14.00" fill="#0a5040">→ </text>
<text text-anchor="start" x="793" y="-218.8" font-family="Times,serif" font-size="14.00" fill="#0a5040"> if</text>
<text text-anchor="start" x="806" y="-218.8" font-family="Times,serif" font-size="14.00" fill="#0a5040"> (</text>
<text text-anchor="start" x="815" y="-218.8" font-family="Times,serif" font-size="14.00" fill="#f5a70a"> •</text>
<text text-anchor="start" x="825" y="-218.8" font-family="Times,serif" font-size="14.00" fill="#bc1f29"> bool_exp</text>
<text text-anchor="start" x="880" y="-218.8" font-family="Times,serif" font-size="14.00" fill="#0a5040"> )</text>
<text text-anchor="start" x="889" y="-218.8" font-family="Times,serif" font-size="14.00" fill="#bc1f29"> statement</text>
<text text-anchor="start" x="946" y="-218.8" font-family="Times,serif" font-size="14.00" fill="#bc1f29"> else_part</text>
</a>
</g>
<g id="a_state_7_item_2"><a xlink:href="#" xlink:title="state_7_item_2">
<text text-anchor="start" x="731" y="-197.8" font-family="Times,serif" font-size="14.00" fill="#bc1f29">bool_exp </text>
<text text-anchor="start" x="786" y="-197.8" font-family="Times,serif" font-size="14.00" fill="#0a5040">→ </text>
<text text-anchor="start" x="805" y="-197.8" font-family="Times,serif" font-size="14.00" fill="#f5a70a"> •</text>
<text text-anchor="start" x="815" y="-197.8" font-family="Times,serif" font-size="14.00" fill="#0a5040"> true</text>
</a>
</g>
<g id="a_state_7_item_3"><a xlink:href="#" xlink:title="state_7_item_3">
<text text-anchor="start" x="731" y="-176.8" font-family="Times,serif" font-size="14.00" fill="#bc1f29">bool_exp </text>
<text text-anchor="start" x="786" y="-176.8" font-family="Times,serif" font-size="14.00" fill="#0a5040">→ </text>
<text text-anchor="start" x="805" y="-176.8" font-family="Times,serif" font-size="14.00" fill="#f5a70a"> •</text>
<text text-anchor="start" x="815" y="-176.8" font-family="Times,serif" font-size="14.00" fill="#0a5040"> false</text>
</a>
</g>
</g>
<!-- state_5&#45;&gt;state_7 -->
<g id="trans_6" class="edge">
<title>state_5&#45;&gt;state_7</title>
<path fill="none" stroke="#b8860b" stroke-width="1.5" d="M673.3635,-225.2164C685.402,-224.3233 697.6011,-223.4183 709.7087,-222.5201"/>
<polygon fill="#b8860b" stroke="#b8860b" stroke-width="1.5" points="710.1384,-225.998 719.8521,-221.7677 709.6205,-219.0171 710.1384,-225.998"/>
<text text-anchor="start" x="692" y="-226.8" font-family="Times,serif" font-size="14.00" fill="#0a5040"> (</text>
</g>
<!-- state_8 -->
<g id="state_8" class="node">
<title>state_8</title>
<path fill="#fffff0" stroke="#b8860b" stroke-width="1.5" d="M1379,-289.5C1379,-289.5 1113,-289.5 1113,-289.5 1107,-289.5 1101,-283.5 1101,-277.5 1101,-277.5 1101,-244.5 1101,-244.5 1101,-238.5 1107,-232.5 1113,-232.5 1113,-232.5 1379,-232.5 1379,-232.5 1385,-232.5 1391,-238.5 1391,-244.5 1391,-244.5 1391,-277.5 1391,-277.5 1391,-283.5 1385,-289.5 1379,-289.5"/>
<g id="a_state_8_title"><a xlink:href="#" xlink:title="state_8_title">
<text text-anchor="start" x="1223" y="-268.6" font-family="Calibri" font-weight="bold" font-size="13.00" fill="#8b4513">Estado </text>
<text text-anchor="start" x="1262" y="-268.6" font-family="Calibri" font-weight="bold" font-size="13.00" fill="#8b4513">8</text>
</a>
</g>
<g id="a_state_8_item_1"><a xlink:href="#" xlink:title="state_8_item_1">
<text text-anchor="start" x="1112" y="-247.8" font-family="Times,serif" font-size="14.00" fill="#bc1f29">if_stmt </text>
<text text-anchor="start" x="1155" y="-247.8" font-family="Times,serif" font-size="14.00" fill="#0a5040">→ </text>
<text text-anchor="start" x="1174" y="-247.8" font-family="Times,serif" font-size="14.00" fill="#0a5040"> if</text>
<text text-anchor="start" x="1187" y="-247.8" font-family="Times,serif" font-size="14.00" fill="#0a5040"> (</text>
<text text-anchor="start" x="1196" y="-247.8" font-family="Times,serif" font-size="14.00" fill="#bc1f29"> bool_exp</text>
<text text-anchor="start" x="1251" y="-247.8" font-family="Times,serif" font-size="14.00" fill="#f5a70a"> •</text>
<text text-anchor="start" x="1261" y="-247.8" font-family="Times,serif" font-size="14.00" fill="#0a5040"> )</text>
<text text-anchor="start" x="1270" y="-247.8" font-family="Times,serif" font-size="14.00" fill="#bc1f29"> statement</text>
<text text-anchor="start" x="1327" y="-247.8" font-family="Times,serif" font-size="14.00" fill="#bc1f29"> else_part</text>
</a>
</g>
</g>
<!-- state_7&#45;&gt;state_8 -->
<g id="trans_7" class="edge">
<title>state_7&#45;&gt;state_8</title>
<path fill="none" stroke="#b8860b" stroke-width="1.5" d="M1010.1266,-230.0455C1036.5124,-233.5082 1064.1311,-237.1327 1090.794,-240.6318"/>
<polygon fill="#b8860b" stroke="#b8860b" stroke-width="1.5" points="1090.5911,-244.1351 1100.9615,-241.9661 1091.502,-237.1946 1090.5911,-244.1351"/>
<text text-anchor="start" x="1028" y="-241.8" font-family="Times,serif" font-size="14.00" fill="#bc1f29"> bool_exp</text>
</g>
<!-- state_9 -->
<g id="state_9" class="node">
<title>state_9</title>
<path fill="#fffff0" stroke="#b8860b" stroke-width="1.5" d="M1299.5,-127.5C1299.5,-127.5 1192.5,-127.5 1192.5,-127.5 1186.5,-127.5 1180.5,-121.5 1180.5,-115.5 1180.5,-115.5 1180.5,-82.5 1180.5,-82.5 1180.5,-76.5 1186.5,-70.5 1192.5,-70.5 1192.5,-70.5 1299.5,-70.5 1299.5,-70.5 1305.5,-70.5 1311.5,-76.5 1311.5,-82.5 1311.5,-82.5 1311.5,-115.5 1311.5,-115.5 1311.5,-121.5 1305.5,-127.5 1299.5,-127.5"/>
<path fill="none" stroke="#b8860b" stroke-width="1.5" d="M1303.5,-131.5C1303.5,-131.5 1188.5,-131.5 1188.5,-131.5 1182.5,-131.5 1176.5,-125.5 1176.5,-119.5 1176.5,-119.5 1176.5,-78.5 1176.5,-78.5 1176.5,-72.5 1182.5,-66.5 1188.5,-66.5 1188.5,-66.5 1303.5,-66.5 1303.5,-66.5 1309.5,-66.5 1315.5,-72.5 1315.5,-78.5 1315.5,-78.5 1315.5,-119.5 1315.5,-119.5 1315.5,-125.5 1309.5,-131.5 1303.5,-131.5"/>
<g id="a_state_9_title"><a xlink:href="#" xlink:title="state_9_title">
<text text-anchor="start" x="1223.5" y="-106.6" font-family="Calibri" font-weight="bold" font-size="13.00" fill="#8b4513">Estado </text>
<text text-anchor="start" x="1262.5" y="-106.6" font-family="Calibri" font-weight="bold" font-size="13.00" fill="#8b4513">9</text>
</a>
</g>
<g id="a_state_9_item_1"><a xlink:href="#" xlink:title="state_9_item_1">
<text text-anchor="start" x="1192" y="-85.8" font-family="Times,serif" font-size="14.00" fill="#bc1f29">bool_exp </text>
<text text-anchor="start" x="1247" y="-85.8" font-family="Times,serif" font-size="14.00" fill="#0a5040">→ </text>
<text text-anchor="start" x="1266" y="-85.8" font-family="Times,serif" font-size="14.00" fill="#0a5040"> true</text>
<text text-anchor="start" x="1291" y="-85.8" font-family="Times,serif" font-size="14.00" fill="#f5a70a"> •</text>
</a>
</g>
</g>
<!-- state_7&#45;&gt;state_9 -->
<g id="trans_8" class="edge">
<title>state_7&#45;&gt;state_9</title>
<path fill="none" stroke="#b8860b" stroke-width="1.5" d="M1010.293,-166.8741C1040.2598,-157.8897 1071.6324,-148.5689 1101,-140 1122.2336,-133.8044 1145.2582,-127.229 1166.5746,-121.2004"/>
<polygon fill="#b8860b" stroke="#b8860b" stroke-width="1.5" points="1167.5633,-124.5582 1176.2359,-118.4723 1165.6611,-117.8216 1167.5633,-124.5582"/>
<text text-anchor="start" x="1043" y="-164.8" font-family="Times,serif" font-size="14.00" fill="#0a5040"> true</text>
</g>
<!-- state_10 -->
<g id="state_10" class="node">
<title>state_10</title>
<path fill="#fffff0" stroke="#b8860b" stroke-width="1.5" d="M1302,-210.5C1302,-210.5 1190,-210.5 1190,-210.5 1184,-210.5 1178,-204.5 1178,-198.5 1178,-198.5 1178,-165.5 1178,-165.5 1178,-159.5 1184,-153.5 1190,-153.5 1190,-153.5 1302,-153.5 1302,-153.5 1308,-153.5 1314,-159.5 1314,-165.5 1314,-165.5 1314,-198.5 1314,-198.5 1314,-204.5 1308,-210.5 1302,-210.5"/>
<path fill="none" stroke="#b8860b" stroke-width="1.5" d="M1306,-214.5C1306,-214.5 1186,-214.5 1186,-214.5 1180,-214.5 1174,-208.5 1174,-202.5 1174,-202.5 1174,-161.5 1174,-161.5 1174,-155.5 1180,-149.5 1186,-149.5 1186,-149.5 1306,-149.5 1306,-149.5 1312,-149.5 1318,-155.5 1318,-161.5 1318,-161.5 1318,-202.5 1318,-202.5 1318,-208.5 1312,-214.5 1306,-214.5"/>
<g id="a_state_10_title"><a xlink:href="#" xlink:title="state_10_title">
<text text-anchor="start" x="1219.5" y="-189.6" font-family="Calibri" font-weight="bold" font-size="13.00" fill="#8b4513">Estado </text>
<text text-anchor="start" x="1258.5" y="-189.6" font-family="Calibri" font-weight="bold" font-size="13.00" fill="#8b4513">10</text>
</a>
</g>
<g id="a_state_10_item_1"><a xlink:href="#" xlink:title="state_10_item_1">
<text text-anchor="start" x="1189" y="-168.8" font-family="Times,serif" font-size="14.00" fill="#bc1f29">bool_exp </text>
<text text-anchor="start" x="1244" y="-168.8" font-family="Times,serif" font-size="14.00" fill="#0a5040">→ </text>
<text text-anchor="start" x="1263" y="-168.8" font-family="Times,serif" font-size="14.00" fill="#0a5040"> false</text>
<text text-anchor="start" x="1293" y="-168.8" font-family="Times,serif" font-size="14.00" fill="#f5a70a"> •</text>
</a>
</g>
</g>
<!-- state_7&#45;&gt;state_10 -->
<g id="trans_9" class="edge">
<title>state_7&#45;&gt;state_10</title>
<path fill="none" stroke="#b8860b" stroke-width="1.5" d="M1010.1266,-199.9536C1062.1199,-195.9961 1118.9011,-191.6742 1163.722,-188.2626"/>
<polygon fill="#b8860b" stroke="#b8860b" stroke-width="1.5" points="1164.2648,-191.7315 1173.9703,-187.4826 1163.7335,-184.7517 1164.2648,-191.7315"/>
<text text-anchor="start" x="1040.5" y="-201.8" font-family="Times,serif" font-size="14.00" fill="#0a5040"> false</text>
</g>
<!-- state_11 -->
<g id="state_11" class="node">
<title>state_11</title>
<path fill="#fffff0" stroke="#b8860b" stroke-width="1.5" d="M1748,-321C1748,-321 1482,-321 1482,-321 1476,-321 1470,-315 1470,-309 1470,-309 1470,-213 1470,-213 1470,-207 1476,-201 1482,-201 1482,-201 1748,-201 1748,-201 1754,-201 1760,-207 1760,-213 1760,-213 1760,-309 1760,-309 1760,-315 1754,-321 1748,-321"/>
<g id="a_state_11_title"><a xlink:href="#" xlink:title="state_11_title">
<text text-anchor="start" x="1588.5" y="-300.6" font-family="Calibri" font-weight="bold" font-size="13.00" fill="#8b4513">Estado </text>
<text text-anchor="start" x="1627.5" y="-300.6" font-family="Calibri" font-weight="bold" font-size="13.00" fill="#8b4513">11</text>
</a>
</g>
<g id="a_state_11_item_1"><a xlink:href="#" xlink:title="state_11_item_1">
<text text-anchor="start" x="1481" y="-279.8" font-family="Times,serif" font-size="14.00" fill="#bc1f29">if_stmt </text>
<text text-anchor="start" x="1524" y="-279.8" font-family="Times,serif" font-size="14.00" fill="#0a5040">→ </text>
<text text-anchor="start" x="1543" y="-279.8" font-family="Times,serif" font-size="14.00" fill="#0a5040"> if</text>
<text text-anchor="start" x="1556" y="-279.8" font-family="Times,serif" font-size="14.00" fill="#0a5040"> (</text>
<text text-anchor="start" x="1565" y="-279.8" font-family="Times,serif" font-size="14.00" fill="#bc1f29"> bool_exp</text>
<text text-anchor="start" x="1620" y="-279.8" font-family="Times,serif" font-size="14.00" fill="#0a5040"> )</text>
<text text-anchor="start" x="1629" y="-279.8" font-family="Times,serif" font-size="14.00" fill="#f5a70a"> •</text>
<text text-anchor="start" x="1639" y="-279.8" font-family="Times,serif" font-size="14.00" fill="#bc1f29"> statement</text>
<text text-anchor="start" x="1696" y="-279.8" font-family="Times,serif" font-size="14.00" fill="#bc1f29"> else_part</text>
</a>
</g>
<g id="a_state_11_item_2"><a xlink:href="#" xlink:title="state_11_item_2">
<text text-anchor="start" x="1481" y="-258.8" font-family="Times,serif" font-size="14.00" fill="#bc1f29">statement </text>
<text text-anchor="start" x="1538" y="-258.8" font-family="Times,serif" font-size="14.00" fill="#0a5040">→ </text>
<text text-anchor="start" x="1557" y="-258.8" font-family="Times,serif" font-size="14.00" fill="#f5a70a"> •</text>
<text text-anchor="start" x="1567" y="-258.8" font-family="Times,serif" font-size="14.00" fill="#bc1f29"> if_stmt</text>
</a>
</g>
<g id="a_state_11_item_3"><a xlink:href="#" xlink:title="state_11_item_3">
<text text-anchor="start" x="1481" y="-237.8" font-family="Times,serif" font-size="14.00" fill="#bc1f29">statement </text>
<text text-anchor="start" x="1538" y="-237.8" font-family="Times,serif" font-size="14.00" fill="#0a5040">→ </text>
<text text-anchor="start" x="1557" y="-237.8" font-family="Times,serif" font-size="14.00" fill="#f5a70a"> •</text>
<text text-anchor="start" x="1567" y="-237.8" font-family="Times,serif" font-size="14.00" fill="#0a5040"> other</text>
</a>
</g>
<g id="a_state_11_item_4"><a xlink:href="#" xlink:title="state_11_item_4">
<text text-anchor="start" x="1481" y="-216.8" font-family="Times,serif" font-size="14.00" fill="#bc1f29">if_stmt </text>
<text text-anchor="start" x="1524" y="-216.8" font-family="Times,serif" font-size="14.00" fill="#0a5040">→ </text>
<text text-anchor="start" x="1543" y="-216.8" font-family="Times,serif" font-size="14.00" fill="#f5a70a"> •</text>
<text text-anchor="start" x="1553" y="-216.8" font-family="Times,serif" font-size="14.00" fill="#0a5040"> if</text>
<text text-anchor="start" x="1566" y="-216.8" font-family="Times,serif" font-size="14.00" fill="#0a5040"> (</text>
<text text-anchor="start" x="1575" y="-216.8" font-family="Times,serif" font-size="14.00" fill="#bc1f29"> bool_exp</text>
<text text-anchor="start" x="1630" y="-216.8" font-family="Times,serif" font-size="14.00" fill="#0a5040"> )</text>
<text text-anchor="start" x="1639" y="-216.8" font-family="Times,serif" font-size="14.00" fill="#bc1f29"> statement</text>
<text text-anchor="start" x="1696" y="-216.8" font-family="Times,serif" font-size="14.00" fill="#bc1f29"> else_part</text>
</a>
</g>
</g>
<!-- state_8&#45;&gt;state_11 -->
<g id="trans_10" class="edge">
<title>state_8&#45;&gt;state_11</title>
<path fill="none" stroke="#b8860b" stroke-width="1.5" d="M1391.0441,-261C1413.6322,-261 1437.0479,-261 1459.8498,-261"/>
<polygon fill="#b8860b" stroke="#b8860b" stroke-width="1.5" points="1459.9277,-264.5001 1469.9277,-261 1459.9276,-257.5001 1459.9277,-264.5001"/>
<text text-anchor="start" x="1426" y="-264.8" font-family="Times,serif" font-size="14.00" fill="#0a5040"> )</text>
</g>
<!-- state_11&#45;&gt;state_5 -->
<g id="trans_14" class="edge">
<title>state_11&#45;&gt;state_5</title>
<path fill="none" stroke="#b8860b" stroke-width="1.5" d="M1469.9556,-289.2548C1443.7719,-293.3125 1416.6467,-296.84 1391,-299 1093.5524,-324.051 1016.1486,-307.3984 720,-270 708.0084,-268.4857 695.6268,-266.7324 683.1974,-264.8362"/>
<polygon fill="#b8860b" stroke="#b8860b" stroke-width="1.5" points="683.6444,-261.3637 673.2256,-263.2867 682.5696,-268.2807 683.6444,-261.3637"/>
<text text-anchor="start" x="1049" y="-312.8" font-family="Times,serif" font-size="14.00" fill="#0a5040"> if</text>
</g>
<!-- state_11&#45;&gt;state_3 -->
<g id="trans_12" class="edge">
<title>state_11&#45;&gt;state_3</title>
<path fill="none" stroke="#b8860b" stroke-width="1.5" d="M1760.073,-293.792C1790.616,-299.5286 1822.7489,-304.7066 1853,-308 2135.2958,-338.7329 2472.2393,-334.494 2630.075,-330.1325"/>
<polygon fill="#b8860b" stroke="#b8860b" stroke-width="1.5" points="2630.313,-333.6272 2640.2098,-329.8454 2630.1147,-326.63 2630.313,-333.6272"/>
<text text-anchor="start" x="2166" y="-333.8" font-family="Times,serif" font-size="14.00" fill="#bc1f29"> if_stmt</text>
</g>
<!-- state_11&#45;&gt;state_4 -->
<g id="trans_13" class="edge">
<title>state_11&#45;&gt;state_4</title>
<path fill="none" stroke="#b8860b" stroke-width="1.5" d="M1760.2656,-217.8789C1790.8675,-208.906 1822.9748,-199.5741 1853,-191 2021.0709,-143.0053 2059.2951,-112.9133 2232,-86 2372.3821,-64.1237 2538.0737,-62.7458 2635.7927,-64.4041"/>
<polygon fill="#b8860b" stroke="#b8860b" stroke-width="1.5" points="2635.8449,-67.9056 2645.9078,-64.5908 2635.9742,-60.9068 2635.8449,-67.9056"/>
<text text-anchor="start" x="2171.5" y="-102.8" font-family="Times,serif" font-size="14.00" fill="#0a5040"> other</text>
</g>
<!-- state_12 -->
<g id="state_12" class="node">
<title>state_12</title>
<path fill="#f5f5dc" stroke="#b8860b" stroke-width="1.5" stroke-dasharray="5,2" d="M2131,-298.5C2131,-298.5 1865,-298.5 1865,-298.5 1859,-298.5 1853,-292.5 1853,-286.5 1853,-286.5 1853,-211.5 1853,-211.5 1853,-205.5 1859,-199.5 1865,-199.5 1865,-199.5 2131,-199.5 2131,-199.5 2137,-199.5 2143,-205.5 2143,-211.5 2143,-211.5 2143,-286.5 2143,-286.5 2143,-292.5 2137,-298.5 2131,-298.5"/>
<g id="a_state_12_title"><a xlink:href="#" xlink:title="state_12_title">
<text text-anchor="start" x="1971.5" y="-277.6" font-family="Calibri" font-weight="bold" font-size="13.00" fill="#8b4513">Estado </text>
<text text-anchor="start" x="2010.5" y="-277.6" font-family="Calibri" font-weight="bold" font-size="13.00" fill="#8b4513">12</text>
</a>
</g>
<g id="a_state_12_item_1"><a xlink:href="#" xlink:title="state_12_item_1">
<text text-anchor="start" x="1864" y="-256.8" font-family="Times,serif" font-size="14.00" fill="#bc1f29">if_stmt </text>
<text text-anchor="start" x="1907" y="-256.8" font-family="Times,serif" font-size="14.00" fill="#0a5040">→ </text>
<text text-anchor="start" x="1926" y="-256.8" font-family="Times,serif" font-size="14.00" fill="#0a5040"> if</text>
<text text-anchor="start" x="1939" y="-256.8" font-family="Times,serif" font-size="14.00" fill="#0a5040"> (</text>
<text text-anchor="start" x="1948" y="-256.8" font-family="Times,serif" font-size="14.00" fill="#bc1f29"> bool_exp</text>
<text text-anchor="start" x="2003" y="-256.8" font-family="Times,serif" font-size="14.00" fill="#0a5040"> )</text>
<text text-anchor="start" x="2012" y="-256.8" font-family="Times,serif" font-size="14.00" fill="#bc1f29"> statement</text>
<text text-anchor="start" x="2069" y="-256.8" font-family="Times,serif" font-size="14.00" fill="#f5a70a"> •</text>
<text text-anchor="start" x="2079" y="-256.8" font-family="Times,serif" font-size="14.00" fill="#bc1f29"> else_part</text>
</a>
</g>
<g id="a_state_12_item_2"><a xlink:href="#" xlink:title="state_12_item_2">
<text text-anchor="start" x="1864" y="-235.8" font-family="Times,serif" font-size="14.00" fill="#bc1f29">else_part </text>
<text text-anchor="start" x="1917" y="-235.8" font-family="Times,serif" font-size="14.00" fill="#0a5040">→ </text>
<text text-anchor="start" x="1936" y="-235.8" font-family="Times,serif" font-size="14.00" fill="#f5a70a"> •</text>
<text text-anchor="start" x="1946" y="-235.8" font-family="Times,serif" font-size="14.00" fill="#0a5040"> else</text>
<text text-anchor="start" x="1971" y="-235.8" font-family="Times,serif" font-size="14.00" fill="#bc1f29"> statement</text>
</a>
</g>
<g id="a_state_12_item_3"><a xlink:href="#" xlink:title="state_12_item_3">
<text text-anchor="start" x="1864" y="-214.8" font-family="Times,serif" font-size="14.00" fill="#bc1f29">else_part </text>
<text text-anchor="start" x="1917" y="-214.8" font-family="Times,serif" font-size="14.00" fill="#0a5040">→ </text>
<text text-anchor="start" x="1936" y="-214.8" font-family="Times,serif" font-size="14.00" fill="#f5a70a"> •</text>
</a>
</g>
</g>
<!-- state_11&#45;&gt;state_12 -->
<g id="trans_11" class="edge">
<title>state_11&#45;&gt;state_12</title>
<path fill="none" stroke="#b8860b" stroke-width="1.5" d="M1760.0689,-256.4548C1787.1284,-255.6069 1815.5042,-254.7179 1842.853,-253.861"/>
<polygon fill="#b8860b" stroke="#b8860b" stroke-width="1.5" points="1842.9926,-257.3584 1852.878,-253.5469 1842.7733,-250.3619 1842.9926,-257.3584"/>
<text text-anchor="start" x="1778" y="-258.8" font-family="Times,serif" font-size="14.00" fill="#bc1f29"> statement</text>
</g>
<!-- state_14 -->
<g id="state_14" class="node">
<title>state_14</title>
<path fill="#fffff0" stroke="#b8860b" stroke-width="1.5" d="M2514,-215C2514,-215 2248,-215 2248,-215 2242,-215 2236,-209 2236,-203 2236,-203 2236,-107 2236,-107 2236,-101 2242,-95 2248,-95 2248,-95 2514,-95 2514,-95 2520,-95 2526,-101 2526,-107 2526,-107 2526,-203 2526,-203 2526,-209 2520,-215 2514,-215"/>
<g id="a_state_14_title"><a xlink:href="#" xlink:title="state_14_title">
<text text-anchor="start" x="2354.5" y="-194.6" font-family="Calibri" font-weight="bold" font-size="13.00" fill="#8b4513">Estado </text>
<text text-anchor="start" x="2393.5" y="-194.6" font-family="Calibri" font-weight="bold" font-size="13.00" fill="#8b4513">14</text>
</a>
</g>
<g id="a_state_14_item_1"><a xlink:href="#" xlink:title="state_14_item_1">
<text text-anchor="start" x="2247" y="-173.8" font-family="Times,serif" font-size="14.00" fill="#bc1f29">else_part </text>
<text text-anchor="start" x="2300" y="-173.8" font-family="Times,serif" font-size="14.00" fill="#0a5040">→ </text>
<text text-anchor="start" x="2319" y="-173.8" font-family="Times,serif" font-size="14.00" fill="#0a5040"> else</text>
<text text-anchor="start" x="2344" y="-173.8" font-family="Times,serif" font-size="14.00" fill="#f5a70a"> •</text>
<text text-anchor="start" x="2354" y="-173.8" font-family="Times,serif" font-size="14.00" fill="#bc1f29"> statement</text>
</a>
</g>
<g id="a_state_14_item_2"><a xlink:href="#" xlink:title="state_14_item_2">
<text text-anchor="start" x="2247" y="-152.8" font-family="Times,serif" font-size="14.00" fill="#bc1f29">statement </text>
<text text-anchor="start" x="2304" y="-152.8" font-family="Times,serif" font-size="14.00" fill="#0a5040">→ </text>
<text text-anchor="start" x="2323" y="-152.8" font-family="Times,serif" font-size="14.00" fill="#f5a70a"> •</text>
<text text-anchor="start" x="2333" y="-152.8" font-family="Times,serif" font-size="14.00" fill="#bc1f29"> if_stmt</text>
</a>
</g>
<g id="a_state_14_item_3"><a xlink:href="#" xlink:title="state_14_item_3">
<text text-anchor="start" x="2247" y="-131.8" font-family="Times,serif" font-size="14.00" fill="#bc1f29">statement </text>
<text text-anchor="start" x="2304" y="-131.8" font-family="Times,serif" font-size="14.00" fill="#0a5040">→ </text>
<text text-anchor="start" x="2323" y="-131.8" font-family="Times,serif" font-size="14.00" fill="#f5a70a"> •</text>
<text text-anchor="start" x="2333" y="-131.8" font-family="Times,serif" font-size="14.00" fill="#0a5040"> other</text>
</a>
</g>
<g id="a_state_14_item_4"><a xlink:href="#" xlink:title="state_14_item_4">
<text text-anchor="start" x="2247" y="-110.8" font-family="Times,serif" font-size="14.00" fill="#bc1f29">if_stmt </text>
<text text-anchor="start" x="2290" y="-110.8" font-family="Times,serif" font-size="14.00" fill="#0a5040">→ </text>
<text text-anchor="start" x="2309" y="-110.8" font-family="Times,serif" font-size="14.00" fill="#f5a70a"> •</text>
<text text-anchor="start" x="2319" y="-110.8" font-family="Times,serif" font-size="14.00" fill="#0a5040"> if</text>
<text text-anchor="start" x="2332" y="-110.8" font-family="Times,serif" font-size="14.00" fill="#0a5040"> (</text>
<text text-anchor="start" x="2341" y="-110.8" font-family="Times,serif" font-size="14.00" fill="#bc1f29"> bool_exp</text>
<text text-anchor="start" x="2396" y="-110.8" font-family="Times,serif" font-size="14.00" fill="#0a5040"> )</text>
<text text-anchor="start" x="2405" y="-110.8" font-family="Times,serif" font-size="14.00" fill="#bc1f29"> statement</text>
<text text-anchor="start" x="2462" y="-110.8" font-family="Times,serif" font-size="14.00" fill="#bc1f29"> else_part</text>
</a>
</g>
</g>
<!-- state_14&#45;&gt;state_5 -->
<g id="trans_20" class="edge">
<title>state_14&#45;&gt;state_5</title>
<path fill="none" stroke="#b8860b" stroke-width="1.5" d="M2252.3488,-94.9577C2179.3797,-66.2307 2085.4295,-38 1998,-38 865,-38 865,-38 865,-38 738.6874,-38 617.8907,-142.6831 561.3703,-199.8151"/>
<polygon fill="#b8860b" stroke="#b8860b" stroke-width="1.5" points="558.6329,-197.6087 554.1513,-207.2091 563.6416,-202.4989 558.6329,-197.6087"/>
<text text-anchor="start" x="1424" y="-41.8" font-family="Times,serif" font-size="14.00" fill="#0a5040"> if</text>
</g>
<!-- state_14&#45;&gt;state_3 -->
<g id="trans_18" class="edge">
<title>state_14&#45;&gt;state_3</title>
<path fill="none" stroke="#b8860b" stroke-width="1.5" d="M2510.0236,-215.0914C2516.7965,-218.4093 2523.4889,-221.7258 2530,-225 2571.0102,-245.6228 2616.3207,-269.8887 2652.4051,-289.5775"/>
<polygon fill="#b8860b" stroke="#b8860b" stroke-width="1.5" points="2650.9188,-292.7537 2661.3721,-294.4794 2654.2765,-286.6116 2650.9188,-292.7537"/>
<text text-anchor="start" x="2555" y="-266.8" font-family="Times,serif" font-size="14.00" fill="#bc1f29"> if_stmt</text>
</g>
<!-- state_14&#45;&gt;state_4 -->
<g id="trans_19" class="edge">
<title>state_14&#45;&gt;state_4</title>
<path fill="none" stroke="#b8860b" stroke-width="1.5" d="M2526.2418,-117.2971C2563.5367,-107.6158 2602.4315,-97.5193 2635.5018,-88.9346"/>
<polygon fill="#b8860b" stroke="#b8860b" stroke-width="1.5" points="2636.77,-92.2215 2645.5698,-86.3211 2635.0112,-85.4461 2636.77,-92.2215"/>
<text text-anchor="start" x="2560.5" y="-114.8" font-family="Times,serif" font-size="14.00" fill="#0a5040"> other</text>
</g>
<!-- state_15 -->
<g id="state_15" class="node">
<title>state_15</title>
<path fill="#fffff0" stroke="#b8860b" stroke-width="1.5" d="M2801,-183.5C2801,-183.5 2639,-183.5 2639,-183.5 2633,-183.5 2627,-177.5 2627,-171.5 2627,-171.5 2627,-138.5 2627,-138.5 2627,-132.5 2633,-126.5 2639,-126.5 2639,-126.5 2801,-126.5 2801,-126.5 2807,-126.5 2813,-132.5 2813,-138.5 2813,-138.5 2813,-171.5 2813,-171.5 2813,-177.5 2807,-183.5 2801,-183.5"/>
<path fill="none" stroke="#b8860b" stroke-width="1.5" d="M2805,-187.5C2805,-187.5 2635,-187.5 2635,-187.5 2629,-187.5 2623,-181.5 2623,-175.5 2623,-175.5 2623,-134.5 2623,-134.5 2623,-128.5 2629,-122.5 2635,-122.5 2635,-122.5 2805,-122.5 2805,-122.5 2811,-122.5 2817,-128.5 2817,-134.5 2817,-134.5 2817,-175.5 2817,-175.5 2817,-181.5 2811,-187.5 2805,-187.5"/>
<g id="a_state_15_title"><a xlink:href="#" xlink:title="state_15_title">
<text text-anchor="start" x="2693.5" y="-162.6" font-family="Calibri" font-weight="bold" font-size="13.00" fill="#8b4513">Estado </text>
<text text-anchor="start" x="2732.5" y="-162.6" font-family="Calibri" font-weight="bold" font-size="13.00" fill="#8b4513">15</text>
</a>
</g>
<g id="a_state_15_item_1"><a xlink:href="#" xlink:title="state_15_item_1">
<text text-anchor="start" x="2638" y="-141.8" font-family="Times,serif" font-size="14.00" fill="#bc1f29">else_part </text>
<text text-anchor="start" x="2691" y="-141.8" font-family="Times,serif" font-size="14.00" fill="#0a5040">→ </text>
<text text-anchor="start" x="2710" y="-141.8" font-family="Times,serif" font-size="14.00" fill="#0a5040"> else</text>
<text text-anchor="start" x="2735" y="-141.8" font-family="Times,serif" font-size="14.00" fill="#bc1f29"> statement</text>
<text text-anchor="start" x="2792" y="-141.8" font-family="Times,serif" font-size="14.00" fill="#f5a70a"> •</text>
</a>
</g>
</g>
<!-- state_14&#45;&gt;state_15 -->
<g id="trans_17" class="edge">
<title>state_14&#45;&gt;state_15</title>
<path fill="none" stroke="#b8860b" stroke-width="1.5" d="M2526.2418,-155C2555.0841,-155 2584.8834,-155 2612.2054,-155"/>
<polygon fill="#b8860b" stroke="#b8860b" stroke-width="1.5" points="2612.5484,-158.5001 2622.5484,-155 2612.5484,-151.5001 2612.5484,-158.5001"/>
<text text-anchor="start" x="2548" y="-158.8" font-family="Times,serif" font-size="14.00" fill="#bc1f29"> statement</text>
</g>
<!-- state_13 -->
<g id="state_13" class="node">
<title>state_13</title>
<path fill="#fffff0" stroke="#b8860b" stroke-width="1.5" d="M2514,-294.5C2514,-294.5 2248,-294.5 2248,-294.5 2242,-294.5 2236,-288.5 2236,-282.5 2236,-282.5 2236,-249.5 2236,-249.5 2236,-243.5 2242,-237.5 2248,-237.5 2248,-237.5 2514,-237.5 2514,-237.5 2520,-237.5 2526,-243.5 2526,-249.5 2526,-249.5 2526,-282.5 2526,-282.5 2526,-288.5 2520,-294.5 2514,-294.5"/>
<path fill="none" stroke="#b8860b" stroke-width="1.5" d="M2518,-298.5C2518,-298.5 2244,-298.5 2244,-298.5 2238,-298.5 2232,-292.5 2232,-286.5 2232,-286.5 2232,-245.5 2232,-245.5 2232,-239.5 2238,-233.5 2244,-233.5 2244,-233.5 2518,-233.5 2518,-233.5 2524,-233.5 2530,-239.5 2530,-245.5 2530,-245.5 2530,-286.5 2530,-286.5 2530,-292.5 2524,-298.5 2518,-298.5"/>
<g id="a_state_13_title"><a xlink:href="#" xlink:title="state_13_title">
<text text-anchor="start" x="2354.5" y="-273.6" font-family="Calibri" font-weight="bold" font-size="13.00" fill="#8b4513">Estado </text>
<text text-anchor="start" x="2393.5" y="-273.6" font-family="Calibri" font-weight="bold" font-size="13.00" fill="#8b4513">13</text>
</a>
</g>
<g id="a_state_13_item_1"><a xlink:href="#" xlink:title="state_13_item_1">
<text text-anchor="start" x="2247" y="-252.8" font-family="Times,serif" font-size="14.00" fill="#bc1f29">if_stmt </text>
<text text-anchor="start" x="2290" y="-252.8" font-family="Times,serif" font-size="14.00" fill="#0a5040">→ </text>
<text text-anchor="start" x="2309" y="-252.8" font-family="Times,serif" font-size="14.00" fill="#0a5040"> if</text>
<text text-anchor="start" x="2322" y="-252.8" font-family="Times,serif" font-size="14.00" fill="#0a5040"> (</text>
<text text-anchor="start" x="2331" y="-252.8" font-family="Times,serif" font-size="14.00" fill="#bc1f29"> bool_exp</text>
<text text-anchor="start" x="2386" y="-252.8" font-family="Times,serif" font-size="14.00" fill="#0a5040"> )</text>
<text text-anchor="start" x="2395" y="-252.8" font-family="Times,serif" font-size="14.00" fill="#bc1f29"> statement</text>
<text text-anchor="start" x="2452" y="-252.8" font-family="Times,serif" font-size="14.00" fill="#bc1f29"> else_part</text>
<text text-anchor="start" x="2505" y="-252.8" font-family="Times,serif" font-size="14.00" fill="#f5a70a"> •</text>
</a>
</g>
</g>
<!-- state_12&#45;&gt;state_14 -->
<g id="trans_16" class="edge">
<title>state_12&#45;&gt;state_14</title>
<path fill="none" stroke="#b8860b" stroke-width="1.5" d="M2143.0689,-213.3956C2170.1284,-206.7544 2198.5042,-199.7901 2225.853,-193.0779"/>
<polygon fill="#b8860b" stroke="#b8860b" stroke-width="1.5" points="2227.0005,-196.4002 2235.878,-190.6174 2225.332,-189.6019 2227.0005,-196.4002"/>
<text text-anchor="start" x="2175" y="-210.8" font-family="Times,serif" font-size="14.00" fill="#0a5040"> else</text>
</g>
<!-- state_12&#45;&gt;state_13 -->
<g id="trans_15" class="edge">
<title>state_12&#45;&gt;state_13</title>
<path fill="none" stroke="#b8860b" stroke-width="1.5" d="M2143.0689,-255.4391C2168.6761,-256.5757 2195.4621,-257.7646 2221.441,-258.9177"/>
<polygon fill="#b8860b" stroke="#b8860b" stroke-width="1.5" points="2221.5938,-262.4279 2231.7392,-259.3748 2221.9043,-255.4348 2221.5938,-262.4279"/>
<text text-anchor="start" x="2161" y="-261.8" font-family="Times,serif" font-size="14.00" fill="#bc1f29"> else_part</text>
</g>
</g>
</svg>
