<?xml version="1.0" encoding="UTF-8" standalone="no"?>
<!DOCTYPE svg PUBLIC "-//W3C//DTD SVG 1.1//EN"
 "http://www.w3.org/Graphics/SVG/1.1/DTD/svg11.dtd">
<!-- Generated by graphviz version 2.40.1 (20161225.0304)
 -->
<!-- Title: NFA Pages: 1 -->
<svg width="944pt" height="440pt"
 viewBox="0.00 0.00 944.00 439.50" xmlns="http://www.w3.org/2000/svg" xmlns:xlink="http://www.w3.org/1999/xlink">
<g id="graph0" class="graph" transform="scale(1 1) rotate(0) translate(4 435.5)">
<title>NFA</title>
<!-- state_10004 -->
<g id="state_10004" class="node">
<title>state_10004</title>
<path fill="#fffff0" stroke="#b8860b" stroke-width="1.5" d="M356.5,-295C356.5,-295 298.5,-295 298.5,-295 292.5,-295 286.5,-289 286.5,-283 286.5,-283 286.5,-256 286.5,-256 286.5,-250 292.5,-244 298.5,-244 298.5,-244 356.5,-244 356.5,-244 362.5,-244 368.5,-250 368.5,-256 368.5,-256 368.5,-283 368.5,-283 368.5,-289 362.5,-295 356.5,-295"/>
<g id="a_state_10004_title"><a xlink:href="#" xlink:title="state_10004_title">
<text text-anchor="start" x="304.5" y="-277.1" font-family="Calibri" font-weight="bold" font-size="13.00" fill="#8b4513">Estado </text>
<text text-anchor="start" x="343.5" y="-277.1" font-family="Calibri" font-weight="bold" font-size="13.00" fill="#8b4513">4</text>
</a>
</g>
<g id="a_state_10004_item_1"><a xlink:href="#" xlink:title="state_10004_item_1">
<text text-anchor="start" x="294.5" y="-256.3" font-family="Times,serif" font-size="14.00" fill="#bc1f29">L </text>
<text text-anchor="start" x="307.5" y="-256.3" font-family="Times,serif" font-size="14.00" fill="#0a5040">→ </text>
<text text-anchor="start" x="326.5" y="-256.3" font-family="Times,serif" font-size="14.00" fill="#f5a70a"> •</text>
<text text-anchor="start" x="336.5" y="-256.3" font-family="Times,serif" font-size="14.00" fill="#0a5040"> *</text>
<text text-anchor="start" x="347.5" y="-256.3" font-family="Times,serif" font-size="14.00" fill="#bc1f29"> R</text>
</a>
</g>
</g>
<!-- state_10011 -->
<g id="state_10011" class="node">
<title>state_10011</title>
<path fill="#fffff0" stroke="#b8860b" stroke-width="1.5" d="M502.5,-295C502.5,-295 444.5,-295 444.5,-295 438.5,-295 432.5,-289 432.5,-283 432.5,-283 432.5,-256 432.5,-256 432.5,-250 438.5,-244 444.5,-244 444.5,-244 502.5,-244 502.5,-244 508.5,-244 514.5,-250 514.5,-256 514.5,-256 514.5,-283 514.5,-283 514.5,-289 508.5,-295 502.5,-295"/>
<g id="a_state_10011_title"><a xlink:href="#" xlink:title="state_10011_title">
<text text-anchor="start" x="447" y="-277.1" font-family="Calibri" font-weight="bold" font-size="13.00" fill="#8b4513">Estado </text>
<text text-anchor="start" x="486" y="-277.1" font-family="Calibri" font-weight="bold" font-size="13.00" fill="#8b4513">11</text>
</a>
</g>
<g id="a_state_10011_item_1"><a xlink:href="#" xlink:title="state_10011_item_1">
<text text-anchor="start" x="440.5" y="-256.3" font-family="Times,serif" font-size="14.00" fill="#bc1f29">L </text>
<text text-anchor="start" x="453.5" y="-256.3" font-family="Times,serif" font-size="14.00" fill="#0a5040">→ </text>
<text text-anchor="start" x="472.5" y="-256.3" font-family="Times,serif" font-size="14.00" fill="#0a5040"> *</text>
<text text-anchor="start" x="483.5" y="-256.3" font-family="Times,serif" font-size="14.00" fill="#f5a70a"> •</text>
<text text-anchor="start" x="493.5" y="-256.3" font-family="Times,serif" font-size="14.00" fill="#bc1f29"> R</text>
</a>
</g>
</g>
<!-- state_10004&#45;&gt;state_10011 -->
<g id="trans_9" class="edge">
<title>state_10004&#45;&gt;state_10011</title>
<path fill="none" stroke="#b8860b" stroke-width="1.5" d="M368.5577,-269.5C385.2673,-269.5 404.7583,-269.5 422.3762,-269.5"/>
<polygon fill="#b8860b" stroke="#b8860b" stroke-width="1.5" points="422.4978,-273.0001 432.4978,-269.5 422.4978,-266.0001 422.4978,-273.0001"/>
<text text-anchor="start" x="395" y="-273.3" font-family="Times,serif" font-size="14.00" fill="#0a5040"> *</text>
</g>
<!-- state_10005 -->
<g id="state_10005" class="node">
<title>state_10005</title>
<path fill="#fffff0" stroke="#b8860b" stroke-width="1.5" d="M789,-392C789,-392 740,-392 740,-392 734,-392 728,-386 728,-380 728,-380 728,-353 728,-353 728,-347 734,-341 740,-341 740,-341 789,-341 789,-341 795,-341 801,-347 801,-353 801,-353 801,-380 801,-380 801,-386 795,-392 789,-392"/>
<g id="a_state_10005_title"><a xlink:href="#" xlink:title="state_10005_title">
<text text-anchor="start" x="742" y="-374.1" font-family="Calibri" font-weight="bold" font-size="13.00" fill="#8b4513">Estado </text>
<text text-anchor="start" x="781" y="-374.1" font-family="Calibri" font-weight="bold" font-size="13.00" fill="#8b4513">5</text>
</a>
</g>
<g id="a_state_10005_item_1"><a xlink:href="#" xlink:title="state_10005_item_1">
<text text-anchor="start" x="736.5" y="-353.3" font-family="Times,serif" font-size="14.00" fill="#bc1f29">L </text>
<text text-anchor="start" x="749.5" y="-353.3" font-family="Times,serif" font-size="14.00" fill="#0a5040">→ </text>
<text text-anchor="start" x="768.5" y="-353.3" font-family="Times,serif" font-size="14.00" fill="#f5a70a"> •</text>
<text text-anchor="start" x="778.5" y="-353.3" font-family="Times,serif" font-size="14.00" fill="#0a5040"> id</text>
</a>
</g>
</g>
<!-- state_10012 -->
<g id="state_10012" class="node">
<title>state_10012</title>
<path fill="#f5f5dc" stroke="#b8860b" stroke-width="1.5" d="M920,-392C920,-392 871,-392 871,-392 865,-392 859,-386 859,-380 859,-380 859,-353 859,-353 859,-347 865,-341 871,-341 871,-341 920,-341 920,-341 926,-341 932,-347 932,-353 932,-353 932,-380 932,-380 932,-386 926,-392 920,-392"/>
<path fill="none" stroke="#b8860b" stroke-width="1.5" d="M924,-396C924,-396 867,-396 867,-396 861,-396 855,-390 855,-384 855,-384 855,-349 855,-349 855,-343 861,-337 867,-337 867,-337 924,-337 924,-337 930,-337 936,-343 936,-349 936,-349 936,-384 936,-384 936,-390 930,-396 924,-396"/>
<g id="a_state_10012_title"><a xlink:href="#" xlink:title="state_10012_title">
<text text-anchor="start" x="869.5" y="-374.1" font-family="Calibri" font-weight="bold" font-size="13.00" fill="#8b4513">Estado </text>
<text text-anchor="start" x="908.5" y="-374.1" font-family="Calibri" font-weight="bold" font-size="13.00" fill="#8b4513">12</text>
</a>
</g>
<g id="a_state_10012_item_1"><a xlink:href="#" xlink:title="state_10012_item_1">
<text text-anchor="start" x="867.5" y="-353.3" font-family="Times,serif" font-size="14.00" fill="#bc1f29">L </text>
<text text-anchor="start" x="880.5" y="-353.3" font-family="Times,serif" font-size="14.00" fill="#0a5040">→ </text>
<text text-anchor="start" x="899.5" y="-353.3" font-family="Times,serif" font-size="14.00" fill="#0a5040"> id</text>
<text text-anchor="start" x="914.5" y="-353.3" font-family="Times,serif" font-size="14.00" fill="#f5a70a"> •</text>
</a>
</g>
</g>
<!-- state_10005&#45;&gt;state_10012 -->
<g id="trans_10" class="edge">
<title>state_10005&#45;&gt;state_10012</title>
<path fill="none" stroke="#b8860b" stroke-width="1.5" d="M801.3394,-366.5C814.7366,-366.5 830.1264,-366.5 844.5292,-366.5"/>
<polygon fill="#b8860b" stroke="#b8860b" stroke-width="1.5" points="844.7997,-370.0001 854.7997,-366.5 844.7996,-363.0001 844.7997,-370.0001"/>
<text text-anchor="start" x="822" y="-370.3" font-family="Times,serif" font-size="14.00" fill="#0a5040"> id</text>
</g>
<!-- state_10007 -->
<g id="state_10007" class="node">
<title>state_10007</title>
<path fill="#fffff0" stroke="#b8860b" stroke-width="1.5" d="M211.5,-72C211.5,-72 151.5,-72 151.5,-72 145.5,-72 139.5,-66 139.5,-60 139.5,-60 139.5,-33 139.5,-33 139.5,-27 145.5,-21 151.5,-21 151.5,-21 211.5,-21 211.5,-21 217.5,-21 223.5,-27 223.5,-33 223.5,-33 223.5,-60 223.5,-60 223.5,-66 217.5,-72 211.5,-72"/>
<g id="a_state_10007_title"><a xlink:href="#" xlink:title="state_10007_title">
<text text-anchor="start" x="158.5" y="-54.1" font-family="Calibri" font-weight="bold" font-size="13.00" fill="#8b4513">Estado </text>
<text text-anchor="start" x="197.5" y="-54.1" font-family="Calibri" font-weight="bold" font-size="13.00" fill="#8b4513">7</text>
</a>
</g>
<g id="a_state_10007_item_1"><a xlink:href="#" xlink:title="state_10007_item_1">
<text text-anchor="start" x="147.5" y="-33.3" font-family="Times,serif" font-size="14.00" fill="#bc1f29">E&#39; </text>
<text text-anchor="start" x="162.5" y="-33.3" font-family="Times,serif" font-size="14.00" fill="#0a5040">→ </text>
<text text-anchor="start" x="181.5" y="-33.3" font-family="Times,serif" font-size="14.00" fill="#bc1f29"> E</text>
<text text-anchor="start" x="194.5" y="-33.3" font-family="Times,serif" font-size="14.00" fill="#f5a70a"> •</text>
<text text-anchor="start" x="204.5" y="-33.3" font-family="Times,serif" font-size="14.00" fill="#0a5040"> $</text>
</a>
</g>
</g>
<!-- state_10013 -->
<g id="state_10013" class="node">
<title>state_10013</title>
<path fill="#f5f5dc" stroke="#b8860b" stroke-width="1.5" d="M357.5,-55C357.5,-55 297.5,-55 297.5,-55 291.5,-55 285.5,-49 285.5,-43 285.5,-43 285.5,-16 285.5,-16 285.5,-10 291.5,-4 297.5,-4 297.5,-4 357.5,-4 357.5,-4 363.5,-4 369.5,-10 369.5,-16 369.5,-16 369.5,-43 369.5,-43 369.5,-49 363.5,-55 357.5,-55"/>
<path fill="none" stroke="#b8860b" stroke-width="1.5" d="M361.5,-59C361.5,-59 293.5,-59 293.5,-59 287.5,-59 281.5,-53 281.5,-47 281.5,-47 281.5,-12 281.5,-12 281.5,-6 287.5,0 293.5,0 293.5,0 361.5,0 361.5,0 367.5,0 373.5,-6 373.5,-12 373.5,-12 373.5,-47 373.5,-47 373.5,-53 367.5,-59 361.5,-59"/>
<g id="a_state_10013_title"><a xlink:href="#" xlink:title="state_10013_title">
<text text-anchor="start" x="301" y="-37.1" font-family="Calibri" font-weight="bold" font-size="13.00" fill="#8b4513">Estado </text>
<text text-anchor="start" x="340" y="-37.1" font-family="Calibri" font-weight="bold" font-size="13.00" fill="#8b4513">13</text>
</a>
</g>
<g id="a_state_10013_item_1"><a xlink:href="#" xlink:title="state_10013_item_1">
<text text-anchor="start" x="293.5" y="-16.3" font-family="Times,serif" font-size="14.00" fill="#bc1f29">E&#39; </text>
<text text-anchor="start" x="308.5" y="-16.3" font-family="Times,serif" font-size="14.00" fill="#0a5040">→ </text>
<text text-anchor="start" x="327.5" y="-16.3" font-family="Times,serif" font-size="14.00" fill="#bc1f29"> E</text>
<text text-anchor="start" x="340.5" y="-16.3" font-family="Times,serif" font-size="14.00" fill="#0a5040"> $</text>
<text text-anchor="start" x="351.5" y="-16.3" font-family="Times,serif" font-size="14.00" fill="#f5a70a"> •</text>
</a>
</g>
</g>
<!-- state_10007&#45;&gt;state_10013 -->
<g id="trans_14" class="edge">
<title>state_10007&#45;&gt;state_10013</title>
<path fill="none" stroke="#b8860b" stroke-width="1.5" d="M223.7292,-41.5829C238.5134,-39.8615 255.3585,-37.9 271.1134,-36.0656"/>
<polygon fill="#b8860b" stroke="#b8860b" stroke-width="1.5" points="271.7484,-39.5154 281.2765,-34.8822 270.9388,-32.5623 271.7484,-39.5154"/>
<text text-anchor="start" x="249" y="-43.3" font-family="Times,serif" font-size="14.00" fill="#0a5040"> $</text>
</g>
<!-- state_10008 -->
<g id="state_10008" class="node">
<title>state_10008</title>
<path fill="#fffff0" stroke="#b8860b" stroke-width="1.5" d="M364,-364C364,-364 291,-364 291,-364 285,-364 279,-358 279,-352 279,-352 279,-325 279,-325 279,-319 285,-313 291,-313 291,-313 364,-313 364,-313 370,-313 376,-319 376,-325 376,-325 376,-352 376,-352 376,-358 370,-364 364,-364"/>
<g id="a_state_10008_title"><a xlink:href="#" xlink:title="state_10008_title">
<text text-anchor="start" x="305" y="-346.1" font-family="Calibri" font-weight="bold" font-size="13.00" fill="#8b4513">Estado </text>
<text text-anchor="start" x="344" y="-346.1" font-family="Calibri" font-weight="bold" font-size="13.00" fill="#8b4513">8</text>
</a>
</g>
<g id="a_state_10008_item_1"><a xlink:href="#" xlink:title="state_10008_item_1">
<text text-anchor="start" x="287.5" y="-325.3" font-family="Times,serif" font-size="14.00" fill="#bc1f29">E </text>
<text text-anchor="start" x="300.5" y="-325.3" font-family="Times,serif" font-size="14.00" fill="#0a5040">→ </text>
<text text-anchor="start" x="319.5" y="-325.3" font-family="Times,serif" font-size="14.00" fill="#bc1f29"> L</text>
<text text-anchor="start" x="332.5" y="-325.3" font-family="Times,serif" font-size="14.00" fill="#f5a70a"> •</text>
<text text-anchor="start" x="342.5" y="-325.3" font-family="Times,serif" font-size="14.00" fill="#0a5040"> =</text>
<text text-anchor="start" x="355.5" y="-325.3" font-family="Times,serif" font-size="14.00" fill="#bc1f29"> R</text>
</a>
</g>
</g>
<!-- state_10014 -->
<g id="state_10014" class="node">
<title>state_10014</title>
<path fill="#fffff0" stroke="#b8860b" stroke-width="1.5" d="M510,-364C510,-364 437,-364 437,-364 431,-364 425,-358 425,-352 425,-352 425,-325 425,-325 425,-319 431,-313 437,-313 437,-313 510,-313 510,-313 516,-313 522,-319 522,-325 522,-325 522,-352 522,-352 522,-358 516,-364 510,-364"/>
<g id="a_state_10014_title"><a xlink:href="#" xlink:title="state_10014_title">
<text text-anchor="start" x="447.5" y="-346.1" font-family="Calibri" font-weight="bold" font-size="13.00" fill="#8b4513">Estado </text>
<text text-anchor="start" x="486.5" y="-346.1" font-family="Calibri" font-weight="bold" font-size="13.00" fill="#8b4513">14</text>
</a>
</g>
<g id="a_state_10014_item_1"><a xlink:href="#" xlink:title="state_10014_item_1">
<text text-anchor="start" x="433.5" y="-325.3" font-family="Times,serif" font-size="14.00" fill="#bc1f29">E </text>
<text text-anchor="start" x="446.5" y="-325.3" font-family="Times,serif" font-size="14.00" fill="#0a5040">→ </text>
<text text-anchor="start" x="465.5" y="-325.3" font-family="Times,serif" font-size="14.00" fill="#bc1f29"> L</text>
<text text-anchor="start" x="478.5" y="-325.3" font-family="Times,serif" font-size="14.00" fill="#0a5040"> =</text>
<text text-anchor="start" x="491.5" y="-325.3" font-family="Times,serif" font-size="14.00" fill="#f5a70a"> •</text>
<text text-anchor="start" x="501.5" y="-325.3" font-family="Times,serif" font-size="14.00" fill="#bc1f29"> R</text>
</a>
</g>
</g>
<!-- state_10008&#45;&gt;state_10014 -->
<g id="trans_15" class="edge">
<title>state_10008&#45;&gt;state_10014</title>
<path fill="none" stroke="#b8860b" stroke-width="1.5" d="M376.1159,-338.5C388.4213,-338.5 401.7711,-338.5 414.5271,-338.5"/>
<polygon fill="#b8860b" stroke="#b8860b" stroke-width="1.5" points="414.5986,-342.0001 424.5986,-338.5 414.5986,-335.0001 414.5986,-342.0001"/>
<text text-anchor="start" x="394" y="-342.3" font-family="Times,serif" font-size="14.00" fill="#0a5040"> =</text>
</g>
<!-- state_10001 -->
<g id="state_10001" class="node">
<title>state_10001</title>
<path fill="#fffff0" stroke="#b8860b" stroke-width="1.5" d="M72,-174C72,-174 12,-174 12,-174 6,-174 0,-168 0,-162 0,-162 0,-135 0,-135 0,-129 6,-123 12,-123 12,-123 72,-123 72,-123 78,-123 84,-129 84,-135 84,-135 84,-162 84,-162 84,-168 78,-174 72,-174"/>
<g id="a_state_10001_title"><a xlink:href="#" xlink:title="state_10001_title">
<text text-anchor="start" x="19" y="-156.1" font-family="Calibri" font-weight="bold" font-size="13.00" fill="#8b4513">Estado </text>
<text text-anchor="start" x="58" y="-156.1" font-family="Calibri" font-weight="bold" font-size="13.00" fill="#8b4513">1</text>
</a>
</g>
<g id="a_state_10001_item_1"><a xlink:href="#" xlink:title="state_10001_item_1">
<text text-anchor="start" x="8" y="-135.3" font-family="Times,serif" font-size="14.00" fill="#bc1f29">E&#39; </text>
<text text-anchor="start" x="23" y="-135.3" font-family="Times,serif" font-size="14.00" fill="#0a5040">→ </text>
<text text-anchor="start" x="42" y="-135.3" font-family="Times,serif" font-size="14.00" fill="#f5a70a"> •</text>
<text text-anchor="start" x="52" y="-135.3" font-family="Times,serif" font-size="14.00" fill="#bc1f29"> E</text>
<text text-anchor="start" x="65" y="-135.3" font-family="Times,serif" font-size="14.00" fill="#0a5040"> $</text>
</a>
</g>
</g>
<!-- state_10001&#45;&gt;state_10007 -->
<g id="trans_1" class="edge">
<title>state_10001&#45;&gt;state_10007</title>
<path fill="none" stroke="#b8860b" stroke-width="1.5" d="M77.2017,-122.7611C95.7055,-109.2315 118.5491,-92.5286 138.1364,-78.2067"/>
<polygon fill="#b8860b" stroke="#b8860b" stroke-width="1.5" points="140.303,-80.9584 146.3095,-72.2307 136.1713,-75.3077 140.303,-80.9584"/>
<text text-anchor="start" x="102" y="-108.3" font-family="Times,serif" font-size="14.00" fill="#bc1f29"> E</text>
</g>
<!-- state_10002 -->
<g id="state_10002" class="node">
<title>state_10002</title>
<path fill="#fffff0" stroke="#b8860b" stroke-width="1.5" d="M218,-337C218,-337 145,-337 145,-337 139,-337 133,-331 133,-325 133,-325 133,-298 133,-298 133,-292 139,-286 145,-286 145,-286 218,-286 218,-286 224,-286 230,-292 230,-298 230,-298 230,-325 230,-325 230,-331 224,-337 218,-337"/>
<g id="a_state_10002_title"><a xlink:href="#" xlink:title="state_10002_title">
<text text-anchor="start" x="159" y="-319.1" font-family="Calibri" font-weight="bold" font-size="13.00" fill="#8b4513">Estado </text>
<text text-anchor="start" x="198" y="-319.1" font-family="Calibri" font-weight="bold" font-size="13.00" fill="#8b4513">2</text>
</a>
</g>
<g id="a_state_10002_item_1"><a xlink:href="#" xlink:title="state_10002_item_1">
<text text-anchor="start" x="141.5" y="-298.3" font-family="Times,serif" font-size="14.00" fill="#bc1f29">E </text>
<text text-anchor="start" x="154.5" y="-298.3" font-family="Times,serif" font-size="14.00" fill="#0a5040">→ </text>
<text text-anchor="start" x="173.5" y="-298.3" font-family="Times,serif" font-size="14.00" fill="#f5a70a"> •</text>
<text text-anchor="start" x="183.5" y="-298.3" font-family="Times,serif" font-size="14.00" fill="#bc1f29"> L</text>
<text text-anchor="start" x="196.5" y="-298.3" font-family="Times,serif" font-size="14.00" fill="#0a5040"> =</text>
<text text-anchor="start" x="209.5" y="-298.3" font-family="Times,serif" font-size="14.00" fill="#bc1f29"> R</text>
</a>
</g>
</g>
<!-- state_10001&#45;&gt;state_10002 -->
<g id="trans_2" class="edge">
<title>state_10001&#45;&gt;state_10002</title>
<path fill="none" stroke="#b8860b" stroke-width="1.5" d="M64.1042,-174.3278C88.0825,-202.3455 126.4511,-247.1776 152.7553,-277.9131"/>
<polygon fill="#b8860b" stroke="#b8860b" stroke-width="1.5" points="150.3379,-280.4712 159.4992,-285.793 155.6562,-275.9197 150.3379,-280.4712"/>
<text text-anchor="start" x="103" y="-234.3" font-family="Times,serif" font-size="14.00" fill="#0a5040"> ε</text>
</g>
<!-- state_10003 -->
<g id="state_10003" class="node">
<title>state_10003</title>
<path fill="#fffff0" stroke="#b8860b" stroke-width="1.5" d="M205,-174C205,-174 158,-174 158,-174 152,-174 146,-168 146,-162 146,-162 146,-135 146,-135 146,-129 152,-123 158,-123 158,-123 205,-123 205,-123 211,-123 217,-129 217,-135 217,-135 217,-162 217,-162 217,-168 211,-174 205,-174"/>
<g id="a_state_10003_title"><a xlink:href="#" xlink:title="state_10003_title">
<text text-anchor="start" x="159" y="-156.1" font-family="Calibri" font-weight="bold" font-size="13.00" fill="#8b4513">Estado </text>
<text text-anchor="start" x="198" y="-156.1" font-family="Calibri" font-weight="bold" font-size="13.00" fill="#8b4513">3</text>
</a>
</g>
<g id="a_state_10003_item_1"><a xlink:href="#" xlink:title="state_10003_item_1">
<text text-anchor="start" x="154.5" y="-135.3" font-family="Times,serif" font-size="14.00" fill="#bc1f29">E </text>
<text text-anchor="start" x="167.5" y="-135.3" font-family="Times,serif" font-size="14.00" fill="#0a5040">→ </text>
<text text-anchor="start" x="186.5" y="-135.3" font-family="Times,serif" font-size="14.00" fill="#f5a70a"> •</text>
<text text-anchor="start" x="196.5" y="-135.3" font-family="Times,serif" font-size="14.00" fill="#bc1f29"> R</text>
</a>
</g>
</g>
<!-- state_10001&#45;&gt;state_10003 -->
<g id="trans_3" class="edge">
<title>state_10001&#45;&gt;state_10003</title>
<path fill="none" stroke="#b8860b" stroke-width="1.5" d="M84.2332,-148.5C100.5698,-148.5 119.305,-148.5 135.9436,-148.5"/>
<polygon fill="#b8860b" stroke="#b8860b" stroke-width="1.5" points="135.9924,-152.0001 145.9924,-148.5 135.9923,-145.0001 135.9924,-152.0001"/>
<text text-anchor="start" x="103" y="-152.3" font-family="Times,serif" font-size="14.00" fill="#0a5040"> ε</text>
</g>
<!-- state_10002&#45;&gt;state_10004 -->
<g id="trans_5" class="edge">
<title>state_10002&#45;&gt;state_10004</title>
<path fill="none" stroke="#b8860b" stroke-width="1.5" d="M230.1159,-297.5146C245.0862,-293.2081 261.6021,-288.4569 276.7142,-284.1096"/>
<polygon fill="#b8860b" stroke="#b8860b" stroke-width="1.5" points="277.7693,-287.4481 286.4119,-281.3199 275.834,-280.7209 277.7693,-287.4481"/>
<text text-anchor="start" x="249" y="-295.3" font-family="Times,serif" font-size="14.00" fill="#0a5040"> ε</text>
</g>
<!-- state_10002&#45;&gt;state_10005 -->
<g id="trans_6" class="edge">
<title>state_10002&#45;&gt;state_10005</title>
<path fill="none" stroke="#b8860b" stroke-width="1.5" d="M200.3383,-337.1859C225.5249,-368.271 273.3306,-416.5 327.5,-416.5 327.5,-416.5 327.5,-416.5 623.5,-416.5 656.6076,-416.5 691.7036,-404.1032 718.5992,-391.6551"/>
<polygon fill="#b8860b" stroke="#b8860b" stroke-width="1.5" points="720.247,-394.7466 727.7538,-387.2701 717.223,-388.4335 720.247,-394.7466"/>
<text text-anchor="start" x="468" y="-420.3" font-family="Times,serif" font-size="14.00" fill="#0a5040"> ε</text>
</g>
<!-- state_10002&#45;&gt;state_10008 -->
<g id="trans_4" class="edge">
<title>state_10002&#45;&gt;state_10008</title>
<path fill="none" stroke="#b8860b" stroke-width="1.5" d="M230.1159,-320.4906C242.4213,-322.7663 255.7711,-325.2351 268.5271,-327.5941"/>
<polygon fill="#b8860b" stroke="#b8860b" stroke-width="1.5" points="268.1289,-331.0797 278.5986,-329.4566 269.4018,-324.1964 268.1289,-331.0797"/>
<text text-anchor="start" x="248" y="-329.3" font-family="Times,serif" font-size="14.00" fill="#bc1f29"> L</text>
</g>
<!-- state_10006 -->
<g id="state_10006" class="node">
<title>state_10006</title>
<path fill="#fffff0" stroke="#b8860b" stroke-width="1.5" d="M647,-234C647,-234 600,-234 600,-234 594,-234 588,-228 588,-222 588,-222 588,-195 588,-195 588,-189 594,-183 600,-183 600,-183 647,-183 647,-183 653,-183 659,-189 659,-195 659,-195 659,-222 659,-222 659,-228 653,-234 647,-234"/>
<g id="a_state_10006_title"><a xlink:href="#" xlink:title="state_10006_title">
<text text-anchor="start" x="601" y="-216.1" font-family="Calibri" font-weight="bold" font-size="13.00" fill="#8b4513">Estado </text>
<text text-anchor="start" x="640" y="-216.1" font-family="Calibri" font-weight="bold" font-size="13.00" fill="#8b4513">6</text>
</a>
</g>
<g id="a_state_10006_item_1"><a xlink:href="#" xlink:title="state_10006_item_1">
<text text-anchor="start" x="596.5" y="-195.3" font-family="Times,serif" font-size="14.00" fill="#bc1f29">R </text>
<text text-anchor="start" x="609.5" y="-195.3" font-family="Times,serif" font-size="14.00" fill="#0a5040">→ </text>
<text text-anchor="start" x="628.5" y="-195.3" font-family="Times,serif" font-size="14.00" fill="#f5a70a"> •</text>
<text text-anchor="start" x="638.5" y="-195.3" font-family="Times,serif" font-size="14.00" fill="#bc1f29"> L</text>
</a>
</g>
</g>
<!-- state_10003&#45;&gt;state_10006 -->
<g id="trans_8" class="edge">
<title>state_10003&#45;&gt;state_10006</title>
<path fill="none" stroke="#b8860b" stroke-width="1.5" d="M217.2963,-153.3592C297.1632,-164.2009 489.8031,-190.3511 578.0132,-202.3253"/>
<polygon fill="#b8860b" stroke="#b8860b" stroke-width="1.5" points="577.6064,-205.8021 587.9863,-203.6791 578.548,-198.8657 577.6064,-205.8021"/>
<text text-anchor="start" x="395" y="-182.3" font-family="Times,serif" font-size="14.00" fill="#0a5040"> ε</text>
</g>
<!-- state_10010 -->
<g id="state_10010" class="node">
<title>state_10010</title>
<path fill="#f5f5dc" stroke="#b8860b" stroke-width="1.5" d="M351,-132C351,-132 304,-132 304,-132 298,-132 292,-126 292,-120 292,-120 292,-93 292,-93 292,-87 298,-81 304,-81 304,-81 351,-81 351,-81 357,-81 363,-87 363,-93 363,-93 363,-120 363,-120 363,-126 357,-132 351,-132"/>
<path fill="none" stroke="#b8860b" stroke-width="1.5" d="M355,-136C355,-136 300,-136 300,-136 294,-136 288,-130 288,-124 288,-124 288,-89 288,-89 288,-83 294,-77 300,-77 300,-77 355,-77 355,-77 361,-77 367,-83 367,-89 367,-89 367,-124 367,-124 367,-130 361,-136 355,-136"/>
<g id="a_state_10010_title"><a xlink:href="#" xlink:title="state_10010_title">
<text text-anchor="start" x="301.5" y="-114.1" font-family="Calibri" font-weight="bold" font-size="13.00" fill="#8b4513">Estado </text>
<text text-anchor="start" x="340.5" y="-114.1" font-family="Calibri" font-weight="bold" font-size="13.00" fill="#8b4513">10</text>
</a>
</g>
<g id="a_state_10010_item_1"><a xlink:href="#" xlink:title="state_10010_item_1">
<text text-anchor="start" x="300.5" y="-93.3" font-family="Times,serif" font-size="14.00" fill="#bc1f29">E </text>
<text text-anchor="start" x="313.5" y="-93.3" font-family="Times,serif" font-size="14.00" fill="#0a5040">→ </text>
<text text-anchor="start" x="332.5" y="-93.3" font-family="Times,serif" font-size="14.00" fill="#bc1f29"> R</text>
<text text-anchor="start" x="345.5" y="-93.3" font-family="Times,serif" font-size="14.00" fill="#f5a70a"> •</text>
</a>
</g>
</g>
<!-- state_10003&#45;&gt;state_10010 -->
<g id="trans_7" class="edge">
<title>state_10003&#45;&gt;state_10010</title>
<path fill="none" stroke="#b8860b" stroke-width="1.5" d="M217.2156,-138.2256C235.487,-132.9695 258.018,-126.488 277.9425,-120.7563"/>
<polygon fill="#b8860b" stroke="#b8860b" stroke-width="1.5" points="279.1423,-124.0531 287.7849,-117.9249 277.207,-117.326 279.1423,-124.0531"/>
<text text-anchor="start" x="248" y="-133.3" font-family="Times,serif" font-size="14.00" fill="#bc1f29"> R</text>
</g>
<!-- state_10006&#45;&gt;state_10004 -->
<g id="trans_12" class="edge">
<title>state_10006&#45;&gt;state_10004</title>
<path fill="none" stroke="#b8860b" stroke-width="1.5" d="M587.6682,-206.3812C547.3743,-204.9765 480.3398,-205.5982 425,-220.5 408.9423,-224.824 392.433,-231.9439 377.6699,-239.4339"/>
<polygon fill="#b8860b" stroke="#b8860b" stroke-width="1.5" points="375.9551,-236.3811 368.723,-244.1237 379.205,-242.5809 375.9551,-236.3811"/>
<text text-anchor="start" x="468" y="-224.3" font-family="Times,serif" font-size="14.00" fill="#0a5040"> ε</text>
</g>
<!-- state_10006&#45;&gt;state_10005 -->
<g id="trans_13" class="edge">
<title>state_10006&#45;&gt;state_10005</title>
<path fill="none" stroke="#b8860b" stroke-width="1.5" d="M659.0082,-229.62C664.9696,-233.866 670.8761,-238.5558 676,-243.5 703.4338,-269.9715 728.1672,-305.8872 744.4667,-332.0724"/>
<polygon fill="#b8860b" stroke="#b8860b" stroke-width="1.5" points="741.6637,-334.1971 749.8709,-340.8972 747.6333,-330.5414 741.6637,-334.1971"/>
<text text-anchor="start" x="695" y="-281.3" font-family="Times,serif" font-size="14.00" fill="#0a5040"> ε</text>
</g>
<!-- state_10009 -->
<g id="state_10009" class="node">
<title>state_10009</title>
<path fill="#f5f5dc" stroke="#b8860b" stroke-width="1.5" d="M788,-234C788,-234 741,-234 741,-234 735,-234 729,-228 729,-222 729,-222 729,-195 729,-195 729,-189 735,-183 741,-183 741,-183 788,-183 788,-183 794,-183 800,-189 800,-195 800,-195 800,-222 800,-222 800,-228 794,-234 788,-234"/>
<path fill="none" stroke="#b8860b" stroke-width="1.5" d="M792,-238C792,-238 737,-238 737,-238 731,-238 725,-232 725,-226 725,-226 725,-191 725,-191 725,-185 731,-179 737,-179 737,-179 792,-179 792,-179 798,-179 804,-185 804,-191 804,-191 804,-226 804,-226 804,-232 798,-238 792,-238"/>
<g id="a_state_10009_title"><a xlink:href="#" xlink:title="state_10009_title">
<text text-anchor="start" x="742" y="-216.1" font-family="Calibri" font-weight="bold" font-size="13.00" fill="#8b4513">Estado </text>
<text text-anchor="start" x="781" y="-216.1" font-family="Calibri" font-weight="bold" font-size="13.00" fill="#8b4513">9</text>
</a>
</g>
<g id="a_state_10009_item_1"><a xlink:href="#" xlink:title="state_10009_item_1">
<text text-anchor="start" x="737.5" y="-195.3" font-family="Times,serif" font-size="14.00" fill="#bc1f29">R </text>
<text text-anchor="start" x="750.5" y="-195.3" font-family="Times,serif" font-size="14.00" fill="#0a5040">→ </text>
<text text-anchor="start" x="769.5" y="-195.3" font-family="Times,serif" font-size="14.00" fill="#bc1f29"> L</text>
<text text-anchor="start" x="782.5" y="-195.3" font-family="Times,serif" font-size="14.00" fill="#f5a70a"> •</text>
</a>
</g>
</g>
<!-- state_10006&#45;&gt;state_10009 -->
<g id="trans_11" class="edge">
<title>state_10006&#45;&gt;state_10009</title>
<path fill="none" stroke="#b8860b" stroke-width="1.5" d="M659.0803,-208.5C675.9353,-208.5 696.3529,-208.5 714.7135,-208.5"/>
<polygon fill="#b8860b" stroke="#b8860b" stroke-width="1.5" points="714.9541,-212.0001 724.954,-208.5 714.954,-205.0001 714.9541,-212.0001"/>
<text text-anchor="start" x="694" y="-212.3" font-family="Times,serif" font-size="14.00" fill="#bc1f29"> L</text>
</g>
<!-- state_10011&#45;&gt;state_10006 -->
<g id="trans_17" class="edge">
<title>state_10011&#45;&gt;state_10006</title>
<path fill="none" stroke="#b8860b" stroke-width="1.5" d="M514.8852,-252.67C534.6486,-244.6329 558.3384,-234.9991 578.5432,-226.7824"/>
<polygon fill="#b8860b" stroke="#b8860b" stroke-width="1.5" points="579.9062,-230.0065 587.8511,-222.9972 577.2692,-223.5222 579.9062,-230.0065"/>
<text text-anchor="start" x="541" y="-244.3" font-family="Times,serif" font-size="14.00" fill="#0a5040"> ε</text>
</g>
<!-- state_10015 -->
<g id="state_10015" class="node">
<title>state_10015</title>
<path fill="#f5f5dc" stroke="#b8860b" stroke-width="1.5" d="M652.5,-307C652.5,-307 594.5,-307 594.5,-307 588.5,-307 582.5,-301 582.5,-295 582.5,-295 582.5,-268 582.5,-268 582.5,-262 588.5,-256 594.5,-256 594.5,-256 652.5,-256 652.5,-256 658.5,-256 664.5,-262 664.5,-268 664.5,-268 664.5,-295 664.5,-295 664.5,-301 658.5,-307 652.5,-307"/>
<path fill="none" stroke="#b8860b" stroke-width="1.5" d="M656.5,-311C656.5,-311 590.5,-311 590.5,-311 584.5,-311 578.5,-305 578.5,-299 578.5,-299 578.5,-264 578.5,-264 578.5,-258 584.5,-252 590.5,-252 590.5,-252 656.5,-252 656.5,-252 662.5,-252 668.5,-258 668.5,-264 668.5,-264 668.5,-299 668.5,-299 668.5,-305 662.5,-311 656.5,-311"/>
<g id="a_state_10015_title"><a xlink:href="#" xlink:title="state_10015_title">
<text text-anchor="start" x="597" y="-289.1" font-family="Calibri" font-weight="bold" font-size="13.00" fill="#8b4513">Estado </text>
<text text-anchor="start" x="636" y="-289.1" font-family="Calibri" font-weight="bold" font-size="13.00" fill="#8b4513">15</text>
</a>
</g>
<g id="a_state_10015_item_1"><a xlink:href="#" xlink:title="state_10015_item_1">
<text text-anchor="start" x="590.5" y="-268.3" font-family="Times,serif" font-size="14.00" fill="#bc1f29">L </text>
<text text-anchor="start" x="603.5" y="-268.3" font-family="Times,serif" font-size="14.00" fill="#0a5040">→ </text>
<text text-anchor="start" x="622.5" y="-268.3" font-family="Times,serif" font-size="14.00" fill="#0a5040"> *</text>
<text text-anchor="start" x="633.5" y="-268.3" font-family="Times,serif" font-size="14.00" fill="#bc1f29"> R</text>
<text text-anchor="start" x="646.5" y="-268.3" font-family="Times,serif" font-size="14.00" fill="#f5a70a"> •</text>
</a>
</g>
</g>
<!-- state_10011&#45;&gt;state_10015 -->
<g id="trans_16" class="edge">
<title>state_10011&#45;&gt;state_10015</title>
<path fill="none" stroke="#b8860b" stroke-width="1.5" d="M514.8852,-272.8108C531.3405,-274.1272 550.5177,-275.6614 568.139,-277.0711"/>
<polygon fill="#b8860b" stroke="#b8860b" stroke-width="1.5" points="568.0547,-280.5755 578.302,-277.8842 568.613,-273.5978 568.0547,-280.5755"/>
<text text-anchor="start" x="540" y="-279.3" font-family="Times,serif" font-size="14.00" fill="#bc1f29"> R</text>
</g>
<!-- state_10014&#45;&gt;state_10006 -->
<g id="trans_19" class="edge">
<title>state_10014&#45;&gt;state_10006</title>
<path fill="none" stroke="#b8860b" stroke-width="1.5" d="M522.1745,-318.8364C533.4844,-312.4375 544.644,-304.3744 553,-294.5 568.5273,-276.1511 556.2427,-262.4737 571,-243.5 573.6103,-240.1439 576.6358,-237.001 579.8907,-234.0837"/>
<polygon fill="#b8860b" stroke="#b8860b" stroke-width="1.5" points="582.2284,-236.6948 587.8142,-227.6921 577.8334,-231.2465 582.2284,-236.6948"/>
<text text-anchor="start" x="541" y="-309.3" font-family="Times,serif" font-size="14.00" fill="#0a5040"> ε</text>
</g>
<!-- state_10016 -->
<g id="state_10016" class="node">
<title>state_10016</title>
<path fill="#f5f5dc" stroke="#b8860b" stroke-width="1.5" d="M660,-384C660,-384 587,-384 587,-384 581,-384 575,-378 575,-372 575,-372 575,-345 575,-345 575,-339 581,-333 587,-333 587,-333 660,-333 660,-333 666,-333 672,-339 672,-345 672,-345 672,-372 672,-372 672,-378 666,-384 660,-384"/>
<path fill="none" stroke="#b8860b" stroke-width="1.5" d="M664,-388C664,-388 583,-388 583,-388 577,-388 571,-382 571,-376 571,-376 571,-341 571,-341 571,-335 577,-329 583,-329 583,-329 664,-329 664,-329 670,-329 676,-335 676,-341 676,-341 676,-376 676,-376 676,-382 670,-388 664,-388"/>
<g id="a_state_10016_title"><a xlink:href="#" xlink:title="state_10016_title">
<text text-anchor="start" x="597.5" y="-366.1" font-family="Calibri" font-weight="bold" font-size="13.00" fill="#8b4513">Estado </text>
<text text-anchor="start" x="636.5" y="-366.1" font-family="Calibri" font-weight="bold" font-size="13.00" fill="#8b4513">16</text>
</a>
</g>
<g id="a_state_10016_item_1"><a xlink:href="#" xlink:title="state_10016_item_1">
<text text-anchor="start" x="583.5" y="-345.3" font-family="Times,serif" font-size="14.00" fill="#bc1f29">E </text>
<text text-anchor="start" x="596.5" y="-345.3" font-family="Times,serif" font-size="14.00" fill="#0a5040">→ </text>
<text text-anchor="start" x="615.5" y="-345.3" font-family="Times,serif" font-size="14.00" fill="#bc1f29"> L</text>
<text text-anchor="start" x="628.5" y="-345.3" font-family="Times,serif" font-size="14.00" fill="#0a5040"> =</text>
<text text-anchor="start" x="641.5" y="-345.3" font-family="Times,serif" font-size="14.00" fill="#bc1f29"> R</text>
<text text-anchor="start" x="654.5" y="-345.3" font-family="Times,serif" font-size="14.00" fill="#f5a70a"> •</text>
</a>
</g>
</g>
<!-- state_10014&#45;&gt;state_10016 -->
<g id="trans_18" class="edge">
<title>state_10014&#45;&gt;state_10016</title>
<path fill="none" stroke="#b8860b" stroke-width="1.5" d="M522.2007,-344.9934C534.4858,-346.6314 547.8487,-348.4132 560.7185,-350.1291"/>
<polygon fill="#b8860b" stroke="#b8860b" stroke-width="1.5" points="560.5291,-353.6348 570.9039,-351.4872 561.4543,-346.6962 560.5291,-353.6348"/>
<text text-anchor="start" x="540" y="-352.3" font-family="Times,serif" font-size="14.00" fill="#bc1f29"> R</text>
</g>
</g>
</svg>
