<?xml version="1.0" encoding="UTF-8" standalone="no"?>
<!DOCTYPE svg PUBLIC "-//W3C//DTD SVG 1.1//EN"
 "http://www.w3.org/Graphics/SVG/1.1/DTD/svg11.dtd">
<!-- Generated by graphviz version 2.40.1 (20161225.0304)
 -->
<!-- Title: DFA Pages: 1 -->
<svg width="1314pt" height="467pt"
 viewBox="0.00 0.00 1314.00 466.50" xmlns="http://www.w3.org/2000/svg" xmlns:xlink="http://www.w3.org/1999/xlink">
<g id="graph0" class="graph" transform="scale(1 1) rotate(0) translate(4 462.5)">
<title>DFA</title>
<!-- state_1 -->
<g id="state_1" class="node">
<title>state_1</title>
<path fill="#fffff0" stroke="#b8860b" stroke-width="1.5" d="M112,-416C112,-416 12,-416 12,-416 6,-416 0,-410 0,-404 0,-404 0,-308 0,-308 0,-302 6,-296 12,-296 12,-296 112,-296 112,-296 118,-296 124,-302 124,-308 124,-308 124,-404 124,-404 124,-410 118,-416 112,-416"/>
<g id="a_state_1_title"><a xlink:href="#" xlink:title="state_1_title">
<text text-anchor="start" x="39" y="-395.6" font-family="Calibri" font-weight="bold" font-size="13.00" fill="#8b4513">Estado </text>
<text text-anchor="start" x="78" y="-395.6" font-family="Calibri" font-weight="bold" font-size="13.00" fill="#8b4513">1</text>
</a>
</g>
<g id="a_state_1_item_1"><a xlink:href="#" xlink:title="state_1_item_1">
<text text-anchor="start" x="11" y="-374.8" font-family="Times,serif" font-size="14.00" fill="#bc1f29">S&#39; </text>
<text text-anchor="start" x="25" y="-374.8" font-family="Times,serif" font-size="14.00" fill="#0a5040">→ </text>
<text text-anchor="start" x="44" y="-374.8" font-family="Times,serif" font-size="14.00" fill="#f5a70a"> •</text>
<text text-anchor="start" x="54" y="-374.8" font-family="Times,serif" font-size="14.00" fill="#bc1f29"> S</text>
<text text-anchor="start" x="66" y="-374.8" font-family="Times,serif" font-size="14.00" fill="#0a5040"> $</text>
</a>
</g>
<g id="a_state_1_item_2"><a xlink:href="#" xlink:title="state_1_item_2">
<text text-anchor="start" x="11" y="-353.8" font-family="Times,serif" font-size="14.00" fill="#bc1f29">S </text>
<text text-anchor="start" x="23" y="-353.8" font-family="Times,serif" font-size="14.00" fill="#0a5040">→ </text>
<text text-anchor="start" x="42" y="-353.8" font-family="Times,serif" font-size="14.00" fill="#f5a70a"> •</text>
<text text-anchor="start" x="52" y="-353.8" font-family="Times,serif" font-size="14.00" fill="#bc1f29"> I</text>
</a>
</g>
<g id="a_state_1_item_3"><a xlink:href="#" xlink:title="state_1_item_3">
<text text-anchor="start" x="11" y="-332.8" font-family="Times,serif" font-size="14.00" fill="#bc1f29">S </text>
<text text-anchor="start" x="23" y="-332.8" font-family="Times,serif" font-size="14.00" fill="#0a5040">→ </text>
<text text-anchor="start" x="42" y="-332.8" font-family="Times,serif" font-size="14.00" fill="#f5a70a"> •</text>
<text text-anchor="start" x="52" y="-332.8" font-family="Times,serif" font-size="14.00" fill="#0a5040"> o</text>
</a>
</g>
<g id="a_state_1_item_4"><a xlink:href="#" xlink:title="state_1_item_4">
<text text-anchor="start" x="11" y="-311.8" font-family="Times,serif" font-size="14.00" fill="#bc1f29">I </text>
<text text-anchor="start" x="20" y="-311.8" font-family="Times,serif" font-size="14.00" fill="#0a5040">→ </text>
<text text-anchor="start" x="39" y="-311.8" font-family="Times,serif" font-size="14.00" fill="#f5a70a"> •</text>
<text text-anchor="start" x="49" y="-311.8" font-family="Times,serif" font-size="14.00" fill="#0a5040"> i</text>
<text text-anchor="start" x="57" y="-311.8" font-family="Times,serif" font-size="14.00" fill="#0a5040"> (</text>
<text text-anchor="start" x="66" y="-311.8" font-family="Times,serif" font-size="14.00" fill="#bc1f29"> B</text>
<text text-anchor="start" x="79" y="-311.8" font-family="Times,serif" font-size="14.00" fill="#0a5040"> )</text>
<text text-anchor="start" x="88" y="-311.8" font-family="Times,serif" font-size="14.00" fill="#bc1f29"> S</text>
<text text-anchor="start" x="100" y="-311.8" font-family="Times,serif" font-size="14.00" fill="#bc1f29"> E</text>
</a>
</g>
</g>
<!-- state_2 -->
<g id="state_2" class="node">
<title>state_2</title>
<path fill="#fffff0" stroke="#b8860b" stroke-width="1.5" d="M266,-452.5C266,-452.5 202,-452.5 202,-452.5 196,-452.5 190,-446.5 190,-440.5 190,-440.5 190,-407.5 190,-407.5 190,-401.5 196,-395.5 202,-395.5 202,-395.5 266,-395.5 266,-395.5 272,-395.5 278,-401.5 278,-407.5 278,-407.5 278,-440.5 278,-440.5 278,-446.5 272,-452.5 266,-452.5"/>
<g id="a_state_2_title"><a xlink:href="#" xlink:title="state_2_title">
<text text-anchor="start" x="211" y="-431.6" font-family="Calibri" font-weight="bold" font-size="13.00" fill="#8b4513">Estado </text>
<text text-anchor="start" x="250" y="-431.6" font-family="Calibri" font-weight="bold" font-size="13.00" fill="#8b4513">2</text>
</a>
</g>
<g id="a_state_2_item_1"><a xlink:href="#" xlink:title="state_2_item_1">
<text text-anchor="start" x="201" y="-410.8" font-family="Times,serif" font-size="14.00" fill="#bc1f29">S&#39; </text>
<text text-anchor="start" x="215" y="-410.8" font-family="Times,serif" font-size="14.00" fill="#0a5040">→ </text>
<text text-anchor="start" x="234" y="-410.8" font-family="Times,serif" font-size="14.00" fill="#bc1f29"> S</text>
<text text-anchor="start" x="246" y="-410.8" font-family="Times,serif" font-size="14.00" fill="#f5a70a"> •</text>
<text text-anchor="start" x="256" y="-410.8" font-family="Times,serif" font-size="14.00" fill="#0a5040"> $</text>
</a>
</g>
</g>
<!-- state_1&#45;&gt;state_2 -->
<g id="trans_1" class="edge">
<title>state_1&#45;&gt;state_2</title>
<path fill="none" stroke="#b8860b" stroke-width="1.5" d="M124.0959,-380.5496C142.4449,-387.8038 162.3709,-395.6815 180.1541,-402.7121"/>
<polygon fill="#b8860b" stroke="#b8860b" stroke-width="1.5" points="179.2031,-406.0997 189.7895,-406.5214 181.7767,-399.5899 179.2031,-406.0997"/>
<text text-anchor="start" x="142" y="-395.8" font-family="Times,serif" font-size="14.00" fill="#bc1f29"> S</text>
</g>
<!-- state_5 -->
<g id="state_5" class="node">
<title>state_5</title>
<path fill="#fffff0" stroke="#b8860b" stroke-width="1.5" d="M284,-264.5C284,-264.5 184,-264.5 184,-264.5 178,-264.5 172,-258.5 172,-252.5 172,-252.5 172,-219.5 172,-219.5 172,-213.5 178,-207.5 184,-207.5 184,-207.5 284,-207.5 284,-207.5 290,-207.5 296,-213.5 296,-219.5 296,-219.5 296,-252.5 296,-252.5 296,-258.5 290,-264.5 284,-264.5"/>
<g id="a_state_5_title"><a xlink:href="#" xlink:title="state_5_title">
<text text-anchor="start" x="211" y="-243.6" font-family="Calibri" font-weight="bold" font-size="13.00" fill="#8b4513">Estado </text>
<text text-anchor="start" x="250" y="-243.6" font-family="Calibri" font-weight="bold" font-size="13.00" fill="#8b4513">5</text>
</a>
</g>
<g id="a_state_5_item_1"><a xlink:href="#" xlink:title="state_5_item_1">
<text text-anchor="start" x="183" y="-222.8" font-family="Times,serif" font-size="14.00" fill="#bc1f29">I </text>
<text text-anchor="start" x="192" y="-222.8" font-family="Times,serif" font-size="14.00" fill="#0a5040">→ </text>
<text text-anchor="start" x="211" y="-222.8" font-family="Times,serif" font-size="14.00" fill="#0a5040"> i</text>
<text text-anchor="start" x="219" y="-222.8" font-family="Times,serif" font-size="14.00" fill="#f5a70a"> •</text>
<text text-anchor="start" x="229" y="-222.8" font-family="Times,serif" font-size="14.00" fill="#0a5040"> (</text>
<text text-anchor="start" x="238" y="-222.8" font-family="Times,serif" font-size="14.00" fill="#bc1f29"> B</text>
<text text-anchor="start" x="251" y="-222.8" font-family="Times,serif" font-size="14.00" fill="#0a5040"> )</text>
<text text-anchor="start" x="260" y="-222.8" font-family="Times,serif" font-size="14.00" fill="#bc1f29"> S</text>
<text text-anchor="start" x="272" y="-222.8" font-family="Times,serif" font-size="14.00" fill="#bc1f29"> E</text>
</a>
</g>
</g>
<!-- state_1&#45;&gt;state_5 -->
<g id="trans_4" class="edge">
<title>state_1&#45;&gt;state_5</title>
<path fill="none" stroke="#b8860b" stroke-width="1.5" d="M124.0959,-312.6772C143.9559,-298.8214 165.6634,-283.6767 184.5017,-270.5337"/>
<polygon fill="#b8860b" stroke="#b8860b" stroke-width="1.5" points="186.7397,-273.24 192.9383,-264.6477 182.7344,-267.4991 186.7397,-273.24"/>
<text text-anchor="start" x="144" y="-302.8" font-family="Times,serif" font-size="14.00" fill="#0a5040"> i</text>
</g>
<!-- state_3 -->
<g id="state_3" class="node">
<title>state_3</title>
<path fill="#fffff0" stroke="#b8860b" stroke-width="1.5" d="M1283,-355.5C1283,-355.5 1235,-355.5 1235,-355.5 1229,-355.5 1223,-349.5 1223,-343.5 1223,-343.5 1223,-310.5 1223,-310.5 1223,-304.5 1229,-298.5 1235,-298.5 1235,-298.5 1283,-298.5 1283,-298.5 1289,-298.5 1295,-304.5 1295,-310.5 1295,-310.5 1295,-343.5 1295,-343.5 1295,-349.5 1289,-355.5 1283,-355.5"/>
<path fill="none" stroke="#b8860b" stroke-width="1.5" d="M1287,-359.5C1287,-359.5 1231,-359.5 1231,-359.5 1225,-359.5 1219,-353.5 1219,-347.5 1219,-347.5 1219,-306.5 1219,-306.5 1219,-300.5 1225,-294.5 1231,-294.5 1231,-294.5 1287,-294.5 1287,-294.5 1293,-294.5 1299,-300.5 1299,-306.5 1299,-306.5 1299,-347.5 1299,-347.5 1299,-353.5 1293,-359.5 1287,-359.5"/>
<g id="a_state_3_title"><a xlink:href="#" xlink:title="state_3_title">
<text text-anchor="start" x="1236" y="-334.6" font-family="Calibri" font-weight="bold" font-size="13.00" fill="#8b4513">Estado </text>
<text text-anchor="start" x="1275" y="-334.6" font-family="Calibri" font-weight="bold" font-size="13.00" fill="#8b4513">3</text>
</a>
</g>
<g id="a_state_3_item_1"><a xlink:href="#" xlink:title="state_3_item_1">
<text text-anchor="start" x="1234" y="-313.8" font-family="Times,serif" font-size="14.00" fill="#bc1f29">S </text>
<text text-anchor="start" x="1246" y="-313.8" font-family="Times,serif" font-size="14.00" fill="#0a5040">→ </text>
<text text-anchor="start" x="1265" y="-313.8" font-family="Times,serif" font-size="14.00" fill="#bc1f29"> I</text>
<text text-anchor="start" x="1274" y="-313.8" font-family="Times,serif" font-size="14.00" fill="#f5a70a"> •</text>
</a>
</g>
</g>
<!-- state_1&#45;&gt;state_3 -->
<g id="trans_2" class="edge">
<title>state_1&#45;&gt;state_3</title>
<path fill="none" stroke="#b8860b" stroke-width="1.5" d="M124.057,-360.8162C156.7464,-362.956 197.5196,-365 234,-365 234,-365 234,-365 1098,-365 1135.9651,-365 1177.6518,-354.8674 1209.0932,-345.0667"/>
<polygon fill="#b8860b" stroke="#b8860b" stroke-width="1.5" points="1210.4729,-348.2997 1218.9237,-341.9095 1208.3325,-341.635 1210.4729,-348.2997"/>
<text text-anchor="start" x="659" y="-368.8" font-family="Times,serif" font-size="14.00" fill="#bc1f29"> I</text>
</g>
<!-- state_4 -->
<g id="state_4" class="node">
<title>state_4</title>
<path fill="#fffff0" stroke="#b8860b" stroke-width="1.5" d="M1284,-95.5C1284,-95.5 1234,-95.5 1234,-95.5 1228,-95.5 1222,-89.5 1222,-83.5 1222,-83.5 1222,-50.5 1222,-50.5 1222,-44.5 1228,-38.5 1234,-38.5 1234,-38.5 1284,-38.5 1284,-38.5 1290,-38.5 1296,-44.5 1296,-50.5 1296,-50.5 1296,-83.5 1296,-83.5 1296,-89.5 1290,-95.5 1284,-95.5"/>
<path fill="none" stroke="#b8860b" stroke-width="1.5" d="M1288,-99.5C1288,-99.5 1230,-99.5 1230,-99.5 1224,-99.5 1218,-93.5 1218,-87.5 1218,-87.5 1218,-46.5 1218,-46.5 1218,-40.5 1224,-34.5 1230,-34.5 1230,-34.5 1288,-34.5 1288,-34.5 1294,-34.5 1300,-40.5 1300,-46.5 1300,-46.5 1300,-87.5 1300,-87.5 1300,-93.5 1294,-99.5 1288,-99.5"/>
<g id="a_state_4_title"><a xlink:href="#" xlink:title="state_4_title">
<text text-anchor="start" x="1236" y="-74.6" font-family="Calibri" font-weight="bold" font-size="13.00" fill="#8b4513">Estado </text>
<text text-anchor="start" x="1275" y="-74.6" font-family="Calibri" font-weight="bold" font-size="13.00" fill="#8b4513">4</text>
</a>
</g>
<g id="a_state_4_item_1"><a xlink:href="#" xlink:title="state_4_item_1">
<text text-anchor="start" x="1233" y="-53.8" font-family="Times,serif" font-size="14.00" fill="#bc1f29">S </text>
<text text-anchor="start" x="1245" y="-53.8" font-family="Times,serif" font-size="14.00" fill="#0a5040">→ </text>
<text text-anchor="start" x="1264" y="-53.8" font-family="Times,serif" font-size="14.00" fill="#0a5040"> o</text>
<text text-anchor="start" x="1275" y="-53.8" font-family="Times,serif" font-size="14.00" fill="#f5a70a"> •</text>
</a>
</g>
</g>
<!-- state_1&#45;&gt;state_4 -->
<g id="trans_3" class="edge">
<title>state_1&#45;&gt;state_4</title>
<path fill="none" stroke="#b8860b" stroke-width="1.5" d="M77.8481,-295.6095C106.2966,-194.0411 169.1341,0 234,0 234,0 234,0 1098,0 1137.4038,0 1178.3562,-17.318 1209.0975,-34.3449"/>
<polygon fill="#b8860b" stroke="#b8860b" stroke-width="1.5" points="1207.4711,-37.4465 1217.8914,-39.3617 1210.9398,-31.3663 1207.4711,-37.4465"/>
<text text-anchor="start" x="658" y="-3.8" font-family="Times,serif" font-size="14.00" fill="#0a5040"> o</text>
</g>
<!-- state_6 -->
<g id="state_6" class="node">
<title>state_6</title>
<path fill="#fffff0" stroke="#b8860b" stroke-width="1.5" d="M437,-454.5C437,-454.5 373,-454.5 373,-454.5 367,-454.5 361,-448.5 361,-442.5 361,-442.5 361,-409.5 361,-409.5 361,-403.5 367,-397.5 373,-397.5 373,-397.5 437,-397.5 437,-397.5 443,-397.5 449,-403.5 449,-409.5 449,-409.5 449,-442.5 449,-442.5 449,-448.5 443,-454.5 437,-454.5"/>
<path fill="none" stroke="#b8860b" stroke-width="1.5" d="M441,-458.5C441,-458.5 369,-458.5 369,-458.5 363,-458.5 357,-452.5 357,-446.5 357,-446.5 357,-405.5 357,-405.5 357,-399.5 363,-393.5 369,-393.5 369,-393.5 441,-393.5 441,-393.5 447,-393.5 453,-399.5 453,-405.5 453,-405.5 453,-446.5 453,-446.5 453,-452.5 447,-458.5 441,-458.5"/>
<g id="a_state_6_title"><a xlink:href="#" xlink:title="state_6_title">
<text text-anchor="start" x="382" y="-433.6" font-family="Calibri" font-weight="bold" font-size="13.00" fill="#8b4513">Estado </text>
<text text-anchor="start" x="421" y="-433.6" font-family="Calibri" font-weight="bold" font-size="13.00" fill="#8b4513">6</text>
</a>
</g>
<g id="a_state_6_item_1"><a xlink:href="#" xlink:title="state_6_item_1">
<text text-anchor="start" x="372" y="-412.8" font-family="Times,serif" font-size="14.00" fill="#bc1f29">S&#39; </text>
<text text-anchor="start" x="386" y="-412.8" font-family="Times,serif" font-size="14.00" fill="#0a5040">→ </text>
<text text-anchor="start" x="405" y="-412.8" font-family="Times,serif" font-size="14.00" fill="#bc1f29"> S</text>
<text text-anchor="start" x="417" y="-412.8" font-family="Times,serif" font-size="14.00" fill="#0a5040"> $</text>
<text text-anchor="start" x="428" y="-412.8" font-family="Times,serif" font-size="14.00" fill="#f5a70a"> •</text>
</a>
</g>
</g>
<!-- state_2&#45;&gt;state_6 -->
<g id="trans_5" class="edge">
<title>state_2&#45;&gt;state_6</title>
<path fill="none" stroke="#b8860b" stroke-width="1.5" d="M278.0367,-424.515C298.9755,-424.7599 324.2918,-425.056 346.7912,-425.3192"/>
<polygon fill="#b8860b" stroke="#b8860b" stroke-width="1.5" points="346.8645,-428.8202 356.9048,-425.4375 346.9464,-421.8207 346.8645,-428.8202"/>
<text text-anchor="start" x="314" y="-428.8" font-family="Times,serif" font-size="14.00" fill="#0a5040"> $</text>
</g>
<!-- state_7 -->
<g id="state_7" class="node">
<title>state_7</title>
<path fill="#fffff0" stroke="#b8860b" stroke-width="1.5" d="M455,-260.5C455,-260.5 355,-260.5 355,-260.5 349,-260.5 343,-254.5 343,-248.5 343,-248.5 343,-173.5 343,-173.5 343,-167.5 349,-161.5 355,-161.5 355,-161.5 455,-161.5 455,-161.5 461,-161.5 467,-167.5 467,-173.5 467,-173.5 467,-248.5 467,-248.5 467,-254.5 461,-260.5 455,-260.5"/>
<g id="a_state_7_title"><a xlink:href="#" xlink:title="state_7_title">
<text text-anchor="start" x="382" y="-239.6" font-family="Calibri" font-weight="bold" font-size="13.00" fill="#8b4513">Estado </text>
<text text-anchor="start" x="421" y="-239.6" font-family="Calibri" font-weight="bold" font-size="13.00" fill="#8b4513">7</text>
</a>
</g>
<g id="a_state_7_item_1"><a xlink:href="#" xlink:title="state_7_item_1">
<text text-anchor="start" x="354" y="-218.8" font-family="Times,serif" font-size="14.00" fill="#bc1f29">I </text>
<text text-anchor="start" x="363" y="-218.8" font-family="Times,serif" font-size="14.00" fill="#0a5040">→ </text>
<text text-anchor="start" x="382" y="-218.8" font-family="Times,serif" font-size="14.00" fill="#0a5040"> i</text>
<text text-anchor="start" x="390" y="-218.8" font-family="Times,serif" font-size="14.00" fill="#0a5040"> (</text>
<text text-anchor="start" x="399" y="-218.8" font-family="Times,serif" font-size="14.00" fill="#f5a70a"> •</text>
<text text-anchor="start" x="409" y="-218.8" font-family="Times,serif" font-size="14.00" fill="#bc1f29"> B</text>
<text text-anchor="start" x="422" y="-218.8" font-family="Times,serif" font-size="14.00" fill="#0a5040"> )</text>
<text text-anchor="start" x="431" y="-218.8" font-family="Times,serif" font-size="14.00" fill="#bc1f29"> S</text>
<text text-anchor="start" x="443" y="-218.8" font-family="Times,serif" font-size="14.00" fill="#bc1f29"> E</text>
</a>
</g>
<g id="a_state_7_item_2"><a xlink:href="#" xlink:title="state_7_item_2">
<text text-anchor="start" x="354" y="-197.8" font-family="Times,serif" font-size="14.00" fill="#bc1f29">B </text>
<text text-anchor="start" x="367" y="-197.8" font-family="Times,serif" font-size="14.00" fill="#0a5040">→ </text>
<text text-anchor="start" x="386" y="-197.8" font-family="Times,serif" font-size="14.00" fill="#f5a70a"> •</text>
<text text-anchor="start" x="396" y="-197.8" font-family="Times,serif" font-size="14.00" fill="#0a5040"> t</text>
</a>
</g>
<g id="a_state_7_item_3"><a xlink:href="#" xlink:title="state_7_item_3">
<text text-anchor="start" x="354" y="-176.8" font-family="Times,serif" font-size="14.00" fill="#bc1f29">B </text>
<text text-anchor="start" x="367" y="-176.8" font-family="Times,serif" font-size="14.00" fill="#0a5040">→ </text>
<text text-anchor="start" x="386" y="-176.8" font-family="Times,serif" font-size="14.00" fill="#f5a70a"> •</text>
<text text-anchor="start" x="396" y="-176.8" font-family="Times,serif" font-size="14.00" fill="#0a5040"> f</text>
</a>
</g>
</g>
<!-- state_5&#45;&gt;state_7 -->
<g id="trans_6" class="edge">
<title>state_5&#45;&gt;state_7</title>
<path fill="none" stroke="#b8860b" stroke-width="1.5" d="M296.2187,-226.9037C308.0808,-225.1695 320.5902,-223.3406 332.7345,-221.5651"/>
<polygon fill="#b8860b" stroke="#b8860b" stroke-width="1.5" points="333.4392,-224.9994 342.8277,-220.0895 332.4265,-218.073 333.4392,-224.9994"/>
<text text-anchor="start" x="315" y="-227.8" font-family="Times,serif" font-size="14.00" fill="#0a5040"> (</text>
</g>
<!-- state_8 -->
<g id="state_8" class="node">
<title>state_8</title>
<path fill="#fffff0" stroke="#b8860b" stroke-width="1.5" d="M628,-289.5C628,-289.5 528,-289.5 528,-289.5 522,-289.5 516,-283.5 516,-277.5 516,-277.5 516,-244.5 516,-244.5 516,-238.5 522,-232.5 528,-232.5 528,-232.5 628,-232.5 628,-232.5 634,-232.5 640,-238.5 640,-244.5 640,-244.5 640,-277.5 640,-277.5 640,-283.5 634,-289.5 628,-289.5"/>
<g id="a_state_8_title"><a xlink:href="#" xlink:title="state_8_title">
<text text-anchor="start" x="555" y="-268.6" font-family="Calibri" font-weight="bold" font-size="13.00" fill="#8b4513">Estado </text>
<text text-anchor="start" x="594" y="-268.6" font-family="Calibri" font-weight="bold" font-size="13.00" fill="#8b4513">8</text>
</a>
</g>
<g id="a_state_8_item_1"><a xlink:href="#" xlink:title="state_8_item_1">
<text text-anchor="start" x="527" y="-247.8" font-family="Times,serif" font-size="14.00" fill="#bc1f29">I </text>
<text text-anchor="start" x="536" y="-247.8" font-family="Times,serif" font-size="14.00" fill="#0a5040">→ </text>
<text text-anchor="start" x="555" y="-247.8" font-family="Times,serif" font-size="14.00" fill="#0a5040"> i</text>
<text text-anchor="start" x="563" y="-247.8" font-family="Times,serif" font-size="14.00" fill="#0a5040"> (</text>
<text text-anchor="start" x="572" y="-247.8" font-family="Times,serif" font-size="14.00" fill="#bc1f29"> B</text>
<text text-anchor="start" x="585" y="-247.8" font-family="Times,serif" font-size="14.00" fill="#f5a70a"> •</text>
<text text-anchor="start" x="595" y="-247.8" font-family="Times,serif" font-size="14.00" fill="#0a5040"> )</text>
<text text-anchor="start" x="604" y="-247.8" font-family="Times,serif" font-size="14.00" fill="#bc1f29"> S</text>
<text text-anchor="start" x="616" y="-247.8" font-family="Times,serif" font-size="14.00" fill="#bc1f29"> E</text>
</a>
</g>
</g>
<!-- state_7&#45;&gt;state_8 -->
<g id="trans_7" class="edge">
<title>state_7&#45;&gt;state_8</title>
<path fill="none" stroke="#b8860b" stroke-width="1.5" d="M467.457,-229.0511C480.0284,-232.6845 493.3358,-236.5306 506.1967,-240.2476"/>
<polygon fill="#b8860b" stroke="#b8860b" stroke-width="1.5" points="505.3462,-243.645 515.9248,-243.0592 507.2898,-236.9202 505.3462,-243.645"/>
<text text-anchor="start" x="485" y="-240.8" font-family="Times,serif" font-size="14.00" fill="#bc1f29"> B</text>
</g>
<!-- state_9 -->
<g id="state_9" class="node">
<title>state_9</title>
<path fill="#fffff0" stroke="#b8860b" stroke-width="1.5" d="M602,-127.5C602,-127.5 554,-127.5 554,-127.5 548,-127.5 542,-121.5 542,-115.5 542,-115.5 542,-82.5 542,-82.5 542,-76.5 548,-70.5 554,-70.5 554,-70.5 602,-70.5 602,-70.5 608,-70.5 614,-76.5 614,-82.5 614,-82.5 614,-115.5 614,-115.5 614,-121.5 608,-127.5 602,-127.5"/>
<path fill="none" stroke="#b8860b" stroke-width="1.5" d="M606,-131.5C606,-131.5 550,-131.5 550,-131.5 544,-131.5 538,-125.5 538,-119.5 538,-119.5 538,-78.5 538,-78.5 538,-72.5 544,-66.5 550,-66.5 550,-66.5 606,-66.5 606,-66.5 612,-66.5 618,-72.5 618,-78.5 618,-78.5 618,-119.5 618,-119.5 618,-125.5 612,-131.5 606,-131.5"/>
<g id="a_state_9_title"><a xlink:href="#" xlink:title="state_9_title">
<text text-anchor="start" x="555" y="-106.6" font-family="Calibri" font-weight="bold" font-size="13.00" fill="#8b4513">Estado </text>
<text text-anchor="start" x="594" y="-106.6" font-family="Calibri" font-weight="bold" font-size="13.00" fill="#8b4513">9</text>
</a>
</g>
<g id="a_state_9_item_1"><a xlink:href="#" xlink:title="state_9_item_1">
<text text-anchor="start" x="553" y="-85.8" font-family="Times,serif" font-size="14.00" fill="#bc1f29">B </text>
<text text-anchor="start" x="566" y="-85.8" font-family="Times,serif" font-size="14.00" fill="#0a5040">→ </text>
<text text-anchor="start" x="585" y="-85.8" font-family="Times,serif" font-size="14.00" fill="#0a5040"> t</text>
<text text-anchor="start" x="593" y="-85.8" font-family="Times,serif" font-size="14.00" fill="#f5a70a"> •</text>
</a>
</g>
</g>
<!-- state_7&#45;&gt;state_9 -->
<g id="trans_8" class="edge">
<title>state_7&#45;&gt;state_9</title>
<path fill="none" stroke="#b8860b" stroke-width="1.5" d="M467.457,-170.5654C487.8521,-157.3617 510.1843,-142.9038 529.4043,-130.4608"/>
<polygon fill="#b8860b" stroke="#b8860b" stroke-width="1.5" points="531.5056,-133.2699 537.9979,-124.8973 527.7014,-127.3938 531.5056,-133.2699"/>
<text text-anchor="start" x="487.5" y="-161.8" font-family="Times,serif" font-size="14.00" fill="#0a5040"> t</text>
</g>
<!-- state_10 -->
<g id="state_10" class="node">
<title>state_10</title>
<path fill="#fffff0" stroke="#b8860b" stroke-width="1.5" d="M603.5,-210.5C603.5,-210.5 552.5,-210.5 552.5,-210.5 546.5,-210.5 540.5,-204.5 540.5,-198.5 540.5,-198.5 540.5,-165.5 540.5,-165.5 540.5,-159.5 546.5,-153.5 552.5,-153.5 552.5,-153.5 603.5,-153.5 603.5,-153.5 609.5,-153.5 615.5,-159.5 615.5,-165.5 615.5,-165.5 615.5,-198.5 615.5,-198.5 615.5,-204.5 609.5,-210.5 603.5,-210.5"/>
<path fill="none" stroke="#b8860b" stroke-width="1.5" d="M607.5,-214.5C607.5,-214.5 548.5,-214.5 548.5,-214.5 542.5,-214.5 536.5,-208.5 536.5,-202.5 536.5,-202.5 536.5,-161.5 536.5,-161.5 536.5,-155.5 542.5,-149.5 548.5,-149.5 548.5,-149.5 607.5,-149.5 607.5,-149.5 613.5,-149.5 619.5,-155.5 619.5,-161.5 619.5,-161.5 619.5,-202.5 619.5,-202.5 619.5,-208.5 613.5,-214.5 607.5,-214.5"/>
<g id="a_state_10_title"><a xlink:href="#" xlink:title="state_10_title">
<text text-anchor="start" x="552" y="-189.6" font-family="Calibri" font-weight="bold" font-size="13.00" fill="#8b4513">Estado </text>
<text text-anchor="start" x="591" y="-189.6" font-family="Calibri" font-weight="bold" font-size="13.00" fill="#8b4513">10</text>
</a>
</g>
<g id="a_state_10_item_1"><a xlink:href="#" xlink:title="state_10_item_1">
<text text-anchor="start" x="552" y="-168.8" font-family="Times,serif" font-size="14.00" fill="#bc1f29">B </text>
<text text-anchor="start" x="565" y="-168.8" font-family="Times,serif" font-size="14.00" fill="#0a5040">→ </text>
<text text-anchor="start" x="584" y="-168.8" font-family="Times,serif" font-size="14.00" fill="#0a5040"> f</text>
<text text-anchor="start" x="593" y="-168.8" font-family="Times,serif" font-size="14.00" fill="#f5a70a"> •</text>
</a>
</g>
</g>
<!-- state_7&#45;&gt;state_10 -->
<g id="trans_9" class="edge">
<title>state_7&#45;&gt;state_10</title>
<path fill="none" stroke="#b8860b" stroke-width="1.5" d="M467.457,-200.5303C486.8109,-197.286 507.9092,-193.7493 526.437,-190.6435"/>
<polygon fill="#b8860b" stroke="#b8860b" stroke-width="1.5" points="527.1547,-194.0721 536.4384,-188.967 525.9973,-187.1685 527.1547,-194.0721"/>
<text text-anchor="start" x="487" y="-200.8" font-family="Times,serif" font-size="14.00" fill="#0a5040"> f</text>
</g>
<!-- state_11 -->
<g id="state_11" class="node">
<title>state_11</title>
<path fill="#fffff0" stroke="#b8860b" stroke-width="1.5" d="M799,-321C799,-321 699,-321 699,-321 693,-321 687,-315 687,-309 687,-309 687,-213 687,-213 687,-207 693,-201 699,-201 699,-201 799,-201 799,-201 805,-201 811,-207 811,-213 811,-213 811,-309 811,-309 811,-315 805,-321 799,-321"/>
<g id="a_state_11_title"><a xlink:href="#" xlink:title="state_11_title">
<text text-anchor="start" x="722.5" y="-300.6" font-family="Calibri" font-weight="bold" font-size="13.00" fill="#8b4513">Estado </text>
<text text-anchor="start" x="761.5" y="-300.6" font-family="Calibri" font-weight="bold" font-size="13.00" fill="#8b4513">11</text>
</a>
</g>
<g id="a_state_11_item_1"><a xlink:href="#" xlink:title="state_11_item_1">
<text text-anchor="start" x="698" y="-279.8" font-family="Times,serif" font-size="14.00" fill="#bc1f29">I </text>
<text text-anchor="start" x="707" y="-279.8" font-family="Times,serif" font-size="14.00" fill="#0a5040">→ </text>
<text text-anchor="start" x="726" y="-279.8" font-family="Times,serif" font-size="14.00" fill="#0a5040"> i</text>
<text text-anchor="start" x="734" y="-279.8" font-family="Times,serif" font-size="14.00" fill="#0a5040"> (</text>
<text text-anchor="start" x="743" y="-279.8" font-family="Times,serif" font-size="14.00" fill="#bc1f29"> B</text>
<text text-anchor="start" x="756" y="-279.8" font-family="Times,serif" font-size="14.00" fill="#0a5040"> )</text>
<text text-anchor="start" x="765" y="-279.8" font-family="Times,serif" font-size="14.00" fill="#f5a70a"> •</text>
<text text-anchor="start" x="775" y="-279.8" font-family="Times,serif" font-size="14.00" fill="#bc1f29"> S</text>
<text text-anchor="start" x="787" y="-279.8" font-family="Times,serif" font-size="14.00" fill="#bc1f29"> E</text>
</a>
</g>
<g id="a_state_11_item_2"><a xlink:href="#" xlink:title="state_11_item_2">
<text text-anchor="start" x="698" y="-258.8" font-family="Times,serif" font-size="14.00" fill="#bc1f29">S </text>
<text text-anchor="start" x="710" y="-258.8" font-family="Times,serif" font-size="14.00" fill="#0a5040">→ </text>
<text text-anchor="start" x="729" y="-258.8" font-family="Times,serif" font-size="14.00" fill="#f5a70a"> •</text>
<text text-anchor="start" x="739" y="-258.8" font-family="Times,serif" font-size="14.00" fill="#bc1f29"> I</text>
</a>
</g>
<g id="a_state_11_item_3"><a xlink:href="#" xlink:title="state_11_item_3">
<text text-anchor="start" x="698" y="-237.8" font-family="Times,serif" font-size="14.00" fill="#bc1f29">S </text>
<text text-anchor="start" x="710" y="-237.8" font-family="Times,serif" font-size="14.00" fill="#0a5040">→ </text>
<text text-anchor="start" x="729" y="-237.8" font-family="Times,serif" font-size="14.00" fill="#f5a70a"> •</text>
<text text-anchor="start" x="739" y="-237.8" font-family="Times,serif" font-size="14.00" fill="#0a5040"> o</text>
</a>
</g>
<g id="a_state_11_item_4"><a xlink:href="#" xlink:title="state_11_item_4">
<text text-anchor="start" x="698" y="-216.8" font-family="Times,serif" font-size="14.00" fill="#bc1f29">I </text>
<text text-anchor="start" x="707" y="-216.8" font-family="Times,serif" font-size="14.00" fill="#0a5040">→ </text>
<text text-anchor="start" x="726" y="-216.8" font-family="Times,serif" font-size="14.00" fill="#f5a70a"> •</text>
<text text-anchor="start" x="736" y="-216.8" font-family="Times,serif" font-size="14.00" fill="#0a5040"> i</text>
<text text-anchor="start" x="744" y="-216.8" font-family="Times,serif" font-size="14.00" fill="#0a5040"> (</text>
<text text-anchor="start" x="753" y="-216.8" font-family="Times,serif" font-size="14.00" fill="#bc1f29"> B</text>
<text text-anchor="start" x="766" y="-216.8" font-family="Times,serif" font-size="14.00" fill="#0a5040"> )</text>
<text text-anchor="start" x="775" y="-216.8" font-family="Times,serif" font-size="14.00" fill="#bc1f29"> S</text>
<text text-anchor="start" x="787" y="-216.8" font-family="Times,serif" font-size="14.00" fill="#bc1f29"> E</text>
</a>
</g>
</g>
<!-- state_8&#45;&gt;state_11 -->
<g id="trans_10" class="edge">
<title>state_8&#45;&gt;state_11</title>
<path fill="none" stroke="#b8860b" stroke-width="1.5" d="M640.2187,-261C652.0808,-261 664.5902,-261 676.7345,-261"/>
<polygon fill="#b8860b" stroke="#b8860b" stroke-width="1.5" points="676.8277,-264.5001 686.8277,-261 676.8276,-257.5001 676.8277,-264.5001"/>
<text text-anchor="start" x="659" y="-264.8" font-family="Times,serif" font-size="14.00" fill="#0a5040"> )</text>
</g>
<!-- state_11&#45;&gt;state_5 -->
<g id="trans_14" class="edge">
<title>state_11&#45;&gt;state_5</title>
<path fill="none" stroke="#b8860b" stroke-width="1.5" d="M686.8325,-286.6844C671.7587,-291.785 655.5111,-296.3737 640,-299 523.253,-318.767 387.1987,-286.4081 305.9665,-261.2132"/>
<polygon fill="#b8860b" stroke="#b8860b" stroke-width="1.5" points="306.9264,-257.8461 296.3369,-258.1801 304.8234,-264.5227 306.9264,-257.8461"/>
<text text-anchor="start" x="487.5" y="-304.8" font-family="Times,serif" font-size="14.00" fill="#0a5040"> i</text>
</g>
<!-- state_11&#45;&gt;state_3 -->
<g id="trans_12" class="edge">
<title>state_11&#45;&gt;state_3</title>
<path fill="none" stroke="#b8860b" stroke-width="1.5" d="M811.107,-292.0711C826.413,-298.4487 843.0096,-304.3296 859,-308 982.1234,-336.2615 1131.9807,-333.9761 1208.5936,-330.2691"/>
<polygon fill="#b8860b" stroke="#b8860b" stroke-width="1.5" points="1209.1001,-333.7478 1218.9075,-329.7396 1208.7411,-326.757 1209.1001,-333.7478"/>
<text text-anchor="start" x="1003" y="-332.8" font-family="Times,serif" font-size="14.00" fill="#bc1f29"> I</text>
</g>
<!-- state_11&#45;&gt;state_4 -->
<g id="trans_13" class="edge">
<title>state_11&#45;&gt;state_4</title>
<path fill="none" stroke="#b8860b" stroke-width="1.5" d="M811.1799,-210.2425C865.7721,-168.8348 949.1879,-112.9389 1032,-86 1090.0393,-67.1197 1160.5979,-64.0982 1207.4887,-64.6762"/>
<polygon fill="#b8860b" stroke="#b8860b" stroke-width="1.5" points="1207.6434,-68.1795 1217.706,-64.8638 1207.772,-61.1807 1207.6434,-68.1795"/>
<text text-anchor="start" x="1002" y="-100.8" font-family="Times,serif" font-size="14.00" fill="#0a5040"> o</text>
</g>
<!-- state_12 -->
<g id="state_12" class="node">
<title>state_12</title>
<path fill="#f5f5dc" stroke="#b8860b" stroke-width="1.5" stroke-dasharray="5,2" d="M971,-298.5C971,-298.5 871,-298.5 871,-298.5 865,-298.5 859,-292.5 859,-286.5 859,-286.5 859,-211.5 859,-211.5 859,-205.5 865,-199.5 871,-199.5 871,-199.5 971,-199.5 971,-199.5 977,-199.5 983,-205.5 983,-211.5 983,-211.5 983,-286.5 983,-286.5 983,-292.5 977,-298.5 971,-298.5"/>
<g id="a_state_12_title"><a xlink:href="#" xlink:title="state_12_title">
<text text-anchor="start" x="894.5" y="-277.6" font-family="Calibri" font-weight="bold" font-size="13.00" fill="#8b4513">Estado </text>
<text text-anchor="start" x="933.5" y="-277.6" font-family="Calibri" font-weight="bold" font-size="13.00" fill="#8b4513">12</text>
</a>
</g>
<g id="a_state_12_item_1"><a xlink:href="#" xlink:title="state_12_item_1">
<text text-anchor="start" x="870" y="-256.8" font-family="Times,serif" font-size="14.00" fill="#bc1f29">I </text>
<text text-anchor="start" x="879" y="-256.8" font-family="Times,serif" font-size="14.00" fill="#0a5040">→ </text>
<text text-anchor="start" x="898" y="-256.8" font-family="Times,serif" font-size="14.00" fill="#0a5040"> i</text>
<text text-anchor="start" x="906" y="-256.8" font-family="Times,serif" font-size="14.00" fill="#0a5040"> (</text>
<text text-anchor="start" x="915" y="-256.8" font-family="Times,serif" font-size="14.00" fill="#bc1f29"> B</text>
<text text-anchor="start" x="928" y="-256.8" font-family="Times,serif" font-size="14.00" fill="#0a5040"> )</text>
<text text-anchor="start" x="937" y="-256.8" font-family="Times,serif" font-size="14.00" fill="#bc1f29"> S</text>
<text text-anchor="start" x="949" y="-256.8" font-family="Times,serif" font-size="14.00" fill="#f5a70a"> •</text>
<text text-anchor="start" x="959" y="-256.8" font-family="Times,serif" font-size="14.00" fill="#bc1f29"> E</text>
</a>
</g>
<g id="a_state_12_item_2"><a xlink:href="#" xlink:title="state_12_item_2">
<text text-anchor="start" x="870" y="-235.8" font-family="Times,serif" font-size="14.00" fill="#bc1f29">E </text>
<text text-anchor="start" x="883" y="-235.8" font-family="Times,serif" font-size="14.00" fill="#0a5040">→ </text>
<text text-anchor="start" x="902" y="-235.8" font-family="Times,serif" font-size="14.00" fill="#f5a70a"> •</text>
<text text-anchor="start" x="912" y="-235.8" font-family="Times,serif" font-size="14.00" fill="#0a5040"> e</text>
<text text-anchor="start" x="922" y="-235.8" font-family="Times,serif" font-size="14.00" fill="#bc1f29"> S</text>
</a>
</g>
<g id="a_state_12_item_3"><a xlink:href="#" xlink:title="state_12_item_3">
<text text-anchor="start" x="870" y="-214.8" font-family="Times,serif" font-size="14.00" fill="#bc1f29">E </text>
<text text-anchor="start" x="883" y="-214.8" font-family="Times,serif" font-size="14.00" fill="#0a5040">→ </text>
<text text-anchor="start" x="902" y="-214.8" font-family="Times,serif" font-size="14.00" fill="#f5a70a"> •</text>
</a>
</g>
</g>
<!-- state_11&#45;&gt;state_12 -->
<g id="trans_11" class="edge">
<title>state_11&#45;&gt;state_12</title>
<path fill="none" stroke="#b8860b" stroke-width="1.5" d="M811.0959,-256.6677C823.3962,-255.8096 836.4052,-254.902 849.0023,-254.0231"/>
<polygon fill="#b8860b" stroke="#b8860b" stroke-width="1.5" points="849.2631,-257.5135 858.9952,-253.3259 848.7758,-250.5305 849.2631,-257.5135"/>
<text text-anchor="start" x="829" y="-258.8" font-family="Times,serif" font-size="14.00" fill="#bc1f29"> S</text>
</g>
<!-- state_14 -->
<g id="state_14" class="node">
<title>state_14</title>
<path fill="#fffff0" stroke="#b8860b" stroke-width="1.5" d="M1148,-215C1148,-215 1048,-215 1048,-215 1042,-215 1036,-209 1036,-203 1036,-203 1036,-107 1036,-107 1036,-101 1042,-95 1048,-95 1048,-95 1148,-95 1148,-95 1154,-95 1160,-101 1160,-107 1160,-107 1160,-203 1160,-203 1160,-209 1154,-215 1148,-215"/>
<g id="a_state_14_title"><a xlink:href="#" xlink:title="state_14_title">
<text text-anchor="start" x="1071.5" y="-194.6" font-family="Calibri" font-weight="bold" font-size="13.00" fill="#8b4513">Estado </text>
<text text-anchor="start" x="1110.5" y="-194.6" font-family="Calibri" font-weight="bold" font-size="13.00" fill="#8b4513">14</text>
</a>
</g>
<g id="a_state_14_item_1"><a xlink:href="#" xlink:title="state_14_item_1">
<text text-anchor="start" x="1047" y="-173.8" font-family="Times,serif" font-size="14.00" fill="#bc1f29">E </text>
<text text-anchor="start" x="1060" y="-173.8" font-family="Times,serif" font-size="14.00" fill="#0a5040">→ </text>
<text text-anchor="start" x="1079" y="-173.8" font-family="Times,serif" font-size="14.00" fill="#0a5040"> e</text>
<text text-anchor="start" x="1089" y="-173.8" font-family="Times,serif" font-size="14.00" fill="#f5a70a"> •</text>
<text text-anchor="start" x="1099" y="-173.8" font-family="Times,serif" font-size="14.00" fill="#bc1f29"> S</text>
</a>
</g>
<g id="a_state_14_item_2"><a xlink:href="#" xlink:title="state_14_item_2">
<text text-anchor="start" x="1047" y="-152.8" font-family="Times,serif" font-size="14.00" fill="#bc1f29">S </text>
<text text-anchor="start" x="1059" y="-152.8" font-family="Times,serif" font-size="14.00" fill="#0a5040">→ </text>
<text text-anchor="start" x="1078" y="-152.8" font-family="Times,serif" font-size="14.00" fill="#f5a70a"> •</text>
<text text-anchor="start" x="1088" y="-152.8" font-family="Times,serif" font-size="14.00" fill="#bc1f29"> I</text>
</a>
</g>
<g id="a_state_14_item_3"><a xlink:href="#" xlink:title="state_14_item_3">
<text text-anchor="start" x="1047" y="-131.8" font-family="Times,serif" font-size="14.00" fill="#bc1f29">S </text>
<text text-anchor="start" x="1059" y="-131.8" font-family="Times,serif" font-size="14.00" fill="#0a5040">→ </text>
<text text-anchor="start" x="1078" y="-131.8" font-family="Times,serif" font-size="14.00" fill="#f5a70a"> •</text>
<text text-anchor="start" x="1088" y="-131.8" font-family="Times,serif" font-size="14.00" fill="#0a5040"> o</text>
</a>
</g>
<g id="a_state_14_item_4"><a xlink:href="#" xlink:title="state_14_item_4">
<text text-anchor="start" x="1047" y="-110.8" font-family="Times,serif" font-size="14.00" fill="#bc1f29">I </text>
<text text-anchor="start" x="1056" y="-110.8" font-family="Times,serif" font-size="14.00" fill="#0a5040">→ </text>
<text text-anchor="start" x="1075" y="-110.8" font-family="Times,serif" font-size="14.00" fill="#f5a70a"> •</text>
<text text-anchor="start" x="1085" y="-110.8" font-family="Times,serif" font-size="14.00" fill="#0a5040"> i</text>
<text text-anchor="start" x="1093" y="-110.8" font-family="Times,serif" font-size="14.00" fill="#0a5040"> (</text>
<text text-anchor="start" x="1102" y="-110.8" font-family="Times,serif" font-size="14.00" fill="#bc1f29"> B</text>
<text text-anchor="start" x="1115" y="-110.8" font-family="Times,serif" font-size="14.00" fill="#0a5040"> )</text>
<text text-anchor="start" x="1124" y="-110.8" font-family="Times,serif" font-size="14.00" fill="#bc1f29"> S</text>
<text text-anchor="start" x="1136" y="-110.8" font-family="Times,serif" font-size="14.00" fill="#bc1f29"> E</text>
</a>
</g>
</g>
<!-- state_14&#45;&gt;state_5 -->
<g id="trans_20" class="edge">
<title>state_14&#45;&gt;state_5</title>
<path fill="none" stroke="#b8860b" stroke-width="1.5" d="M1042.9469,-94.7864C1010.6703,-66.1186 967.229,-38 921,-38 405,-38 405,-38 405,-38 321.4891,-38 269.7283,-140.1352 247.1885,-197.6953"/>
<polygon fill="#b8860b" stroke="#b8860b" stroke-width="1.5" points="243.8536,-196.6181 243.5695,-207.2091 250.3963,-199.1069 243.8536,-196.6181"/>
<text text-anchor="start" x="659.5" y="-41.8" font-family="Times,serif" font-size="14.00" fill="#0a5040"> i</text>
</g>
<!-- state_14&#45;&gt;state_3 -->
<g id="trans_18" class="edge">
<title>state_14&#45;&gt;state_3</title>
<path fill="none" stroke="#b8860b" stroke-width="1.5" d="M1154.9051,-215.307C1157.9834,-218.584 1161.0305,-221.8312 1164,-225 1182.9671,-245.2403 1203.995,-267.8046 1221.4356,-286.5538"/>
<polygon fill="#b8860b" stroke="#b8860b" stroke-width="1.5" points="1219.3011,-289.3982 1228.674,-294.3378 1224.4272,-284.6313 1219.3011,-289.3982"/>
<text text-anchor="start" x="1183.5" y="-258.8" font-family="Times,serif" font-size="14.00" fill="#bc1f29"> I</text>
</g>
<!-- state_14&#45;&gt;state_4 -->
<g id="trans_19" class="edge">
<title>state_14&#45;&gt;state_4</title>
<path fill="none" stroke="#b8860b" stroke-width="1.5" d="M1160.2468,-120.9769C1176.3722,-112.163 1193.5291,-102.7853 1208.9404,-94.3618"/>
<polygon fill="#b8860b" stroke="#b8860b" stroke-width="1.5" points="1210.6955,-97.3912 1217.7916,-89.5238 1207.3382,-91.2489 1210.6955,-97.3912"/>
<text text-anchor="start" x="1182.5" y="-112.8" font-family="Times,serif" font-size="14.00" fill="#0a5040"> o</text>
</g>
<!-- state_15 -->
<g id="state_15" class="node">
<title>state_15</title>
<path fill="#fffff0" stroke="#b8860b" stroke-width="1.5" d="M1290,-183.5C1290,-183.5 1228,-183.5 1228,-183.5 1222,-183.5 1216,-177.5 1216,-171.5 1216,-171.5 1216,-138.5 1216,-138.5 1216,-132.5 1222,-126.5 1228,-126.5 1228,-126.5 1290,-126.5 1290,-126.5 1296,-126.5 1302,-132.5 1302,-138.5 1302,-138.5 1302,-171.5 1302,-171.5 1302,-177.5 1296,-183.5 1290,-183.5"/>
<path fill="none" stroke="#b8860b" stroke-width="1.5" d="M1294,-187.5C1294,-187.5 1224,-187.5 1224,-187.5 1218,-187.5 1212,-181.5 1212,-175.5 1212,-175.5 1212,-134.5 1212,-134.5 1212,-128.5 1218,-122.5 1224,-122.5 1224,-122.5 1294,-122.5 1294,-122.5 1300,-122.5 1306,-128.5 1306,-134.5 1306,-134.5 1306,-175.5 1306,-175.5 1306,-181.5 1300,-187.5 1294,-187.5"/>
<g id="a_state_15_title"><a xlink:href="#" xlink:title="state_15_title">
<text text-anchor="start" x="1232.5" y="-162.6" font-family="Calibri" font-weight="bold" font-size="13.00" fill="#8b4513">Estado </text>
<text text-anchor="start" x="1271.5" y="-162.6" font-family="Calibri" font-weight="bold" font-size="13.00" fill="#8b4513">15</text>
</a>
</g>
<g id="a_state_15_item_1"><a xlink:href="#" xlink:title="state_15_item_1">
<text text-anchor="start" x="1227" y="-141.8" font-family="Times,serif" font-size="14.00" fill="#bc1f29">E </text>
<text text-anchor="start" x="1240" y="-141.8" font-family="Times,serif" font-size="14.00" fill="#0a5040">→ </text>
<text text-anchor="start" x="1259" y="-141.8" font-family="Times,serif" font-size="14.00" fill="#0a5040"> e</text>
<text text-anchor="start" x="1269" y="-141.8" font-family="Times,serif" font-size="14.00" fill="#bc1f29"> S</text>
<text text-anchor="start" x="1281" y="-141.8" font-family="Times,serif" font-size="14.00" fill="#f5a70a"> •</text>
</a>
</g>
</g>
<!-- state_14&#45;&gt;state_15 -->
<g id="trans_17" class="edge">
<title>state_14&#45;&gt;state_15</title>
<path fill="none" stroke="#b8860b" stroke-width="1.5" d="M1160.2468,-155C1173.9264,-155 1188.3482,-155 1201.817,-155"/>
<polygon fill="#b8860b" stroke="#b8860b" stroke-width="1.5" points="1201.9029,-158.5001 1211.9028,-155 1201.9028,-151.5001 1201.9029,-158.5001"/>
<text text-anchor="start" x="1182" y="-158.8" font-family="Times,serif" font-size="14.00" fill="#bc1f29"> S</text>
</g>
<!-- state_13 -->
<g id="state_13" class="node">
<title>state_13</title>
<path fill="#fffff0" stroke="#b8860b" stroke-width="1.5" d="M1148,-294.5C1148,-294.5 1048,-294.5 1048,-294.5 1042,-294.5 1036,-288.5 1036,-282.5 1036,-282.5 1036,-249.5 1036,-249.5 1036,-243.5 1042,-237.5 1048,-237.5 1048,-237.5 1148,-237.5 1148,-237.5 1154,-237.5 1160,-243.5 1160,-249.5 1160,-249.5 1160,-282.5 1160,-282.5 1160,-288.5 1154,-294.5 1148,-294.5"/>
<path fill="none" stroke="#b8860b" stroke-width="1.5" d="M1152,-298.5C1152,-298.5 1044,-298.5 1044,-298.5 1038,-298.5 1032,-292.5 1032,-286.5 1032,-286.5 1032,-245.5 1032,-245.5 1032,-239.5 1038,-233.5 1044,-233.5 1044,-233.5 1152,-233.5 1152,-233.5 1158,-233.5 1164,-239.5 1164,-245.5 1164,-245.5 1164,-286.5 1164,-286.5 1164,-292.5 1158,-298.5 1152,-298.5"/>
<g id="a_state_13_title"><a xlink:href="#" xlink:title="state_13_title">
<text text-anchor="start" x="1071.5" y="-273.6" font-family="Calibri" font-weight="bold" font-size="13.00" fill="#8b4513">Estado </text>
<text text-anchor="start" x="1110.5" y="-273.6" font-family="Calibri" font-weight="bold" font-size="13.00" fill="#8b4513">13</text>
</a>
</g>
<g id="a_state_13_item_1"><a xlink:href="#" xlink:title="state_13_item_1">
<text text-anchor="start" x="1047" y="-252.8" font-family="Times,serif" font-size="14.00" fill="#bc1f29">I </text>
<text text-anchor="start" x="1056" y="-252.8" font-family="Times,serif" font-size="14.00" fill="#0a5040">→ </text>
<text text-anchor="start" x="1075" y="-252.8" font-family="Times,serif" font-size="14.00" fill="#0a5040"> i</text>
<text text-anchor="start" x="1083" y="-252.8" font-family="Times,serif" font-size="14.00" fill="#0a5040"> (</text>
<text text-anchor="start" x="1092" y="-252.8" font-family="Times,serif" font-size="14.00" fill="#bc1f29"> B</text>
<text text-anchor="start" x="1105" y="-252.8" font-family="Times,serif" font-size="14.00" fill="#0a5040"> )</text>
<text text-anchor="start" x="1114" y="-252.8" font-family="Times,serif" font-size="14.00" fill="#bc1f29"> S</text>
<text text-anchor="start" x="1126" y="-252.8" font-family="Times,serif" font-size="14.00" fill="#bc1f29"> E</text>
<text text-anchor="start" x="1139" y="-252.8" font-family="Times,serif" font-size="14.00" fill="#f5a70a"> •</text>
</a>
</g>
</g>
<!-- state_12&#45;&gt;state_14 -->
<g id="trans_16" class="edge">
<title>state_12&#45;&gt;state_14</title>
<path fill="none" stroke="#b8860b" stroke-width="1.5" d="M983.4036,-215.8591C997.498,-208.374 1012.5621,-200.3738 1026.9815,-192.716"/>
<polygon fill="#b8860b" stroke="#b8860b" stroke-width="1.5" points="1028.6716,-195.7815 1035.8618,-187.9999 1025.3884,-189.5992 1028.6716,-195.7815"/>
<text text-anchor="start" x="1002.5" y="-207.8" font-family="Times,serif" font-size="14.00" fill="#0a5040"> e</text>
</g>
<!-- state_12&#45;&gt;state_13 -->
<g id="trans_15" class="edge">
<title>state_12&#45;&gt;state_13</title>
<path fill="none" stroke="#b8860b" stroke-width="1.5" d="M983.4036,-254.9936C995.8122,-256.1853 1008.9725,-257.4493 1021.7826,-258.6797"/>
<polygon fill="#b8860b" stroke="#b8860b" stroke-width="1.5" points="1021.6712,-262.185 1031.96,-259.6572 1022.3405,-255.2171 1021.6712,-262.185"/>
<text text-anchor="start" x="1001" y="-260.8" font-family="Times,serif" font-size="14.00" fill="#bc1f29"> E</text>
</g>
</g>
</svg>
