<?xml version="1.0" encoding="UTF-8" standalone="no"?>
<!DOCTYPE svg PUBLIC "-//W3C//DTD SVG 1.1//EN"
 "http://www.w3.org/Graphics/SVG/1.1/DTD/svg11.dtd">
<!-- Generated by graphviz version 2.40.1 (20161225.0304)
 -->
<!-- Title: DFA Pages: 1 -->
<svg width="1242pt" height="394pt"
 viewBox="0.00 0.00 1242.00 393.50" xmlns="http://www.w3.org/2000/svg" xmlns:xlink="http://www.w3.org/1999/xlink">
<g id="graph0" class="graph" transform="scale(1 1) rotate(0) translate(4 389.5)">
<title>DFA</title>
<!-- state_1 -->
<g id="state_1" class="node">
<title>state_1</title>
<path fill="#fffff0" stroke="#b8860b" stroke-width="1.5" d="M176,-321.5C176,-321.5 12,-321.5 12,-321.5 6,-321.5 0,-315.5 0,-309.5 0,-309.5 0,-192.5 0,-192.5 0,-186.5 6,-180.5 12,-180.5 12,-180.5 176,-180.5 176,-180.5 182,-180.5 188,-186.5 188,-192.5 188,-192.5 188,-309.5 188,-309.5 188,-315.5 182,-321.5 176,-321.5"/>
<g id="a_state_1_title"><a xlink:href="#" xlink:title="state_1_title">
<text text-anchor="start" x="71" y="-300.6" font-family="Calibri" font-weight="bold" font-size="13.00" fill="#8b4513">Estado </text>
<text text-anchor="start" x="110" y="-300.6" font-family="Calibri" font-weight="bold" font-size="13.00" fill="#8b4513">1</text>
</a>
</g>
<g id="a_state_1_item_1"><a xlink:href="#" xlink:title="state_1_item_1">
<text text-anchor="start" x="11" y="-279.8" font-family="Times,serif" font-size="14.00" fill="#bc1f29">stmt&#39; </text>
<text text-anchor="start" x="42" y="-279.8" font-family="Times,serif" font-size="14.00" fill="#0a5040">→ </text>
<text text-anchor="start" x="61" y="-279.8" font-family="Times,serif" font-size="14.00" fill="#f5a70a"> •</text>
<text text-anchor="start" x="71" y="-279.8" font-family="Times,serif" font-size="14.00" fill="#bc1f29"> stmt</text>
<text text-anchor="start" x="99" y="-279.8" font-family="Times,serif" font-size="14.00" fill="#0a5040"> $</text>
</a>
</g>
<g id="a_state_1_item_2"><a xlink:href="#" xlink:title="state_1_item_2">
<text text-anchor="start" x="11" y="-258.8" font-family="Times,serif" font-size="14.00" fill="#bc1f29">stmt </text>
<text text-anchor="start" x="39" y="-258.8" font-family="Times,serif" font-size="14.00" fill="#0a5040">→ </text>
<text text-anchor="start" x="58" y="-258.8" font-family="Times,serif" font-size="14.00" fill="#f5a70a"> •</text>
<text text-anchor="start" x="68" y="-258.8" font-family="Times,serif" font-size="14.00" fill="#bc1f29"> if_stmt</text>
</a>
</g>
<g id="a_state_1_item_3"><a xlink:href="#" xlink:title="state_1_item_3">
<text text-anchor="start" x="11" y="-237.8" font-family="Times,serif" font-size="14.00" fill="#bc1f29">stmt </text>
<text text-anchor="start" x="39" y="-237.8" font-family="Times,serif" font-size="14.00" fill="#0a5040">→ </text>
<text text-anchor="start" x="58" y="-237.8" font-family="Times,serif" font-size="14.00" fill="#f5a70a"> •</text>
<text text-anchor="start" x="68" y="-237.8" font-family="Times,serif" font-size="14.00" fill="#0a5040"> other</text>
</a>
</g>
<g id="a_state_1_item_4"><a xlink:href="#" xlink:title="state_1_item_4">
<text text-anchor="start" x="11" y="-216.8" font-family="Times,serif" font-size="14.00" fill="#bc1f29">if_stmt </text>
<text text-anchor="start" x="54" y="-216.8" font-family="Times,serif" font-size="14.00" fill="#0a5040">→ </text>
<text text-anchor="start" x="73" y="-216.8" font-family="Times,serif" font-size="14.00" fill="#f5a70a"> •</text>
<text text-anchor="start" x="83" y="-216.8" font-family="Times,serif" font-size="14.00" fill="#0a5040"> if</text>
<text text-anchor="start" x="96" y="-216.8" font-family="Times,serif" font-size="14.00" fill="#bc1f29"> stmt</text>
</a>
</g>
<g id="a_state_1_item_5"><a xlink:href="#" xlink:title="state_1_item_5">
<text text-anchor="start" x="11" y="-195.8" font-family="Times,serif" font-size="14.00" fill="#bc1f29">if_stmt </text>
<text text-anchor="start" x="54" y="-195.8" font-family="Times,serif" font-size="14.00" fill="#0a5040">→ </text>
<text text-anchor="start" x="73" y="-195.8" font-family="Times,serif" font-size="14.00" fill="#f5a70a"> •</text>
<text text-anchor="start" x="83" y="-195.8" font-family="Times,serif" font-size="14.00" fill="#0a5040"> if</text>
<text text-anchor="start" x="96" y="-195.8" font-family="Times,serif" font-size="14.00" fill="#bc1f29"> stmt</text>
<text text-anchor="start" x="124" y="-195.8" font-family="Times,serif" font-size="14.00" fill="#0a5040"> else</text>
<text text-anchor="start" x="149" y="-195.8" font-family="Times,serif" font-size="14.00" fill="#bc1f29"> stmt</text>
</a>
</g>
</g>
<!-- state_2 -->
<g id="state_2" class="node">
<title>state_2</title>
<path fill="#fffff0" stroke="#b8860b" stroke-width="1.5" d="M394.5,-377.5C394.5,-377.5 297.5,-377.5 297.5,-377.5 291.5,-377.5 285.5,-371.5 285.5,-365.5 285.5,-365.5 285.5,-332.5 285.5,-332.5 285.5,-326.5 291.5,-320.5 297.5,-320.5 297.5,-320.5 394.5,-320.5 394.5,-320.5 400.5,-320.5 406.5,-326.5 406.5,-332.5 406.5,-332.5 406.5,-365.5 406.5,-365.5 406.5,-371.5 400.5,-377.5 394.5,-377.5"/>
<g id="a_state_2_title"><a xlink:href="#" xlink:title="state_2_title">
<text text-anchor="start" x="323.5" y="-356.6" font-family="Calibri" font-weight="bold" font-size="13.00" fill="#8b4513">Estado </text>
<text text-anchor="start" x="362.5" y="-356.6" font-family="Calibri" font-weight="bold" font-size="13.00" fill="#8b4513">2</text>
</a>
</g>
<g id="a_state_2_item_1"><a xlink:href="#" xlink:title="state_2_item_1">
<text text-anchor="start" x="297" y="-335.8" font-family="Times,serif" font-size="14.00" fill="#bc1f29">stmt&#39; </text>
<text text-anchor="start" x="328" y="-335.8" font-family="Times,serif" font-size="14.00" fill="#0a5040">→ </text>
<text text-anchor="start" x="347" y="-335.8" font-family="Times,serif" font-size="14.00" fill="#bc1f29"> stmt</text>
<text text-anchor="start" x="375" y="-335.8" font-family="Times,serif" font-size="14.00" fill="#f5a70a"> •</text>
<text text-anchor="start" x="385" y="-335.8" font-family="Times,serif" font-size="14.00" fill="#0a5040"> $</text>
</a>
</g>
</g>
<!-- state_1&#45;&gt;state_2 -->
<g id="trans_1" class="edge">
<title>state_1&#45;&gt;state_2</title>
<path fill="none" stroke="#b8860b" stroke-width="1.5" d="M188.1544,-293.7566C194.1698,-296.2637 200.155,-298.6986 206,-301 228.3881,-309.8148 253.1299,-318.6035 275.5079,-326.2056"/>
<polygon fill="#b8860b" stroke="#b8860b" stroke-width="1.5" points="274.6778,-329.6193 285.272,-329.4988 276.915,-322.9864 274.6778,-329.6193"/>
<text text-anchor="start" x="206" y="-314.8" font-family="Times,serif" font-size="14.00" fill="#bc1f29"> stmt</text>
</g>
<!-- state_5 -->
<g id="state_5" class="node">
<title>state_5</title>
<path fill="#fffff0" stroke="#b8860b" stroke-width="1.5" d="M428,-226C428,-226 264,-226 264,-226 258,-226 252,-220 252,-214 252,-214 252,-76 252,-76 252,-70 258,-64 264,-64 264,-64 428,-64 428,-64 434,-64 440,-70 440,-76 440,-76 440,-214 440,-214 440,-220 434,-226 428,-226"/>
<g id="a_state_5_title"><a xlink:href="#" xlink:title="state_5_title">
<text text-anchor="start" x="323" y="-205.6" font-family="Calibri" font-weight="bold" font-size="13.00" fill="#8b4513">Estado </text>
<text text-anchor="start" x="362" y="-205.6" font-family="Calibri" font-weight="bold" font-size="13.00" fill="#8b4513">5</text>
</a>
</g>
<g id="a_state_5_item_1"><a xlink:href="#" xlink:title="state_5_item_1">
<text text-anchor="start" x="263" y="-184.8" font-family="Times,serif" font-size="14.00" fill="#bc1f29">if_stmt </text>
<text text-anchor="start" x="306" y="-184.8" font-family="Times,serif" font-size="14.00" fill="#0a5040">→ </text>
<text text-anchor="start" x="325" y="-184.8" font-family="Times,serif" font-size="14.00" fill="#0a5040"> if</text>
<text text-anchor="start" x="338" y="-184.8" font-family="Times,serif" font-size="14.00" fill="#f5a70a"> •</text>
<text text-anchor="start" x="348" y="-184.8" font-family="Times,serif" font-size="14.00" fill="#bc1f29"> stmt</text>
</a>
</g>
<g id="a_state_5_item_2"><a xlink:href="#" xlink:title="state_5_item_2">
<text text-anchor="start" x="263" y="-163.8" font-family="Times,serif" font-size="14.00" fill="#bc1f29">if_stmt </text>
<text text-anchor="start" x="306" y="-163.8" font-family="Times,serif" font-size="14.00" fill="#0a5040">→ </text>
<text text-anchor="start" x="325" y="-163.8" font-family="Times,serif" font-size="14.00" fill="#0a5040"> if</text>
<text text-anchor="start" x="338" y="-163.8" font-family="Times,serif" font-size="14.00" fill="#f5a70a"> •</text>
<text text-anchor="start" x="348" y="-163.8" font-family="Times,serif" font-size="14.00" fill="#bc1f29"> stmt</text>
<text text-anchor="start" x="376" y="-163.8" font-family="Times,serif" font-size="14.00" fill="#0a5040"> else</text>
<text text-anchor="start" x="401" y="-163.8" font-family="Times,serif" font-size="14.00" fill="#bc1f29"> stmt</text>
</a>
</g>
<g id="a_state_5_item_3"><a xlink:href="#" xlink:title="state_5_item_3">
<text text-anchor="start" x="263" y="-142.8" font-family="Times,serif" font-size="14.00" fill="#bc1f29">stmt </text>
<text text-anchor="start" x="291" y="-142.8" font-family="Times,serif" font-size="14.00" fill="#0a5040">→ </text>
<text text-anchor="start" x="310" y="-142.8" font-family="Times,serif" font-size="14.00" fill="#f5a70a"> •</text>
<text text-anchor="start" x="320" y="-142.8" font-family="Times,serif" font-size="14.00" fill="#bc1f29"> if_stmt</text>
</a>
</g>
<g id="a_state_5_item_4"><a xlink:href="#" xlink:title="state_5_item_4">
<text text-anchor="start" x="263" y="-121.8" font-family="Times,serif" font-size="14.00" fill="#bc1f29">stmt </text>
<text text-anchor="start" x="291" y="-121.8" font-family="Times,serif" font-size="14.00" fill="#0a5040">→ </text>
<text text-anchor="start" x="310" y="-121.8" font-family="Times,serif" font-size="14.00" fill="#f5a70a"> •</text>
<text text-anchor="start" x="320" y="-121.8" font-family="Times,serif" font-size="14.00" fill="#0a5040"> other</text>
</a>
</g>
<g id="a_state_5_item_5"><a xlink:href="#" xlink:title="state_5_item_5">
<text text-anchor="start" x="263" y="-100.8" font-family="Times,serif" font-size="14.00" fill="#bc1f29">if_stmt </text>
<text text-anchor="start" x="306" y="-100.8" font-family="Times,serif" font-size="14.00" fill="#0a5040">→ </text>
<text text-anchor="start" x="325" y="-100.8" font-family="Times,serif" font-size="14.00" fill="#f5a70a"> •</text>
<text text-anchor="start" x="335" y="-100.8" font-family="Times,serif" font-size="14.00" fill="#0a5040"> if</text>
<text text-anchor="start" x="348" y="-100.8" font-family="Times,serif" font-size="14.00" fill="#bc1f29"> stmt</text>
</a>
</g>
<g id="a_state_5_item_6"><a xlink:href="#" xlink:title="state_5_item_6">
<text text-anchor="start" x="263" y="-79.8" font-family="Times,serif" font-size="14.00" fill="#bc1f29">if_stmt </text>
<text text-anchor="start" x="306" y="-79.8" font-family="Times,serif" font-size="14.00" fill="#0a5040">→ </text>
<text text-anchor="start" x="325" y="-79.8" font-family="Times,serif" font-size="14.00" fill="#f5a70a"> •</text>
<text text-anchor="start" x="335" y="-79.8" font-family="Times,serif" font-size="14.00" fill="#0a5040"> if</text>
<text text-anchor="start" x="348" y="-79.8" font-family="Times,serif" font-size="14.00" fill="#bc1f29"> stmt</text>
<text text-anchor="start" x="376" y="-79.8" font-family="Times,serif" font-size="14.00" fill="#0a5040"> else</text>
<text text-anchor="start" x="401" y="-79.8" font-family="Times,serif" font-size="14.00" fill="#bc1f29"> stmt</text>
</a>
</g>
</g>
<!-- state_1&#45;&gt;state_5 -->
<g id="trans_4" class="edge">
<title>state_1&#45;&gt;state_5</title>
<path fill="none" stroke="#b8860b" stroke-width="1.5" d="M188.1939,-211.3788C205.9319,-203.9175 224.5698,-196.0778 242.5722,-188.5053"/>
<polygon fill="#b8860b" stroke="#b8860b" stroke-width="1.5" points="244.0596,-191.6768 251.9203,-184.5732 241.3454,-185.2244 244.0596,-191.6768"/>
<text text-anchor="start" x="213.5" y="-204.8" font-family="Times,serif" font-size="14.00" fill="#0a5040"> if</text>
</g>
<!-- state_3 -->
<g id="state_3" class="node">
<title>state_3</title>
<path fill="#fffff0" stroke="#b8860b" stroke-width="1.5" d="M1185,-71.5C1185,-71.5 1087,-71.5 1087,-71.5 1081,-71.5 1075,-65.5 1075,-59.5 1075,-59.5 1075,-26.5 1075,-26.5 1075,-20.5 1081,-14.5 1087,-14.5 1087,-14.5 1185,-14.5 1185,-14.5 1191,-14.5 1197,-20.5 1197,-26.5 1197,-26.5 1197,-59.5 1197,-59.5 1197,-65.5 1191,-71.5 1185,-71.5"/>
<path fill="none" stroke="#b8860b" stroke-width="1.5" d="M1189,-75.5C1189,-75.5 1083,-75.5 1083,-75.5 1077,-75.5 1071,-69.5 1071,-63.5 1071,-63.5 1071,-22.5 1071,-22.5 1071,-16.5 1077,-10.5 1083,-10.5 1083,-10.5 1189,-10.5 1189,-10.5 1195,-10.5 1201,-16.5 1201,-22.5 1201,-22.5 1201,-63.5 1201,-63.5 1201,-69.5 1195,-75.5 1189,-75.5"/>
<g id="a_state_3_title"><a xlink:href="#" xlink:title="state_3_title">
<text text-anchor="start" x="1113" y="-50.6" font-family="Calibri" font-weight="bold" font-size="13.00" fill="#8b4513">Estado </text>
<text text-anchor="start" x="1152" y="-50.6" font-family="Calibri" font-weight="bold" font-size="13.00" fill="#8b4513">3</text>
</a>
</g>
<g id="a_state_3_item_1"><a xlink:href="#" xlink:title="state_3_item_1">
<text text-anchor="start" x="1086" y="-29.8" font-family="Times,serif" font-size="14.00" fill="#bc1f29">stmt </text>
<text text-anchor="start" x="1114" y="-29.8" font-family="Times,serif" font-size="14.00" fill="#0a5040">→ </text>
<text text-anchor="start" x="1133" y="-29.8" font-family="Times,serif" font-size="14.00" fill="#bc1f29"> if_stmt</text>
<text text-anchor="start" x="1176" y="-29.8" font-family="Times,serif" font-size="14.00" fill="#f5a70a"> •</text>
</a>
</g>
</g>
<!-- state_1&#45;&gt;state_3 -->
<g id="trans_2" class="edge">
<title>state_1&#45;&gt;state_3</title>
<path fill="none" stroke="#b8860b" stroke-width="1.5" d="M127.1674,-180.4145C167.5136,-106.175 243.1876,0 346,0 346,0 346,0 865,0 931.8205,0 1006.7763,-12.9097 1060.8911,-24.5819"/>
<polygon fill="#b8860b" stroke="#b8860b" stroke-width="1.5" points="1060.2287,-28.0197 1070.7464,-26.7435 1061.7285,-21.1823 1060.2287,-28.0197"/>
<text text-anchor="start" x="576.5" y="-3.8" font-family="Times,serif" font-size="14.00" fill="#bc1f29"> if_stmt</text>
</g>
<!-- state_4 -->
<g id="state_4" class="node">
<title>state_4</title>
<path fill="#fffff0" stroke="#b8860b" stroke-width="1.5" d="M1179.5,-269.5C1179.5,-269.5 1092.5,-269.5 1092.5,-269.5 1086.5,-269.5 1080.5,-263.5 1080.5,-257.5 1080.5,-257.5 1080.5,-224.5 1080.5,-224.5 1080.5,-218.5 1086.5,-212.5 1092.5,-212.5 1092.5,-212.5 1179.5,-212.5 1179.5,-212.5 1185.5,-212.5 1191.5,-218.5 1191.5,-224.5 1191.5,-224.5 1191.5,-257.5 1191.5,-257.5 1191.5,-263.5 1185.5,-269.5 1179.5,-269.5"/>
<path fill="none" stroke="#b8860b" stroke-width="1.5" d="M1183.5,-273.5C1183.5,-273.5 1088.5,-273.5 1088.5,-273.5 1082.5,-273.5 1076.5,-267.5 1076.5,-261.5 1076.5,-261.5 1076.5,-220.5 1076.5,-220.5 1076.5,-214.5 1082.5,-208.5 1088.5,-208.5 1088.5,-208.5 1183.5,-208.5 1183.5,-208.5 1189.5,-208.5 1195.5,-214.5 1195.5,-220.5 1195.5,-220.5 1195.5,-261.5 1195.5,-261.5 1195.5,-267.5 1189.5,-273.5 1183.5,-273.5"/>
<g id="a_state_4_title"><a xlink:href="#" xlink:title="state_4_title">
<text text-anchor="start" x="1113.5" y="-248.6" font-family="Calibri" font-weight="bold" font-size="13.00" fill="#8b4513">Estado </text>
<text text-anchor="start" x="1152.5" y="-248.6" font-family="Calibri" font-weight="bold" font-size="13.00" fill="#8b4513">4</text>
</a>
</g>
<g id="a_state_4_item_1"><a xlink:href="#" xlink:title="state_4_item_1">
<text text-anchor="start" x="1092" y="-227.8" font-family="Times,serif" font-size="14.00" fill="#bc1f29">stmt </text>
<text text-anchor="start" x="1120" y="-227.8" font-family="Times,serif" font-size="14.00" fill="#0a5040">→ </text>
<text text-anchor="start" x="1139" y="-227.8" font-family="Times,serif" font-size="14.00" fill="#0a5040"> other</text>
<text text-anchor="start" x="1171" y="-227.8" font-family="Times,serif" font-size="14.00" fill="#f5a70a"> •</text>
</a>
</g>
</g>
<!-- state_1&#45;&gt;state_4 -->
<g id="trans_3" class="edge">
<title>state_1&#45;&gt;state_4</title>
<path fill="none" stroke="#b8860b" stroke-width="1.5" d="M188.0821,-270.8953C235.259,-279.2211 293.4089,-287 346,-287 346,-287 346,-287 865,-287 934.2974,-287 1012.1746,-272.1993 1066.6013,-259.3888"/>
<polygon fill="#b8860b" stroke="#b8860b" stroke-width="1.5" points="1067.5728,-262.7552 1076.4837,-257.024 1065.9437,-255.9474 1067.5728,-262.7552"/>
<text text-anchor="start" x="582" y="-290.8" font-family="Times,serif" font-size="14.00" fill="#0a5040"> other</text>
</g>
<!-- state_6 -->
<g id="state_6" class="node">
<title>state_6</title>
<path fill="#fffff0" stroke="#b8860b" stroke-width="1.5" d="M646.5,-381.5C646.5,-381.5 549.5,-381.5 549.5,-381.5 543.5,-381.5 537.5,-375.5 537.5,-369.5 537.5,-369.5 537.5,-336.5 537.5,-336.5 537.5,-330.5 543.5,-324.5 549.5,-324.5 549.5,-324.5 646.5,-324.5 646.5,-324.5 652.5,-324.5 658.5,-330.5 658.5,-336.5 658.5,-336.5 658.5,-369.5 658.5,-369.5 658.5,-375.5 652.5,-381.5 646.5,-381.5"/>
<path fill="none" stroke="#b8860b" stroke-width="1.5" d="M650.5,-385.5C650.5,-385.5 545.5,-385.5 545.5,-385.5 539.5,-385.5 533.5,-379.5 533.5,-373.5 533.5,-373.5 533.5,-332.5 533.5,-332.5 533.5,-326.5 539.5,-320.5 545.5,-320.5 545.5,-320.5 650.5,-320.5 650.5,-320.5 656.5,-320.5 662.5,-326.5 662.5,-332.5 662.5,-332.5 662.5,-373.5 662.5,-373.5 662.5,-379.5 656.5,-385.5 650.5,-385.5"/>
<g id="a_state_6_title"><a xlink:href="#" xlink:title="state_6_title">
<text text-anchor="start" x="575.5" y="-360.6" font-family="Calibri" font-weight="bold" font-size="13.00" fill="#8b4513">Estado </text>
<text text-anchor="start" x="614.5" y="-360.6" font-family="Calibri" font-weight="bold" font-size="13.00" fill="#8b4513">6</text>
</a>
</g>
<g id="a_state_6_item_1"><a xlink:href="#" xlink:title="state_6_item_1">
<text text-anchor="start" x="549" y="-339.8" font-family="Times,serif" font-size="14.00" fill="#bc1f29">stmt&#39; </text>
<text text-anchor="start" x="580" y="-339.8" font-family="Times,serif" font-size="14.00" fill="#0a5040">→ </text>
<text text-anchor="start" x="599" y="-339.8" font-family="Times,serif" font-size="14.00" fill="#bc1f29"> stmt</text>
<text text-anchor="start" x="627" y="-339.8" font-family="Times,serif" font-size="14.00" fill="#0a5040"> $</text>
<text text-anchor="start" x="638" y="-339.8" font-family="Times,serif" font-size="14.00" fill="#f5a70a"> •</text>
</a>
</g>
</g>
<!-- state_2&#45;&gt;state_6 -->
<g id="trans_5" class="edge">
<title>state_2&#45;&gt;state_6</title>
<path fill="none" stroke="#b8860b" stroke-width="1.5" d="M406.681,-349.9632C441.6921,-350.5189 486.0033,-351.2223 523.163,-351.8121"/>
<polygon fill="#b8860b" stroke="#b8860b" stroke-width="1.5" points="523.3862,-355.316 533.4406,-351.9752 523.4974,-348.3169 523.3862,-355.316"/>
<text text-anchor="start" x="466.5" y="-354.8" font-family="Times,serif" font-size="14.00" fill="#0a5040"> $</text>
</g>
<!-- state_5&#45;&gt;state_5 -->
<g id="trans_9" class="edge">
<title>state_5&#45;&gt;state_5</title>
<path fill="none" stroke="#b8860b" stroke-width="1.5" d="M325.1666,-226.1796C328.7196,-236.894 335.6641,-244 346,-244 352.9445,-244 358.3579,-240.7923 362.2405,-235.4375"/>
<polygon fill="#b8860b" stroke="#b8860b" stroke-width="1.5" points="365.5245,-236.6933 366.8334,-226.1796 359.2538,-233.5823 365.5245,-236.6933"/>
<text text-anchor="start" x="339.5" y="-247.8" font-family="Times,serif" font-size="14.00" fill="#0a5040"> if</text>
</g>
<!-- state_5&#45;&gt;state_3 -->
<g id="trans_7" class="edge">
<title>state_5&#45;&gt;state_3</title>
<path fill="none" stroke="#b8860b" stroke-width="1.5" d="M440.1587,-92.0758C460.6336,-82.7609 482.5893,-74.347 504,-69 699.9221,-20.0714 940.4772,-28.0201 1060.4506,-36.3802"/>
<polygon fill="#b8860b" stroke="#b8860b" stroke-width="1.5" points="1060.4044,-39.8858 1070.6293,-37.1108 1060.9056,-32.9038 1060.4044,-39.8858"/>
<text text-anchor="start" x="710" y="-40.8" font-family="Times,serif" font-size="14.00" fill="#bc1f29"> if_stmt</text>
</g>
<!-- state_5&#45;&gt;state_4 -->
<g id="trans_8" class="edge">
<title>state_5&#45;&gt;state_4</title>
<path fill="none" stroke="#b8860b" stroke-width="1.5" d="M440.2879,-173.134C461.1334,-178.6595 483.2058,-183.981 504,-188 705.4839,-226.9418 948.5713,-237.2735 1065.8939,-240.0128"/>
<polygon fill="#b8860b" stroke="#b8860b" stroke-width="1.5" points="1066.0932,-243.518 1076.1684,-240.2407 1066.2485,-236.5197 1066.0932,-243.518"/>
<text text-anchor="start" x="715.5" y="-224.8" font-family="Times,serif" font-size="14.00" fill="#0a5040"> other</text>
</g>
<!-- state_7 -->
<g id="state_7" class="node">
<title>state_7</title>
<path fill="#f5f5dc" stroke="#b8860b" stroke-width="1.5" stroke-dasharray="5,2" d="M680,-156C680,-156 516,-156 516,-156 510,-156 504,-150 504,-144 504,-144 504,-90 504,-90 504,-84 510,-78 516,-78 516,-78 680,-78 680,-78 686,-78 692,-84 692,-90 692,-90 692,-144 692,-144 692,-150 686,-156 680,-156"/>
<g id="a_state_7_title"><a xlink:href="#" xlink:title="state_7_title">
<text text-anchor="start" x="575" y="-135.6" font-family="Calibri" font-weight="bold" font-size="13.00" fill="#8b4513">Estado </text>
<text text-anchor="start" x="614" y="-135.6" font-family="Calibri" font-weight="bold" font-size="13.00" fill="#8b4513">7</text>
</a>
</g>
<g id="a_state_7_item_1"><a xlink:href="#" xlink:title="state_7_item_1">
<text text-anchor="start" x="515" y="-114.8" font-family="Times,serif" font-size="14.00" fill="#bc1f29">if_stmt </text>
<text text-anchor="start" x="558" y="-114.8" font-family="Times,serif" font-size="14.00" fill="#0a5040">→ </text>
<text text-anchor="start" x="577" y="-114.8" font-family="Times,serif" font-size="14.00" fill="#0a5040"> if</text>
<text text-anchor="start" x="590" y="-114.8" font-family="Times,serif" font-size="14.00" fill="#bc1f29"> stmt</text>
<text text-anchor="start" x="618" y="-114.8" font-family="Times,serif" font-size="14.00" fill="#f5a70a"> •</text>
</a>
</g>
<g id="a_state_7_item_2"><a xlink:href="#" xlink:title="state_7_item_2">
<text text-anchor="start" x="515" y="-93.8" font-family="Times,serif" font-size="14.00" fill="#bc1f29">if_stmt </text>
<text text-anchor="start" x="558" y="-93.8" font-family="Times,serif" font-size="14.00" fill="#0a5040">→ </text>
<text text-anchor="start" x="577" y="-93.8" font-family="Times,serif" font-size="14.00" fill="#0a5040"> if</text>
<text text-anchor="start" x="590" y="-93.8" font-family="Times,serif" font-size="14.00" fill="#bc1f29"> stmt</text>
<text text-anchor="start" x="618" y="-93.8" font-family="Times,serif" font-size="14.00" fill="#f5a70a"> •</text>
<text text-anchor="start" x="628" y="-93.8" font-family="Times,serif" font-size="14.00" fill="#0a5040"> else</text>
<text text-anchor="start" x="653" y="-93.8" font-family="Times,serif" font-size="14.00" fill="#bc1f29"> stmt</text>
</a>
</g>
</g>
<!-- state_5&#45;&gt;state_7 -->
<g id="trans_6" class="edge">
<title>state_5&#45;&gt;state_7</title>
<path fill="none" stroke="#b8860b" stroke-width="1.5" d="M440.1939,-134.534C457.6064,-132.5993 475.8862,-130.5682 493.5806,-128.6022"/>
<polygon fill="#b8860b" stroke="#b8860b" stroke-width="1.5" points="494.368,-132.0363 503.9203,-127.4533 493.5949,-125.0791 494.368,-132.0363"/>
<text text-anchor="start" x="458" y="-134.8" font-family="Times,serif" font-size="14.00" fill="#bc1f29"> stmt</text>
</g>
<!-- state_8 -->
<g id="state_8" class="node">
<title>state_8</title>
<path fill="#fffff0" stroke="#b8860b" stroke-width="1.5" d="M947,-212.5C947,-212.5 783,-212.5 783,-212.5 777,-212.5 771,-206.5 771,-200.5 771,-200.5 771,-83.5 771,-83.5 771,-77.5 777,-71.5 783,-71.5 783,-71.5 947,-71.5 947,-71.5 953,-71.5 959,-77.5 959,-83.5 959,-83.5 959,-200.5 959,-200.5 959,-206.5 953,-212.5 947,-212.5"/>
<g id="a_state_8_title"><a xlink:href="#" xlink:title="state_8_title">
<text text-anchor="start" x="842" y="-191.6" font-family="Calibri" font-weight="bold" font-size="13.00" fill="#8b4513">Estado </text>
<text text-anchor="start" x="881" y="-191.6" font-family="Calibri" font-weight="bold" font-size="13.00" fill="#8b4513">8</text>
</a>
</g>
<g id="a_state_8_item_1"><a xlink:href="#" xlink:title="state_8_item_1">
<text text-anchor="start" x="782" y="-170.8" font-family="Times,serif" font-size="14.00" fill="#bc1f29">if_stmt </text>
<text text-anchor="start" x="825" y="-170.8" font-family="Times,serif" font-size="14.00" fill="#0a5040">→ </text>
<text text-anchor="start" x="844" y="-170.8" font-family="Times,serif" font-size="14.00" fill="#0a5040"> if</text>
<text text-anchor="start" x="857" y="-170.8" font-family="Times,serif" font-size="14.00" fill="#bc1f29"> stmt</text>
<text text-anchor="start" x="885" y="-170.8" font-family="Times,serif" font-size="14.00" fill="#0a5040"> else</text>
<text text-anchor="start" x="910" y="-170.8" font-family="Times,serif" font-size="14.00" fill="#f5a70a"> •</text>
<text text-anchor="start" x="920" y="-170.8" font-family="Times,serif" font-size="14.00" fill="#bc1f29"> stmt</text>
</a>
</g>
<g id="a_state_8_item_2"><a xlink:href="#" xlink:title="state_8_item_2">
<text text-anchor="start" x="782" y="-149.8" font-family="Times,serif" font-size="14.00" fill="#bc1f29">stmt </text>
<text text-anchor="start" x="810" y="-149.8" font-family="Times,serif" font-size="14.00" fill="#0a5040">→ </text>
<text text-anchor="start" x="829" y="-149.8" font-family="Times,serif" font-size="14.00" fill="#f5a70a"> •</text>
<text text-anchor="start" x="839" y="-149.8" font-family="Times,serif" font-size="14.00" fill="#bc1f29"> if_stmt</text>
</a>
</g>
<g id="a_state_8_item_3"><a xlink:href="#" xlink:title="state_8_item_3">
<text text-anchor="start" x="782" y="-128.8" font-family="Times,serif" font-size="14.00" fill="#bc1f29">stmt </text>
<text text-anchor="start" x="810" y="-128.8" font-family="Times,serif" font-size="14.00" fill="#0a5040">→ </text>
<text text-anchor="start" x="829" y="-128.8" font-family="Times,serif" font-size="14.00" fill="#f5a70a"> •</text>
<text text-anchor="start" x="839" y="-128.8" font-family="Times,serif" font-size="14.00" fill="#0a5040"> other</text>
</a>
</g>
<g id="a_state_8_item_4"><a xlink:href="#" xlink:title="state_8_item_4">
<text text-anchor="start" x="782" y="-107.8" font-family="Times,serif" font-size="14.00" fill="#bc1f29">if_stmt </text>
<text text-anchor="start" x="825" y="-107.8" font-family="Times,serif" font-size="14.00" fill="#0a5040">→ </text>
<text text-anchor="start" x="844" y="-107.8" font-family="Times,serif" font-size="14.00" fill="#f5a70a"> •</text>
<text text-anchor="start" x="854" y="-107.8" font-family="Times,serif" font-size="14.00" fill="#0a5040"> if</text>
<text text-anchor="start" x="867" y="-107.8" font-family="Times,serif" font-size="14.00" fill="#bc1f29"> stmt</text>
</a>
</g>
<g id="a_state_8_item_5"><a xlink:href="#" xlink:title="state_8_item_5">
<text text-anchor="start" x="782" y="-86.8" font-family="Times,serif" font-size="14.00" fill="#bc1f29">if_stmt </text>
<text text-anchor="start" x="825" y="-86.8" font-family="Times,serif" font-size="14.00" fill="#0a5040">→ </text>
<text text-anchor="start" x="844" y="-86.8" font-family="Times,serif" font-size="14.00" fill="#f5a70a"> •</text>
<text text-anchor="start" x="854" y="-86.8" font-family="Times,serif" font-size="14.00" fill="#0a5040"> if</text>
<text text-anchor="start" x="867" y="-86.8" font-family="Times,serif" font-size="14.00" fill="#bc1f29"> stmt</text>
<text text-anchor="start" x="895" y="-86.8" font-family="Times,serif" font-size="14.00" fill="#0a5040"> else</text>
<text text-anchor="start" x="920" y="-86.8" font-family="Times,serif" font-size="14.00" fill="#bc1f29"> stmt</text>
</a>
</g>
</g>
<!-- state_8&#45;&gt;state_5 -->
<g id="trans_14" class="edge">
<title>state_8&#45;&gt;state_5</title>
<path fill="none" stroke="#b8860b" stroke-width="1.5" d="M770.9497,-156.8004C745.4032,-160.1923 717.6979,-163.2992 692,-165 608.6268,-170.5179 587.39,-170.2569 504,-165 486.6994,-163.9094 468.3963,-162.1534 450.6194,-160.1234"/>
<polygon fill="#b8860b" stroke="#b8860b" stroke-width="1.5" points="450.5656,-156.5929 440.2249,-158.8994 449.747,-163.5449 450.5656,-156.5929"/>
<text text-anchor="start" x="591.5" y="-172.8" font-family="Times,serif" font-size="14.00" fill="#0a5040"> if</text>
</g>
<!-- state_8&#45;&gt;state_3 -->
<g id="trans_12" class="edge">
<title>state_8&#45;&gt;state_3</title>
<path fill="none" stroke="#b8860b" stroke-width="1.5" d="M959.0221,-107.6524C992.4106,-95.4552 1029.5177,-81.8994 1061.0953,-70.3637"/>
<polygon fill="#b8860b" stroke="#b8860b" stroke-width="1.5" points="1062.5156,-73.5712 1070.7075,-66.8522 1060.1136,-66.9962 1062.5156,-73.5712"/>
<text text-anchor="start" x="977" y="-102.8" font-family="Times,serif" font-size="14.00" fill="#bc1f29"> if_stmt</text>
</g>
<!-- state_8&#45;&gt;state_4 -->
<g id="trans_13" class="edge">
<title>state_8&#45;&gt;state_4</title>
<path fill="none" stroke="#b8860b" stroke-width="1.5" d="M959.0221,-176.3476C994.5025,-189.309 1034.182,-203.8045 1066.9631,-215.7799"/>
<polygon fill="#b8860b" stroke="#b8860b" stroke-width="1.5" points="1065.8646,-219.1048 1076.4585,-219.2487 1068.2666,-212.5298 1065.8646,-219.1048"/>
<text text-anchor="start" x="982.5" y="-200.8" font-family="Times,serif" font-size="14.00" fill="#0a5040"> other</text>
</g>
<!-- state_9 -->
<g id="state_9" class="node">
<title>state_9</title>
<path fill="#fffff0" stroke="#b8860b" stroke-width="1.5" d="M1218,-170.5C1218,-170.5 1054,-170.5 1054,-170.5 1048,-170.5 1042,-164.5 1042,-158.5 1042,-158.5 1042,-125.5 1042,-125.5 1042,-119.5 1048,-113.5 1054,-113.5 1054,-113.5 1218,-113.5 1218,-113.5 1224,-113.5 1230,-119.5 1230,-125.5 1230,-125.5 1230,-158.5 1230,-158.5 1230,-164.5 1224,-170.5 1218,-170.5"/>
<path fill="none" stroke="#b8860b" stroke-width="1.5" d="M1222,-174.5C1222,-174.5 1050,-174.5 1050,-174.5 1044,-174.5 1038,-168.5 1038,-162.5 1038,-162.5 1038,-121.5 1038,-121.5 1038,-115.5 1044,-109.5 1050,-109.5 1050,-109.5 1222,-109.5 1222,-109.5 1228,-109.5 1234,-115.5 1234,-121.5 1234,-121.5 1234,-162.5 1234,-162.5 1234,-168.5 1228,-174.5 1222,-174.5"/>
<g id="a_state_9_title"><a xlink:href="#" xlink:title="state_9_title">
<text text-anchor="start" x="1113" y="-149.6" font-family="Calibri" font-weight="bold" font-size="13.00" fill="#8b4513">Estado </text>
<text text-anchor="start" x="1152" y="-149.6" font-family="Calibri" font-weight="bold" font-size="13.00" fill="#8b4513">9</text>
</a>
</g>
<g id="a_state_9_item_1"><a xlink:href="#" xlink:title="state_9_item_1">
<text text-anchor="start" x="1053" y="-128.8" font-family="Times,serif" font-size="14.00" fill="#bc1f29">if_stmt </text>
<text text-anchor="start" x="1096" y="-128.8" font-family="Times,serif" font-size="14.00" fill="#0a5040">→ </text>
<text text-anchor="start" x="1115" y="-128.8" font-family="Times,serif" font-size="14.00" fill="#0a5040"> if</text>
<text text-anchor="start" x="1128" y="-128.8" font-family="Times,serif" font-size="14.00" fill="#bc1f29"> stmt</text>
<text text-anchor="start" x="1156" y="-128.8" font-family="Times,serif" font-size="14.00" fill="#0a5040"> else</text>
<text text-anchor="start" x="1181" y="-128.8" font-family="Times,serif" font-size="14.00" fill="#bc1f29"> stmt</text>
<text text-anchor="start" x="1209" y="-128.8" font-family="Times,serif" font-size="14.00" fill="#f5a70a"> •</text>
</a>
</g>
</g>
<!-- state_8&#45;&gt;state_9 -->
<g id="trans_11" class="edge">
<title>state_8&#45;&gt;state_9</title>
<path fill="none" stroke="#b8860b" stroke-width="1.5" d="M959.0221,-142C981.261,-142 1005.1496,-142 1027.9552,-142"/>
<polygon fill="#b8860b" stroke="#b8860b" stroke-width="1.5" points="1027.9997,-145.5001 1037.9997,-142 1027.9996,-138.5001 1027.9997,-145.5001"/>
<text text-anchor="start" x="984.5" y="-145.8" font-family="Times,serif" font-size="14.00" fill="#bc1f29"> stmt</text>
</g>
<!-- state_7&#45;&gt;state_8 -->
<g id="trans_10" class="edge">
<title>state_7&#45;&gt;state_8</title>
<path fill="none" stroke="#b8860b" stroke-width="1.5" d="M692.1342,-125.8141C714.3676,-127.8958 738.2008,-130.1274 760.8485,-132.248"/>
<polygon fill="#b8860b" stroke="#b8860b" stroke-width="1.5" points="760.5331,-135.7337 770.8159,-133.1813 761.1858,-128.7642 760.5331,-135.7337"/>
<text text-anchor="start" x="719" y="-133.8" font-family="Times,serif" font-size="14.00" fill="#0a5040"> else</text>
</g>
</g>
</svg>
