<?xml version="1.0" encoding="UTF-8" standalone="no"?>
<!DOCTYPE svg PUBLIC "-//W3C//DTD SVG 1.1//EN"
 "http://www.w3.org/Graphics/SVG/1.1/DTD/svg11.dtd">
<!-- Generated by graphviz version 2.40.1 (20161225.0304)
 -->
<!-- Title: DFA Pages: 1 -->
<svg width="877pt" height="378pt"
 viewBox="0.00 0.00 877.00 377.50" xmlns="http://www.w3.org/2000/svg" xmlns:xlink="http://www.w3.org/1999/xlink">
<g id="graph0" class="graph" transform="scale(1 1) rotate(0) translate(4 373.5)">
<title>DFA</title>
<!-- state_1 -->
<g id="state_1" class="node">
<title>state_1</title>
<path fill="#fffff0" stroke="#b8860b" stroke-width="1.5" d="M91,-120C91,-120 12,-120 12,-120 6,-120 0,-114 0,-108 0,-108 0,-12 0,-12 0,-6 6,0 12,0 12,0 91,0 91,0 97,0 103,-6 103,-12 103,-12 103,-108 103,-108 103,-114 97,-120 91,-120"/>
<g id="a_state_1_title"><a xlink:href="#" xlink:title="state_1_title">
<text text-anchor="start" x="29" y="-99.6" font-family="Calibri" font-weight="bold" font-size="13.00" fill="#8b4513">Estado </text>
<text text-anchor="start" x="68" y="-99.6" font-family="Calibri" font-weight="bold" font-size="13.00" fill="#8b4513">1</text>
</a>
</g>
<g id="a_state_1_item_1"><a xlink:href="#" xlink:title="state_1_item_1">
<text text-anchor="start" x="11.5" y="-78.8" font-family="Times,serif" font-size="14.00" fill="#bc1f29">E&#39; </text>
<text text-anchor="start" x="26.5" y="-78.8" font-family="Times,serif" font-size="14.00" fill="#0a5040">→ </text>
<text text-anchor="start" x="45.5" y="-78.8" font-family="Times,serif" font-size="14.00" fill="#f5a70a"> •</text>
<text text-anchor="start" x="55.5" y="-78.8" font-family="Times,serif" font-size="14.00" fill="#bc1f29"> E</text>
<text text-anchor="start" x="68.5" y="-78.8" font-family="Times,serif" font-size="14.00" fill="#0a5040"> $</text>
</a>
</g>
<g id="a_state_1_item_2"><a xlink:href="#" xlink:title="state_1_item_2">
<text text-anchor="start" x="11.5" y="-57.8" font-family="Times,serif" font-size="14.00" fill="#bc1f29">E </text>
<text text-anchor="start" x="24.5" y="-57.8" font-family="Times,serif" font-size="14.00" fill="#0a5040">→ </text>
<text text-anchor="start" x="43.5" y="-57.8" font-family="Times,serif" font-size="14.00" fill="#f5a70a"> •</text>
<text text-anchor="start" x="53.5" y="-57.8" font-family="Times,serif" font-size="14.00" fill="#bc1f29"> E</text>
<text text-anchor="start" x="66.5" y="-57.8" font-family="Times,serif" font-size="14.00" fill="#0a5040"> +</text>
<text text-anchor="start" x="79.5" y="-57.8" font-family="Times,serif" font-size="14.00" fill="#bc1f29"> E</text>
</a>
</g>
<g id="a_state_1_item_3"><a xlink:href="#" xlink:title="state_1_item_3">
<text text-anchor="start" x="11.5" y="-36.8" font-family="Times,serif" font-size="14.00" fill="#bc1f29">E </text>
<text text-anchor="start" x="24.5" y="-36.8" font-family="Times,serif" font-size="14.00" fill="#0a5040">→ </text>
<text text-anchor="start" x="43.5" y="-36.8" font-family="Times,serif" font-size="14.00" fill="#f5a70a"> •</text>
<text text-anchor="start" x="53.5" y="-36.8" font-family="Times,serif" font-size="14.00" fill="#bc1f29"> E</text>
<text text-anchor="start" x="66.5" y="-36.8" font-family="Times,serif" font-size="14.00" fill="#0a5040"> *</text>
<text text-anchor="start" x="77.5" y="-36.8" font-family="Times,serif" font-size="14.00" fill="#bc1f29"> E</text>
</a>
</g>
<g id="a_state_1_item_4"><a xlink:href="#" xlink:title="state_1_item_4">
<text text-anchor="start" x="11.5" y="-15.8" font-family="Times,serif" font-size="14.00" fill="#bc1f29">E </text>
<text text-anchor="start" x="24.5" y="-15.8" font-family="Times,serif" font-size="14.00" fill="#0a5040">→ </text>
<text text-anchor="start" x="43.5" y="-15.8" font-family="Times,serif" font-size="14.00" fill="#f5a70a"> •</text>
<text text-anchor="start" x="53.5" y="-15.8" font-family="Times,serif" font-size="14.00" fill="#0a5040"> id</text>
</a>
</g>
</g>
<!-- state_2 -->
<g id="state_2" class="node">
<title>state_2</title>
<path fill="#fffff0" stroke="#b8860b" stroke-width="1.5" d="M243,-275.5C243,-275.5 164,-275.5 164,-275.5 158,-275.5 152,-269.5 152,-263.5 152,-263.5 152,-188.5 152,-188.5 152,-182.5 158,-176.5 164,-176.5 164,-176.5 243,-176.5 243,-176.5 249,-176.5 255,-182.5 255,-188.5 255,-188.5 255,-263.5 255,-263.5 255,-269.5 249,-275.5 243,-275.5"/>
<g id="a_state_2_title"><a xlink:href="#" xlink:title="state_2_title">
<text text-anchor="start" x="181" y="-254.6" font-family="Calibri" font-weight="bold" font-size="13.00" fill="#8b4513">Estado </text>
<text text-anchor="start" x="220" y="-254.6" font-family="Calibri" font-weight="bold" font-size="13.00" fill="#8b4513">2</text>
</a>
</g>
<g id="a_state_2_item_1"><a xlink:href="#" xlink:title="state_2_item_1">
<text text-anchor="start" x="163.5" y="-233.8" font-family="Times,serif" font-size="14.00" fill="#bc1f29">E&#39; </text>
<text text-anchor="start" x="178.5" y="-233.8" font-family="Times,serif" font-size="14.00" fill="#0a5040">→ </text>
<text text-anchor="start" x="197.5" y="-233.8" font-family="Times,serif" font-size="14.00" fill="#bc1f29"> E</text>
<text text-anchor="start" x="210.5" y="-233.8" font-family="Times,serif" font-size="14.00" fill="#f5a70a"> •</text>
<text text-anchor="start" x="220.5" y="-233.8" font-family="Times,serif" font-size="14.00" fill="#0a5040"> $</text>
</a>
</g>
<g id="a_state_2_item_2"><a xlink:href="#" xlink:title="state_2_item_2">
<text text-anchor="start" x="163.5" y="-212.8" font-family="Times,serif" font-size="14.00" fill="#bc1f29">E </text>
<text text-anchor="start" x="176.5" y="-212.8" font-family="Times,serif" font-size="14.00" fill="#0a5040">→ </text>
<text text-anchor="start" x="195.5" y="-212.8" font-family="Times,serif" font-size="14.00" fill="#bc1f29"> E</text>
<text text-anchor="start" x="208.5" y="-212.8" font-family="Times,serif" font-size="14.00" fill="#f5a70a"> •</text>
<text text-anchor="start" x="218.5" y="-212.8" font-family="Times,serif" font-size="14.00" fill="#0a5040"> +</text>
<text text-anchor="start" x="231.5" y="-212.8" font-family="Times,serif" font-size="14.00" fill="#bc1f29"> E</text>
</a>
</g>
<g id="a_state_2_item_3"><a xlink:href="#" xlink:title="state_2_item_3">
<text text-anchor="start" x="163.5" y="-191.8" font-family="Times,serif" font-size="14.00" fill="#bc1f29">E </text>
<text text-anchor="start" x="176.5" y="-191.8" font-family="Times,serif" font-size="14.00" fill="#0a5040">→ </text>
<text text-anchor="start" x="195.5" y="-191.8" font-family="Times,serif" font-size="14.00" fill="#bc1f29"> E</text>
<text text-anchor="start" x="208.5" y="-191.8" font-family="Times,serif" font-size="14.00" fill="#f5a70a"> •</text>
<text text-anchor="start" x="218.5" y="-191.8" font-family="Times,serif" font-size="14.00" fill="#0a5040"> *</text>
<text text-anchor="start" x="229.5" y="-191.8" font-family="Times,serif" font-size="14.00" fill="#bc1f29"> E</text>
</a>
</g>
</g>
<!-- state_1&#45;&gt;state_2 -->
<g id="trans_1" class="edge">
<title>state_1&#45;&gt;state_2</title>
<path fill="none" stroke="#b8860b" stroke-width="1.5" d="M103.3846,-116.6635C118.7482,-133.4421 135.5785,-151.8226 150.9817,-168.6445"/>
<polygon fill="#b8860b" stroke="#b8860b" stroke-width="1.5" points="148.6135,-171.2409 157.9481,-176.2525 153.7762,-166.5136 148.6135,-171.2409"/>
<text text-anchor="start" x="121" y="-151.8" font-family="Times,serif" font-size="14.00" fill="#bc1f29"> E</text>
</g>
<!-- state_3 -->
<g id="state_3" class="node">
<title>state_3</title>
<path fill="#fffff0" stroke="#b8860b" stroke-width="1.5" d="M845,-110.5C845,-110.5 790,-110.5 790,-110.5 784,-110.5 778,-104.5 778,-98.5 778,-98.5 778,-65.5 778,-65.5 778,-59.5 784,-53.5 790,-53.5 790,-53.5 845,-53.5 845,-53.5 851,-53.5 857,-59.5 857,-65.5 857,-65.5 857,-98.5 857,-98.5 857,-104.5 851,-110.5 845,-110.5"/>
<path fill="none" stroke="#b8860b" stroke-width="1.5" d="M849,-114.5C849,-114.5 786,-114.5 786,-114.5 780,-114.5 774,-108.5 774,-102.5 774,-102.5 774,-61.5 774,-61.5 774,-55.5 780,-49.5 786,-49.5 786,-49.5 849,-49.5 849,-49.5 855,-49.5 861,-55.5 861,-61.5 861,-61.5 861,-102.5 861,-102.5 861,-108.5 855,-114.5 849,-114.5"/>
<g id="a_state_3_title"><a xlink:href="#" xlink:title="state_3_title">
<text text-anchor="start" x="795" y="-89.6" font-family="Calibri" font-weight="bold" font-size="13.00" fill="#8b4513">Estado </text>
<text text-anchor="start" x="834" y="-89.6" font-family="Calibri" font-weight="bold" font-size="13.00" fill="#8b4513">3</text>
</a>
</g>
<g id="a_state_3_item_1"><a xlink:href="#" xlink:title="state_3_item_1">
<text text-anchor="start" x="789.5" y="-68.8" font-family="Times,serif" font-size="14.00" fill="#bc1f29">E </text>
<text text-anchor="start" x="802.5" y="-68.8" font-family="Times,serif" font-size="14.00" fill="#0a5040">→ </text>
<text text-anchor="start" x="821.5" y="-68.8" font-family="Times,serif" font-size="14.00" fill="#0a5040"> id</text>
<text text-anchor="start" x="836.5" y="-68.8" font-family="Times,serif" font-size="14.00" fill="#f5a70a"> •</text>
</a>
</g>
</g>
<!-- state_1&#45;&gt;state_3 -->
<g id="trans_2" class="edge">
<title>state_1&#45;&gt;state_3</title>
<path fill="none" stroke="#b8860b" stroke-width="1.5" d="M103.0676,-51.8594C132.4257,-47.9068 169.9336,-44 203.5,-44 203.5,-44 203.5,-44 663.5,-44 697.6429,-44 734.8362,-52.9133 764.1168,-62.1062"/>
<polygon fill="#b8860b" stroke="#b8860b" stroke-width="1.5" points="763.1355,-65.4673 773.7275,-65.222 765.2943,-58.8085 763.1355,-65.4673"/>
<text text-anchor="start" x="425" y="-47.8" font-family="Times,serif" font-size="14.00" fill="#0a5040"> id</text>
</g>
<!-- state_5 -->
<g id="state_5" class="node">
<title>state_5</title>
<path fill="#fffff0" stroke="#b8860b" stroke-width="1.5" d="M395,-220C395,-220 316,-220 316,-220 310,-220 304,-214 304,-208 304,-208 304,-112 304,-112 304,-106 310,-100 316,-100 316,-100 395,-100 395,-100 401,-100 407,-106 407,-112 407,-112 407,-208 407,-208 407,-214 401,-220 395,-220"/>
<g id="a_state_5_title"><a xlink:href="#" xlink:title="state_5_title">
<text text-anchor="start" x="333" y="-199.6" font-family="Calibri" font-weight="bold" font-size="13.00" fill="#8b4513">Estado </text>
<text text-anchor="start" x="372" y="-199.6" font-family="Calibri" font-weight="bold" font-size="13.00" fill="#8b4513">5</text>
</a>
</g>
<g id="a_state_5_item_1"><a xlink:href="#" xlink:title="state_5_item_1">
<text text-anchor="start" x="315.5" y="-178.8" font-family="Times,serif" font-size="14.00" fill="#bc1f29">E </text>
<text text-anchor="start" x="328.5" y="-178.8" font-family="Times,serif" font-size="14.00" fill="#0a5040">→ </text>
<text text-anchor="start" x="347.5" y="-178.8" font-family="Times,serif" font-size="14.00" fill="#bc1f29"> E</text>
<text text-anchor="start" x="360.5" y="-178.8" font-family="Times,serif" font-size="14.00" fill="#0a5040"> +</text>
<text text-anchor="start" x="373.5" y="-178.8" font-family="Times,serif" font-size="14.00" fill="#f5a70a"> •</text>
<text text-anchor="start" x="383.5" y="-178.8" font-family="Times,serif" font-size="14.00" fill="#bc1f29"> E</text>
</a>
</g>
<g id="a_state_5_item_2"><a xlink:href="#" xlink:title="state_5_item_2">
<text text-anchor="start" x="315.5" y="-157.8" font-family="Times,serif" font-size="14.00" fill="#bc1f29">E </text>
<text text-anchor="start" x="328.5" y="-157.8" font-family="Times,serif" font-size="14.00" fill="#0a5040">→ </text>
<text text-anchor="start" x="347.5" y="-157.8" font-family="Times,serif" font-size="14.00" fill="#f5a70a"> •</text>
<text text-anchor="start" x="357.5" y="-157.8" font-family="Times,serif" font-size="14.00" fill="#bc1f29"> E</text>
<text text-anchor="start" x="370.5" y="-157.8" font-family="Times,serif" font-size="14.00" fill="#0a5040"> +</text>
<text text-anchor="start" x="383.5" y="-157.8" font-family="Times,serif" font-size="14.00" fill="#bc1f29"> E</text>
</a>
</g>
<g id="a_state_5_item_3"><a xlink:href="#" xlink:title="state_5_item_3">
<text text-anchor="start" x="315.5" y="-136.8" font-family="Times,serif" font-size="14.00" fill="#bc1f29">E </text>
<text text-anchor="start" x="328.5" y="-136.8" font-family="Times,serif" font-size="14.00" fill="#0a5040">→ </text>
<text text-anchor="start" x="347.5" y="-136.8" font-family="Times,serif" font-size="14.00" fill="#f5a70a"> •</text>
<text text-anchor="start" x="357.5" y="-136.8" font-family="Times,serif" font-size="14.00" fill="#bc1f29"> E</text>
<text text-anchor="start" x="370.5" y="-136.8" font-family="Times,serif" font-size="14.00" fill="#0a5040"> *</text>
<text text-anchor="start" x="381.5" y="-136.8" font-family="Times,serif" font-size="14.00" fill="#bc1f29"> E</text>
</a>
</g>
<g id="a_state_5_item_4"><a xlink:href="#" xlink:title="state_5_item_4">
<text text-anchor="start" x="315.5" y="-115.8" font-family="Times,serif" font-size="14.00" fill="#bc1f29">E </text>
<text text-anchor="start" x="328.5" y="-115.8" font-family="Times,serif" font-size="14.00" fill="#0a5040">→ </text>
<text text-anchor="start" x="347.5" y="-115.8" font-family="Times,serif" font-size="14.00" fill="#f5a70a"> •</text>
<text text-anchor="start" x="357.5" y="-115.8" font-family="Times,serif" font-size="14.00" fill="#0a5040"> id</text>
</a>
</g>
</g>
<!-- state_2&#45;&gt;state_5 -->
<g id="trans_4" class="edge">
<title>state_2&#45;&gt;state_5</title>
<path fill="none" stroke="#b8860b" stroke-width="1.5" d="M255.3846,-203.4711C267.98,-198.0021 281.5611,-192.105 294.5336,-186.4723"/>
<polygon fill="#b8860b" stroke="#b8860b" stroke-width="1.5" points="296.0706,-189.6207 303.8492,-182.4273 293.2825,-183.1998 296.0706,-189.6207"/>
<text text-anchor="start" x="273" y="-198.8" font-family="Times,serif" font-size="14.00" fill="#0a5040"> +</text>
</g>
<!-- state_6 -->
<g id="state_6" class="node">
<title>state_6</title>
<path fill="#fffff0" stroke="#b8860b" stroke-width="1.5" d="M703,-268C703,-268 624,-268 624,-268 618,-268 612,-262 612,-256 612,-256 612,-160 612,-160 612,-154 618,-148 624,-148 624,-148 703,-148 703,-148 709,-148 715,-154 715,-160 715,-160 715,-256 715,-256 715,-262 709,-268 703,-268"/>
<g id="a_state_6_title"><a xlink:href="#" xlink:title="state_6_title">
<text text-anchor="start" x="641" y="-247.6" font-family="Calibri" font-weight="bold" font-size="13.00" fill="#8b4513">Estado </text>
<text text-anchor="start" x="680" y="-247.6" font-family="Calibri" font-weight="bold" font-size="13.00" fill="#8b4513">6</text>
</a>
</g>
<g id="a_state_6_item_1"><a xlink:href="#" xlink:title="state_6_item_1">
<text text-anchor="start" x="623.5" y="-226.8" font-family="Times,serif" font-size="14.00" fill="#bc1f29">E </text>
<text text-anchor="start" x="636.5" y="-226.8" font-family="Times,serif" font-size="14.00" fill="#0a5040">→ </text>
<text text-anchor="start" x="655.5" y="-226.8" font-family="Times,serif" font-size="14.00" fill="#bc1f29"> E</text>
<text text-anchor="start" x="668.5" y="-226.8" font-family="Times,serif" font-size="14.00" fill="#0a5040"> *</text>
<text text-anchor="start" x="679.5" y="-226.8" font-family="Times,serif" font-size="14.00" fill="#f5a70a"> •</text>
<text text-anchor="start" x="689.5" y="-226.8" font-family="Times,serif" font-size="14.00" fill="#bc1f29"> E</text>
</a>
</g>
<g id="a_state_6_item_2"><a xlink:href="#" xlink:title="state_6_item_2">
<text text-anchor="start" x="623.5" y="-205.8" font-family="Times,serif" font-size="14.00" fill="#bc1f29">E </text>
<text text-anchor="start" x="636.5" y="-205.8" font-family="Times,serif" font-size="14.00" fill="#0a5040">→ </text>
<text text-anchor="start" x="655.5" y="-205.8" font-family="Times,serif" font-size="14.00" fill="#f5a70a"> •</text>
<text text-anchor="start" x="665.5" y="-205.8" font-family="Times,serif" font-size="14.00" fill="#bc1f29"> E</text>
<text text-anchor="start" x="678.5" y="-205.8" font-family="Times,serif" font-size="14.00" fill="#0a5040"> +</text>
<text text-anchor="start" x="691.5" y="-205.8" font-family="Times,serif" font-size="14.00" fill="#bc1f29"> E</text>
</a>
</g>
<g id="a_state_6_item_3"><a xlink:href="#" xlink:title="state_6_item_3">
<text text-anchor="start" x="623.5" y="-184.8" font-family="Times,serif" font-size="14.00" fill="#bc1f29">E </text>
<text text-anchor="start" x="636.5" y="-184.8" font-family="Times,serif" font-size="14.00" fill="#0a5040">→ </text>
<text text-anchor="start" x="655.5" y="-184.8" font-family="Times,serif" font-size="14.00" fill="#f5a70a"> •</text>
<text text-anchor="start" x="665.5" y="-184.8" font-family="Times,serif" font-size="14.00" fill="#bc1f29"> E</text>
<text text-anchor="start" x="678.5" y="-184.8" font-family="Times,serif" font-size="14.00" fill="#0a5040"> *</text>
<text text-anchor="start" x="689.5" y="-184.8" font-family="Times,serif" font-size="14.00" fill="#bc1f29"> E</text>
</a>
</g>
<g id="a_state_6_item_4"><a xlink:href="#" xlink:title="state_6_item_4">
<text text-anchor="start" x="623.5" y="-163.8" font-family="Times,serif" font-size="14.00" fill="#bc1f29">E </text>
<text text-anchor="start" x="636.5" y="-163.8" font-family="Times,serif" font-size="14.00" fill="#0a5040">→ </text>
<text text-anchor="start" x="655.5" y="-163.8" font-family="Times,serif" font-size="14.00" fill="#f5a70a"> •</text>
<text text-anchor="start" x="665.5" y="-163.8" font-family="Times,serif" font-size="14.00" fill="#0a5040"> id</text>
</a>
</g>
</g>
<!-- state_2&#45;&gt;state_6 -->
<g id="trans_5" class="edge">
<title>state_2&#45;&gt;state_6</title>
<path fill="none" stroke="#b8860b" stroke-width="1.5" d="M255.0679,-239.9346C325.149,-256.7036 453.9977,-279.8133 561,-256 575.0257,-252.8786 589.402,-247.6239 602.7841,-241.7095"/>
<polygon fill="#b8860b" stroke="#b8860b" stroke-width="1.5" points="604.2517,-244.887 611.8733,-237.5275 601.3257,-238.5278 604.2517,-244.887"/>
<text text-anchor="start" x="427" y="-269.8" font-family="Times,serif" font-size="14.00" fill="#0a5040"> *</text>
</g>
<!-- state_4 -->
<g id="state_4" class="node">
<title>state_4</title>
<path fill="#fffff0" stroke="#b8860b" stroke-width="1.5" d="M388.5,-365.5C388.5,-365.5 322.5,-365.5 322.5,-365.5 316.5,-365.5 310.5,-359.5 310.5,-353.5 310.5,-353.5 310.5,-320.5 310.5,-320.5 310.5,-314.5 316.5,-308.5 322.5,-308.5 322.5,-308.5 388.5,-308.5 388.5,-308.5 394.5,-308.5 400.5,-314.5 400.5,-320.5 400.5,-320.5 400.5,-353.5 400.5,-353.5 400.5,-359.5 394.5,-365.5 388.5,-365.5"/>
<path fill="none" stroke="#b8860b" stroke-width="1.5" d="M392.5,-369.5C392.5,-369.5 318.5,-369.5 318.5,-369.5 312.5,-369.5 306.5,-363.5 306.5,-357.5 306.5,-357.5 306.5,-316.5 306.5,-316.5 306.5,-310.5 312.5,-304.5 318.5,-304.5 318.5,-304.5 392.5,-304.5 392.5,-304.5 398.5,-304.5 404.5,-310.5 404.5,-316.5 404.5,-316.5 404.5,-357.5 404.5,-357.5 404.5,-363.5 398.5,-369.5 392.5,-369.5"/>
<g id="a_state_4_title"><a xlink:href="#" xlink:title="state_4_title">
<text text-anchor="start" x="332.5" y="-344.6" font-family="Calibri" font-weight="bold" font-size="13.00" fill="#8b4513">Estado </text>
<text text-anchor="start" x="371.5" y="-344.6" font-family="Calibri" font-weight="bold" font-size="13.00" fill="#8b4513">4</text>
</a>
</g>
<g id="a_state_4_item_1"><a xlink:href="#" xlink:title="state_4_item_1">
<text text-anchor="start" x="321.5" y="-323.8" font-family="Times,serif" font-size="14.00" fill="#bc1f29">E&#39; </text>
<text text-anchor="start" x="336.5" y="-323.8" font-family="Times,serif" font-size="14.00" fill="#0a5040">→ </text>
<text text-anchor="start" x="355.5" y="-323.8" font-family="Times,serif" font-size="14.00" fill="#bc1f29"> E</text>
<text text-anchor="start" x="368.5" y="-323.8" font-family="Times,serif" font-size="14.00" fill="#0a5040"> $</text>
<text text-anchor="start" x="379.5" y="-323.8" font-family="Times,serif" font-size="14.00" fill="#f5a70a"> •</text>
</a>
</g>
</g>
<!-- state_2&#45;&gt;state_4 -->
<g id="trans_3" class="edge">
<title>state_2&#45;&gt;state_4</title>
<path fill="none" stroke="#b8860b" stroke-width="1.5" d="M254.7761,-275.557C260.7611,-280.6304 266.9079,-285.5485 273,-290 280.705,-295.63 289.1441,-301.1172 297.5912,-306.2382"/>
<polygon fill="#b8860b" stroke="#b8860b" stroke-width="1.5" points="295.9783,-309.3507 306.3665,-311.433 299.5442,-303.327 295.9783,-309.3507"/>
<text text-anchor="start" x="274" y="-302.8" font-family="Times,serif" font-size="14.00" fill="#0a5040"> $</text>
</g>
<!-- state_5&#45;&gt;state_3 -->
<g id="trans_7" class="edge">
<title>state_5&#45;&gt;state_3</title>
<path fill="none" stroke="#b8860b" stroke-width="1.5" d="M407.1772,-134.5524C423.1455,-127.5856 441.0088,-120.6746 458,-116 563.5749,-86.9546 692.4321,-81.716 763.6583,-81.3194"/>
<polygon fill="#b8860b" stroke="#b8860b" stroke-width="1.5" points="763.7483,-84.8192 773.7393,-81.2937 763.7304,-77.8193 763.7483,-84.8192"/>
<text text-anchor="start" x="579" y="-96.8" font-family="Times,serif" font-size="14.00" fill="#0a5040"> id</text>
</g>
<!-- state_7 -->
<g id="state_7" class="node">
<title>state_7</title>
<path fill="#f5f5dc" stroke="#b8860b" stroke-width="1.5" stroke-dasharray="5,2" d="M549,-247.5C549,-247.5 470,-247.5 470,-247.5 464,-247.5 458,-241.5 458,-235.5 458,-235.5 458,-160.5 458,-160.5 458,-154.5 464,-148.5 470,-148.5 470,-148.5 549,-148.5 549,-148.5 555,-148.5 561,-154.5 561,-160.5 561,-160.5 561,-235.5 561,-235.5 561,-241.5 555,-247.5 549,-247.5"/>
<g id="a_state_7_title"><a xlink:href="#" xlink:title="state_7_title">
<text text-anchor="start" x="487" y="-226.6" font-family="Calibri" font-weight="bold" font-size="13.00" fill="#8b4513">Estado </text>
<text text-anchor="start" x="526" y="-226.6" font-family="Calibri" font-weight="bold" font-size="13.00" fill="#8b4513">7</text>
</a>
</g>
<g id="a_state_7_item_1"><a xlink:href="#" xlink:title="state_7_item_1">
<text text-anchor="start" x="469.5" y="-205.8" font-family="Times,serif" font-size="14.00" fill="#bc1f29">E </text>
<text text-anchor="start" x="482.5" y="-205.8" font-family="Times,serif" font-size="14.00" fill="#0a5040">→ </text>
<text text-anchor="start" x="501.5" y="-205.8" font-family="Times,serif" font-size="14.00" fill="#bc1f29"> E</text>
<text text-anchor="start" x="514.5" y="-205.8" font-family="Times,serif" font-size="14.00" fill="#0a5040"> +</text>
<text text-anchor="start" x="527.5" y="-205.8" font-family="Times,serif" font-size="14.00" fill="#bc1f29"> E</text>
<text text-anchor="start" x="540.5" y="-205.8" font-family="Times,serif" font-size="14.00" fill="#f5a70a"> •</text>
</a>
</g>
<g id="a_state_7_item_2"><a xlink:href="#" xlink:title="state_7_item_2">
<text text-anchor="start" x="469.5" y="-184.8" font-family="Times,serif" font-size="14.00" fill="#bc1f29">E </text>
<text text-anchor="start" x="482.5" y="-184.8" font-family="Times,serif" font-size="14.00" fill="#0a5040">→ </text>
<text text-anchor="start" x="501.5" y="-184.8" font-family="Times,serif" font-size="14.00" fill="#bc1f29"> E</text>
<text text-anchor="start" x="514.5" y="-184.8" font-family="Times,serif" font-size="14.00" fill="#f5a70a"> •</text>
<text text-anchor="start" x="524.5" y="-184.8" font-family="Times,serif" font-size="14.00" fill="#0a5040"> +</text>
<text text-anchor="start" x="537.5" y="-184.8" font-family="Times,serif" font-size="14.00" fill="#bc1f29"> E</text>
</a>
</g>
<g id="a_state_7_item_3"><a xlink:href="#" xlink:title="state_7_item_3">
<text text-anchor="start" x="469.5" y="-163.8" font-family="Times,serif" font-size="14.00" fill="#bc1f29">E </text>
<text text-anchor="start" x="482.5" y="-163.8" font-family="Times,serif" font-size="14.00" fill="#0a5040">→ </text>
<text text-anchor="start" x="501.5" y="-163.8" font-family="Times,serif" font-size="14.00" fill="#bc1f29"> E</text>
<text text-anchor="start" x="514.5" y="-163.8" font-family="Times,serif" font-size="14.00" fill="#f5a70a"> •</text>
<text text-anchor="start" x="524.5" y="-163.8" font-family="Times,serif" font-size="14.00" fill="#0a5040"> *</text>
<text text-anchor="start" x="535.5" y="-163.8" font-family="Times,serif" font-size="14.00" fill="#bc1f29"> E</text>
</a>
</g>
</g>
<!-- state_5&#45;&gt;state_7 -->
<g id="trans_6" class="edge">
<title>state_5&#45;&gt;state_7</title>
<path fill="none" stroke="#b8860b" stroke-width="1.5" d="M407.2082,-172.7592C420.3568,-176.0036 434.6124,-179.5212 448.1884,-182.8712"/>
<polygon fill="#b8860b" stroke="#b8860b" stroke-width="1.5" points="447.381,-186.2768 457.9283,-185.2745 449.058,-179.4807 447.381,-186.2768"/>
<text text-anchor="start" x="426" y="-184.8" font-family="Times,serif" font-size="14.00" fill="#bc1f29"> E</text>
</g>
<!-- state_6&#45;&gt;state_3 -->
<g id="trans_9" class="edge">
<title>state_6&#45;&gt;state_3</title>
<path fill="none" stroke="#b8860b" stroke-width="1.5" d="M715.2082,-165.6933C732.788,-151.3098 752.3464,-135.3075 769.6141,-121.1794"/>
<polygon fill="#b8860b" stroke="#b8860b" stroke-width="1.5" points="771.8481,-123.8738 777.3713,-114.8326 767.4154,-118.4561 771.8481,-123.8738"/>
<text text-anchor="start" x="733" y="-152.8" font-family="Times,serif" font-size="14.00" fill="#0a5040"> id</text>
</g>
<!-- state_8 -->
<g id="state_8" class="node">
<title>state_8</title>
<path fill="#f5f5dc" stroke="#b8860b" stroke-width="1.5" stroke-dasharray="5,2" d="M857,-240.5C857,-240.5 778,-240.5 778,-240.5 772,-240.5 766,-234.5 766,-228.5 766,-228.5 766,-153.5 766,-153.5 766,-147.5 772,-141.5 778,-141.5 778,-141.5 857,-141.5 857,-141.5 863,-141.5 869,-147.5 869,-153.5 869,-153.5 869,-228.5 869,-228.5 869,-234.5 863,-240.5 857,-240.5"/>
<g id="a_state_8_title"><a xlink:href="#" xlink:title="state_8_title">
<text text-anchor="start" x="795" y="-219.6" font-family="Calibri" font-weight="bold" font-size="13.00" fill="#8b4513">Estado </text>
<text text-anchor="start" x="834" y="-219.6" font-family="Calibri" font-weight="bold" font-size="13.00" fill="#8b4513">8</text>
</a>
</g>
<g id="a_state_8_item_1"><a xlink:href="#" xlink:title="state_8_item_1">
<text text-anchor="start" x="777.5" y="-198.8" font-family="Times,serif" font-size="14.00" fill="#bc1f29">E </text>
<text text-anchor="start" x="790.5" y="-198.8" font-family="Times,serif" font-size="14.00" fill="#0a5040">→ </text>
<text text-anchor="start" x="809.5" y="-198.8" font-family="Times,serif" font-size="14.00" fill="#bc1f29"> E</text>
<text text-anchor="start" x="822.5" y="-198.8" font-family="Times,serif" font-size="14.00" fill="#0a5040"> *</text>
<text text-anchor="start" x="833.5" y="-198.8" font-family="Times,serif" font-size="14.00" fill="#bc1f29"> E</text>
<text text-anchor="start" x="846.5" y="-198.8" font-family="Times,serif" font-size="14.00" fill="#f5a70a"> •</text>
</a>
</g>
<g id="a_state_8_item_2"><a xlink:href="#" xlink:title="state_8_item_2">
<text text-anchor="start" x="777.5" y="-177.8" font-family="Times,serif" font-size="14.00" fill="#bc1f29">E </text>
<text text-anchor="start" x="790.5" y="-177.8" font-family="Times,serif" font-size="14.00" fill="#0a5040">→ </text>
<text text-anchor="start" x="809.5" y="-177.8" font-family="Times,serif" font-size="14.00" fill="#bc1f29"> E</text>
<text text-anchor="start" x="822.5" y="-177.8" font-family="Times,serif" font-size="14.00" fill="#f5a70a"> •</text>
<text text-anchor="start" x="832.5" y="-177.8" font-family="Times,serif" font-size="14.00" fill="#0a5040"> +</text>
<text text-anchor="start" x="845.5" y="-177.8" font-family="Times,serif" font-size="14.00" fill="#bc1f29"> E</text>
</a>
</g>
<g id="a_state_8_item_3"><a xlink:href="#" xlink:title="state_8_item_3">
<text text-anchor="start" x="777.5" y="-156.8" font-family="Times,serif" font-size="14.00" fill="#bc1f29">E </text>
<text text-anchor="start" x="790.5" y="-156.8" font-family="Times,serif" font-size="14.00" fill="#0a5040">→ </text>
<text text-anchor="start" x="809.5" y="-156.8" font-family="Times,serif" font-size="14.00" fill="#bc1f29"> E</text>
<text text-anchor="start" x="822.5" y="-156.8" font-family="Times,serif" font-size="14.00" fill="#f5a70a"> •</text>
<text text-anchor="start" x="832.5" y="-156.8" font-family="Times,serif" font-size="14.00" fill="#0a5040"> *</text>
<text text-anchor="start" x="843.5" y="-156.8" font-family="Times,serif" font-size="14.00" fill="#bc1f29"> E</text>
</a>
</g>
</g>
<!-- state_6&#45;&gt;state_8 -->
<g id="trans_8" class="edge">
<title>state_6&#45;&gt;state_8</title>
<path fill="none" stroke="#b8860b" stroke-width="1.5" d="M715.0033,-209.1476C725.9255,-208.8999 737.3659,-208.272 748,-207 750.5279,-206.6976 753.0982,-206.3406 755.6876,-205.9396"/>
<polygon fill="#b8860b" stroke="#b8860b" stroke-width="1.5" points="756.4673,-209.3567 765.7214,-204.1981 755.2702,-202.4598 756.4673,-209.3567"/>
<text text-anchor="start" x="734" y="-212.8" font-family="Times,serif" font-size="14.00" fill="#bc1f29"> E</text>
</g>
<!-- state_7&#45;&gt;state_5 -->
<g id="trans_10" class="edge">
<title>state_7&#45;&gt;state_5</title>
<path fill="none" stroke="#b8860b" stroke-width="1.5" d="M457.9639,-165.4006C452.0773,-162.8007 446.0237,-160.5746 440,-159 432.7953,-157.1167 425.1258,-156.0195 417.4589,-155.4707"/>
<polygon fill="#b8860b" stroke="#b8860b" stroke-width="1.5" points="417.5601,-151.972 407.4209,-155.0453 417.2636,-158.9657 417.5601,-151.972"/>
<text text-anchor="start" x="426" y="-162.8" font-family="Times,serif" font-size="14.00" fill="#0a5040"> +</text>
</g>
<!-- state_7&#45;&gt;state_6 -->
<g id="trans_11" class="edge">
<title>state_7&#45;&gt;state_6</title>
<path fill="none" stroke="#b8860b" stroke-width="1.5" d="M561.2082,-201.3577C574.2292,-202.2032 588.3357,-203.1192 601.7928,-203.993"/>
<polygon fill="#b8860b" stroke="#b8860b" stroke-width="1.5" points="601.7225,-207.4958 611.9283,-204.6512 602.1761,-200.5105 601.7225,-207.4958"/>
<text text-anchor="start" x="581" y="-207.8" font-family="Times,serif" font-size="14.00" fill="#0a5040"> *</text>
</g>
<!-- state_8&#45;&gt;state_5 -->
<g id="trans_12" class="edge">
<title>state_8&#45;&gt;state_5</title>
<path fill="none" stroke="#b8860b" stroke-width="1.5" d="M765.6561,-146.0873C759.9654,-142.8365 754.038,-140.0396 748,-138 635.9206,-100.1408 495.6732,-123.6363 416.7865,-142.7573"/>
<polygon fill="#b8860b" stroke="#b8860b" stroke-width="1.5" points="415.8721,-139.378 407.0083,-145.1816 417.5567,-146.1723 415.8721,-139.378"/>
<text text-anchor="start" x="580" y="-122.8" font-family="Times,serif" font-size="14.00" fill="#0a5040"> +</text>
</g>
<!-- state_8&#45;&gt;state_6 -->
<g id="trans_13" class="edge">
<title>state_8&#45;&gt;state_6</title>
<path fill="none" stroke="#b8860b" stroke-width="1.5" d="M765.9611,-186.2987C755.0414,-186.1046 743.611,-186.5036 733,-188 730.3522,-188.3734 727.664,-188.8231 724.9604,-189.3338"/>
<polygon fill="#b8860b" stroke="#b8860b" stroke-width="1.5" points="724.2003,-185.9171 715.1483,-191.4226 725.6579,-192.7637 724.2003,-185.9171"/>
<text text-anchor="start" x="735" y="-191.8" font-family="Times,serif" font-size="14.00" fill="#0a5040"> *</text>
</g>
</g>
</svg>
