<?xml version="1.0" encoding="UTF-8" standalone="no"?>
<!DOCTYPE svg PUBLIC "-//W3C//DTD SVG 1.1//EN"
 "http://www.w3.org/Graphics/SVG/1.1/DTD/svg11.dtd">
<!-- Generated by graphviz version 2.40.1 (20161225.0304)
 -->
<!-- Title: DFA Pages: 1 -->
<svg width="875pt" height="440pt"
 viewBox="0.00 0.00 875.00 440.00" xmlns="http://www.w3.org/2000/svg" xmlns:xlink="http://www.w3.org/1999/xlink">
<g id="graph0" class="graph" transform="scale(1 1) rotate(0) translate(4 436)">
<title>DFA</title>
<!-- state_1 -->
<g id="state_1" class="node">
<title>state_1</title>
<path fill="#fffff0" stroke="#b8860b" stroke-width="1.5" d="M91,-202.5C91,-202.5 12,-202.5 12,-202.5 6,-202.5 0,-196.5 0,-190.5 0,-190.5 0,-73.5 0,-73.5 0,-67.5 6,-61.5 12,-61.5 12,-61.5 91,-61.5 91,-61.5 97,-61.5 103,-67.5 103,-73.5 103,-73.5 103,-190.5 103,-190.5 103,-196.5 97,-202.5 91,-202.5"/>
<g id="a_state_1_title"><a xlink:href="#" xlink:title="state_1_title">
<text text-anchor="start" x="29" y="-181.6" font-family="Calibri" font-weight="bold" font-size="13.00" fill="#8b4513">Estado </text>
<text text-anchor="start" x="68" y="-181.6" font-family="Calibri" font-weight="bold" font-size="13.00" fill="#8b4513">1</text>
</a>
</g>
<g id="a_state_1_item_1"><a xlink:href="#" xlink:title="state_1_item_1">
<text text-anchor="start" x="11.5" y="-160.8" font-family="Times,serif" font-size="14.00" fill="#bc1f29">E&#39; </text>
<text text-anchor="start" x="26.5" y="-160.8" font-family="Times,serif" font-size="14.00" fill="#0a5040">→ </text>
<text text-anchor="start" x="45.5" y="-160.8" font-family="Times,serif" font-size="14.00" fill="#f5a70a"> •</text>
<text text-anchor="start" x="55.5" y="-160.8" font-family="Times,serif" font-size="14.00" fill="#bc1f29"> E</text>
<text text-anchor="start" x="68.5" y="-160.8" font-family="Times,serif" font-size="14.00" fill="#0a5040"> $</text>
</a>
</g>
<g id="a_state_1_item_2"><a xlink:href="#" xlink:title="state_1_item_2">
<text text-anchor="start" x="11.5" y="-139.8" font-family="Times,serif" font-size="14.00" fill="#bc1f29">E </text>
<text text-anchor="start" x="24.5" y="-139.8" font-family="Times,serif" font-size="14.00" fill="#0a5040">→ </text>
<text text-anchor="start" x="43.5" y="-139.8" font-family="Times,serif" font-size="14.00" fill="#f5a70a"> •</text>
<text text-anchor="start" x="53.5" y="-139.8" font-family="Times,serif" font-size="14.00" fill="#bc1f29"> E</text>
<text text-anchor="start" x="66.5" y="-139.8" font-family="Times,serif" font-size="14.00" fill="#0a5040"> +</text>
<text text-anchor="start" x="79.5" y="-139.8" font-family="Times,serif" font-size="14.00" fill="#bc1f29"> T</text>
</a>
</g>
<g id="a_state_1_item_3"><a xlink:href="#" xlink:title="state_1_item_3">
<text text-anchor="start" x="11.5" y="-118.8" font-family="Times,serif" font-size="14.00" fill="#bc1f29">E </text>
<text text-anchor="start" x="24.5" y="-118.8" font-family="Times,serif" font-size="14.00" fill="#0a5040">→ </text>
<text text-anchor="start" x="43.5" y="-118.8" font-family="Times,serif" font-size="14.00" fill="#f5a70a"> •</text>
<text text-anchor="start" x="53.5" y="-118.8" font-family="Times,serif" font-size="14.00" fill="#bc1f29"> T</text>
</a>
</g>
<g id="a_state_1_item_4"><a xlink:href="#" xlink:title="state_1_item_4">
<text text-anchor="start" x="11.5" y="-97.8" font-family="Times,serif" font-size="14.00" fill="#bc1f29">T </text>
<text text-anchor="start" x="24.5" y="-97.8" font-family="Times,serif" font-size="14.00" fill="#0a5040">→ </text>
<text text-anchor="start" x="43.5" y="-97.8" font-family="Times,serif" font-size="14.00" fill="#f5a70a"> •</text>
<text text-anchor="start" x="53.5" y="-97.8" font-family="Times,serif" font-size="14.00" fill="#0a5040"> (</text>
<text text-anchor="start" x="62.5" y="-97.8" font-family="Times,serif" font-size="14.00" fill="#bc1f29"> E</text>
<text text-anchor="start" x="75.5" y="-97.8" font-family="Times,serif" font-size="14.00" fill="#0a5040"> )</text>
</a>
</g>
<g id="a_state_1_item_5"><a xlink:href="#" xlink:title="state_1_item_5">
<text text-anchor="start" x="11.5" y="-76.8" font-family="Times,serif" font-size="14.00" fill="#bc1f29">T </text>
<text text-anchor="start" x="24.5" y="-76.8" font-family="Times,serif" font-size="14.00" fill="#0a5040">→ </text>
<text text-anchor="start" x="43.5" y="-76.8" font-family="Times,serif" font-size="14.00" fill="#f5a70a"> •</text>
<text text-anchor="start" x="53.5" y="-76.8" font-family="Times,serif" font-size="14.00" fill="#0a5040"> i</text>
</a>
</g>
</g>
<!-- state_2 -->
<g id="state_2" class="node">
<title>state_2</title>
<path fill="#fffff0" stroke="#b8860b" stroke-width="1.5" d="M243,-205C243,-205 164,-205 164,-205 158,-205 152,-199 152,-193 152,-193 152,-139 152,-139 152,-133 158,-127 164,-127 164,-127 243,-127 243,-127 249,-127 255,-133 255,-139 255,-139 255,-193 255,-193 255,-199 249,-205 243,-205"/>
<g id="a_state_2_title"><a xlink:href="#" xlink:title="state_2_title">
<text text-anchor="start" x="181" y="-184.6" font-family="Calibri" font-weight="bold" font-size="13.00" fill="#8b4513">Estado </text>
<text text-anchor="start" x="220" y="-184.6" font-family="Calibri" font-weight="bold" font-size="13.00" fill="#8b4513">2</text>
</a>
</g>
<g id="a_state_2_item_1"><a xlink:href="#" xlink:title="state_2_item_1">
<text text-anchor="start" x="163.5" y="-163.8" font-family="Times,serif" font-size="14.00" fill="#bc1f29">E&#39; </text>
<text text-anchor="start" x="178.5" y="-163.8" font-family="Times,serif" font-size="14.00" fill="#0a5040">→ </text>
<text text-anchor="start" x="197.5" y="-163.8" font-family="Times,serif" font-size="14.00" fill="#bc1f29"> E</text>
<text text-anchor="start" x="210.5" y="-163.8" font-family="Times,serif" font-size="14.00" fill="#f5a70a"> •</text>
<text text-anchor="start" x="220.5" y="-163.8" font-family="Times,serif" font-size="14.00" fill="#0a5040"> $</text>
</a>
</g>
<g id="a_state_2_item_2"><a xlink:href="#" xlink:title="state_2_item_2">
<text text-anchor="start" x="163.5" y="-142.8" font-family="Times,serif" font-size="14.00" fill="#bc1f29">E </text>
<text text-anchor="start" x="176.5" y="-142.8" font-family="Times,serif" font-size="14.00" fill="#0a5040">→ </text>
<text text-anchor="start" x="195.5" y="-142.8" font-family="Times,serif" font-size="14.00" fill="#bc1f29"> E</text>
<text text-anchor="start" x="208.5" y="-142.8" font-family="Times,serif" font-size="14.00" fill="#f5a70a"> •</text>
<text text-anchor="start" x="218.5" y="-142.8" font-family="Times,serif" font-size="14.00" fill="#0a5040"> +</text>
<text text-anchor="start" x="231.5" y="-142.8" font-family="Times,serif" font-size="14.00" fill="#bc1f29"> T</text>
</a>
</g>
</g>
<!-- state_1&#45;&gt;state_2 -->
<g id="trans_1" class="edge">
<title>state_1&#45;&gt;state_2</title>
<path fill="none" stroke="#b8860b" stroke-width="1.5" d="M103.3846,-143.6058C115.7354,-146.3684 129.0341,-149.3431 141.7772,-152.1936"/>
<polygon fill="#b8860b" stroke="#b8860b" stroke-width="1.5" points="141.3263,-155.6791 151.8492,-154.4465 142.8544,-148.848 141.3263,-155.6791"/>
<text text-anchor="start" x="121" y="-154.8" font-family="Times,serif" font-size="14.00" fill="#bc1f29"> E</text>
</g>
<!-- state_4 -->
<g id="state_4" class="node">
<title>state_4</title>
<path fill="#fffff0" stroke="#b8860b" stroke-width="1.5" d="M551,-169.5C551,-169.5 472,-169.5 472,-169.5 466,-169.5 460,-163.5 460,-157.5 460,-157.5 460,-40.5 460,-40.5 460,-34.5 466,-28.5 472,-28.5 472,-28.5 551,-28.5 551,-28.5 557,-28.5 563,-34.5 563,-40.5 563,-40.5 563,-157.5 563,-157.5 563,-163.5 557,-169.5 551,-169.5"/>
<g id="a_state_4_title"><a xlink:href="#" xlink:title="state_4_title">
<text text-anchor="start" x="489" y="-148.6" font-family="Calibri" font-weight="bold" font-size="13.00" fill="#8b4513">Estado </text>
<text text-anchor="start" x="528" y="-148.6" font-family="Calibri" font-weight="bold" font-size="13.00" fill="#8b4513">4</text>
</a>
</g>
<g id="a_state_4_item_1"><a xlink:href="#" xlink:title="state_4_item_1">
<text text-anchor="start" x="471.5" y="-127.8" font-family="Times,serif" font-size="14.00" fill="#bc1f29">T </text>
<text text-anchor="start" x="484.5" y="-127.8" font-family="Times,serif" font-size="14.00" fill="#0a5040">→ </text>
<text text-anchor="start" x="503.5" y="-127.8" font-family="Times,serif" font-size="14.00" fill="#0a5040"> (</text>
<text text-anchor="start" x="512.5" y="-127.8" font-family="Times,serif" font-size="14.00" fill="#f5a70a"> •</text>
<text text-anchor="start" x="522.5" y="-127.8" font-family="Times,serif" font-size="14.00" fill="#bc1f29"> E</text>
<text text-anchor="start" x="535.5" y="-127.8" font-family="Times,serif" font-size="14.00" fill="#0a5040"> )</text>
</a>
</g>
<g id="a_state_4_item_2"><a xlink:href="#" xlink:title="state_4_item_2">
<text text-anchor="start" x="471.5" y="-106.8" font-family="Times,serif" font-size="14.00" fill="#bc1f29">E </text>
<text text-anchor="start" x="484.5" y="-106.8" font-family="Times,serif" font-size="14.00" fill="#0a5040">→ </text>
<text text-anchor="start" x="503.5" y="-106.8" font-family="Times,serif" font-size="14.00" fill="#f5a70a"> •</text>
<text text-anchor="start" x="513.5" y="-106.8" font-family="Times,serif" font-size="14.00" fill="#bc1f29"> E</text>
<text text-anchor="start" x="526.5" y="-106.8" font-family="Times,serif" font-size="14.00" fill="#0a5040"> +</text>
<text text-anchor="start" x="539.5" y="-106.8" font-family="Times,serif" font-size="14.00" fill="#bc1f29"> T</text>
</a>
</g>
<g id="a_state_4_item_3"><a xlink:href="#" xlink:title="state_4_item_3">
<text text-anchor="start" x="471.5" y="-85.8" font-family="Times,serif" font-size="14.00" fill="#bc1f29">E </text>
<text text-anchor="start" x="484.5" y="-85.8" font-family="Times,serif" font-size="14.00" fill="#0a5040">→ </text>
<text text-anchor="start" x="503.5" y="-85.8" font-family="Times,serif" font-size="14.00" fill="#f5a70a"> •</text>
<text text-anchor="start" x="513.5" y="-85.8" font-family="Times,serif" font-size="14.00" fill="#bc1f29"> T</text>
</a>
</g>
<g id="a_state_4_item_4"><a xlink:href="#" xlink:title="state_4_item_4">
<text text-anchor="start" x="471.5" y="-64.8" font-family="Times,serif" font-size="14.00" fill="#bc1f29">T </text>
<text text-anchor="start" x="484.5" y="-64.8" font-family="Times,serif" font-size="14.00" fill="#0a5040">→ </text>
<text text-anchor="start" x="503.5" y="-64.8" font-family="Times,serif" font-size="14.00" fill="#f5a70a"> •</text>
<text text-anchor="start" x="513.5" y="-64.8" font-family="Times,serif" font-size="14.00" fill="#0a5040"> (</text>
<text text-anchor="start" x="522.5" y="-64.8" font-family="Times,serif" font-size="14.00" fill="#bc1f29"> E</text>
<text text-anchor="start" x="535.5" y="-64.8" font-family="Times,serif" font-size="14.00" fill="#0a5040"> )</text>
</a>
</g>
<g id="a_state_4_item_5"><a xlink:href="#" xlink:title="state_4_item_5">
<text text-anchor="start" x="471.5" y="-43.8" font-family="Times,serif" font-size="14.00" fill="#bc1f29">T </text>
<text text-anchor="start" x="484.5" y="-43.8" font-family="Times,serif" font-size="14.00" fill="#0a5040">→ </text>
<text text-anchor="start" x="503.5" y="-43.8" font-family="Times,serif" font-size="14.00" fill="#f5a70a"> •</text>
<text text-anchor="start" x="513.5" y="-43.8" font-family="Times,serif" font-size="14.00" fill="#0a5040"> i</text>
</a>
</g>
</g>
<!-- state_1&#45;&gt;state_4 -->
<g id="trans_3" class="edge">
<title>state_1&#45;&gt;state_4</title>
<path fill="none" stroke="#b8860b" stroke-width="1.5" d="M103.0438,-123.9566C118.7305,-121.7417 136.0423,-119.5303 152,-118 256.2172,-108.0056 377.9719,-102.9556 449.691,-100.6586"/>
<polygon fill="#b8860b" stroke="#b8860b" stroke-width="1.5" points="450.0157,-104.1502 459.9014,-100.3394 449.7969,-97.1537 450.0157,-104.1502"/>
<text text-anchor="start" x="275" y="-112.8" font-family="Times,serif" font-size="14.00" fill="#0a5040"> (</text>
</g>
<!-- state_3 -->
<g id="state_3" class="node">
<title>state_3</title>
<path fill="#fffff0" stroke="#b8860b" stroke-width="1.5" d="M694,-70.5C694,-70.5 641,-70.5 641,-70.5 635,-70.5 629,-64.5 629,-58.5 629,-58.5 629,-25.5 629,-25.5 629,-19.5 635,-13.5 641,-13.5 641,-13.5 694,-13.5 694,-13.5 700,-13.5 706,-19.5 706,-25.5 706,-25.5 706,-58.5 706,-58.5 706,-64.5 700,-70.5 694,-70.5"/>
<path fill="none" stroke="#b8860b" stroke-width="1.5" d="M698,-74.5C698,-74.5 637,-74.5 637,-74.5 631,-74.5 625,-68.5 625,-62.5 625,-62.5 625,-21.5 625,-21.5 625,-15.5 631,-9.5 637,-9.5 637,-9.5 698,-9.5 698,-9.5 704,-9.5 710,-15.5 710,-21.5 710,-21.5 710,-62.5 710,-62.5 710,-68.5 704,-74.5 698,-74.5"/>
<g id="a_state_3_title"><a xlink:href="#" xlink:title="state_3_title">
<text text-anchor="start" x="645" y="-49.6" font-family="Calibri" font-weight="bold" font-size="13.00" fill="#8b4513">Estado </text>
<text text-anchor="start" x="684" y="-49.6" font-family="Calibri" font-weight="bold" font-size="13.00" fill="#8b4513">3</text>
</a>
</g>
<g id="a_state_3_item_1"><a xlink:href="#" xlink:title="state_3_item_1">
<text text-anchor="start" x="640.5" y="-28.8" font-family="Times,serif" font-size="14.00" fill="#bc1f29">E </text>
<text text-anchor="start" x="653.5" y="-28.8" font-family="Times,serif" font-size="14.00" fill="#0a5040">→ </text>
<text text-anchor="start" x="672.5" y="-28.8" font-family="Times,serif" font-size="14.00" fill="#bc1f29"> T</text>
<text text-anchor="start" x="685.5" y="-28.8" font-family="Times,serif" font-size="14.00" fill="#f5a70a"> •</text>
</a>
</g>
</g>
<!-- state_1&#45;&gt;state_3 -->
<g id="trans_2" class="edge">
<title>state_1&#45;&gt;state_3</title>
<path fill="none" stroke="#b8860b" stroke-width="1.5" d="M97.7916,-61.3628C124.3405,-29.9788 160.8602,0 203.5,0 203.5,0 203.5,0 511.5,0 546.9048,0 585.3234,-10.2117 615.1755,-20.5646"/>
<polygon fill="#b8860b" stroke="#b8860b" stroke-width="1.5" points="614.3595,-23.99 624.9541,-24.0664 616.7196,-17.3998 614.3595,-23.99"/>
<text text-anchor="start" x="349" y="-3.8" font-family="Times,serif" font-size="14.00" fill="#bc1f29"> T</text>
</g>
<!-- state_5 -->
<g id="state_5" class="node">
<title>state_5</title>
<path fill="#fffff0" stroke="#b8860b" stroke-width="1.5" d="M691.5,-402.5C691.5,-402.5 643.5,-402.5 643.5,-402.5 637.5,-402.5 631.5,-396.5 631.5,-390.5 631.5,-390.5 631.5,-357.5 631.5,-357.5 631.5,-351.5 637.5,-345.5 643.5,-345.5 643.5,-345.5 691.5,-345.5 691.5,-345.5 697.5,-345.5 703.5,-351.5 703.5,-357.5 703.5,-357.5 703.5,-390.5 703.5,-390.5 703.5,-396.5 697.5,-402.5 691.5,-402.5"/>
<path fill="none" stroke="#b8860b" stroke-width="1.5" d="M695.5,-406.5C695.5,-406.5 639.5,-406.5 639.5,-406.5 633.5,-406.5 627.5,-400.5 627.5,-394.5 627.5,-394.5 627.5,-353.5 627.5,-353.5 627.5,-347.5 633.5,-341.5 639.5,-341.5 639.5,-341.5 695.5,-341.5 695.5,-341.5 701.5,-341.5 707.5,-347.5 707.5,-353.5 707.5,-353.5 707.5,-394.5 707.5,-394.5 707.5,-400.5 701.5,-406.5 695.5,-406.5"/>
<g id="a_state_5_title"><a xlink:href="#" xlink:title="state_5_title">
<text text-anchor="start" x="644.5" y="-381.6" font-family="Calibri" font-weight="bold" font-size="13.00" fill="#8b4513">Estado </text>
<text text-anchor="start" x="683.5" y="-381.6" font-family="Calibri" font-weight="bold" font-size="13.00" fill="#8b4513">5</text>
</a>
</g>
<g id="a_state_5_item_1"><a xlink:href="#" xlink:title="state_5_item_1">
<text text-anchor="start" x="642.5" y="-360.8" font-family="Times,serif" font-size="14.00" fill="#bc1f29">T </text>
<text text-anchor="start" x="655.5" y="-360.8" font-family="Times,serif" font-size="14.00" fill="#0a5040">→ </text>
<text text-anchor="start" x="674.5" y="-360.8" font-family="Times,serif" font-size="14.00" fill="#0a5040"> i</text>
<text text-anchor="start" x="682.5" y="-360.8" font-family="Times,serif" font-size="14.00" fill="#f5a70a"> •</text>
</a>
</g>
</g>
<!-- state_1&#45;&gt;state_5 -->
<g id="trans_4" class="edge">
<title>state_1&#45;&gt;state_5</title>
<path fill="none" stroke="#b8860b" stroke-width="1.5" d="M58.5351,-202.8156C71.2805,-287.222 106.628,-417 203.5,-417 203.5,-417 203.5,-417 511.5,-417 548.0038,-417 587.6409,-405.9221 617.8262,-395.0119"/>
<polygon fill="#b8860b" stroke="#b8860b" stroke-width="1.5" points="619.13,-398.2612 627.2785,-391.4897 616.6858,-391.7018 619.13,-398.2612"/>
<text text-anchor="start" x="351.5" y="-420.8" font-family="Times,serif" font-size="14.00" fill="#0a5040"> i</text>
</g>
<!-- state_7 -->
<g id="state_7" class="node">
<title>state_7</title>
<path fill="#fffff0" stroke="#b8860b" stroke-width="1.5" d="M395,-312.5C395,-312.5 316,-312.5 316,-312.5 310,-312.5 304,-306.5 304,-300.5 304,-300.5 304,-225.5 304,-225.5 304,-219.5 310,-213.5 316,-213.5 316,-213.5 395,-213.5 395,-213.5 401,-213.5 407,-219.5 407,-225.5 407,-225.5 407,-300.5 407,-300.5 407,-306.5 401,-312.5 395,-312.5"/>
<g id="a_state_7_title"><a xlink:href="#" xlink:title="state_7_title">
<text text-anchor="start" x="333" y="-291.6" font-family="Calibri" font-weight="bold" font-size="13.00" fill="#8b4513">Estado </text>
<text text-anchor="start" x="372" y="-291.6" font-family="Calibri" font-weight="bold" font-size="13.00" fill="#8b4513">7</text>
</a>
</g>
<g id="a_state_7_item_1"><a xlink:href="#" xlink:title="state_7_item_1">
<text text-anchor="start" x="315.5" y="-270.8" font-family="Times,serif" font-size="14.00" fill="#bc1f29">E </text>
<text text-anchor="start" x="328.5" y="-270.8" font-family="Times,serif" font-size="14.00" fill="#0a5040">→ </text>
<text text-anchor="start" x="347.5" y="-270.8" font-family="Times,serif" font-size="14.00" fill="#bc1f29"> E</text>
<text text-anchor="start" x="360.5" y="-270.8" font-family="Times,serif" font-size="14.00" fill="#0a5040"> +</text>
<text text-anchor="start" x="373.5" y="-270.8" font-family="Times,serif" font-size="14.00" fill="#f5a70a"> •</text>
<text text-anchor="start" x="383.5" y="-270.8" font-family="Times,serif" font-size="14.00" fill="#bc1f29"> T</text>
</a>
</g>
<g id="a_state_7_item_2"><a xlink:href="#" xlink:title="state_7_item_2">
<text text-anchor="start" x="315.5" y="-249.8" font-family="Times,serif" font-size="14.00" fill="#bc1f29">T </text>
<text text-anchor="start" x="328.5" y="-249.8" font-family="Times,serif" font-size="14.00" fill="#0a5040">→ </text>
<text text-anchor="start" x="347.5" y="-249.8" font-family="Times,serif" font-size="14.00" fill="#f5a70a"> •</text>
<text text-anchor="start" x="357.5" y="-249.8" font-family="Times,serif" font-size="14.00" fill="#0a5040"> (</text>
<text text-anchor="start" x="366.5" y="-249.8" font-family="Times,serif" font-size="14.00" fill="#bc1f29"> E</text>
<text text-anchor="start" x="379.5" y="-249.8" font-family="Times,serif" font-size="14.00" fill="#0a5040"> )</text>
</a>
</g>
<g id="a_state_7_item_3"><a xlink:href="#" xlink:title="state_7_item_3">
<text text-anchor="start" x="315.5" y="-228.8" font-family="Times,serif" font-size="14.00" fill="#bc1f29">T </text>
<text text-anchor="start" x="328.5" y="-228.8" font-family="Times,serif" font-size="14.00" fill="#0a5040">→ </text>
<text text-anchor="start" x="347.5" y="-228.8" font-family="Times,serif" font-size="14.00" fill="#f5a70a"> •</text>
<text text-anchor="start" x="357.5" y="-228.8" font-family="Times,serif" font-size="14.00" fill="#0a5040"> i</text>
</a>
</g>
</g>
<!-- state_2&#45;&gt;state_7 -->
<g id="trans_6" class="edge">
<title>state_2&#45;&gt;state_7</title>
<path fill="none" stroke="#b8860b" stroke-width="1.5" d="M255.3846,-199.1106C268.2245,-207.3045 282.0889,-216.1521 295.2886,-224.5756"/>
<polygon fill="#b8860b" stroke="#b8860b" stroke-width="1.5" points="293.5366,-227.6095 303.8492,-230.0386 297.3023,-221.7086 293.5366,-227.6095"/>
<text text-anchor="start" x="273" y="-220.8" font-family="Times,serif" font-size="14.00" fill="#0a5040"> +</text>
</g>
<!-- state_6 -->
<g id="state_6" class="node">
<title>state_6</title>
<path fill="#fffff0" stroke="#b8860b" stroke-width="1.5" d="M388.5,-191.5C388.5,-191.5 322.5,-191.5 322.5,-191.5 316.5,-191.5 310.5,-185.5 310.5,-179.5 310.5,-179.5 310.5,-146.5 310.5,-146.5 310.5,-140.5 316.5,-134.5 322.5,-134.5 322.5,-134.5 388.5,-134.5 388.5,-134.5 394.5,-134.5 400.5,-140.5 400.5,-146.5 400.5,-146.5 400.5,-179.5 400.5,-179.5 400.5,-185.5 394.5,-191.5 388.5,-191.5"/>
<path fill="none" stroke="#b8860b" stroke-width="1.5" d="M392.5,-195.5C392.5,-195.5 318.5,-195.5 318.5,-195.5 312.5,-195.5 306.5,-189.5 306.5,-183.5 306.5,-183.5 306.5,-142.5 306.5,-142.5 306.5,-136.5 312.5,-130.5 318.5,-130.5 318.5,-130.5 392.5,-130.5 392.5,-130.5 398.5,-130.5 404.5,-136.5 404.5,-142.5 404.5,-142.5 404.5,-183.5 404.5,-183.5 404.5,-189.5 398.5,-195.5 392.5,-195.5"/>
<g id="a_state_6_title"><a xlink:href="#" xlink:title="state_6_title">
<text text-anchor="start" x="332.5" y="-170.6" font-family="Calibri" font-weight="bold" font-size="13.00" fill="#8b4513">Estado </text>
<text text-anchor="start" x="371.5" y="-170.6" font-family="Calibri" font-weight="bold" font-size="13.00" fill="#8b4513">6</text>
</a>
</g>
<g id="a_state_6_item_1"><a xlink:href="#" xlink:title="state_6_item_1">
<text text-anchor="start" x="321.5" y="-149.8" font-family="Times,serif" font-size="14.00" fill="#bc1f29">E&#39; </text>
<text text-anchor="start" x="336.5" y="-149.8" font-family="Times,serif" font-size="14.00" fill="#0a5040">→ </text>
<text text-anchor="start" x="355.5" y="-149.8" font-family="Times,serif" font-size="14.00" fill="#bc1f29"> E</text>
<text text-anchor="start" x="368.5" y="-149.8" font-family="Times,serif" font-size="14.00" fill="#0a5040"> $</text>
<text text-anchor="start" x="379.5" y="-149.8" font-family="Times,serif" font-size="14.00" fill="#f5a70a"> •</text>
</a>
</g>
</g>
<!-- state_2&#45;&gt;state_6 -->
<g id="trans_5" class="edge">
<title>state_2&#45;&gt;state_6</title>
<path fill="none" stroke="#b8860b" stroke-width="1.5" d="M255.3846,-164.976C268.543,-164.7163 282.7773,-164.4353 296.2695,-164.169"/>
<polygon fill="#b8860b" stroke="#b8860b" stroke-width="1.5" points="296.4834,-167.6656 306.4123,-163.9688 296.3452,-160.6669 296.4834,-167.6656"/>
<text text-anchor="start" x="274" y="-168.8" font-family="Times,serif" font-size="14.00" fill="#0a5040"> $</text>
</g>
<!-- state_4&#45;&gt;state_4 -->
<g id="trans_9" class="edge">
<title>state_4&#45;&gt;state_4</title>
<path fill="none" stroke="#b8860b" stroke-width="1.5" d="M497.8925,-169.8256C500.011,-180.369 504.5469,-187.5 511.5,-187.5 515.9543,-187.5 519.4166,-184.5734 521.8869,-179.698"/>
<polygon fill="#b8860b" stroke="#b8860b" stroke-width="1.5" points="525.3334,-180.4181 525.1075,-169.8256 518.6786,-178.247 525.3334,-180.4181"/>
<text text-anchor="start" x="507" y="-191.3" font-family="Times,serif" font-size="14.00" fill="#0a5040"> (</text>
</g>
<!-- state_8 -->
<g id="state_8" class="node">
<title>state_8</title>
<path fill="#fffff0" stroke="#b8860b" stroke-width="1.5" d="M707,-216C707,-216 628,-216 628,-216 622,-216 616,-210 616,-204 616,-204 616,-150 616,-150 616,-144 622,-138 628,-138 628,-138 707,-138 707,-138 713,-138 719,-144 719,-150 719,-150 719,-204 719,-204 719,-210 713,-216 707,-216"/>
<g id="a_state_8_title"><a xlink:href="#" xlink:title="state_8_title">
<text text-anchor="start" x="645" y="-195.6" font-family="Calibri" font-weight="bold" font-size="13.00" fill="#8b4513">Estado </text>
<text text-anchor="start" x="684" y="-195.6" font-family="Calibri" font-weight="bold" font-size="13.00" fill="#8b4513">8</text>
</a>
</g>
<g id="a_state_8_item_1"><a xlink:href="#" xlink:title="state_8_item_1">
<text text-anchor="start" x="627.5" y="-174.8" font-family="Times,serif" font-size="14.00" fill="#bc1f29">T </text>
<text text-anchor="start" x="640.5" y="-174.8" font-family="Times,serif" font-size="14.00" fill="#0a5040">→ </text>
<text text-anchor="start" x="659.5" y="-174.8" font-family="Times,serif" font-size="14.00" fill="#0a5040"> (</text>
<text text-anchor="start" x="668.5" y="-174.8" font-family="Times,serif" font-size="14.00" fill="#bc1f29"> E</text>
<text text-anchor="start" x="681.5" y="-174.8" font-family="Times,serif" font-size="14.00" fill="#f5a70a"> •</text>
<text text-anchor="start" x="691.5" y="-174.8" font-family="Times,serif" font-size="14.00" fill="#0a5040"> )</text>
</a>
</g>
<g id="a_state_8_item_2"><a xlink:href="#" xlink:title="state_8_item_2">
<text text-anchor="start" x="627.5" y="-153.8" font-family="Times,serif" font-size="14.00" fill="#bc1f29">E </text>
<text text-anchor="start" x="640.5" y="-153.8" font-family="Times,serif" font-size="14.00" fill="#0a5040">→ </text>
<text text-anchor="start" x="659.5" y="-153.8" font-family="Times,serif" font-size="14.00" fill="#bc1f29"> E</text>
<text text-anchor="start" x="672.5" y="-153.8" font-family="Times,serif" font-size="14.00" fill="#f5a70a"> •</text>
<text text-anchor="start" x="682.5" y="-153.8" font-family="Times,serif" font-size="14.00" fill="#0a5040"> +</text>
<text text-anchor="start" x="695.5" y="-153.8" font-family="Times,serif" font-size="14.00" fill="#bc1f29"> T</text>
</a>
</g>
</g>
<!-- state_4&#45;&gt;state_8 -->
<g id="trans_7" class="edge">
<title>state_4&#45;&gt;state_8</title>
<path fill="none" stroke="#b8860b" stroke-width="1.5" d="M563.2291,-119.8383C574.8016,-124.8552 586.9246,-130.3937 598,-136 600.9373,-137.4868 603.9209,-139.0462 606.9177,-140.6522"/>
<polygon fill="#b8860b" stroke="#b8860b" stroke-width="1.5" points="605.4629,-143.846 615.9141,-145.5844 608.8281,-137.708 605.4629,-143.846"/>
<text text-anchor="start" x="585" y="-139.8" font-family="Times,serif" font-size="14.00" fill="#bc1f29"> E</text>
</g>
<!-- state_4&#45;&gt;state_3 -->
<g id="trans_8" class="edge">
<title>state_4&#45;&gt;state_3</title>
<path fill="none" stroke="#b8860b" stroke-width="1.5" d="M563.0126,-80.1781C579.7792,-74.0518 598.3986,-67.2486 615.2207,-61.1021"/>
<polygon fill="#b8860b" stroke="#b8860b" stroke-width="1.5" points="616.6986,-64.2884 624.89,-57.569 614.2962,-57.7136 616.6986,-64.2884"/>
<text text-anchor="start" x="585" y="-74.8" font-family="Times,serif" font-size="14.00" fill="#bc1f29"> T</text>
</g>
<!-- state_4&#45;&gt;state_5 -->
<g id="trans_10" class="edge">
<title>state_4&#45;&gt;state_5</title>
<path fill="none" stroke="#b8860b" stroke-width="1.5" d="M551.6739,-169.8193C580.9197,-221.3744 619.5266,-289.4315 643.9402,-332.4683"/>
<polygon fill="#b8860b" stroke="#b8860b" stroke-width="1.5" points="640.9474,-334.2861 648.9258,-341.2571 647.036,-330.8322 640.9474,-334.2861"/>
<text text-anchor="start" x="587.5" y="-247.8" font-family="Times,serif" font-size="14.00" fill="#0a5040"> i</text>
</g>
<!-- state_7&#45;&gt;state_4 -->
<g id="trans_12" class="edge">
<title>state_7&#45;&gt;state_4</title>
<path fill="none" stroke="#b8860b" stroke-width="1.5" d="M402.7285,-213.3495C418.5005,-196.7687 436.2716,-178.0863 452.8073,-160.7025"/>
<polygon fill="#b8860b" stroke="#b8860b" stroke-width="1.5" points="455.4528,-162.9997 459.809,-153.3418 450.3809,-158.1752 455.4528,-162.9997"/>
<text text-anchor="start" x="427" y="-189.8" font-family="Times,serif" font-size="14.00" fill="#0a5040"> (</text>
</g>
<!-- state_7&#45;&gt;state_5 -->
<g id="trans_13" class="edge">
<title>state_7&#45;&gt;state_5</title>
<path fill="none" stroke="#b8860b" stroke-width="1.5" d="M403.5524,-312.606C419.0536,-325.857 437.1391,-338.7668 456,-347 507.6652,-369.553 572.7083,-374.8281 616.9288,-375.4007"/>
<polygon fill="#b8860b" stroke="#b8860b" stroke-width="1.5" points="617.1268,-378.9017 627.1451,-375.4543 617.1636,-371.9018 617.1268,-378.9017"/>
<text text-anchor="start" x="507.5" y="-375.8" font-family="Times,serif" font-size="14.00" fill="#0a5040"> i</text>
</g>
<!-- state_9 -->
<g id="state_9" class="node">
<title>state_9</title>
<path fill="#fffff0" stroke="#b8860b" stroke-width="1.5" d="M551,-333.5C551,-333.5 472,-333.5 472,-333.5 466,-333.5 460,-327.5 460,-321.5 460,-321.5 460,-288.5 460,-288.5 460,-282.5 466,-276.5 472,-276.5 472,-276.5 551,-276.5 551,-276.5 557,-276.5 563,-282.5 563,-288.5 563,-288.5 563,-321.5 563,-321.5 563,-327.5 557,-333.5 551,-333.5"/>
<path fill="none" stroke="#b8860b" stroke-width="1.5" d="M555,-337.5C555,-337.5 468,-337.5 468,-337.5 462,-337.5 456,-331.5 456,-325.5 456,-325.5 456,-284.5 456,-284.5 456,-278.5 462,-272.5 468,-272.5 468,-272.5 555,-272.5 555,-272.5 561,-272.5 567,-278.5 567,-284.5 567,-284.5 567,-325.5 567,-325.5 567,-331.5 561,-337.5 555,-337.5"/>
<g id="a_state_9_title"><a xlink:href="#" xlink:title="state_9_title">
<text text-anchor="start" x="489" y="-312.6" font-family="Calibri" font-weight="bold" font-size="13.00" fill="#8b4513">Estado </text>
<text text-anchor="start" x="528" y="-312.6" font-family="Calibri" font-weight="bold" font-size="13.00" fill="#8b4513">9</text>
</a>
</g>
<g id="a_state_9_item_1"><a xlink:href="#" xlink:title="state_9_item_1">
<text text-anchor="start" x="471.5" y="-291.8" font-family="Times,serif" font-size="14.00" fill="#bc1f29">E </text>
<text text-anchor="start" x="484.5" y="-291.8" font-family="Times,serif" font-size="14.00" fill="#0a5040">→ </text>
<text text-anchor="start" x="503.5" y="-291.8" font-family="Times,serif" font-size="14.00" fill="#bc1f29"> E</text>
<text text-anchor="start" x="516.5" y="-291.8" font-family="Times,serif" font-size="14.00" fill="#0a5040"> +</text>
<text text-anchor="start" x="529.5" y="-291.8" font-family="Times,serif" font-size="14.00" fill="#bc1f29"> T</text>
<text text-anchor="start" x="542.5" y="-291.8" font-family="Times,serif" font-size="14.00" fill="#f5a70a"> •</text>
</a>
</g>
</g>
<!-- state_7&#45;&gt;state_9 -->
<g id="trans_11" class="edge">
<title>state_7&#45;&gt;state_9</title>
<path fill="none" stroke="#b8860b" stroke-width="1.5" d="M407.0126,-276.8688C419.4596,-280.2199 432.9277,-283.8459 445.9236,-287.3448"/>
<polygon fill="#b8860b" stroke="#b8860b" stroke-width="1.5" points="445.1788,-290.7688 455.7449,-289.989 446.9986,-284.0095 445.1788,-290.7688"/>
<text text-anchor="start" x="425" y="-287.8" font-family="Times,serif" font-size="14.00" fill="#bc1f29"> T</text>
</g>
<!-- state_8&#45;&gt;state_7 -->
<g id="trans_14" class="edge">
<title>state_8&#45;&gt;state_7</title>
<path fill="none" stroke="#b8860b" stroke-width="1.5" d="M616.1769,-216.0846C610.2495,-219.4828 604.1282,-222.5528 598,-225 589.619,-228.3468 486.1245,-243.9065 417.0772,-254.0486"/>
<polygon fill="#b8860b" stroke="#b8860b" stroke-width="1.5" points="416.5416,-250.5896 407.1552,-255.5036 417.5573,-257.5156 416.5416,-250.5896"/>
<text text-anchor="start" x="505" y="-251.8" font-family="Times,serif" font-size="14.00" fill="#0a5040"> +</text>
</g>
<!-- state_10 -->
<g id="state_10" class="node">
<title>state_10</title>
<path fill="#fffff0" stroke="#b8860b" stroke-width="1.5" d="M851,-205.5C851,-205.5 780,-205.5 780,-205.5 774,-205.5 768,-199.5 768,-193.5 768,-193.5 768,-160.5 768,-160.5 768,-154.5 774,-148.5 780,-148.5 780,-148.5 851,-148.5 851,-148.5 857,-148.5 863,-154.5 863,-160.5 863,-160.5 863,-193.5 863,-193.5 863,-199.5 857,-205.5 851,-205.5"/>
<path fill="none" stroke="#b8860b" stroke-width="1.5" d="M855,-209.5C855,-209.5 776,-209.5 776,-209.5 770,-209.5 764,-203.5 764,-197.5 764,-197.5 764,-156.5 764,-156.5 764,-150.5 770,-144.5 776,-144.5 776,-144.5 855,-144.5 855,-144.5 861,-144.5 867,-150.5 867,-156.5 867,-156.5 867,-197.5 867,-197.5 867,-203.5 861,-209.5 855,-209.5"/>
<g id="a_state_10_title"><a xlink:href="#" xlink:title="state_10_title">
<text text-anchor="start" x="789.5" y="-184.6" font-family="Calibri" font-weight="bold" font-size="13.00" fill="#8b4513">Estado </text>
<text text-anchor="start" x="828.5" y="-184.6" font-family="Calibri" font-weight="bold" font-size="13.00" fill="#8b4513">10</text>
</a>
</g>
<g id="a_state_10_item_1"><a xlink:href="#" xlink:title="state_10_item_1">
<text text-anchor="start" x="779.5" y="-163.8" font-family="Times,serif" font-size="14.00" fill="#bc1f29">T </text>
<text text-anchor="start" x="792.5" y="-163.8" font-family="Times,serif" font-size="14.00" fill="#0a5040">→ </text>
<text text-anchor="start" x="811.5" y="-163.8" font-family="Times,serif" font-size="14.00" fill="#0a5040"> (</text>
<text text-anchor="start" x="820.5" y="-163.8" font-family="Times,serif" font-size="14.00" fill="#bc1f29"> E</text>
<text text-anchor="start" x="833.5" y="-163.8" font-family="Times,serif" font-size="14.00" fill="#0a5040"> )</text>
<text text-anchor="start" x="842.5" y="-163.8" font-family="Times,serif" font-size="14.00" fill="#f5a70a"> •</text>
</a>
</g>
</g>
<!-- state_8&#45;&gt;state_10 -->
<g id="trans_15" class="edge">
<title>state_8&#45;&gt;state_10</title>
<path fill="none" stroke="#b8860b" stroke-width="1.5" d="M719.2632,-177C730.3041,-177 742.0731,-177 753.4546,-177"/>
<polygon fill="#b8860b" stroke="#b8860b" stroke-width="1.5" points="753.766,-180.5001 763.766,-177 753.766,-173.5001 753.766,-180.5001"/>
<text text-anchor="start" x="737" y="-180.8" font-family="Times,serif" font-size="14.00" fill="#0a5040"> )</text>
</g>
</g>
</svg>
