<?xml version="1.0" encoding="UTF-8" standalone="no"?>
<!DOCTYPE svg PUBLIC "-//W3C//DTD SVG 1.1//EN"
 "http://www.w3.org/Graphics/SVG/1.1/DTD/svg11.dtd">
<!-- Generated by graphviz version 2.40.1 (20161225.0304)
 -->
<!-- Title: DFA Pages: 1 -->
<svg width="973pt" height="291pt"
 viewBox="0.00 0.00 973.00 290.50" xmlns="http://www.w3.org/2000/svg" xmlns:xlink="http://www.w3.org/1999/xlink">
<g id="graph0" class="graph" transform="scale(1 1) rotate(0) translate(4 286.5)">
<title>DFA</title>
<!-- state_1 -->
<g id="state_1" class="node">
<title>state_1</title>
<path fill="#fffff0" stroke="#b8860b" stroke-width="1.5" d="M173,-250C173,-250 12,-250 12,-250 6,-250 0,-244 0,-238 0,-238 0,-142 0,-142 0,-136 6,-130 12,-130 12,-130 173,-130 173,-130 179,-130 185,-136 185,-142 185,-142 185,-238 185,-238 185,-244 179,-250 173,-250"/>
<g id="a_state_1_title"><a xlink:href="#" xlink:title="state_1_title">
<text text-anchor="start" x="70" y="-229.6" font-family="Calibri" font-weight="bold" font-size="13.00" fill="#8b4513">Estado </text>
<text text-anchor="start" x="109" y="-229.6" font-family="Calibri" font-weight="bold" font-size="13.00" fill="#8b4513">1</text>
</a>
</g>
<g id="a_state_1_item_1"><a xlink:href="#" xlink:title="state_1_item_1">
<text text-anchor="start" x="11.5" y="-208.8" font-family="Times,serif" font-size="14.00" fill="#bc1f29">List&#39; </text>
<text text-anchor="start" x="39.5" y="-208.8" font-family="Times,serif" font-size="14.00" fill="#0a5040">→ </text>
<text text-anchor="start" x="58.5" y="-208.8" font-family="Times,serif" font-size="14.00" fill="#f5a70a"> •</text>
<text text-anchor="start" x="68.5" y="-208.8" font-family="Times,serif" font-size="14.00" fill="#bc1f29"> List</text>
<text text-anchor="start" x="93.5" y="-208.8" font-family="Times,serif" font-size="14.00" fill="#0a5040"> $</text>
</a>
</g>
<g id="a_state_1_item_2"><a xlink:href="#" xlink:title="state_1_item_2">
<text text-anchor="start" x="11.5" y="-187.8" font-family="Times,serif" font-size="14.00" fill="#bc1f29">List </text>
<text text-anchor="start" x="36.5" y="-187.8" font-family="Times,serif" font-size="14.00" fill="#0a5040">→ </text>
<text text-anchor="start" x="55.5" y="-187.8" font-family="Times,serif" font-size="14.00" fill="#f5a70a"> •</text>
<text text-anchor="start" x="65.5" y="-187.8" font-family="Times,serif" font-size="14.00" fill="#0a5040"> id</text>
</a>
</g>
<g id="a_state_1_item_3"><a xlink:href="#" xlink:title="state_1_item_3">
<text text-anchor="start" x="11.5" y="-166.8" font-family="Times,serif" font-size="14.00" fill="#bc1f29">List </text>
<text text-anchor="start" x="36.5" y="-166.8" font-family="Times,serif" font-size="14.00" fill="#0a5040">→ </text>
<text text-anchor="start" x="55.5" y="-166.8" font-family="Times,serif" font-size="14.00" fill="#f5a70a"> •</text>
<text text-anchor="start" x="65.5" y="-166.8" font-family="Times,serif" font-size="14.00" fill="#bc1f29"> List</text>
<text text-anchor="start" x="90.5" y="-166.8" font-family="Times,serif" font-size="14.00" fill="#bc1f29"> OptComma</text>
<text text-anchor="start" x="159.5" y="-166.8" font-family="Times,serif" font-size="14.00" fill="#0a5040"> id</text>
</a>
</g>
<g id="a_state_1_item_4"><a xlink:href="#" xlink:title="state_1_item_4">
<text text-anchor="start" x="11.5" y="-145.8" font-family="Times,serif" font-size="14.00" fill="#bc1f29">List </text>
<text text-anchor="start" x="36.5" y="-145.8" font-family="Times,serif" font-size="14.00" fill="#0a5040">→ </text>
<text text-anchor="start" x="55.5" y="-145.8" font-family="Times,serif" font-size="14.00" fill="#f5a70a"> •</text>
<text text-anchor="start" x="65.5" y="-145.8" font-family="Times,serif" font-size="14.00" fill="#bc1f29"> List</text>
<text text-anchor="start" x="90.5" y="-145.8" font-family="Times,serif" font-size="14.00" fill="#0a5040"> ,</text>
</a>
</g>
</g>
<!-- state_3 -->
<g id="state_3" class="node">
<title>state_3</title>
<path fill="#fffff0" stroke="#b8860b" stroke-width="1.5" d="M372,-278.5C372,-278.5 305,-278.5 305,-278.5 299,-278.5 293,-272.5 293,-266.5 293,-266.5 293,-233.5 293,-233.5 293,-227.5 299,-221.5 305,-221.5 305,-221.5 372,-221.5 372,-221.5 378,-221.5 384,-227.5 384,-233.5 384,-233.5 384,-266.5 384,-266.5 384,-272.5 378,-278.5 372,-278.5"/>
<path fill="none" stroke="#b8860b" stroke-width="1.5" d="M376,-282.5C376,-282.5 301,-282.5 301,-282.5 295,-282.5 289,-276.5 289,-270.5 289,-270.5 289,-229.5 289,-229.5 289,-223.5 295,-217.5 301,-217.5 301,-217.5 376,-217.5 376,-217.5 382,-217.5 388,-223.5 388,-229.5 388,-229.5 388,-270.5 388,-270.5 388,-276.5 382,-282.5 376,-282.5"/>
<g id="a_state_3_title"><a xlink:href="#" xlink:title="state_3_title">
<text text-anchor="start" x="316" y="-257.6" font-family="Calibri" font-weight="bold" font-size="13.00" fill="#8b4513">Estado </text>
<text text-anchor="start" x="355" y="-257.6" font-family="Calibri" font-weight="bold" font-size="13.00" fill="#8b4513">3</text>
</a>
</g>
<g id="a_state_3_item_1"><a xlink:href="#" xlink:title="state_3_item_1">
<text text-anchor="start" x="304.5" y="-236.8" font-family="Times,serif" font-size="14.00" fill="#bc1f29">List </text>
<text text-anchor="start" x="329.5" y="-236.8" font-family="Times,serif" font-size="14.00" fill="#0a5040">→ </text>
<text text-anchor="start" x="348.5" y="-236.8" font-family="Times,serif" font-size="14.00" fill="#0a5040"> id</text>
<text text-anchor="start" x="363.5" y="-236.8" font-family="Times,serif" font-size="14.00" fill="#f5a70a"> •</text>
</a>
</g>
</g>
<!-- state_1&#45;&gt;state_3 -->
<g id="trans_2" class="edge">
<title>state_1&#45;&gt;state_3</title>
<path fill="none" stroke="#b8860b" stroke-width="1.5" d="M185.1515,-212.5979C216.4473,-220.2311 250.5391,-228.5461 278.6137,-235.3936"/>
<polygon fill="#b8860b" stroke="#b8860b" stroke-width="1.5" points="278.1239,-238.8767 288.6685,-237.846 279.7826,-232.076 278.1239,-238.8767"/>
<text text-anchor="start" x="208" y="-224.8" font-family="Times,serif" font-size="14.00" fill="#0a5040"> id</text>
</g>
<!-- state_2 -->
<g id="state_2" class="node">
<title>state_2</title>
<path fill="#f5f5dc" stroke="#b8860b" stroke-width="1.5" stroke-dasharray="5,2" d="M419,-199.5C419,-199.5 258,-199.5 258,-199.5 252,-199.5 246,-193.5 246,-187.5 246,-187.5 246,-70.5 246,-70.5 246,-64.5 252,-58.5 258,-58.5 258,-58.5 419,-58.5 419,-58.5 425,-58.5 431,-64.5 431,-70.5 431,-70.5 431,-187.5 431,-187.5 431,-193.5 425,-199.5 419,-199.5"/>
<g id="a_state_2_title"><a xlink:href="#" xlink:title="state_2_title">
<text text-anchor="start" x="316" y="-178.6" font-family="Calibri" font-weight="bold" font-size="13.00" fill="#8b4513">Estado </text>
<text text-anchor="start" x="355" y="-178.6" font-family="Calibri" font-weight="bold" font-size="13.00" fill="#8b4513">2</text>
</a>
</g>
<g id="a_state_2_item_1"><a xlink:href="#" xlink:title="state_2_item_1">
<text text-anchor="start" x="257.5" y="-157.8" font-family="Times,serif" font-size="14.00" fill="#bc1f29">List&#39; </text>
<text text-anchor="start" x="285.5" y="-157.8" font-family="Times,serif" font-size="14.00" fill="#0a5040">→ </text>
<text text-anchor="start" x="304.5" y="-157.8" font-family="Times,serif" font-size="14.00" fill="#bc1f29"> List</text>
<text text-anchor="start" x="329.5" y="-157.8" font-family="Times,serif" font-size="14.00" fill="#f5a70a"> •</text>
<text text-anchor="start" x="339.5" y="-157.8" font-family="Times,serif" font-size="14.00" fill="#0a5040"> $</text>
</a>
</g>
<g id="a_state_2_item_2"><a xlink:href="#" xlink:title="state_2_item_2">
<text text-anchor="start" x="257.5" y="-136.8" font-family="Times,serif" font-size="14.00" fill="#bc1f29">List </text>
<text text-anchor="start" x="282.5" y="-136.8" font-family="Times,serif" font-size="14.00" fill="#0a5040">→ </text>
<text text-anchor="start" x="301.5" y="-136.8" font-family="Times,serif" font-size="14.00" fill="#bc1f29"> List</text>
<text text-anchor="start" x="326.5" y="-136.8" font-family="Times,serif" font-size="14.00" fill="#f5a70a"> •</text>
<text text-anchor="start" x="336.5" y="-136.8" font-family="Times,serif" font-size="14.00" fill="#bc1f29"> OptComma</text>
<text text-anchor="start" x="405.5" y="-136.8" font-family="Times,serif" font-size="14.00" fill="#0a5040"> id</text>
</a>
</g>
<g id="a_state_2_item_3"><a xlink:href="#" xlink:title="state_2_item_3">
<text text-anchor="start" x="257.5" y="-115.8" font-family="Times,serif" font-size="14.00" fill="#bc1f29">List </text>
<text text-anchor="start" x="282.5" y="-115.8" font-family="Times,serif" font-size="14.00" fill="#0a5040">→ </text>
<text text-anchor="start" x="301.5" y="-115.8" font-family="Times,serif" font-size="14.00" fill="#bc1f29"> List</text>
<text text-anchor="start" x="326.5" y="-115.8" font-family="Times,serif" font-size="14.00" fill="#f5a70a"> •</text>
<text text-anchor="start" x="336.5" y="-115.8" font-family="Times,serif" font-size="14.00" fill="#0a5040"> ,</text>
</a>
</g>
<g id="a_state_2_item_4"><a xlink:href="#" xlink:title="state_2_item_4">
<text text-anchor="start" x="257.5" y="-94.8" font-family="Times,serif" font-size="14.00" fill="#bc1f29">OptComma </text>
<text text-anchor="start" x="326.5" y="-94.8" font-family="Times,serif" font-size="14.00" fill="#0a5040">→ </text>
<text text-anchor="start" x="345.5" y="-94.8" font-family="Times,serif" font-size="14.00" fill="#f5a70a"> •</text>
<text text-anchor="start" x="355.5" y="-94.8" font-family="Times,serif" font-size="14.00" fill="#0a5040"> ,</text>
</a>
</g>
<g id="a_state_2_item_5"><a xlink:href="#" xlink:title="state_2_item_5">
<text text-anchor="start" x="257.5" y="-73.8" font-family="Times,serif" font-size="14.00" fill="#bc1f29">OptComma </text>
<text text-anchor="start" x="326.5" y="-73.8" font-family="Times,serif" font-size="14.00" fill="#0a5040">→ </text>
<text text-anchor="start" x="345.5" y="-73.8" font-family="Times,serif" font-size="14.00" fill="#f5a70a"> •</text>
</a>
</g>
</g>
<!-- state_1&#45;&gt;state_2 -->
<g id="trans_1" class="edge">
<title>state_1&#45;&gt;state_2</title>
<path fill="none" stroke="#b8860b" stroke-width="1.5" d="M185.1515,-167.0254C201.7741,-162.9036 219.1854,-158.5861 236.065,-154.4006"/>
<polygon fill="#b8860b" stroke="#b8860b" stroke-width="1.5" points="237.0683,-157.7578 245.932,-151.9539 235.3835,-150.9636 237.0683,-157.7578"/>
<text text-anchor="start" x="203" y="-164.8" font-family="Times,serif" font-size="14.00" fill="#bc1f29"> List</text>
</g>
<!-- state_4 -->
<g id="state_4" class="node">
<title>state_4</title>
<path fill="#fffff0" stroke="#b8860b" stroke-width="1.5" d="M709,-236.5C709,-236.5 548,-236.5 548,-236.5 542,-236.5 536,-230.5 536,-224.5 536,-224.5 536,-191.5 536,-191.5 536,-185.5 542,-179.5 548,-179.5 548,-179.5 709,-179.5 709,-179.5 715,-179.5 721,-185.5 721,-191.5 721,-191.5 721,-224.5 721,-224.5 721,-230.5 715,-236.5 709,-236.5"/>
<g id="a_state_4_title"><a xlink:href="#" xlink:title="state_4_title">
<text text-anchor="start" x="606" y="-215.6" font-family="Calibri" font-weight="bold" font-size="13.00" fill="#8b4513">Estado </text>
<text text-anchor="start" x="645" y="-215.6" font-family="Calibri" font-weight="bold" font-size="13.00" fill="#8b4513">4</text>
</a>
</g>
<g id="a_state_4_item_1"><a xlink:href="#" xlink:title="state_4_item_1">
<text text-anchor="start" x="547.5" y="-194.8" font-family="Times,serif" font-size="14.00" fill="#bc1f29">List </text>
<text text-anchor="start" x="572.5" y="-194.8" font-family="Times,serif" font-size="14.00" fill="#0a5040">→ </text>
<text text-anchor="start" x="591.5" y="-194.8" font-family="Times,serif" font-size="14.00" fill="#bc1f29"> List</text>
<text text-anchor="start" x="616.5" y="-194.8" font-family="Times,serif" font-size="14.00" fill="#bc1f29"> OptComma</text>
<text text-anchor="start" x="685.5" y="-194.8" font-family="Times,serif" font-size="14.00" fill="#f5a70a"> •</text>
<text text-anchor="start" x="695.5" y="-194.8" font-family="Times,serif" font-size="14.00" fill="#0a5040"> id</text>
</a>
</g>
</g>
<!-- state_7 -->
<g id="state_7" class="node">
<title>state_7</title>
<path fill="#fffff0" stroke="#b8860b" stroke-width="1.5" d="M949,-236.5C949,-236.5 788,-236.5 788,-236.5 782,-236.5 776,-230.5 776,-224.5 776,-224.5 776,-191.5 776,-191.5 776,-185.5 782,-179.5 788,-179.5 788,-179.5 949,-179.5 949,-179.5 955,-179.5 961,-185.5 961,-191.5 961,-191.5 961,-224.5 961,-224.5 961,-230.5 955,-236.5 949,-236.5"/>
<path fill="none" stroke="#b8860b" stroke-width="1.5" d="M953,-240.5C953,-240.5 784,-240.5 784,-240.5 778,-240.5 772,-234.5 772,-228.5 772,-228.5 772,-187.5 772,-187.5 772,-181.5 778,-175.5 784,-175.5 784,-175.5 953,-175.5 953,-175.5 959,-175.5 965,-181.5 965,-187.5 965,-187.5 965,-228.5 965,-228.5 965,-234.5 959,-240.5 953,-240.5"/>
<g id="a_state_7_title"><a xlink:href="#" xlink:title="state_7_title">
<text text-anchor="start" x="846" y="-215.6" font-family="Calibri" font-weight="bold" font-size="13.00" fill="#8b4513">Estado </text>
<text text-anchor="start" x="885" y="-215.6" font-family="Calibri" font-weight="bold" font-size="13.00" fill="#8b4513">7</text>
</a>
</g>
<g id="a_state_7_item_1"><a xlink:href="#" xlink:title="state_7_item_1">
<text text-anchor="start" x="787.5" y="-194.8" font-family="Times,serif" font-size="14.00" fill="#bc1f29">List </text>
<text text-anchor="start" x="812.5" y="-194.8" font-family="Times,serif" font-size="14.00" fill="#0a5040">→ </text>
<text text-anchor="start" x="831.5" y="-194.8" font-family="Times,serif" font-size="14.00" fill="#bc1f29"> List</text>
<text text-anchor="start" x="856.5" y="-194.8" font-family="Times,serif" font-size="14.00" fill="#bc1f29"> OptComma</text>
<text text-anchor="start" x="925.5" y="-194.8" font-family="Times,serif" font-size="14.00" fill="#0a5040"> id</text>
<text text-anchor="start" x="940.5" y="-194.8" font-family="Times,serif" font-size="14.00" fill="#f5a70a"> •</text>
</a>
</g>
</g>
<!-- state_4&#45;&gt;state_7 -->
<g id="trans_6" class="edge">
<title>state_4&#45;&gt;state_7</title>
<path fill="none" stroke="#b8860b" stroke-width="1.5" d="M721.2903,-208C734.5345,-208 748.2455,-208 761.7308,-208"/>
<polygon fill="#b8860b" stroke="#b8860b" stroke-width="1.5" points="761.9878,-211.5001 771.9877,-208 761.9877,-204.5001 761.9878,-211.5001"/>
<text text-anchor="start" x="739" y="-211.8" font-family="Times,serif" font-size="14.00" fill="#0a5040"> id</text>
</g>
<!-- state_5 -->
<g id="state_5" class="node">
<title>state_5</title>
<path fill="#fffff0" stroke="#b8860b" stroke-width="1.5" d="M674,-157.5C674,-157.5 583,-157.5 583,-157.5 577,-157.5 571,-151.5 571,-145.5 571,-145.5 571,-112.5 571,-112.5 571,-106.5 577,-100.5 583,-100.5 583,-100.5 674,-100.5 674,-100.5 680,-100.5 686,-106.5 686,-112.5 686,-112.5 686,-145.5 686,-145.5 686,-151.5 680,-157.5 674,-157.5"/>
<path fill="none" stroke="#b8860b" stroke-width="1.5" d="M678,-161.5C678,-161.5 579,-161.5 579,-161.5 573,-161.5 567,-155.5 567,-149.5 567,-149.5 567,-108.5 567,-108.5 567,-102.5 573,-96.5 579,-96.5 579,-96.5 678,-96.5 678,-96.5 684,-96.5 690,-102.5 690,-108.5 690,-108.5 690,-149.5 690,-149.5 690,-155.5 684,-161.5 678,-161.5"/>
<g id="a_state_5_title"><a xlink:href="#" xlink:title="state_5_title">
<text text-anchor="start" x="606" y="-136.6" font-family="Calibri" font-weight="bold" font-size="13.00" fill="#8b4513">Estado </text>
<text text-anchor="start" x="645" y="-136.6" font-family="Calibri" font-weight="bold" font-size="13.00" fill="#8b4513">5</text>
</a>
</g>
<g id="a_state_5_item_1"><a xlink:href="#" xlink:title="state_5_item_1">
<text text-anchor="start" x="582.5" y="-115.8" font-family="Times,serif" font-size="14.00" fill="#bc1f29">List&#39; </text>
<text text-anchor="start" x="610.5" y="-115.8" font-family="Times,serif" font-size="14.00" fill="#0a5040">→ </text>
<text text-anchor="start" x="629.5" y="-115.8" font-family="Times,serif" font-size="14.00" fill="#bc1f29"> List</text>
<text text-anchor="start" x="654.5" y="-115.8" font-family="Times,serif" font-size="14.00" fill="#0a5040"> $</text>
<text text-anchor="start" x="665.5" y="-115.8" font-family="Times,serif" font-size="14.00" fill="#f5a70a"> •</text>
</a>
</g>
</g>
<!-- state_2&#45;&gt;state_4 -->
<g id="trans_3" class="edge">
<title>state_2&#45;&gt;state_4</title>
<path fill="none" stroke="#b8860b" stroke-width="1.5" d="M431.0551,-154.2133C461.2693,-162.444 494.9946,-171.6313 525.9017,-180.0508"/>
<polygon fill="#b8860b" stroke="#b8860b" stroke-width="1.5" points="525.2611,-183.5038 535.8295,-182.7553 527.101,-176.7499 525.2611,-183.5038"/>
<text text-anchor="start" x="449" y="-178.8" font-family="Times,serif" font-size="14.00" fill="#bc1f29"> OptComma</text>
</g>
<!-- state_2&#45;&gt;state_5 -->
<g id="trans_4" class="edge">
<title>state_2&#45;&gt;state_5</title>
<path fill="none" stroke="#b8860b" stroke-width="1.5" d="M431.0551,-129C471.6618,-129 518.6104,-129 556.5367,-129"/>
<polygon fill="#b8860b" stroke="#b8860b" stroke-width="1.5" points="556.9819,-132.5001 566.9818,-129 556.9818,-125.5001 556.9819,-132.5001"/>
<text text-anchor="start" x="478" y="-132.8" font-family="Times,serif" font-size="14.00" fill="#0a5040"> $</text>
</g>
<!-- state_6 -->
<g id="state_6" class="node">
<title>state_6</title>
<path fill="#f5f5dc" stroke="#b8860b" stroke-width="1.5" stroke-dasharray="5,2" d="M680.5,-78C680.5,-78 576.5,-78 576.5,-78 570.5,-78 564.5,-72 564.5,-66 564.5,-66 564.5,-12 564.5,-12 564.5,-6 570.5,0 576.5,0 576.5,0 680.5,0 680.5,0 686.5,0 692.5,-6 692.5,-12 692.5,-12 692.5,-66 692.5,-66 692.5,-72 686.5,-78 680.5,-78"/>
<g id="a_state_6_title"><a xlink:href="#" xlink:title="state_6_title">
<text text-anchor="start" x="605.5" y="-57.6" font-family="Calibri" font-weight="bold" font-size="13.00" fill="#8b4513">Estado </text>
<text text-anchor="start" x="644.5" y="-57.6" font-family="Calibri" font-weight="bold" font-size="13.00" fill="#8b4513">6</text>
</a>
</g>
<g id="a_state_6_item_1"><a xlink:href="#" xlink:title="state_6_item_1">
<text text-anchor="start" x="575.5" y="-36.8" font-family="Times,serif" font-size="14.00" fill="#bc1f29">List </text>
<text text-anchor="start" x="600.5" y="-36.8" font-family="Times,serif" font-size="14.00" fill="#0a5040">→ </text>
<text text-anchor="start" x="619.5" y="-36.8" font-family="Times,serif" font-size="14.00" fill="#bc1f29"> List</text>
<text text-anchor="start" x="644.5" y="-36.8" font-family="Times,serif" font-size="14.00" fill="#0a5040"> ,</text>
<text text-anchor="start" x="652.5" y="-36.8" font-family="Times,serif" font-size="14.00" fill="#f5a70a"> •</text>
</a>
</g>
<g id="a_state_6_item_2"><a xlink:href="#" xlink:title="state_6_item_2">
<text text-anchor="start" x="575.5" y="-15.8" font-family="Times,serif" font-size="14.00" fill="#bc1f29">OptComma </text>
<text text-anchor="start" x="644.5" y="-15.8" font-family="Times,serif" font-size="14.00" fill="#0a5040">→ </text>
<text text-anchor="start" x="663.5" y="-15.8" font-family="Times,serif" font-size="14.00" fill="#0a5040"> ,</text>
<text text-anchor="start" x="671.5" y="-15.8" font-family="Times,serif" font-size="14.00" fill="#f5a70a"> •</text>
</a>
</g>
</g>
<!-- state_2&#45;&gt;state_6 -->
<g id="trans_5" class="edge">
<title>state_2&#45;&gt;state_6</title>
<path fill="none" stroke="#b8860b" stroke-width="1.5" d="M431.0551,-100.276C470.9224,-87.9034 516.9027,-73.6337 554.4559,-61.9792"/>
<polygon fill="#b8860b" stroke="#b8860b" stroke-width="1.5" points="555.7979,-65.2275 564.3111,-58.9207 553.723,-58.542 555.7979,-65.2275"/>
<text text-anchor="start" x="479.5" y="-95.8" font-family="Times,serif" font-size="14.00" fill="#0a5040"> ,</text>
</g>
</g>
</svg>
