<?xml version="1.0" encoding="UTF-8" standalone="no"?>
<!DOCTYPE svg PUBLIC "-//W3C//DTD SVG 1.1//EN"
 "http://www.w3.org/Graphics/SVG/1.1/DTD/svg11.dtd">
<!-- Generated by graphviz version 2.40.1 (20161225.0304)
 -->
<!-- Title: DFA Pages: 1 -->
<svg width="557pt" height="320pt"
 viewBox="0.00 0.00 557.00 319.50" xmlns="http://www.w3.org/2000/svg" xmlns:xlink="http://www.w3.org/1999/xlink">
<g id="graph0" class="graph" transform="scale(1 1) rotate(0) translate(4 315.5)">
<title>DFA</title>
<!-- state_1 -->
<g id="state_1" class="node">
<title>state_1</title>
<path fill="#fffff0" stroke="#b8860b" stroke-width="1.5" d="M87,-223.5C87,-223.5 12,-223.5 12,-223.5 6,-223.5 0,-217.5 0,-211.5 0,-211.5 0,-94.5 0,-94.5 0,-88.5 6,-82.5 12,-82.5 12,-82.5 87,-82.5 87,-82.5 93,-82.5 99,-88.5 99,-94.5 99,-94.5 99,-211.5 99,-211.5 99,-217.5 93,-223.5 87,-223.5"/>
<g id="a_state_1_title"><a xlink:href="#" xlink:title="state_1_title">
<text text-anchor="start" x="27" y="-202.6" font-family="Calibri" font-weight="bold" font-size="13.00" fill="#8b4513">Estado </text>
<text text-anchor="start" x="66" y="-202.6" font-family="Calibri" font-weight="bold" font-size="13.00" fill="#8b4513">1</text>
</a>
</g>
<g id="a_state_1_item_1"><a xlink:href="#" xlink:title="state_1_item_1">
<text text-anchor="start" x="11.5" y="-181.8" font-family="Times,serif" font-size="14.00" fill="#bc1f29">A&#39; </text>
<text text-anchor="start" x="27.5" y="-181.8" font-family="Times,serif" font-size="14.00" fill="#0a5040">→ </text>
<text text-anchor="start" x="46.5" y="-181.8" font-family="Times,serif" font-size="14.00" fill="#f5a70a"> •</text>
<text text-anchor="start" x="56.5" y="-181.8" font-family="Times,serif" font-size="14.00" fill="#bc1f29"> A</text>
<text text-anchor="start" x="70.5" y="-181.8" font-family="Times,serif" font-size="14.00" fill="#0a5040"> $</text>
</a>
</g>
<g id="a_state_1_item_2"><a xlink:href="#" xlink:title="state_1_item_2">
<text text-anchor="start" x="11.5" y="-160.8" font-family="Times,serif" font-size="14.00" fill="#bc1f29">A </text>
<text text-anchor="start" x="25.5" y="-160.8" font-family="Times,serif" font-size="14.00" fill="#0a5040">→ </text>
<text text-anchor="start" x="44.5" y="-160.8" font-family="Times,serif" font-size="14.00" fill="#f5a70a"> •</text>
<text text-anchor="start" x="54.5" y="-160.8" font-family="Times,serif" font-size="14.00" fill="#bc1f29"> B</text>
<text text-anchor="start" x="67.5" y="-160.8" font-family="Times,serif" font-size="14.00" fill="#0a5040"> c</text>
<text text-anchor="start" x="77.5" y="-160.8" font-family="Times,serif" font-size="14.00" fill="#0a5040"> d</text>
</a>
</g>
<g id="a_state_1_item_3"><a xlink:href="#" xlink:title="state_1_item_3">
<text text-anchor="start" x="11.5" y="-139.8" font-family="Times,serif" font-size="14.00" fill="#bc1f29">A </text>
<text text-anchor="start" x="25.5" y="-139.8" font-family="Times,serif" font-size="14.00" fill="#0a5040">→ </text>
<text text-anchor="start" x="44.5" y="-139.8" font-family="Times,serif" font-size="14.00" fill="#f5a70a"> •</text>
<text text-anchor="start" x="54.5" y="-139.8" font-family="Times,serif" font-size="14.00" fill="#bc1f29"> E</text>
<text text-anchor="start" x="67.5" y="-139.8" font-family="Times,serif" font-size="14.00" fill="#0a5040"> c</text>
<text text-anchor="start" x="77.5" y="-139.8" font-family="Times,serif" font-size="14.00" fill="#0a5040"> f</text>
</a>
</g>
<g id="a_state_1_item_4"><a xlink:href="#" xlink:title="state_1_item_4">
<text text-anchor="start" x="11.5" y="-118.8" font-family="Times,serif" font-size="14.00" fill="#bc1f29">B </text>
<text text-anchor="start" x="24.5" y="-118.8" font-family="Times,serif" font-size="14.00" fill="#0a5040">→ </text>
<text text-anchor="start" x="43.5" y="-118.8" font-family="Times,serif" font-size="14.00" fill="#f5a70a"> •</text>
<text text-anchor="start" x="53.5" y="-118.8" font-family="Times,serif" font-size="14.00" fill="#0a5040"> x</text>
<text text-anchor="start" x="64.5" y="-118.8" font-family="Times,serif" font-size="14.00" fill="#0a5040"> y</text>
</a>
</g>
<g id="a_state_1_item_5"><a xlink:href="#" xlink:title="state_1_item_5">
<text text-anchor="start" x="11.5" y="-97.8" font-family="Times,serif" font-size="14.00" fill="#bc1f29">E </text>
<text text-anchor="start" x="24.5" y="-97.8" font-family="Times,serif" font-size="14.00" fill="#0a5040">→ </text>
<text text-anchor="start" x="43.5" y="-97.8" font-family="Times,serif" font-size="14.00" fill="#f5a70a"> •</text>
<text text-anchor="start" x="53.5" y="-97.8" font-family="Times,serif" font-size="14.00" fill="#0a5040"> x</text>
<text text-anchor="start" x="64.5" y="-97.8" font-family="Times,serif" font-size="14.00" fill="#0a5040"> y</text>
</a>
</g>
</g>
<!-- state_2 -->
<g id="state_2" class="node">
<title>state_2</title>
<path fill="#fffff0" stroke="#b8860b" stroke-width="1.5" d="M232.5,-305.5C232.5,-305.5 164.5,-305.5 164.5,-305.5 158.5,-305.5 152.5,-299.5 152.5,-293.5 152.5,-293.5 152.5,-260.5 152.5,-260.5 152.5,-254.5 158.5,-248.5 164.5,-248.5 164.5,-248.5 232.5,-248.5 232.5,-248.5 238.5,-248.5 244.5,-254.5 244.5,-260.5 244.5,-260.5 244.5,-293.5 244.5,-293.5 244.5,-299.5 238.5,-305.5 232.5,-305.5"/>
<g id="a_state_2_title"><a xlink:href="#" xlink:title="state_2_title">
<text text-anchor="start" x="175.5" y="-284.6" font-family="Calibri" font-weight="bold" font-size="13.00" fill="#8b4513">Estado </text>
<text text-anchor="start" x="214.5" y="-284.6" font-family="Calibri" font-weight="bold" font-size="13.00" fill="#8b4513">2</text>
</a>
</g>
<g id="a_state_2_item_1"><a xlink:href="#" xlink:title="state_2_item_1">
<text text-anchor="start" x="163.5" y="-263.8" font-family="Times,serif" font-size="14.00" fill="#bc1f29">A&#39; </text>
<text text-anchor="start" x="179.5" y="-263.8" font-family="Times,serif" font-size="14.00" fill="#0a5040">→ </text>
<text text-anchor="start" x="198.5" y="-263.8" font-family="Times,serif" font-size="14.00" fill="#bc1f29"> A</text>
<text text-anchor="start" x="212.5" y="-263.8" font-family="Times,serif" font-size="14.00" fill="#f5a70a"> •</text>
<text text-anchor="start" x="222.5" y="-263.8" font-family="Times,serif" font-size="14.00" fill="#0a5040"> $</text>
</a>
</g>
</g>
<!-- state_1&#45;&gt;state_2 -->
<g id="trans_1" class="edge">
<title>state_1&#45;&gt;state_2</title>
<path fill="none" stroke="#b8860b" stroke-width="1.5" d="M99.0262,-195.9785C114.879,-209.5547 132.5781,-224.5253 149,-238 150.5541,-239.2752 152.1402,-240.5683 153.7455,-241.8701"/>
<polygon fill="#b8860b" stroke="#b8860b" stroke-width="1.5" points="151.8895,-244.8689 161.8752,-248.4096 156.277,-239.4145 151.8895,-244.8689"/>
<text text-anchor="start" x="117" y="-225.8" font-family="Times,serif" font-size="14.00" fill="#bc1f29"> A</text>
</g>
<!-- state_3 -->
<g id="state_3" class="node">
<title>state_3</title>
<path fill="#fffff0" stroke="#b8860b" stroke-width="1.5" d="M236,-228.5C236,-228.5 161,-228.5 161,-228.5 155,-228.5 149,-222.5 149,-216.5 149,-216.5 149,-183.5 149,-183.5 149,-177.5 155,-171.5 161,-171.5 161,-171.5 236,-171.5 236,-171.5 242,-171.5 248,-177.5 248,-183.5 248,-183.5 248,-216.5 248,-216.5 248,-222.5 242,-228.5 236,-228.5"/>
<g id="a_state_3_title"><a xlink:href="#" xlink:title="state_3_title">
<text text-anchor="start" x="176" y="-207.6" font-family="Calibri" font-weight="bold" font-size="13.00" fill="#8b4513">Estado </text>
<text text-anchor="start" x="215" y="-207.6" font-family="Calibri" font-weight="bold" font-size="13.00" fill="#8b4513">3</text>
</a>
</g>
<g id="a_state_3_item_1"><a xlink:href="#" xlink:title="state_3_item_1">
<text text-anchor="start" x="160.5" y="-186.8" font-family="Times,serif" font-size="14.00" fill="#bc1f29">A </text>
<text text-anchor="start" x="174.5" y="-186.8" font-family="Times,serif" font-size="14.00" fill="#0a5040">→ </text>
<text text-anchor="start" x="193.5" y="-186.8" font-family="Times,serif" font-size="14.00" fill="#bc1f29"> B</text>
<text text-anchor="start" x="206.5" y="-186.8" font-family="Times,serif" font-size="14.00" fill="#f5a70a"> •</text>
<text text-anchor="start" x="216.5" y="-186.8" font-family="Times,serif" font-size="14.00" fill="#0a5040"> c</text>
<text text-anchor="start" x="226.5" y="-186.8" font-family="Times,serif" font-size="14.00" fill="#0a5040"> d</text>
</a>
</g>
</g>
<!-- state_1&#45;&gt;state_3 -->
<g id="trans_2" class="edge">
<title>state_1&#45;&gt;state_3</title>
<path fill="none" stroke="#b8860b" stroke-width="1.5" d="M99.1148,-168.6503C111.9899,-172.7116 125.9853,-177.1262 139.2994,-181.326"/>
<polygon fill="#b8860b" stroke="#b8860b" stroke-width="1.5" points="138.2582,-184.6675 148.8479,-184.3379 140.3641,-177.9917 138.2582,-184.6675"/>
<text text-anchor="start" x="117.5" y="-180.8" font-family="Times,serif" font-size="14.00" fill="#bc1f29"> B</text>
</g>
<!-- state_4 -->
<g id="state_4" class="node">
<title>state_4</title>
<path fill="#fffff0" stroke="#b8860b" stroke-width="1.5" d="M235,-153.5C235,-153.5 162,-153.5 162,-153.5 156,-153.5 150,-147.5 150,-141.5 150,-141.5 150,-108.5 150,-108.5 150,-102.5 156,-96.5 162,-96.5 162,-96.5 235,-96.5 235,-96.5 241,-96.5 247,-102.5 247,-108.5 247,-108.5 247,-141.5 247,-141.5 247,-147.5 241,-153.5 235,-153.5"/>
<g id="a_state_4_title"><a xlink:href="#" xlink:title="state_4_title">
<text text-anchor="start" x="176" y="-132.6" font-family="Calibri" font-weight="bold" font-size="13.00" fill="#8b4513">Estado </text>
<text text-anchor="start" x="215" y="-132.6" font-family="Calibri" font-weight="bold" font-size="13.00" fill="#8b4513">4</text>
</a>
</g>
<g id="a_state_4_item_1"><a xlink:href="#" xlink:title="state_4_item_1">
<text text-anchor="start" x="161.5" y="-111.8" font-family="Times,serif" font-size="14.00" fill="#bc1f29">A </text>
<text text-anchor="start" x="175.5" y="-111.8" font-family="Times,serif" font-size="14.00" fill="#0a5040">→ </text>
<text text-anchor="start" x="194.5" y="-111.8" font-family="Times,serif" font-size="14.00" fill="#bc1f29"> E</text>
<text text-anchor="start" x="207.5" y="-111.8" font-family="Times,serif" font-size="14.00" fill="#f5a70a"> •</text>
<text text-anchor="start" x="217.5" y="-111.8" font-family="Times,serif" font-size="14.00" fill="#0a5040"> c</text>
<text text-anchor="start" x="227.5" y="-111.8" font-family="Times,serif" font-size="14.00" fill="#0a5040"> f</text>
</a>
</g>
</g>
<!-- state_1&#45;&gt;state_4 -->
<g id="trans_3" class="edge">
<title>state_1&#45;&gt;state_4</title>
<path fill="none" stroke="#b8860b" stroke-width="1.5" d="M99.1148,-143.6764C112.1348,-141.2297 126.3003,-138.5677 139.7485,-136.0406"/>
<polygon fill="#b8860b" stroke="#b8860b" stroke-width="1.5" points="140.6801,-139.4268 149.8616,-134.1401 139.3872,-132.5472 140.6801,-139.4268"/>
<text text-anchor="start" x="117.5" y="-142.8" font-family="Times,serif" font-size="14.00" fill="#bc1f29"> E</text>
</g>
<!-- state_5 -->
<g id="state_5" class="node">
<title>state_5</title>
<path fill="#fffff0" stroke="#b8860b" stroke-width="1.5" d="M229.5,-78C229.5,-78 167.5,-78 167.5,-78 161.5,-78 155.5,-72 155.5,-66 155.5,-66 155.5,-12 155.5,-12 155.5,-6 161.5,0 167.5,0 167.5,0 229.5,0 229.5,0 235.5,0 241.5,-6 241.5,-12 241.5,-12 241.5,-66 241.5,-66 241.5,-72 235.5,-78 229.5,-78"/>
<g id="a_state_5_title"><a xlink:href="#" xlink:title="state_5_title">
<text text-anchor="start" x="175.5" y="-57.6" font-family="Calibri" font-weight="bold" font-size="13.00" fill="#8b4513">Estado </text>
<text text-anchor="start" x="214.5" y="-57.6" font-family="Calibri" font-weight="bold" font-size="13.00" fill="#8b4513">5</text>
</a>
</g>
<g id="a_state_5_item_1"><a xlink:href="#" xlink:title="state_5_item_1">
<text text-anchor="start" x="166.5" y="-36.8" font-family="Times,serif" font-size="14.00" fill="#bc1f29">B </text>
<text text-anchor="start" x="179.5" y="-36.8" font-family="Times,serif" font-size="14.00" fill="#0a5040">→ </text>
<text text-anchor="start" x="198.5" y="-36.8" font-family="Times,serif" font-size="14.00" fill="#0a5040"> x</text>
<text text-anchor="start" x="209.5" y="-36.8" font-family="Times,serif" font-size="14.00" fill="#f5a70a"> •</text>
<text text-anchor="start" x="219.5" y="-36.8" font-family="Times,serif" font-size="14.00" fill="#0a5040"> y</text>
</a>
</g>
<g id="a_state_5_item_2"><a xlink:href="#" xlink:title="state_5_item_2">
<text text-anchor="start" x="166.5" y="-15.8" font-family="Times,serif" font-size="14.00" fill="#bc1f29">E </text>
<text text-anchor="start" x="179.5" y="-15.8" font-family="Times,serif" font-size="14.00" fill="#0a5040">→ </text>
<text text-anchor="start" x="198.5" y="-15.8" font-family="Times,serif" font-size="14.00" fill="#0a5040"> x</text>
<text text-anchor="start" x="209.5" y="-15.8" font-family="Times,serif" font-size="14.00" fill="#f5a70a"> •</text>
<text text-anchor="start" x="219.5" y="-15.8" font-family="Times,serif" font-size="14.00" fill="#0a5040"> y</text>
</a>
</g>
</g>
<!-- state_1&#45;&gt;state_5 -->
<g id="trans_4" class="edge">
<title>state_1&#45;&gt;state_5</title>
<path fill="none" stroke="#b8860b" stroke-width="1.5" d="M99.1148,-115.0397C114.5422,-103.2362 131.578,-90.2021 147.1229,-78.3086"/>
<polygon fill="#b8860b" stroke="#b8860b" stroke-width="1.5" points="149.2843,-81.0619 155.0996,-72.2057 145.0307,-75.5025 149.2843,-81.0619"/>
<text text-anchor="start" x="118.5" y="-103.8" font-family="Times,serif" font-size="14.00" fill="#0a5040"> x</text>
</g>
<!-- state_6 -->
<g id="state_6" class="node">
<title>state_6</title>
<path fill="#fffff0" stroke="#b8860b" stroke-width="1.5" d="M379,-307.5C379,-307.5 311,-307.5 311,-307.5 305,-307.5 299,-301.5 299,-295.5 299,-295.5 299,-262.5 299,-262.5 299,-256.5 305,-250.5 311,-250.5 311,-250.5 379,-250.5 379,-250.5 385,-250.5 391,-256.5 391,-262.5 391,-262.5 391,-295.5 391,-295.5 391,-301.5 385,-307.5 379,-307.5"/>
<path fill="none" stroke="#b8860b" stroke-width="1.5" d="M383,-311.5C383,-311.5 307,-311.5 307,-311.5 301,-311.5 295,-305.5 295,-299.5 295,-299.5 295,-258.5 295,-258.5 295,-252.5 301,-246.5 307,-246.5 307,-246.5 383,-246.5 383,-246.5 389,-246.5 395,-252.5 395,-258.5 395,-258.5 395,-299.5 395,-299.5 395,-305.5 389,-311.5 383,-311.5"/>
<g id="a_state_6_title"><a xlink:href="#" xlink:title="state_6_title">
<text text-anchor="start" x="322" y="-286.6" font-family="Calibri" font-weight="bold" font-size="13.00" fill="#8b4513">Estado </text>
<text text-anchor="start" x="361" y="-286.6" font-family="Calibri" font-weight="bold" font-size="13.00" fill="#8b4513">6</text>
</a>
</g>
<g id="a_state_6_item_1"><a xlink:href="#" xlink:title="state_6_item_1">
<text text-anchor="start" x="310" y="-265.8" font-family="Times,serif" font-size="14.00" fill="#bc1f29">A&#39; </text>
<text text-anchor="start" x="326" y="-265.8" font-family="Times,serif" font-size="14.00" fill="#0a5040">→ </text>
<text text-anchor="start" x="345" y="-265.8" font-family="Times,serif" font-size="14.00" fill="#bc1f29"> A</text>
<text text-anchor="start" x="359" y="-265.8" font-family="Times,serif" font-size="14.00" fill="#0a5040"> $</text>
<text text-anchor="start" x="370" y="-265.8" font-family="Times,serif" font-size="14.00" fill="#f5a70a"> •</text>
</a>
</g>
</g>
<!-- state_2&#45;&gt;state_6 -->
<g id="trans_5" class="edge">
<title>state_2&#45;&gt;state_6</title>
<path fill="none" stroke="#b8860b" stroke-width="1.5" d="M244.8535,-277.6328C257.5456,-277.8061 271.4888,-277.9964 284.8332,-278.1786"/>
<polygon fill="#b8860b" stroke="#b8860b" stroke-width="1.5" points="284.8435,-281.679 294.8904,-278.3159 284.9391,-274.6796 284.8435,-281.679"/>
<text text-anchor="start" x="266" y="-281.8" font-family="Times,serif" font-size="14.00" fill="#0a5040"> $</text>
</g>
<!-- state_7 -->
<g id="state_7" class="node">
<title>state_7</title>
<path fill="#fffff0" stroke="#b8860b" stroke-width="1.5" d="M382.5,-228.5C382.5,-228.5 307.5,-228.5 307.5,-228.5 301.5,-228.5 295.5,-222.5 295.5,-216.5 295.5,-216.5 295.5,-183.5 295.5,-183.5 295.5,-177.5 301.5,-171.5 307.5,-171.5 307.5,-171.5 382.5,-171.5 382.5,-171.5 388.5,-171.5 394.5,-177.5 394.5,-183.5 394.5,-183.5 394.5,-216.5 394.5,-216.5 394.5,-222.5 388.5,-228.5 382.5,-228.5"/>
<g id="a_state_7_title"><a xlink:href="#" xlink:title="state_7_title">
<text text-anchor="start" x="322.5" y="-207.6" font-family="Calibri" font-weight="bold" font-size="13.00" fill="#8b4513">Estado </text>
<text text-anchor="start" x="361.5" y="-207.6" font-family="Calibri" font-weight="bold" font-size="13.00" fill="#8b4513">7</text>
</a>
</g>
<g id="a_state_7_item_1"><a xlink:href="#" xlink:title="state_7_item_1">
<text text-anchor="start" x="307" y="-186.8" font-family="Times,serif" font-size="14.00" fill="#bc1f29">A </text>
<text text-anchor="start" x="321" y="-186.8" font-family="Times,serif" font-size="14.00" fill="#0a5040">→ </text>
<text text-anchor="start" x="340" y="-186.8" font-family="Times,serif" font-size="14.00" fill="#bc1f29"> B</text>
<text text-anchor="start" x="353" y="-186.8" font-family="Times,serif" font-size="14.00" fill="#0a5040"> c</text>
<text text-anchor="start" x="363" y="-186.8" font-family="Times,serif" font-size="14.00" fill="#f5a70a"> •</text>
<text text-anchor="start" x="373" y="-186.8" font-family="Times,serif" font-size="14.00" fill="#0a5040"> d</text>
</a>
</g>
</g>
<!-- state_3&#45;&gt;state_7 -->
<g id="trans_6" class="edge">
<title>state_3&#45;&gt;state_7</title>
<path fill="none" stroke="#b8860b" stroke-width="1.5" d="M248.0982,-200C260.0308,-200 272.9015,-200 285.2428,-200"/>
<polygon fill="#b8860b" stroke="#b8860b" stroke-width="1.5" points="285.4529,-203.5001 295.4529,-200 285.4528,-196.5001 285.4529,-203.5001"/>
<text text-anchor="start" x="266.5" y="-203.8" font-family="Times,serif" font-size="14.00" fill="#0a5040"> c</text>
</g>
<!-- state_8 -->
<g id="state_8" class="node">
<title>state_8</title>
<path fill="#fffff0" stroke="#b8860b" stroke-width="1.5" d="M381.5,-153.5C381.5,-153.5 308.5,-153.5 308.5,-153.5 302.5,-153.5 296.5,-147.5 296.5,-141.5 296.5,-141.5 296.5,-108.5 296.5,-108.5 296.5,-102.5 302.5,-96.5 308.5,-96.5 308.5,-96.5 381.5,-96.5 381.5,-96.5 387.5,-96.5 393.5,-102.5 393.5,-108.5 393.5,-108.5 393.5,-141.5 393.5,-141.5 393.5,-147.5 387.5,-153.5 381.5,-153.5"/>
<g id="a_state_8_title"><a xlink:href="#" xlink:title="state_8_title">
<text text-anchor="start" x="322.5" y="-132.6" font-family="Calibri" font-weight="bold" font-size="13.00" fill="#8b4513">Estado </text>
<text text-anchor="start" x="361.5" y="-132.6" font-family="Calibri" font-weight="bold" font-size="13.00" fill="#8b4513">8</text>
</a>
</g>
<g id="a_state_8_item_1"><a xlink:href="#" xlink:title="state_8_item_1">
<text text-anchor="start" x="308" y="-111.8" font-family="Times,serif" font-size="14.00" fill="#bc1f29">A </text>
<text text-anchor="start" x="322" y="-111.8" font-family="Times,serif" font-size="14.00" fill="#0a5040">→ </text>
<text text-anchor="start" x="341" y="-111.8" font-family="Times,serif" font-size="14.00" fill="#bc1f29"> E</text>
<text text-anchor="start" x="354" y="-111.8" font-family="Times,serif" font-size="14.00" fill="#0a5040"> c</text>
<text text-anchor="start" x="364" y="-111.8" font-family="Times,serif" font-size="14.00" fill="#f5a70a"> •</text>
<text text-anchor="start" x="374" y="-111.8" font-family="Times,serif" font-size="14.00" fill="#0a5040"> f</text>
</a>
</g>
</g>
<!-- state_4&#45;&gt;state_8 -->
<g id="trans_7" class="edge">
<title>state_4&#45;&gt;state_8</title>
<path fill="none" stroke="#b8860b" stroke-width="1.5" d="M247.2824,-125C259.7613,-125 273.3106,-125 286.2335,-125"/>
<polygon fill="#b8860b" stroke="#b8860b" stroke-width="1.5" points="286.4307,-128.5001 296.4306,-125 286.4306,-121.5001 286.4307,-128.5001"/>
<text text-anchor="start" x="266.5" y="-128.8" font-family="Times,serif" font-size="14.00" fill="#0a5040"> c</text>
</g>
<!-- state_9 -->
<g id="state_9" class="node">
<title>state_9</title>
<path fill="#f5f5dc" stroke="#b8860b" stroke-width="1.5" stroke-dasharray="5,2" d="M376,-78C376,-78 314,-78 314,-78 308,-78 302,-72 302,-66 302,-66 302,-12 302,-12 302,-6 308,0 314,0 314,0 376,0 376,0 382,0 388,-6 388,-12 388,-12 388,-66 388,-66 388,-72 382,-78 376,-78"/>
<g id="a_state_9_title"><a xlink:href="#" xlink:title="state_9_title">
<text text-anchor="start" x="322" y="-57.6" font-family="Calibri" font-weight="bold" font-size="13.00" fill="#8b4513">Estado </text>
<text text-anchor="start" x="361" y="-57.6" font-family="Calibri" font-weight="bold" font-size="13.00" fill="#8b4513">9</text>
</a>
</g>
<g id="a_state_9_item_1"><a xlink:href="#" xlink:title="state_9_item_1">
<text text-anchor="start" x="313" y="-36.8" font-family="Times,serif" font-size="14.00" fill="#bc1f29">B </text>
<text text-anchor="start" x="326" y="-36.8" font-family="Times,serif" font-size="14.00" fill="#0a5040">→ </text>
<text text-anchor="start" x="345" y="-36.8" font-family="Times,serif" font-size="14.00" fill="#0a5040"> x</text>
<text text-anchor="start" x="356" y="-36.8" font-family="Times,serif" font-size="14.00" fill="#0a5040"> y</text>
<text text-anchor="start" x="367" y="-36.8" font-family="Times,serif" font-size="14.00" fill="#f5a70a"> •</text>
</a>
</g>
<g id="a_state_9_item_2"><a xlink:href="#" xlink:title="state_9_item_2">
<text text-anchor="start" x="313" y="-15.8" font-family="Times,serif" font-size="14.00" fill="#bc1f29">E </text>
<text text-anchor="start" x="326" y="-15.8" font-family="Times,serif" font-size="14.00" fill="#0a5040">→ </text>
<text text-anchor="start" x="345" y="-15.8" font-family="Times,serif" font-size="14.00" fill="#0a5040"> x</text>
<text text-anchor="start" x="356" y="-15.8" font-family="Times,serif" font-size="14.00" fill="#0a5040"> y</text>
<text text-anchor="start" x="367" y="-15.8" font-family="Times,serif" font-size="14.00" fill="#f5a70a"> •</text>
</a>
</g>
</g>
<!-- state_5&#45;&gt;state_9 -->
<g id="trans_8" class="edge">
<title>state_5&#45;&gt;state_9</title>
<path fill="none" stroke="#b8860b" stroke-width="1.5" d="M241.6625,-39C257.389,-39 275.355,-39 291.8477,-39"/>
<polygon fill="#b8860b" stroke="#b8860b" stroke-width="1.5" points="291.8931,-42.5001 301.8931,-39 291.8931,-35.5001 291.8931,-42.5001"/>
<text text-anchor="start" x="266" y="-42.8" font-family="Times,serif" font-size="14.00" fill="#0a5040"> y</text>
</g>
<!-- state_10 -->
<g id="state_10" class="node">
<title>state_10</title>
<path fill="#fffff0" stroke="#b8860b" stroke-width="1.5" d="M533,-232.5C533,-232.5 458,-232.5 458,-232.5 452,-232.5 446,-226.5 446,-220.5 446,-220.5 446,-187.5 446,-187.5 446,-181.5 452,-175.5 458,-175.5 458,-175.5 533,-175.5 533,-175.5 539,-175.5 545,-181.5 545,-187.5 545,-187.5 545,-220.5 545,-220.5 545,-226.5 539,-232.5 533,-232.5"/>
<path fill="none" stroke="#b8860b" stroke-width="1.5" d="M537,-236.5C537,-236.5 454,-236.5 454,-236.5 448,-236.5 442,-230.5 442,-224.5 442,-224.5 442,-183.5 442,-183.5 442,-177.5 448,-171.5 454,-171.5 454,-171.5 537,-171.5 537,-171.5 543,-171.5 549,-177.5 549,-183.5 549,-183.5 549,-224.5 549,-224.5 549,-230.5 543,-236.5 537,-236.5"/>
<g id="a_state_10_title"><a xlink:href="#" xlink:title="state_10_title">
<text text-anchor="start" x="469.5" y="-211.6" font-family="Calibri" font-weight="bold" font-size="13.00" fill="#8b4513">Estado </text>
<text text-anchor="start" x="508.5" y="-211.6" font-family="Calibri" font-weight="bold" font-size="13.00" fill="#8b4513">10</text>
</a>
</g>
<g id="a_state_10_item_1"><a xlink:href="#" xlink:title="state_10_item_1">
<text text-anchor="start" x="457.5" y="-190.8" font-family="Times,serif" font-size="14.00" fill="#bc1f29">A </text>
<text text-anchor="start" x="471.5" y="-190.8" font-family="Times,serif" font-size="14.00" fill="#0a5040">→ </text>
<text text-anchor="start" x="490.5" y="-190.8" font-family="Times,serif" font-size="14.00" fill="#bc1f29"> B</text>
<text text-anchor="start" x="503.5" y="-190.8" font-family="Times,serif" font-size="14.00" fill="#0a5040"> c</text>
<text text-anchor="start" x="513.5" y="-190.8" font-family="Times,serif" font-size="14.00" fill="#0a5040"> d</text>
<text text-anchor="start" x="524.5" y="-190.8" font-family="Times,serif" font-size="14.00" fill="#f5a70a"> •</text>
</a>
</g>
</g>
<!-- state_7&#45;&gt;state_10 -->
<g id="trans_9" class="edge">
<title>state_7&#45;&gt;state_10</title>
<path fill="none" stroke="#b8860b" stroke-width="1.5" d="M394.6964,-201.3208C406.536,-201.6355 419.3333,-201.9756 431.7073,-202.3045"/>
<polygon fill="#b8860b" stroke="#b8860b" stroke-width="1.5" points="431.8822,-205.8103 441.9717,-202.5773 432.0682,-198.8128 431.8822,-205.8103"/>
<text text-anchor="start" x="413" y="-205.8" font-family="Times,serif" font-size="14.00" fill="#0a5040"> d</text>
</g>
<!-- state_11 -->
<g id="state_11" class="node">
<title>state_11</title>
<path fill="#fffff0" stroke="#b8860b" stroke-width="1.5" d="M532,-149.5C532,-149.5 459,-149.5 459,-149.5 453,-149.5 447,-143.5 447,-137.5 447,-137.5 447,-104.5 447,-104.5 447,-98.5 453,-92.5 459,-92.5 459,-92.5 532,-92.5 532,-92.5 538,-92.5 544,-98.5 544,-104.5 544,-104.5 544,-137.5 544,-137.5 544,-143.5 538,-149.5 532,-149.5"/>
<path fill="none" stroke="#b8860b" stroke-width="1.5" d="M536,-153.5C536,-153.5 455,-153.5 455,-153.5 449,-153.5 443,-147.5 443,-141.5 443,-141.5 443,-100.5 443,-100.5 443,-94.5 449,-88.5 455,-88.5 455,-88.5 536,-88.5 536,-88.5 542,-88.5 548,-94.5 548,-100.5 548,-100.5 548,-141.5 548,-141.5 548,-147.5 542,-153.5 536,-153.5"/>
<g id="a_state_11_title"><a xlink:href="#" xlink:title="state_11_title">
<text text-anchor="start" x="469.5" y="-128.6" font-family="Calibri" font-weight="bold" font-size="13.00" fill="#8b4513">Estado </text>
<text text-anchor="start" x="508.5" y="-128.6" font-family="Calibri" font-weight="bold" font-size="13.00" fill="#8b4513">11</text>
</a>
</g>
<g id="a_state_11_item_1"><a xlink:href="#" xlink:title="state_11_item_1">
<text text-anchor="start" x="458.5" y="-107.8" font-family="Times,serif" font-size="14.00" fill="#bc1f29">A </text>
<text text-anchor="start" x="472.5" y="-107.8" font-family="Times,serif" font-size="14.00" fill="#0a5040">→ </text>
<text text-anchor="start" x="491.5" y="-107.8" font-family="Times,serif" font-size="14.00" fill="#bc1f29"> E</text>
<text text-anchor="start" x="504.5" y="-107.8" font-family="Times,serif" font-size="14.00" fill="#0a5040"> c</text>
<text text-anchor="start" x="514.5" y="-107.8" font-family="Times,serif" font-size="14.00" fill="#0a5040"> f</text>
<text text-anchor="start" x="523.5" y="-107.8" font-family="Times,serif" font-size="14.00" fill="#f5a70a"> •</text>
</a>
</g>
</g>
<!-- state_8&#45;&gt;state_11 -->
<g id="trans_10" class="edge">
<title>state_8&#45;&gt;state_11</title>
<path fill="none" stroke="#b8860b" stroke-width="1.5" d="M393.863,-123.7013C406.2568,-123.3719 419.7439,-123.0135 432.722,-122.6685"/>
<polygon fill="#b8860b" stroke="#b8860b" stroke-width="1.5" points="433.0869,-126.1602 442.9903,-122.3956 432.9009,-119.1626 433.0869,-126.1602"/>
<text text-anchor="start" x="414" y="-127.8" font-family="Times,serif" font-size="14.00" fill="#0a5040"> f</text>
</g>
</g>
</svg>
