<?xml version="1.0" encoding="UTF-8" standalone="no"?>
<!DOCTYPE svg PUBLIC "-//W3C//DTD SVG 1.1//EN"
 "http://www.w3.org/Graphics/SVG/1.1/DTD/svg11.dtd">
<!-- Generated by graphviz version 2.40.1 (20161225.0304)
 -->
<!-- Title: NFA Pages: 1 -->
<svg width="1719pt" height="468pt"
 viewBox="0.00 0.00 1719.00 467.50" xmlns="http://www.w3.org/2000/svg" xmlns:xlink="http://www.w3.org/1999/xlink">
<g id="graph0" class="graph" transform="scale(1 1) rotate(0) translate(4 463.5)">
<title>NFA</title>
<!-- state_10003 -->
<g id="state_10003" class="node">
<title>state_10003</title>
<path fill="#fffff0" stroke="#b8860b" stroke-width="1.5" d="M1475.5,-371C1475.5,-371 1394.5,-371 1394.5,-371 1388.5,-371 1382.5,-365 1382.5,-359 1382.5,-359 1382.5,-332 1382.5,-332 1382.5,-326 1388.5,-320 1394.5,-320 1394.5,-320 1475.5,-320 1475.5,-320 1481.5,-320 1487.5,-326 1487.5,-332 1487.5,-332 1487.5,-359 1487.5,-359 1487.5,-365 1481.5,-371 1475.5,-371"/>
<g id="a_state_10003_title"><a xlink:href="#" xlink:title="state_10003_title">
<text text-anchor="start" x="1412.5" y="-353.1" font-family="Calibri" font-weight="bold" font-size="13.00" fill="#8b4513">Estado </text>
<text text-anchor="start" x="1451.5" y="-353.1" font-family="Calibri" font-weight="bold" font-size="13.00" fill="#8b4513">3</text>
</a>
</g>
<g id="a_state_10003_item_1"><a xlink:href="#" xlink:title="state_10003_item_1">
<text text-anchor="start" x="1391" y="-332.3" font-family="Times,serif" font-size="14.00" fill="#bc1f29">stmt </text>
<text text-anchor="start" x="1419" y="-332.3" font-family="Times,serif" font-size="14.00" fill="#0a5040">→ </text>
<text text-anchor="start" x="1438" y="-332.3" font-family="Times,serif" font-size="14.00" fill="#f5a70a"> •</text>
<text text-anchor="start" x="1448" y="-332.3" font-family="Times,serif" font-size="14.00" fill="#0a5040"> other</text>
</a>
</g>
</g>
<!-- state_10008 -->
<g id="state_10008" class="node">
<title>state_10008</title>
<path fill="#f5f5dc" stroke="#b8860b" stroke-width="1.5" d="M1695,-371C1695,-371 1614,-371 1614,-371 1608,-371 1602,-365 1602,-359 1602,-359 1602,-332 1602,-332 1602,-326 1608,-320 1614,-320 1614,-320 1695,-320 1695,-320 1701,-320 1707,-326 1707,-332 1707,-332 1707,-359 1707,-359 1707,-365 1701,-371 1695,-371"/>
<path fill="none" stroke="#b8860b" stroke-width="1.5" d="M1699,-375C1699,-375 1610,-375 1610,-375 1604,-375 1598,-369 1598,-363 1598,-363 1598,-328 1598,-328 1598,-322 1604,-316 1610,-316 1610,-316 1699,-316 1699,-316 1705,-316 1711,-322 1711,-328 1711,-328 1711,-363 1711,-363 1711,-369 1705,-375 1699,-375"/>
<g id="a_state_10008_title"><a xlink:href="#" xlink:title="state_10008_title">
<text text-anchor="start" x="1632" y="-353.1" font-family="Calibri" font-weight="bold" font-size="13.00" fill="#8b4513">Estado </text>
<text text-anchor="start" x="1671" y="-353.1" font-family="Calibri" font-weight="bold" font-size="13.00" fill="#8b4513">8</text>
</a>
</g>
<g id="a_state_10008_item_1"><a xlink:href="#" xlink:title="state_10008_item_1">
<text text-anchor="start" x="1610.5" y="-332.3" font-family="Times,serif" font-size="14.00" fill="#bc1f29">stmt </text>
<text text-anchor="start" x="1638.5" y="-332.3" font-family="Times,serif" font-size="14.00" fill="#0a5040">→ </text>
<text text-anchor="start" x="1657.5" y="-332.3" font-family="Times,serif" font-size="14.00" fill="#0a5040"> other</text>
<text text-anchor="start" x="1689.5" y="-332.3" font-family="Times,serif" font-size="14.00" fill="#f5a70a"> •</text>
</a>
</g>
</g>
<!-- state_10003&#45;&gt;state_10008 -->
<g id="trans_7" class="edge">
<title>state_10003&#45;&gt;state_10008</title>
<path fill="none" stroke="#b8860b" stroke-width="1.5" d="M1487.5757,-345.5C1517.5602,-345.5 1555.4441,-345.5 1587.5394,-345.5"/>
<polygon fill="#b8860b" stroke="#b8860b" stroke-width="1.5" points="1587.7392,-349.0001 1597.7392,-345.5 1587.7391,-342.0001 1587.7392,-349.0001"/>
<text text-anchor="start" x="1548" y="-349.3" font-family="Times,serif" font-size="14.00" fill="#0a5040"> other</text>
</g>
<!-- state_10004 -->
<g id="state_10004" class="node">
<title>state_10004</title>
<path fill="#fffff0" stroke="#b8860b" stroke-width="1.5" d="M517.5,-295C517.5,-295 412.5,-295 412.5,-295 406.5,-295 400.5,-289 400.5,-283 400.5,-283 400.5,-256 400.5,-256 400.5,-250 406.5,-244 412.5,-244 412.5,-244 517.5,-244 517.5,-244 523.5,-244 529.5,-250 529.5,-256 529.5,-256 529.5,-283 529.5,-283 529.5,-289 523.5,-295 517.5,-295"/>
<g id="a_state_10004_title"><a xlink:href="#" xlink:title="state_10004_title">
<text text-anchor="start" x="442.5" y="-277.1" font-family="Calibri" font-weight="bold" font-size="13.00" fill="#8b4513">Estado </text>
<text text-anchor="start" x="481.5" y="-277.1" font-family="Calibri" font-weight="bold" font-size="13.00" fill="#8b4513">4</text>
</a>
</g>
<g id="a_state_10004_item_1"><a xlink:href="#" xlink:title="state_10004_item_1">
<text text-anchor="start" x="409" y="-256.3" font-family="Times,serif" font-size="14.00" fill="#bc1f29">if_stmt </text>
<text text-anchor="start" x="452" y="-256.3" font-family="Times,serif" font-size="14.00" fill="#0a5040">→ </text>
<text text-anchor="start" x="471" y="-256.3" font-family="Times,serif" font-size="14.00" fill="#f5a70a"> •</text>
<text text-anchor="start" x="481" y="-256.3" font-family="Times,serif" font-size="14.00" fill="#0a5040"> if</text>
<text text-anchor="start" x="494" y="-256.3" font-family="Times,serif" font-size="14.00" fill="#bc1f29"> stmt</text>
</a>
</g>
</g>
<!-- state_10009 -->
<g id="state_10009" class="node">
<title>state_10009</title>
<path fill="#fffff0" stroke="#b8860b" stroke-width="1.5" d="M748.5,-270C748.5,-270 643.5,-270 643.5,-270 637.5,-270 631.5,-264 631.5,-258 631.5,-258 631.5,-231 631.5,-231 631.5,-225 637.5,-219 643.5,-219 643.5,-219 748.5,-219 748.5,-219 754.5,-219 760.5,-225 760.5,-231 760.5,-231 760.5,-258 760.5,-258 760.5,-264 754.5,-270 748.5,-270"/>
<g id="a_state_10009_title"><a xlink:href="#" xlink:title="state_10009_title">
<text text-anchor="start" x="673.5" y="-252.1" font-family="Calibri" font-weight="bold" font-size="13.00" fill="#8b4513">Estado </text>
<text text-anchor="start" x="712.5" y="-252.1" font-family="Calibri" font-weight="bold" font-size="13.00" fill="#8b4513">9</text>
</a>
</g>
<g id="a_state_10009_item_1"><a xlink:href="#" xlink:title="state_10009_item_1">
<text text-anchor="start" x="640" y="-231.3" font-family="Times,serif" font-size="14.00" fill="#bc1f29">if_stmt </text>
<text text-anchor="start" x="683" y="-231.3" font-family="Times,serif" font-size="14.00" fill="#0a5040">→ </text>
<text text-anchor="start" x="702" y="-231.3" font-family="Times,serif" font-size="14.00" fill="#0a5040"> if</text>
<text text-anchor="start" x="715" y="-231.3" font-family="Times,serif" font-size="14.00" fill="#f5a70a"> •</text>
<text text-anchor="start" x="725" y="-231.3" font-family="Times,serif" font-size="14.00" fill="#bc1f29"> stmt</text>
</a>
</g>
</g>
<!-- state_10004&#45;&gt;state_10009 -->
<g id="trans_8" class="edge">
<title>state_10004&#45;&gt;state_10009</title>
<path fill="none" stroke="#b8860b" stroke-width="1.5" d="M529.6535,-262.5029C558.0696,-259.4275 591.6159,-255.797 621.1126,-252.6047"/>
<polygon fill="#b8860b" stroke="#b8860b" stroke-width="1.5" points="621.7967,-256.0512 631.3621,-251.4954 621.0435,-249.0918 621.7967,-256.0512"/>
<text text-anchor="start" x="574" y="-260.3" font-family="Times,serif" font-size="14.00" fill="#0a5040"> if</text>
</g>
<!-- state_10005 -->
<g id="state_10005" class="node">
<title>state_10005</title>
<path fill="#fffff0" stroke="#b8860b" stroke-width="1.5" d="M544,-416C544,-416 386,-416 386,-416 380,-416 374,-410 374,-404 374,-404 374,-377 374,-377 374,-371 380,-365 386,-365 386,-365 544,-365 544,-365 550,-365 556,-371 556,-377 556,-377 556,-404 556,-404 556,-410 550,-416 544,-416"/>
<g id="a_state_10005_title"><a xlink:href="#" xlink:title="state_10005_title">
<text text-anchor="start" x="442" y="-398.1" font-family="Calibri" font-weight="bold" font-size="13.00" fill="#8b4513">Estado </text>
<text text-anchor="start" x="481" y="-398.1" font-family="Calibri" font-weight="bold" font-size="13.00" fill="#8b4513">5</text>
</a>
</g>
<g id="a_state_10005_item_1"><a xlink:href="#" xlink:title="state_10005_item_1">
<text text-anchor="start" x="382" y="-377.3" font-family="Times,serif" font-size="14.00" fill="#bc1f29">if_stmt </text>
<text text-anchor="start" x="425" y="-377.3" font-family="Times,serif" font-size="14.00" fill="#0a5040">→ </text>
<text text-anchor="start" x="444" y="-377.3" font-family="Times,serif" font-size="14.00" fill="#f5a70a"> •</text>
<text text-anchor="start" x="454" y="-377.3" font-family="Times,serif" font-size="14.00" fill="#0a5040"> if</text>
<text text-anchor="start" x="467" y="-377.3" font-family="Times,serif" font-size="14.00" fill="#bc1f29"> stmt</text>
<text text-anchor="start" x="495" y="-377.3" font-family="Times,serif" font-size="14.00" fill="#0a5040"> else</text>
<text text-anchor="start" x="520" y="-377.3" font-family="Times,serif" font-size="14.00" fill="#bc1f29"> stmt</text>
</a>
</g>
</g>
<!-- state_10010 -->
<g id="state_10010" class="node">
<title>state_10010</title>
<path fill="#fffff0" stroke="#b8860b" stroke-width="1.5" d="M775,-399C775,-399 617,-399 617,-399 611,-399 605,-393 605,-387 605,-387 605,-360 605,-360 605,-354 611,-348 617,-348 617,-348 775,-348 775,-348 781,-348 787,-354 787,-360 787,-360 787,-387 787,-387 787,-393 781,-399 775,-399"/>
<g id="a_state_10010_title"><a xlink:href="#" xlink:title="state_10010_title">
<text text-anchor="start" x="669.5" y="-381.1" font-family="Calibri" font-weight="bold" font-size="13.00" fill="#8b4513">Estado </text>
<text text-anchor="start" x="708.5" y="-381.1" font-family="Calibri" font-weight="bold" font-size="13.00" fill="#8b4513">10</text>
</a>
</g>
<g id="a_state_10010_item_1"><a xlink:href="#" xlink:title="state_10010_item_1">
<text text-anchor="start" x="613" y="-360.3" font-family="Times,serif" font-size="14.00" fill="#bc1f29">if_stmt </text>
<text text-anchor="start" x="656" y="-360.3" font-family="Times,serif" font-size="14.00" fill="#0a5040">→ </text>
<text text-anchor="start" x="675" y="-360.3" font-family="Times,serif" font-size="14.00" fill="#0a5040"> if</text>
<text text-anchor="start" x="688" y="-360.3" font-family="Times,serif" font-size="14.00" fill="#f5a70a"> •</text>
<text text-anchor="start" x="698" y="-360.3" font-family="Times,serif" font-size="14.00" fill="#bc1f29"> stmt</text>
<text text-anchor="start" x="726" y="-360.3" font-family="Times,serif" font-size="14.00" fill="#0a5040"> else</text>
<text text-anchor="start" x="751" y="-360.3" font-family="Times,serif" font-size="14.00" fill="#bc1f29"> stmt</text>
</a>
</g>
</g>
<!-- state_10005&#45;&gt;state_10010 -->
<g id="trans_9" class="edge">
<title>state_10005&#45;&gt;state_10010</title>
<path fill="none" stroke="#b8860b" stroke-width="1.5" d="M556.2973,-383.7811C568.9349,-382.8511 581.9773,-381.8913 594.7819,-380.949"/>
<polygon fill="#b8860b" stroke="#b8860b" stroke-width="1.5" points="595.2715,-384.4225 604.9877,-380.1979 594.7577,-377.4414 595.2715,-384.4225"/>
<text text-anchor="start" x="574" y="-385.3" font-family="Times,serif" font-size="14.00" fill="#0a5040"> if</text>
</g>
<!-- state_10006 -->
<g id="state_10006" class="node">
<title>state_10006</title>
<path fill="#fffff0" stroke="#b8860b" stroke-width="1.5" d="M282.5,-134C282.5,-134 191.5,-134 191.5,-134 185.5,-134 179.5,-128 179.5,-122 179.5,-122 179.5,-95 179.5,-95 179.5,-89 185.5,-83 191.5,-83 191.5,-83 282.5,-83 282.5,-83 288.5,-83 294.5,-89 294.5,-95 294.5,-95 294.5,-122 294.5,-122 294.5,-128 288.5,-134 282.5,-134"/>
<g id="a_state_10006_title"><a xlink:href="#" xlink:title="state_10006_title">
<text text-anchor="start" x="214.5" y="-116.1" font-family="Calibri" font-weight="bold" font-size="13.00" fill="#8b4513">Estado </text>
<text text-anchor="start" x="253.5" y="-116.1" font-family="Calibri" font-weight="bold" font-size="13.00" fill="#8b4513">6</text>
</a>
</g>
<g id="a_state_10006_item_1"><a xlink:href="#" xlink:title="state_10006_item_1">
<text text-anchor="start" x="188" y="-95.3" font-family="Times,serif" font-size="14.00" fill="#bc1f29">stmt&#39; </text>
<text text-anchor="start" x="219" y="-95.3" font-family="Times,serif" font-size="14.00" fill="#0a5040">→ </text>
<text text-anchor="start" x="238" y="-95.3" font-family="Times,serif" font-size="14.00" fill="#bc1f29"> stmt</text>
<text text-anchor="start" x="266" y="-95.3" font-family="Times,serif" font-size="14.00" fill="#f5a70a"> •</text>
<text text-anchor="start" x="276" y="-95.3" font-family="Times,serif" font-size="14.00" fill="#0a5040"> $</text>
</a>
</g>
</g>
<!-- state_10011 -->
<g id="state_10011" class="node">
<title>state_10011</title>
<path fill="#f5f5dc" stroke="#b8860b" stroke-width="1.5" d="M510.5,-55C510.5,-55 419.5,-55 419.5,-55 413.5,-55 407.5,-49 407.5,-43 407.5,-43 407.5,-16 407.5,-16 407.5,-10 413.5,-4 419.5,-4 419.5,-4 510.5,-4 510.5,-4 516.5,-4 522.5,-10 522.5,-16 522.5,-16 522.5,-43 522.5,-43 522.5,-49 516.5,-55 510.5,-55"/>
<path fill="none" stroke="#b8860b" stroke-width="1.5" d="M514.5,-59C514.5,-59 415.5,-59 415.5,-59 409.5,-59 403.5,-53 403.5,-47 403.5,-47 403.5,-12 403.5,-12 403.5,-6 409.5,0 415.5,0 415.5,0 514.5,0 514.5,0 520.5,0 526.5,-6 526.5,-12 526.5,-12 526.5,-47 526.5,-47 526.5,-53 520.5,-59 514.5,-59"/>
<g id="a_state_10011_title"><a xlink:href="#" xlink:title="state_10011_title">
<text text-anchor="start" x="439" y="-37.1" font-family="Calibri" font-weight="bold" font-size="13.00" fill="#8b4513">Estado </text>
<text text-anchor="start" x="478" y="-37.1" font-family="Calibri" font-weight="bold" font-size="13.00" fill="#8b4513">11</text>
</a>
</g>
<g id="a_state_10011_item_1"><a xlink:href="#" xlink:title="state_10011_item_1">
<text text-anchor="start" x="416" y="-16.3" font-family="Times,serif" font-size="14.00" fill="#bc1f29">stmt&#39; </text>
<text text-anchor="start" x="447" y="-16.3" font-family="Times,serif" font-size="14.00" fill="#0a5040">→ </text>
<text text-anchor="start" x="466" y="-16.3" font-family="Times,serif" font-size="14.00" fill="#bc1f29"> stmt</text>
<text text-anchor="start" x="494" y="-16.3" font-family="Times,serif" font-size="14.00" fill="#0a5040"> $</text>
<text text-anchor="start" x="505" y="-16.3" font-family="Times,serif" font-size="14.00" fill="#f5a70a"> •</text>
</a>
</g>
</g>
<!-- state_10006&#45;&gt;state_10011 -->
<g id="trans_10" class="edge">
<title>state_10006&#45;&gt;state_10011</title>
<path fill="none" stroke="#b8860b" stroke-width="1.5" d="M282.8923,-82.9377C292.654,-78.0742 303.0284,-73.3186 313,-69.5 338.7594,-59.6355 367.8756,-51.3245 393.6812,-44.8782"/>
<polygon fill="#b8860b" stroke="#b8860b" stroke-width="1.5" points="394.5148,-48.2776 403.3954,-42.4996 392.8499,-41.4785 394.5148,-48.2776"/>
<text text-anchor="start" x="329" y="-73.3" font-family="Times,serif" font-size="14.00" fill="#0a5040"> $</text>
</g>
<!-- state_10013 -->
<g id="state_10013" class="node">
<title>state_10013</title>
<path fill="#fffff0" stroke="#b8860b" stroke-width="1.5" d="M1021,-369C1021,-369 863,-369 863,-369 857,-369 851,-363 851,-357 851,-357 851,-330 851,-330 851,-324 857,-318 863,-318 863,-318 1021,-318 1021,-318 1027,-318 1033,-324 1033,-330 1033,-330 1033,-357 1033,-357 1033,-363 1027,-369 1021,-369"/>
<g id="a_state_10013_title"><a xlink:href="#" xlink:title="state_10013_title">
<text text-anchor="start" x="915.5" y="-351.1" font-family="Calibri" font-weight="bold" font-size="13.00" fill="#8b4513">Estado </text>
<text text-anchor="start" x="954.5" y="-351.1" font-family="Calibri" font-weight="bold" font-size="13.00" fill="#8b4513">13</text>
</a>
</g>
<g id="a_state_10013_item_1"><a xlink:href="#" xlink:title="state_10013_item_1">
<text text-anchor="start" x="859" y="-330.3" font-family="Times,serif" font-size="14.00" fill="#bc1f29">if_stmt </text>
<text text-anchor="start" x="902" y="-330.3" font-family="Times,serif" font-size="14.00" fill="#0a5040">→ </text>
<text text-anchor="start" x="921" y="-330.3" font-family="Times,serif" font-size="14.00" fill="#0a5040"> if</text>
<text text-anchor="start" x="934" y="-330.3" font-family="Times,serif" font-size="14.00" fill="#bc1f29"> stmt</text>
<text text-anchor="start" x="962" y="-330.3" font-family="Times,serif" font-size="14.00" fill="#f5a70a"> •</text>
<text text-anchor="start" x="972" y="-330.3" font-family="Times,serif" font-size="14.00" fill="#0a5040"> else</text>
<text text-anchor="start" x="997" y="-330.3" font-family="Times,serif" font-size="14.00" fill="#bc1f29"> stmt</text>
</a>
</g>
</g>
<!-- state_10014 -->
<g id="state_10014" class="node">
<title>state_10014</title>
<path fill="#fffff0" stroke="#b8860b" stroke-width="1.5" d="M1264,-254C1264,-254 1106,-254 1106,-254 1100,-254 1094,-248 1094,-242 1094,-242 1094,-215 1094,-215 1094,-209 1100,-203 1106,-203 1106,-203 1264,-203 1264,-203 1270,-203 1276,-209 1276,-215 1276,-215 1276,-242 1276,-242 1276,-248 1270,-254 1264,-254"/>
<g id="a_state_10014_title"><a xlink:href="#" xlink:title="state_10014_title">
<text text-anchor="start" x="1158.5" y="-236.1" font-family="Calibri" font-weight="bold" font-size="13.00" fill="#8b4513">Estado </text>
<text text-anchor="start" x="1197.5" y="-236.1" font-family="Calibri" font-weight="bold" font-size="13.00" fill="#8b4513">14</text>
</a>
</g>
<g id="a_state_10014_item_1"><a xlink:href="#" xlink:title="state_10014_item_1">
<text text-anchor="start" x="1102" y="-215.3" font-family="Times,serif" font-size="14.00" fill="#bc1f29">if_stmt </text>
<text text-anchor="start" x="1145" y="-215.3" font-family="Times,serif" font-size="14.00" fill="#0a5040">→ </text>
<text text-anchor="start" x="1164" y="-215.3" font-family="Times,serif" font-size="14.00" fill="#0a5040"> if</text>
<text text-anchor="start" x="1177" y="-215.3" font-family="Times,serif" font-size="14.00" fill="#bc1f29"> stmt</text>
<text text-anchor="start" x="1205" y="-215.3" font-family="Times,serif" font-size="14.00" fill="#0a5040"> else</text>
<text text-anchor="start" x="1230" y="-215.3" font-family="Times,serif" font-size="14.00" fill="#f5a70a"> •</text>
<text text-anchor="start" x="1240" y="-215.3" font-family="Times,serif" font-size="14.00" fill="#bc1f29"> stmt</text>
</a>
</g>
</g>
<!-- state_10013&#45;&gt;state_10014 -->
<g id="trans_17" class="edge">
<title>state_10013&#45;&gt;state_10014</title>
<path fill="none" stroke="#b8860b" stroke-width="1.5" d="M975.5721,-317.991C993.0695,-304.3439 1014.5992,-286.9917 1033,-270.5 1041.4251,-262.949 1040.9717,-257.7376 1051,-252.5 1061.3108,-247.1149 1072.6101,-242.9133 1084.1367,-239.6392"/>
<polygon fill="#b8860b" stroke="#b8860b" stroke-width="1.5" points="1085.0643,-243.0144 1093.8557,-237.1016 1083.2958,-236.2415 1085.0643,-243.0144"/>
<text text-anchor="start" x="1051" y="-256.3" font-family="Times,serif" font-size="14.00" fill="#0a5040"> else</text>
</g>
<!-- state_10001 -->
<g id="state_10001" class="node">
<title>state_10001</title>
<path fill="#fffff0" stroke="#b8860b" stroke-width="1.5" d="M103,-259C103,-259 12,-259 12,-259 6,-259 0,-253 0,-247 0,-247 0,-220 0,-220 0,-214 6,-208 12,-208 12,-208 103,-208 103,-208 109,-208 115,-214 115,-220 115,-220 115,-247 115,-247 115,-253 109,-259 103,-259"/>
<g id="a_state_10001_title"><a xlink:href="#" xlink:title="state_10001_title">
<text text-anchor="start" x="35" y="-241.1" font-family="Calibri" font-weight="bold" font-size="13.00" fill="#8b4513">Estado </text>
<text text-anchor="start" x="74" y="-241.1" font-family="Calibri" font-weight="bold" font-size="13.00" fill="#8b4513">1</text>
</a>
</g>
<g id="a_state_10001_item_1"><a xlink:href="#" xlink:title="state_10001_item_1">
<text text-anchor="start" x="8.5" y="-220.3" font-family="Times,serif" font-size="14.00" fill="#bc1f29">stmt&#39; </text>
<text text-anchor="start" x="39.5" y="-220.3" font-family="Times,serif" font-size="14.00" fill="#0a5040">→ </text>
<text text-anchor="start" x="58.5" y="-220.3" font-family="Times,serif" font-size="14.00" fill="#f5a70a"> •</text>
<text text-anchor="start" x="68.5" y="-220.3" font-family="Times,serif" font-size="14.00" fill="#bc1f29"> stmt</text>
<text text-anchor="start" x="96.5" y="-220.3" font-family="Times,serif" font-size="14.00" fill="#0a5040"> $</text>
</a>
</g>
</g>
<!-- state_10001&#45;&gt;state_10003 -->
<g id="trans_3" class="edge">
<title>state_10001&#45;&gt;state_10003</title>
<path fill="none" stroke="#b8860b" stroke-width="1.5" d="M65.702,-259.3727C85.3595,-315.7158 140.8118,-444.5 237,-444.5 237,-444.5 237,-444.5 1185,-444.5 1259.9292,-444.5 1339.178,-405.5813 1387.8737,-376.5473"/>
<polygon fill="#b8860b" stroke="#b8860b" stroke-width="1.5" points="1389.8678,-379.4313 1396.6028,-371.2526 1386.2375,-373.4462 1389.8678,-379.4313"/>
<text text-anchor="start" x="690.5" y="-448.3" font-family="Times,serif" font-size="14.00" fill="#0a5040"> ε</text>
</g>
<!-- state_10001&#45;&gt;state_10006 -->
<g id="trans_1" class="edge">
<title>state_10001&#45;&gt;state_10006</title>
<path fill="none" stroke="#b8860b" stroke-width="1.5" d="M94.2577,-207.9027C122.5714,-188.1857 161.8475,-160.8346 192.0348,-139.8128"/>
<polygon fill="#b8860b" stroke="#b8860b" stroke-width="1.5" points="194.0854,-142.6499 200.2915,-134.063 190.0851,-136.9055 194.0854,-142.6499"/>
<text text-anchor="start" x="133" y="-182.3" font-family="Times,serif" font-size="14.00" fill="#bc1f29"> stmt</text>
</g>
<!-- state_10002 -->
<g id="state_10002" class="node">
<title>state_10002</title>
<path fill="#fffff0" stroke="#b8860b" stroke-width="1.5" d="M283,-259C283,-259 191,-259 191,-259 185,-259 179,-253 179,-247 179,-247 179,-220 179,-220 179,-214 185,-208 191,-208 191,-208 283,-208 283,-208 289,-208 295,-214 295,-220 295,-220 295,-247 295,-247 295,-253 289,-259 283,-259"/>
<g id="a_state_10002_title"><a xlink:href="#" xlink:title="state_10002_title">
<text text-anchor="start" x="214" y="-241.1" font-family="Calibri" font-weight="bold" font-size="13.00" fill="#8b4513">Estado </text>
<text text-anchor="start" x="253" y="-241.1" font-family="Calibri" font-weight="bold" font-size="13.00" fill="#8b4513">2</text>
</a>
</g>
<g id="a_state_10002_item_1"><a xlink:href="#" xlink:title="state_10002_item_1">
<text text-anchor="start" x="187" y="-220.3" font-family="Times,serif" font-size="14.00" fill="#bc1f29">stmt </text>
<text text-anchor="start" x="215" y="-220.3" font-family="Times,serif" font-size="14.00" fill="#0a5040">→ </text>
<text text-anchor="start" x="234" y="-220.3" font-family="Times,serif" font-size="14.00" fill="#f5a70a"> •</text>
<text text-anchor="start" x="244" y="-220.3" font-family="Times,serif" font-size="14.00" fill="#bc1f29"> if_stmt</text>
</a>
</g>
</g>
<!-- state_10001&#45;&gt;state_10002 -->
<g id="trans_2" class="edge">
<title>state_10001&#45;&gt;state_10002</title>
<path fill="none" stroke="#b8860b" stroke-width="1.5" d="M115.283,-233.5C132.2462,-233.5 150.9621,-233.5 168.5246,-233.5"/>
<polygon fill="#b8860b" stroke="#b8860b" stroke-width="1.5" points="168.7099,-237.0001 178.7099,-233.5 168.7098,-230.0001 168.7099,-237.0001"/>
<text text-anchor="start" x="141.5" y="-237.3" font-family="Times,serif" font-size="14.00" fill="#0a5040"> ε</text>
</g>
<!-- state_10002&#45;&gt;state_10004 -->
<g id="trans_5" class="edge">
<title>state_10002&#45;&gt;state_10004</title>
<path fill="none" stroke="#b8860b" stroke-width="1.5" d="M295.124,-242.6775C323.928,-247.2255 359.055,-252.7718 389.8752,-257.6382"/>
<polygon fill="#b8860b" stroke="#b8860b" stroke-width="1.5" points="389.7234,-261.1575 400.1469,-259.26 390.8152,-254.2432 389.7234,-261.1575"/>
<text text-anchor="start" x="329" y="-255.3" font-family="Times,serif" font-size="14.00" fill="#0a5040"> ε</text>
</g>
<!-- state_10002&#45;&gt;state_10005 -->
<g id="trans_6" class="edge">
<title>state_10002&#45;&gt;state_10005</title>
<path fill="none" stroke="#b8860b" stroke-width="1.5" d="M248.0121,-259.1C260.2718,-284.6314 282.4573,-323.174 313,-345.5 328.0909,-356.5311 345.874,-364.8764 363.8583,-371.1846"/>
<polygon fill="#b8860b" stroke="#b8860b" stroke-width="1.5" points="363.2614,-374.6732 373.8545,-374.4837 365.4553,-368.0259 363.2614,-374.6732"/>
<text text-anchor="start" x="329" y="-371.3" font-family="Times,serif" font-size="14.00" fill="#0a5040"> ε</text>
</g>
<!-- state_10007 -->
<g id="state_10007" class="node">
<title>state_10007</title>
<path fill="#f5f5dc" stroke="#b8860b" stroke-width="1.5" d="M511,-132C511,-132 419,-132 419,-132 413,-132 407,-126 407,-120 407,-120 407,-93 407,-93 407,-87 413,-81 419,-81 419,-81 511,-81 511,-81 517,-81 523,-87 523,-93 523,-93 523,-120 523,-120 523,-126 517,-132 511,-132"/>
<path fill="none" stroke="#b8860b" stroke-width="1.5" d="M515,-136C515,-136 415,-136 415,-136 409,-136 403,-130 403,-124 403,-124 403,-89 403,-89 403,-83 409,-77 415,-77 415,-77 515,-77 515,-77 521,-77 527,-83 527,-89 527,-89 527,-124 527,-124 527,-130 521,-136 515,-136"/>
<g id="a_state_10007_title"><a xlink:href="#" xlink:title="state_10007_title">
<text text-anchor="start" x="442" y="-114.1" font-family="Calibri" font-weight="bold" font-size="13.00" fill="#8b4513">Estado </text>
<text text-anchor="start" x="481" y="-114.1" font-family="Calibri" font-weight="bold" font-size="13.00" fill="#8b4513">7</text>
</a>
</g>
<g id="a_state_10007_item_1"><a xlink:href="#" xlink:title="state_10007_item_1">
<text text-anchor="start" x="415" y="-93.3" font-family="Times,serif" font-size="14.00" fill="#bc1f29">stmt </text>
<text text-anchor="start" x="443" y="-93.3" font-family="Times,serif" font-size="14.00" fill="#0a5040">→ </text>
<text text-anchor="start" x="462" y="-93.3" font-family="Times,serif" font-size="14.00" fill="#bc1f29"> if_stmt</text>
<text text-anchor="start" x="505" y="-93.3" font-family="Times,serif" font-size="14.00" fill="#f5a70a"> •</text>
</a>
</g>
</g>
<!-- state_10002&#45;&gt;state_10007 -->
<g id="trans_4" class="edge">
<title>state_10002&#45;&gt;state_10007</title>
<path fill="none" stroke="#b8860b" stroke-width="1.5" d="M249.8681,-207.9173C262.6874,-185.1865 284.5465,-152.9389 313,-135.5 336.7632,-120.9357 366.2295,-113.4132 392.8738,-109.617"/>
<polygon fill="#b8860b" stroke="#b8860b" stroke-width="1.5" points="393.4512,-113.0718 402.9295,-108.3376 392.5677,-106.1278 393.4512,-113.0718"/>
<text text-anchor="start" x="313" y="-139.3" font-family="Times,serif" font-size="14.00" fill="#bc1f29"> if_stmt</text>
</g>
<!-- state_10009&#45;&gt;state_10003 -->
<g id="trans_13" class="edge">
<title>state_10009&#45;&gt;state_10003</title>
<path fill="none" stroke="#b8860b" stroke-width="1.5" d="M760.7686,-255.9356C788.5162,-260.6865 821.3093,-266.105 851,-270.5 1040.3071,-298.5226 1265.0532,-325.6689 1372.1664,-338.2344"/>
<polygon fill="#b8860b" stroke="#b8860b" stroke-width="1.5" points="1371.8206,-341.7178 1382.1598,-339.4045 1372.6347,-334.7653 1371.8206,-341.7178"/>
<text text-anchor="start" x="1058" y="-304.3" font-family="Times,serif" font-size="14.00" fill="#0a5040"> ε</text>
</g>
<!-- state_10009&#45;&gt;state_10002 -->
<g id="trans_12" class="edge">
<title>state_10009&#45;&gt;state_10002</title>
<path fill="none" stroke="#b8860b" stroke-width="1.5" d="M631.4733,-231.0819C607.8436,-226.7929 580.817,-222.6118 556,-220.5 469.6319,-213.1506 369.7435,-219.6315 305.083,-225.7881"/>
<polygon fill="#b8860b" stroke="#b8860b" stroke-width="1.5" points="304.6278,-222.3158 295.0153,-226.7712 305.3082,-229.2827 304.6278,-222.3158"/>
<text text-anchor="start" x="459.5" y="-224.3" font-family="Times,serif" font-size="14.00" fill="#0a5040"> ε</text>
</g>
<!-- state_10012 -->
<g id="state_10012" class="node">
<title>state_10012</title>
<path fill="#f5f5dc" stroke="#b8860b" stroke-width="1.5" d="M994.5,-257C994.5,-257 889.5,-257 889.5,-257 883.5,-257 877.5,-251 877.5,-245 877.5,-245 877.5,-218 877.5,-218 877.5,-212 883.5,-206 889.5,-206 889.5,-206 994.5,-206 994.5,-206 1000.5,-206 1006.5,-212 1006.5,-218 1006.5,-218 1006.5,-245 1006.5,-245 1006.5,-251 1000.5,-257 994.5,-257"/>
<path fill="none" stroke="#b8860b" stroke-width="1.5" d="M998.5,-261C998.5,-261 885.5,-261 885.5,-261 879.5,-261 873.5,-255 873.5,-249 873.5,-249 873.5,-214 873.5,-214 873.5,-208 879.5,-202 885.5,-202 885.5,-202 998.5,-202 998.5,-202 1004.5,-202 1010.5,-208 1010.5,-214 1010.5,-214 1010.5,-249 1010.5,-249 1010.5,-255 1004.5,-261 998.5,-261"/>
<g id="a_state_10012_title"><a xlink:href="#" xlink:title="state_10012_title">
<text text-anchor="start" x="916" y="-239.1" font-family="Calibri" font-weight="bold" font-size="13.00" fill="#8b4513">Estado </text>
<text text-anchor="start" x="955" y="-239.1" font-family="Calibri" font-weight="bold" font-size="13.00" fill="#8b4513">12</text>
</a>
</g>
<g id="a_state_10012_item_1"><a xlink:href="#" xlink:title="state_10012_item_1">
<text text-anchor="start" x="886" y="-218.3" font-family="Times,serif" font-size="14.00" fill="#bc1f29">if_stmt </text>
<text text-anchor="start" x="929" y="-218.3" font-family="Times,serif" font-size="14.00" fill="#0a5040">→ </text>
<text text-anchor="start" x="948" y="-218.3" font-family="Times,serif" font-size="14.00" fill="#0a5040"> if</text>
<text text-anchor="start" x="961" y="-218.3" font-family="Times,serif" font-size="14.00" fill="#bc1f29"> stmt</text>
<text text-anchor="start" x="989" y="-218.3" font-family="Times,serif" font-size="14.00" fill="#f5a70a"> •</text>
</a>
</g>
</g>
<!-- state_10009&#45;&gt;state_10012 -->
<g id="trans_11" class="edge">
<title>state_10009&#45;&gt;state_10012</title>
<path fill="none" stroke="#b8860b" stroke-width="1.5" d="M760.6336,-241.0844C792.1118,-239.4209 830.2293,-237.4066 863.3799,-235.6547"/>
<polygon fill="#b8860b" stroke="#b8860b" stroke-width="1.5" points="863.6944,-239.1431 873.4957,-235.1201 863.3249,-232.1528 863.6944,-239.1431"/>
<text text-anchor="start" x="805" y="-241.3" font-family="Times,serif" font-size="14.00" fill="#bc1f29"> stmt</text>
</g>
<!-- state_10010&#45;&gt;state_10003 -->
<g id="trans_16" class="edge">
<title>state_10010&#45;&gt;state_10003</title>
<path fill="none" stroke="#b8860b" stroke-width="1.5" d="M787.3719,-377.0972C808.2769,-377.7396 830.4046,-378.2762 851,-378.5 931.8841,-379.3791 952.1789,-381.8117 1033,-378.5 1153.1955,-373.5749 1293.0985,-360.3998 1372.1359,-352.2647"/>
<polygon fill="#b8860b" stroke="#b8860b" stroke-width="1.5" points="1372.8203,-355.7127 1382.4064,-351.2007 1372.0989,-348.7499 1372.8203,-355.7127"/>
<text text-anchor="start" x="1058" y="-381.3" font-family="Times,serif" font-size="14.00" fill="#0a5040"> ε</text>
</g>
<!-- state_10010&#45;&gt;state_10013 -->
<g id="trans_14" class="edge">
<title>state_10010&#45;&gt;state_10013</title>
<path fill="none" stroke="#b8860b" stroke-width="1.5" d="M787.2517,-362.3717C804.6258,-360.2529 822.9071,-358.0235 840.5753,-355.8689"/>
<polygon fill="#b8860b" stroke="#b8860b" stroke-width="1.5" points="841.3929,-359.2952 850.8957,-354.6103 840.5455,-352.3467 841.3929,-359.2952"/>
<text text-anchor="start" x="805" y="-362.3" font-family="Times,serif" font-size="14.00" fill="#bc1f29"> stmt</text>
</g>
<!-- state_10010&#45;&gt;state_10002 -->
<g id="trans_15" class="edge">
<title>state_10010&#45;&gt;state_10002</title>
<path fill="none" stroke="#b8860b" stroke-width="1.5" d="M604.9475,-352.3528C588.6634,-348.6664 571.8411,-344.9201 556,-341.5 475.3156,-324.0801 451.8361,-331.9767 374,-304.5 344.3022,-294.0165 312.9885,-278.1884 287.806,-264.1353"/>
<polygon fill="#b8860b" stroke="#b8860b" stroke-width="1.5" points="289.2471,-260.9293 278.8201,-259.0514 285.8002,-267.0219 289.2471,-260.9293"/>
<text text-anchor="start" x="459.5" y="-345.3" font-family="Times,serif" font-size="14.00" fill="#0a5040"> ε</text>
</g>
<!-- state_10014&#45;&gt;state_10003 -->
<g id="trans_20" class="edge">
<title>state_10014&#45;&gt;state_10003</title>
<path fill="none" stroke="#b8860b" stroke-width="1.5" d="M1276.3327,-244.2321C1291.9504,-248.4894 1307.7277,-253.8298 1322,-260.5 1350.5945,-273.8637 1378.9703,-295.2448 1400.1341,-313.219"/>
<polygon fill="#b8860b" stroke="#b8860b" stroke-width="1.5" points="1398.0248,-316.0222 1407.8777,-319.9172 1402.6043,-310.728 1398.0248,-316.0222"/>
<text text-anchor="start" x="1302.5" y="-264.3" font-family="Times,serif" font-size="14.00" fill="#0a5040"> ε</text>
</g>
<!-- state_10014&#45;&gt;state_10002 -->
<g id="trans_19" class="edge">
<title>state_10014&#45;&gt;state_10002</title>
<path fill="none" stroke="#b8860b" stroke-width="1.5" d="M1123.4912,-202.9296C1075.0547,-185.1031 1005.367,-164.5 942,-164.5 465,-164.5 465,-164.5 465,-164.5 407.0851,-164.5 344.3057,-185.1475 299.3143,-203.853"/>
<polygon fill="#b8860b" stroke="#b8860b" stroke-width="1.5" points="297.8314,-200.6801 289.9918,-207.8069 300.5646,-207.1245 297.8314,-200.6801"/>
<text text-anchor="start" x="690.5" y="-168.3" font-family="Times,serif" font-size="14.00" fill="#0a5040"> ε</text>
</g>
<!-- state_10015 -->
<g id="state_10015" class="node">
<title>state_10015</title>
<path fill="#f5f5dc" stroke="#b8860b" stroke-width="1.5" d="M1514,-247C1514,-247 1356,-247 1356,-247 1350,-247 1344,-241 1344,-235 1344,-235 1344,-208 1344,-208 1344,-202 1350,-196 1356,-196 1356,-196 1514,-196 1514,-196 1520,-196 1526,-202 1526,-208 1526,-208 1526,-235 1526,-235 1526,-241 1520,-247 1514,-247"/>
<path fill="none" stroke="#b8860b" stroke-width="1.5" d="M1518,-251C1518,-251 1352,-251 1352,-251 1346,-251 1340,-245 1340,-239 1340,-239 1340,-204 1340,-204 1340,-198 1346,-192 1352,-192 1352,-192 1518,-192 1518,-192 1524,-192 1530,-198 1530,-204 1530,-204 1530,-239 1530,-239 1530,-245 1524,-251 1518,-251"/>
<g id="a_state_10015_title"><a xlink:href="#" xlink:title="state_10015_title">
<text text-anchor="start" x="1408.5" y="-229.1" font-family="Calibri" font-weight="bold" font-size="13.00" fill="#8b4513">Estado </text>
<text text-anchor="start" x="1447.5" y="-229.1" font-family="Calibri" font-weight="bold" font-size="13.00" fill="#8b4513">15</text>
</a>
</g>
<g id="a_state_10015_item_1"><a xlink:href="#" xlink:title="state_10015_item_1">
<text text-anchor="start" x="1352" y="-208.3" font-family="Times,serif" font-size="14.00" fill="#bc1f29">if_stmt </text>
<text text-anchor="start" x="1395" y="-208.3" font-family="Times,serif" font-size="14.00" fill="#0a5040">→ </text>
<text text-anchor="start" x="1414" y="-208.3" font-family="Times,serif" font-size="14.00" fill="#0a5040"> if</text>
<text text-anchor="start" x="1427" y="-208.3" font-family="Times,serif" font-size="14.00" fill="#bc1f29"> stmt</text>
<text text-anchor="start" x="1455" y="-208.3" font-family="Times,serif" font-size="14.00" fill="#0a5040"> else</text>
<text text-anchor="start" x="1480" y="-208.3" font-family="Times,serif" font-size="14.00" fill="#bc1f29"> stmt</text>
<text text-anchor="start" x="1508" y="-208.3" font-family="Times,serif" font-size="14.00" fill="#f5a70a"> •</text>
</a>
</g>
</g>
<!-- state_10014&#45;&gt;state_10015 -->
<g id="trans_18" class="edge">
<title>state_10014&#45;&gt;state_10015</title>
<path fill="none" stroke="#b8860b" stroke-width="1.5" d="M1276.2782,-223.1528C1282.2742,-222.9012 1288.2223,-222.6794 1294,-222.5 1305.5649,-222.1409 1317.6659,-221.8803 1329.7107,-221.6941"/>
<polygon fill="#b8860b" stroke="#b8860b" stroke-width="1.5" points="1329.8515,-225.1926 1339.8021,-221.5546 1329.7547,-218.1932 1329.8515,-225.1926"/>
<text text-anchor="start" x="1294" y="-226.3" font-family="Times,serif" font-size="14.00" fill="#bc1f29"> stmt</text>
</g>
</g>
</svg>
