<?xml version="1.0" encoding="UTF-8" standalone="no"?>
<!DOCTYPE svg PUBLIC "-//W3C//DTD SVG 1.1//EN"
 "http://www.w3.org/Graphics/SVG/1.1/DTD/svg11.dtd">
<!-- Generated by graphviz version 2.40.1 (20161225.0304)
 -->
<!-- Title: NFA Pages: 1 -->
<svg width="1459pt" height="545pt"
 viewBox="0.00 0.00 1459.00 544.50" xmlns="http://www.w3.org/2000/svg" xmlns:xlink="http://www.w3.org/1999/xlink">
<g id="graph0" class="graph" transform="scale(1 1) rotate(0) translate(4 540.5)">
<title>NFA</title>
<!-- state_10002 -->
<g id="state_10002" class="node">
<title>state_10002</title>
<path fill="#fffff0" stroke="#b8860b" stroke-width="1.5" d="M224,-275C224,-275 146,-275 146,-275 140,-275 134,-269 134,-263 134,-263 134,-236 134,-236 134,-230 140,-224 146,-224 146,-224 224,-224 224,-224 230,-224 236,-230 236,-236 236,-236 236,-263 236,-263 236,-269 230,-275 224,-275"/>
<g id="a_state_10002_title"><a xlink:href="#" xlink:title="state_10002_title">
<text text-anchor="start" x="162" y="-257.1" font-family="Calibri" font-weight="bold" font-size="13.00" fill="#8b4513">Estado </text>
<text text-anchor="start" x="201" y="-257.1" font-family="Calibri" font-weight="bold" font-size="13.00" fill="#8b4513">2</text>
</a>
</g>
<g id="a_state_10002_item_1"><a xlink:href="#" xlink:title="state_10002_item_1">
<text text-anchor="start" x="142" y="-236.3" font-family="Times,serif" font-size="14.00" fill="#bc1f29">S </text>
<text text-anchor="start" x="155" y="-236.3" font-family="Times,serif" font-size="14.00" fill="#0a5040">→ </text>
<text text-anchor="start" x="174" y="-236.3" font-family="Times,serif" font-size="14.00" fill="#f5a70a"> •</text>
<text text-anchor="start" x="184" y="-236.3" font-family="Times,serif" font-size="14.00" fill="#0a5040"> (</text>
<text text-anchor="start" x="193" y="-236.3" font-family="Times,serif" font-size="14.00" fill="#bc1f29"> E</text>
<text text-anchor="start" x="206" y="-236.3" font-family="Times,serif" font-size="14.00" fill="#0a5040"> )</text>
<text text-anchor="start" x="215" y="-236.3" font-family="Times,serif" font-size="14.00" fill="#bc1f29"> S</text>
</a>
</g>
</g>
<!-- state_10006 -->
<g id="state_10006" class="node">
<title>state_10006</title>
<path fill="#fffff0" stroke="#b8860b" stroke-width="1.5" d="M374,-338C374,-338 296,-338 296,-338 290,-338 284,-332 284,-326 284,-326 284,-299 284,-299 284,-293 290,-287 296,-287 296,-287 374,-287 374,-287 380,-287 386,-293 386,-299 386,-299 386,-326 386,-326 386,-332 380,-338 374,-338"/>
<g id="a_state_10006_title"><a xlink:href="#" xlink:title="state_10006_title">
<text text-anchor="start" x="312" y="-320.1" font-family="Calibri" font-weight="bold" font-size="13.00" fill="#8b4513">Estado </text>
<text text-anchor="start" x="351" y="-320.1" font-family="Calibri" font-weight="bold" font-size="13.00" fill="#8b4513">6</text>
</a>
</g>
<g id="a_state_10006_item_1"><a xlink:href="#" xlink:title="state_10006_item_1">
<text text-anchor="start" x="292" y="-299.3" font-family="Times,serif" font-size="14.00" fill="#bc1f29">S </text>
<text text-anchor="start" x="305" y="-299.3" font-family="Times,serif" font-size="14.00" fill="#0a5040">→ </text>
<text text-anchor="start" x="324" y="-299.3" font-family="Times,serif" font-size="14.00" fill="#0a5040"> (</text>
<text text-anchor="start" x="333" y="-299.3" font-family="Times,serif" font-size="14.00" fill="#f5a70a"> •</text>
<text text-anchor="start" x="343" y="-299.3" font-family="Times,serif" font-size="14.00" fill="#bc1f29"> E</text>
<text text-anchor="start" x="356" y="-299.3" font-family="Times,serif" font-size="14.00" fill="#0a5040"> )</text>
<text text-anchor="start" x="365" y="-299.3" font-family="Times,serif" font-size="14.00" fill="#bc1f29"> S</text>
</a>
</g>
</g>
<!-- state_10002&#45;&gt;state_10006 -->
<g id="trans_5" class="edge">
<title>state_10002&#45;&gt;state_10006</title>
<path fill="none" stroke="#b8860b" stroke-width="1.5" d="M236.202,-271.0048C248.4432,-276.1462 261.6281,-281.6838 274.2535,-286.9865"/>
<polygon fill="#b8860b" stroke="#b8860b" stroke-width="1.5" points="273.1991,-290.3398 283.7743,-290.9852 275.9098,-283.8859 273.1991,-290.3398"/>
<text text-anchor="start" x="255.5" y="-287.3" font-family="Times,serif" font-size="14.00" fill="#0a5040"> (</text>
</g>
<!-- state_10003 -->
<g id="state_10003" class="node">
<title>state_10003</title>
<path fill="#fffff0" stroke="#b8860b" stroke-width="1.5" d="M827,-251C827,-251 749,-251 749,-251 743,-251 737,-245 737,-239 737,-239 737,-212 737,-212 737,-206 743,-200 749,-200 749,-200 827,-200 827,-200 833,-200 839,-206 839,-212 839,-212 839,-239 839,-239 839,-245 833,-251 827,-251"/>
<g id="a_state_10003_title"><a xlink:href="#" xlink:title="state_10003_title">
<text text-anchor="start" x="765" y="-233.1" font-family="Calibri" font-weight="bold" font-size="13.00" fill="#8b4513">Estado </text>
<text text-anchor="start" x="804" y="-233.1" font-family="Calibri" font-weight="bold" font-size="13.00" fill="#8b4513">3</text>
</a>
</g>
<g id="a_state_10003_item_1"><a xlink:href="#" xlink:title="state_10003_item_1">
<text text-anchor="start" x="745" y="-212.3" font-family="Times,serif" font-size="14.00" fill="#bc1f29">S </text>
<text text-anchor="start" x="758" y="-212.3" font-family="Times,serif" font-size="14.00" fill="#0a5040">→ </text>
<text text-anchor="start" x="777" y="-212.3" font-family="Times,serif" font-size="14.00" fill="#f5a70a"> •</text>
<text text-anchor="start" x="787" y="-212.3" font-family="Times,serif" font-size="14.00" fill="#0a5040"> [</text>
<text text-anchor="start" x="796" y="-212.3" font-family="Times,serif" font-size="14.00" fill="#bc1f29"> E</text>
<text text-anchor="start" x="809" y="-212.3" font-family="Times,serif" font-size="14.00" fill="#0a5040"> ]</text>
<text text-anchor="start" x="818" y="-212.3" font-family="Times,serif" font-size="14.00" fill="#bc1f29"> S</text>
</a>
</g>
</g>
<!-- state_10010 -->
<g id="state_10010" class="node">
<title>state_10010</title>
<path fill="#fffff0" stroke="#b8860b" stroke-width="1.5" d="M978,-302C978,-302 900,-302 900,-302 894,-302 888,-296 888,-290 888,-290 888,-263 888,-263 888,-257 894,-251 900,-251 900,-251 978,-251 978,-251 984,-251 990,-257 990,-263 990,-263 990,-290 990,-290 990,-296 984,-302 978,-302"/>
<g id="a_state_10010_title"><a xlink:href="#" xlink:title="state_10010_title">
<text text-anchor="start" x="912.5" y="-284.1" font-family="Calibri" font-weight="bold" font-size="13.00" fill="#8b4513">Estado </text>
<text text-anchor="start" x="951.5" y="-284.1" font-family="Calibri" font-weight="bold" font-size="13.00" fill="#8b4513">10</text>
</a>
</g>
<g id="a_state_10010_item_1"><a xlink:href="#" xlink:title="state_10010_item_1">
<text text-anchor="start" x="896" y="-263.3" font-family="Times,serif" font-size="14.00" fill="#bc1f29">S </text>
<text text-anchor="start" x="909" y="-263.3" font-family="Times,serif" font-size="14.00" fill="#0a5040">→ </text>
<text text-anchor="start" x="928" y="-263.3" font-family="Times,serif" font-size="14.00" fill="#0a5040"> [</text>
<text text-anchor="start" x="937" y="-263.3" font-family="Times,serif" font-size="14.00" fill="#f5a70a"> •</text>
<text text-anchor="start" x="947" y="-263.3" font-family="Times,serif" font-size="14.00" fill="#bc1f29"> E</text>
<text text-anchor="start" x="960" y="-263.3" font-family="Times,serif" font-size="14.00" fill="#0a5040"> ]</text>
<text text-anchor="start" x="969" y="-263.3" font-family="Times,serif" font-size="14.00" fill="#bc1f29"> S</text>
</a>
</g>
</g>
<!-- state_10003&#45;&gt;state_10010 -->
<g id="trans_6" class="edge">
<title>state_10003&#45;&gt;state_10010</title>
<path fill="none" stroke="#b8860b" stroke-width="1.5" d="M839.1217,-242.7663C851.6668,-247.0034 865.2179,-251.5802 878.1698,-255.9547"/>
<polygon fill="#b8860b" stroke="#b8860b" stroke-width="1.5" points="877.3367,-259.3675 887.9309,-259.2515 879.5767,-252.7356 877.3367,-259.3675"/>
<text text-anchor="start" x="861" y="-257.3" font-family="Times,serif" font-size="14.00" fill="#0a5040"> [</text>
</g>
<!-- state_10005 -->
<g id="state_10005" class="node">
<title>state_10005</title>
<path fill="#fffff0" stroke="#b8860b" stroke-width="1.5" d="M215.5,-57C215.5,-57 154.5,-57 154.5,-57 148.5,-57 142.5,-51 142.5,-45 142.5,-45 142.5,-18 142.5,-18 142.5,-12 148.5,-6 154.5,-6 154.5,-6 215.5,-6 215.5,-6 221.5,-6 227.5,-12 227.5,-18 227.5,-18 227.5,-45 227.5,-45 227.5,-51 221.5,-57 215.5,-57"/>
<g id="a_state_10005_title"><a xlink:href="#" xlink:title="state_10005_title">
<text text-anchor="start" x="162.5" y="-39.1" font-family="Calibri" font-weight="bold" font-size="13.00" fill="#8b4513">Estado </text>
<text text-anchor="start" x="201.5" y="-39.1" font-family="Calibri" font-weight="bold" font-size="13.00" fill="#8b4513">5</text>
</a>
</g>
<g id="a_state_10005_item_1"><a xlink:href="#" xlink:title="state_10005_item_1">
<text text-anchor="start" x="151" y="-18.3" font-family="Times,serif" font-size="14.00" fill="#bc1f29">S&#39; </text>
<text text-anchor="start" x="166" y="-18.3" font-family="Times,serif" font-size="14.00" fill="#0a5040">→ </text>
<text text-anchor="start" x="185" y="-18.3" font-family="Times,serif" font-size="14.00" fill="#bc1f29"> S</text>
<text text-anchor="start" x="198" y="-18.3" font-family="Times,serif" font-size="14.00" fill="#f5a70a"> •</text>
<text text-anchor="start" x="208" y="-18.3" font-family="Times,serif" font-size="14.00" fill="#0a5040"> $</text>
</a>
</g>
</g>
<!-- state_10011 -->
<g id="state_10011" class="node">
<title>state_10011</title>
<path fill="#f5f5dc" stroke="#b8860b" stroke-width="1.5" d="M365.5,-55C365.5,-55 304.5,-55 304.5,-55 298.5,-55 292.5,-49 292.5,-43 292.5,-43 292.5,-16 292.5,-16 292.5,-10 298.5,-4 304.5,-4 304.5,-4 365.5,-4 365.5,-4 371.5,-4 377.5,-10 377.5,-16 377.5,-16 377.5,-43 377.5,-43 377.5,-49 371.5,-55 365.5,-55"/>
<path fill="none" stroke="#b8860b" stroke-width="1.5" d="M369.5,-59C369.5,-59 300.5,-59 300.5,-59 294.5,-59 288.5,-53 288.5,-47 288.5,-47 288.5,-12 288.5,-12 288.5,-6 294.5,0 300.5,0 300.5,0 369.5,0 369.5,0 375.5,0 381.5,-6 381.5,-12 381.5,-12 381.5,-47 381.5,-47 381.5,-53 375.5,-59 369.5,-59"/>
<g id="a_state_10011_title"><a xlink:href="#" xlink:title="state_10011_title">
<text text-anchor="start" x="309" y="-37.1" font-family="Calibri" font-weight="bold" font-size="13.00" fill="#8b4513">Estado </text>
<text text-anchor="start" x="348" y="-37.1" font-family="Calibri" font-weight="bold" font-size="13.00" fill="#8b4513">11</text>
</a>
</g>
<g id="a_state_10011_item_1"><a xlink:href="#" xlink:title="state_10011_item_1">
<text text-anchor="start" x="301" y="-16.3" font-family="Times,serif" font-size="14.00" fill="#bc1f29">S&#39; </text>
<text text-anchor="start" x="316" y="-16.3" font-family="Times,serif" font-size="14.00" fill="#0a5040">→ </text>
<text text-anchor="start" x="335" y="-16.3" font-family="Times,serif" font-size="14.00" fill="#bc1f29"> S</text>
<text text-anchor="start" x="348" y="-16.3" font-family="Times,serif" font-size="14.00" fill="#0a5040"> $</text>
<text text-anchor="start" x="360" y="-16.3" font-family="Times,serif" font-size="14.00" fill="#f5a70a"> •</text>
</a>
</g>
</g>
<!-- state_10005&#45;&gt;state_10011 -->
<g id="trans_7" class="edge">
<title>state_10005&#45;&gt;state_10011</title>
<path fill="none" stroke="#b8860b" stroke-width="1.5" d="M227.5828,-30.9322C243.2911,-30.7228 261.3487,-30.482 278.1204,-30.2584"/>
<polygon fill="#b8860b" stroke="#b8860b" stroke-width="1.5" points="278.4121,-33.7549 288.3645,-30.1218 278.3187,-26.7555 278.4121,-33.7549"/>
<text text-anchor="start" x="254" y="-35.3" font-family="Times,serif" font-size="14.00" fill="#0a5040"> $</text>
</g>
<!-- state_10008 -->
<g id="state_10008" class="node">
<title>state_10008</title>
<path fill="#fffff0" stroke="#b8860b" stroke-width="1.5" d="M1111,-340C1111,-340 1069,-340 1069,-340 1063,-340 1057,-334 1057,-328 1057,-328 1057,-301 1057,-301 1057,-295 1063,-289 1069,-289 1069,-289 1111,-289 1111,-289 1117,-289 1123,-295 1123,-301 1123,-301 1123,-328 1123,-328 1123,-334 1117,-340 1111,-340"/>
<g id="a_state_10008_title"><a xlink:href="#" xlink:title="state_10008_title">
<text text-anchor="start" x="1067" y="-322.1" font-family="Calibri" font-weight="bold" font-size="13.00" fill="#8b4513">Estado </text>
<text text-anchor="start" x="1106" y="-322.1" font-family="Calibri" font-weight="bold" font-size="13.00" fill="#8b4513">8</text>
</a>
</g>
<g id="a_state_10008_item_1"><a xlink:href="#" xlink:title="state_10008_item_1">
<text text-anchor="start" x="1065" y="-301.3" font-family="Times,serif" font-size="14.00" fill="#bc1f29">E </text>
<text text-anchor="start" x="1078" y="-301.3" font-family="Times,serif" font-size="14.00" fill="#0a5040">→ </text>
<text text-anchor="start" x="1097" y="-301.3" font-family="Times,serif" font-size="14.00" fill="#f5a70a"> •</text>
<text text-anchor="start" x="1107" y="-301.3" font-family="Times,serif" font-size="14.00" fill="#0a5040"> i</text>
</a>
</g>
</g>
<!-- state_10014 -->
<g id="state_10014" class="node">
<title>state_10014</title>
<path fill="#f5f5dc" stroke="#b8860b" stroke-width="1.5" d="M1263.5,-340C1263.5,-340 1218.5,-340 1218.5,-340 1212.5,-340 1206.5,-334 1206.5,-328 1206.5,-328 1206.5,-301 1206.5,-301 1206.5,-295 1212.5,-289 1218.5,-289 1218.5,-289 1263.5,-289 1263.5,-289 1269.5,-289 1275.5,-295 1275.5,-301 1275.5,-301 1275.5,-328 1275.5,-328 1275.5,-334 1269.5,-340 1263.5,-340"/>
<path fill="none" stroke="#b8860b" stroke-width="1.5" d="M1267.5,-344C1267.5,-344 1214.5,-344 1214.5,-344 1208.5,-344 1202.5,-338 1202.5,-332 1202.5,-332 1202.5,-297 1202.5,-297 1202.5,-291 1208.5,-285 1214.5,-285 1214.5,-285 1267.5,-285 1267.5,-285 1273.5,-285 1279.5,-291 1279.5,-297 1279.5,-297 1279.5,-332 1279.5,-332 1279.5,-338 1273.5,-344 1267.5,-344"/>
<g id="a_state_10014_title"><a xlink:href="#" xlink:title="state_10014_title">
<text text-anchor="start" x="1215" y="-322.1" font-family="Calibri" font-weight="bold" font-size="13.00" fill="#8b4513">Estado </text>
<text text-anchor="start" x="1254" y="-322.1" font-family="Calibri" font-weight="bold" font-size="13.00" fill="#8b4513">14</text>
</a>
</g>
<g id="a_state_10014_item_1"><a xlink:href="#" xlink:title="state_10014_item_1">
<text text-anchor="start" x="1216.5" y="-301.3" font-family="Times,serif" font-size="14.00" fill="#bc1f29">E </text>
<text text-anchor="start" x="1229.5" y="-301.3" font-family="Times,serif" font-size="14.00" fill="#0a5040">→ </text>
<text text-anchor="start" x="1248.5" y="-301.3" font-family="Times,serif" font-size="14.00" fill="#0a5040"> i</text>
<text text-anchor="start" x="1256.5" y="-301.3" font-family="Times,serif" font-size="14.00" fill="#f5a70a"> •</text>
</a>
</g>
</g>
<!-- state_10008&#45;&gt;state_10014 -->
<g id="trans_16" class="edge">
<title>state_10008&#45;&gt;state_10014</title>
<path fill="none" stroke="#b8860b" stroke-width="1.5" d="M1123.1376,-314.5C1143.3892,-314.5 1169.6533,-314.5 1192.2472,-314.5"/>
<polygon fill="#b8860b" stroke="#b8860b" stroke-width="1.5" points="1192.3351,-318.0001 1202.3351,-314.5 1192.3351,-311.0001 1192.3351,-318.0001"/>
<text text-anchor="start" x="1161.5" y="-318.3" font-family="Times,serif" font-size="14.00" fill="#0a5040"> i</text>
</g>
<!-- state_10013 -->
<g id="state_10013" class="node">
<title>state_10013</title>
<path fill="#fffff0" stroke="#b8860b" stroke-width="1.5" d="M525,-334C525,-334 447,-334 447,-334 441,-334 435,-328 435,-322 435,-322 435,-295 435,-295 435,-289 441,-283 447,-283 447,-283 525,-283 525,-283 531,-283 537,-289 537,-295 537,-295 537,-322 537,-322 537,-328 531,-334 525,-334"/>
<g id="a_state_10013_title"><a xlink:href="#" xlink:title="state_10013_title">
<text text-anchor="start" x="459.5" y="-316.1" font-family="Calibri" font-weight="bold" font-size="13.00" fill="#8b4513">Estado </text>
<text text-anchor="start" x="498.5" y="-316.1" font-family="Calibri" font-weight="bold" font-size="13.00" fill="#8b4513">13</text>
</a>
</g>
<g id="a_state_10013_item_1"><a xlink:href="#" xlink:title="state_10013_item_1">
<text text-anchor="start" x="443" y="-295.3" font-family="Times,serif" font-size="14.00" fill="#bc1f29">S </text>
<text text-anchor="start" x="456" y="-295.3" font-family="Times,serif" font-size="14.00" fill="#0a5040">→ </text>
<text text-anchor="start" x="475" y="-295.3" font-family="Times,serif" font-size="14.00" fill="#0a5040"> (</text>
<text text-anchor="start" x="484" y="-295.3" font-family="Times,serif" font-size="14.00" fill="#bc1f29"> E</text>
<text text-anchor="start" x="497" y="-295.3" font-family="Times,serif" font-size="14.00" fill="#f5a70a"> •</text>
<text text-anchor="start" x="507" y="-295.3" font-family="Times,serif" font-size="14.00" fill="#0a5040"> )</text>
<text text-anchor="start" x="516" y="-295.3" font-family="Times,serif" font-size="14.00" fill="#bc1f29"> S</text>
</a>
</g>
</g>
<!-- state_10016 -->
<g id="state_10016" class="node">
<title>state_10016</title>
<path fill="#fffff0" stroke="#b8860b" stroke-width="1.5" d="M672,-305C672,-305 594,-305 594,-305 588,-305 582,-299 582,-293 582,-293 582,-266 582,-266 582,-260 588,-254 594,-254 594,-254 672,-254 672,-254 678,-254 684,-260 684,-266 684,-266 684,-293 684,-293 684,-299 678,-305 672,-305"/>
<g id="a_state_10016_title"><a xlink:href="#" xlink:title="state_10016_title">
<text text-anchor="start" x="606.5" y="-287.1" font-family="Calibri" font-weight="bold" font-size="13.00" fill="#8b4513">Estado </text>
<text text-anchor="start" x="645.5" y="-287.1" font-family="Calibri" font-weight="bold" font-size="13.00" fill="#8b4513">16</text>
</a>
</g>
<g id="a_state_10016_item_1"><a xlink:href="#" xlink:title="state_10016_item_1">
<text text-anchor="start" x="590" y="-266.3" font-family="Times,serif" font-size="14.00" fill="#bc1f29">S </text>
<text text-anchor="start" x="603" y="-266.3" font-family="Times,serif" font-size="14.00" fill="#0a5040">→ </text>
<text text-anchor="start" x="622" y="-266.3" font-family="Times,serif" font-size="14.00" fill="#0a5040"> (</text>
<text text-anchor="start" x="631" y="-266.3" font-family="Times,serif" font-size="14.00" fill="#bc1f29"> E</text>
<text text-anchor="start" x="644" y="-266.3" font-family="Times,serif" font-size="14.00" fill="#0a5040"> )</text>
<text text-anchor="start" x="653" y="-266.3" font-family="Times,serif" font-size="14.00" fill="#f5a70a"> •</text>
<text text-anchor="start" x="663" y="-266.3" font-family="Times,serif" font-size="14.00" fill="#bc1f29"> S</text>
</a>
</g>
</g>
<!-- state_10013&#45;&gt;state_10016 -->
<g id="trans_21" class="edge">
<title>state_10013&#45;&gt;state_10016</title>
<path fill="none" stroke="#b8860b" stroke-width="1.5" d="M537.0009,-298.4386C548.1607,-296.237 560.0863,-293.8843 571.6041,-291.6121"/>
<polygon fill="#b8860b" stroke="#b8860b" stroke-width="1.5" points="572.4579,-295.0112 581.5914,-289.6418 571.103,-288.1436 572.4579,-295.0112"/>
<text text-anchor="start" x="555" y="-299.3" font-family="Times,serif" font-size="14.00" fill="#0a5040"> )</text>
</g>
<!-- state_10015 -->
<g id="state_10015" class="node">
<title>state_10015</title>
<path fill="#fffff0" stroke="#b8860b" stroke-width="1.5" d="M1129,-271C1129,-271 1051,-271 1051,-271 1045,-271 1039,-265 1039,-259 1039,-259 1039,-232 1039,-232 1039,-226 1045,-220 1051,-220 1051,-220 1129,-220 1129,-220 1135,-220 1141,-226 1141,-232 1141,-232 1141,-259 1141,-259 1141,-265 1135,-271 1129,-271"/>
<g id="a_state_10015_title"><a xlink:href="#" xlink:title="state_10015_title">
<text text-anchor="start" x="1063.5" y="-253.1" font-family="Calibri" font-weight="bold" font-size="13.00" fill="#8b4513">Estado </text>
<text text-anchor="start" x="1102.5" y="-253.1" font-family="Calibri" font-weight="bold" font-size="13.00" fill="#8b4513">15</text>
</a>
</g>
<g id="a_state_10015_item_1"><a xlink:href="#" xlink:title="state_10015_item_1">
<text text-anchor="start" x="1047" y="-232.3" font-family="Times,serif" font-size="14.00" fill="#bc1f29">S </text>
<text text-anchor="start" x="1060" y="-232.3" font-family="Times,serif" font-size="14.00" fill="#0a5040">→ </text>
<text text-anchor="start" x="1079" y="-232.3" font-family="Times,serif" font-size="14.00" fill="#0a5040"> [</text>
<text text-anchor="start" x="1088" y="-232.3" font-family="Times,serif" font-size="14.00" fill="#bc1f29"> E</text>
<text text-anchor="start" x="1101" y="-232.3" font-family="Times,serif" font-size="14.00" fill="#f5a70a"> •</text>
<text text-anchor="start" x="1111" y="-232.3" font-family="Times,serif" font-size="14.00" fill="#0a5040"> ]</text>
<text text-anchor="start" x="1120" y="-232.3" font-family="Times,serif" font-size="14.00" fill="#bc1f29"> S</text>
</a>
</g>
</g>
<!-- state_10017 -->
<g id="state_10017" class="node">
<title>state_10017</title>
<path fill="#fffff0" stroke="#b8860b" stroke-width="1.5" d="M1280,-442C1280,-442 1202,-442 1202,-442 1196,-442 1190,-436 1190,-430 1190,-430 1190,-403 1190,-403 1190,-397 1196,-391 1202,-391 1202,-391 1280,-391 1280,-391 1286,-391 1292,-397 1292,-403 1292,-403 1292,-430 1292,-430 1292,-436 1286,-442 1280,-442"/>
<g id="a_state_10017_title"><a xlink:href="#" xlink:title="state_10017_title">
<text text-anchor="start" x="1214.5" y="-424.1" font-family="Calibri" font-weight="bold" font-size="13.00" fill="#8b4513">Estado </text>
<text text-anchor="start" x="1253.5" y="-424.1" font-family="Calibri" font-weight="bold" font-size="13.00" fill="#8b4513">17</text>
</a>
</g>
<g id="a_state_10017_item_1"><a xlink:href="#" xlink:title="state_10017_item_1">
<text text-anchor="start" x="1198" y="-403.3" font-family="Times,serif" font-size="14.00" fill="#bc1f29">S </text>
<text text-anchor="start" x="1211" y="-403.3" font-family="Times,serif" font-size="14.00" fill="#0a5040">→ </text>
<text text-anchor="start" x="1230" y="-403.3" font-family="Times,serif" font-size="14.00" fill="#0a5040"> [</text>
<text text-anchor="start" x="1239" y="-403.3" font-family="Times,serif" font-size="14.00" fill="#bc1f29"> E</text>
<text text-anchor="start" x="1252" y="-403.3" font-family="Times,serif" font-size="14.00" fill="#0a5040"> ]</text>
<text text-anchor="start" x="1261" y="-403.3" font-family="Times,serif" font-size="14.00" fill="#f5a70a"> •</text>
<text text-anchor="start" x="1271" y="-403.3" font-family="Times,serif" font-size="14.00" fill="#bc1f29"> S</text>
</a>
</g>
</g>
<!-- state_10015&#45;&gt;state_10017 -->
<g id="trans_22" class="edge">
<title>state_10015&#45;&gt;state_10017</title>
<path fill="none" stroke="#b8860b" stroke-width="1.5" d="M1141.3167,-269.014C1152.6809,-276.1791 1163.7736,-284.9996 1172,-295.5 1188.3838,-316.4129 1177.5122,-329.0515 1190,-352.5 1195.6302,-363.0718 1203.083,-373.6215 1210.5475,-383.017"/>
<polygon fill="#b8860b" stroke="#b8860b" stroke-width="1.5" points="1208.0117,-385.444 1217.0646,-390.9481 1213.42,-380.9999 1208.0117,-385.444"/>
<text text-anchor="start" x="1161" y="-299.3" font-family="Times,serif" font-size="14.00" fill="#0a5040"> ]</text>
</g>
<!-- state_10001 -->
<g id="state_10001" class="node">
<title>state_10001</title>
<path fill="#fffff0" stroke="#b8860b" stroke-width="1.5" d="M73,-153C73,-153 12,-153 12,-153 6,-153 0,-147 0,-141 0,-141 0,-114 0,-114 0,-108 6,-102 12,-102 12,-102 73,-102 73,-102 79,-102 85,-108 85,-114 85,-114 85,-141 85,-141 85,-147 79,-153 73,-153"/>
<g id="a_state_10001_title"><a xlink:href="#" xlink:title="state_10001_title">
<text text-anchor="start" x="20" y="-135.1" font-family="Calibri" font-weight="bold" font-size="13.00" fill="#8b4513">Estado </text>
<text text-anchor="start" x="59" y="-135.1" font-family="Calibri" font-weight="bold" font-size="13.00" fill="#8b4513">1</text>
</a>
</g>
<g id="a_state_10001_item_1"><a xlink:href="#" xlink:title="state_10001_item_1">
<text text-anchor="start" x="8.5" y="-114.3" font-family="Times,serif" font-size="14.00" fill="#bc1f29">S&#39; </text>
<text text-anchor="start" x="23.5" y="-114.3" font-family="Times,serif" font-size="14.00" fill="#0a5040">→ </text>
<text text-anchor="start" x="42.5" y="-114.3" font-family="Times,serif" font-size="14.00" fill="#f5a70a"> •</text>
<text text-anchor="start" x="52.5" y="-114.3" font-family="Times,serif" font-size="14.00" fill="#bc1f29"> S</text>
<text text-anchor="start" x="65.5" y="-114.3" font-family="Times,serif" font-size="14.00" fill="#0a5040"> $</text>
</a>
</g>
</g>
<!-- state_10001&#45;&gt;state_10002 -->
<g id="trans_4" class="edge">
<title>state_10001&#45;&gt;state_10002</title>
<path fill="none" stroke="#b8860b" stroke-width="1.5" d="M72.3727,-153.0752C94.2231,-171.7823 124.0188,-197.2916 147.4755,-217.3737"/>
<polygon fill="#b8860b" stroke="#b8860b" stroke-width="1.5" points="145.2941,-220.1136 155.1667,-223.9585 149.8466,-214.7962 145.2941,-220.1136"/>
<text text-anchor="start" x="104.5" y="-192.3" font-family="Times,serif" font-size="14.00" fill="#0a5040"> ε</text>
</g>
<!-- state_10001&#45;&gt;state_10003 -->
<g id="trans_1" class="edge">
<title>state_10001&#45;&gt;state_10003</title>
<path fill="none" stroke="#b8860b" stroke-width="1.5" d="M85.2589,-133.1209C210.9497,-149.6436 579.6076,-198.1057 726.533,-217.4198"/>
<polygon fill="#b8860b" stroke="#b8860b" stroke-width="1.5" points="726.3511,-220.926 736.722,-218.7592 727.2635,-213.9857 726.3511,-220.926"/>
<text text-anchor="start" x="405.5" y="-180.3" font-family="Times,serif" font-size="14.00" fill="#0a5040"> ε</text>
</g>
<!-- state_10001&#45;&gt;state_10005 -->
<g id="trans_3" class="edge">
<title>state_10001&#45;&gt;state_10005</title>
<path fill="none" stroke="#b8860b" stroke-width="1.5" d="M59.7406,-101.7773C70.6316,-87.2725 85.86,-69.8405 103,-58.5 111.9041,-52.6087 122.202,-47.9055 132.4286,-44.1853"/>
<polygon fill="#b8860b" stroke="#b8860b" stroke-width="1.5" points="133.8001,-47.4168 142.1638,-40.913 131.5698,-40.7816 133.8001,-47.4168"/>
<text text-anchor="start" x="103" y="-62.3" font-family="Times,serif" font-size="14.00" fill="#bc1f29"> S</text>
</g>
<!-- state_10004 -->
<g id="state_10004" class="node">
<title>state_10004</title>
<path fill="#f5f5dc" stroke="#b8860b" stroke-width="1.5" d="M1415,-283C1415,-283 1377,-283 1377,-283 1371,-283 1365,-277 1365,-271 1365,-271 1365,-244 1365,-244 1365,-238 1371,-232 1377,-232 1377,-232 1415,-232 1415,-232 1421,-232 1427,-238 1427,-244 1427,-244 1427,-271 1427,-271 1427,-277 1421,-283 1415,-283"/>
<path fill="none" stroke="#b8860b" stroke-width="1.5" d="M1419,-287C1419,-287 1373,-287 1373,-287 1367,-287 1361,-281 1361,-275 1361,-275 1361,-240 1361,-240 1361,-234 1367,-228 1373,-228 1373,-228 1419,-228 1419,-228 1425,-228 1431,-234 1431,-240 1431,-240 1431,-275 1431,-275 1431,-281 1425,-287 1419,-287"/>
<g id="a_state_10004_title"><a xlink:href="#" xlink:title="state_10004_title">
<text text-anchor="start" x="1373" y="-265.1" font-family="Calibri" font-weight="bold" font-size="13.00" fill="#8b4513">Estado </text>
<text text-anchor="start" x="1412" y="-265.1" font-family="Calibri" font-weight="bold" font-size="13.00" fill="#8b4513">4</text>
</a>
</g>
<g id="a_state_10004_item_1"><a xlink:href="#" xlink:title="state_10004_item_1">
<text text-anchor="start" x="1375" y="-244.3" font-family="Times,serif" font-size="14.00" fill="#bc1f29">S </text>
<text text-anchor="start" x="1388" y="-244.3" font-family="Times,serif" font-size="14.00" fill="#0a5040">→ </text>
<text text-anchor="start" x="1407" y="-244.3" font-family="Times,serif" font-size="14.00" fill="#f5a70a"> •</text>
</a>
</g>
</g>
<!-- state_10001&#45;&gt;state_10004 -->
<g id="trans_2" class="edge">
<title>state_10001&#45;&gt;state_10004</title>
<path fill="none" stroke="#b8860b" stroke-width="1.5" d="M85.2839,-108.9052C113.1386,-98.4595 150.5677,-87.5 185,-87.5 185,-87.5 185,-87.5 1241,-87.5 1311.5409,-87.5 1358.5244,-168.4161 1380.8796,-218.5985"/>
<polygon fill="#b8860b" stroke="#b8860b" stroke-width="1.5" points="1377.7145,-220.0976 1384.8948,-227.8883 1384.1401,-217.3203 1377.7145,-220.0976"/>
<text text-anchor="start" x="703.5" y="-91.3" font-family="Times,serif" font-size="14.00" fill="#0a5040"> ε</text>
</g>
<!-- state_10006&#45;&gt;state_10008 -->
<g id="trans_10" class="edge">
<title>state_10006&#45;&gt;state_10008</title>
<path fill="none" stroke="#b8860b" stroke-width="1.5" d="M361.7874,-338.08C390.2366,-362.4674 437.688,-395.5 486,-395.5 486,-395.5 486,-395.5 708.5,-395.5 848.5792,-395.5 888.3846,-399.6147 1021,-354.5 1030.1454,-351.3888 1039.4306,-347.0026 1048.1003,-342.2674"/>
<polygon fill="#b8860b" stroke="#b8860b" stroke-width="1.5" points="1049.9379,-345.2485 1056.8805,-337.2454 1046.4624,-339.1722 1049.9379,-345.2485"/>
<text text-anchor="start" x="703.5" y="-399.3" font-family="Times,serif" font-size="14.00" fill="#0a5040"> ε</text>
</g>
<!-- state_10006&#45;&gt;state_10013 -->
<g id="trans_8" class="edge">
<title>state_10006&#45;&gt;state_10013</title>
<path fill="none" stroke="#b8860b" stroke-width="1.5" d="M386.1217,-311.1458C398.5438,-310.8167 411.9522,-310.4615 424.7887,-310.1215"/>
<polygon fill="#b8860b" stroke="#b8860b" stroke-width="1.5" points="425.0272,-313.6165 434.9309,-309.8528 424.8417,-306.619 425.0272,-313.6165"/>
<text text-anchor="start" x="404" y="-315.3" font-family="Times,serif" font-size="14.00" fill="#bc1f29"> E</text>
</g>
<!-- state_10007 -->
<g id="state_10007" class="node">
<title>state_10007</title>
<path fill="#fffff0" stroke="#b8860b" stroke-width="1.5" d="M1113.5,-201C1113.5,-201 1066.5,-201 1066.5,-201 1060.5,-201 1054.5,-195 1054.5,-189 1054.5,-189 1054.5,-162 1054.5,-162 1054.5,-156 1060.5,-150 1066.5,-150 1066.5,-150 1113.5,-150 1113.5,-150 1119.5,-150 1125.5,-156 1125.5,-162 1125.5,-162 1125.5,-189 1125.5,-189 1125.5,-195 1119.5,-201 1113.5,-201"/>
<g id="a_state_10007_title"><a xlink:href="#" xlink:title="state_10007_title">
<text text-anchor="start" x="1067.5" y="-183.1" font-family="Calibri" font-weight="bold" font-size="13.00" fill="#8b4513">Estado </text>
<text text-anchor="start" x="1106.5" y="-183.1" font-family="Calibri" font-weight="bold" font-size="13.00" fill="#8b4513">7</text>
</a>
</g>
<g id="a_state_10007_item_1"><a xlink:href="#" xlink:title="state_10007_item_1">
<text text-anchor="start" x="1063" y="-162.3" font-family="Times,serif" font-size="14.00" fill="#bc1f29">E </text>
<text text-anchor="start" x="1076" y="-162.3" font-family="Times,serif" font-size="14.00" fill="#0a5040">→ </text>
<text text-anchor="start" x="1095" y="-162.3" font-family="Times,serif" font-size="14.00" fill="#f5a70a"> •</text>
<text text-anchor="start" x="1105" y="-162.3" font-family="Times,serif" font-size="14.00" fill="#bc1f29"> S</text>
</a>
</g>
</g>
<!-- state_10006&#45;&gt;state_10007 -->
<g id="trans_9" class="edge">
<title>state_10006&#45;&gt;state_10007</title>
<path fill="none" stroke="#b8860b" stroke-width="1.5" d="M382.9684,-286.9378C442.7824,-255.5695 542.0258,-205.3189 582,-195.5 748.1374,-154.6916 953.9092,-164.2129 1044.0605,-171.2448"/>
<polygon fill="#b8860b" stroke="#b8860b" stroke-width="1.5" points="1043.966,-174.7485 1054.2154,-172.0651 1044.5297,-167.7712 1043.966,-174.7485"/>
<text text-anchor="start" x="703.5" y="-179.3" font-family="Times,serif" font-size="14.00" fill="#0a5040"> ε</text>
</g>
<!-- state_10009 -->
<g id="state_10009" class="node">
<title>state_10009</title>
<path fill="#f5f5dc" stroke="#b8860b" stroke-width="1.5" d="M1109,-413C1109,-413 1071,-413 1071,-413 1065,-413 1059,-407 1059,-401 1059,-401 1059,-374 1059,-374 1059,-368 1065,-362 1071,-362 1071,-362 1109,-362 1109,-362 1115,-362 1121,-368 1121,-374 1121,-374 1121,-401 1121,-401 1121,-407 1115,-413 1109,-413"/>
<path fill="none" stroke="#b8860b" stroke-width="1.5" d="M1113,-417C1113,-417 1067,-417 1067,-417 1061,-417 1055,-411 1055,-405 1055,-405 1055,-370 1055,-370 1055,-364 1061,-358 1067,-358 1067,-358 1113,-358 1113,-358 1119,-358 1125,-364 1125,-370 1125,-370 1125,-405 1125,-405 1125,-411 1119,-417 1113,-417"/>
<g id="a_state_10009_title"><a xlink:href="#" xlink:title="state_10009_title">
<text text-anchor="start" x="1067" y="-395.1" font-family="Calibri" font-weight="bold" font-size="13.00" fill="#8b4513">Estado </text>
<text text-anchor="start" x="1106" y="-395.1" font-family="Calibri" font-weight="bold" font-size="13.00" fill="#8b4513">9</text>
</a>
</g>
<g id="a_state_10009_item_1"><a xlink:href="#" xlink:title="state_10009_item_1">
<text text-anchor="start" x="1069" y="-374.3" font-family="Times,serif" font-size="14.00" fill="#bc1f29">E </text>
<text text-anchor="start" x="1082" y="-374.3" font-family="Times,serif" font-size="14.00" fill="#0a5040">→ </text>
<text text-anchor="start" x="1101" y="-374.3" font-family="Times,serif" font-size="14.00" fill="#f5a70a"> •</text>
</a>
</g>
</g>
<!-- state_10006&#45;&gt;state_10009 -->
<g id="trans_11" class="edge">
<title>state_10006&#45;&gt;state_10009</title>
<path fill="none" stroke="#b8860b" stroke-width="1.5" d="M349.0991,-338.2643C372.2264,-376.6787 422.1058,-444.5 486,-444.5 486,-444.5 486,-444.5 788,-444.5 880.5544,-444.5 986.3392,-418.3291 1044.9295,-401.454"/>
<polygon fill="#b8860b" stroke="#b8860b" stroke-width="1.5" points="1045.995,-404.7891 1054.6125,-398.6255 1044.0322,-398.0699 1045.995,-404.7891"/>
<text text-anchor="start" x="703.5" y="-448.3" font-family="Times,serif" font-size="14.00" fill="#0a5040"> ε</text>
</g>
<!-- state_10007&#45;&gt;state_10002 -->
<g id="trans_13" class="edge">
<title>state_10007&#45;&gt;state_10002</title>
<path fill="none" stroke="#b8860b" stroke-width="1.5" d="M1054.4647,-159.7413C1024.3434,-147.8236 979.6796,-133.5 939,-133.5 708.5,-133.5 708.5,-133.5 708.5,-133.5 537.5018,-133.5 342.3667,-193.2249 245.7752,-226.9642"/>
<polygon fill="#b8860b" stroke="#b8860b" stroke-width="1.5" points="244.4462,-223.7215 236.177,-230.345 246.7718,-230.3239 244.4462,-223.7215"/>
<text text-anchor="start" x="628" y="-147.3" font-family="Times,serif" font-size="14.00" fill="#0a5040"> ε</text>
</g>
<!-- state_10007&#45;&gt;state_10003 -->
<g id="trans_14" class="edge">
<title>state_10007&#45;&gt;state_10003</title>
<path fill="none" stroke="#b8860b" stroke-width="1.5" d="M1054.1684,-181.4324C1003.6491,-189.7965 910.788,-205.1709 849.2107,-215.3658"/>
<polygon fill="#b8860b" stroke="#b8860b" stroke-width="1.5" points="848.5242,-211.9317 839.2302,-217.0182 849.6676,-218.8377 848.5242,-211.9317"/>
<text text-anchor="start" x="934" y="-213.3" font-family="Times,serif" font-size="14.00" fill="#0a5040"> ε</text>
</g>
<!-- state_10007&#45;&gt;state_10004 -->
<g id="trans_15" class="edge">
<title>state_10007&#45;&gt;state_10004</title>
<path fill="none" stroke="#b8860b" stroke-width="1.5" d="M1125.7855,-170.8971C1167.057,-166.9424 1236.3657,-164.5057 1292,-183.5 1315.4599,-191.5095 1338.2758,-206.6495 1356.5308,-221.1588"/>
<polygon fill="#b8860b" stroke="#b8860b" stroke-width="1.5" points="1354.6288,-224.1251 1364.5832,-227.7529 1359.0638,-218.7093 1354.6288,-224.1251"/>
<text text-anchor="start" x="1236" y="-187.3" font-family="Times,serif" font-size="14.00" fill="#0a5040"> ε</text>
</g>
<!-- state_10012 -->
<g id="state_10012" class="node">
<title>state_10012</title>
<path fill="#f5f5dc" stroke="#b8860b" stroke-width="1.5" d="M1264.5,-263C1264.5,-263 1217.5,-263 1217.5,-263 1211.5,-263 1205.5,-257 1205.5,-251 1205.5,-251 1205.5,-224 1205.5,-224 1205.5,-218 1211.5,-212 1217.5,-212 1217.5,-212 1264.5,-212 1264.5,-212 1270.5,-212 1276.5,-218 1276.5,-224 1276.5,-224 1276.5,-251 1276.5,-251 1276.5,-257 1270.5,-263 1264.5,-263"/>
<path fill="none" stroke="#b8860b" stroke-width="1.5" d="M1268.5,-267C1268.5,-267 1213.5,-267 1213.5,-267 1207.5,-267 1201.5,-261 1201.5,-255 1201.5,-255 1201.5,-220 1201.5,-220 1201.5,-214 1207.5,-208 1213.5,-208 1213.5,-208 1268.5,-208 1268.5,-208 1274.5,-208 1280.5,-214 1280.5,-220 1280.5,-220 1280.5,-255 1280.5,-255 1280.5,-261 1274.5,-267 1268.5,-267"/>
<g id="a_state_10012_title"><a xlink:href="#" xlink:title="state_10012_title">
<text text-anchor="start" x="1215" y="-245.1" font-family="Calibri" font-weight="bold" font-size="13.00" fill="#8b4513">Estado </text>
<text text-anchor="start" x="1254" y="-245.1" font-family="Calibri" font-weight="bold" font-size="13.00" fill="#8b4513">12</text>
</a>
</g>
<g id="a_state_10012_item_1"><a xlink:href="#" xlink:title="state_10012_item_1">
<text text-anchor="start" x="1214" y="-224.3" font-family="Times,serif" font-size="14.00" fill="#bc1f29">E </text>
<text text-anchor="start" x="1227" y="-224.3" font-family="Times,serif" font-size="14.00" fill="#0a5040">→ </text>
<text text-anchor="start" x="1246" y="-224.3" font-family="Times,serif" font-size="14.00" fill="#bc1f29"> S</text>
<text text-anchor="start" x="1259" y="-224.3" font-family="Times,serif" font-size="14.00" fill="#f5a70a"> •</text>
</a>
</g>
</g>
<!-- state_10007&#45;&gt;state_10012 -->
<g id="trans_12" class="edge">
<title>state_10007&#45;&gt;state_10012</title>
<path fill="none" stroke="#b8860b" stroke-width="1.5" d="M1125.7849,-190.1931C1145.6131,-198.3345 1170.5503,-208.5736 1192.1493,-217.4421"/>
<polygon fill="#b8860b" stroke="#b8860b" stroke-width="1.5" points="1190.9114,-220.7173 1201.4914,-221.2779 1193.5702,-214.2419 1190.9114,-220.7173"/>
<text text-anchor="start" x="1159" y="-212.3" font-family="Times,serif" font-size="14.00" fill="#bc1f29"> S</text>
</g>
<!-- state_10010&#45;&gt;state_10008 -->
<g id="trans_19" class="edge">
<title>state_10010&#45;&gt;state_10008</title>
<path fill="none" stroke="#b8860b" stroke-width="1.5" d="M990.1217,-289.3651C1008.5744,-294.0088 1029.2035,-299.2002 1046.9013,-303.654"/>
<polygon fill="#b8860b" stroke="#b8860b" stroke-width="1.5" points="1046.3923,-307.1349 1056.9441,-306.1813 1048.1006,-300.3466 1046.3923,-307.1349"/>
<text text-anchor="start" x="1009.5" y="-301.3" font-family="Times,serif" font-size="14.00" fill="#0a5040"> ε</text>
</g>
<!-- state_10010&#45;&gt;state_10015 -->
<g id="trans_17" class="edge">
<title>state_10010&#45;&gt;state_10015</title>
<path fill="none" stroke="#b8860b" stroke-width="1.5" d="M990.1217,-266.0048C1002.5438,-263.4546 1015.9522,-260.7019 1028.7887,-258.0666"/>
<polygon fill="#b8860b" stroke="#b8860b" stroke-width="1.5" points="1029.8391,-261.424 1038.9309,-255.9844 1028.4313,-254.567 1029.8391,-261.424"/>
<text text-anchor="start" x="1008" y="-266.3" font-family="Times,serif" font-size="14.00" fill="#bc1f29"> E</text>
</g>
<!-- state_10010&#45;&gt;state_10007 -->
<g id="trans_18" class="edge">
<title>state_10010&#45;&gt;state_10007</title>
<path fill="none" stroke="#b8860b" stroke-width="1.5" d="M977.4944,-250.7521C998.3989,-236.7696 1024.3319,-219.4237 1046.0298,-204.9105"/>
<polygon fill="#b8860b" stroke="#b8860b" stroke-width="1.5" points="1048.0588,-207.7642 1054.425,-199.2952 1044.167,-201.9457 1048.0588,-207.7642"/>
<text text-anchor="start" x="1009.5" y="-233.3" font-family="Times,serif" font-size="14.00" fill="#0a5040"> ε</text>
</g>
<!-- state_10010&#45;&gt;state_10009 -->
<g id="trans_20" class="edge">
<title>state_10010&#45;&gt;state_10009</title>
<path fill="none" stroke="#b8860b" stroke-width="1.5" d="M974.022,-302.2446C995.6707,-318.1586 1023.6233,-338.7065 1046.6619,-355.6422"/>
<polygon fill="#b8860b" stroke="#b8860b" stroke-width="1.5" points="1044.7764,-358.6001 1054.9067,-361.703 1048.9225,-352.96 1044.7764,-358.6001"/>
<text text-anchor="start" x="1009.5" y="-339.3" font-family="Times,serif" font-size="14.00" fill="#0a5040"> ε</text>
</g>
<!-- state_10016&#45;&gt;state_10002 -->
<g id="trans_24" class="edge">
<title>state_10016&#45;&gt;state_10002</title>
<path fill="none" stroke="#b8860b" stroke-width="1.5" d="M581.8645,-276.0757C499.0138,-270.5277 335.7487,-259.5948 246.6199,-253.6263"/>
<polygon fill="#b8860b" stroke="#b8860b" stroke-width="1.5" points="246.6028,-250.1174 236.3913,-252.9414 246.1351,-257.1018 246.6028,-250.1174"/>
<text text-anchor="start" x="405.5" y="-269.3" font-family="Times,serif" font-size="14.00" fill="#0a5040"> ε</text>
</g>
<!-- state_10016&#45;&gt;state_10003 -->
<g id="trans_25" class="edge">
<title>state_10016&#45;&gt;state_10003</title>
<path fill="none" stroke="#b8860b" stroke-width="1.5" d="M684.3655,-257.1505C690.2744,-254.8067 696.2431,-252.5389 702,-250.5 710.0061,-247.6644 718.5112,-244.9007 726.9378,-242.3073"/>
<polygon fill="#b8860b" stroke="#b8860b" stroke-width="1.5" points="728.1948,-245.584 736.7592,-239.3469 726.1746,-238.8819 728.1948,-245.584"/>
<text text-anchor="start" x="703.5" y="-254.3" font-family="Times,serif" font-size="14.00" fill="#0a5040"> ε</text>
</g>
<!-- state_10016&#45;&gt;state_10004 -->
<g id="trans_26" class="edge">
<title>state_10016&#45;&gt;state_10004</title>
<path fill="none" stroke="#b8860b" stroke-width="1.5" d="M684.0597,-271.9741C729.2384,-267.9843 795.2217,-268.9232 843,-298.5 875.4067,-318.5611 865.6531,-340.6251 888,-371.5 939.1327,-442.1458 927.2912,-521.5 1014.5,-521.5 1014.5,-521.5 1014.5,-521.5 1241,-521.5 1318.9186,-521.5 1313.1622,-450.2761 1341,-377.5 1351.5784,-349.8451 1365.4881,-319.5395 1376.6723,-296.3025"/>
<polygon fill="#b8860b" stroke="#b8860b" stroke-width="1.5" points="1379.9083,-297.6507 1381.124,-287.1259 1373.6102,-294.5954 1379.9083,-297.6507"/>
<text text-anchor="start" x="1009.5" y="-525.3" font-family="Times,serif" font-size="14.00" fill="#0a5040"> ε</text>
</g>
<!-- state_10018 -->
<g id="state_10018" class="node">
<title>state_10018</title>
<path fill="#f5f5dc" stroke="#b8860b" stroke-width="1.5" d="M827,-363C827,-363 749,-363 749,-363 743,-363 737,-357 737,-351 737,-351 737,-324 737,-324 737,-318 743,-312 749,-312 749,-312 827,-312 827,-312 833,-312 839,-318 839,-324 839,-324 839,-351 839,-351 839,-357 833,-363 827,-363"/>
<path fill="none" stroke="#b8860b" stroke-width="1.5" d="M831,-367C831,-367 745,-367 745,-367 739,-367 733,-361 733,-355 733,-355 733,-320 733,-320 733,-314 739,-308 745,-308 745,-308 831,-308 831,-308 837,-308 843,-314 843,-320 843,-320 843,-355 843,-355 843,-361 837,-367 831,-367"/>
<g id="a_state_10018_title"><a xlink:href="#" xlink:title="state_10018_title">
<text text-anchor="start" x="761.5" y="-345.1" font-family="Calibri" font-weight="bold" font-size="13.00" fill="#8b4513">Estado </text>
<text text-anchor="start" x="800.5" y="-345.1" font-family="Calibri" font-weight="bold" font-size="13.00" fill="#8b4513">18</text>
</a>
</g>
<g id="a_state_10018_item_1"><a xlink:href="#" xlink:title="state_10018_item_1">
<text text-anchor="start" x="745" y="-324.3" font-family="Times,serif" font-size="14.00" fill="#bc1f29">S </text>
<text text-anchor="start" x="758" y="-324.3" font-family="Times,serif" font-size="14.00" fill="#0a5040">→ </text>
<text text-anchor="start" x="777" y="-324.3" font-family="Times,serif" font-size="14.00" fill="#0a5040"> (</text>
<text text-anchor="start" x="786" y="-324.3" font-family="Times,serif" font-size="14.00" fill="#bc1f29"> E</text>
<text text-anchor="start" x="799" y="-324.3" font-family="Times,serif" font-size="14.00" fill="#0a5040"> )</text>
<text text-anchor="start" x="808" y="-324.3" font-family="Times,serif" font-size="14.00" fill="#bc1f29"> S</text>
<text text-anchor="start" x="821" y="-324.3" font-family="Times,serif" font-size="14.00" fill="#f5a70a"> •</text>
</a>
</g>
</g>
<!-- state_10016&#45;&gt;state_10018 -->
<g id="trans_23" class="edge">
<title>state_10016&#45;&gt;state_10018</title>
<path fill="none" stroke="#b8860b" stroke-width="1.5" d="M684.1824,-298.6521C696.7418,-303.3518 710.3476,-308.443 723.4457,-313.3442"/>
<polygon fill="#b8860b" stroke="#b8860b" stroke-width="1.5" points="722.2787,-316.6445 732.8712,-316.8711 724.732,-310.0884 722.2787,-316.6445"/>
<text text-anchor="start" x="702" y="-312.3" font-family="Times,serif" font-size="14.00" fill="#bc1f29"> S</text>
</g>
<!-- state_10017&#45;&gt;state_10002 -->
<g id="trans_28" class="edge">
<title>state_10017&#45;&gt;state_10002</title>
<path fill="none" stroke="#b8860b" stroke-width="1.5" d="M1206.0128,-442.021C1176.5789,-460.9551 1132.5898,-483.5 1090,-483.5 335,-483.5 335,-483.5 335,-483.5 242.0165,-483.5 204.0267,-350.9253 190.9236,-285.3541"/>
<polygon fill="#b8860b" stroke="#b8860b" stroke-width="1.5" points="194.3434,-284.6022 189.0297,-275.4362 187.4676,-285.9152 194.3434,-284.6022"/>
<text text-anchor="start" x="703.5" y="-487.3" font-family="Times,serif" font-size="14.00" fill="#0a5040"> ε</text>
</g>
<!-- state_10017&#45;&gt;state_10003 -->
<g id="trans_29" class="edge">
<title>state_10017&#45;&gt;state_10003</title>
<path fill="none" stroke="#b8860b" stroke-width="1.5" d="M1189.7509,-429.2639C1148.0299,-437.2633 1088.2038,-443.2177 1039,-426.5 958.8709,-399.275 951.6111,-366.3167 888,-310.5 866.74,-291.845 864.5031,-283.8743 843,-265.5 839.8191,-262.7819 836.4649,-260.0499 833.0463,-257.3598"/>
<polygon fill="#b8860b" stroke="#b8860b" stroke-width="1.5" points="835.0676,-254.4991 825.0042,-251.1855 830.8048,-260.0514 835.0676,-254.4991"/>
<text text-anchor="start" x="1009.5" y="-422.3" font-family="Times,serif" font-size="14.00" fill="#0a5040"> ε</text>
</g>
<!-- state_10017&#45;&gt;state_10004 -->
<g id="trans_30" class="edge">
<title>state_10017&#45;&gt;state_10004</title>
<path fill="none" stroke="#b8860b" stroke-width="1.5" d="M1265.9034,-390.9539C1291.385,-364.8147 1331.23,-323.9414 1360.1131,-294.313"/>
<polygon fill="#b8860b" stroke="#b8860b" stroke-width="1.5" points="1362.7305,-296.6422 1367.2047,-287.0384 1357.718,-291.7558 1362.7305,-296.6422"/>
<text text-anchor="start" x="1311.5" y="-346.3" font-family="Times,serif" font-size="14.00" fill="#0a5040"> ε</text>
</g>
<!-- state_10019 -->
<g id="state_10019" class="node">
<title>state_10019</title>
<path fill="#f5f5dc" stroke="#b8860b" stroke-width="1.5" d="M1435,-442C1435,-442 1357,-442 1357,-442 1351,-442 1345,-436 1345,-430 1345,-430 1345,-403 1345,-403 1345,-397 1351,-391 1357,-391 1357,-391 1435,-391 1435,-391 1441,-391 1447,-397 1447,-403 1447,-403 1447,-430 1447,-430 1447,-436 1441,-442 1435,-442"/>
<path fill="none" stroke="#b8860b" stroke-width="1.5" d="M1439,-446C1439,-446 1353,-446 1353,-446 1347,-446 1341,-440 1341,-434 1341,-434 1341,-399 1341,-399 1341,-393 1347,-387 1353,-387 1353,-387 1439,-387 1439,-387 1445,-387 1451,-393 1451,-399 1451,-399 1451,-434 1451,-434 1451,-440 1445,-446 1439,-446"/>
<g id="a_state_10019_title"><a xlink:href="#" xlink:title="state_10019_title">
<text text-anchor="start" x="1369.5" y="-424.1" font-family="Calibri" font-weight="bold" font-size="13.00" fill="#8b4513">Estado </text>
<text text-anchor="start" x="1408.5" y="-424.1" font-family="Calibri" font-weight="bold" font-size="13.00" fill="#8b4513">19</text>
</a>
</g>
<g id="a_state_10019_item_1"><a xlink:href="#" xlink:title="state_10019_item_1">
<text text-anchor="start" x="1353" y="-403.3" font-family="Times,serif" font-size="14.00" fill="#bc1f29">S </text>
<text text-anchor="start" x="1366" y="-403.3" font-family="Times,serif" font-size="14.00" fill="#0a5040">→ </text>
<text text-anchor="start" x="1385" y="-403.3" font-family="Times,serif" font-size="14.00" fill="#0a5040"> [</text>
<text text-anchor="start" x="1394" y="-403.3" font-family="Times,serif" font-size="14.00" fill="#bc1f29"> E</text>
<text text-anchor="start" x="1407" y="-403.3" font-family="Times,serif" font-size="14.00" fill="#0a5040"> ]</text>
<text text-anchor="start" x="1416" y="-403.3" font-family="Times,serif" font-size="14.00" fill="#bc1f29"> S</text>
<text text-anchor="start" x="1429" y="-403.3" font-family="Times,serif" font-size="14.00" fill="#f5a70a"> •</text>
</a>
</g>
</g>
<!-- state_10017&#45;&gt;state_10019 -->
<g id="trans_27" class="edge">
<title>state_10017&#45;&gt;state_10019</title>
<path fill="none" stroke="#b8860b" stroke-width="1.5" d="M1292.1824,-416.5C1304.4979,-416.5 1317.8196,-416.5 1330.6821,-416.5"/>
<polygon fill="#b8860b" stroke="#b8860b" stroke-width="1.5" points="1330.8712,-420.0001 1340.8712,-416.5 1330.8711,-413.0001 1330.8712,-420.0001"/>
<text text-anchor="start" x="1310" y="-420.3" font-family="Times,serif" font-size="14.00" fill="#bc1f29"> S</text>
</g>
</g>
</svg>
