<?xml version="1.0" encoding="UTF-8" standalone="no"?>
<!DOCTYPE svg PUBLIC "-//W3C//DTD SVG 1.1//EN"
 "http://www.w3.org/Graphics/SVG/1.1/DTD/svg11.dtd">
<!-- Generated by graphviz version 2.40.1 (20161225.0304)
 -->
<!-- Title: NFA Pages: 1 -->
<svg width="852pt" height="257pt"
 viewBox="0.00 0.00 852.00 256.50" xmlns="http://www.w3.org/2000/svg" xmlns:xlink="http://www.w3.org/1999/xlink">
<g id="graph0" class="graph" transform="scale(1 1) rotate(0) translate(4 252.5)">
<title>NFA</title>
<!-- state_10002 -->
<g id="state_10002" class="node">
<title>state_10002</title>
<path fill="#fffff0" stroke="#b8860b" stroke-width="1.5" d="M224,-146C224,-146 146,-146 146,-146 140,-146 134,-140 134,-134 134,-134 134,-107 134,-107 134,-101 140,-95 146,-95 146,-95 224,-95 224,-95 230,-95 236,-101 236,-107 236,-107 236,-134 236,-134 236,-140 230,-146 224,-146"/>
<g id="a_state_10002_title"><a xlink:href="#" xlink:title="state_10002_title">
<text text-anchor="start" x="162" y="-128.1" font-family="Calibri" font-weight="bold" font-size="13.00" fill="#8b4513">Estado </text>
<text text-anchor="start" x="201" y="-128.1" font-family="Calibri" font-weight="bold" font-size="13.00" fill="#8b4513">2</text>
</a>
</g>
<g id="a_state_10002_item_1"><a xlink:href="#" xlink:title="state_10002_item_1">
<text text-anchor="start" x="142" y="-107.3" font-family="Times,serif" font-size="14.00" fill="#bc1f29">S </text>
<text text-anchor="start" x="155" y="-107.3" font-family="Times,serif" font-size="14.00" fill="#0a5040">→ </text>
<text text-anchor="start" x="174" y="-107.3" font-family="Times,serif" font-size="14.00" fill="#f5a70a"> •</text>
<text text-anchor="start" x="184" y="-107.3" font-family="Times,serif" font-size="14.00" fill="#0a5040"> (</text>
<text text-anchor="start" x="193" y="-107.3" font-family="Times,serif" font-size="14.00" fill="#bc1f29"> S</text>
<text text-anchor="start" x="206" y="-107.3" font-family="Times,serif" font-size="14.00" fill="#0a5040"> )</text>
<text text-anchor="start" x="215" y="-107.3" font-family="Times,serif" font-size="14.00" fill="#bc1f29"> S</text>
</a>
</g>
</g>
<!-- state_10005 -->
<g id="state_10005" class="node">
<title>state_10005</title>
<path fill="#fffff0" stroke="#b8860b" stroke-width="1.5" d="M374,-176C374,-176 296,-176 296,-176 290,-176 284,-170 284,-164 284,-164 284,-137 284,-137 284,-131 290,-125 296,-125 296,-125 374,-125 374,-125 380,-125 386,-131 386,-137 386,-137 386,-164 386,-164 386,-170 380,-176 374,-176"/>
<g id="a_state_10005_title"><a xlink:href="#" xlink:title="state_10005_title">
<text text-anchor="start" x="312" y="-158.1" font-family="Calibri" font-weight="bold" font-size="13.00" fill="#8b4513">Estado </text>
<text text-anchor="start" x="351" y="-158.1" font-family="Calibri" font-weight="bold" font-size="13.00" fill="#8b4513">5</text>
</a>
</g>
<g id="a_state_10005_item_1"><a xlink:href="#" xlink:title="state_10005_item_1">
<text text-anchor="start" x="292" y="-137.3" font-family="Times,serif" font-size="14.00" fill="#bc1f29">S </text>
<text text-anchor="start" x="305" y="-137.3" font-family="Times,serif" font-size="14.00" fill="#0a5040">→ </text>
<text text-anchor="start" x="324" y="-137.3" font-family="Times,serif" font-size="14.00" fill="#0a5040"> (</text>
<text text-anchor="start" x="333" y="-137.3" font-family="Times,serif" font-size="14.00" fill="#f5a70a"> •</text>
<text text-anchor="start" x="343" y="-137.3" font-family="Times,serif" font-size="14.00" fill="#bc1f29"> S</text>
<text text-anchor="start" x="356" y="-137.3" font-family="Times,serif" font-size="14.00" fill="#0a5040"> )</text>
<text text-anchor="start" x="365" y="-137.3" font-family="Times,serif" font-size="14.00" fill="#bc1f29"> S</text>
</a>
</g>
</g>
<!-- state_10002&#45;&gt;state_10005 -->
<g id="trans_4" class="edge">
<title>state_10002&#45;&gt;state_10005</title>
<path fill="none" stroke="#b8860b" stroke-width="1.5" d="M236.3109,-118.1574C246.236,-118.5399 256.4995,-119.5236 266,-121.5 268.6517,-122.0516 271.329,-122.7057 274.0102,-123.4419"/>
<polygon fill="#b8860b" stroke="#b8860b" stroke-width="1.5" points="273.1092,-126.8266 283.6966,-126.4302 275.1728,-120.1377 273.1092,-126.8266"/>
<text text-anchor="start" x="255.5" y="-125.3" font-family="Times,serif" font-size="14.00" fill="#0a5040"> (</text>
</g>
<!-- state_10004 -->
<g id="state_10004" class="node">
<title>state_10004</title>
<path fill="#fffff0" stroke="#b8860b" stroke-width="1.5" d="M215.5,-66C215.5,-66 154.5,-66 154.5,-66 148.5,-66 142.5,-60 142.5,-54 142.5,-54 142.5,-27 142.5,-27 142.5,-21 148.5,-15 154.5,-15 154.5,-15 215.5,-15 215.5,-15 221.5,-15 227.5,-21 227.5,-27 227.5,-27 227.5,-54 227.5,-54 227.5,-60 221.5,-66 215.5,-66"/>
<g id="a_state_10004_title"><a xlink:href="#" xlink:title="state_10004_title">
<text text-anchor="start" x="162.5" y="-48.1" font-family="Calibri" font-weight="bold" font-size="13.00" fill="#8b4513">Estado </text>
<text text-anchor="start" x="201.5" y="-48.1" font-family="Calibri" font-weight="bold" font-size="13.00" fill="#8b4513">4</text>
</a>
</g>
<g id="a_state_10004_item_1"><a xlink:href="#" xlink:title="state_10004_item_1">
<text text-anchor="start" x="151" y="-27.3" font-family="Times,serif" font-size="14.00" fill="#bc1f29">S&#39; </text>
<text text-anchor="start" x="166" y="-27.3" font-family="Times,serif" font-size="14.00" fill="#0a5040">→ </text>
<text text-anchor="start" x="185" y="-27.3" font-family="Times,serif" font-size="14.00" fill="#bc1f29"> S</text>
<text text-anchor="start" x="198" y="-27.3" font-family="Times,serif" font-size="14.00" fill="#f5a70a"> •</text>
<text text-anchor="start" x="208" y="-27.3" font-family="Times,serif" font-size="14.00" fill="#0a5040"> $</text>
</a>
</g>
</g>
<!-- state_10006 -->
<g id="state_10006" class="node">
<title>state_10006</title>
<path fill="#f5f5dc" stroke="#b8860b" stroke-width="1.5" d="M365.5,-55C365.5,-55 304.5,-55 304.5,-55 298.5,-55 292.5,-49 292.5,-43 292.5,-43 292.5,-16 292.5,-16 292.5,-10 298.5,-4 304.5,-4 304.5,-4 365.5,-4 365.5,-4 371.5,-4 377.5,-10 377.5,-16 377.5,-16 377.5,-43 377.5,-43 377.5,-49 371.5,-55 365.5,-55"/>
<path fill="none" stroke="#b8860b" stroke-width="1.5" d="M369.5,-59C369.5,-59 300.5,-59 300.5,-59 294.5,-59 288.5,-53 288.5,-47 288.5,-47 288.5,-12 288.5,-12 288.5,-6 294.5,0 300.5,0 300.5,0 369.5,0 369.5,0 375.5,0 381.5,-6 381.5,-12 381.5,-12 381.5,-47 381.5,-47 381.5,-53 375.5,-59 369.5,-59"/>
<g id="a_state_10006_title"><a xlink:href="#" xlink:title="state_10006_title">
<text text-anchor="start" x="312.5" y="-37.1" font-family="Calibri" font-weight="bold" font-size="13.00" fill="#8b4513">Estado </text>
<text text-anchor="start" x="351.5" y="-37.1" font-family="Calibri" font-weight="bold" font-size="13.00" fill="#8b4513">6</text>
</a>
</g>
<g id="a_state_10006_item_1"><a xlink:href="#" xlink:title="state_10006_item_1">
<text text-anchor="start" x="301" y="-16.3" font-family="Times,serif" font-size="14.00" fill="#bc1f29">S&#39; </text>
<text text-anchor="start" x="316" y="-16.3" font-family="Times,serif" font-size="14.00" fill="#0a5040">→ </text>
<text text-anchor="start" x="335" y="-16.3" font-family="Times,serif" font-size="14.00" fill="#bc1f29"> S</text>
<text text-anchor="start" x="348" y="-16.3" font-family="Times,serif" font-size="14.00" fill="#0a5040"> $</text>
<text text-anchor="start" x="360" y="-16.3" font-family="Times,serif" font-size="14.00" fill="#f5a70a"> •</text>
</a>
</g>
</g>
<!-- state_10004&#45;&gt;state_10006 -->
<g id="trans_5" class="edge">
<title>state_10004&#45;&gt;state_10006</title>
<path fill="none" stroke="#b8860b" stroke-width="1.5" d="M227.5828,-37.3773C243.2911,-36.2253 261.3487,-34.9011 278.1204,-33.6712"/>
<polygon fill="#b8860b" stroke="#b8860b" stroke-width="1.5" points="278.6473,-37.142 288.3645,-32.9199 278.1353,-30.1608 278.6473,-37.142"/>
<text text-anchor="start" x="254" y="-39.3" font-family="Times,serif" font-size="14.00" fill="#0a5040"> $</text>
</g>
<!-- state_10007 -->
<g id="state_10007" class="node">
<title>state_10007</title>
<path fill="#fffff0" stroke="#b8860b" stroke-width="1.5" d="M525,-167C525,-167 447,-167 447,-167 441,-167 435,-161 435,-155 435,-155 435,-128 435,-128 435,-122 441,-116 447,-116 447,-116 525,-116 525,-116 531,-116 537,-122 537,-128 537,-128 537,-155 537,-155 537,-161 531,-167 525,-167"/>
<g id="a_state_10007_title"><a xlink:href="#" xlink:title="state_10007_title">
<text text-anchor="start" x="463" y="-149.1" font-family="Calibri" font-weight="bold" font-size="13.00" fill="#8b4513">Estado </text>
<text text-anchor="start" x="502" y="-149.1" font-family="Calibri" font-weight="bold" font-size="13.00" fill="#8b4513">7</text>
</a>
</g>
<g id="a_state_10007_item_1"><a xlink:href="#" xlink:title="state_10007_item_1">
<text text-anchor="start" x="443" y="-128.3" font-family="Times,serif" font-size="14.00" fill="#bc1f29">S </text>
<text text-anchor="start" x="456" y="-128.3" font-family="Times,serif" font-size="14.00" fill="#0a5040">→ </text>
<text text-anchor="start" x="475" y="-128.3" font-family="Times,serif" font-size="14.00" fill="#0a5040"> (</text>
<text text-anchor="start" x="484" y="-128.3" font-family="Times,serif" font-size="14.00" fill="#bc1f29"> S</text>
<text text-anchor="start" x="497" y="-128.3" font-family="Times,serif" font-size="14.00" fill="#f5a70a"> •</text>
<text text-anchor="start" x="507" y="-128.3" font-family="Times,serif" font-size="14.00" fill="#0a5040"> )</text>
<text text-anchor="start" x="516" y="-128.3" font-family="Times,serif" font-size="14.00" fill="#bc1f29"> S</text>
</a>
</g>
</g>
<!-- state_10008 -->
<g id="state_10008" class="node">
<title>state_10008</title>
<path fill="#fffff0" stroke="#b8860b" stroke-width="1.5" d="M673,-150C673,-150 595,-150 595,-150 589,-150 583,-144 583,-138 583,-138 583,-111 583,-111 583,-105 589,-99 595,-99 595,-99 673,-99 673,-99 679,-99 685,-105 685,-111 685,-111 685,-138 685,-138 685,-144 679,-150 673,-150"/>
<g id="a_state_10008_title"><a xlink:href="#" xlink:title="state_10008_title">
<text text-anchor="start" x="611" y="-132.1" font-family="Calibri" font-weight="bold" font-size="13.00" fill="#8b4513">Estado </text>
<text text-anchor="start" x="650" y="-132.1" font-family="Calibri" font-weight="bold" font-size="13.00" fill="#8b4513">8</text>
</a>
</g>
<g id="a_state_10008_item_1"><a xlink:href="#" xlink:title="state_10008_item_1">
<text text-anchor="start" x="591" y="-111.3" font-family="Times,serif" font-size="14.00" fill="#bc1f29">S </text>
<text text-anchor="start" x="604" y="-111.3" font-family="Times,serif" font-size="14.00" fill="#0a5040">→ </text>
<text text-anchor="start" x="623" y="-111.3" font-family="Times,serif" font-size="14.00" fill="#0a5040"> (</text>
<text text-anchor="start" x="632" y="-111.3" font-family="Times,serif" font-size="14.00" fill="#bc1f29"> S</text>
<text text-anchor="start" x="645" y="-111.3" font-family="Times,serif" font-size="14.00" fill="#0a5040"> )</text>
<text text-anchor="start" x="654" y="-111.3" font-family="Times,serif" font-size="14.00" fill="#f5a70a"> •</text>
<text text-anchor="start" x="664" y="-111.3" font-family="Times,serif" font-size="14.00" fill="#bc1f29"> S</text>
</a>
</g>
</g>
<!-- state_10007&#45;&gt;state_10008 -->
<g id="trans_9" class="edge">
<title>state_10007&#45;&gt;state_10008</title>
<path fill="none" stroke="#b8860b" stroke-width="1.5" d="M537.3479,-135.6019C548.7127,-134.2965 560.8664,-132.9005 572.5862,-131.5543"/>
<polygon fill="#b8860b" stroke="#b8860b" stroke-width="1.5" points="573.2077,-135.006 582.7429,-130.3876 572.4088,-128.0517 573.2077,-135.006"/>
<text text-anchor="start" x="555.5" y="-137.3" font-family="Times,serif" font-size="14.00" fill="#0a5040"> )</text>
</g>
<!-- state_10001 -->
<g id="state_10001" class="node">
<title>state_10001</title>
<path fill="#fffff0" stroke="#b8860b" stroke-width="1.5" d="M73,-146C73,-146 12,-146 12,-146 6,-146 0,-140 0,-134 0,-134 0,-107 0,-107 0,-101 6,-95 12,-95 12,-95 73,-95 73,-95 79,-95 85,-101 85,-107 85,-107 85,-134 85,-134 85,-140 79,-146 73,-146"/>
<g id="a_state_10001_title"><a xlink:href="#" xlink:title="state_10001_title">
<text text-anchor="start" x="20" y="-128.1" font-family="Calibri" font-weight="bold" font-size="13.00" fill="#8b4513">Estado </text>
<text text-anchor="start" x="59" y="-128.1" font-family="Calibri" font-weight="bold" font-size="13.00" fill="#8b4513">1</text>
</a>
</g>
<g id="a_state_10001_item_1"><a xlink:href="#" xlink:title="state_10001_item_1">
<text text-anchor="start" x="8.5" y="-107.3" font-family="Times,serif" font-size="14.00" fill="#bc1f29">S&#39; </text>
<text text-anchor="start" x="23.5" y="-107.3" font-family="Times,serif" font-size="14.00" fill="#0a5040">→ </text>
<text text-anchor="start" x="42.5" y="-107.3" font-family="Times,serif" font-size="14.00" fill="#f5a70a"> •</text>
<text text-anchor="start" x="52.5" y="-107.3" font-family="Times,serif" font-size="14.00" fill="#bc1f29"> S</text>
<text text-anchor="start" x="65.5" y="-107.3" font-family="Times,serif" font-size="14.00" fill="#0a5040"> $</text>
</a>
</g>
</g>
<!-- state_10001&#45;&gt;state_10002 -->
<g id="trans_2" class="edge">
<title>state_10001&#45;&gt;state_10002</title>
<path fill="none" stroke="#b8860b" stroke-width="1.5" d="M85.2547,-120.5C97.3514,-120.5 110.7601,-120.5 123.7198,-120.5"/>
<polygon fill="#b8860b" stroke="#b8860b" stroke-width="1.5" points="123.9835,-124.0001 133.9834,-120.5 123.9834,-117.0001 123.9835,-124.0001"/>
<text text-anchor="start" x="104.5" y="-124.3" font-family="Times,serif" font-size="14.00" fill="#0a5040"> ε</text>
</g>
<!-- state_10001&#45;&gt;state_10004 -->
<g id="trans_1" class="edge">
<title>state_10001&#45;&gt;state_10004</title>
<path fill="none" stroke="#b8860b" stroke-width="1.5" d="M85.2547,-96.4974C100.3315,-88.0332 117.4464,-78.4248 133.1901,-69.5863"/>
<polygon fill="#b8860b" stroke="#b8860b" stroke-width="1.5" points="135.269,-72.433 142.2755,-64.4857 131.8422,-66.3291 135.269,-72.433"/>
<text text-anchor="start" x="103" y="-88.3" font-family="Times,serif" font-size="14.00" fill="#bc1f29"> S</text>
</g>
<!-- state_10003 -->
<g id="state_10003" class="node">
<title>state_10003</title>
<path fill="#f5f5dc" stroke="#b8860b" stroke-width="1.5" d="M808,-224C808,-224 770,-224 770,-224 764,-224 758,-218 758,-212 758,-212 758,-185 758,-185 758,-179 764,-173 770,-173 770,-173 808,-173 808,-173 814,-173 820,-179 820,-185 820,-185 820,-212 820,-212 820,-218 814,-224 808,-224"/>
<path fill="none" stroke="#b8860b" stroke-width="1.5" d="M812,-228C812,-228 766,-228 766,-228 760,-228 754,-222 754,-216 754,-216 754,-181 754,-181 754,-175 760,-169 766,-169 766,-169 812,-169 812,-169 818,-169 824,-175 824,-181 824,-181 824,-216 824,-216 824,-222 818,-228 812,-228"/>
<g id="a_state_10003_title"><a xlink:href="#" xlink:title="state_10003_title">
<text text-anchor="start" x="766" y="-206.1" font-family="Calibri" font-weight="bold" font-size="13.00" fill="#8b4513">Estado </text>
<text text-anchor="start" x="805" y="-206.1" font-family="Calibri" font-weight="bold" font-size="13.00" fill="#8b4513">3</text>
</a>
</g>
<g id="a_state_10003_item_1"><a xlink:href="#" xlink:title="state_10003_item_1">
<text text-anchor="start" x="768" y="-185.3" font-family="Times,serif" font-size="14.00" fill="#bc1f29">S </text>
<text text-anchor="start" x="781" y="-185.3" font-family="Times,serif" font-size="14.00" fill="#0a5040">→ </text>
<text text-anchor="start" x="800" y="-185.3" font-family="Times,serif" font-size="14.00" fill="#f5a70a"> •</text>
</a>
</g>
</g>
<!-- state_10001&#45;&gt;state_10003 -->
<g id="trans_3" class="edge">
<title>state_10001&#45;&gt;state_10003</title>
<path fill="none" stroke="#b8860b" stroke-width="1.5" d="M58.8694,-146.1414C82.3868,-179.4812 129.1141,-233.5 185,-233.5 185,-233.5 185,-233.5 634,-233.5 671.6738,-233.5 713.2614,-223.5402 743.8664,-214.2466"/>
<polygon fill="#b8860b" stroke="#b8860b" stroke-width="1.5" points="745.3055,-217.4637 753.803,-211.1358 743.214,-210.7834 745.3055,-217.4637"/>
<text text-anchor="start" x="405.5" y="-237.3" font-family="Times,serif" font-size="14.00" fill="#0a5040"> ε</text>
</g>
<!-- state_10005&#45;&gt;state_10002 -->
<g id="trans_7" class="edge">
<title>state_10005&#45;&gt;state_10002</title>
<path fill="none" stroke="#b8860b" stroke-width="1.5" d="M283.9311,-142.1268C273.9849,-140.3681 263.6517,-138.4515 254,-136.5 251.3785,-135.9699 248.7043,-135.4145 246.0054,-134.8417"/>
<polygon fill="#b8860b" stroke="#b8860b" stroke-width="1.5" points="246.6894,-131.4087 236.1743,-132.7067 245.2038,-138.2493 246.6894,-131.4087"/>
<text text-anchor="start" x="255" y="-142.3" font-family="Times,serif" font-size="14.00" fill="#0a5040"> ε</text>
</g>
<!-- state_10005&#45;&gt;state_10007 -->
<g id="trans_6" class="edge">
<title>state_10005&#45;&gt;state_10007</title>
<path fill="none" stroke="#b8860b" stroke-width="1.5" d="M386.1217,-147.453C398.5438,-146.7126 411.9522,-145.9134 424.7887,-145.1484"/>
<polygon fill="#b8860b" stroke="#b8860b" stroke-width="1.5" points="425.1569,-148.6327 434.9309,-144.5439 424.7404,-141.6451 425.1569,-148.6327"/>
<text text-anchor="start" x="404" y="-149.3" font-family="Times,serif" font-size="14.00" fill="#bc1f29"> S</text>
</g>
<!-- state_10005&#45;&gt;state_10003 -->
<g id="trans_8" class="edge">
<title>state_10005&#45;&gt;state_10003</title>
<path fill="none" stroke="#b8860b" stroke-width="1.5" d="M386.2434,-165.8424C401.7746,-169.9435 418.9686,-173.9422 435,-176.5 544.8121,-194.0206 675.8549,-197.77 743.5299,-198.4586"/>
<polygon fill="#b8860b" stroke="#b8860b" stroke-width="1.5" points="743.8054,-201.9609 753.8342,-198.5445 743.8638,-194.9612 743.8054,-201.9609"/>
<text text-anchor="start" x="555" y="-194.3" font-family="Times,serif" font-size="14.00" fill="#0a5040"> ε</text>
</g>
<!-- state_10008&#45;&gt;state_10002 -->
<g id="trans_11" class="edge">
<title>state_10008&#45;&gt;state_10002</title>
<path fill="none" stroke="#b8860b" stroke-width="1.5" d="M582.871,-113.8295C568.1346,-111.2196 551.9887,-108.8035 537,-107.5 435.2375,-98.6501 316.4137,-106.8835 246.1165,-113.6748"/>
<polygon fill="#b8860b" stroke="#b8860b" stroke-width="1.5" points="245.712,-110.1976 236.1046,-114.6641 246.4004,-117.1637 245.712,-110.1976"/>
<text text-anchor="start" x="405.5" y="-107.3" font-family="Times,serif" font-size="14.00" fill="#0a5040"> ε</text>
</g>
<!-- state_10008&#45;&gt;state_10003 -->
<g id="trans_12" class="edge">
<title>state_10008&#45;&gt;state_10003</title>
<path fill="none" stroke="#b8860b" stroke-width="1.5" d="M685.1824,-148.9355C704.3429,-158.0831 725.9387,-168.3933 744.4519,-177.2319"/>
<polygon fill="#b8860b" stroke="#b8860b" stroke-width="1.5" points="743.0124,-180.423 753.5446,-181.5729 746.0283,-174.106 743.0124,-180.423"/>
<text text-anchor="start" x="704.5" y="-165.3" font-family="Times,serif" font-size="14.00" fill="#0a5040"> ε</text>
</g>
<!-- state_10009 -->
<g id="state_10009" class="node">
<title>state_10009</title>
<path fill="#f5f5dc" stroke="#b8860b" stroke-width="1.5" d="M828,-147C828,-147 750,-147 750,-147 744,-147 738,-141 738,-135 738,-135 738,-108 738,-108 738,-102 744,-96 750,-96 750,-96 828,-96 828,-96 834,-96 840,-102 840,-108 840,-108 840,-135 840,-135 840,-141 834,-147 828,-147"/>
<path fill="none" stroke="#b8860b" stroke-width="1.5" d="M832,-151C832,-151 746,-151 746,-151 740,-151 734,-145 734,-139 734,-139 734,-104 734,-104 734,-98 740,-92 746,-92 746,-92 832,-92 832,-92 838,-92 844,-98 844,-104 844,-104 844,-139 844,-139 844,-145 838,-151 832,-151"/>
<g id="a_state_10009_title"><a xlink:href="#" xlink:title="state_10009_title">
<text text-anchor="start" x="766" y="-129.1" font-family="Calibri" font-weight="bold" font-size="13.00" fill="#8b4513">Estado </text>
<text text-anchor="start" x="805" y="-129.1" font-family="Calibri" font-weight="bold" font-size="13.00" fill="#8b4513">9</text>
</a>
</g>
<g id="a_state_10009_item_1"><a xlink:href="#" xlink:title="state_10009_item_1">
<text text-anchor="start" x="746" y="-108.3" font-family="Times,serif" font-size="14.00" fill="#bc1f29">S </text>
<text text-anchor="start" x="759" y="-108.3" font-family="Times,serif" font-size="14.00" fill="#0a5040">→ </text>
<text text-anchor="start" x="778" y="-108.3" font-family="Times,serif" font-size="14.00" fill="#0a5040"> (</text>
<text text-anchor="start" x="787" y="-108.3" font-family="Times,serif" font-size="14.00" fill="#bc1f29"> S</text>
<text text-anchor="start" x="800" y="-108.3" font-family="Times,serif" font-size="14.00" fill="#0a5040"> )</text>
<text text-anchor="start" x="809" y="-108.3" font-family="Times,serif" font-size="14.00" fill="#bc1f29"> S</text>
<text text-anchor="start" x="822" y="-108.3" font-family="Times,serif" font-size="14.00" fill="#f5a70a"> •</text>
</a>
</g>
</g>
<!-- state_10008&#45;&gt;state_10009 -->
<g id="trans_10" class="edge">
<title>state_10008&#45;&gt;state_10009</title>
<path fill="none" stroke="#b8860b" stroke-width="1.5" d="M685.1824,-123.5094C697.4979,-123.271 710.8196,-123.0132 723.6821,-122.7642"/>
<polygon fill="#b8860b" stroke="#b8860b" stroke-width="1.5" points="723.9408,-126.26 733.8712,-122.567 723.8053,-119.2613 723.9408,-126.26"/>
<text text-anchor="start" x="703" y="-126.3" font-family="Times,serif" font-size="14.00" fill="#bc1f29"> S</text>
</g>
</g>
</svg>
