<?xml version="1.0" encoding="UTF-8" standalone="no"?>
<!DOCTYPE svg PUBLIC "-//W3C//DTD SVG 1.1//EN"
 "http://www.w3.org/Graphics/SVG/1.1/DTD/svg11.dtd">
<!-- Generated by graphviz version 2.40.1 (20161225.0304)
 -->
<!-- Title: DFA Pages: 1 -->
<svg width="1249pt" height="394pt"
 viewBox="0.00 0.00 1249.00 393.50" xmlns="http://www.w3.org/2000/svg" xmlns:xlink="http://www.w3.org/1999/xlink">
<g id="graph0" class="graph" transform="scale(1 1) rotate(0) translate(4 389.5)">
<title>DFA</title>
<!-- state_1 -->
<g id="state_1" class="node">
<title>state_1</title>
<path fill="#fffff0" stroke="#b8860b" stroke-width="1.5" d="M177,-321.5C177,-321.5 12,-321.5 12,-321.5 6,-321.5 0,-315.5 0,-309.5 0,-309.5 0,-192.5 0,-192.5 0,-186.5 6,-180.5 12,-180.5 12,-180.5 177,-180.5 177,-180.5 183,-180.5 189,-186.5 189,-192.5 189,-192.5 189,-309.5 189,-309.5 189,-315.5 183,-321.5 177,-321.5"/>
<g id="a_state_1_title"><a xlink:href="#" xlink:title="state_1_title">
<text text-anchor="start" x="72" y="-300.6" font-family="Calibri" font-weight="bold" font-size="13.00" fill="#8b4513">Estado </text>
<text text-anchor="start" x="111" y="-300.6" font-family="Calibri" font-weight="bold" font-size="13.00" fill="#8b4513">1</text>
</a>
</g>
<g id="a_state_1_item_1"><a xlink:href="#" xlink:title="state_1_item_1">
<text text-anchor="start" x="11.5" y="-279.8" font-family="Times,serif" font-size="14.00" fill="#bc1f29">stmt&#39; </text>
<text text-anchor="start" x="42.5" y="-279.8" font-family="Times,serif" font-size="14.00" fill="#0a5040">→ </text>
<text text-anchor="start" x="61.5" y="-279.8" font-family="Times,serif" font-size="14.00" fill="#f5a70a"> •</text>
<text text-anchor="start" x="71.5" y="-279.8" font-family="Times,serif" font-size="14.00" fill="#bc1f29"> stmt</text>
<text text-anchor="start" x="99.5" y="-279.8" font-family="Times,serif" font-size="14.00" fill="#0a5040"> $</text>
</a>
</g>
<g id="a_state_1_item_2"><a xlink:href="#" xlink:title="state_1_item_2">
<text text-anchor="start" x="11.5" y="-258.8" font-family="Times,serif" font-size="14.00" fill="#bc1f29">stmt </text>
<text text-anchor="start" x="39.5" y="-258.8" font-family="Times,serif" font-size="14.00" fill="#0a5040">→ </text>
<text text-anchor="start" x="58.5" y="-258.8" font-family="Times,serif" font-size="14.00" fill="#f5a70a"> •</text>
<text text-anchor="start" x="68.5" y="-258.8" font-family="Times,serif" font-size="14.00" fill="#bc1f29"> if_stmt</text>
</a>
</g>
<g id="a_state_1_item_3"><a xlink:href="#" xlink:title="state_1_item_3">
<text text-anchor="start" x="11.5" y="-237.8" font-family="Times,serif" font-size="14.00" fill="#bc1f29">stmt </text>
<text text-anchor="start" x="39.5" y="-237.8" font-family="Times,serif" font-size="14.00" fill="#0a5040">→ </text>
<text text-anchor="start" x="58.5" y="-237.8" font-family="Times,serif" font-size="14.00" fill="#f5a70a"> •</text>
<text text-anchor="start" x="68.5" y="-237.8" font-family="Times,serif" font-size="14.00" fill="#0a5040"> other</text>
</a>
</g>
<g id="a_state_1_item_4"><a xlink:href="#" xlink:title="state_1_item_4">
<text text-anchor="start" x="11.5" y="-216.8" font-family="Times,serif" font-size="14.00" fill="#bc1f29">if_stmt </text>
<text text-anchor="start" x="55.5" y="-216.8" font-family="Times,serif" font-size="14.00" fill="#0a5040">→ </text>
<text text-anchor="start" x="74.5" y="-216.8" font-family="Times,serif" font-size="14.00" fill="#f5a70a"> •</text>
<text text-anchor="start" x="84.5" y="-216.8" font-family="Times,serif" font-size="14.00" fill="#0a5040"> if</text>
<text text-anchor="start" x="97.5" y="-216.8" font-family="Times,serif" font-size="14.00" fill="#bc1f29"> stmt</text>
</a>
</g>
<g id="a_state_1_item_5"><a xlink:href="#" xlink:title="state_1_item_5">
<text text-anchor="start" x="11.5" y="-195.8" font-family="Times,serif" font-size="14.00" fill="#bc1f29">if_stmt </text>
<text text-anchor="start" x="55.5" y="-195.8" font-family="Times,serif" font-size="14.00" fill="#0a5040">→ </text>
<text text-anchor="start" x="74.5" y="-195.8" font-family="Times,serif" font-size="14.00" fill="#f5a70a"> •</text>
<text text-anchor="start" x="84.5" y="-195.8" font-family="Times,serif" font-size="14.00" fill="#0a5040"> if</text>
<text text-anchor="start" x="97.5" y="-195.8" font-family="Times,serif" font-size="14.00" fill="#bc1f29"> stmt</text>
<text text-anchor="start" x="125.5" y="-195.8" font-family="Times,serif" font-size="14.00" fill="#0a5040"> else</text>
<text text-anchor="start" x="150.5" y="-195.8" font-family="Times,serif" font-size="14.00" fill="#bc1f29"> stmt</text>
</a>
</g>
</g>
<!-- state_2 -->
<g id="state_2" class="node">
<title>state_2</title>
<path fill="#fffff0" stroke="#b8860b" stroke-width="1.5" d="M396.5,-377.5C396.5,-377.5 298.5,-377.5 298.5,-377.5 292.5,-377.5 286.5,-371.5 286.5,-365.5 286.5,-365.5 286.5,-332.5 286.5,-332.5 286.5,-326.5 292.5,-320.5 298.5,-320.5 298.5,-320.5 396.5,-320.5 396.5,-320.5 402.5,-320.5 408.5,-326.5 408.5,-332.5 408.5,-332.5 408.5,-365.5 408.5,-365.5 408.5,-371.5 402.5,-377.5 396.5,-377.5"/>
<g id="a_state_2_title"><a xlink:href="#" xlink:title="state_2_title">
<text text-anchor="start" x="324.5" y="-356.6" font-family="Calibri" font-weight="bold" font-size="13.00" fill="#8b4513">Estado </text>
<text text-anchor="start" x="363.5" y="-356.6" font-family="Calibri" font-weight="bold" font-size="13.00" fill="#8b4513">2</text>
</a>
</g>
<g id="a_state_2_item_1"><a xlink:href="#" xlink:title="state_2_item_1">
<text text-anchor="start" x="297.5" y="-335.8" font-family="Times,serif" font-size="14.00" fill="#bc1f29">stmt&#39; </text>
<text text-anchor="start" x="328.5" y="-335.8" font-family="Times,serif" font-size="14.00" fill="#0a5040">→ </text>
<text text-anchor="start" x="347.5" y="-335.8" font-family="Times,serif" font-size="14.00" fill="#bc1f29"> stmt</text>
<text text-anchor="start" x="375.5" y="-335.8" font-family="Times,serif" font-size="14.00" fill="#f5a70a"> •</text>
<text text-anchor="start" x="385.5" y="-335.8" font-family="Times,serif" font-size="14.00" fill="#0a5040"> $</text>
</a>
</g>
</g>
<!-- state_1&#45;&gt;state_2 -->
<g id="trans_2" class="edge">
<title>state_1&#45;&gt;state_2</title>
<path fill="none" stroke="#b8860b" stroke-width="1.5" d="M189.0775,-293.7554C195.1191,-296.2628 201.13,-298.6981 207,-301 229.3673,-309.7712 254.072,-318.5183 276.4471,-326.0962"/>
<polygon fill="#b8860b" stroke="#b8860b" stroke-width="1.5" points="275.6183,-329.51 286.2123,-329.3798 277.8494,-322.875 275.6183,-329.51"/>
<text text-anchor="start" x="207" y="-314.8" font-family="Times,serif" font-size="14.00" fill="#bc1f29"> stmt</text>
</g>
<!-- state_5 -->
<g id="state_5" class="node">
<title>state_5</title>
<path fill="#fffff0" stroke="#b8860b" stroke-width="1.5" d="M430,-226C430,-226 265,-226 265,-226 259,-226 253,-220 253,-214 253,-214 253,-76 253,-76 253,-70 259,-64 265,-64 265,-64 430,-64 430,-64 436,-64 442,-70 442,-76 442,-76 442,-214 442,-214 442,-220 436,-226 430,-226"/>
<g id="a_state_5_title"><a xlink:href="#" xlink:title="state_5_title">
<text text-anchor="start" x="325" y="-205.6" font-family="Calibri" font-weight="bold" font-size="13.00" fill="#8b4513">Estado </text>
<text text-anchor="start" x="364" y="-205.6" font-family="Calibri" font-weight="bold" font-size="13.00" fill="#8b4513">5</text>
</a>
</g>
<g id="a_state_5_item_1"><a xlink:href="#" xlink:title="state_5_item_1">
<text text-anchor="start" x="264.5" y="-184.8" font-family="Times,serif" font-size="14.00" fill="#bc1f29">if_stmt </text>
<text text-anchor="start" x="308.5" y="-184.8" font-family="Times,serif" font-size="14.00" fill="#0a5040">→ </text>
<text text-anchor="start" x="327.5" y="-184.8" font-family="Times,serif" font-size="14.00" fill="#0a5040"> if</text>
<text text-anchor="start" x="340.5" y="-184.8" font-family="Times,serif" font-size="14.00" fill="#f5a70a"> •</text>
<text text-anchor="start" x="350.5" y="-184.8" font-family="Times,serif" font-size="14.00" fill="#bc1f29"> stmt</text>
</a>
</g>
<g id="a_state_5_item_2"><a xlink:href="#" xlink:title="state_5_item_2">
<text text-anchor="start" x="264.5" y="-163.8" font-family="Times,serif" font-size="14.00" fill="#bc1f29">if_stmt </text>
<text text-anchor="start" x="308.5" y="-163.8" font-family="Times,serif" font-size="14.00" fill="#0a5040">→ </text>
<text text-anchor="start" x="327.5" y="-163.8" font-family="Times,serif" font-size="14.00" fill="#0a5040"> if</text>
<text text-anchor="start" x="340.5" y="-163.8" font-family="Times,serif" font-size="14.00" fill="#f5a70a"> •</text>
<text text-anchor="start" x="350.5" y="-163.8" font-family="Times,serif" font-size="14.00" fill="#bc1f29"> stmt</text>
<text text-anchor="start" x="378.5" y="-163.8" font-family="Times,serif" font-size="14.00" fill="#0a5040"> else</text>
<text text-anchor="start" x="403.5" y="-163.8" font-family="Times,serif" font-size="14.00" fill="#bc1f29"> stmt</text>
</a>
</g>
<g id="a_state_5_item_3"><a xlink:href="#" xlink:title="state_5_item_3">
<text text-anchor="start" x="264.5" y="-142.8" font-family="Times,serif" font-size="14.00" fill="#bc1f29">stmt </text>
<text text-anchor="start" x="292.5" y="-142.8" font-family="Times,serif" font-size="14.00" fill="#0a5040">→ </text>
<text text-anchor="start" x="311.5" y="-142.8" font-family="Times,serif" font-size="14.00" fill="#f5a70a"> •</text>
<text text-anchor="start" x="321.5" y="-142.8" font-family="Times,serif" font-size="14.00" fill="#bc1f29"> if_stmt</text>
</a>
</g>
<g id="a_state_5_item_4"><a xlink:href="#" xlink:title="state_5_item_4">
<text text-anchor="start" x="264.5" y="-121.8" font-family="Times,serif" font-size="14.00" fill="#bc1f29">stmt </text>
<text text-anchor="start" x="292.5" y="-121.8" font-family="Times,serif" font-size="14.00" fill="#0a5040">→ </text>
<text text-anchor="start" x="311.5" y="-121.8" font-family="Times,serif" font-size="14.00" fill="#f5a70a"> •</text>
<text text-anchor="start" x="321.5" y="-121.8" font-family="Times,serif" font-size="14.00" fill="#0a5040"> other</text>
</a>
</g>
<g id="a_state_5_item_5"><a xlink:href="#" xlink:title="state_5_item_5">
<text text-anchor="start" x="264.5" y="-100.8" font-family="Times,serif" font-size="14.00" fill="#bc1f29">if_stmt </text>
<text text-anchor="start" x="308.5" y="-100.8" font-family="Times,serif" font-size="14.00" fill="#0a5040">→ </text>
<text text-anchor="start" x="327.5" y="-100.8" font-family="Times,serif" font-size="14.00" fill="#f5a70a"> •</text>
<text text-anchor="start" x="337.5" y="-100.8" font-family="Times,serif" font-size="14.00" fill="#0a5040"> if</text>
<text text-anchor="start" x="350.5" y="-100.8" font-family="Times,serif" font-size="14.00" fill="#bc1f29"> stmt</text>
</a>
</g>
<g id="a_state_5_item_6"><a xlink:href="#" xlink:title="state_5_item_6">
<text text-anchor="start" x="264.5" y="-79.8" font-family="Times,serif" font-size="14.00" fill="#bc1f29">if_stmt </text>
<text text-anchor="start" x="308.5" y="-79.8" font-family="Times,serif" font-size="14.00" fill="#0a5040">→ </text>
<text text-anchor="start" x="327.5" y="-79.8" font-family="Times,serif" font-size="14.00" fill="#f5a70a"> •</text>
<text text-anchor="start" x="337.5" y="-79.8" font-family="Times,serif" font-size="14.00" fill="#0a5040"> if</text>
<text text-anchor="start" x="350.5" y="-79.8" font-family="Times,serif" font-size="14.00" fill="#bc1f29"> stmt</text>
<text text-anchor="start" x="378.5" y="-79.8" font-family="Times,serif" font-size="14.00" fill="#0a5040"> else</text>
<text text-anchor="start" x="403.5" y="-79.8" font-family="Times,serif" font-size="14.00" fill="#bc1f29"> stmt</text>
</a>
</g>
</g>
<!-- state_1&#45;&gt;state_5 -->
<g id="trans_4" class="edge">
<title>state_1&#45;&gt;state_5</title>
<path fill="none" stroke="#b8860b" stroke-width="1.5" d="M189.0676,-211.3788C206.7566,-203.9676 225.3368,-196.183 243.2978,-188.6578"/>
<polygon fill="#b8860b" stroke="#b8860b" stroke-width="1.5" points="244.7551,-191.8421 252.6258,-184.7497 242.0501,-185.3859 244.7551,-191.8421"/>
<text text-anchor="start" x="214.5" y="-204.8" font-family="Times,serif" font-size="14.00" fill="#0a5040"> if</text>
</g>
<!-- state_3 -->
<g id="state_3" class="node">
<title>state_3</title>
<path fill="#fffff0" stroke="#b8860b" stroke-width="1.5" d="M1192,-71.5C1192,-71.5 1093,-71.5 1093,-71.5 1087,-71.5 1081,-65.5 1081,-59.5 1081,-59.5 1081,-26.5 1081,-26.5 1081,-20.5 1087,-14.5 1093,-14.5 1093,-14.5 1192,-14.5 1192,-14.5 1198,-14.5 1204,-20.5 1204,-26.5 1204,-26.5 1204,-59.5 1204,-59.5 1204,-65.5 1198,-71.5 1192,-71.5"/>
<path fill="none" stroke="#b8860b" stroke-width="1.5" d="M1196,-75.5C1196,-75.5 1089,-75.5 1089,-75.5 1083,-75.5 1077,-69.5 1077,-63.5 1077,-63.5 1077,-22.5 1077,-22.5 1077,-16.5 1083,-10.5 1089,-10.5 1089,-10.5 1196,-10.5 1196,-10.5 1202,-10.5 1208,-16.5 1208,-22.5 1208,-22.5 1208,-63.5 1208,-63.5 1208,-69.5 1202,-75.5 1196,-75.5"/>
<g id="a_state_3_title"><a xlink:href="#" xlink:title="state_3_title">
<text text-anchor="start" x="1120" y="-50.6" font-family="Calibri" font-weight="bold" font-size="13.00" fill="#8b4513">Estado </text>
<text text-anchor="start" x="1159" y="-50.6" font-family="Calibri" font-weight="bold" font-size="13.00" fill="#8b4513">3</text>
</a>
</g>
<g id="a_state_3_item_1"><a xlink:href="#" xlink:title="state_3_item_1">
<text text-anchor="start" x="1092.5" y="-29.8" font-family="Times,serif" font-size="14.00" fill="#bc1f29">stmt </text>
<text text-anchor="start" x="1120.5" y="-29.8" font-family="Times,serif" font-size="14.00" fill="#0a5040">→ </text>
<text text-anchor="start" x="1139.5" y="-29.8" font-family="Times,serif" font-size="14.00" fill="#bc1f29"> if_stmt</text>
<text text-anchor="start" x="1183.5" y="-29.8" font-family="Times,serif" font-size="14.00" fill="#f5a70a"> •</text>
</a>
</g>
</g>
<!-- state_1&#45;&gt;state_3 -->
<g id="trans_3" class="edge">
<title>state_1&#45;&gt;state_3</title>
<path fill="none" stroke="#b8860b" stroke-width="1.5" d="M127.8734,-180.4145C168.4473,-106.175 244.4826,0 347.5,0 347.5,0 347.5,0 869.5,0 936.8015,0 1012.3117,-12.9097 1066.8294,-24.5819"/>
<polygon fill="#b8860b" stroke="#b8860b" stroke-width="1.5" points="1066.2424,-28.036 1076.7581,-26.7435 1067.7316,-21.1962 1066.2424,-28.036"/>
<text text-anchor="start" x="578.5" y="-3.8" font-family="Times,serif" font-size="14.00" fill="#bc1f29"> if_stmt</text>
</g>
<!-- state_4 -->
<g id="state_4" class="node">
<title>state_4</title>
<path fill="#fffff0" stroke="#b8860b" stroke-width="1.5" d="M1187,-269.5C1187,-269.5 1098,-269.5 1098,-269.5 1092,-269.5 1086,-263.5 1086,-257.5 1086,-257.5 1086,-224.5 1086,-224.5 1086,-218.5 1092,-212.5 1098,-212.5 1098,-212.5 1187,-212.5 1187,-212.5 1193,-212.5 1199,-218.5 1199,-224.5 1199,-224.5 1199,-257.5 1199,-257.5 1199,-263.5 1193,-269.5 1187,-269.5"/>
<path fill="none" stroke="#b8860b" stroke-width="1.5" d="M1191,-273.5C1191,-273.5 1094,-273.5 1094,-273.5 1088,-273.5 1082,-267.5 1082,-261.5 1082,-261.5 1082,-220.5 1082,-220.5 1082,-214.5 1088,-208.5 1094,-208.5 1094,-208.5 1191,-208.5 1191,-208.5 1197,-208.5 1203,-214.5 1203,-220.5 1203,-220.5 1203,-261.5 1203,-261.5 1203,-267.5 1197,-273.5 1191,-273.5"/>
<g id="a_state_4_title"><a xlink:href="#" xlink:title="state_4_title">
<text text-anchor="start" x="1120" y="-248.6" font-family="Calibri" font-weight="bold" font-size="13.00" fill="#8b4513">Estado </text>
<text text-anchor="start" x="1159" y="-248.6" font-family="Calibri" font-weight="bold" font-size="13.00" fill="#8b4513">4</text>
</a>
</g>
<g id="a_state_4_item_1"><a xlink:href="#" xlink:title="state_4_item_1">
<text text-anchor="start" x="1097.5" y="-227.8" font-family="Times,serif" font-size="14.00" fill="#bc1f29">stmt </text>
<text text-anchor="start" x="1125.5" y="-227.8" font-family="Times,serif" font-size="14.00" fill="#0a5040">→ </text>
<text text-anchor="start" x="1144.5" y="-227.8" font-family="Times,serif" font-size="14.00" fill="#0a5040"> other</text>
<text text-anchor="start" x="1178.5" y="-227.8" font-family="Times,serif" font-size="14.00" fill="#f5a70a"> •</text>
</a>
</g>
</g>
<!-- state_1&#45;&gt;state_4 -->
<g id="trans_1" class="edge">
<title>state_1&#45;&gt;state_4</title>
<path fill="none" stroke="#b8860b" stroke-width="1.5" d="M189.2577,-270.9478C236.5693,-279.2538 294.8153,-287 347.5,-287 347.5,-287 347.5,-287 869.5,-287 938.9552,-287 1016.9857,-272.3429 1071.7796,-259.5758"/>
<polygon fill="#b8860b" stroke="#b8860b" stroke-width="1.5" points="1072.8093,-262.9288 1081.7331,-257.2179 1071.1956,-256.1174 1072.8093,-262.9288"/>
<text text-anchor="start" x="583.5" y="-290.8" font-family="Times,serif" font-size="14.00" fill="#0a5040"> other</text>
</g>
<!-- state_6 -->
<g id="state_6" class="node">
<title>state_6</title>
<path fill="#fffff0" stroke="#b8860b" stroke-width="1.5" d="M649.5,-381.5C649.5,-381.5 551.5,-381.5 551.5,-381.5 545.5,-381.5 539.5,-375.5 539.5,-369.5 539.5,-369.5 539.5,-336.5 539.5,-336.5 539.5,-330.5 545.5,-324.5 551.5,-324.5 551.5,-324.5 649.5,-324.5 649.5,-324.5 655.5,-324.5 661.5,-330.5 661.5,-336.5 661.5,-336.5 661.5,-369.5 661.5,-369.5 661.5,-375.5 655.5,-381.5 649.5,-381.5"/>
<path fill="none" stroke="#b8860b" stroke-width="1.5" d="M653.5,-385.5C653.5,-385.5 547.5,-385.5 547.5,-385.5 541.5,-385.5 535.5,-379.5 535.5,-373.5 535.5,-373.5 535.5,-332.5 535.5,-332.5 535.5,-326.5 541.5,-320.5 547.5,-320.5 547.5,-320.5 653.5,-320.5 653.5,-320.5 659.5,-320.5 665.5,-326.5 665.5,-332.5 665.5,-332.5 665.5,-373.5 665.5,-373.5 665.5,-379.5 659.5,-385.5 653.5,-385.5"/>
<g id="a_state_6_title"><a xlink:href="#" xlink:title="state_6_title">
<text text-anchor="start" x="577.5" y="-360.6" font-family="Calibri" font-weight="bold" font-size="13.00" fill="#8b4513">Estado </text>
<text text-anchor="start" x="616.5" y="-360.6" font-family="Calibri" font-weight="bold" font-size="13.00" fill="#8b4513">6</text>
</a>
</g>
<g id="a_state_6_item_1"><a xlink:href="#" xlink:title="state_6_item_1">
<text text-anchor="start" x="550.5" y="-339.8" font-family="Times,serif" font-size="14.00" fill="#bc1f29">stmt&#39; </text>
<text text-anchor="start" x="581.5" y="-339.8" font-family="Times,serif" font-size="14.00" fill="#0a5040">→ </text>
<text text-anchor="start" x="600.5" y="-339.8" font-family="Times,serif" font-size="14.00" fill="#bc1f29"> stmt</text>
<text text-anchor="start" x="628.5" y="-339.8" font-family="Times,serif" font-size="14.00" fill="#0a5040"> $</text>
<text text-anchor="start" x="640.5" y="-339.8" font-family="Times,serif" font-size="14.00" fill="#f5a70a"> •</text>
</a>
</g>
</g>
<!-- state_2&#45;&gt;state_6 -->
<g id="trans_5" class="edge">
<title>state_2&#45;&gt;state_6</title>
<path fill="none" stroke="#b8860b" stroke-width="1.5" d="M408.7442,-349.9683C443.767,-350.522 487.9794,-351.221 525.1224,-351.8083"/>
<polygon fill="#b8860b" stroke="#b8860b" stroke-width="1.5" points="525.3435,-355.3121 535.3976,-351.9707 525.4542,-348.313 525.3435,-355.3121"/>
<text text-anchor="start" x="468" y="-354.8" font-family="Times,serif" font-size="14.00" fill="#0a5040"> $</text>
</g>
<!-- state_5&#45;&gt;state_5 -->
<g id="trans_9" class="edge">
<title>state_5&#45;&gt;state_5</title>
<path fill="none" stroke="#b8860b" stroke-width="1.5" d="M326.6666,-226.1796C330.2196,-236.894 337.1641,-244 347.5,-244 354.4445,-244 359.8579,-240.7923 363.7405,-235.4375"/>
<polygon fill="#b8860b" stroke="#b8860b" stroke-width="1.5" points="367.0245,-236.6933 368.3334,-226.1796 360.7538,-233.5823 367.0245,-236.6933"/>
<text text-anchor="start" x="341" y="-247.8" font-family="Times,serif" font-size="14.00" fill="#0a5040"> if</text>
</g>
<!-- state_5&#45;&gt;state_3 -->
<g id="trans_6" class="edge">
<title>state_5&#45;&gt;state_3</title>
<path fill="none" stroke="#b8860b" stroke-width="1.5" d="M442.3951,-91.8792C462.8124,-82.6413 484.6783,-74.3075 506,-69 703.3522,-19.8739 945.6049,-27.9088 1066.421,-36.3332"/>
<polygon fill="#b8860b" stroke="#b8860b" stroke-width="1.5" points="1066.4462,-39.8439 1076.6712,-37.0694 1066.9477,-32.8619 1066.4462,-39.8439"/>
<text text-anchor="start" x="713" y="-40.8" font-family="Times,serif" font-size="14.00" fill="#bc1f29"> if_stmt</text>
</g>
<!-- state_5&#45;&gt;state_4 -->
<g id="trans_7" class="edge">
<title>state_5&#45;&gt;state_4</title>
<path fill="none" stroke="#b8860b" stroke-width="1.5" d="M442.0903,-173.1308C463.0015,-178.6565 485.1426,-183.9789 506,-188 708.8664,-227.1109 953.5956,-237.3657 1071.7911,-240.0506"/>
<polygon fill="#b8860b" stroke="#b8860b" stroke-width="1.5" points="1071.726,-243.5499 1081.7992,-240.2666 1071.8771,-236.5515 1071.726,-243.5499"/>
<text text-anchor="start" x="718" y="-224.8" font-family="Times,serif" font-size="14.00" fill="#0a5040"> other</text>
</g>
<!-- state_7 -->
<g id="state_7" class="node">
<title>state_7</title>
<path fill="#f5f5dc" stroke="#b8860b" stroke-width="1.5" stroke-dasharray="5,2" d="M683,-156C683,-156 518,-156 518,-156 512,-156 506,-150 506,-144 506,-144 506,-90 506,-90 506,-84 512,-78 518,-78 518,-78 683,-78 683,-78 689,-78 695,-84 695,-90 695,-90 695,-144 695,-144 695,-150 689,-156 683,-156"/>
<g id="a_state_7_title"><a xlink:href="#" xlink:title="state_7_title">
<text text-anchor="start" x="578" y="-135.6" font-family="Calibri" font-weight="bold" font-size="13.00" fill="#8b4513">Estado </text>
<text text-anchor="start" x="617" y="-135.6" font-family="Calibri" font-weight="bold" font-size="13.00" fill="#8b4513">7</text>
</a>
</g>
<g id="a_state_7_item_1"><a xlink:href="#" xlink:title="state_7_item_1">
<text text-anchor="start" x="517.5" y="-114.8" font-family="Times,serif" font-size="14.00" fill="#bc1f29">if_stmt </text>
<text text-anchor="start" x="561.5" y="-114.8" font-family="Times,serif" font-size="14.00" fill="#0a5040">→ </text>
<text text-anchor="start" x="580.5" y="-114.8" font-family="Times,serif" font-size="14.00" fill="#0a5040"> if</text>
<text text-anchor="start" x="593.5" y="-114.8" font-family="Times,serif" font-size="14.00" fill="#bc1f29"> stmt</text>
<text text-anchor="start" x="621.5" y="-114.8" font-family="Times,serif" font-size="14.00" fill="#f5a70a"> •</text>
</a>
</g>
<g id="a_state_7_item_2"><a xlink:href="#" xlink:title="state_7_item_2">
<text text-anchor="start" x="517.5" y="-93.8" font-family="Times,serif" font-size="14.00" fill="#bc1f29">if_stmt </text>
<text text-anchor="start" x="561.5" y="-93.8" font-family="Times,serif" font-size="14.00" fill="#0a5040">→ </text>
<text text-anchor="start" x="580.5" y="-93.8" font-family="Times,serif" font-size="14.00" fill="#0a5040"> if</text>
<text text-anchor="start" x="593.5" y="-93.8" font-family="Times,serif" font-size="14.00" fill="#bc1f29"> stmt</text>
<text text-anchor="start" x="621.5" y="-93.8" font-family="Times,serif" font-size="14.00" fill="#f5a70a"> •</text>
<text text-anchor="start" x="631.5" y="-93.8" font-family="Times,serif" font-size="14.00" fill="#0a5040"> else</text>
<text text-anchor="start" x="656.5" y="-93.8" font-family="Times,serif" font-size="14.00" fill="#bc1f29"> stmt</text>
</a>
</g>
</g>
<!-- state_5&#45;&gt;state_7 -->
<g id="trans_8" class="edge">
<title>state_5&#45;&gt;state_7</title>
<path fill="none" stroke="#b8860b" stroke-width="1.5" d="M442.0676,-134.534C459.432,-132.6123 477.6553,-130.5955 495.3085,-128.6417"/>
<polygon fill="#b8860b" stroke="#b8860b" stroke-width="1.5" points="496.0715,-132.0788 505.6258,-127.4999 495.3014,-125.1212 496.0715,-132.0788"/>
<text text-anchor="start" x="460" y="-134.8" font-family="Times,serif" font-size="14.00" fill="#bc1f29"> stmt</text>
</g>
<!-- state_8 -->
<g id="state_8" class="node">
<title>state_8</title>
<path fill="#fffff0" stroke="#b8860b" stroke-width="1.5" d="M952,-212.5C952,-212.5 787,-212.5 787,-212.5 781,-212.5 775,-206.5 775,-200.5 775,-200.5 775,-83.5 775,-83.5 775,-77.5 781,-71.5 787,-71.5 787,-71.5 952,-71.5 952,-71.5 958,-71.5 964,-77.5 964,-83.5 964,-83.5 964,-200.5 964,-200.5 964,-206.5 958,-212.5 952,-212.5"/>
<g id="a_state_8_title"><a xlink:href="#" xlink:title="state_8_title">
<text text-anchor="start" x="847" y="-191.6" font-family="Calibri" font-weight="bold" font-size="13.00" fill="#8b4513">Estado </text>
<text text-anchor="start" x="886" y="-191.6" font-family="Calibri" font-weight="bold" font-size="13.00" fill="#8b4513">8</text>
</a>
</g>
<g id="a_state_8_item_1"><a xlink:href="#" xlink:title="state_8_item_1">
<text text-anchor="start" x="786.5" y="-170.8" font-family="Times,serif" font-size="14.00" fill="#bc1f29">if_stmt </text>
<text text-anchor="start" x="830.5" y="-170.8" font-family="Times,serif" font-size="14.00" fill="#0a5040">→ </text>
<text text-anchor="start" x="849.5" y="-170.8" font-family="Times,serif" font-size="14.00" fill="#0a5040"> if</text>
<text text-anchor="start" x="862.5" y="-170.8" font-family="Times,serif" font-size="14.00" fill="#bc1f29"> stmt</text>
<text text-anchor="start" x="890.5" y="-170.8" font-family="Times,serif" font-size="14.00" fill="#0a5040"> else</text>
<text text-anchor="start" x="915.5" y="-170.8" font-family="Times,serif" font-size="14.00" fill="#f5a70a"> •</text>
<text text-anchor="start" x="925.5" y="-170.8" font-family="Times,serif" font-size="14.00" fill="#bc1f29"> stmt</text>
</a>
</g>
<g id="a_state_8_item_2"><a xlink:href="#" xlink:title="state_8_item_2">
<text text-anchor="start" x="786.5" y="-149.8" font-family="Times,serif" font-size="14.00" fill="#bc1f29">stmt </text>
<text text-anchor="start" x="814.5" y="-149.8" font-family="Times,serif" font-size="14.00" fill="#0a5040">→ </text>
<text text-anchor="start" x="833.5" y="-149.8" font-family="Times,serif" font-size="14.00" fill="#f5a70a"> •</text>
<text text-anchor="start" x="843.5" y="-149.8" font-family="Times,serif" font-size="14.00" fill="#bc1f29"> if_stmt</text>
</a>
</g>
<g id="a_state_8_item_3"><a xlink:href="#" xlink:title="state_8_item_3">
<text text-anchor="start" x="786.5" y="-128.8" font-family="Times,serif" font-size="14.00" fill="#bc1f29">stmt </text>
<text text-anchor="start" x="814.5" y="-128.8" font-family="Times,serif" font-size="14.00" fill="#0a5040">→ </text>
<text text-anchor="start" x="833.5" y="-128.8" font-family="Times,serif" font-size="14.00" fill="#f5a70a"> •</text>
<text text-anchor="start" x="843.5" y="-128.8" font-family="Times,serif" font-size="14.00" fill="#0a5040"> other</text>
</a>
</g>
<g id="a_state_8_item_4"><a xlink:href="#" xlink:title="state_8_item_4">
<text text-anchor="start" x="786.5" y="-107.8" font-family="Times,serif" font-size="14.00" fill="#bc1f29">if_stmt </text>
<text text-anchor="start" x="830.5" y="-107.8" font-family="Times,serif" font-size="14.00" fill="#0a5040">→ </text>
<text text-anchor="start" x="849.5" y="-107.8" font-family="Times,serif" font-size="14.00" fill="#f5a70a"> •</text>
<text text-anchor="start" x="859.5" y="-107.8" font-family="Times,serif" font-size="14.00" fill="#0a5040"> if</text>
<text text-anchor="start" x="872.5" y="-107.8" font-family="Times,serif" font-size="14.00" fill="#bc1f29"> stmt</text>
</a>
</g>
<g id="a_state_8_item_5"><a xlink:href="#" xlink:title="state_8_item_5">
<text text-anchor="start" x="786.5" y="-86.8" font-family="Times,serif" font-size="14.00" fill="#bc1f29">if_stmt </text>
<text text-anchor="start" x="830.5" y="-86.8" font-family="Times,serif" font-size="14.00" fill="#0a5040">→ </text>
<text text-anchor="start" x="849.5" y="-86.8" font-family="Times,serif" font-size="14.00" fill="#f5a70a"> •</text>
<text text-anchor="start" x="859.5" y="-86.8" font-family="Times,serif" font-size="14.00" fill="#0a5040"> if</text>
<text text-anchor="start" x="872.5" y="-86.8" font-family="Times,serif" font-size="14.00" fill="#bc1f29"> stmt</text>
<text text-anchor="start" x="900.5" y="-86.8" font-family="Times,serif" font-size="14.00" fill="#0a5040"> else</text>
<text text-anchor="start" x="925.5" y="-86.8" font-family="Times,serif" font-size="14.00" fill="#bc1f29"> stmt</text>
</a>
</g>
</g>
<!-- state_8&#45;&gt;state_5 -->
<g id="trans_14" class="edge">
<title>state_8&#45;&gt;state_5</title>
<path fill="none" stroke="#b8860b" stroke-width="1.5" d="M774.6303,-156.8005C748.8623,-160.1923 720.9178,-163.2993 695,-165 611.1803,-170.5002 589.8346,-170.2684 506,-165 488.5642,-163.9043 470.113,-162.137 452.2016,-160.0949"/>
<polygon fill="#b8860b" stroke="#b8860b" stroke-width="1.5" points="452.3643,-156.59 442.0243,-158.8994 451.5476,-163.5422 452.3643,-156.59"/>
<text text-anchor="start" x="594" y="-172.8" font-family="Times,serif" font-size="14.00" fill="#0a5040"> if</text>
</g>
<!-- state_8&#45;&gt;state_3 -->
<g id="trans_12" class="edge">
<title>state_8&#45;&gt;state_3</title>
<path fill="none" stroke="#b8860b" stroke-width="1.5" d="M964.216,-107.6524C997.8509,-95.4552 1035.2319,-81.8994 1067.0425,-70.3637"/>
<polygon fill="#b8860b" stroke="#b8860b" stroke-width="1.5" points="1068.5179,-73.5518 1076.7256,-66.8522 1066.1314,-66.9711 1068.5179,-73.5518"/>
<text text-anchor="start" x="982" y="-102.8" font-family="Times,serif" font-size="14.00" fill="#bc1f29"> if_stmt</text>
</g>
<!-- state_8&#45;&gt;state_4 -->
<g id="trans_13" class="edge">
<title>state_8&#45;&gt;state_4</title>
<path fill="none" stroke="#b8860b" stroke-width="1.5" d="M964.216,-176.3476C999.6779,-189.2074 1039.3038,-203.5772 1072.1753,-215.4976"/>
<polygon fill="#b8860b" stroke="#b8860b" stroke-width="1.5" points="1071.1077,-218.8335 1081.7019,-218.9523 1073.4941,-212.2528 1071.1077,-218.8335"/>
<text text-anchor="start" x="987" y="-200.8" font-family="Times,serif" font-size="14.00" fill="#0a5040"> other</text>
</g>
<!-- state_9 -->
<g id="state_9" class="node">
<title>state_9</title>
<path fill="#fffff0" stroke="#b8860b" stroke-width="1.5" d="M1225,-170.5C1225,-170.5 1060,-170.5 1060,-170.5 1054,-170.5 1048,-164.5 1048,-158.5 1048,-158.5 1048,-125.5 1048,-125.5 1048,-119.5 1054,-113.5 1060,-113.5 1060,-113.5 1225,-113.5 1225,-113.5 1231,-113.5 1237,-119.5 1237,-125.5 1237,-125.5 1237,-158.5 1237,-158.5 1237,-164.5 1231,-170.5 1225,-170.5"/>
<path fill="none" stroke="#b8860b" stroke-width="1.5" d="M1229,-174.5C1229,-174.5 1056,-174.5 1056,-174.5 1050,-174.5 1044,-168.5 1044,-162.5 1044,-162.5 1044,-121.5 1044,-121.5 1044,-115.5 1050,-109.5 1056,-109.5 1056,-109.5 1229,-109.5 1229,-109.5 1235,-109.5 1241,-115.5 1241,-121.5 1241,-121.5 1241,-162.5 1241,-162.5 1241,-168.5 1235,-174.5 1229,-174.5"/>
<g id="a_state_9_title"><a xlink:href="#" xlink:title="state_9_title">
<text text-anchor="start" x="1120" y="-149.6" font-family="Calibri" font-weight="bold" font-size="13.00" fill="#8b4513">Estado </text>
<text text-anchor="start" x="1159" y="-149.6" font-family="Calibri" font-weight="bold" font-size="13.00" fill="#8b4513">9</text>
</a>
</g>
<g id="a_state_9_item_1"><a xlink:href="#" xlink:title="state_9_item_1">
<text text-anchor="start" x="1059.5" y="-128.8" font-family="Times,serif" font-size="14.00" fill="#bc1f29">if_stmt </text>
<text text-anchor="start" x="1103.5" y="-128.8" font-family="Times,serif" font-size="14.00" fill="#0a5040">→ </text>
<text text-anchor="start" x="1122.5" y="-128.8" font-family="Times,serif" font-size="14.00" fill="#0a5040"> if</text>
<text text-anchor="start" x="1135.5" y="-128.8" font-family="Times,serif" font-size="14.00" fill="#bc1f29"> stmt</text>
<text text-anchor="start" x="1163.5" y="-128.8" font-family="Times,serif" font-size="14.00" fill="#0a5040"> else</text>
<text text-anchor="start" x="1188.5" y="-128.8" font-family="Times,serif" font-size="14.00" fill="#bc1f29"> stmt</text>
<text text-anchor="start" x="1216.5" y="-128.8" font-family="Times,serif" font-size="14.00" fill="#f5a70a"> •</text>
</a>
</g>
</g>
<!-- state_8&#45;&gt;state_9 -->
<g id="trans_11" class="edge">
<title>state_8&#45;&gt;state_9</title>
<path fill="none" stroke="#b8860b" stroke-width="1.5" d="M964.216,-142C986.619,-142 1010.684,-142 1033.6579,-142"/>
<polygon fill="#b8860b" stroke="#b8860b" stroke-width="1.5" points="1033.7765,-145.5001 1043.7764,-142 1033.7764,-138.5001 1033.7765,-145.5001"/>
<text text-anchor="start" x="990" y="-145.8" font-family="Times,serif" font-size="14.00" fill="#bc1f29"> stmt</text>
</g>
<!-- state_7&#45;&gt;state_8 -->
<g id="trans_10" class="edge">
<title>state_7&#45;&gt;state_8</title>
<path fill="none" stroke="#b8860b" stroke-width="1.5" d="M695.3393,-125.8141C717.7393,-127.8958 741.751,-130.1274 764.5683,-132.248"/>
<polygon fill="#b8860b" stroke="#b8860b" stroke-width="1.5" points="764.3294,-135.7408 774.6104,-133.1813 764.9772,-128.7708 764.3294,-135.7408"/>
<text text-anchor="start" x="722.5" y="-133.8" font-family="Times,serif" font-size="14.00" fill="#0a5040"> else</text>
</g>
</g>
</svg>
