<?xml version="1.0" encoding="UTF-8" standalone="no"?>
<!DOCTYPE svg PUBLIC "-//W3C//DTD SVG 1.1//EN"
 "http://www.w3.org/Graphics/SVG/1.1/DTD/svg11.dtd">
<!-- Generated by graphviz version 2.40.1 (20161225.0304)
 -->
<!-- Title: DFA Pages: 1 -->
<svg width="1335pt" height="467pt"
 viewBox="0.00 0.00 1335.00 466.50" xmlns="http://www.w3.org/2000/svg" xmlns:xlink="http://www.w3.org/1999/xlink">
<g id="graph0" class="graph" transform="scale(1 1) rotate(0) translate(4 462.5)">
<title>DFA</title>
<!-- state_1 -->
<g id="state_1" class="node">
<title>state_1</title>
<path fill="#fffff0" stroke="#b8860b" stroke-width="1.5" d="M114,-416C114,-416 12,-416 12,-416 6,-416 0,-410 0,-404 0,-404 0,-308 0,-308 0,-302 6,-296 12,-296 12,-296 114,-296 114,-296 120,-296 126,-302 126,-308 126,-308 126,-404 126,-404 126,-410 120,-416 114,-416"/>
<g id="a_state_1_title"><a xlink:href="#" xlink:title="state_1_title">
<text text-anchor="start" x="40" y="-395.6" font-family="Calibri" font-weight="bold" font-size="13.00" fill="#8b4513">Estado </text>
<text text-anchor="start" x="79" y="-395.6" font-family="Calibri" font-weight="bold" font-size="13.00" fill="#8b4513">1</text>
</a>
</g>
<g id="a_state_1_item_1"><a xlink:href="#" xlink:title="state_1_item_1">
<text text-anchor="start" x="11" y="-374.8" font-family="Times,serif" font-size="14.00" fill="#bc1f29">S&#39; </text>
<text text-anchor="start" x="26" y="-374.8" font-family="Times,serif" font-size="14.00" fill="#0a5040">→ </text>
<text text-anchor="start" x="45" y="-374.8" font-family="Times,serif" font-size="14.00" fill="#f5a70a"> •</text>
<text text-anchor="start" x="55" y="-374.8" font-family="Times,serif" font-size="14.00" fill="#bc1f29"> S</text>
<text text-anchor="start" x="68" y="-374.8" font-family="Times,serif" font-size="14.00" fill="#0a5040"> $</text>
</a>
</g>
<g id="a_state_1_item_2"><a xlink:href="#" xlink:title="state_1_item_2">
<text text-anchor="start" x="11" y="-353.8" font-family="Times,serif" font-size="14.00" fill="#bc1f29">S </text>
<text text-anchor="start" x="24" y="-353.8" font-family="Times,serif" font-size="14.00" fill="#0a5040">→ </text>
<text text-anchor="start" x="43" y="-353.8" font-family="Times,serif" font-size="14.00" fill="#f5a70a"> •</text>
<text text-anchor="start" x="53" y="-353.8" font-family="Times,serif" font-size="14.00" fill="#bc1f29"> I</text>
</a>
</g>
<g id="a_state_1_item_3"><a xlink:href="#" xlink:title="state_1_item_3">
<text text-anchor="start" x="11" y="-332.8" font-family="Times,serif" font-size="14.00" fill="#bc1f29">S </text>
<text text-anchor="start" x="24" y="-332.8" font-family="Times,serif" font-size="14.00" fill="#0a5040">→ </text>
<text text-anchor="start" x="43" y="-332.8" font-family="Times,serif" font-size="14.00" fill="#f5a70a"> •</text>
<text text-anchor="start" x="53" y="-332.8" font-family="Times,serif" font-size="14.00" fill="#0a5040"> o</text>
</a>
</g>
<g id="a_state_1_item_4"><a xlink:href="#" xlink:title="state_1_item_4">
<text text-anchor="start" x="11" y="-311.8" font-family="Times,serif" font-size="14.00" fill="#bc1f29">I </text>
<text text-anchor="start" x="20" y="-311.8" font-family="Times,serif" font-size="14.00" fill="#0a5040">→ </text>
<text text-anchor="start" x="39" y="-311.8" font-family="Times,serif" font-size="14.00" fill="#f5a70a"> •</text>
<text text-anchor="start" x="49" y="-311.8" font-family="Times,serif" font-size="14.00" fill="#0a5040"> i</text>
<text text-anchor="start" x="57" y="-311.8" font-family="Times,serif" font-size="14.00" fill="#0a5040"> (</text>
<text text-anchor="start" x="66" y="-311.8" font-family="Times,serif" font-size="14.00" fill="#bc1f29"> B</text>
<text text-anchor="start" x="80" y="-311.8" font-family="Times,serif" font-size="14.00" fill="#0a5040"> )</text>
<text text-anchor="start" x="89" y="-311.8" font-family="Times,serif" font-size="14.00" fill="#bc1f29"> S</text>
<text text-anchor="start" x="102" y="-311.8" font-family="Times,serif" font-size="14.00" fill="#bc1f29"> E</text>
</a>
</g>
</g>
<!-- state_2 -->
<g id="state_2" class="node">
<title>state_2</title>
<path fill="#fffff0" stroke="#b8860b" stroke-width="1.5" d="M271.5,-452.5C271.5,-452.5 204.5,-452.5 204.5,-452.5 198.5,-452.5 192.5,-446.5 192.5,-440.5 192.5,-440.5 192.5,-407.5 192.5,-407.5 192.5,-401.5 198.5,-395.5 204.5,-395.5 204.5,-395.5 271.5,-395.5 271.5,-395.5 277.5,-395.5 283.5,-401.5 283.5,-407.5 283.5,-407.5 283.5,-440.5 283.5,-440.5 283.5,-446.5 277.5,-452.5 271.5,-452.5"/>
<g id="a_state_2_title"><a xlink:href="#" xlink:title="state_2_title">
<text text-anchor="start" x="215.5" y="-431.6" font-family="Calibri" font-weight="bold" font-size="13.00" fill="#8b4513">Estado </text>
<text text-anchor="start" x="254.5" y="-431.6" font-family="Calibri" font-weight="bold" font-size="13.00" fill="#8b4513">2</text>
</a>
</g>
<g id="a_state_2_item_1"><a xlink:href="#" xlink:title="state_2_item_1">
<text text-anchor="start" x="204" y="-410.8" font-family="Times,serif" font-size="14.00" fill="#bc1f29">S&#39; </text>
<text text-anchor="start" x="219" y="-410.8" font-family="Times,serif" font-size="14.00" fill="#0a5040">→ </text>
<text text-anchor="start" x="238" y="-410.8" font-family="Times,serif" font-size="14.00" fill="#bc1f29"> S</text>
<text text-anchor="start" x="251" y="-410.8" font-family="Times,serif" font-size="14.00" fill="#f5a70a"> •</text>
<text text-anchor="start" x="261" y="-410.8" font-family="Times,serif" font-size="14.00" fill="#0a5040"> $</text>
</a>
</g>
</g>
<!-- state_1&#45;&gt;state_2 -->
<g id="trans_3" class="edge">
<title>state_1&#45;&gt;state_2</title>
<path fill="none" stroke="#b8860b" stroke-width="1.5" d="M126.179,-380.5496C144.6828,-387.7396 164.7628,-395.5421 182.734,-402.5252"/>
<polygon fill="#b8860b" stroke="#b8860b" stroke-width="1.5" points="181.8889,-405.9517 192.4776,-406.3113 184.4243,-399.427 181.8889,-405.9517"/>
<text text-anchor="start" x="144" y="-395.8" font-family="Times,serif" font-size="14.00" fill="#bc1f29"> S</text>
</g>
<!-- state_5 -->
<g id="state_5" class="node">
<title>state_5</title>
<path fill="#fffff0" stroke="#b8860b" stroke-width="1.5" d="M289,-264.5C289,-264.5 187,-264.5 187,-264.5 181,-264.5 175,-258.5 175,-252.5 175,-252.5 175,-219.5 175,-219.5 175,-213.5 181,-207.5 187,-207.5 187,-207.5 289,-207.5 289,-207.5 295,-207.5 301,-213.5 301,-219.5 301,-219.5 301,-252.5 301,-252.5 301,-258.5 295,-264.5 289,-264.5"/>
<g id="a_state_5_title"><a xlink:href="#" xlink:title="state_5_title">
<text text-anchor="start" x="215" y="-243.6" font-family="Calibri" font-weight="bold" font-size="13.00" fill="#8b4513">Estado </text>
<text text-anchor="start" x="254" y="-243.6" font-family="Calibri" font-weight="bold" font-size="13.00" fill="#8b4513">5</text>
</a>
</g>
<g id="a_state_5_item_1"><a xlink:href="#" xlink:title="state_5_item_1">
<text text-anchor="start" x="186" y="-222.8" font-family="Times,serif" font-size="14.00" fill="#bc1f29">I </text>
<text text-anchor="start" x="195" y="-222.8" font-family="Times,serif" font-size="14.00" fill="#0a5040">→ </text>
<text text-anchor="start" x="214" y="-222.8" font-family="Times,serif" font-size="14.00" fill="#0a5040"> i</text>
<text text-anchor="start" x="222" y="-222.8" font-family="Times,serif" font-size="14.00" fill="#f5a70a"> •</text>
<text text-anchor="start" x="232" y="-222.8" font-family="Times,serif" font-size="14.00" fill="#0a5040"> (</text>
<text text-anchor="start" x="241" y="-222.8" font-family="Times,serif" font-size="14.00" fill="#bc1f29"> B</text>
<text text-anchor="start" x="255" y="-222.8" font-family="Times,serif" font-size="14.00" fill="#0a5040"> )</text>
<text text-anchor="start" x="264" y="-222.8" font-family="Times,serif" font-size="14.00" fill="#bc1f29"> S</text>
<text text-anchor="start" x="277" y="-222.8" font-family="Times,serif" font-size="14.00" fill="#bc1f29"> E</text>
</a>
</g>
</g>
<!-- state_1&#45;&gt;state_5 -->
<g id="trans_2" class="edge">
<title>state_1&#45;&gt;state_5</title>
<path fill="none" stroke="#b8860b" stroke-width="1.5" d="M126.179,-312.6772C146.4764,-298.759 168.6705,-283.5402 187.8972,-270.3562"/>
<polygon fill="#b8860b" stroke="#b8860b" stroke-width="1.5" points="189.9542,-273.1896 196.2221,-264.6477 185.9955,-267.4164 189.9542,-273.1896"/>
<text text-anchor="start" x="146.5" y="-302.8" font-family="Times,serif" font-size="14.00" fill="#0a5040"> i</text>
</g>
<!-- state_3 -->
<g id="state_3" class="node">
<title>state_3</title>
<path fill="#fffff0" stroke="#b8860b" stroke-width="1.5" d="M1304,-355.5C1304,-355.5 1255,-355.5 1255,-355.5 1249,-355.5 1243,-349.5 1243,-343.5 1243,-343.5 1243,-310.5 1243,-310.5 1243,-304.5 1249,-298.5 1255,-298.5 1255,-298.5 1304,-298.5 1304,-298.5 1310,-298.5 1316,-304.5 1316,-310.5 1316,-310.5 1316,-343.5 1316,-343.5 1316,-349.5 1310,-355.5 1304,-355.5"/>
<path fill="none" stroke="#b8860b" stroke-width="1.5" d="M1308,-359.5C1308,-359.5 1251,-359.5 1251,-359.5 1245,-359.5 1239,-353.5 1239,-347.5 1239,-347.5 1239,-306.5 1239,-306.5 1239,-300.5 1245,-294.5 1251,-294.5 1251,-294.5 1308,-294.5 1308,-294.5 1314,-294.5 1320,-300.5 1320,-306.5 1320,-306.5 1320,-347.5 1320,-347.5 1320,-353.5 1314,-359.5 1308,-359.5"/>
<g id="a_state_3_title"><a xlink:href="#" xlink:title="state_3_title">
<text text-anchor="start" x="1257" y="-334.6" font-family="Calibri" font-weight="bold" font-size="13.00" fill="#8b4513">Estado </text>
<text text-anchor="start" x="1296" y="-334.6" font-family="Calibri" font-weight="bold" font-size="13.00" fill="#8b4513">3</text>
</a>
</g>
<g id="a_state_3_item_1"><a xlink:href="#" xlink:title="state_3_item_1">
<text text-anchor="start" x="1254.5" y="-313.8" font-family="Times,serif" font-size="14.00" fill="#bc1f29">S </text>
<text text-anchor="start" x="1267.5" y="-313.8" font-family="Times,serif" font-size="14.00" fill="#0a5040">→ </text>
<text text-anchor="start" x="1286.5" y="-313.8" font-family="Times,serif" font-size="14.00" fill="#bc1f29"> I</text>
<text text-anchor="start" x="1295.5" y="-313.8" font-family="Times,serif" font-size="14.00" fill="#f5a70a"> •</text>
</a>
</g>
</g>
<!-- state_1&#45;&gt;state_3 -->
<g id="trans_4" class="edge">
<title>state_1&#45;&gt;state_3</title>
<path fill="none" stroke="#b8860b" stroke-width="1.5" d="M126.1408,-360.8162C159.4007,-362.956 200.885,-365 238,-365 238,-365 238,-365 1116,-365 1154.6905,-365 1197.2254,-354.7794 1229.2108,-344.9394"/>
<polygon fill="#b8860b" stroke="#b8860b" stroke-width="1.5" points="1230.3051,-348.2642 1238.7827,-341.9095 1228.1926,-341.5906 1230.3051,-348.2642"/>
<text text-anchor="start" x="670.5" y="-368.8" font-family="Times,serif" font-size="14.00" fill="#bc1f29"> I</text>
</g>
<!-- state_4 -->
<g id="state_4" class="node">
<title>state_4</title>
<path fill="#fffff0" stroke="#b8860b" stroke-width="1.5" d="M1305.5,-95.5C1305.5,-95.5 1253.5,-95.5 1253.5,-95.5 1247.5,-95.5 1241.5,-89.5 1241.5,-83.5 1241.5,-83.5 1241.5,-50.5 1241.5,-50.5 1241.5,-44.5 1247.5,-38.5 1253.5,-38.5 1253.5,-38.5 1305.5,-38.5 1305.5,-38.5 1311.5,-38.5 1317.5,-44.5 1317.5,-50.5 1317.5,-50.5 1317.5,-83.5 1317.5,-83.5 1317.5,-89.5 1311.5,-95.5 1305.5,-95.5"/>
<path fill="none" stroke="#b8860b" stroke-width="1.5" d="M1309.5,-99.5C1309.5,-99.5 1249.5,-99.5 1249.5,-99.5 1243.5,-99.5 1237.5,-93.5 1237.5,-87.5 1237.5,-87.5 1237.5,-46.5 1237.5,-46.5 1237.5,-40.5 1243.5,-34.5 1249.5,-34.5 1249.5,-34.5 1309.5,-34.5 1309.5,-34.5 1315.5,-34.5 1321.5,-40.5 1321.5,-46.5 1321.5,-46.5 1321.5,-87.5 1321.5,-87.5 1321.5,-93.5 1315.5,-99.5 1309.5,-99.5"/>
<g id="a_state_4_title"><a xlink:href="#" xlink:title="state_4_title">
<text text-anchor="start" x="1256.5" y="-74.6" font-family="Calibri" font-weight="bold" font-size="13.00" fill="#8b4513">Estado </text>
<text text-anchor="start" x="1295.5" y="-74.6" font-family="Calibri" font-weight="bold" font-size="13.00" fill="#8b4513">4</text>
</a>
</g>
<g id="a_state_4_item_1"><a xlink:href="#" xlink:title="state_4_item_1">
<text text-anchor="start" x="1252.5" y="-53.8" font-family="Times,serif" font-size="14.00" fill="#bc1f29">S </text>
<text text-anchor="start" x="1265.5" y="-53.8" font-family="Times,serif" font-size="14.00" fill="#0a5040">→ </text>
<text text-anchor="start" x="1284.5" y="-53.8" font-family="Times,serif" font-size="14.00" fill="#0a5040"> o</text>
<text text-anchor="start" x="1296.5" y="-53.8" font-family="Times,serif" font-size="14.00" fill="#f5a70a"> •</text>
</a>
</g>
</g>
<!-- state_1&#45;&gt;state_4 -->
<g id="trans_1" class="edge">
<title>state_1&#45;&gt;state_4</title>
<path fill="none" stroke="#b8860b" stroke-width="1.5" d="M79.3127,-295.6095C108.5485,-194.0411 172.9185,0 238,0 238,0 238,0 1116,0 1155.7863,0 1197.2249,-17.1972 1228.4295,-34.1663"/>
<polygon fill="#b8860b" stroke="#b8860b" stroke-width="1.5" points="1226.9247,-37.335 1237.3598,-39.168 1230.3454,-31.2277 1226.9247,-37.335"/>
<text text-anchor="start" x="669" y="-3.8" font-family="Times,serif" font-size="14.00" fill="#0a5040"> o</text>
</g>
<!-- state_6 -->
<g id="state_6" class="node">
<title>state_6</title>
<path fill="#fffff0" stroke="#b8860b" stroke-width="1.5" d="M445.5,-454.5C445.5,-454.5 378.5,-454.5 378.5,-454.5 372.5,-454.5 366.5,-448.5 366.5,-442.5 366.5,-442.5 366.5,-409.5 366.5,-409.5 366.5,-403.5 372.5,-397.5 378.5,-397.5 378.5,-397.5 445.5,-397.5 445.5,-397.5 451.5,-397.5 457.5,-403.5 457.5,-409.5 457.5,-409.5 457.5,-442.5 457.5,-442.5 457.5,-448.5 451.5,-454.5 445.5,-454.5"/>
<path fill="none" stroke="#b8860b" stroke-width="1.5" d="M449.5,-458.5C449.5,-458.5 374.5,-458.5 374.5,-458.5 368.5,-458.5 362.5,-452.5 362.5,-446.5 362.5,-446.5 362.5,-405.5 362.5,-405.5 362.5,-399.5 368.5,-393.5 374.5,-393.5 374.5,-393.5 449.5,-393.5 449.5,-393.5 455.5,-393.5 461.5,-399.5 461.5,-405.5 461.5,-405.5 461.5,-446.5 461.5,-446.5 461.5,-452.5 455.5,-458.5 449.5,-458.5"/>
<g id="a_state_6_title"><a xlink:href="#" xlink:title="state_6_title">
<text text-anchor="start" x="389.5" y="-433.6" font-family="Calibri" font-weight="bold" font-size="13.00" fill="#8b4513">Estado </text>
<text text-anchor="start" x="428.5" y="-433.6" font-family="Calibri" font-weight="bold" font-size="13.00" fill="#8b4513">6</text>
</a>
</g>
<g id="a_state_6_item_1"><a xlink:href="#" xlink:title="state_6_item_1">
<text text-anchor="start" x="378" y="-412.8" font-family="Times,serif" font-size="14.00" fill="#bc1f29">S&#39; </text>
<text text-anchor="start" x="393" y="-412.8" font-family="Times,serif" font-size="14.00" fill="#0a5040">→ </text>
<text text-anchor="start" x="412" y="-412.8" font-family="Times,serif" font-size="14.00" fill="#bc1f29"> S</text>
<text text-anchor="start" x="425" y="-412.8" font-family="Times,serif" font-size="14.00" fill="#0a5040"> $</text>
<text text-anchor="start" x="437" y="-412.8" font-family="Times,serif" font-size="14.00" fill="#f5a70a"> •</text>
</a>
</g>
</g>
<!-- state_2&#45;&gt;state_6 -->
<g id="trans_5" class="edge">
<title>state_2&#45;&gt;state_6</title>
<path fill="none" stroke="#b8860b" stroke-width="1.5" d="M283.7165,-424.5255C304.6725,-424.7664 329.7888,-425.055 352.2204,-425.3129"/>
<polygon fill="#b8860b" stroke="#b8860b" stroke-width="1.5" points="352.2737,-428.8136 362.3133,-425.4289 352.3542,-421.8141 352.2737,-428.8136"/>
<text text-anchor="start" x="319" y="-428.8" font-family="Times,serif" font-size="14.00" fill="#0a5040"> $</text>
</g>
<!-- state_7 -->
<g id="state_7" class="node">
<title>state_7</title>
<path fill="#fffff0" stroke="#b8860b" stroke-width="1.5" d="M463,-260.5C463,-260.5 361,-260.5 361,-260.5 355,-260.5 349,-254.5 349,-248.5 349,-248.5 349,-173.5 349,-173.5 349,-167.5 355,-161.5 361,-161.5 361,-161.5 463,-161.5 463,-161.5 469,-161.5 475,-167.5 475,-173.5 475,-173.5 475,-248.5 475,-248.5 475,-254.5 469,-260.5 463,-260.5"/>
<g id="a_state_7_title"><a xlink:href="#" xlink:title="state_7_title">
<text text-anchor="start" x="389" y="-239.6" font-family="Calibri" font-weight="bold" font-size="13.00" fill="#8b4513">Estado </text>
<text text-anchor="start" x="428" y="-239.6" font-family="Calibri" font-weight="bold" font-size="13.00" fill="#8b4513">7</text>
</a>
</g>
<g id="a_state_7_item_1"><a xlink:href="#" xlink:title="state_7_item_1">
<text text-anchor="start" x="360" y="-218.8" font-family="Times,serif" font-size="14.00" fill="#bc1f29">I </text>
<text text-anchor="start" x="369" y="-218.8" font-family="Times,serif" font-size="14.00" fill="#0a5040">→ </text>
<text text-anchor="start" x="388" y="-218.8" font-family="Times,serif" font-size="14.00" fill="#0a5040"> i</text>
<text text-anchor="start" x="396" y="-218.8" font-family="Times,serif" font-size="14.00" fill="#0a5040"> (</text>
<text text-anchor="start" x="405" y="-218.8" font-family="Times,serif" font-size="14.00" fill="#f5a70a"> •</text>
<text text-anchor="start" x="415" y="-218.8" font-family="Times,serif" font-size="14.00" fill="#bc1f29"> B</text>
<text text-anchor="start" x="429" y="-218.8" font-family="Times,serif" font-size="14.00" fill="#0a5040"> )</text>
<text text-anchor="start" x="438" y="-218.8" font-family="Times,serif" font-size="14.00" fill="#bc1f29"> S</text>
<text text-anchor="start" x="451" y="-218.8" font-family="Times,serif" font-size="14.00" fill="#bc1f29"> E</text>
</a>
</g>
<g id="a_state_7_item_2"><a xlink:href="#" xlink:title="state_7_item_2">
<text text-anchor="start" x="360" y="-197.8" font-family="Times,serif" font-size="14.00" fill="#bc1f29">B </text>
<text text-anchor="start" x="374" y="-197.8" font-family="Times,serif" font-size="14.00" fill="#0a5040">→ </text>
<text text-anchor="start" x="393" y="-197.8" font-family="Times,serif" font-size="14.00" fill="#f5a70a"> •</text>
<text text-anchor="start" x="403" y="-197.8" font-family="Times,serif" font-size="14.00" fill="#0a5040"> t</text>
</a>
</g>
<g id="a_state_7_item_3"><a xlink:href="#" xlink:title="state_7_item_3">
<text text-anchor="start" x="360" y="-176.8" font-family="Times,serif" font-size="14.00" fill="#bc1f29">B </text>
<text text-anchor="start" x="374" y="-176.8" font-family="Times,serif" font-size="14.00" fill="#0a5040">→ </text>
<text text-anchor="start" x="393" y="-176.8" font-family="Times,serif" font-size="14.00" fill="#f5a70a"> •</text>
<text text-anchor="start" x="403" y="-176.8" font-family="Times,serif" font-size="14.00" fill="#0a5040"> f</text>
</a>
</g>
</g>
<!-- state_5&#45;&gt;state_7 -->
<g id="trans_6" class="edge">
<title>state_5&#45;&gt;state_7</title>
<path fill="none" stroke="#b8860b" stroke-width="1.5" d="M301.3102,-226.9037C313.5012,-225.1521 326.364,-223.304 338.8373,-221.5119"/>
<polygon fill="#b8860b" stroke="#b8860b" stroke-width="1.5" points="339.3364,-224.9762 348.7369,-220.0895 338.3408,-218.0474 339.3364,-224.9762"/>
<text text-anchor="start" x="320.5" y="-227.8" font-family="Times,serif" font-size="14.00" fill="#0a5040"> (</text>
</g>
<!-- state_8 -->
<g id="state_8" class="node">
<title>state_8</title>
<path fill="#fffff0" stroke="#b8860b" stroke-width="1.5" d="M639,-289.5C639,-289.5 537,-289.5 537,-289.5 531,-289.5 525,-283.5 525,-277.5 525,-277.5 525,-244.5 525,-244.5 525,-238.5 531,-232.5 537,-232.5 537,-232.5 639,-232.5 639,-232.5 645,-232.5 651,-238.5 651,-244.5 651,-244.5 651,-277.5 651,-277.5 651,-283.5 645,-289.5 639,-289.5"/>
<g id="a_state_8_title"><a xlink:href="#" xlink:title="state_8_title">
<text text-anchor="start" x="565" y="-268.6" font-family="Calibri" font-weight="bold" font-size="13.00" fill="#8b4513">Estado </text>
<text text-anchor="start" x="604" y="-268.6" font-family="Calibri" font-weight="bold" font-size="13.00" fill="#8b4513">8</text>
</a>
</g>
<g id="a_state_8_item_1"><a xlink:href="#" xlink:title="state_8_item_1">
<text text-anchor="start" x="536" y="-247.8" font-family="Times,serif" font-size="14.00" fill="#bc1f29">I </text>
<text text-anchor="start" x="545" y="-247.8" font-family="Times,serif" font-size="14.00" fill="#0a5040">→ </text>
<text text-anchor="start" x="564" y="-247.8" font-family="Times,serif" font-size="14.00" fill="#0a5040"> i</text>
<text text-anchor="start" x="572" y="-247.8" font-family="Times,serif" font-size="14.00" fill="#0a5040"> (</text>
<text text-anchor="start" x="581" y="-247.8" font-family="Times,serif" font-size="14.00" fill="#bc1f29"> B</text>
<text text-anchor="start" x="595" y="-247.8" font-family="Times,serif" font-size="14.00" fill="#f5a70a"> •</text>
<text text-anchor="start" x="605" y="-247.8" font-family="Times,serif" font-size="14.00" fill="#0a5040"> )</text>
<text text-anchor="start" x="614" y="-247.8" font-family="Times,serif" font-size="14.00" fill="#bc1f29"> S</text>
<text text-anchor="start" x="627" y="-247.8" font-family="Times,serif" font-size="14.00" fill="#bc1f29"> E</text>
</a>
</g>
</g>
<!-- state_7&#45;&gt;state_8 -->
<g id="trans_7" class="edge">
<title>state_7&#45;&gt;state_8</title>
<path fill="none" stroke="#b8860b" stroke-width="1.5" d="M475.0429,-228.9099C487.9333,-232.572 501.6026,-236.4553 514.8133,-240.2083"/>
<polygon fill="#b8860b" stroke="#b8860b" stroke-width="1.5" points="514.2298,-243.681 524.8057,-243.0471 516.1428,-236.9475 514.2298,-243.681"/>
<text text-anchor="start" x="493" y="-240.8" font-family="Times,serif" font-size="14.00" fill="#bc1f29"> B</text>
</g>
<!-- state_9 -->
<g id="state_9" class="node">
<title>state_9</title>
<path fill="#fffff0" stroke="#b8860b" stroke-width="1.5" d="M612.5,-127.5C612.5,-127.5 563.5,-127.5 563.5,-127.5 557.5,-127.5 551.5,-121.5 551.5,-115.5 551.5,-115.5 551.5,-82.5 551.5,-82.5 551.5,-76.5 557.5,-70.5 563.5,-70.5 563.5,-70.5 612.5,-70.5 612.5,-70.5 618.5,-70.5 624.5,-76.5 624.5,-82.5 624.5,-82.5 624.5,-115.5 624.5,-115.5 624.5,-121.5 618.5,-127.5 612.5,-127.5"/>
<path fill="none" stroke="#b8860b" stroke-width="1.5" d="M616.5,-131.5C616.5,-131.5 559.5,-131.5 559.5,-131.5 553.5,-131.5 547.5,-125.5 547.5,-119.5 547.5,-119.5 547.5,-78.5 547.5,-78.5 547.5,-72.5 553.5,-66.5 559.5,-66.5 559.5,-66.5 616.5,-66.5 616.5,-66.5 622.5,-66.5 628.5,-72.5 628.5,-78.5 628.5,-78.5 628.5,-119.5 628.5,-119.5 628.5,-125.5 622.5,-131.5 616.5,-131.5"/>
<g id="a_state_9_title"><a xlink:href="#" xlink:title="state_9_title">
<text text-anchor="start" x="565.5" y="-106.6" font-family="Calibri" font-weight="bold" font-size="13.00" fill="#8b4513">Estado </text>
<text text-anchor="start" x="604.5" y="-106.6" font-family="Calibri" font-weight="bold" font-size="13.00" fill="#8b4513">9</text>
</a>
</g>
<g id="a_state_9_item_1"><a xlink:href="#" xlink:title="state_9_item_1">
<text text-anchor="start" x="563" y="-85.8" font-family="Times,serif" font-size="14.00" fill="#bc1f29">B </text>
<text text-anchor="start" x="577" y="-85.8" font-family="Times,serif" font-size="14.00" fill="#0a5040">→ </text>
<text text-anchor="start" x="596" y="-85.8" font-family="Times,serif" font-size="14.00" fill="#0a5040"> t</text>
<text text-anchor="start" x="604" y="-85.8" font-family="Times,serif" font-size="14.00" fill="#f5a70a"> •</text>
</a>
</g>
</g>
<!-- state_7&#45;&gt;state_9 -->
<g id="trans_8" class="edge">
<title>state_7&#45;&gt;state_9</title>
<path fill="none" stroke="#b8860b" stroke-width="1.5" d="M475.0429,-170.8818C496.0076,-157.5406 519.0324,-142.8885 538.7939,-130.313"/>
<polygon fill="#b8860b" stroke="#b8860b" stroke-width="1.5" points="540.7778,-133.1991 547.3354,-124.8775 537.0197,-127.2935 540.7778,-133.1991"/>
<text text-anchor="start" x="496" y="-161.8" font-family="Times,serif" font-size="14.00" fill="#0a5040"> t</text>
</g>
<!-- state_10 -->
<g id="state_10" class="node">
<title>state_10</title>
<path fill="#fffff0" stroke="#b8860b" stroke-width="1.5" d="M613.5,-210.5C613.5,-210.5 562.5,-210.5 562.5,-210.5 556.5,-210.5 550.5,-204.5 550.5,-198.5 550.5,-198.5 550.5,-165.5 550.5,-165.5 550.5,-159.5 556.5,-153.5 562.5,-153.5 562.5,-153.5 613.5,-153.5 613.5,-153.5 619.5,-153.5 625.5,-159.5 625.5,-165.5 625.5,-165.5 625.5,-198.5 625.5,-198.5 625.5,-204.5 619.5,-210.5 613.5,-210.5"/>
<path fill="none" stroke="#b8860b" stroke-width="1.5" d="M617.5,-214.5C617.5,-214.5 558.5,-214.5 558.5,-214.5 552.5,-214.5 546.5,-208.5 546.5,-202.5 546.5,-202.5 546.5,-161.5 546.5,-161.5 546.5,-155.5 552.5,-149.5 558.5,-149.5 558.5,-149.5 617.5,-149.5 617.5,-149.5 623.5,-149.5 629.5,-155.5 629.5,-161.5 629.5,-161.5 629.5,-202.5 629.5,-202.5 629.5,-208.5 623.5,-214.5 617.5,-214.5"/>
<g id="a_state_10_title"><a xlink:href="#" xlink:title="state_10_title">
<text text-anchor="start" x="562" y="-189.6" font-family="Calibri" font-weight="bold" font-size="13.00" fill="#8b4513">Estado </text>
<text text-anchor="start" x="601" y="-189.6" font-family="Calibri" font-weight="bold" font-size="13.00" fill="#8b4513">10</text>
</a>
</g>
<g id="a_state_10_item_1"><a xlink:href="#" xlink:title="state_10_item_1">
<text text-anchor="start" x="562" y="-168.8" font-family="Times,serif" font-size="14.00" fill="#bc1f29">B </text>
<text text-anchor="start" x="576" y="-168.8" font-family="Times,serif" font-size="14.00" fill="#0a5040">→ </text>
<text text-anchor="start" x="595" y="-168.8" font-family="Times,serif" font-size="14.00" fill="#0a5040"> f</text>
<text text-anchor="start" x="604" y="-168.8" font-family="Times,serif" font-size="14.00" fill="#f5a70a"> •</text>
</a>
</g>
</g>
<!-- state_7&#45;&gt;state_10 -->
<g id="trans_9" class="edge">
<title>state_7&#45;&gt;state_10</title>
<path fill="none" stroke="#b8860b" stroke-width="1.5" d="M475.0429,-200.6122C495.1091,-197.3059 517.0625,-193.6886 536.2355,-190.5294"/>
<polygon fill="#b8860b" stroke="#b8860b" stroke-width="1.5" points="536.9786,-193.9542 546.2765,-188.8749 535.8405,-187.0473 536.9786,-193.9542"/>
<text text-anchor="start" x="495.5" y="-200.8" font-family="Times,serif" font-size="14.00" fill="#0a5040"> f</text>
</g>
<!-- state_11 -->
<g id="state_11" class="node">
<title>state_11</title>
<path fill="#fffff0" stroke="#b8860b" stroke-width="1.5" d="M813,-321C813,-321 711,-321 711,-321 705,-321 699,-315 699,-309 699,-309 699,-213 699,-213 699,-207 705,-201 711,-201 711,-201 813,-201 813,-201 819,-201 825,-207 825,-213 825,-213 825,-309 825,-309 825,-315 819,-321 813,-321"/>
<g id="a_state_11_title"><a xlink:href="#" xlink:title="state_11_title">
<text text-anchor="start" x="735.5" y="-300.6" font-family="Calibri" font-weight="bold" font-size="13.00" fill="#8b4513">Estado </text>
<text text-anchor="start" x="774.5" y="-300.6" font-family="Calibri" font-weight="bold" font-size="13.00" fill="#8b4513">11</text>
</a>
</g>
<g id="a_state_11_item_1"><a xlink:href="#" xlink:title="state_11_item_1">
<text text-anchor="start" x="710" y="-279.8" font-family="Times,serif" font-size="14.00" fill="#bc1f29">I </text>
<text text-anchor="start" x="719" y="-279.8" font-family="Times,serif" font-size="14.00" fill="#0a5040">→ </text>
<text text-anchor="start" x="738" y="-279.8" font-family="Times,serif" font-size="14.00" fill="#0a5040"> i</text>
<text text-anchor="start" x="746" y="-279.8" font-family="Times,serif" font-size="14.00" fill="#0a5040"> (</text>
<text text-anchor="start" x="755" y="-279.8" font-family="Times,serif" font-size="14.00" fill="#bc1f29"> B</text>
<text text-anchor="start" x="769" y="-279.8" font-family="Times,serif" font-size="14.00" fill="#0a5040"> )</text>
<text text-anchor="start" x="778" y="-279.8" font-family="Times,serif" font-size="14.00" fill="#f5a70a"> •</text>
<text text-anchor="start" x="788" y="-279.8" font-family="Times,serif" font-size="14.00" fill="#bc1f29"> S</text>
<text text-anchor="start" x="801" y="-279.8" font-family="Times,serif" font-size="14.00" fill="#bc1f29"> E</text>
</a>
</g>
<g id="a_state_11_item_2"><a xlink:href="#" xlink:title="state_11_item_2">
<text text-anchor="start" x="710" y="-258.8" font-family="Times,serif" font-size="14.00" fill="#bc1f29">S </text>
<text text-anchor="start" x="723" y="-258.8" font-family="Times,serif" font-size="14.00" fill="#0a5040">→ </text>
<text text-anchor="start" x="742" y="-258.8" font-family="Times,serif" font-size="14.00" fill="#f5a70a"> •</text>
<text text-anchor="start" x="752" y="-258.8" font-family="Times,serif" font-size="14.00" fill="#bc1f29"> I</text>
</a>
</g>
<g id="a_state_11_item_3"><a xlink:href="#" xlink:title="state_11_item_3">
<text text-anchor="start" x="710" y="-237.8" font-family="Times,serif" font-size="14.00" fill="#bc1f29">S </text>
<text text-anchor="start" x="723" y="-237.8" font-family="Times,serif" font-size="14.00" fill="#0a5040">→ </text>
<text text-anchor="start" x="742" y="-237.8" font-family="Times,serif" font-size="14.00" fill="#f5a70a"> •</text>
<text text-anchor="start" x="752" y="-237.8" font-family="Times,serif" font-size="14.00" fill="#0a5040"> o</text>
</a>
</g>
<g id="a_state_11_item_4"><a xlink:href="#" xlink:title="state_11_item_4">
<text text-anchor="start" x="710" y="-216.8" font-family="Times,serif" font-size="14.00" fill="#bc1f29">I </text>
<text text-anchor="start" x="719" y="-216.8" font-family="Times,serif" font-size="14.00" fill="#0a5040">→ </text>
<text text-anchor="start" x="738" y="-216.8" font-family="Times,serif" font-size="14.00" fill="#f5a70a"> •</text>
<text text-anchor="start" x="748" y="-216.8" font-family="Times,serif" font-size="14.00" fill="#0a5040"> i</text>
<text text-anchor="start" x="756" y="-216.8" font-family="Times,serif" font-size="14.00" fill="#0a5040"> (</text>
<text text-anchor="start" x="765" y="-216.8" font-family="Times,serif" font-size="14.00" fill="#bc1f29"> B</text>
<text text-anchor="start" x="779" y="-216.8" font-family="Times,serif" font-size="14.00" fill="#0a5040"> )</text>
<text text-anchor="start" x="788" y="-216.8" font-family="Times,serif" font-size="14.00" fill="#bc1f29"> S</text>
<text text-anchor="start" x="801" y="-216.8" font-family="Times,serif" font-size="14.00" fill="#bc1f29"> E</text>
</a>
</g>
</g>
<!-- state_8&#45;&gt;state_11 -->
<g id="trans_10" class="edge">
<title>state_8&#45;&gt;state_11</title>
<path fill="none" stroke="#b8860b" stroke-width="1.5" d="M651.3102,-261C663.3805,-261 676.1094,-261 688.4667,-261"/>
<polygon fill="#b8860b" stroke="#b8860b" stroke-width="1.5" points="688.737,-264.5001 698.7369,-261 688.7369,-257.5001 688.737,-264.5001"/>
<text text-anchor="start" x="670.5" y="-264.8" font-family="Times,serif" font-size="14.00" fill="#0a5040"> )</text>
</g>
<!-- state_11&#45;&gt;state_5 -->
<g id="trans_14" class="edge">
<title>state_11&#45;&gt;state_5</title>
<path fill="none" stroke="#b8860b" stroke-width="1.5" d="M698.9516,-286.5886C683.52,-291.7282 666.873,-296.3583 651,-299 532.0592,-318.7953 393.4331,-286.3141 310.8456,-261.1037"/>
<polygon fill="#b8860b" stroke="#b8860b" stroke-width="1.5" points="311.6447,-257.6872 301.0568,-258.0693 309.5721,-264.3733 311.6447,-257.6872"/>
<text text-anchor="start" x="496" y="-304.8" font-family="Times,serif" font-size="14.00" fill="#0a5040"> i</text>
</g>
<!-- state_11&#45;&gt;state_3 -->
<g id="trans_12" class="edge">
<title>state_11&#45;&gt;state_3</title>
<path fill="none" stroke="#b8860b" stroke-width="1.5" d="M825.2812,-292.0729C840.8639,-298.4504 857.7503,-304.3309 874,-308 998.9137,-336.2051 1150.7907,-333.9434 1228.4251,-330.2549"/>
<polygon fill="#b8860b" stroke="#b8860b" stroke-width="1.5" points="1229.0653,-333.7271 1238.8764,-329.728 1228.7128,-326.736 1229.0653,-333.7271"/>
<text text-anchor="start" x="1020" y="-332.8" font-family="Times,serif" font-size="14.00" fill="#bc1f29"> I</text>
</g>
<!-- state_11&#45;&gt;state_4 -->
<g id="trans_13" class="edge">
<title>state_11&#45;&gt;state_4</title>
<path fill="none" stroke="#b8860b" stroke-width="1.5" d="M825.1785,-210.2477C880.6168,-168.8433 965.2536,-112.9493 1049,-86 1107.9344,-67.0351 1179.4924,-64.0227 1227.0891,-64.6262"/>
<polygon fill="#b8860b" stroke="#b8860b" stroke-width="1.5" points="1227.1018,-68.127 1237.1649,-64.8126 1227.2314,-61.1282 1227.1018,-68.127"/>
<text text-anchor="start" x="1018.5" y="-100.8" font-family="Times,serif" font-size="14.00" fill="#0a5040"> o</text>
</g>
<!-- state_12 -->
<g id="state_12" class="node">
<title>state_12</title>
<path fill="#f5f5dc" stroke="#b8860b" stroke-width="1.5" stroke-dasharray="5,2" d="M988,-298.5C988,-298.5 886,-298.5 886,-298.5 880,-298.5 874,-292.5 874,-286.5 874,-286.5 874,-211.5 874,-211.5 874,-205.5 880,-199.5 886,-199.5 886,-199.5 988,-199.5 988,-199.5 994,-199.5 1000,-205.5 1000,-211.5 1000,-211.5 1000,-286.5 1000,-286.5 1000,-292.5 994,-298.5 988,-298.5"/>
<g id="a_state_12_title"><a xlink:href="#" xlink:title="state_12_title">
<text text-anchor="start" x="910.5" y="-277.6" font-family="Calibri" font-weight="bold" font-size="13.00" fill="#8b4513">Estado </text>
<text text-anchor="start" x="949.5" y="-277.6" font-family="Calibri" font-weight="bold" font-size="13.00" fill="#8b4513">12</text>
</a>
</g>
<g id="a_state_12_item_1"><a xlink:href="#" xlink:title="state_12_item_1">
<text text-anchor="start" x="885" y="-256.8" font-family="Times,serif" font-size="14.00" fill="#bc1f29">I </text>
<text text-anchor="start" x="894" y="-256.8" font-family="Times,serif" font-size="14.00" fill="#0a5040">→ </text>
<text text-anchor="start" x="913" y="-256.8" font-family="Times,serif" font-size="14.00" fill="#0a5040"> i</text>
<text text-anchor="start" x="921" y="-256.8" font-family="Times,serif" font-size="14.00" fill="#0a5040"> (</text>
<text text-anchor="start" x="930" y="-256.8" font-family="Times,serif" font-size="14.00" fill="#bc1f29"> B</text>
<text text-anchor="start" x="944" y="-256.8" font-family="Times,serif" font-size="14.00" fill="#0a5040"> )</text>
<text text-anchor="start" x="953" y="-256.8" font-family="Times,serif" font-size="14.00" fill="#bc1f29"> S</text>
<text text-anchor="start" x="966" y="-256.8" font-family="Times,serif" font-size="14.00" fill="#f5a70a"> •</text>
<text text-anchor="start" x="976" y="-256.8" font-family="Times,serif" font-size="14.00" fill="#bc1f29"> E</text>
</a>
</g>
<g id="a_state_12_item_2"><a xlink:href="#" xlink:title="state_12_item_2">
<text text-anchor="start" x="885" y="-235.8" font-family="Times,serif" font-size="14.00" fill="#bc1f29">E </text>
<text text-anchor="start" x="898" y="-235.8" font-family="Times,serif" font-size="14.00" fill="#0a5040">→ </text>
<text text-anchor="start" x="917" y="-235.8" font-family="Times,serif" font-size="14.00" fill="#f5a70a"> •</text>
<text text-anchor="start" x="927" y="-235.8" font-family="Times,serif" font-size="14.00" fill="#0a5040"> e</text>
<text text-anchor="start" x="937" y="-235.8" font-family="Times,serif" font-size="14.00" fill="#bc1f29"> S</text>
</a>
</g>
<g id="a_state_12_item_3"><a xlink:href="#" xlink:title="state_12_item_3">
<text text-anchor="start" x="885" y="-214.8" font-family="Times,serif" font-size="14.00" fill="#bc1f29">E </text>
<text text-anchor="start" x="898" y="-214.8" font-family="Times,serif" font-size="14.00" fill="#0a5040">→ </text>
<text text-anchor="start" x="917" y="-214.8" font-family="Times,serif" font-size="14.00" fill="#f5a70a"> •</text>
</a>
</g>
</g>
<!-- state_11&#45;&gt;state_12 -->
<g id="trans_11" class="edge">
<title>state_11&#45;&gt;state_12</title>
<path fill="none" stroke="#b8860b" stroke-width="1.5" d="M825.179,-256.6677C837.6939,-255.8096 850.9297,-254.902 863.7465,-254.0231"/>
<polygon fill="#b8860b" stroke="#b8860b" stroke-width="1.5" points="864.1766,-257.5019 873.9137,-253.3259 863.6977,-250.5183 864.1766,-257.5019"/>
<text text-anchor="start" x="843" y="-258.8" font-family="Times,serif" font-size="14.00" fill="#bc1f29"> S</text>
</g>
<!-- state_14 -->
<g id="state_14" class="node">
<title>state_14</title>
<path fill="#fffff0" stroke="#b8860b" stroke-width="1.5" d="M1167,-215C1167,-215 1065,-215 1065,-215 1059,-215 1053,-209 1053,-203 1053,-203 1053,-107 1053,-107 1053,-101 1059,-95 1065,-95 1065,-95 1167,-95 1167,-95 1173,-95 1179,-101 1179,-107 1179,-107 1179,-203 1179,-203 1179,-209 1173,-215 1167,-215"/>
<g id="a_state_14_title"><a xlink:href="#" xlink:title="state_14_title">
<text text-anchor="start" x="1089.5" y="-194.6" font-family="Calibri" font-weight="bold" font-size="13.00" fill="#8b4513">Estado </text>
<text text-anchor="start" x="1128.5" y="-194.6" font-family="Calibri" font-weight="bold" font-size="13.00" fill="#8b4513">14</text>
</a>
</g>
<g id="a_state_14_item_1"><a xlink:href="#" xlink:title="state_14_item_1">
<text text-anchor="start" x="1064" y="-173.8" font-family="Times,serif" font-size="14.00" fill="#bc1f29">E </text>
<text text-anchor="start" x="1077" y="-173.8" font-family="Times,serif" font-size="14.00" fill="#0a5040">→ </text>
<text text-anchor="start" x="1096" y="-173.8" font-family="Times,serif" font-size="14.00" fill="#0a5040"> e</text>
<text text-anchor="start" x="1106" y="-173.8" font-family="Times,serif" font-size="14.00" fill="#f5a70a"> •</text>
<text text-anchor="start" x="1116" y="-173.8" font-family="Times,serif" font-size="14.00" fill="#bc1f29"> S</text>
</a>
</g>
<g id="a_state_14_item_2"><a xlink:href="#" xlink:title="state_14_item_2">
<text text-anchor="start" x="1064" y="-152.8" font-family="Times,serif" font-size="14.00" fill="#bc1f29">S </text>
<text text-anchor="start" x="1077" y="-152.8" font-family="Times,serif" font-size="14.00" fill="#0a5040">→ </text>
<text text-anchor="start" x="1096" y="-152.8" font-family="Times,serif" font-size="14.00" fill="#f5a70a"> •</text>
<text text-anchor="start" x="1106" y="-152.8" font-family="Times,serif" font-size="14.00" fill="#bc1f29"> I</text>
</a>
</g>
<g id="a_state_14_item_3"><a xlink:href="#" xlink:title="state_14_item_3">
<text text-anchor="start" x="1064" y="-131.8" font-family="Times,serif" font-size="14.00" fill="#bc1f29">S </text>
<text text-anchor="start" x="1077" y="-131.8" font-family="Times,serif" font-size="14.00" fill="#0a5040">→ </text>
<text text-anchor="start" x="1096" y="-131.8" font-family="Times,serif" font-size="14.00" fill="#f5a70a"> •</text>
<text text-anchor="start" x="1106" y="-131.8" font-family="Times,serif" font-size="14.00" fill="#0a5040"> o</text>
</a>
</g>
<g id="a_state_14_item_4"><a xlink:href="#" xlink:title="state_14_item_4">
<text text-anchor="start" x="1064" y="-110.8" font-family="Times,serif" font-size="14.00" fill="#bc1f29">I </text>
<text text-anchor="start" x="1073" y="-110.8" font-family="Times,serif" font-size="14.00" fill="#0a5040">→ </text>
<text text-anchor="start" x="1092" y="-110.8" font-family="Times,serif" font-size="14.00" fill="#f5a70a"> •</text>
<text text-anchor="start" x="1102" y="-110.8" font-family="Times,serif" font-size="14.00" fill="#0a5040"> i</text>
<text text-anchor="start" x="1110" y="-110.8" font-family="Times,serif" font-size="14.00" fill="#0a5040"> (</text>
<text text-anchor="start" x="1119" y="-110.8" font-family="Times,serif" font-size="14.00" fill="#bc1f29"> B</text>
<text text-anchor="start" x="1133" y="-110.8" font-family="Times,serif" font-size="14.00" fill="#0a5040"> )</text>
<text text-anchor="start" x="1142" y="-110.8" font-family="Times,serif" font-size="14.00" fill="#bc1f29"> S</text>
<text text-anchor="start" x="1155" y="-110.8" font-family="Times,serif" font-size="14.00" fill="#bc1f29"> E</text>
</a>
</g>
</g>
<!-- state_14&#45;&gt;state_5 -->
<g id="trans_20" class="edge">
<title>state_14&#45;&gt;state_5</title>
<path fill="none" stroke="#b8860b" stroke-width="1.5" d="M1060.2015,-94.7864C1027.5222,-66.1186 983.5931,-38 937,-38 412,-38 412,-38 412,-38 327.86,-38 274.8262,-140.1352 251.619,-197.6953"/>
<polygon fill="#b8860b" stroke="#b8860b" stroke-width="1.5" points="248.2807,-196.6214 247.8905,-207.2091 254.7981,-199.1757 248.2807,-196.6214"/>
<text text-anchor="start" x="671" y="-41.8" font-family="Times,serif" font-size="14.00" fill="#0a5040"> i</text>
</g>
<!-- state_14&#45;&gt;state_3 -->
<g id="trans_18" class="edge">
<title>state_14&#45;&gt;state_3</title>
<path fill="none" stroke="#b8860b" stroke-width="1.5" d="M1173.7658,-215.3078C1176.8911,-218.5846 1179.9849,-221.8315 1183,-225 1202.4345,-245.4231 1224.0035,-268.21 1241.8124,-287.057"/>
<polygon fill="#b8860b" stroke="#b8860b" stroke-width="1.5" points="1239.2805,-289.4736 1248.6918,-294.3394 1244.369,-284.6666 1239.2805,-289.4736"/>
<text text-anchor="start" x="1203" y="-258.8" font-family="Times,serif" font-size="14.00" fill="#bc1f29"> I</text>
</g>
<!-- state_14&#45;&gt;state_4 -->
<g id="trans_19" class="edge">
<title>state_14&#45;&gt;state_4</title>
<path fill="none" stroke="#b8860b" stroke-width="1.5" d="M1179.2134,-120.9769C1195.4389,-112.2439 1212.6929,-102.9574 1228.2319,-94.5939"/>
<polygon fill="#b8860b" stroke="#b8860b" stroke-width="1.5" points="1230.0153,-97.6088 1237.1621,-89.7874 1226.6977,-91.4449 1230.0153,-97.6088"/>
<text text-anchor="start" x="1201.5" y="-112.8" font-family="Times,serif" font-size="14.00" fill="#0a5040"> o</text>
</g>
<!-- state_15 -->
<g id="state_15" class="node">
<title>state_15</title>
<path fill="#fffff0" stroke="#b8860b" stroke-width="1.5" d="M1311,-183.5C1311,-183.5 1248,-183.5 1248,-183.5 1242,-183.5 1236,-177.5 1236,-171.5 1236,-171.5 1236,-138.5 1236,-138.5 1236,-132.5 1242,-126.5 1248,-126.5 1248,-126.5 1311,-126.5 1311,-126.5 1317,-126.5 1323,-132.5 1323,-138.5 1323,-138.5 1323,-171.5 1323,-171.5 1323,-177.5 1317,-183.5 1311,-183.5"/>
<path fill="none" stroke="#b8860b" stroke-width="1.5" d="M1315,-187.5C1315,-187.5 1244,-187.5 1244,-187.5 1238,-187.5 1232,-181.5 1232,-175.5 1232,-175.5 1232,-134.5 1232,-134.5 1232,-128.5 1238,-122.5 1244,-122.5 1244,-122.5 1315,-122.5 1315,-122.5 1321,-122.5 1327,-128.5 1327,-134.5 1327,-134.5 1327,-175.5 1327,-175.5 1327,-181.5 1321,-187.5 1315,-187.5"/>
<g id="a_state_15_title"><a xlink:href="#" xlink:title="state_15_title">
<text text-anchor="start" x="1253.5" y="-162.6" font-family="Calibri" font-weight="bold" font-size="13.00" fill="#8b4513">Estado </text>
<text text-anchor="start" x="1292.5" y="-162.6" font-family="Calibri" font-weight="bold" font-size="13.00" fill="#8b4513">15</text>
</a>
</g>
<g id="a_state_15_item_1"><a xlink:href="#" xlink:title="state_15_item_1">
<text text-anchor="start" x="1247.5" y="-141.8" font-family="Times,serif" font-size="14.00" fill="#bc1f29">E </text>
<text text-anchor="start" x="1260.5" y="-141.8" font-family="Times,serif" font-size="14.00" fill="#0a5040">→ </text>
<text text-anchor="start" x="1279.5" y="-141.8" font-family="Times,serif" font-size="14.00" fill="#0a5040"> e</text>
<text text-anchor="start" x="1289.5" y="-141.8" font-family="Times,serif" font-size="14.00" fill="#bc1f29"> S</text>
<text text-anchor="start" x="1302.5" y="-141.8" font-family="Times,serif" font-size="14.00" fill="#f5a70a"> •</text>
</a>
</g>
</g>
<!-- state_14&#45;&gt;state_15 -->
<g id="trans_17" class="edge">
<title>state_14&#45;&gt;state_15</title>
<path fill="none" stroke="#b8860b" stroke-width="1.5" d="M1179.2134,-155C1193.1769,-155 1207.9022,-155 1221.6405,-155"/>
<polygon fill="#b8860b" stroke="#b8860b" stroke-width="1.5" points="1221.925,-158.5001 1231.925,-155 1221.925,-151.5001 1221.925,-158.5001"/>
<text text-anchor="start" x="1201" y="-158.8" font-family="Times,serif" font-size="14.00" fill="#bc1f29"> S</text>
</g>
<!-- state_13 -->
<g id="state_13" class="node">
<title>state_13</title>
<path fill="#fffff0" stroke="#b8860b" stroke-width="1.5" d="M1167,-294.5C1167,-294.5 1065,-294.5 1065,-294.5 1059,-294.5 1053,-288.5 1053,-282.5 1053,-282.5 1053,-249.5 1053,-249.5 1053,-243.5 1059,-237.5 1065,-237.5 1065,-237.5 1167,-237.5 1167,-237.5 1173,-237.5 1179,-243.5 1179,-249.5 1179,-249.5 1179,-282.5 1179,-282.5 1179,-288.5 1173,-294.5 1167,-294.5"/>
<path fill="none" stroke="#b8860b" stroke-width="1.5" d="M1171,-298.5C1171,-298.5 1061,-298.5 1061,-298.5 1055,-298.5 1049,-292.5 1049,-286.5 1049,-286.5 1049,-245.5 1049,-245.5 1049,-239.5 1055,-233.5 1061,-233.5 1061,-233.5 1171,-233.5 1171,-233.5 1177,-233.5 1183,-239.5 1183,-245.5 1183,-245.5 1183,-286.5 1183,-286.5 1183,-292.5 1177,-298.5 1171,-298.5"/>
<g id="a_state_13_title"><a xlink:href="#" xlink:title="state_13_title">
<text text-anchor="start" x="1089.5" y="-273.6" font-family="Calibri" font-weight="bold" font-size="13.00" fill="#8b4513">Estado </text>
<text text-anchor="start" x="1128.5" y="-273.6" font-family="Calibri" font-weight="bold" font-size="13.00" fill="#8b4513">13</text>
</a>
</g>
<g id="a_state_13_item_1"><a xlink:href="#" xlink:title="state_13_item_1">
<text text-anchor="start" x="1064" y="-252.8" font-family="Times,serif" font-size="14.00" fill="#bc1f29">I </text>
<text text-anchor="start" x="1073" y="-252.8" font-family="Times,serif" font-size="14.00" fill="#0a5040">→ </text>
<text text-anchor="start" x="1092" y="-252.8" font-family="Times,serif" font-size="14.00" fill="#0a5040"> i</text>
<text text-anchor="start" x="1100" y="-252.8" font-family="Times,serif" font-size="14.00" fill="#0a5040"> (</text>
<text text-anchor="start" x="1109" y="-252.8" font-family="Times,serif" font-size="14.00" fill="#bc1f29"> B</text>
<text text-anchor="start" x="1123" y="-252.8" font-family="Times,serif" font-size="14.00" fill="#0a5040"> )</text>
<text text-anchor="start" x="1132" y="-252.8" font-family="Times,serif" font-size="14.00" fill="#bc1f29"> S</text>
<text text-anchor="start" x="1145" y="-252.8" font-family="Times,serif" font-size="14.00" fill="#bc1f29"> E</text>
<text text-anchor="start" x="1158" y="-252.8" font-family="Times,serif" font-size="14.00" fill="#f5a70a"> •</text>
</a>
</g>
</g>
<!-- state_12&#45;&gt;state_14 -->
<g id="trans_16" class="edge">
<title>state_12&#45;&gt;state_14</title>
<path fill="none" stroke="#b8860b" stroke-width="1.5" d="M1000.1087,-215.8591C1014.279,-208.4177 1029.4186,-200.4673 1043.9231,-192.8504"/>
<polygon fill="#b8860b" stroke="#b8860b" stroke-width="1.5" points="1045.6316,-195.9065 1052.8579,-188.1584 1042.3771,-189.7091 1045.6316,-195.9065"/>
<text text-anchor="start" x="1019.5" y="-207.8" font-family="Times,serif" font-size="14.00" fill="#0a5040"> e</text>
</g>
<!-- state_12&#45;&gt;state_13 -->
<g id="trans_15" class="edge">
<title>state_12&#45;&gt;state_13</title>
<path fill="none" stroke="#b8860b" stroke-width="1.5" d="M1000.1087,-254.9936C1012.5781,-256.1778 1025.7981,-257.4333 1038.6754,-258.6563"/>
<polygon fill="#b8860b" stroke="#b8860b" stroke-width="1.5" points="1038.6222,-262.1669 1048.9084,-259.6282 1039.2841,-255.1983 1038.6222,-262.1669"/>
<text text-anchor="start" x="1018" y="-260.8" font-family="Times,serif" font-size="14.00" fill="#bc1f29"> E</text>
</g>
</g>
</svg>
