<?xml version="1.0" encoding="UTF-8" standalone="no"?>
<!DOCTYPE svg PUBLIC "-//W3C//DTD SVG 1.1//EN"
 "http://www.w3.org/Graphics/SVG/1.1/DTD/svg11.dtd">
<!-- Generated by graphviz version 2.40.1 (20161225.0304)
 -->
<!-- Title: DFA Pages: 1 -->
<svg width="1002pt" height="291pt"
 viewBox="0.00 0.00 1002.00 290.50" xmlns="http://www.w3.org/2000/svg" xmlns:xlink="http://www.w3.org/1999/xlink">
<g id="graph0" class="graph" transform="scale(1 1) rotate(0) translate(4 286.5)">
<title>DFA</title>
<!-- state_1 -->
<g id="state_1" class="node">
<title>state_1</title>
<path fill="#fffff0" stroke="#b8860b" stroke-width="1.5" d="M179,-250C179,-250 12,-250 12,-250 6,-250 0,-244 0,-238 0,-238 0,-142 0,-142 0,-136 6,-130 12,-130 12,-130 179,-130 179,-130 185,-130 191,-136 191,-142 191,-142 191,-238 191,-238 191,-244 185,-250 179,-250"/>
<g id="a_state_1_title"><a xlink:href="#" xlink:title="state_1_title">
<text text-anchor="start" x="73" y="-229.6" font-family="Calibri" font-weight="bold" font-size="13.00" fill="#8b4513">Estado </text>
<text text-anchor="start" x="112" y="-229.6" font-family="Calibri" font-weight="bold" font-size="13.00" fill="#8b4513">1</text>
</a>
</g>
<g id="a_state_1_item_1"><a xlink:href="#" xlink:title="state_1_item_1">
<text text-anchor="start" x="11.5" y="-208.8" font-family="Times,serif" font-size="14.00" fill="#bc1f29">List&#39; </text>
<text text-anchor="start" x="39.5" y="-208.8" font-family="Times,serif" font-size="14.00" fill="#0a5040">→ </text>
<text text-anchor="start" x="58.5" y="-208.8" font-family="Times,serif" font-size="14.00" fill="#f5a70a"> •</text>
<text text-anchor="start" x="68.5" y="-208.8" font-family="Times,serif" font-size="14.00" fill="#bc1f29"> List</text>
<text text-anchor="start" x="94.5" y="-208.8" font-family="Times,serif" font-size="14.00" fill="#0a5040"> $</text>
</a>
</g>
<g id="a_state_1_item_2"><a xlink:href="#" xlink:title="state_1_item_2">
<text text-anchor="start" x="11.5" y="-187.8" font-family="Times,serif" font-size="14.00" fill="#bc1f29">List </text>
<text text-anchor="start" x="37.5" y="-187.8" font-family="Times,serif" font-size="14.00" fill="#0a5040">→ </text>
<text text-anchor="start" x="56.5" y="-187.8" font-family="Times,serif" font-size="14.00" fill="#f5a70a"> •</text>
<text text-anchor="start" x="66.5" y="-187.8" font-family="Times,serif" font-size="14.00" fill="#0a5040"> id</text>
</a>
</g>
<g id="a_state_1_item_3"><a xlink:href="#" xlink:title="state_1_item_3">
<text text-anchor="start" x="11.5" y="-166.8" font-family="Times,serif" font-size="14.00" fill="#bc1f29">List </text>
<text text-anchor="start" x="37.5" y="-166.8" font-family="Times,serif" font-size="14.00" fill="#0a5040">→ </text>
<text text-anchor="start" x="56.5" y="-166.8" font-family="Times,serif" font-size="14.00" fill="#f5a70a"> •</text>
<text text-anchor="start" x="66.5" y="-166.8" font-family="Times,serif" font-size="14.00" fill="#bc1f29"> List</text>
<text text-anchor="start" x="92.5" y="-166.8" font-family="Times,serif" font-size="14.00" fill="#bc1f29"> OptComma</text>
<text text-anchor="start" x="164.5" y="-166.8" font-family="Times,serif" font-size="14.00" fill="#0a5040"> id</text>
</a>
</g>
<g id="a_state_1_item_4"><a xlink:href="#" xlink:title="state_1_item_4">
<text text-anchor="start" x="11.5" y="-145.8" font-family="Times,serif" font-size="14.00" fill="#bc1f29">List </text>
<text text-anchor="start" x="37.5" y="-145.8" font-family="Times,serif" font-size="14.00" fill="#0a5040">→ </text>
<text text-anchor="start" x="56.5" y="-145.8" font-family="Times,serif" font-size="14.00" fill="#f5a70a"> •</text>
<text text-anchor="start" x="66.5" y="-145.8" font-family="Times,serif" font-size="14.00" fill="#bc1f29"> List</text>
<text text-anchor="start" x="92.5" y="-145.8" font-family="Times,serif" font-size="14.00" fill="#0a5040"> ,</text>
</a>
</g>
</g>
<!-- state_3 -->
<g id="state_3" class="node">
<title>state_3</title>
<path fill="#fffff0" stroke="#b8860b" stroke-width="1.5" d="M383,-278.5C383,-278.5 314,-278.5 314,-278.5 308,-278.5 302,-272.5 302,-266.5 302,-266.5 302,-233.5 302,-233.5 302,-227.5 308,-221.5 314,-221.5 314,-221.5 383,-221.5 383,-221.5 389,-221.5 395,-227.5 395,-233.5 395,-233.5 395,-266.5 395,-266.5 395,-272.5 389,-278.5 383,-278.5"/>
<path fill="none" stroke="#b8860b" stroke-width="1.5" d="M387,-282.5C387,-282.5 310,-282.5 310,-282.5 304,-282.5 298,-276.5 298,-270.5 298,-270.5 298,-229.5 298,-229.5 298,-223.5 304,-217.5 310,-217.5 310,-217.5 387,-217.5 387,-217.5 393,-217.5 399,-223.5 399,-229.5 399,-229.5 399,-270.5 399,-270.5 399,-276.5 393,-282.5 387,-282.5"/>
<g id="a_state_3_title"><a xlink:href="#" xlink:title="state_3_title">
<text text-anchor="start" x="326" y="-257.6" font-family="Calibri" font-weight="bold" font-size="13.00" fill="#8b4513">Estado </text>
<text text-anchor="start" x="365" y="-257.6" font-family="Calibri" font-weight="bold" font-size="13.00" fill="#8b4513">3</text>
</a>
</g>
<g id="a_state_3_item_1"><a xlink:href="#" xlink:title="state_3_item_1">
<text text-anchor="start" x="313.5" y="-236.8" font-family="Times,serif" font-size="14.00" fill="#bc1f29">List </text>
<text text-anchor="start" x="339.5" y="-236.8" font-family="Times,serif" font-size="14.00" fill="#0a5040">→ </text>
<text text-anchor="start" x="358.5" y="-236.8" font-family="Times,serif" font-size="14.00" fill="#0a5040"> id</text>
<text text-anchor="start" x="374.5" y="-236.8" font-family="Times,serif" font-size="14.00" fill="#f5a70a"> •</text>
</a>
</g>
</g>
<!-- state_1&#45;&gt;state_3 -->
<g id="trans_2" class="edge">
<title>state_1&#45;&gt;state_3</title>
<path fill="none" stroke="#b8860b" stroke-width="1.5" d="M191.1485,-212.6834C223.5684,-220.372 258.8675,-228.7433 287.8018,-235.6052"/>
<polygon fill="#b8860b" stroke="#b8860b" stroke-width="1.5" points="287.2178,-239.0637 297.7556,-237.9658 288.8331,-232.2526 287.2178,-239.0637"/>
<text text-anchor="start" x="214" y="-224.8" font-family="Times,serif" font-size="14.00" fill="#0a5040"> id</text>
</g>
<!-- state_2 -->
<g id="state_2" class="node">
<title>state_2</title>
<path fill="#f5f5dc" stroke="#b8860b" stroke-width="1.5" stroke-dasharray="5,2" d="M432,-199.5C432,-199.5 265,-199.5 265,-199.5 259,-199.5 253,-193.5 253,-187.5 253,-187.5 253,-70.5 253,-70.5 253,-64.5 259,-58.5 265,-58.5 265,-58.5 432,-58.5 432,-58.5 438,-58.5 444,-64.5 444,-70.5 444,-70.5 444,-187.5 444,-187.5 444,-193.5 438,-199.5 432,-199.5"/>
<g id="a_state_2_title"><a xlink:href="#" xlink:title="state_2_title">
<text text-anchor="start" x="326" y="-178.6" font-family="Calibri" font-weight="bold" font-size="13.00" fill="#8b4513">Estado </text>
<text text-anchor="start" x="365" y="-178.6" font-family="Calibri" font-weight="bold" font-size="13.00" fill="#8b4513">2</text>
</a>
</g>
<g id="a_state_2_item_1"><a xlink:href="#" xlink:title="state_2_item_1">
<text text-anchor="start" x="264.5" y="-157.8" font-family="Times,serif" font-size="14.00" fill="#bc1f29">List&#39; </text>
<text text-anchor="start" x="292.5" y="-157.8" font-family="Times,serif" font-size="14.00" fill="#0a5040">→ </text>
<text text-anchor="start" x="311.5" y="-157.8" font-family="Times,serif" font-size="14.00" fill="#bc1f29"> List</text>
<text text-anchor="start" x="337.5" y="-157.8" font-family="Times,serif" font-size="14.00" fill="#f5a70a"> •</text>
<text text-anchor="start" x="347.5" y="-157.8" font-family="Times,serif" font-size="14.00" fill="#0a5040"> $</text>
</a>
</g>
<g id="a_state_2_item_2"><a xlink:href="#" xlink:title="state_2_item_2">
<text text-anchor="start" x="264.5" y="-136.8" font-family="Times,serif" font-size="14.00" fill="#bc1f29">List </text>
<text text-anchor="start" x="290.5" y="-136.8" font-family="Times,serif" font-size="14.00" fill="#0a5040">→ </text>
<text text-anchor="start" x="309.5" y="-136.8" font-family="Times,serif" font-size="14.00" fill="#bc1f29"> List</text>
<text text-anchor="start" x="335.5" y="-136.8" font-family="Times,serif" font-size="14.00" fill="#f5a70a"> •</text>
<text text-anchor="start" x="345.5" y="-136.8" font-family="Times,serif" font-size="14.00" fill="#bc1f29"> OptComma</text>
<text text-anchor="start" x="417.5" y="-136.8" font-family="Times,serif" font-size="14.00" fill="#0a5040"> id</text>
</a>
</g>
<g id="a_state_2_item_3"><a xlink:href="#" xlink:title="state_2_item_3">
<text text-anchor="start" x="264.5" y="-115.8" font-family="Times,serif" font-size="14.00" fill="#bc1f29">List </text>
<text text-anchor="start" x="290.5" y="-115.8" font-family="Times,serif" font-size="14.00" fill="#0a5040">→ </text>
<text text-anchor="start" x="309.5" y="-115.8" font-family="Times,serif" font-size="14.00" fill="#bc1f29"> List</text>
<text text-anchor="start" x="335.5" y="-115.8" font-family="Times,serif" font-size="14.00" fill="#f5a70a"> •</text>
<text text-anchor="start" x="345.5" y="-115.8" font-family="Times,serif" font-size="14.00" fill="#0a5040"> ,</text>
</a>
</g>
<g id="a_state_2_item_4"><a xlink:href="#" xlink:title="state_2_item_4">
<text text-anchor="start" x="264.5" y="-94.8" font-family="Times,serif" font-size="14.00" fill="#bc1f29">OptComma </text>
<text text-anchor="start" x="336.5" y="-94.8" font-family="Times,serif" font-size="14.00" fill="#0a5040">→ </text>
<text text-anchor="start" x="355.5" y="-94.8" font-family="Times,serif" font-size="14.00" fill="#f5a70a"> •</text>
<text text-anchor="start" x="365.5" y="-94.8" font-family="Times,serif" font-size="14.00" fill="#0a5040"> ,</text>
</a>
</g>
<g id="a_state_2_item_5"><a xlink:href="#" xlink:title="state_2_item_5">
<text text-anchor="start" x="264.5" y="-73.8" font-family="Times,serif" font-size="14.00" fill="#bc1f29">OptComma </text>
<text text-anchor="start" x="336.5" y="-73.8" font-family="Times,serif" font-size="14.00" fill="#0a5040">→ </text>
<text text-anchor="start" x="355.5" y="-73.8" font-family="Times,serif" font-size="14.00" fill="#f5a70a"> •</text>
</a>
</g>
</g>
<!-- state_1&#45;&gt;state_2 -->
<g id="trans_1" class="edge">
<title>state_1&#45;&gt;state_2</title>
<path fill="none" stroke="#b8860b" stroke-width="1.5" d="M191.1485,-166.9385C207.9928,-162.8772 225.6143,-158.6286 242.7166,-154.5051"/>
<polygon fill="#b8860b" stroke="#b8860b" stroke-width="1.5" points="243.8153,-157.8406 252.7163,-152.0941 242.1745,-151.0356 243.8153,-157.8406"/>
<text text-anchor="start" x="209" y="-164.8" font-family="Times,serif" font-size="14.00" fill="#bc1f29"> List</text>
</g>
<!-- state_4 -->
<g id="state_4" class="node">
<title>state_4</title>
<path fill="#fffff0" stroke="#b8860b" stroke-width="1.5" d="M731,-236.5C731,-236.5 564,-236.5 564,-236.5 558,-236.5 552,-230.5 552,-224.5 552,-224.5 552,-191.5 552,-191.5 552,-185.5 558,-179.5 564,-179.5 564,-179.5 731,-179.5 731,-179.5 737,-179.5 743,-185.5 743,-191.5 743,-191.5 743,-224.5 743,-224.5 743,-230.5 737,-236.5 731,-236.5"/>
<g id="a_state_4_title"><a xlink:href="#" xlink:title="state_4_title">
<text text-anchor="start" x="625" y="-215.6" font-family="Calibri" font-weight="bold" font-size="13.00" fill="#8b4513">Estado </text>
<text text-anchor="start" x="664" y="-215.6" font-family="Calibri" font-weight="bold" font-size="13.00" fill="#8b4513">4</text>
</a>
</g>
<g id="a_state_4_item_1"><a xlink:href="#" xlink:title="state_4_item_1">
<text text-anchor="start" x="563.5" y="-194.8" font-family="Times,serif" font-size="14.00" fill="#bc1f29">List </text>
<text text-anchor="start" x="589.5" y="-194.8" font-family="Times,serif" font-size="14.00" fill="#0a5040">→ </text>
<text text-anchor="start" x="608.5" y="-194.8" font-family="Times,serif" font-size="14.00" fill="#bc1f29"> List</text>
<text text-anchor="start" x="634.5" y="-194.8" font-family="Times,serif" font-size="14.00" fill="#bc1f29"> OptComma</text>
<text text-anchor="start" x="706.5" y="-194.8" font-family="Times,serif" font-size="14.00" fill="#f5a70a"> •</text>
<text text-anchor="start" x="716.5" y="-194.8" font-family="Times,serif" font-size="14.00" fill="#0a5040"> id</text>
</a>
</g>
</g>
<!-- state_7 -->
<g id="state_7" class="node">
<title>state_7</title>
<path fill="#fffff0" stroke="#b8860b" stroke-width="1.5" d="M978,-236.5C978,-236.5 811,-236.5 811,-236.5 805,-236.5 799,-230.5 799,-224.5 799,-224.5 799,-191.5 799,-191.5 799,-185.5 805,-179.5 811,-179.5 811,-179.5 978,-179.5 978,-179.5 984,-179.5 990,-185.5 990,-191.5 990,-191.5 990,-224.5 990,-224.5 990,-230.5 984,-236.5 978,-236.5"/>
<path fill="none" stroke="#b8860b" stroke-width="1.5" d="M982,-240.5C982,-240.5 807,-240.5 807,-240.5 801,-240.5 795,-234.5 795,-228.5 795,-228.5 795,-187.5 795,-187.5 795,-181.5 801,-175.5 807,-175.5 807,-175.5 982,-175.5 982,-175.5 988,-175.5 994,-181.5 994,-187.5 994,-187.5 994,-228.5 994,-228.5 994,-234.5 988,-240.5 982,-240.5"/>
<g id="a_state_7_title"><a xlink:href="#" xlink:title="state_7_title">
<text text-anchor="start" x="872" y="-215.6" font-family="Calibri" font-weight="bold" font-size="13.00" fill="#8b4513">Estado </text>
<text text-anchor="start" x="911" y="-215.6" font-family="Calibri" font-weight="bold" font-size="13.00" fill="#8b4513">7</text>
</a>
</g>
<g id="a_state_7_item_1"><a xlink:href="#" xlink:title="state_7_item_1">
<text text-anchor="start" x="810.5" y="-194.8" font-family="Times,serif" font-size="14.00" fill="#bc1f29">List </text>
<text text-anchor="start" x="836.5" y="-194.8" font-family="Times,serif" font-size="14.00" fill="#0a5040">→ </text>
<text text-anchor="start" x="855.5" y="-194.8" font-family="Times,serif" font-size="14.00" fill="#bc1f29"> List</text>
<text text-anchor="start" x="881.5" y="-194.8" font-family="Times,serif" font-size="14.00" fill="#bc1f29"> OptComma</text>
<text text-anchor="start" x="953.5" y="-194.8" font-family="Times,serif" font-size="14.00" fill="#0a5040"> id</text>
<text text-anchor="start" x="969.5" y="-194.8" font-family="Times,serif" font-size="14.00" fill="#f5a70a"> •</text>
</a>
</g>
</g>
<!-- state_4&#45;&gt;state_7 -->
<g id="trans_6" class="edge">
<title>state_4&#45;&gt;state_7</title>
<path fill="none" stroke="#b8860b" stroke-width="1.5" d="M743.3502,-208C756.7497,-208 770.6069,-208 784.2462,-208"/>
<polygon fill="#b8860b" stroke="#b8860b" stroke-width="1.5" points="784.6225,-211.5001 794.6225,-208 784.6225,-204.5001 784.6225,-211.5001"/>
<text text-anchor="start" x="761" y="-211.8" font-family="Times,serif" font-size="14.00" fill="#0a5040"> id</text>
</g>
<!-- state_5 -->
<g id="state_5" class="node">
<title>state_5</title>
<path fill="#fffff0" stroke="#b8860b" stroke-width="1.5" d="M694,-157.5C694,-157.5 601,-157.5 601,-157.5 595,-157.5 589,-151.5 589,-145.5 589,-145.5 589,-112.5 589,-112.5 589,-106.5 595,-100.5 601,-100.5 601,-100.5 694,-100.5 694,-100.5 700,-100.5 706,-106.5 706,-112.5 706,-112.5 706,-145.5 706,-145.5 706,-151.5 700,-157.5 694,-157.5"/>
<path fill="none" stroke="#b8860b" stroke-width="1.5" d="M698,-161.5C698,-161.5 597,-161.5 597,-161.5 591,-161.5 585,-155.5 585,-149.5 585,-149.5 585,-108.5 585,-108.5 585,-102.5 591,-96.5 597,-96.5 597,-96.5 698,-96.5 698,-96.5 704,-96.5 710,-102.5 710,-108.5 710,-108.5 710,-149.5 710,-149.5 710,-155.5 704,-161.5 698,-161.5"/>
<g id="a_state_5_title"><a xlink:href="#" xlink:title="state_5_title">
<text text-anchor="start" x="625" y="-136.6" font-family="Calibri" font-weight="bold" font-size="13.00" fill="#8b4513">Estado </text>
<text text-anchor="start" x="664" y="-136.6" font-family="Calibri" font-weight="bold" font-size="13.00" fill="#8b4513">5</text>
</a>
</g>
<g id="a_state_5_item_1"><a xlink:href="#" xlink:title="state_5_item_1">
<text text-anchor="start" x="600.5" y="-115.8" font-family="Times,serif" font-size="14.00" fill="#bc1f29">List&#39; </text>
<text text-anchor="start" x="628.5" y="-115.8" font-family="Times,serif" font-size="14.00" fill="#0a5040">→ </text>
<text text-anchor="start" x="647.5" y="-115.8" font-family="Times,serif" font-size="14.00" fill="#bc1f29"> List</text>
<text text-anchor="start" x="673.5" y="-115.8" font-family="Times,serif" font-size="14.00" fill="#0a5040"> $</text>
<text text-anchor="start" x="685.5" y="-115.8" font-family="Times,serif" font-size="14.00" fill="#f5a70a"> •</text>
</a>
</g>
</g>
<!-- state_2&#45;&gt;state_4 -->
<g id="trans_3" class="edge">
<title>state_2&#45;&gt;state_4</title>
<path fill="none" stroke="#b8860b" stroke-width="1.5" d="M444.3392,-154.3221C475.5313,-162.5635 510.3167,-171.7542 542.1644,-180.1689"/>
<polygon fill="#b8860b" stroke="#b8860b" stroke-width="1.5" points="541.3843,-183.5828 551.9467,-182.7535 543.1725,-176.815 541.3843,-183.5828"/>
<text text-anchor="start" x="462" y="-180.8" font-family="Times,serif" font-size="14.00" fill="#bc1f29"> OptComma</text>
</g>
<!-- state_2&#45;&gt;state_5 -->
<g id="trans_4" class="edge">
<title>state_2&#45;&gt;state_5</title>
<path fill="none" stroke="#b8860b" stroke-width="1.5" d="M444.3392,-129C486.6085,-129 535.4764,-129 574.6905,-129"/>
<polygon fill="#b8860b" stroke="#b8860b" stroke-width="1.5" points="574.701,-132.5001 584.7009,-129 574.7009,-125.5001 574.701,-132.5001"/>
<text text-anchor="start" x="492" y="-132.8" font-family="Times,serif" font-size="14.00" fill="#0a5040"> $</text>
</g>
<!-- state_6 -->
<g id="state_6" class="node">
<title>state_6</title>
<path fill="#f5f5dc" stroke="#b8860b" stroke-width="1.5" stroke-dasharray="5,2" d="M701,-78C701,-78 594,-78 594,-78 588,-78 582,-72 582,-66 582,-66 582,-12 582,-12 582,-6 588,0 594,0 594,0 701,0 701,0 707,0 713,-6 713,-12 713,-12 713,-66 713,-66 713,-72 707,-78 701,-78"/>
<g id="a_state_6_title"><a xlink:href="#" xlink:title="state_6_title">
<text text-anchor="start" x="625" y="-57.6" font-family="Calibri" font-weight="bold" font-size="13.00" fill="#8b4513">Estado </text>
<text text-anchor="start" x="664" y="-57.6" font-family="Calibri" font-weight="bold" font-size="13.00" fill="#8b4513">6</text>
</a>
</g>
<g id="a_state_6_item_1"><a xlink:href="#" xlink:title="state_6_item_1">
<text text-anchor="start" x="593.5" y="-36.8" font-family="Times,serif" font-size="14.00" fill="#bc1f29">List </text>
<text text-anchor="start" x="619.5" y="-36.8" font-family="Times,serif" font-size="14.00" fill="#0a5040">→ </text>
<text text-anchor="start" x="638.5" y="-36.8" font-family="Times,serif" font-size="14.00" fill="#bc1f29"> List</text>
<text text-anchor="start" x="664.5" y="-36.8" font-family="Times,serif" font-size="14.00" fill="#0a5040"> ,</text>
<text text-anchor="start" x="672.5" y="-36.8" font-family="Times,serif" font-size="14.00" fill="#f5a70a"> •</text>
</a>
</g>
<g id="a_state_6_item_2"><a xlink:href="#" xlink:title="state_6_item_2">
<text text-anchor="start" x="593.5" y="-15.8" font-family="Times,serif" font-size="14.00" fill="#bc1f29">OptComma </text>
<text text-anchor="start" x="665.5" y="-15.8" font-family="Times,serif" font-size="14.00" fill="#0a5040">→ </text>
<text text-anchor="start" x="684.5" y="-15.8" font-family="Times,serif" font-size="14.00" fill="#0a5040"> ,</text>
<text text-anchor="start" x="692.5" y="-15.8" font-family="Times,serif" font-size="14.00" fill="#f5a70a"> •</text>
</a>
</g>
</g>
<!-- state_2&#45;&gt;state_6 -->
<g id="trans_5" class="edge">
<title>state_2&#45;&gt;state_6</title>
<path fill="none" stroke="#b8860b" stroke-width="1.5" d="M444.3392,-100.1521C485.7534,-87.6863 533.502,-73.3138 572.299,-61.6358"/>
<polygon fill="#b8860b" stroke="#b8860b" stroke-width="1.5" points="573.3937,-64.9615 581.9605,-58.7276 571.376,-58.2585 573.3937,-64.9615"/>
<text text-anchor="start" x="494" y="-97.8" font-family="Times,serif" font-size="14.00" fill="#0a5040"> ,</text>
</g>
</g>
</svg>
