<?xml version="1.0" encoding="UTF-8" standalone="no"?>
<!DOCTYPE svg PUBLIC "-//W3C//DTD SVG 1.1//EN"
 "http://www.w3.org/Graphics/SVG/1.1/DTD/svg11.dtd">
<!-- Generated by graphviz version 2.40.1 (20161225.0304)
 -->
<!-- Title: NFA Pages: 1 -->
<svg width="1731pt" height="468pt"
 viewBox="0.00 0.00 1731.00 467.50" xmlns="http://www.w3.org/2000/svg" xmlns:xlink="http://www.w3.org/1999/xlink">
<g id="graph0" class="graph" transform="scale(1 1) rotate(0) translate(4 463.5)">
<title>NFA</title>
<!-- state_10003 -->
<g id="state_10003" class="node">
<title>state_10003</title>
<path fill="#fffff0" stroke="#b8860b" stroke-width="1.5" d="M1484,-371C1484,-371 1401,-371 1401,-371 1395,-371 1389,-365 1389,-359 1389,-359 1389,-332 1389,-332 1389,-326 1395,-320 1401,-320 1401,-320 1484,-320 1484,-320 1490,-320 1496,-326 1496,-332 1496,-332 1496,-359 1496,-359 1496,-365 1490,-371 1484,-371"/>
<g id="a_state_10003_title"><a xlink:href="#" xlink:title="state_10003_title">
<text text-anchor="start" x="1420" y="-353.1" font-family="Calibri" font-weight="bold" font-size="13.00" fill="#8b4513">Estado </text>
<text text-anchor="start" x="1459" y="-353.1" font-family="Calibri" font-weight="bold" font-size="13.00" fill="#8b4513">3</text>
</a>
</g>
<g id="a_state_10003_item_1"><a xlink:href="#" xlink:title="state_10003_item_1">
<text text-anchor="start" x="1397.5" y="-332.3" font-family="Times,serif" font-size="14.00" fill="#bc1f29">stmt </text>
<text text-anchor="start" x="1425.5" y="-332.3" font-family="Times,serif" font-size="14.00" fill="#0a5040">→ </text>
<text text-anchor="start" x="1444.5" y="-332.3" font-family="Times,serif" font-size="14.00" fill="#f5a70a"> •</text>
<text text-anchor="start" x="1454.5" y="-332.3" font-family="Times,serif" font-size="14.00" fill="#0a5040"> other</text>
</a>
</g>
</g>
<!-- state_10008 -->
<g id="state_10008" class="node">
<title>state_10008</title>
<path fill="#f5f5dc" stroke="#b8860b" stroke-width="1.5" d="M1707,-371C1707,-371 1624,-371 1624,-371 1618,-371 1612,-365 1612,-359 1612,-359 1612,-332 1612,-332 1612,-326 1618,-320 1624,-320 1624,-320 1707,-320 1707,-320 1713,-320 1719,-326 1719,-332 1719,-332 1719,-359 1719,-359 1719,-365 1713,-371 1707,-371"/>
<path fill="none" stroke="#b8860b" stroke-width="1.5" d="M1711,-375C1711,-375 1620,-375 1620,-375 1614,-375 1608,-369 1608,-363 1608,-363 1608,-328 1608,-328 1608,-322 1614,-316 1620,-316 1620,-316 1711,-316 1711,-316 1717,-316 1723,-322 1723,-328 1723,-328 1723,-363 1723,-363 1723,-369 1717,-375 1711,-375"/>
<g id="a_state_10008_title"><a xlink:href="#" xlink:title="state_10008_title">
<text text-anchor="start" x="1643" y="-353.1" font-family="Calibri" font-weight="bold" font-size="13.00" fill="#8b4513">Estado </text>
<text text-anchor="start" x="1682" y="-353.1" font-family="Calibri" font-weight="bold" font-size="13.00" fill="#8b4513">8</text>
</a>
</g>
<g id="a_state_10008_item_1"><a xlink:href="#" xlink:title="state_10008_item_1">
<text text-anchor="start" x="1620.5" y="-332.3" font-family="Times,serif" font-size="14.00" fill="#bc1f29">stmt </text>
<text text-anchor="start" x="1648.5" y="-332.3" font-family="Times,serif" font-size="14.00" fill="#0a5040">→ </text>
<text text-anchor="start" x="1667.5" y="-332.3" font-family="Times,serif" font-size="14.00" fill="#0a5040"> other</text>
<text text-anchor="start" x="1701.5" y="-332.3" font-family="Times,serif" font-size="14.00" fill="#f5a70a"> •</text>
</a>
</g>
</g>
<!-- state_10003&#45;&gt;state_10008 -->
<g id="trans_7" class="edge">
<title>state_10003&#45;&gt;state_10008</title>
<path fill="none" stroke="#b8860b" stroke-width="1.5" d="M1496.1978,-345.5C1526.6664,-345.5 1565.0943,-345.5 1597.635,-345.5"/>
<polygon fill="#b8860b" stroke="#b8860b" stroke-width="1.5" points="1597.9757,-349.0001 1607.9757,-345.5 1597.9757,-342.0001 1597.9757,-349.0001"/>
<text text-anchor="start" x="1556" y="-349.3" font-family="Times,serif" font-size="14.00" fill="#0a5040"> other</text>
</g>
<!-- state_10004 -->
<g id="state_10004" class="node">
<title>state_10004</title>
<path fill="#fffff0" stroke="#b8860b" stroke-width="1.5" d="M521.5,-295C521.5,-295 415.5,-295 415.5,-295 409.5,-295 403.5,-289 403.5,-283 403.5,-283 403.5,-256 403.5,-256 403.5,-250 409.5,-244 415.5,-244 415.5,-244 521.5,-244 521.5,-244 527.5,-244 533.5,-250 533.5,-256 533.5,-256 533.5,-283 533.5,-283 533.5,-289 527.5,-295 521.5,-295"/>
<g id="a_state_10004_title"><a xlink:href="#" xlink:title="state_10004_title">
<text text-anchor="start" x="445.5" y="-277.1" font-family="Calibri" font-weight="bold" font-size="13.00" fill="#8b4513">Estado </text>
<text text-anchor="start" x="484.5" y="-277.1" font-family="Calibri" font-weight="bold" font-size="13.00" fill="#8b4513">4</text>
</a>
</g>
<g id="a_state_10004_item_1"><a xlink:href="#" xlink:title="state_10004_item_1">
<text text-anchor="start" x="411.5" y="-256.3" font-family="Times,serif" font-size="14.00" fill="#bc1f29">if_stmt </text>
<text text-anchor="start" x="455.5" y="-256.3" font-family="Times,serif" font-size="14.00" fill="#0a5040">→ </text>
<text text-anchor="start" x="474.5" y="-256.3" font-family="Times,serif" font-size="14.00" fill="#f5a70a"> •</text>
<text text-anchor="start" x="484.5" y="-256.3" font-family="Times,serif" font-size="14.00" fill="#0a5040"> if</text>
<text text-anchor="start" x="497.5" y="-256.3" font-family="Times,serif" font-size="14.00" fill="#bc1f29"> stmt</text>
</a>
</g>
</g>
<!-- state_10009 -->
<g id="state_10009" class="node">
<title>state_10009</title>
<path fill="#fffff0" stroke="#b8860b" stroke-width="1.5" d="M753.5,-270C753.5,-270 647.5,-270 647.5,-270 641.5,-270 635.5,-264 635.5,-258 635.5,-258 635.5,-231 635.5,-231 635.5,-225 641.5,-219 647.5,-219 647.5,-219 753.5,-219 753.5,-219 759.5,-219 765.5,-225 765.5,-231 765.5,-231 765.5,-258 765.5,-258 765.5,-264 759.5,-270 753.5,-270"/>
<g id="a_state_10009_title"><a xlink:href="#" xlink:title="state_10009_title">
<text text-anchor="start" x="677.5" y="-252.1" font-family="Calibri" font-weight="bold" font-size="13.00" fill="#8b4513">Estado </text>
<text text-anchor="start" x="716.5" y="-252.1" font-family="Calibri" font-weight="bold" font-size="13.00" fill="#8b4513">9</text>
</a>
</g>
<g id="a_state_10009_item_1"><a xlink:href="#" xlink:title="state_10009_item_1">
<text text-anchor="start" x="643.5" y="-231.3" font-family="Times,serif" font-size="14.00" fill="#bc1f29">if_stmt </text>
<text text-anchor="start" x="687.5" y="-231.3" font-family="Times,serif" font-size="14.00" fill="#0a5040">→ </text>
<text text-anchor="start" x="706.5" y="-231.3" font-family="Times,serif" font-size="14.00" fill="#0a5040"> if</text>
<text text-anchor="start" x="719.5" y="-231.3" font-family="Times,serif" font-size="14.00" fill="#f5a70a"> •</text>
<text text-anchor="start" x="729.5" y="-231.3" font-family="Times,serif" font-size="14.00" fill="#bc1f29"> stmt</text>
</a>
</g>
</g>
<!-- state_10004&#45;&gt;state_10009 -->
<g id="trans_8" class="edge">
<title>state_10004&#45;&gt;state_10009</title>
<path fill="none" stroke="#b8860b" stroke-width="1.5" d="M533.7423,-262.4696C562.1557,-259.4078 595.6302,-255.8006 625.1027,-252.6247"/>
<polygon fill="#b8860b" stroke="#b8860b" stroke-width="1.5" points="625.7784,-256.0723 635.3458,-251.5209 625.0283,-249.1125 625.7784,-256.0723"/>
<text text-anchor="start" x="578" y="-260.3" font-family="Times,serif" font-size="14.00" fill="#0a5040"> if</text>
</g>
<!-- state_10005 -->
<g id="state_10005" class="node">
<title>state_10005</title>
<path fill="#fffff0" stroke="#b8860b" stroke-width="1.5" d="M548,-416C548,-416 389,-416 389,-416 383,-416 377,-410 377,-404 377,-404 377,-377 377,-377 377,-371 383,-365 389,-365 389,-365 548,-365 548,-365 554,-365 560,-371 560,-377 560,-377 560,-404 560,-404 560,-410 554,-416 548,-416"/>
<g id="a_state_10005_title"><a xlink:href="#" xlink:title="state_10005_title">
<text text-anchor="start" x="446" y="-398.1" font-family="Calibri" font-weight="bold" font-size="13.00" fill="#8b4513">Estado </text>
<text text-anchor="start" x="485" y="-398.1" font-family="Calibri" font-weight="bold" font-size="13.00" fill="#8b4513">5</text>
</a>
</g>
<g id="a_state_10005_item_1"><a xlink:href="#" xlink:title="state_10005_item_1">
<text text-anchor="start" x="385.5" y="-377.3" font-family="Times,serif" font-size="14.00" fill="#bc1f29">if_stmt </text>
<text text-anchor="start" x="429.5" y="-377.3" font-family="Times,serif" font-size="14.00" fill="#0a5040">→ </text>
<text text-anchor="start" x="448.5" y="-377.3" font-family="Times,serif" font-size="14.00" fill="#f5a70a"> •</text>
<text text-anchor="start" x="458.5" y="-377.3" font-family="Times,serif" font-size="14.00" fill="#0a5040"> if</text>
<text text-anchor="start" x="471.5" y="-377.3" font-family="Times,serif" font-size="14.00" fill="#bc1f29"> stmt</text>
<text text-anchor="start" x="499.5" y="-377.3" font-family="Times,serif" font-size="14.00" fill="#0a5040"> else</text>
<text text-anchor="start" x="524.5" y="-377.3" font-family="Times,serif" font-size="14.00" fill="#bc1f29"> stmt</text>
</a>
</g>
</g>
<!-- state_10010 -->
<g id="state_10010" class="node">
<title>state_10010</title>
<path fill="#fffff0" stroke="#b8860b" stroke-width="1.5" d="M780,-399C780,-399 621,-399 621,-399 615,-399 609,-393 609,-387 609,-387 609,-360 609,-360 609,-354 615,-348 621,-348 621,-348 780,-348 780,-348 786,-348 792,-354 792,-360 792,-360 792,-387 792,-387 792,-393 786,-399 780,-399"/>
<g id="a_state_10010_title"><a xlink:href="#" xlink:title="state_10010_title">
<text text-anchor="start" x="674.5" y="-381.1" font-family="Calibri" font-weight="bold" font-size="13.00" fill="#8b4513">Estado </text>
<text text-anchor="start" x="713.5" y="-381.1" font-family="Calibri" font-weight="bold" font-size="13.00" fill="#8b4513">10</text>
</a>
</g>
<g id="a_state_10010_item_1"><a xlink:href="#" xlink:title="state_10010_item_1">
<text text-anchor="start" x="617.5" y="-360.3" font-family="Times,serif" font-size="14.00" fill="#bc1f29">if_stmt </text>
<text text-anchor="start" x="661.5" y="-360.3" font-family="Times,serif" font-size="14.00" fill="#0a5040">→ </text>
<text text-anchor="start" x="680.5" y="-360.3" font-family="Times,serif" font-size="14.00" fill="#0a5040"> if</text>
<text text-anchor="start" x="693.5" y="-360.3" font-family="Times,serif" font-size="14.00" fill="#f5a70a"> •</text>
<text text-anchor="start" x="703.5" y="-360.3" font-family="Times,serif" font-size="14.00" fill="#bc1f29"> stmt</text>
<text text-anchor="start" x="731.5" y="-360.3" font-family="Times,serif" font-size="14.00" fill="#0a5040"> else</text>
<text text-anchor="start" x="756.5" y="-360.3" font-family="Times,serif" font-size="14.00" fill="#bc1f29"> stmt</text>
</a>
</g>
</g>
<!-- state_10005&#45;&gt;state_10010 -->
<g id="trans_9" class="edge">
<title>state_10005&#45;&gt;state_10010</title>
<path fill="none" stroke="#b8860b" stroke-width="1.5" d="M560.1925,-383.7811C572.7849,-382.8584 585.7775,-381.9064 598.5399,-380.9712"/>
<polygon fill="#b8860b" stroke="#b8860b" stroke-width="1.5" points="598.9963,-384.4472 608.7138,-380.2257 598.4847,-377.466 598.9963,-384.4472"/>
<text text-anchor="start" x="578" y="-385.3" font-family="Times,serif" font-size="14.00" fill="#0a5040"> if</text>
</g>
<!-- state_10006 -->
<g id="state_10006" class="node">
<title>state_10006</title>
<path fill="#fffff0" stroke="#b8860b" stroke-width="1.5" d="M284.5,-134C284.5,-134 192.5,-134 192.5,-134 186.5,-134 180.5,-128 180.5,-122 180.5,-122 180.5,-95 180.5,-95 180.5,-89 186.5,-83 192.5,-83 192.5,-83 284.5,-83 284.5,-83 290.5,-83 296.5,-89 296.5,-95 296.5,-95 296.5,-122 296.5,-122 296.5,-128 290.5,-134 284.5,-134"/>
<g id="a_state_10006_title"><a xlink:href="#" xlink:title="state_10006_title">
<text text-anchor="start" x="215.5" y="-116.1" font-family="Calibri" font-weight="bold" font-size="13.00" fill="#8b4513">Estado </text>
<text text-anchor="start" x="254.5" y="-116.1" font-family="Calibri" font-weight="bold" font-size="13.00" fill="#8b4513">6</text>
</a>
</g>
<g id="a_state_10006_item_1"><a xlink:href="#" xlink:title="state_10006_item_1">
<text text-anchor="start" x="188.5" y="-95.3" font-family="Times,serif" font-size="14.00" fill="#bc1f29">stmt&#39; </text>
<text text-anchor="start" x="219.5" y="-95.3" font-family="Times,serif" font-size="14.00" fill="#0a5040">→ </text>
<text text-anchor="start" x="238.5" y="-95.3" font-family="Times,serif" font-size="14.00" fill="#bc1f29"> stmt</text>
<text text-anchor="start" x="266.5" y="-95.3" font-family="Times,serif" font-size="14.00" fill="#f5a70a"> •</text>
<text text-anchor="start" x="276.5" y="-95.3" font-family="Times,serif" font-size="14.00" fill="#0a5040"> $</text>
</a>
</g>
</g>
<!-- state_10011 -->
<g id="state_10011" class="node">
<title>state_10011</title>
<path fill="#f5f5dc" stroke="#b8860b" stroke-width="1.5" d="M514.5,-55C514.5,-55 422.5,-55 422.5,-55 416.5,-55 410.5,-49 410.5,-43 410.5,-43 410.5,-16 410.5,-16 410.5,-10 416.5,-4 422.5,-4 422.5,-4 514.5,-4 514.5,-4 520.5,-4 526.5,-10 526.5,-16 526.5,-16 526.5,-43 526.5,-43 526.5,-49 520.5,-55 514.5,-55"/>
<path fill="none" stroke="#b8860b" stroke-width="1.5" d="M518.5,-59C518.5,-59 418.5,-59 418.5,-59 412.5,-59 406.5,-53 406.5,-47 406.5,-47 406.5,-12 406.5,-12 406.5,-6 412.5,0 418.5,0 418.5,0 518.5,0 518.5,0 524.5,0 530.5,-6 530.5,-12 530.5,-12 530.5,-47 530.5,-47 530.5,-53 524.5,-59 518.5,-59"/>
<g id="a_state_10011_title"><a xlink:href="#" xlink:title="state_10011_title">
<text text-anchor="start" x="442" y="-37.1" font-family="Calibri" font-weight="bold" font-size="13.00" fill="#8b4513">Estado </text>
<text text-anchor="start" x="481" y="-37.1" font-family="Calibri" font-weight="bold" font-size="13.00" fill="#8b4513">11</text>
</a>
</g>
<g id="a_state_10011_item_1"><a xlink:href="#" xlink:title="state_10011_item_1">
<text text-anchor="start" x="418.5" y="-16.3" font-family="Times,serif" font-size="14.00" fill="#bc1f29">stmt&#39; </text>
<text text-anchor="start" x="449.5" y="-16.3" font-family="Times,serif" font-size="14.00" fill="#0a5040">→ </text>
<text text-anchor="start" x="468.5" y="-16.3" font-family="Times,serif" font-size="14.00" fill="#bc1f29"> stmt</text>
<text text-anchor="start" x="496.5" y="-16.3" font-family="Times,serif" font-size="14.00" fill="#0a5040"> $</text>
<text text-anchor="start" x="508.5" y="-16.3" font-family="Times,serif" font-size="14.00" fill="#f5a70a"> •</text>
</a>
</g>
</g>
<!-- state_10006&#45;&gt;state_10011 -->
<g id="trans_10" class="edge">
<title>state_10006&#45;&gt;state_10011</title>
<path fill="none" stroke="#b8860b" stroke-width="1.5" d="M284.7004,-82.9292C294.5259,-78.0663 304.9667,-73.3131 315,-69.5 341.0224,-59.6103 370.4277,-51.294 396.487,-44.8506"/>
<polygon fill="#b8860b" stroke="#b8860b" stroke-width="1.5" points="397.4022,-48.2302 406.2966,-42.4734 395.7535,-41.4271 397.4022,-48.2302"/>
<text text-anchor="start" x="331" y="-73.3" font-family="Times,serif" font-size="14.00" fill="#0a5040"> $</text>
</g>
<!-- state_10013 -->
<g id="state_10013" class="node">
<title>state_10013</title>
<path fill="#fffff0" stroke="#b8860b" stroke-width="1.5" d="M1027,-369C1027,-369 868,-369 868,-369 862,-369 856,-363 856,-357 856,-357 856,-330 856,-330 856,-324 862,-318 868,-318 868,-318 1027,-318 1027,-318 1033,-318 1039,-324 1039,-330 1039,-330 1039,-357 1039,-357 1039,-363 1033,-369 1027,-369"/>
<g id="a_state_10013_title"><a xlink:href="#" xlink:title="state_10013_title">
<text text-anchor="start" x="921.5" y="-351.1" font-family="Calibri" font-weight="bold" font-size="13.00" fill="#8b4513">Estado </text>
<text text-anchor="start" x="960.5" y="-351.1" font-family="Calibri" font-weight="bold" font-size="13.00" fill="#8b4513">13</text>
</a>
</g>
<g id="a_state_10013_item_1"><a xlink:href="#" xlink:title="state_10013_item_1">
<text text-anchor="start" x="864.5" y="-330.3" font-family="Times,serif" font-size="14.00" fill="#bc1f29">if_stmt </text>
<text text-anchor="start" x="908.5" y="-330.3" font-family="Times,serif" font-size="14.00" fill="#0a5040">→ </text>
<text text-anchor="start" x="927.5" y="-330.3" font-family="Times,serif" font-size="14.00" fill="#0a5040"> if</text>
<text text-anchor="start" x="940.5" y="-330.3" font-family="Times,serif" font-size="14.00" fill="#bc1f29"> stmt</text>
<text text-anchor="start" x="968.5" y="-330.3" font-family="Times,serif" font-size="14.00" fill="#f5a70a"> •</text>
<text text-anchor="start" x="978.5" y="-330.3" font-family="Times,serif" font-size="14.00" fill="#0a5040"> else</text>
<text text-anchor="start" x="1003.5" y="-330.3" font-family="Times,serif" font-size="14.00" fill="#bc1f29"> stmt</text>
</a>
</g>
</g>
<!-- state_10014 -->
<g id="state_10014" class="node">
<title>state_10014</title>
<path fill="#fffff0" stroke="#b8860b" stroke-width="1.5" d="M1271,-254C1271,-254 1112,-254 1112,-254 1106,-254 1100,-248 1100,-242 1100,-242 1100,-215 1100,-215 1100,-209 1106,-203 1112,-203 1112,-203 1271,-203 1271,-203 1277,-203 1283,-209 1283,-215 1283,-215 1283,-242 1283,-242 1283,-248 1277,-254 1271,-254"/>
<g id="a_state_10014_title"><a xlink:href="#" xlink:title="state_10014_title">
<text text-anchor="start" x="1165.5" y="-236.1" font-family="Calibri" font-weight="bold" font-size="13.00" fill="#8b4513">Estado </text>
<text text-anchor="start" x="1204.5" y="-236.1" font-family="Calibri" font-weight="bold" font-size="13.00" fill="#8b4513">14</text>
</a>
</g>
<g id="a_state_10014_item_1"><a xlink:href="#" xlink:title="state_10014_item_1">
<text text-anchor="start" x="1108.5" y="-215.3" font-family="Times,serif" font-size="14.00" fill="#bc1f29">if_stmt </text>
<text text-anchor="start" x="1152.5" y="-215.3" font-family="Times,serif" font-size="14.00" fill="#0a5040">→ </text>
<text text-anchor="start" x="1171.5" y="-215.3" font-family="Times,serif" font-size="14.00" fill="#0a5040"> if</text>
<text text-anchor="start" x="1184.5" y="-215.3" font-family="Times,serif" font-size="14.00" fill="#bc1f29"> stmt</text>
<text text-anchor="start" x="1212.5" y="-215.3" font-family="Times,serif" font-size="14.00" fill="#0a5040"> else</text>
<text text-anchor="start" x="1237.5" y="-215.3" font-family="Times,serif" font-size="14.00" fill="#f5a70a"> •</text>
<text text-anchor="start" x="1247.5" y="-215.3" font-family="Times,serif" font-size="14.00" fill="#bc1f29"> stmt</text>
</a>
</g>
</g>
<!-- state_10013&#45;&gt;state_10014 -->
<g id="trans_17" class="edge">
<title>state_10013&#45;&gt;state_10014</title>
<path fill="none" stroke="#b8860b" stroke-width="1.5" d="M981.7045,-317.6799C999.223,-304.0914 1020.667,-286.8868 1039,-270.5 1047.4352,-262.9603 1046.97,-257.7344 1057,-252.5 1067.2677,-247.1416 1078.5117,-242.9542 1089.9859,-239.6859"/>
<polygon fill="#b8860b" stroke="#b8860b" stroke-width="1.5" points="1090.8754,-243.0711 1099.6621,-237.1513 1089.1016,-236.2996 1090.8754,-243.0711"/>
<text text-anchor="start" x="1057" y="-256.3" font-family="Times,serif" font-size="14.00" fill="#0a5040"> else</text>
</g>
<!-- state_10001 -->
<g id="state_10001" class="node">
<title>state_10001</title>
<path fill="#fffff0" stroke="#b8860b" stroke-width="1.5" d="M104,-259C104,-259 12,-259 12,-259 6,-259 0,-253 0,-247 0,-247 0,-220 0,-220 0,-214 6,-208 12,-208 12,-208 104,-208 104,-208 110,-208 116,-214 116,-220 116,-220 116,-247 116,-247 116,-253 110,-259 104,-259"/>
<g id="a_state_10001_title"><a xlink:href="#" xlink:title="state_10001_title">
<text text-anchor="start" x="35" y="-241.1" font-family="Calibri" font-weight="bold" font-size="13.00" fill="#8b4513">Estado </text>
<text text-anchor="start" x="74" y="-241.1" font-family="Calibri" font-weight="bold" font-size="13.00" fill="#8b4513">1</text>
</a>
</g>
<g id="a_state_10001_item_1"><a xlink:href="#" xlink:title="state_10001_item_1">
<text text-anchor="start" x="8" y="-220.3" font-family="Times,serif" font-size="14.00" fill="#bc1f29">stmt&#39; </text>
<text text-anchor="start" x="39" y="-220.3" font-family="Times,serif" font-size="14.00" fill="#0a5040">→ </text>
<text text-anchor="start" x="58" y="-220.3" font-family="Times,serif" font-size="14.00" fill="#f5a70a"> •</text>
<text text-anchor="start" x="68" y="-220.3" font-family="Times,serif" font-size="14.00" fill="#bc1f29"> stmt</text>
<text text-anchor="start" x="96" y="-220.3" font-family="Times,serif" font-size="14.00" fill="#0a5040"> $</text>
</a>
</g>
</g>
<!-- state_10001&#45;&gt;state_10003 -->
<g id="trans_1" class="edge">
<title>state_10001&#45;&gt;state_10003</title>
<path fill="none" stroke="#b8860b" stroke-width="1.5" d="M66.2922,-259.3727C86.1506,-315.7158 142.0864,-444.5 238.5,-444.5 238.5,-444.5 238.5,-444.5 1191.5,-444.5 1266.6884,-444.5 1346.2645,-405.5813 1395.1683,-376.5473"/>
<polygon fill="#b8860b" stroke="#b8860b" stroke-width="1.5" points="1397.1843,-379.4186 1403.9347,-371.2526 1393.5653,-373.4266 1397.1843,-379.4186"/>
<text text-anchor="start" x="695.5" y="-448.3" font-family="Times,serif" font-size="14.00" fill="#0a5040"> ε</text>
</g>
<!-- state_10001&#45;&gt;state_10006 -->
<g id="trans_2" class="edge">
<title>state_10001&#45;&gt;state_10006</title>
<path fill="none" stroke="#b8860b" stroke-width="1.5" d="M94.9624,-207.9027C123.4339,-188.1857 162.9289,-160.8346 193.2843,-139.8128"/>
<polygon fill="#b8860b" stroke="#b8860b" stroke-width="1.5" points="195.3585,-142.6337 201.587,-134.063 191.3732,-136.879 195.3585,-142.6337"/>
<text text-anchor="start" x="134" y="-182.3" font-family="Times,serif" font-size="14.00" fill="#bc1f29"> stmt</text>
</g>
<!-- state_10002 -->
<g id="state_10002" class="node">
<title>state_10002</title>
<path fill="#fffff0" stroke="#b8860b" stroke-width="1.5" d="M285,-259C285,-259 192,-259 192,-259 186,-259 180,-253 180,-247 180,-247 180,-220 180,-220 180,-214 186,-208 192,-208 192,-208 285,-208 285,-208 291,-208 297,-214 297,-220 297,-220 297,-247 297,-247 297,-253 291,-259 285,-259"/>
<g id="a_state_10002_title"><a xlink:href="#" xlink:title="state_10002_title">
<text text-anchor="start" x="216" y="-241.1" font-family="Calibri" font-weight="bold" font-size="13.00" fill="#8b4513">Estado </text>
<text text-anchor="start" x="255" y="-241.1" font-family="Calibri" font-weight="bold" font-size="13.00" fill="#8b4513">2</text>
</a>
</g>
<g id="a_state_10002_item_1"><a xlink:href="#" xlink:title="state_10002_item_1">
<text text-anchor="start" x="188.5" y="-220.3" font-family="Times,serif" font-size="14.00" fill="#bc1f29">stmt </text>
<text text-anchor="start" x="216.5" y="-220.3" font-family="Times,serif" font-size="14.00" fill="#0a5040">→ </text>
<text text-anchor="start" x="235.5" y="-220.3" font-family="Times,serif" font-size="14.00" fill="#f5a70a"> •</text>
<text text-anchor="start" x="245.5" y="-220.3" font-family="Times,serif" font-size="14.00" fill="#bc1f29"> if_stmt</text>
</a>
</g>
</g>
<!-- state_10001&#45;&gt;state_10002 -->
<g id="trans_3" class="edge">
<title>state_10001&#45;&gt;state_10002</title>
<path fill="none" stroke="#b8860b" stroke-width="1.5" d="M116.1049,-233.5C133.1627,-233.5 151.9827,-233.5 169.6431,-233.5"/>
<polygon fill="#b8860b" stroke="#b8860b" stroke-width="1.5" points="169.8852,-237.0001 179.8851,-233.5 169.8851,-230.0001 169.8852,-237.0001"/>
<text text-anchor="start" x="143" y="-237.3" font-family="Times,serif" font-size="14.00" fill="#0a5040"> ε</text>
</g>
<!-- state_10002&#45;&gt;state_10004 -->
<g id="trans_4" class="edge">
<title>state_10002&#45;&gt;state_10004</title>
<path fill="none" stroke="#b8860b" stroke-width="1.5" d="M297.1338,-242.6775C326.437,-247.2641 362.2271,-252.866 393.5063,-257.7619"/>
<polygon fill="#b8860b" stroke="#b8860b" stroke-width="1.5" points="393.0685,-261.2359 403.4895,-259.3244 394.1511,-254.3201 393.0685,-261.2359"/>
<text text-anchor="start" x="332" y="-255.3" font-family="Times,serif" font-size="14.00" fill="#0a5040"> ε</text>
</g>
<!-- state_10002&#45;&gt;state_10005 -->
<g id="trans_5" class="edge">
<title>state_10002&#45;&gt;state_10005</title>
<path fill="none" stroke="#b8860b" stroke-width="1.5" d="M249.615,-259.117C261.9796,-284.6619 284.33,-323.2151 315,-345.5 330.4966,-356.7599 348.7861,-365.2189 367.2386,-371.569"/>
<polygon fill="#b8860b" stroke="#b8860b" stroke-width="1.5" points="366.2968,-374.943 376.8889,-374.7011 368.4578,-368.2849 366.2968,-374.943"/>
<text text-anchor="start" x="332" y="-371.3" font-family="Times,serif" font-size="14.00" fill="#0a5040"> ε</text>
</g>
<!-- state_10007 -->
<g id="state_10007" class="node">
<title>state_10007</title>
<path fill="#f5f5dc" stroke="#b8860b" stroke-width="1.5" d="M515,-132C515,-132 422,-132 422,-132 416,-132 410,-126 410,-120 410,-120 410,-93 410,-93 410,-87 416,-81 422,-81 422,-81 515,-81 515,-81 521,-81 527,-87 527,-93 527,-93 527,-120 527,-120 527,-126 521,-132 515,-132"/>
<path fill="none" stroke="#b8860b" stroke-width="1.5" d="M519,-136C519,-136 418,-136 418,-136 412,-136 406,-130 406,-124 406,-124 406,-89 406,-89 406,-83 412,-77 418,-77 418,-77 519,-77 519,-77 525,-77 531,-83 531,-89 531,-89 531,-124 531,-124 531,-130 525,-136 519,-136"/>
<g id="a_state_10007_title"><a xlink:href="#" xlink:title="state_10007_title">
<text text-anchor="start" x="446" y="-114.1" font-family="Calibri" font-weight="bold" font-size="13.00" fill="#8b4513">Estado </text>
<text text-anchor="start" x="485" y="-114.1" font-family="Calibri" font-weight="bold" font-size="13.00" fill="#8b4513">7</text>
</a>
</g>
<g id="a_state_10007_item_1"><a xlink:href="#" xlink:title="state_10007_item_1">
<text text-anchor="start" x="418.5" y="-93.3" font-family="Times,serif" font-size="14.00" fill="#bc1f29">stmt </text>
<text text-anchor="start" x="446.5" y="-93.3" font-family="Times,serif" font-size="14.00" fill="#0a5040">→ </text>
<text text-anchor="start" x="465.5" y="-93.3" font-family="Times,serif" font-size="14.00" fill="#bc1f29"> if_stmt</text>
<text text-anchor="start" x="509.5" y="-93.3" font-family="Times,serif" font-size="14.00" fill="#f5a70a"> •</text>
</a>
</g>
</g>
<!-- state_10002&#45;&gt;state_10007 -->
<g id="trans_6" class="edge">
<title>state_10002&#45;&gt;state_10007</title>
<path fill="none" stroke="#b8860b" stroke-width="1.5" d="M251.487,-207.9043C264.4143,-185.1645 286.4327,-152.9111 315,-135.5 339.026,-120.8568 368.7885,-113.3193 395.6921,-109.5332"/>
<polygon fill="#b8860b" stroke="#b8860b" stroke-width="1.5" points="396.359,-112.9771 405.8452,-108.2588 395.4871,-106.0316 396.359,-112.9771"/>
<text text-anchor="start" x="315" y="-139.3" font-family="Times,serif" font-size="14.00" fill="#bc1f29"> if_stmt</text>
</g>
<!-- state_10009&#45;&gt;state_10003 -->
<g id="trans_13" class="edge">
<title>state_10009&#45;&gt;state_10003</title>
<path fill="none" stroke="#b8860b" stroke-width="1.5" d="M765.8577,-256.0024C793.6139,-260.7381 826.3492,-266.127 856,-270.5 1045.6274,-298.467 1270.659,-325.5376 1378.5604,-338.1403"/>
<polygon fill="#b8860b" stroke="#b8860b" stroke-width="1.5" points="1378.2937,-341.6329 1388.6318,-339.3143 1379.1043,-334.6799 1378.2937,-341.6329"/>
<text text-anchor="start" x="1064.5" y="-304.3" font-family="Times,serif" font-size="14.00" fill="#0a5040"> ε</text>
</g>
<!-- state_10009&#45;&gt;state_10002 -->
<g id="trans_12" class="edge">
<title>state_10009&#45;&gt;state_10002</title>
<path fill="none" stroke="#b8860b" stroke-width="1.5" d="M635.3883,-231.0182C611.7579,-226.7515 584.7805,-222.6013 560,-220.5 473.086,-213.1301 372.5885,-219.5872 307.413,-225.7456"/>
<polygon fill="#b8860b" stroke="#b8860b" stroke-width="1.5" points="306.8792,-222.2809 297.2635,-226.7293 307.5545,-229.2482 306.8792,-222.2809"/>
<text text-anchor="start" x="463.5" y="-224.3" font-family="Times,serif" font-size="14.00" fill="#0a5040"> ε</text>
</g>
<!-- state_10012 -->
<g id="state_10012" class="node">
<title>state_10012</title>
<path fill="#f5f5dc" stroke="#b8860b" stroke-width="1.5" d="M1000.5,-257C1000.5,-257 894.5,-257 894.5,-257 888.5,-257 882.5,-251 882.5,-245 882.5,-245 882.5,-218 882.5,-218 882.5,-212 888.5,-206 894.5,-206 894.5,-206 1000.5,-206 1000.5,-206 1006.5,-206 1012.5,-212 1012.5,-218 1012.5,-218 1012.5,-245 1012.5,-245 1012.5,-251 1006.5,-257 1000.5,-257"/>
<path fill="none" stroke="#b8860b" stroke-width="1.5" d="M1004.5,-261C1004.5,-261 890.5,-261 890.5,-261 884.5,-261 878.5,-255 878.5,-249 878.5,-249 878.5,-214 878.5,-214 878.5,-208 884.5,-202 890.5,-202 890.5,-202 1004.5,-202 1004.5,-202 1010.5,-202 1016.5,-208 1016.5,-214 1016.5,-214 1016.5,-249 1016.5,-249 1016.5,-255 1010.5,-261 1004.5,-261"/>
<g id="a_state_10012_title"><a xlink:href="#" xlink:title="state_10012_title">
<text text-anchor="start" x="921" y="-239.1" font-family="Calibri" font-weight="bold" font-size="13.00" fill="#8b4513">Estado </text>
<text text-anchor="start" x="960" y="-239.1" font-family="Calibri" font-weight="bold" font-size="13.00" fill="#8b4513">12</text>
</a>
</g>
<g id="a_state_10012_item_1"><a xlink:href="#" xlink:title="state_10012_item_1">
<text text-anchor="start" x="890.5" y="-218.3" font-family="Times,serif" font-size="14.00" fill="#bc1f29">if_stmt </text>
<text text-anchor="start" x="934.5" y="-218.3" font-family="Times,serif" font-size="14.00" fill="#0a5040">→ </text>
<text text-anchor="start" x="953.5" y="-218.3" font-family="Times,serif" font-size="14.00" fill="#0a5040"> if</text>
<text text-anchor="start" x="966.5" y="-218.3" font-family="Times,serif" font-size="14.00" fill="#bc1f29"> stmt</text>
<text text-anchor="start" x="994.5" y="-218.3" font-family="Times,serif" font-size="14.00" fill="#f5a70a"> •</text>
</a>
</g>
</g>
<!-- state_10009&#45;&gt;state_10012 -->
<g id="trans_11" class="edge">
<title>state_10009&#45;&gt;state_10012</title>
<path fill="none" stroke="#b8860b" stroke-width="1.5" d="M765.7194,-241.0674C797.1947,-239.4108 835.2232,-237.4093 868.3448,-235.6661"/>
<polygon fill="#b8860b" stroke="#b8860b" stroke-width="1.5" points="868.6515,-239.1549 878.4536,-235.134 868.2835,-232.1645 868.6515,-239.1549"/>
<text text-anchor="start" x="810" y="-241.3" font-family="Times,serif" font-size="14.00" fill="#bc1f29"> stmt</text>
</g>
<!-- state_10010&#45;&gt;state_10003 -->
<g id="trans_14" class="edge">
<title>state_10010&#45;&gt;state_10003</title>
<path fill="none" stroke="#b8860b" stroke-width="1.5" d="M792.1667,-377.0962C813.1392,-377.7386 835.3382,-378.2754 856,-378.5 937.3285,-379.3839 957.7344,-381.8176 1039,-378.5 1159.1377,-373.5955 1298.8944,-360.5098 1378.403,-352.367"/>
<polygon fill="#b8860b" stroke="#b8860b" stroke-width="1.5" points="1379.1524,-355.8084 1388.7407,-351.3013 1378.4345,-348.8453 1379.1524,-355.8084"/>
<text text-anchor="start" x="1064.5" y="-381.3" font-family="Times,serif" font-size="14.00" fill="#0a5040"> ε</text>
</g>
<!-- state_10010&#45;&gt;state_10013 -->
<g id="trans_15" class="edge">
<title>state_10010&#45;&gt;state_10013</title>
<path fill="none" stroke="#b8860b" stroke-width="1.5" d="M792.1227,-362.3717C809.4526,-360.2669 827.6815,-358.0529 845.3128,-355.9114"/>
<polygon fill="#b8860b" stroke="#b8860b" stroke-width="1.5" points="846.1084,-359.3406 855.6134,-354.6603 845.2643,-352.3916 846.1084,-359.3406"/>
<text text-anchor="start" x="810" y="-362.3" font-family="Times,serif" font-size="14.00" fill="#bc1f29"> stmt</text>
</g>
<!-- state_10010&#45;&gt;state_10002 -->
<g id="trans_16" class="edge">
<title>state_10010&#45;&gt;state_10002</title>
<path fill="none" stroke="#b8860b" stroke-width="1.5" d="M608.7456,-352.2627C592.5209,-348.6043 575.7757,-344.8908 560,-341.5 478.8737,-324.0628 455.3226,-331.9064 377,-304.5 346.8851,-293.9623 315.0856,-278.0406 289.5623,-263.9434"/>
<polygon fill="#b8860b" stroke="#b8860b" stroke-width="1.5" points="291.2449,-260.8743 280.8092,-259.0449 287.8264,-266.9828 291.2449,-260.8743"/>
<text text-anchor="start" x="463.5" y="-345.3" font-family="Times,serif" font-size="14.00" fill="#0a5040"> ε</text>
</g>
<!-- state_10014&#45;&gt;state_10003 -->
<g id="trans_20" class="edge">
<title>state_10014&#45;&gt;state_10003</title>
<path fill="none" stroke="#b8860b" stroke-width="1.5" d="M1283.1541,-244.2285C1298.8302,-248.4862 1314.6685,-253.8277 1329,-260.5 1357.695,-273.8595 1386.1964,-295.2407 1407.4605,-313.2159"/>
<polygon fill="#b8860b" stroke="#b8860b" stroke-width="1.5" points="1405.3791,-316.0425 1415.2411,-319.9145 1409.9463,-310.7376 1405.3791,-316.0425"/>
<text text-anchor="start" x="1310" y="-264.3" font-family="Times,serif" font-size="14.00" fill="#0a5040"> ε</text>
</g>
<!-- state_10014&#45;&gt;state_10002 -->
<g id="trans_19" class="edge">
<title>state_10014&#45;&gt;state_10002</title>
<path fill="none" stroke="#b8860b" stroke-width="1.5" d="M1129.7286,-202.9296C1081.0876,-185.1031 1011.1109,-164.5 947.5,-164.5 468.5,-164.5 468.5,-164.5 468.5,-164.5 410.1195,-164.5 346.7855,-185.1475 301.3871,-203.853"/>
<polygon fill="#b8860b" stroke="#b8860b" stroke-width="1.5" points="299.8426,-200.7055 291.98,-207.8069 302.555,-207.1587 299.8426,-200.7055"/>
<text text-anchor="start" x="695.5" y="-168.3" font-family="Times,serif" font-size="14.00" fill="#0a5040"> ε</text>
</g>
<!-- state_10015 -->
<g id="state_10015" class="node">
<title>state_10015</title>
<path fill="#f5f5dc" stroke="#b8860b" stroke-width="1.5" d="M1522,-247C1522,-247 1363,-247 1363,-247 1357,-247 1351,-241 1351,-235 1351,-235 1351,-208 1351,-208 1351,-202 1357,-196 1363,-196 1363,-196 1522,-196 1522,-196 1528,-196 1534,-202 1534,-208 1534,-208 1534,-235 1534,-235 1534,-241 1528,-247 1522,-247"/>
<path fill="none" stroke="#b8860b" stroke-width="1.5" d="M1526,-251C1526,-251 1359,-251 1359,-251 1353,-251 1347,-245 1347,-239 1347,-239 1347,-204 1347,-204 1347,-198 1353,-192 1359,-192 1359,-192 1526,-192 1526,-192 1532,-192 1538,-198 1538,-204 1538,-204 1538,-239 1538,-239 1538,-245 1532,-251 1526,-251"/>
<g id="a_state_10015_title"><a xlink:href="#" xlink:title="state_10015_title">
<text text-anchor="start" x="1416.5" y="-229.1" font-family="Calibri" font-weight="bold" font-size="13.00" fill="#8b4513">Estado </text>
<text text-anchor="start" x="1455.5" y="-229.1" font-family="Calibri" font-weight="bold" font-size="13.00" fill="#8b4513">15</text>
</a>
</g>
<g id="a_state_10015_item_1"><a xlink:href="#" xlink:title="state_10015_item_1">
<text text-anchor="start" x="1359.5" y="-208.3" font-family="Times,serif" font-size="14.00" fill="#bc1f29">if_stmt </text>
<text text-anchor="start" x="1403.5" y="-208.3" font-family="Times,serif" font-size="14.00" fill="#0a5040">→ </text>
<text text-anchor="start" x="1422.5" y="-208.3" font-family="Times,serif" font-size="14.00" fill="#0a5040"> if</text>
<text text-anchor="start" x="1435.5" y="-208.3" font-family="Times,serif" font-size="14.00" fill="#bc1f29"> stmt</text>
<text text-anchor="start" x="1463.5" y="-208.3" font-family="Times,serif" font-size="14.00" fill="#0a5040"> else</text>
<text text-anchor="start" x="1488.5" y="-208.3" font-family="Times,serif" font-size="14.00" fill="#bc1f29"> stmt</text>
<text text-anchor="start" x="1516.5" y="-208.3" font-family="Times,serif" font-size="14.00" fill="#f5a70a"> •</text>
</a>
</g>
</g>
<!-- state_10014&#45;&gt;state_10015 -->
<g id="trans_18" class="edge">
<title>state_10014&#45;&gt;state_10015</title>
<path fill="none" stroke="#b8860b" stroke-width="1.5" d="M1283.197,-223.1529C1289.2205,-222.9013 1295.1959,-222.6794 1301,-222.5 1312.606,-222.1412 1324.7499,-221.8808 1336.8374,-221.6947"/>
<polygon fill="#b8860b" stroke="#b8860b" stroke-width="1.5" points="1337.0138,-225.1927 1346.9647,-221.5554 1336.9174,-218.1934 1337.0138,-225.1927"/>
<text text-anchor="start" x="1301" y="-226.3" font-family="Times,serif" font-size="14.00" fill="#bc1f29"> stmt</text>
</g>
</g>
</svg>
