<?xml version="1.0" encoding="UTF-8" standalone="no"?>
<!DOCTYPE svg PUBLIC "-//W3C//DTD SVG 1.1//EN"
 "http://www.w3.org/Graphics/SVG/1.1/DTD/svg11.dtd">
<!-- Generated by graphviz version 2.40.1 (20161225.0304)
 -->
<!-- Title: DFA Pages: 1 -->
<svg width="880pt" height="378pt"
 viewBox="0.00 0.00 880.00 377.50" xmlns="http://www.w3.org/2000/svg" xmlns:xlink="http://www.w3.org/1999/xlink">
<g id="graph0" class="graph" transform="scale(1 1) rotate(0) translate(4 373.5)">
<title>DFA</title>
<!-- state_1 -->
<g id="state_1" class="node">
<title>state_1</title>
<path fill="#fffff0" stroke="#b8860b" stroke-width="1.5" d="M91,-120C91,-120 12,-120 12,-120 6,-120 0,-114 0,-108 0,-108 0,-12 0,-12 0,-6 6,0 12,0 12,0 91,0 91,0 97,0 103,-6 103,-12 103,-12 103,-108 103,-108 103,-114 97,-120 91,-120"/>
<g id="a_state_1_title"><a xlink:href="#" xlink:title="state_1_title">
<text text-anchor="start" x="29" y="-99.6" font-family="Calibri" font-weight="bold" font-size="13.00" fill="#8b4513">Estado </text>
<text text-anchor="start" x="68" y="-99.6" font-family="Calibri" font-weight="bold" font-size="13.00" fill="#8b4513">1</text>
</a>
</g>
<g id="a_state_1_item_1"><a xlink:href="#" xlink:title="state_1_item_1">
<text text-anchor="start" x="11.5" y="-78.8" font-family="Times,serif" font-size="14.00" fill="#bc1f29">E&#39; </text>
<text text-anchor="start" x="27.5" y="-78.8" font-family="Times,serif" font-size="14.00" fill="#0a5040">→ </text>
<text text-anchor="start" x="46.5" y="-78.8" font-family="Times,serif" font-size="14.00" fill="#f5a70a"> •</text>
<text text-anchor="start" x="56.5" y="-78.8" font-family="Times,serif" font-size="14.00" fill="#bc1f29"> E</text>
<text text-anchor="start" x="69.5" y="-78.8" font-family="Times,serif" font-size="14.00" fill="#0a5040"> $</text>
</a>
</g>
<g id="a_state_1_item_2"><a xlink:href="#" xlink:title="state_1_item_2">
<text text-anchor="start" x="11.5" y="-57.8" font-family="Times,serif" font-size="14.00" fill="#bc1f29">E </text>
<text text-anchor="start" x="24.5" y="-57.8" font-family="Times,serif" font-size="14.00" fill="#0a5040">→ </text>
<text text-anchor="start" x="43.5" y="-57.8" font-family="Times,serif" font-size="14.00" fill="#f5a70a"> •</text>
<text text-anchor="start" x="53.5" y="-57.8" font-family="Times,serif" font-size="14.00" fill="#bc1f29"> E</text>
<text text-anchor="start" x="66.5" y="-57.8" font-family="Times,serif" font-size="14.00" fill="#0a5040"> +</text>
<text text-anchor="start" x="79.5" y="-57.8" font-family="Times,serif" font-size="14.00" fill="#bc1f29"> E</text>
</a>
</g>
<g id="a_state_1_item_3"><a xlink:href="#" xlink:title="state_1_item_3">
<text text-anchor="start" x="11.5" y="-36.8" font-family="Times,serif" font-size="14.00" fill="#bc1f29">E </text>
<text text-anchor="start" x="24.5" y="-36.8" font-family="Times,serif" font-size="14.00" fill="#0a5040">→ </text>
<text text-anchor="start" x="43.5" y="-36.8" font-family="Times,serif" font-size="14.00" fill="#f5a70a"> •</text>
<text text-anchor="start" x="53.5" y="-36.8" font-family="Times,serif" font-size="14.00" fill="#bc1f29"> E</text>
<text text-anchor="start" x="66.5" y="-36.8" font-family="Times,serif" font-size="14.00" fill="#0a5040"> *</text>
<text text-anchor="start" x="78.5" y="-36.8" font-family="Times,serif" font-size="14.00" fill="#bc1f29"> E</text>
</a>
</g>
<g id="a_state_1_item_4"><a xlink:href="#" xlink:title="state_1_item_4">
<text text-anchor="start" x="11.5" y="-15.8" font-family="Times,serif" font-size="14.00" fill="#bc1f29">E </text>
<text text-anchor="start" x="24.5" y="-15.8" font-family="Times,serif" font-size="14.00" fill="#0a5040">→ </text>
<text text-anchor="start" x="43.5" y="-15.8" font-family="Times,serif" font-size="14.00" fill="#f5a70a"> •</text>
<text text-anchor="start" x="53.5" y="-15.8" font-family="Times,serif" font-size="14.00" fill="#0a5040"> id</text>
</a>
</g>
</g>
<!-- state_2 -->
<g id="state_2" class="node">
<title>state_2</title>
<path fill="#fffff0" stroke="#b8860b" stroke-width="1.5" d="M243,-275.5C243,-275.5 164,-275.5 164,-275.5 158,-275.5 152,-269.5 152,-263.5 152,-263.5 152,-188.5 152,-188.5 152,-182.5 158,-176.5 164,-176.5 164,-176.5 243,-176.5 243,-176.5 249,-176.5 255,-182.5 255,-188.5 255,-188.5 255,-263.5 255,-263.5 255,-269.5 249,-275.5 243,-275.5"/>
<g id="a_state_2_title"><a xlink:href="#" xlink:title="state_2_title">
<text text-anchor="start" x="181" y="-254.6" font-family="Calibri" font-weight="bold" font-size="13.00" fill="#8b4513">Estado </text>
<text text-anchor="start" x="220" y="-254.6" font-family="Calibri" font-weight="bold" font-size="13.00" fill="#8b4513">2</text>
</a>
</g>
<g id="a_state_2_item_1"><a xlink:href="#" xlink:title="state_2_item_1">
<text text-anchor="start" x="163.5" y="-233.8" font-family="Times,serif" font-size="14.00" fill="#bc1f29">E&#39; </text>
<text text-anchor="start" x="179.5" y="-233.8" font-family="Times,serif" font-size="14.00" fill="#0a5040">→ </text>
<text text-anchor="start" x="198.5" y="-233.8" font-family="Times,serif" font-size="14.00" fill="#bc1f29"> E</text>
<text text-anchor="start" x="211.5" y="-233.8" font-family="Times,serif" font-size="14.00" fill="#f5a70a"> •</text>
<text text-anchor="start" x="221.5" y="-233.8" font-family="Times,serif" font-size="14.00" fill="#0a5040"> $</text>
</a>
</g>
<g id="a_state_2_item_2"><a xlink:href="#" xlink:title="state_2_item_2">
<text text-anchor="start" x="163.5" y="-212.8" font-family="Times,serif" font-size="14.00" fill="#bc1f29">E </text>
<text text-anchor="start" x="176.5" y="-212.8" font-family="Times,serif" font-size="14.00" fill="#0a5040">→ </text>
<text text-anchor="start" x="195.5" y="-212.8" font-family="Times,serif" font-size="14.00" fill="#bc1f29"> E</text>
<text text-anchor="start" x="208.5" y="-212.8" font-family="Times,serif" font-size="14.00" fill="#f5a70a"> •</text>
<text text-anchor="start" x="218.5" y="-212.8" font-family="Times,serif" font-size="14.00" fill="#0a5040"> +</text>
<text text-anchor="start" x="231.5" y="-212.8" font-family="Times,serif" font-size="14.00" fill="#bc1f29"> E</text>
</a>
</g>
<g id="a_state_2_item_3"><a xlink:href="#" xlink:title="state_2_item_3">
<text text-anchor="start" x="163.5" y="-191.8" font-family="Times,serif" font-size="14.00" fill="#bc1f29">E </text>
<text text-anchor="start" x="176.5" y="-191.8" font-family="Times,serif" font-size="14.00" fill="#0a5040">→ </text>
<text text-anchor="start" x="195.5" y="-191.8" font-family="Times,serif" font-size="14.00" fill="#bc1f29"> E</text>
<text text-anchor="start" x="208.5" y="-191.8" font-family="Times,serif" font-size="14.00" fill="#f5a70a"> •</text>
<text text-anchor="start" x="218.5" y="-191.8" font-family="Times,serif" font-size="14.00" fill="#0a5040"> *</text>
<text text-anchor="start" x="230.5" y="-191.8" font-family="Times,serif" font-size="14.00" fill="#bc1f29"> E</text>
</a>
</g>
</g>
<!-- state_1&#45;&gt;state_2 -->
<g id="trans_1" class="edge">
<title>state_1&#45;&gt;state_2</title>
<path fill="none" stroke="#b8860b" stroke-width="1.5" d="M103.3846,-116.6635C118.7482,-133.4421 135.5785,-151.8226 150.9817,-168.6445"/>
<polygon fill="#b8860b" stroke="#b8860b" stroke-width="1.5" points="148.6135,-171.2409 157.9481,-176.2525 153.7762,-166.5136 148.6135,-171.2409"/>
<text text-anchor="start" x="121" y="-151.8" font-family="Times,serif" font-size="14.00" fill="#bc1f29"> E</text>
</g>
<!-- state_3 -->
<g id="state_3" class="node">
<title>state_3</title>
<path fill="#fffff0" stroke="#b8860b" stroke-width="1.5" d="M848.5,-110.5C848.5,-110.5 792.5,-110.5 792.5,-110.5 786.5,-110.5 780.5,-104.5 780.5,-98.5 780.5,-98.5 780.5,-65.5 780.5,-65.5 780.5,-59.5 786.5,-53.5 792.5,-53.5 792.5,-53.5 848.5,-53.5 848.5,-53.5 854.5,-53.5 860.5,-59.5 860.5,-65.5 860.5,-65.5 860.5,-98.5 860.5,-98.5 860.5,-104.5 854.5,-110.5 848.5,-110.5"/>
<path fill="none" stroke="#b8860b" stroke-width="1.5" d="M852.5,-114.5C852.5,-114.5 788.5,-114.5 788.5,-114.5 782.5,-114.5 776.5,-108.5 776.5,-102.5 776.5,-102.5 776.5,-61.5 776.5,-61.5 776.5,-55.5 782.5,-49.5 788.5,-49.5 788.5,-49.5 852.5,-49.5 852.5,-49.5 858.5,-49.5 864.5,-55.5 864.5,-61.5 864.5,-61.5 864.5,-102.5 864.5,-102.5 864.5,-108.5 858.5,-114.5 852.5,-114.5"/>
<g id="a_state_3_title"><a xlink:href="#" xlink:title="state_3_title">
<text text-anchor="start" x="797.5" y="-89.6" font-family="Calibri" font-weight="bold" font-size="13.00" fill="#8b4513">Estado </text>
<text text-anchor="start" x="836.5" y="-89.6" font-family="Calibri" font-weight="bold" font-size="13.00" fill="#8b4513">3</text>
</a>
</g>
<g id="a_state_3_item_1"><a xlink:href="#" xlink:title="state_3_item_1">
<text text-anchor="start" x="791.5" y="-68.8" font-family="Times,serif" font-size="14.00" fill="#bc1f29">E </text>
<text text-anchor="start" x="804.5" y="-68.8" font-family="Times,serif" font-size="14.00" fill="#0a5040">→ </text>
<text text-anchor="start" x="823.5" y="-68.8" font-family="Times,serif" font-size="14.00" fill="#0a5040"> id</text>
<text text-anchor="start" x="839.5" y="-68.8" font-family="Times,serif" font-size="14.00" fill="#f5a70a"> •</text>
</a>
</g>
</g>
<!-- state_1&#45;&gt;state_3 -->
<g id="trans_2" class="edge">
<title>state_1&#45;&gt;state_3</title>
<path fill="none" stroke="#b8860b" stroke-width="1.5" d="M103.0676,-51.8594C132.4257,-47.9068 169.9336,-44 203.5,-44 203.5,-44 203.5,-44 665.5,-44 699.8519,-44 737.2864,-52.9133 766.76,-62.1062"/>
<polygon fill="#b8860b" stroke="#b8860b" stroke-width="1.5" points="765.8427,-65.4878 776.4342,-65.222 767.9888,-58.8248 765.8427,-65.4878"/>
<text text-anchor="start" x="425" y="-47.8" font-family="Times,serif" font-size="14.00" fill="#0a5040"> id</text>
</g>
<!-- state_5 -->
<g id="state_5" class="node">
<title>state_5</title>
<path fill="#fffff0" stroke="#b8860b" stroke-width="1.5" d="M395,-220C395,-220 316,-220 316,-220 310,-220 304,-214 304,-208 304,-208 304,-112 304,-112 304,-106 310,-100 316,-100 316,-100 395,-100 395,-100 401,-100 407,-106 407,-112 407,-112 407,-208 407,-208 407,-214 401,-220 395,-220"/>
<g id="a_state_5_title"><a xlink:href="#" xlink:title="state_5_title">
<text text-anchor="start" x="333" y="-199.6" font-family="Calibri" font-weight="bold" font-size="13.00" fill="#8b4513">Estado </text>
<text text-anchor="start" x="372" y="-199.6" font-family="Calibri" font-weight="bold" font-size="13.00" fill="#8b4513">5</text>
</a>
</g>
<g id="a_state_5_item_1"><a xlink:href="#" xlink:title="state_5_item_1">
<text text-anchor="start" x="315.5" y="-178.8" font-family="Times,serif" font-size="14.00" fill="#bc1f29">E </text>
<text text-anchor="start" x="328.5" y="-178.8" font-family="Times,serif" font-size="14.00" fill="#0a5040">→ </text>
<text text-anchor="start" x="347.5" y="-178.8" font-family="Times,serif" font-size="14.00" fill="#bc1f29"> E</text>
<text text-anchor="start" x="360.5" y="-178.8" font-family="Times,serif" font-size="14.00" fill="#0a5040"> +</text>
<text text-anchor="start" x="373.5" y="-178.8" font-family="Times,serif" font-size="14.00" fill="#f5a70a"> •</text>
<text text-anchor="start" x="383.5" y="-178.8" font-family="Times,serif" font-size="14.00" fill="#bc1f29"> E</text>
</a>
</g>
<g id="a_state_5_item_2"><a xlink:href="#" xlink:title="state_5_item_2">
<text text-anchor="start" x="315.5" y="-157.8" font-family="Times,serif" font-size="14.00" fill="#bc1f29">E </text>
<text text-anchor="start" x="328.5" y="-157.8" font-family="Times,serif" font-size="14.00" fill="#0a5040">→ </text>
<text text-anchor="start" x="347.5" y="-157.8" font-family="Times,serif" font-size="14.00" fill="#f5a70a"> •</text>
<text text-anchor="start" x="357.5" y="-157.8" font-family="Times,serif" font-size="14.00" fill="#bc1f29"> E</text>
<text text-anchor="start" x="370.5" y="-157.8" font-family="Times,serif" font-size="14.00" fill="#0a5040"> +</text>
<text text-anchor="start" x="383.5" y="-157.8" font-family="Times,serif" font-size="14.00" fill="#bc1f29"> E</text>
</a>
</g>
<g id="a_state_5_item_3"><a xlink:href="#" xlink:title="state_5_item_3">
<text text-anchor="start" x="315.5" y="-136.8" font-family="Times,serif" font-size="14.00" fill="#bc1f29">E </text>
<text text-anchor="start" x="328.5" y="-136.8" font-family="Times,serif" font-size="14.00" fill="#0a5040">→ </text>
<text text-anchor="start" x="347.5" y="-136.8" font-family="Times,serif" font-size="14.00" fill="#f5a70a"> •</text>
<text text-anchor="start" x="357.5" y="-136.8" font-family="Times,serif" font-size="14.00" fill="#bc1f29"> E</text>
<text text-anchor="start" x="370.5" y="-136.8" font-family="Times,serif" font-size="14.00" fill="#0a5040"> *</text>
<text text-anchor="start" x="382.5" y="-136.8" font-family="Times,serif" font-size="14.00" fill="#bc1f29"> E</text>
</a>
</g>
<g id="a_state_5_item_4"><a xlink:href="#" xlink:title="state_5_item_4">
<text text-anchor="start" x="315.5" y="-115.8" font-family="Times,serif" font-size="14.00" fill="#bc1f29">E </text>
<text text-anchor="start" x="328.5" y="-115.8" font-family="Times,serif" font-size="14.00" fill="#0a5040">→ </text>
<text text-anchor="start" x="347.5" y="-115.8" font-family="Times,serif" font-size="14.00" fill="#f5a70a"> •</text>
<text text-anchor="start" x="357.5" y="-115.8" font-family="Times,serif" font-size="14.00" fill="#0a5040"> id</text>
</a>
</g>
</g>
<!-- state_2&#45;&gt;state_5 -->
<g id="trans_4" class="edge">
<title>state_2&#45;&gt;state_5</title>
<path fill="none" stroke="#b8860b" stroke-width="1.5" d="M255.3846,-203.4711C267.98,-198.0021 281.5611,-192.105 294.5336,-186.4723"/>
<polygon fill="#b8860b" stroke="#b8860b" stroke-width="1.5" points="296.0706,-189.6207 303.8492,-182.4273 293.2825,-183.1998 296.0706,-189.6207"/>
<text text-anchor="start" x="273" y="-198.8" font-family="Times,serif" font-size="14.00" fill="#0a5040"> +</text>
</g>
<!-- state_6 -->
<g id="state_6" class="node">
<title>state_6</title>
<path fill="#fffff0" stroke="#b8860b" stroke-width="1.5" d="M705,-268C705,-268 626,-268 626,-268 620,-268 614,-262 614,-256 614,-256 614,-160 614,-160 614,-154 620,-148 626,-148 626,-148 705,-148 705,-148 711,-148 717,-154 717,-160 717,-160 717,-256 717,-256 717,-262 711,-268 705,-268"/>
<g id="a_state_6_title"><a xlink:href="#" xlink:title="state_6_title">
<text text-anchor="start" x="643" y="-247.6" font-family="Calibri" font-weight="bold" font-size="13.00" fill="#8b4513">Estado </text>
<text text-anchor="start" x="682" y="-247.6" font-family="Calibri" font-weight="bold" font-size="13.00" fill="#8b4513">6</text>
</a>
</g>
<g id="a_state_6_item_1"><a xlink:href="#" xlink:title="state_6_item_1">
<text text-anchor="start" x="625.5" y="-226.8" font-family="Times,serif" font-size="14.00" fill="#bc1f29">E </text>
<text text-anchor="start" x="638.5" y="-226.8" font-family="Times,serif" font-size="14.00" fill="#0a5040">→ </text>
<text text-anchor="start" x="657.5" y="-226.8" font-family="Times,serif" font-size="14.00" fill="#bc1f29"> E</text>
<text text-anchor="start" x="670.5" y="-226.8" font-family="Times,serif" font-size="14.00" fill="#0a5040"> *</text>
<text text-anchor="start" x="682.5" y="-226.8" font-family="Times,serif" font-size="14.00" fill="#f5a70a"> •</text>
<text text-anchor="start" x="692.5" y="-226.8" font-family="Times,serif" font-size="14.00" fill="#bc1f29"> E</text>
</a>
</g>
<g id="a_state_6_item_2"><a xlink:href="#" xlink:title="state_6_item_2">
<text text-anchor="start" x="625.5" y="-205.8" font-family="Times,serif" font-size="14.00" fill="#bc1f29">E </text>
<text text-anchor="start" x="638.5" y="-205.8" font-family="Times,serif" font-size="14.00" fill="#0a5040">→ </text>
<text text-anchor="start" x="657.5" y="-205.8" font-family="Times,serif" font-size="14.00" fill="#f5a70a"> •</text>
<text text-anchor="start" x="667.5" y="-205.8" font-family="Times,serif" font-size="14.00" fill="#bc1f29"> E</text>
<text text-anchor="start" x="680.5" y="-205.8" font-family="Times,serif" font-size="14.00" fill="#0a5040"> +</text>
<text text-anchor="start" x="693.5" y="-205.8" font-family="Times,serif" font-size="14.00" fill="#bc1f29"> E</text>
</a>
</g>
<g id="a_state_6_item_3"><a xlink:href="#" xlink:title="state_6_item_3">
<text text-anchor="start" x="625.5" y="-184.8" font-family="Times,serif" font-size="14.00" fill="#bc1f29">E </text>
<text text-anchor="start" x="638.5" y="-184.8" font-family="Times,serif" font-size="14.00" fill="#0a5040">→ </text>
<text text-anchor="start" x="657.5" y="-184.8" font-family="Times,serif" font-size="14.00" fill="#f5a70a"> •</text>
<text text-anchor="start" x="667.5" y="-184.8" font-family="Times,serif" font-size="14.00" fill="#bc1f29"> E</text>
<text text-anchor="start" x="680.5" y="-184.8" font-family="Times,serif" font-size="14.00" fill="#0a5040"> *</text>
<text text-anchor="start" x="692.5" y="-184.8" font-family="Times,serif" font-size="14.00" fill="#bc1f29"> E</text>
</a>
</g>
<g id="a_state_6_item_4"><a xlink:href="#" xlink:title="state_6_item_4">
<text text-anchor="start" x="625.5" y="-163.8" font-family="Times,serif" font-size="14.00" fill="#bc1f29">E </text>
<text text-anchor="start" x="638.5" y="-163.8" font-family="Times,serif" font-size="14.00" fill="#0a5040">→ </text>
<text text-anchor="start" x="657.5" y="-163.8" font-family="Times,serif" font-size="14.00" fill="#f5a70a"> •</text>
<text text-anchor="start" x="667.5" y="-163.8" font-family="Times,serif" font-size="14.00" fill="#0a5040"> id</text>
</a>
</g>
</g>
<!-- state_2&#45;&gt;state_6 -->
<g id="trans_5" class="edge">
<title>state_2&#45;&gt;state_6</title>
<path fill="none" stroke="#b8860b" stroke-width="1.5" d="M255.1999,-239.8955C325.4629,-256.6203 454.6563,-279.68 562,-256 576.301,-252.8452 590.9748,-247.5088 604.6131,-241.514"/>
<polygon fill="#b8860b" stroke="#b8860b" stroke-width="1.5" points="606.2352,-244.6209 613.8723,-237.2774 603.3227,-238.2555 606.2352,-244.6209"/>
<text text-anchor="start" x="427" y="-269.8" font-family="Times,serif" font-size="14.00" fill="#0a5040"> *</text>
</g>
<!-- state_4 -->
<g id="state_4" class="node">
<title>state_4</title>
<path fill="#fffff0" stroke="#b8860b" stroke-width="1.5" d="M389.5,-365.5C389.5,-365.5 321.5,-365.5 321.5,-365.5 315.5,-365.5 309.5,-359.5 309.5,-353.5 309.5,-353.5 309.5,-320.5 309.5,-320.5 309.5,-314.5 315.5,-308.5 321.5,-308.5 321.5,-308.5 389.5,-308.5 389.5,-308.5 395.5,-308.5 401.5,-314.5 401.5,-320.5 401.5,-320.5 401.5,-353.5 401.5,-353.5 401.5,-359.5 395.5,-365.5 389.5,-365.5"/>
<path fill="none" stroke="#b8860b" stroke-width="1.5" d="M393.5,-369.5C393.5,-369.5 317.5,-369.5 317.5,-369.5 311.5,-369.5 305.5,-363.5 305.5,-357.5 305.5,-357.5 305.5,-316.5 305.5,-316.5 305.5,-310.5 311.5,-304.5 317.5,-304.5 317.5,-304.5 393.5,-304.5 393.5,-304.5 399.5,-304.5 405.5,-310.5 405.5,-316.5 405.5,-316.5 405.5,-357.5 405.5,-357.5 405.5,-363.5 399.5,-369.5 393.5,-369.5"/>
<g id="a_state_4_title"><a xlink:href="#" xlink:title="state_4_title">
<text text-anchor="start" x="332.5" y="-344.6" font-family="Calibri" font-weight="bold" font-size="13.00" fill="#8b4513">Estado </text>
<text text-anchor="start" x="371.5" y="-344.6" font-family="Calibri" font-weight="bold" font-size="13.00" fill="#8b4513">4</text>
</a>
</g>
<g id="a_state_4_item_1"><a xlink:href="#" xlink:title="state_4_item_1">
<text text-anchor="start" x="320.5" y="-323.8" font-family="Times,serif" font-size="14.00" fill="#bc1f29">E&#39; </text>
<text text-anchor="start" x="336.5" y="-323.8" font-family="Times,serif" font-size="14.00" fill="#0a5040">→ </text>
<text text-anchor="start" x="355.5" y="-323.8" font-family="Times,serif" font-size="14.00" fill="#bc1f29"> E</text>
<text text-anchor="start" x="368.5" y="-323.8" font-family="Times,serif" font-size="14.00" fill="#0a5040"> $</text>
<text text-anchor="start" x="380.5" y="-323.8" font-family="Times,serif" font-size="14.00" fill="#f5a70a"> •</text>
</a>
</g>
</g>
<!-- state_2&#45;&gt;state_4 -->
<g id="trans_3" class="edge">
<title>state_2&#45;&gt;state_4</title>
<path fill="none" stroke="#b8860b" stroke-width="1.5" d="M254.7761,-275.557C260.7611,-280.6304 266.9079,-285.5485 273,-290 280.4284,-295.4279 288.5392,-300.7231 296.6816,-305.6853"/>
<polygon fill="#b8860b" stroke="#b8860b" stroke-width="1.5" points="295.1149,-308.8257 305.4987,-310.9298 298.6934,-302.8095 295.1149,-308.8257"/>
<text text-anchor="start" x="273.5" y="-302.8" font-family="Times,serif" font-size="14.00" fill="#0a5040"> $</text>
</g>
<!-- state_5&#45;&gt;state_3 -->
<g id="trans_7" class="edge">
<title>state_5&#45;&gt;state_3</title>
<path fill="none" stroke="#b8860b" stroke-width="1.5" d="M407.1961,-134.8791C423.4564,-127.8387 441.6914,-120.8048 459,-116 565.0895,-86.55 694.69,-81.4589 766.3368,-81.1968"/>
<polygon fill="#b8860b" stroke="#b8860b" stroke-width="1.5" points="766.4795,-84.6968 776.4774,-81.1909 766.4753,-77.6968 766.4795,-84.6968"/>
<text text-anchor="start" x="580" y="-96.8" font-family="Times,serif" font-size="14.00" fill="#0a5040"> id</text>
</g>
<!-- state_7 -->
<g id="state_7" class="node">
<title>state_7</title>
<path fill="#f5f5dc" stroke="#b8860b" stroke-width="1.5" stroke-dasharray="5,2" d="M550,-247.5C550,-247.5 471,-247.5 471,-247.5 465,-247.5 459,-241.5 459,-235.5 459,-235.5 459,-160.5 459,-160.5 459,-154.5 465,-148.5 471,-148.5 471,-148.5 550,-148.5 550,-148.5 556,-148.5 562,-154.5 562,-160.5 562,-160.5 562,-235.5 562,-235.5 562,-241.5 556,-247.5 550,-247.5"/>
<g id="a_state_7_title"><a xlink:href="#" xlink:title="state_7_title">
<text text-anchor="start" x="488" y="-226.6" font-family="Calibri" font-weight="bold" font-size="13.00" fill="#8b4513">Estado </text>
<text text-anchor="start" x="527" y="-226.6" font-family="Calibri" font-weight="bold" font-size="13.00" fill="#8b4513">7</text>
</a>
</g>
<g id="a_state_7_item_1"><a xlink:href="#" xlink:title="state_7_item_1">
<text text-anchor="start" x="470.5" y="-205.8" font-family="Times,serif" font-size="14.00" fill="#bc1f29">E </text>
<text text-anchor="start" x="483.5" y="-205.8" font-family="Times,serif" font-size="14.00" fill="#0a5040">→ </text>
<text text-anchor="start" x="502.5" y="-205.8" font-family="Times,serif" font-size="14.00" fill="#bc1f29"> E</text>
<text text-anchor="start" x="515.5" y="-205.8" font-family="Times,serif" font-size="14.00" fill="#0a5040"> +</text>
<text text-anchor="start" x="528.5" y="-205.8" font-family="Times,serif" font-size="14.00" fill="#bc1f29"> E</text>
<text text-anchor="start" x="541.5" y="-205.8" font-family="Times,serif" font-size="14.00" fill="#f5a70a"> •</text>
</a>
</g>
<g id="a_state_7_item_2"><a xlink:href="#" xlink:title="state_7_item_2">
<text text-anchor="start" x="470.5" y="-184.8" font-family="Times,serif" font-size="14.00" fill="#bc1f29">E </text>
<text text-anchor="start" x="483.5" y="-184.8" font-family="Times,serif" font-size="14.00" fill="#0a5040">→ </text>
<text text-anchor="start" x="502.5" y="-184.8" font-family="Times,serif" font-size="14.00" fill="#bc1f29"> E</text>
<text text-anchor="start" x="515.5" y="-184.8" font-family="Times,serif" font-size="14.00" fill="#f5a70a"> •</text>
<text text-anchor="start" x="525.5" y="-184.8" font-family="Times,serif" font-size="14.00" fill="#0a5040"> +</text>
<text text-anchor="start" x="538.5" y="-184.8" font-family="Times,serif" font-size="14.00" fill="#bc1f29"> E</text>
</a>
</g>
<g id="a_state_7_item_3"><a xlink:href="#" xlink:title="state_7_item_3">
<text text-anchor="start" x="470.5" y="-163.8" font-family="Times,serif" font-size="14.00" fill="#bc1f29">E </text>
<text text-anchor="start" x="483.5" y="-163.8" font-family="Times,serif" font-size="14.00" fill="#0a5040">→ </text>
<text text-anchor="start" x="502.5" y="-163.8" font-family="Times,serif" font-size="14.00" fill="#bc1f29"> E</text>
<text text-anchor="start" x="515.5" y="-163.8" font-family="Times,serif" font-size="14.00" fill="#f5a70a"> •</text>
<text text-anchor="start" x="525.5" y="-163.8" font-family="Times,serif" font-size="14.00" fill="#0a5040"> *</text>
<text text-anchor="start" x="537.5" y="-163.8" font-family="Times,serif" font-size="14.00" fill="#bc1f29"> E</text>
</a>
</g>
</g>
<!-- state_5&#45;&gt;state_7 -->
<g id="trans_6" class="edge">
<title>state_5&#45;&gt;state_7</title>
<path fill="none" stroke="#b8860b" stroke-width="1.5" d="M407.1128,-172.6534C420.5063,-175.937 435.0652,-179.5063 448.9155,-182.9019"/>
<polygon fill="#b8860b" stroke="#b8860b" stroke-width="1.5" points="448.3027,-186.3552 458.8485,-185.3371 449.9696,-179.5566 448.3027,-186.3552"/>
<text text-anchor="start" x="426.5" y="-184.8" font-family="Times,serif" font-size="14.00" fill="#bc1f29"> E</text>
</g>
<!-- state_6&#45;&gt;state_3 -->
<g id="trans_9" class="edge">
<title>state_6&#45;&gt;state_3</title>
<path fill="none" stroke="#b8860b" stroke-width="1.5" d="M717.1128,-166.0438C734.9832,-151.5169 754.9283,-135.3034 772.4966,-121.0221"/>
<polygon fill="#b8860b" stroke="#b8860b" stroke-width="1.5" points="774.8333,-123.6331 780.3852,-114.6094 770.4178,-118.2014 774.8333,-123.6331"/>
<text text-anchor="start" x="735" y="-152.8" font-family="Times,serif" font-size="14.00" fill="#0a5040"> id</text>
</g>
<!-- state_8 -->
<g id="state_8" class="node">
<title>state_8</title>
<path fill="#f5f5dc" stroke="#b8860b" stroke-width="1.5" stroke-dasharray="5,2" d="M860,-240.5C860,-240.5 781,-240.5 781,-240.5 775,-240.5 769,-234.5 769,-228.5 769,-228.5 769,-153.5 769,-153.5 769,-147.5 775,-141.5 781,-141.5 781,-141.5 860,-141.5 860,-141.5 866,-141.5 872,-147.5 872,-153.5 872,-153.5 872,-228.5 872,-228.5 872,-234.5 866,-240.5 860,-240.5"/>
<g id="a_state_8_title"><a xlink:href="#" xlink:title="state_8_title">
<text text-anchor="start" x="798" y="-219.6" font-family="Calibri" font-weight="bold" font-size="13.00" fill="#8b4513">Estado </text>
<text text-anchor="start" x="837" y="-219.6" font-family="Calibri" font-weight="bold" font-size="13.00" fill="#8b4513">8</text>
</a>
</g>
<g id="a_state_8_item_1"><a xlink:href="#" xlink:title="state_8_item_1">
<text text-anchor="start" x="780.5" y="-198.8" font-family="Times,serif" font-size="14.00" fill="#bc1f29">E </text>
<text text-anchor="start" x="793.5" y="-198.8" font-family="Times,serif" font-size="14.00" fill="#0a5040">→ </text>
<text text-anchor="start" x="812.5" y="-198.8" font-family="Times,serif" font-size="14.00" fill="#bc1f29"> E</text>
<text text-anchor="start" x="825.5" y="-198.8" font-family="Times,serif" font-size="14.00" fill="#0a5040"> *</text>
<text text-anchor="start" x="837.5" y="-198.8" font-family="Times,serif" font-size="14.00" fill="#bc1f29"> E</text>
<text text-anchor="start" x="850.5" y="-198.8" font-family="Times,serif" font-size="14.00" fill="#f5a70a"> •</text>
</a>
</g>
<g id="a_state_8_item_2"><a xlink:href="#" xlink:title="state_8_item_2">
<text text-anchor="start" x="780.5" y="-177.8" font-family="Times,serif" font-size="14.00" fill="#bc1f29">E </text>
<text text-anchor="start" x="793.5" y="-177.8" font-family="Times,serif" font-size="14.00" fill="#0a5040">→ </text>
<text text-anchor="start" x="812.5" y="-177.8" font-family="Times,serif" font-size="14.00" fill="#bc1f29"> E</text>
<text text-anchor="start" x="825.5" y="-177.8" font-family="Times,serif" font-size="14.00" fill="#f5a70a"> •</text>
<text text-anchor="start" x="835.5" y="-177.8" font-family="Times,serif" font-size="14.00" fill="#0a5040"> +</text>
<text text-anchor="start" x="848.5" y="-177.8" font-family="Times,serif" font-size="14.00" fill="#bc1f29"> E</text>
</a>
</g>
<g id="a_state_8_item_3"><a xlink:href="#" xlink:title="state_8_item_3">
<text text-anchor="start" x="780.5" y="-156.8" font-family="Times,serif" font-size="14.00" fill="#bc1f29">E </text>
<text text-anchor="start" x="793.5" y="-156.8" font-family="Times,serif" font-size="14.00" fill="#0a5040">→ </text>
<text text-anchor="start" x="812.5" y="-156.8" font-family="Times,serif" font-size="14.00" fill="#bc1f29"> E</text>
<text text-anchor="start" x="825.5" y="-156.8" font-family="Times,serif" font-size="14.00" fill="#f5a70a"> •</text>
<text text-anchor="start" x="835.5" y="-156.8" font-family="Times,serif" font-size="14.00" fill="#0a5040"> *</text>
<text text-anchor="start" x="847.5" y="-156.8" font-family="Times,serif" font-size="14.00" fill="#bc1f29"> E</text>
</a>
</g>
</g>
<!-- state_6&#45;&gt;state_8 -->
<g id="trans_8" class="edge">
<title>state_6&#45;&gt;state_8</title>
<path fill="none" stroke="#b8860b" stroke-width="1.5" d="M717.1589,-209.1796C728.3468,-208.9376 740.0925,-208.304 751,-207 753.528,-206.6978 756.0982,-206.3409 758.6876,-205.9401"/>
<polygon fill="#b8860b" stroke="#b8860b" stroke-width="1.5" points="759.4672,-209.3572 768.7215,-204.1989 758.2703,-202.4602 759.4672,-209.3572"/>
<text text-anchor="start" x="736.5" y="-212.8" font-family="Times,serif" font-size="14.00" fill="#bc1f29"> E</text>
</g>
<!-- state_7&#45;&gt;state_5 -->
<g id="trans_10" class="edge">
<title>state_7&#45;&gt;state_5</title>
<path fill="none" stroke="#b8860b" stroke-width="1.5" d="M458.9639,-165.4006C453.0773,-162.8007 447.0237,-160.5746 441,-159 433.4262,-157.0202 425.3446,-155.8985 417.2859,-155.3653"/>
<polygon fill="#b8860b" stroke="#b8860b" stroke-width="1.5" points="417.2545,-151.8618 407.1303,-154.9845 416.9921,-158.8569 417.2545,-151.8618"/>
<text text-anchor="start" x="426.5" y="-162.8" font-family="Times,serif" font-size="14.00" fill="#0a5040"> +</text>
</g>
<!-- state_7&#45;&gt;state_6 -->
<g id="trans_11" class="edge">
<title>state_7&#45;&gt;state_6</title>
<path fill="none" stroke="#b8860b" stroke-width="1.5" d="M562.1128,-201.3299C575.3763,-202.1856 589.7827,-203.115 603.5119,-204.0008"/>
<polygon fill="#b8860b" stroke="#b8860b" stroke-width="1.5" points="603.6439,-207.5165 613.8485,-204.6676 604.0947,-200.531 603.6439,-207.5165"/>
<text text-anchor="start" x="582" y="-207.8" font-family="Times,serif" font-size="14.00" fill="#0a5040"> *</text>
</g>
<!-- state_8&#45;&gt;state_5 -->
<g id="trans_12" class="edge">
<title>state_8&#45;&gt;state_5</title>
<path fill="none" stroke="#b8860b" stroke-width="1.5" d="M768.6561,-146.0873C762.9654,-142.8365 757.038,-140.0396 751,-138 637.9104,-99.7996 496.3554,-123.5154 416.9262,-142.7468"/>
<polygon fill="#b8860b" stroke="#b8860b" stroke-width="1.5" points="415.9481,-139.3832 407.0827,-145.1846 417.6309,-146.178 415.9481,-139.3832"/>
<text text-anchor="start" x="581.5" y="-122.8" font-family="Times,serif" font-size="14.00" fill="#0a5040"> +</text>
</g>
<!-- state_8&#45;&gt;state_6 -->
<g id="trans_13" class="edge">
<title>state_8&#45;&gt;state_6</title>
<path fill="none" stroke="#b8860b" stroke-width="1.5" d="M768.8047,-186.2799C757.619,-186.0683 745.8834,-186.4652 735,-188 732.3522,-188.3734 729.664,-188.8231 726.9604,-189.3338"/>
<polygon fill="#b8860b" stroke="#b8860b" stroke-width="1.5" points="726.2003,-185.9171 717.1483,-191.4226 727.6579,-192.7637 726.2003,-185.9171"/>
<text text-anchor="start" x="737" y="-191.8" font-family="Times,serif" font-size="14.00" fill="#0a5040"> *</text>
</g>
</g>
</svg>
