<?xml version="1.0" encoding="UTF-8" standalone="no"?>
<!DOCTYPE svg PUBLIC "-//W3C//DTD SVG 1.1//EN"
 "http://www.w3.org/Graphics/SVG/1.1/DTD/svg11.dtd">
<!-- Generated by graphviz version 2.40.1 (20161225.0304)
 -->
<!-- Title: DFA Pages: 1 -->
<svg width="731pt" height="465pt"
 viewBox="0.00 0.00 731.00 464.50" xmlns="http://www.w3.org/2000/svg" xmlns:xlink="http://www.w3.org/1999/xlink">
<g id="graph0" class="graph" transform="scale(1 1) rotate(0) translate(4 460.5)">
<title>DFA</title>
<!-- state_1 -->
<g id="state_1" class="node">
<title>state_1</title>
<path fill="#fffff0" stroke="#b8860b" stroke-width="1.5" d="M92,-306.5C92,-306.5 12,-306.5 12,-306.5 6,-306.5 0,-300.5 0,-294.5 0,-294.5 0,-156.5 0,-156.5 0,-150.5 6,-144.5 12,-144.5 12,-144.5 92,-144.5 92,-144.5 98,-144.5 104,-150.5 104,-156.5 104,-156.5 104,-294.5 104,-294.5 104,-300.5 98,-306.5 92,-306.5"/>
<g id="a_state_1_title"><a xlink:href="#" xlink:title="state_1_title">
<text text-anchor="start" x="29" y="-286.1" font-family="Calibri" font-weight="bold" font-size="13.00" fill="#8b4513">Estado </text>
<text text-anchor="start" x="68" y="-286.1" font-family="Calibri" font-weight="bold" font-size="13.00" fill="#8b4513">1</text>
</a>
</g>
<g id="a_state_1_item_1"><a xlink:href="#" xlink:title="state_1_item_1">
<text text-anchor="start" x="11" y="-265.3" font-family="Times,serif" font-size="14.00" fill="#bc1f29">E&#39; </text>
<text text-anchor="start" x="27" y="-265.3" font-family="Times,serif" font-size="14.00" fill="#0a5040">→ </text>
<text text-anchor="start" x="46" y="-265.3" font-family="Times,serif" font-size="14.00" fill="#f5a70a"> •</text>
<text text-anchor="start" x="56" y="-265.3" font-family="Times,serif" font-size="14.00" fill="#bc1f29"> E</text>
<text text-anchor="start" x="69" y="-265.3" font-family="Times,serif" font-size="14.00" fill="#0a5040"> $</text>
</a>
</g>
<g id="a_state_1_item_2"><a xlink:href="#" xlink:title="state_1_item_2">
<text text-anchor="start" x="11" y="-244.3" font-family="Times,serif" font-size="14.00" fill="#bc1f29">E </text>
<text text-anchor="start" x="24" y="-244.3" font-family="Times,serif" font-size="14.00" fill="#0a5040">→ </text>
<text text-anchor="start" x="43" y="-244.3" font-family="Times,serif" font-size="14.00" fill="#f5a70a"> •</text>
<text text-anchor="start" x="53" y="-244.3" font-family="Times,serif" font-size="14.00" fill="#bc1f29"> L</text>
<text text-anchor="start" x="66" y="-244.3" font-family="Times,serif" font-size="14.00" fill="#0a5040"> =</text>
<text text-anchor="start" x="79" y="-244.3" font-family="Times,serif" font-size="14.00" fill="#bc1f29"> R</text>
</a>
</g>
<g id="a_state_1_item_3"><a xlink:href="#" xlink:title="state_1_item_3">
<text text-anchor="start" x="11" y="-223.3" font-family="Times,serif" font-size="14.00" fill="#bc1f29">E </text>
<text text-anchor="start" x="24" y="-223.3" font-family="Times,serif" font-size="14.00" fill="#0a5040">→ </text>
<text text-anchor="start" x="43" y="-223.3" font-family="Times,serif" font-size="14.00" fill="#f5a70a"> •</text>
<text text-anchor="start" x="53" y="-223.3" font-family="Times,serif" font-size="14.00" fill="#bc1f29"> R</text>
</a>
</g>
<g id="a_state_1_item_4"><a xlink:href="#" xlink:title="state_1_item_4">
<text text-anchor="start" x="11" y="-202.3" font-family="Times,serif" font-size="14.00" fill="#bc1f29">L </text>
<text text-anchor="start" x="24" y="-202.3" font-family="Times,serif" font-size="14.00" fill="#0a5040">→ </text>
<text text-anchor="start" x="43" y="-202.3" font-family="Times,serif" font-size="14.00" fill="#f5a70a"> •</text>
<text text-anchor="start" x="53" y="-202.3" font-family="Times,serif" font-size="14.00" fill="#0a5040"> *</text>
<text text-anchor="start" x="65" y="-202.3" font-family="Times,serif" font-size="14.00" fill="#bc1f29"> R</text>
</a>
</g>
<g id="a_state_1_item_5"><a xlink:href="#" xlink:title="state_1_item_5">
<text text-anchor="start" x="11" y="-181.3" font-family="Times,serif" font-size="14.00" fill="#bc1f29">L </text>
<text text-anchor="start" x="24" y="-181.3" font-family="Times,serif" font-size="14.00" fill="#0a5040">→ </text>
<text text-anchor="start" x="43" y="-181.3" font-family="Times,serif" font-size="14.00" fill="#f5a70a"> •</text>
<text text-anchor="start" x="53" y="-181.3" font-family="Times,serif" font-size="14.00" fill="#0a5040"> id</text>
</a>
</g>
<g id="a_state_1_item_6"><a xlink:href="#" xlink:title="state_1_item_6">
<text text-anchor="start" x="11" y="-160.3" font-family="Times,serif" font-size="14.00" fill="#bc1f29">R </text>
<text text-anchor="start" x="25" y="-160.3" font-family="Times,serif" font-size="14.00" fill="#0a5040">→ </text>
<text text-anchor="start" x="44" y="-160.3" font-family="Times,serif" font-size="14.00" fill="#f5a70a"> •</text>
<text text-anchor="start" x="54" y="-160.3" font-family="Times,serif" font-size="14.00" fill="#bc1f29"> L</text>
</a>
</g>
</g>
<!-- state_2 -->
<g id="state_2" class="node">
<title>state_2</title>
<path fill="#fffff0" stroke="#b8860b" stroke-width="1.5" d="M240,-432C240,-432 172,-432 172,-432 166,-432 160,-426 160,-420 160,-420 160,-387 160,-387 160,-381 166,-375 172,-375 172,-375 240,-375 240,-375 246,-375 252,-381 252,-387 252,-387 252,-420 252,-420 252,-426 246,-432 240,-432"/>
<g id="a_state_2_title"><a xlink:href="#" xlink:title="state_2_title">
<text text-anchor="start" x="183" y="-411.1" font-family="Calibri" font-weight="bold" font-size="13.00" fill="#8b4513">Estado </text>
<text text-anchor="start" x="222" y="-411.1" font-family="Calibri" font-weight="bold" font-size="13.00" fill="#8b4513">2</text>
</a>
</g>
<g id="a_state_2_item_1"><a xlink:href="#" xlink:title="state_2_item_1">
<text text-anchor="start" x="171" y="-390.3" font-family="Times,serif" font-size="14.00" fill="#bc1f29">E&#39; </text>
<text text-anchor="start" x="187" y="-390.3" font-family="Times,serif" font-size="14.00" fill="#0a5040">→ </text>
<text text-anchor="start" x="206" y="-390.3" font-family="Times,serif" font-size="14.00" fill="#bc1f29"> E</text>
<text text-anchor="start" x="219" y="-390.3" font-family="Times,serif" font-size="14.00" fill="#f5a70a"> •</text>
<text text-anchor="start" x="229" y="-390.3" font-family="Times,serif" font-size="14.00" fill="#0a5040"> $</text>
</a>
</g>
</g>
<!-- state_1&#45;&gt;state_2 -->
<g id="trans_1" class="edge">
<title>state_1&#45;&gt;state_2</title>
<path fill="none" stroke="#b8860b" stroke-width="1.5" d="M84.9116,-306.6463C94.9429,-325.1418 107.2937,-343.6855 122,-358.5 130.3774,-366.939 140.6722,-374.1866 151.1473,-380.2465"/>
<polygon fill="#b8860b" stroke="#b8860b" stroke-width="1.5" points="149.4971,-383.3332 159.9507,-385.0575 152.8541,-377.1906 149.4971,-383.3332"/>
<text text-anchor="start" x="122.5" y="-373.3" font-family="Times,serif" font-size="14.00" fill="#bc1f29"> E</text>
</g>
<!-- state_5 -->
<g id="state_5" class="node">
<title>state_5</title>
<path fill="#fffff0" stroke="#b8860b" stroke-width="1.5" d="M550,-376.5C550,-376.5 484,-376.5 484,-376.5 478,-376.5 472,-370.5 472,-364.5 472,-364.5 472,-268.5 472,-268.5 472,-262.5 478,-256.5 484,-256.5 484,-256.5 550,-256.5 550,-256.5 556,-256.5 562,-262.5 562,-268.5 562,-268.5 562,-364.5 562,-364.5 562,-370.5 556,-376.5 550,-376.5"/>
<g id="a_state_5_title"><a xlink:href="#" xlink:title="state_5_title">
<text text-anchor="start" x="494" y="-356.1" font-family="Calibri" font-weight="bold" font-size="13.00" fill="#8b4513">Estado </text>
<text text-anchor="start" x="533" y="-356.1" font-family="Calibri" font-weight="bold" font-size="13.00" fill="#8b4513">5</text>
</a>
</g>
<g id="a_state_5_item_1"><a xlink:href="#" xlink:title="state_5_item_1">
<text text-anchor="start" x="483" y="-335.3" font-family="Times,serif" font-size="14.00" fill="#bc1f29">L </text>
<text text-anchor="start" x="496" y="-335.3" font-family="Times,serif" font-size="14.00" fill="#0a5040">→ </text>
<text text-anchor="start" x="515" y="-335.3" font-family="Times,serif" font-size="14.00" fill="#0a5040"> *</text>
<text text-anchor="start" x="527" y="-335.3" font-family="Times,serif" font-size="14.00" fill="#f5a70a"> •</text>
<text text-anchor="start" x="537" y="-335.3" font-family="Times,serif" font-size="14.00" fill="#bc1f29"> R</text>
</a>
</g>
<g id="a_state_5_item_2"><a xlink:href="#" xlink:title="state_5_item_2">
<text text-anchor="start" x="483" y="-314.3" font-family="Times,serif" font-size="14.00" fill="#bc1f29">R </text>
<text text-anchor="start" x="497" y="-314.3" font-family="Times,serif" font-size="14.00" fill="#0a5040">→ </text>
<text text-anchor="start" x="516" y="-314.3" font-family="Times,serif" font-size="14.00" fill="#f5a70a"> •</text>
<text text-anchor="start" x="526" y="-314.3" font-family="Times,serif" font-size="14.00" fill="#bc1f29"> L</text>
</a>
</g>
<g id="a_state_5_item_3"><a xlink:href="#" xlink:title="state_5_item_3">
<text text-anchor="start" x="483" y="-293.3" font-family="Times,serif" font-size="14.00" fill="#bc1f29">L </text>
<text text-anchor="start" x="496" y="-293.3" font-family="Times,serif" font-size="14.00" fill="#0a5040">→ </text>
<text text-anchor="start" x="515" y="-293.3" font-family="Times,serif" font-size="14.00" fill="#f5a70a"> •</text>
<text text-anchor="start" x="525" y="-293.3" font-family="Times,serif" font-size="14.00" fill="#0a5040"> *</text>
<text text-anchor="start" x="537" y="-293.3" font-family="Times,serif" font-size="14.00" fill="#bc1f29"> R</text>
</a>
</g>
<g id="a_state_5_item_4"><a xlink:href="#" xlink:title="state_5_item_4">
<text text-anchor="start" x="483" y="-272.3" font-family="Times,serif" font-size="14.00" fill="#bc1f29">L </text>
<text text-anchor="start" x="496" y="-272.3" font-family="Times,serif" font-size="14.00" fill="#0a5040">→ </text>
<text text-anchor="start" x="515" y="-272.3" font-family="Times,serif" font-size="14.00" fill="#f5a70a"> •</text>
<text text-anchor="start" x="525" y="-272.3" font-family="Times,serif" font-size="14.00" fill="#0a5040"> id</text>
</a>
</g>
</g>
<!-- state_1&#45;&gt;state_5 -->
<g id="trans_4" class="edge">
<title>state_1&#45;&gt;state_5</title>
<path fill="none" stroke="#b8860b" stroke-width="1.5" d="M104.0037,-253.6853C119.6874,-261.1588 137.2059,-268.5227 154,-273.5 259.8379,-304.8671 389.4392,-313.4604 461.6469,-315.7466"/>
<polygon fill="#b8860b" stroke="#b8860b" stroke-width="1.5" points="461.7781,-319.2517 471.8744,-316.0401 461.979,-312.2546 461.7781,-319.2517"/>
<text text-anchor="start" x="276.5" y="-304.3" font-family="Times,serif" font-size="14.00" fill="#0a5040"> *</text>
</g>
<!-- state_4 -->
<g id="state_4" class="node">
<title>state_4</title>
<path fill="#fffff0" stroke="#b8860b" stroke-width="1.5" d="M233,-61C233,-61 179,-61 179,-61 173,-61 167,-55 167,-49 167,-49 167,-16 167,-16 167,-10 173,-4 179,-4 179,-4 233,-4 233,-4 239,-4 245,-10 245,-16 245,-16 245,-49 245,-49 245,-55 239,-61 233,-61"/>
<path fill="none" stroke="#b8860b" stroke-width="1.5" d="M237,-65C237,-65 175,-65 175,-65 169,-65 163,-59 163,-53 163,-53 163,-12 163,-12 163,-6 169,0 175,0 175,0 237,0 237,0 243,0 249,-6 249,-12 249,-12 249,-53 249,-53 249,-59 243,-65 237,-65"/>
<g id="a_state_4_title"><a xlink:href="#" xlink:title="state_4_title">
<text text-anchor="start" x="183" y="-40.1" font-family="Calibri" font-weight="bold" font-size="13.00" fill="#8b4513">Estado </text>
<text text-anchor="start" x="222" y="-40.1" font-family="Calibri" font-weight="bold" font-size="13.00" fill="#8b4513">4</text>
</a>
</g>
<g id="a_state_4_item_1"><a xlink:href="#" xlink:title="state_4_item_1">
<text text-anchor="start" x="178" y="-19.3" font-family="Times,serif" font-size="14.00" fill="#bc1f29">E </text>
<text text-anchor="start" x="191" y="-19.3" font-family="Times,serif" font-size="14.00" fill="#0a5040">→ </text>
<text text-anchor="start" x="210" y="-19.3" font-family="Times,serif" font-size="14.00" fill="#bc1f29"> R</text>
<text text-anchor="start" x="224" y="-19.3" font-family="Times,serif" font-size="14.00" fill="#f5a70a"> •</text>
</a>
</g>
</g>
<!-- state_1&#45;&gt;state_4 -->
<g id="trans_3" class="edge">
<title>state_1&#45;&gt;state_4</title>
<path fill="none" stroke="#b8860b" stroke-width="1.5" d="M73.1077,-144.1184C83.8359,-115.8901 99.5157,-85.9699 122,-64.5 130.7294,-56.1644 141.8516,-49.9446 153.1238,-45.3231"/>
<polygon fill="#b8860b" stroke="#b8860b" stroke-width="1.5" points="154.4266,-48.5728 162.5785,-41.8055 151.9857,-42.0122 154.4266,-48.5728"/>
<text text-anchor="start" x="122" y="-68.3" font-family="Times,serif" font-size="14.00" fill="#bc1f29"> R</text>
</g>
<!-- state_6 -->
<g id="state_6" class="node">
<title>state_6</title>
<path fill="#fffff0" stroke="#b8860b" stroke-width="1.5" d="M702,-252C702,-252 646,-252 646,-252 640,-252 634,-246 634,-240 634,-240 634,-207 634,-207 634,-201 640,-195 646,-195 646,-195 702,-195 702,-195 708,-195 714,-201 714,-207 714,-207 714,-240 714,-240 714,-246 708,-252 702,-252"/>
<path fill="none" stroke="#b8860b" stroke-width="1.5" d="M706,-256C706,-256 642,-256 642,-256 636,-256 630,-250 630,-244 630,-244 630,-203 630,-203 630,-197 636,-191 642,-191 642,-191 706,-191 706,-191 712,-191 718,-197 718,-203 718,-203 718,-244 718,-244 718,-250 712,-256 706,-256"/>
<g id="a_state_6_title"><a xlink:href="#" xlink:title="state_6_title">
<text text-anchor="start" x="651" y="-231.1" font-family="Calibri" font-weight="bold" font-size="13.00" fill="#8b4513">Estado </text>
<text text-anchor="start" x="690" y="-231.1" font-family="Calibri" font-weight="bold" font-size="13.00" fill="#8b4513">6</text>
</a>
</g>
<g id="a_state_6_item_1"><a xlink:href="#" xlink:title="state_6_item_1">
<text text-anchor="start" x="645" y="-210.3" font-family="Times,serif" font-size="14.00" fill="#bc1f29">L </text>
<text text-anchor="start" x="658" y="-210.3" font-family="Times,serif" font-size="14.00" fill="#0a5040">→ </text>
<text text-anchor="start" x="677" y="-210.3" font-family="Times,serif" font-size="14.00" fill="#0a5040"> id</text>
<text text-anchor="start" x="693" y="-210.3" font-family="Times,serif" font-size="14.00" fill="#f5a70a"> •</text>
</a>
</g>
</g>
<!-- state_1&#45;&gt;state_6 -->
<g id="trans_5" class="edge">
<title>state_1&#45;&gt;state_6</title>
<path fill="none" stroke="#b8860b" stroke-width="1.5" d="M104.1818,-149.0973C130.6209,-119.9061 165.6805,-93.5 206,-93.5 206,-93.5 206,-93.5 517,-93.5 573.5879,-93.5 620.7386,-144.2218 648.163,-182.3002"/>
<polygon fill="#b8860b" stroke="#b8860b" stroke-width="1.5" points="645.4391,-184.5122 654.0424,-190.6955 651.1729,-180.4967 645.4391,-184.5122"/>
<text text-anchor="start" x="351" y="-97.3" font-family="Times,serif" font-size="14.00" fill="#0a5040"> id</text>
</g>
<!-- state_3 -->
<g id="state_3" class="node">
<title>state_3</title>
<path fill="#f5f5dc" stroke="#b8860b" stroke-width="1.5" stroke-dasharray="5,2" d="M246,-264.5C246,-264.5 166,-264.5 166,-264.5 160,-264.5 154,-258.5 154,-252.5 154,-252.5 154,-198.5 154,-198.5 154,-192.5 160,-186.5 166,-186.5 166,-186.5 246,-186.5 246,-186.5 252,-186.5 258,-192.5 258,-198.5 258,-198.5 258,-252.5 258,-252.5 258,-258.5 252,-264.5 246,-264.5"/>
<g id="a_state_3_title"><a xlink:href="#" xlink:title="state_3_title">
<text text-anchor="start" x="183" y="-244.1" font-family="Calibri" font-weight="bold" font-size="13.00" fill="#8b4513">Estado </text>
<text text-anchor="start" x="222" y="-244.1" font-family="Calibri" font-weight="bold" font-size="13.00" fill="#8b4513">3</text>
</a>
</g>
<g id="a_state_3_item_1"><a xlink:href="#" xlink:title="state_3_item_1">
<text text-anchor="start" x="165" y="-223.3" font-family="Times,serif" font-size="14.00" fill="#bc1f29">E </text>
<text text-anchor="start" x="178" y="-223.3" font-family="Times,serif" font-size="14.00" fill="#0a5040">→ </text>
<text text-anchor="start" x="197" y="-223.3" font-family="Times,serif" font-size="14.00" fill="#bc1f29"> L</text>
<text text-anchor="start" x="210" y="-223.3" font-family="Times,serif" font-size="14.00" fill="#f5a70a"> •</text>
<text text-anchor="start" x="220" y="-223.3" font-family="Times,serif" font-size="14.00" fill="#0a5040"> =</text>
<text text-anchor="start" x="233" y="-223.3" font-family="Times,serif" font-size="14.00" fill="#bc1f29"> R</text>
</a>
</g>
<g id="a_state_3_item_2"><a xlink:href="#" xlink:title="state_3_item_2">
<text text-anchor="start" x="165" y="-202.3" font-family="Times,serif" font-size="14.00" fill="#bc1f29">R </text>
<text text-anchor="start" x="179" y="-202.3" font-family="Times,serif" font-size="14.00" fill="#0a5040">→ </text>
<text text-anchor="start" x="198" y="-202.3" font-family="Times,serif" font-size="14.00" fill="#bc1f29"> L</text>
<text text-anchor="start" x="211" y="-202.3" font-family="Times,serif" font-size="14.00" fill="#f5a70a"> •</text>
</a>
</g>
</g>
<!-- state_1&#45;&gt;state_3 -->
<g id="trans_2" class="edge">
<title>state_1&#45;&gt;state_3</title>
<path fill="none" stroke="#b8860b" stroke-width="1.5" d="M104.1374,-225.5C116.8063,-225.5 130.4811,-225.5 143.5726,-225.5"/>
<polygon fill="#b8860b" stroke="#b8860b" stroke-width="1.5" points="143.9164,-229.0001 153.9163,-225.5 143.9163,-222.0001 143.9164,-229.0001"/>
<text text-anchor="start" x="122.5" y="-229.3" font-family="Times,serif" font-size="14.00" fill="#bc1f29"> L</text>
</g>
<!-- state_7 -->
<g id="state_7" class="node">
<title>state_7</title>
<path fill="#fffff0" stroke="#b8860b" stroke-width="1.5" d="M393,-434C393,-434 325,-434 325,-434 319,-434 313,-428 313,-422 313,-422 313,-389 313,-389 313,-383 319,-377 325,-377 325,-377 393,-377 393,-377 399,-377 405,-383 405,-389 405,-389 405,-422 405,-422 405,-428 399,-434 393,-434"/>
<path fill="none" stroke="#b8860b" stroke-width="1.5" d="M397,-438C397,-438 321,-438 321,-438 315,-438 309,-432 309,-426 309,-426 309,-385 309,-385 309,-379 315,-373 321,-373 321,-373 397,-373 397,-373 403,-373 409,-379 409,-385 409,-385 409,-426 409,-426 409,-432 403,-438 397,-438"/>
<g id="a_state_7_title"><a xlink:href="#" xlink:title="state_7_title">
<text text-anchor="start" x="336" y="-413.1" font-family="Calibri" font-weight="bold" font-size="13.00" fill="#8b4513">Estado </text>
<text text-anchor="start" x="375" y="-413.1" font-family="Calibri" font-weight="bold" font-size="13.00" fill="#8b4513">7</text>
</a>
</g>
<g id="a_state_7_item_1"><a xlink:href="#" xlink:title="state_7_item_1">
<text text-anchor="start" x="324" y="-392.3" font-family="Times,serif" font-size="14.00" fill="#bc1f29">E&#39; </text>
<text text-anchor="start" x="340" y="-392.3" font-family="Times,serif" font-size="14.00" fill="#0a5040">→ </text>
<text text-anchor="start" x="359" y="-392.3" font-family="Times,serif" font-size="14.00" fill="#bc1f29"> E</text>
<text text-anchor="start" x="372" y="-392.3" font-family="Times,serif" font-size="14.00" fill="#0a5040"> $</text>
<text text-anchor="start" x="384" y="-392.3" font-family="Times,serif" font-size="14.00" fill="#f5a70a"> •</text>
</a>
</g>
</g>
<!-- state_2&#45;&gt;state_7 -->
<g id="trans_6" class="edge">
<title>state_2&#45;&gt;state_7</title>
<path fill="none" stroke="#b8860b" stroke-width="1.5" d="M252.3202,-404.1055C266.9665,-404.2969 283.3703,-404.5114 298.8393,-404.7136"/>
<polygon fill="#b8860b" stroke="#b8860b" stroke-width="1.5" points="298.7967,-408.2132 308.8417,-404.8443 298.8883,-401.2138 298.7967,-408.2132"/>
<text text-anchor="start" x="276.5" y="-408.3" font-family="Times,serif" font-size="14.00" fill="#0a5040"> $</text>
</g>
<!-- state_5&#45;&gt;state_5 -->
<g id="trans_10" class="edge">
<title>state_5&#45;&gt;state_5</title>
<path fill="none" stroke="#b8860b" stroke-width="1.5" d="M502.9375,-376.6758C504.8125,-387.1875 509.5,-394.5 517,-394.5 521.8047,-394.5 525.4551,-391.4989 527.9513,-386.5783"/>
<polygon fill="#b8860b" stroke="#b8860b" stroke-width="1.5" points="531.4041,-387.2651 531.0625,-376.6758 524.726,-385.1669 531.4041,-387.2651"/>
<text text-anchor="start" x="511" y="-398.3" font-family="Times,serif" font-size="14.00" fill="#0a5040"> *</text>
</g>
<!-- state_5&#45;&gt;state_6 -->
<g id="trans_11" class="edge">
<title>state_5&#45;&gt;state_6</title>
<path fill="none" stroke="#b8860b" stroke-width="1.5" d="M562.4109,-289.6005C580.7053,-278.7638 601.9344,-266.1885 620.9347,-254.9336"/>
<polygon fill="#b8860b" stroke="#b8860b" stroke-width="1.5" points="622.9537,-257.8056 629.7738,-249.6977 619.3861,-251.7829 622.9537,-257.8056"/>
<text text-anchor="start" x="591" y="-273.3" font-family="Times,serif" font-size="14.00" fill="#0a5040"> id</text>
</g>
<!-- state_9 -->
<g id="state_9" class="node">
<title>state_9</title>
<path fill="#fffff0" stroke="#b8860b" stroke-width="1.5" d="M701,-451C701,-451 647,-451 647,-451 641,-451 635,-445 635,-439 635,-439 635,-406 635,-406 635,-400 641,-394 647,-394 647,-394 701,-394 701,-394 707,-394 713,-400 713,-406 713,-406 713,-439 713,-439 713,-445 707,-451 701,-451"/>
<path fill="none" stroke="#b8860b" stroke-width="1.5" d="M705,-455C705,-455 643,-455 643,-455 637,-455 631,-449 631,-443 631,-443 631,-402 631,-402 631,-396 637,-390 643,-390 643,-390 705,-390 705,-390 711,-390 717,-396 717,-402 717,-402 717,-443 717,-443 717,-449 711,-455 705,-455"/>
<g id="a_state_9_title"><a xlink:href="#" xlink:title="state_9_title">
<text text-anchor="start" x="651" y="-430.1" font-family="Calibri" font-weight="bold" font-size="13.00" fill="#8b4513">Estado </text>
<text text-anchor="start" x="690" y="-430.1" font-family="Calibri" font-weight="bold" font-size="13.00" fill="#8b4513">9</text>
</a>
</g>
<g id="a_state_9_item_1"><a xlink:href="#" xlink:title="state_9_item_1">
<text text-anchor="start" x="646" y="-409.3" font-family="Times,serif" font-size="14.00" fill="#bc1f29">R </text>
<text text-anchor="start" x="660" y="-409.3" font-family="Times,serif" font-size="14.00" fill="#0a5040">→ </text>
<text text-anchor="start" x="679" y="-409.3" font-family="Times,serif" font-size="14.00" fill="#bc1f29"> L</text>
<text text-anchor="start" x="692" y="-409.3" font-family="Times,serif" font-size="14.00" fill="#f5a70a"> •</text>
</a>
</g>
</g>
<!-- state_5&#45;&gt;state_9 -->
<g id="trans_8" class="edge">
<title>state_5&#45;&gt;state_9</title>
<path fill="none" stroke="#b8860b" stroke-width="1.5" d="M562.4109,-347.1596C581.1864,-359.836 603.053,-374.5995 622.429,-387.6814"/>
<polygon fill="#b8860b" stroke="#b8860b" stroke-width="1.5" points="620.6028,-390.6714 630.8492,-393.3663 624.5198,-384.8699 620.6028,-390.6714"/>
<text text-anchor="start" x="592.5" y="-379.3" font-family="Times,serif" font-size="14.00" fill="#bc1f29"> L</text>
</g>
<!-- state_10 -->
<g id="state_10" class="node">
<title>state_10</title>
<path fill="#fffff0" stroke="#b8860b" stroke-width="1.5" d="M707,-345C707,-345 641,-345 641,-345 635,-345 629,-339 629,-333 629,-333 629,-300 629,-300 629,-294 635,-288 641,-288 641,-288 707,-288 707,-288 713,-288 719,-294 719,-300 719,-300 719,-333 719,-333 719,-339 713,-345 707,-345"/>
<path fill="none" stroke="#b8860b" stroke-width="1.5" d="M711,-349C711,-349 637,-349 637,-349 631,-349 625,-343 625,-337 625,-337 625,-296 625,-296 625,-290 631,-284 637,-284 637,-284 711,-284 711,-284 717,-284 723,-290 723,-296 723,-296 723,-337 723,-337 723,-343 717,-349 711,-349"/>
<g id="a_state_10_title"><a xlink:href="#" xlink:title="state_10_title">
<text text-anchor="start" x="647.5" y="-324.1" font-family="Calibri" font-weight="bold" font-size="13.00" fill="#8b4513">Estado </text>
<text text-anchor="start" x="686.5" y="-324.1" font-family="Calibri" font-weight="bold" font-size="13.00" fill="#8b4513">10</text>
</a>
</g>
<g id="a_state_10_item_1"><a xlink:href="#" xlink:title="state_10_item_1">
<text text-anchor="start" x="640" y="-303.3" font-family="Times,serif" font-size="14.00" fill="#bc1f29">L </text>
<text text-anchor="start" x="653" y="-303.3" font-family="Times,serif" font-size="14.00" fill="#0a5040">→ </text>
<text text-anchor="start" x="672" y="-303.3" font-family="Times,serif" font-size="14.00" fill="#0a5040"> *</text>
<text text-anchor="start" x="684" y="-303.3" font-family="Times,serif" font-size="14.00" fill="#bc1f29"> R</text>
<text text-anchor="start" x="698" y="-303.3" font-family="Times,serif" font-size="14.00" fill="#f5a70a"> •</text>
</a>
</g>
</g>
<!-- state_5&#45;&gt;state_10 -->
<g id="trans_9" class="edge">
<title>state_5&#45;&gt;state_10</title>
<path fill="none" stroke="#b8860b" stroke-width="1.5" d="M562.4109,-316.5C578.7631,-316.5 597.4601,-316.5 614.8143,-316.5"/>
<polygon fill="#b8860b" stroke="#b8860b" stroke-width="1.5" points="614.8491,-320.0001 624.8491,-316.5 614.8491,-313.0001 614.8491,-320.0001"/>
<text text-anchor="start" x="592" y="-320.3" font-family="Times,serif" font-size="14.00" fill="#bc1f29"> R</text>
</g>
<!-- state_8 -->
<g id="state_8" class="node">
<title>state_8</title>
<path fill="#fffff0" stroke="#b8860b" stroke-width="1.5" d="M399,-285.5C399,-285.5 319,-285.5 319,-285.5 313,-285.5 307,-279.5 307,-273.5 307,-273.5 307,-177.5 307,-177.5 307,-171.5 313,-165.5 319,-165.5 319,-165.5 399,-165.5 399,-165.5 405,-165.5 411,-171.5 411,-177.5 411,-177.5 411,-273.5 411,-273.5 411,-279.5 405,-285.5 399,-285.5"/>
<g id="a_state_8_title"><a xlink:href="#" xlink:title="state_8_title">
<text text-anchor="start" x="336" y="-265.1" font-family="Calibri" font-weight="bold" font-size="13.00" fill="#8b4513">Estado </text>
<text text-anchor="start" x="375" y="-265.1" font-family="Calibri" font-weight="bold" font-size="13.00" fill="#8b4513">8</text>
</a>
</g>
<g id="a_state_8_item_1"><a xlink:href="#" xlink:title="state_8_item_1">
<text text-anchor="start" x="318" y="-244.3" font-family="Times,serif" font-size="14.00" fill="#bc1f29">E </text>
<text text-anchor="start" x="331" y="-244.3" font-family="Times,serif" font-size="14.00" fill="#0a5040">→ </text>
<text text-anchor="start" x="350" y="-244.3" font-family="Times,serif" font-size="14.00" fill="#bc1f29"> L</text>
<text text-anchor="start" x="363" y="-244.3" font-family="Times,serif" font-size="14.00" fill="#0a5040"> =</text>
<text text-anchor="start" x="376" y="-244.3" font-family="Times,serif" font-size="14.00" fill="#f5a70a"> •</text>
<text text-anchor="start" x="386" y="-244.3" font-family="Times,serif" font-size="14.00" fill="#bc1f29"> R</text>
</a>
</g>
<g id="a_state_8_item_2"><a xlink:href="#" xlink:title="state_8_item_2">
<text text-anchor="start" x="318" y="-223.3" font-family="Times,serif" font-size="14.00" fill="#bc1f29">R </text>
<text text-anchor="start" x="332" y="-223.3" font-family="Times,serif" font-size="14.00" fill="#0a5040">→ </text>
<text text-anchor="start" x="351" y="-223.3" font-family="Times,serif" font-size="14.00" fill="#f5a70a"> •</text>
<text text-anchor="start" x="361" y="-223.3" font-family="Times,serif" font-size="14.00" fill="#bc1f29"> L</text>
</a>
</g>
<g id="a_state_8_item_3"><a xlink:href="#" xlink:title="state_8_item_3">
<text text-anchor="start" x="318" y="-202.3" font-family="Times,serif" font-size="14.00" fill="#bc1f29">L </text>
<text text-anchor="start" x="331" y="-202.3" font-family="Times,serif" font-size="14.00" fill="#0a5040">→ </text>
<text text-anchor="start" x="350" y="-202.3" font-family="Times,serif" font-size="14.00" fill="#f5a70a"> •</text>
<text text-anchor="start" x="360" y="-202.3" font-family="Times,serif" font-size="14.00" fill="#0a5040"> *</text>
<text text-anchor="start" x="372" y="-202.3" font-family="Times,serif" font-size="14.00" fill="#bc1f29"> R</text>
</a>
</g>
<g id="a_state_8_item_4"><a xlink:href="#" xlink:title="state_8_item_4">
<text text-anchor="start" x="318" y="-181.3" font-family="Times,serif" font-size="14.00" fill="#bc1f29">L </text>
<text text-anchor="start" x="331" y="-181.3" font-family="Times,serif" font-size="14.00" fill="#0a5040">→ </text>
<text text-anchor="start" x="350" y="-181.3" font-family="Times,serif" font-size="14.00" fill="#f5a70a"> •</text>
<text text-anchor="start" x="360" y="-181.3" font-family="Times,serif" font-size="14.00" fill="#0a5040"> id</text>
</a>
</g>
</g>
<!-- state_8&#45;&gt;state_5 -->
<g id="trans_14" class="edge">
<title>state_8&#45;&gt;state_5</title>
<path fill="none" stroke="#b8860b" stroke-width="1.5" d="M411.173,-255.549C427.7065,-265.0715 446.0189,-275.6185 462.6982,-285.2249"/>
<polygon fill="#b8860b" stroke="#b8860b" stroke-width="1.5" points="461.3624,-288.4946 471.7748,-290.4526 464.8561,-282.4287 461.3624,-288.4946"/>
<text text-anchor="start" x="430" y="-277.3" font-family="Times,serif" font-size="14.00" fill="#0a5040"> *</text>
</g>
<!-- state_8&#45;&gt;state_6 -->
<g id="trans_15" class="edge">
<title>state_8&#45;&gt;state_6</title>
<path fill="none" stroke="#b8860b" stroke-width="1.5" d="M411.0158,-225.1697C468.5472,-224.8045 560.8309,-224.2185 619.3846,-223.8468"/>
<polygon fill="#b8860b" stroke="#b8860b" stroke-width="1.5" points="619.5744,-227.3457 629.5519,-223.7822 619.5298,-220.3459 619.5744,-227.3457"/>
<text text-anchor="start" x="509" y="-228.3" font-family="Times,serif" font-size="14.00" fill="#0a5040"> id</text>
</g>
<!-- state_8&#45;&gt;state_9 -->
<g id="trans_12" class="edge">
<title>state_8&#45;&gt;state_9</title>
<path fill="none" stroke="#b8860b" stroke-width="1.5" d="M382.8385,-285.7176C404.2842,-336.4693 436.1476,-403.2049 461,-418.5 508.8788,-447.9665 574.9947,-443.8508 620.8107,-435.6443"/>
<polygon fill="#b8860b" stroke="#b8860b" stroke-width="1.5" points="621.6769,-439.0421 630.8408,-433.7248 620.3612,-432.1668 621.6769,-439.0421"/>
<text text-anchor="start" x="510.5" y="-445.3" font-family="Times,serif" font-size="14.00" fill="#bc1f29"> L</text>
</g>
<!-- state_11 -->
<g id="state_11" class="node">
<title>state_11</title>
<path fill="#fffff0" stroke="#b8860b" stroke-width="1.5" d="M557,-183C557,-183 477,-183 477,-183 471,-183 465,-177 465,-171 465,-171 465,-138 465,-138 465,-132 471,-126 477,-126 477,-126 557,-126 557,-126 563,-126 569,-132 569,-138 569,-138 569,-171 569,-171 569,-177 563,-183 557,-183"/>
<path fill="none" stroke="#b8860b" stroke-width="1.5" d="M561,-187C561,-187 473,-187 473,-187 467,-187 461,-181 461,-175 461,-175 461,-134 461,-134 461,-128 467,-122 473,-122 473,-122 561,-122 561,-122 567,-122 573,-128 573,-134 573,-134 573,-175 573,-175 573,-181 567,-187 561,-187"/>
<g id="a_state_11_title"><a xlink:href="#" xlink:title="state_11_title">
<text text-anchor="start" x="490.5" y="-162.1" font-family="Calibri" font-weight="bold" font-size="13.00" fill="#8b4513">Estado </text>
<text text-anchor="start" x="529.5" y="-162.1" font-family="Calibri" font-weight="bold" font-size="13.00" fill="#8b4513">11</text>
</a>
</g>
<g id="a_state_11_item_1"><a xlink:href="#" xlink:title="state_11_item_1">
<text text-anchor="start" x="476" y="-141.3" font-family="Times,serif" font-size="14.00" fill="#bc1f29">E </text>
<text text-anchor="start" x="489" y="-141.3" font-family="Times,serif" font-size="14.00" fill="#0a5040">→ </text>
<text text-anchor="start" x="508" y="-141.3" font-family="Times,serif" font-size="14.00" fill="#bc1f29"> L</text>
<text text-anchor="start" x="521" y="-141.3" font-family="Times,serif" font-size="14.00" fill="#0a5040"> =</text>
<text text-anchor="start" x="534" y="-141.3" font-family="Times,serif" font-size="14.00" fill="#bc1f29"> R</text>
<text text-anchor="start" x="548" y="-141.3" font-family="Times,serif" font-size="14.00" fill="#f5a70a"> •</text>
</a>
</g>
</g>
<!-- state_8&#45;&gt;state_11 -->
<g id="trans_13" class="edge">
<title>state_8&#45;&gt;state_11</title>
<path fill="none" stroke="#b8860b" stroke-width="1.5" d="M411.173,-202.0552C424.0998,-196.2463 438.114,-189.9488 451.585,-183.8954"/>
<polygon fill="#b8860b" stroke="#b8860b" stroke-width="1.5" points="453.1174,-187.044 460.8041,-179.7526 450.2481,-180.659 453.1174,-187.044"/>
<text text-anchor="start" x="429" y="-195.3" font-family="Times,serif" font-size="14.00" fill="#bc1f29"> R</text>
</g>
<!-- state_3&#45;&gt;state_8 -->
<g id="trans_7" class="edge">
<title>state_3&#45;&gt;state_8</title>
<path fill="none" stroke="#b8860b" stroke-width="1.5" d="M258.226,-225.5C270.5897,-225.5 283.8971,-225.5 296.6597,-225.5"/>
<polygon fill="#b8860b" stroke="#b8860b" stroke-width="1.5" points="296.7498,-229.0001 306.7498,-225.5 296.7498,-222.0001 296.7498,-229.0001"/>
<text text-anchor="start" x="276" y="-229.3" font-family="Times,serif" font-size="14.00" fill="#0a5040"> =</text>
</g>
</g>
</svg>
