<?xml version="1.0" encoding="UTF-8" standalone="no"?>
<!DOCTYPE svg PUBLIC "-//W3C//DTD SVG 1.1//EN"
 "http://www.w3.org/Graphics/SVG/1.1/DTD/svg11.dtd">
<!-- Generated by graphviz version 2.40.1 (20161225.0304)
 -->
<!-- Title: DFA Pages: 1 -->
<svg width="1223pt" height="469pt"
 viewBox="0.00 0.00 1223.00 468.50" xmlns="http://www.w3.org/2000/svg" xmlns:xlink="http://www.w3.org/1999/xlink">
<g id="graph0" class="graph" transform="scale(1 1) rotate(0) translate(4 464.5)">
<title>DFA</title>
<!-- state_2 -->
<g id="state_2" class="node">
<title>state_2</title>
<path fill="#fffff0" stroke="#b8860b" stroke-width="1.5" d="M244.5,-451.5C244.5,-451.5 177.5,-451.5 177.5,-451.5 171.5,-451.5 165.5,-445.5 165.5,-439.5 165.5,-439.5 165.5,-406.5 165.5,-406.5 165.5,-400.5 171.5,-394.5 177.5,-394.5 177.5,-394.5 244.5,-394.5 244.5,-394.5 250.5,-394.5 256.5,-400.5 256.5,-406.5 256.5,-406.5 256.5,-439.5 256.5,-439.5 256.5,-445.5 250.5,-451.5 244.5,-451.5"/>
<g id="a_state_2_title"><a xlink:href="#" xlink:title="state_2_title">
<text text-anchor="start" x="188.5" y="-430.6" font-family="Calibri" font-weight="bold" font-size="13.00" fill="#8b4513">Estado </text>
<text text-anchor="start" x="227.5" y="-430.6" font-family="Calibri" font-weight="bold" font-size="13.00" fill="#8b4513">2</text>
</a>
</g>
<g id="a_state_2_item_1"><a xlink:href="#" xlink:title="state_2_item_1">
<text text-anchor="start" x="177" y="-409.8" font-family="Times,serif" font-size="14.00" fill="#bc1f29">S&#39; </text>
<text text-anchor="start" x="192" y="-409.8" font-family="Times,serif" font-size="14.00" fill="#0a5040">→ </text>
<text text-anchor="start" x="211" y="-409.8" font-family="Times,serif" font-size="14.00" fill="#bc1f29"> S</text>
<text text-anchor="start" x="224" y="-409.8" font-family="Times,serif" font-size="14.00" fill="#f5a70a"> •</text>
<text text-anchor="start" x="234" y="-409.8" font-family="Times,serif" font-size="14.00" fill="#0a5040"> $</text>
</a>
</g>
</g>
<!-- state_5 -->
<g id="state_5" class="node">
<title>state_5</title>
<path fill="#fffff0" stroke="#b8860b" stroke-width="1.5" d="M401.5,-456.5C401.5,-456.5 334.5,-456.5 334.5,-456.5 328.5,-456.5 322.5,-450.5 322.5,-444.5 322.5,-444.5 322.5,-411.5 322.5,-411.5 322.5,-405.5 328.5,-399.5 334.5,-399.5 334.5,-399.5 401.5,-399.5 401.5,-399.5 407.5,-399.5 413.5,-405.5 413.5,-411.5 413.5,-411.5 413.5,-444.5 413.5,-444.5 413.5,-450.5 407.5,-456.5 401.5,-456.5"/>
<path fill="none" stroke="#b8860b" stroke-width="1.5" d="M405.5,-460.5C405.5,-460.5 330.5,-460.5 330.5,-460.5 324.5,-460.5 318.5,-454.5 318.5,-448.5 318.5,-448.5 318.5,-407.5 318.5,-407.5 318.5,-401.5 324.5,-395.5 330.5,-395.5 330.5,-395.5 405.5,-395.5 405.5,-395.5 411.5,-395.5 417.5,-401.5 417.5,-407.5 417.5,-407.5 417.5,-448.5 417.5,-448.5 417.5,-454.5 411.5,-460.5 405.5,-460.5"/>
<g id="a_state_5_title"><a xlink:href="#" xlink:title="state_5_title">
<text text-anchor="start" x="345.5" y="-435.6" font-family="Calibri" font-weight="bold" font-size="13.00" fill="#8b4513">Estado </text>
<text text-anchor="start" x="384.5" y="-435.6" font-family="Calibri" font-weight="bold" font-size="13.00" fill="#8b4513">5</text>
</a>
</g>
<g id="a_state_5_item_1"><a xlink:href="#" xlink:title="state_5_item_1">
<text text-anchor="start" x="334" y="-414.8" font-family="Times,serif" font-size="14.00" fill="#bc1f29">S&#39; </text>
<text text-anchor="start" x="349" y="-414.8" font-family="Times,serif" font-size="14.00" fill="#0a5040">→ </text>
<text text-anchor="start" x="368" y="-414.8" font-family="Times,serif" font-size="14.00" fill="#bc1f29"> S</text>
<text text-anchor="start" x="381" y="-414.8" font-family="Times,serif" font-size="14.00" fill="#0a5040"> $</text>
<text text-anchor="start" x="393" y="-414.8" font-family="Times,serif" font-size="14.00" fill="#f5a70a"> •</text>
</a>
</g>
</g>
<!-- state_2&#45;&gt;state_5 -->
<g id="trans_4" class="edge">
<title>state_2&#45;&gt;state_5</title>
<path fill="none" stroke="#b8860b" stroke-width="1.5" d="M256.8329,-424.4596C272.7979,-424.9681 290.9569,-425.5464 307.9034,-426.0861"/>
<polygon fill="#b8860b" stroke="#b8860b" stroke-width="1.5" points="308.1614,-429.596 318.2678,-426.4162 308.3843,-422.5995 308.1614,-429.596"/>
<text text-anchor="start" x="283.5" y="-428.8" font-family="Times,serif" font-size="14.00" fill="#0a5040"> $</text>
</g>
<!-- state_7 -->
<g id="state_7" class="node">
<title>state_7</title>
<path fill="#fffff0" stroke="#b8860b" stroke-width="1.5" d="M410,-243.5C410,-243.5 326,-243.5 326,-243.5 320,-243.5 314,-237.5 314,-231.5 314,-231.5 314,-198.5 314,-198.5 314,-192.5 320,-186.5 326,-186.5 326,-186.5 410,-186.5 410,-186.5 416,-186.5 422,-192.5 422,-198.5 422,-198.5 422,-231.5 422,-231.5 422,-237.5 416,-243.5 410,-243.5"/>
<g id="a_state_7_title"><a xlink:href="#" xlink:title="state_7_title">
<text text-anchor="start" x="345" y="-222.6" font-family="Calibri" font-weight="bold" font-size="13.00" fill="#8b4513">Estado </text>
<text text-anchor="start" x="384" y="-222.6" font-family="Calibri" font-weight="bold" font-size="13.00" fill="#8b4513">7</text>
</a>
</g>
<g id="a_state_7_item_1"><a xlink:href="#" xlink:title="state_7_item_1">
<text text-anchor="start" x="325" y="-201.8" font-family="Times,serif" font-size="14.00" fill="#bc1f29">S </text>
<text text-anchor="start" x="338" y="-201.8" font-family="Times,serif" font-size="14.00" fill="#0a5040">→ </text>
<text text-anchor="start" x="357" y="-201.8" font-family="Times,serif" font-size="14.00" fill="#0a5040"> (</text>
<text text-anchor="start" x="366" y="-201.8" font-family="Times,serif" font-size="14.00" fill="#bc1f29"> E</text>
<text text-anchor="start" x="379" y="-201.8" font-family="Times,serif" font-size="14.00" fill="#f5a70a"> •</text>
<text text-anchor="start" x="389" y="-201.8" font-family="Times,serif" font-size="14.00" fill="#0a5040"> )</text>
<text text-anchor="start" x="398" y="-201.8" font-family="Times,serif" font-size="14.00" fill="#bc1f29"> S</text>
</a>
</g>
</g>
<!-- state_10 -->
<g id="state_10" class="node">
<title>state_10</title>
<path fill="#f5f5dc" stroke="#b8860b" stroke-width="1.5" stroke-dasharray="5,2" d="M563,-250C563,-250 479,-250 479,-250 473,-250 467,-244 467,-238 467,-238 467,-142 467,-142 467,-136 473,-130 479,-130 479,-130 563,-130 563,-130 569,-130 575,-136 575,-142 575,-142 575,-238 575,-238 575,-244 569,-250 563,-250"/>
<g id="a_state_10_title"><a xlink:href="#" xlink:title="state_10_title">
<text text-anchor="start" x="494.5" y="-229.6" font-family="Calibri" font-weight="bold" font-size="13.00" fill="#8b4513">Estado </text>
<text text-anchor="start" x="533.5" y="-229.6" font-family="Calibri" font-weight="bold" font-size="13.00" fill="#8b4513">10</text>
</a>
</g>
<g id="a_state_10_item_1"><a xlink:href="#" xlink:title="state_10_item_1">
<text text-anchor="start" x="478" y="-208.8" font-family="Times,serif" font-size="14.00" fill="#bc1f29">S </text>
<text text-anchor="start" x="491" y="-208.8" font-family="Times,serif" font-size="14.00" fill="#0a5040">→ </text>
<text text-anchor="start" x="510" y="-208.8" font-family="Times,serif" font-size="14.00" fill="#0a5040"> (</text>
<text text-anchor="start" x="519" y="-208.8" font-family="Times,serif" font-size="14.00" fill="#bc1f29"> E</text>
<text text-anchor="start" x="532" y="-208.8" font-family="Times,serif" font-size="14.00" fill="#0a5040"> )</text>
<text text-anchor="start" x="541" y="-208.8" font-family="Times,serif" font-size="14.00" fill="#f5a70a"> •</text>
<text text-anchor="start" x="551" y="-208.8" font-family="Times,serif" font-size="14.00" fill="#bc1f29"> S</text>
</a>
</g>
<g id="a_state_10_item_2"><a xlink:href="#" xlink:title="state_10_item_2">
<text text-anchor="start" x="478" y="-187.8" font-family="Times,serif" font-size="14.00" fill="#bc1f29">S </text>
<text text-anchor="start" x="491" y="-187.8" font-family="Times,serif" font-size="14.00" fill="#0a5040">→ </text>
<text text-anchor="start" x="510" y="-187.8" font-family="Times,serif" font-size="14.00" fill="#f5a70a"> •</text>
<text text-anchor="start" x="520" y="-187.8" font-family="Times,serif" font-size="14.00" fill="#0a5040"> (</text>
<text text-anchor="start" x="529" y="-187.8" font-family="Times,serif" font-size="14.00" fill="#bc1f29"> E</text>
<text text-anchor="start" x="542" y="-187.8" font-family="Times,serif" font-size="14.00" fill="#0a5040"> )</text>
<text text-anchor="start" x="551" y="-187.8" font-family="Times,serif" font-size="14.00" fill="#bc1f29"> S</text>
</a>
</g>
<g id="a_state_10_item_3"><a xlink:href="#" xlink:title="state_10_item_3">
<text text-anchor="start" x="478" y="-166.8" font-family="Times,serif" font-size="14.00" fill="#bc1f29">S </text>
<text text-anchor="start" x="491" y="-166.8" font-family="Times,serif" font-size="14.00" fill="#0a5040">→ </text>
<text text-anchor="start" x="510" y="-166.8" font-family="Times,serif" font-size="14.00" fill="#f5a70a"> •</text>
<text text-anchor="start" x="520" y="-166.8" font-family="Times,serif" font-size="14.00" fill="#0a5040"> [</text>
<text text-anchor="start" x="529" y="-166.8" font-family="Times,serif" font-size="14.00" fill="#bc1f29"> E</text>
<text text-anchor="start" x="542" y="-166.8" font-family="Times,serif" font-size="14.00" fill="#0a5040"> ]</text>
<text text-anchor="start" x="551" y="-166.8" font-family="Times,serif" font-size="14.00" fill="#bc1f29"> S</text>
</a>
</g>
<g id="a_state_10_item_4"><a xlink:href="#" xlink:title="state_10_item_4">
<text text-anchor="start" x="478" y="-145.8" font-family="Times,serif" font-size="14.00" fill="#bc1f29">S </text>
<text text-anchor="start" x="491" y="-145.8" font-family="Times,serif" font-size="14.00" fill="#0a5040">→ </text>
<text text-anchor="start" x="510" y="-145.8" font-family="Times,serif" font-size="14.00" fill="#f5a70a"> •</text>
</a>
</g>
</g>
<!-- state_7&#45;&gt;state_10 -->
<g id="trans_15" class="edge">
<title>state_7&#45;&gt;state_10</title>
<path fill="none" stroke="#b8860b" stroke-width="1.5" d="M422.3729,-206.1155C433.5334,-204.2919 445.3815,-202.356 456.8492,-200.4822"/>
<polygon fill="#b8860b" stroke="#b8860b" stroke-width="1.5" points="457.4975,-203.9227 466.8022,-198.8558 456.3687,-197.0143 457.4975,-203.9227"/>
<text text-anchor="start" x="440" y="-206.8" font-family="Times,serif" font-size="14.00" fill="#0a5040"> )</text>
</g>
<!-- state_9 -->
<g id="state_9" class="node">
<title>state_9</title>
<path fill="#fffff0" stroke="#b8860b" stroke-width="1.5" d="M885,-328.5C885,-328.5 801,-328.5 801,-328.5 795,-328.5 789,-322.5 789,-316.5 789,-316.5 789,-283.5 789,-283.5 789,-277.5 795,-271.5 801,-271.5 801,-271.5 885,-271.5 885,-271.5 891,-271.5 897,-277.5 897,-283.5 897,-283.5 897,-316.5 897,-316.5 897,-322.5 891,-328.5 885,-328.5"/>
<g id="a_state_9_title"><a xlink:href="#" xlink:title="state_9_title">
<text text-anchor="start" x="820" y="-307.6" font-family="Calibri" font-weight="bold" font-size="13.00" fill="#8b4513">Estado </text>
<text text-anchor="start" x="859" y="-307.6" font-family="Calibri" font-weight="bold" font-size="13.00" fill="#8b4513">9</text>
</a>
</g>
<g id="a_state_9_item_1"><a xlink:href="#" xlink:title="state_9_item_1">
<text text-anchor="start" x="800" y="-286.8" font-family="Times,serif" font-size="14.00" fill="#bc1f29">S </text>
<text text-anchor="start" x="813" y="-286.8" font-family="Times,serif" font-size="14.00" fill="#0a5040">→ </text>
<text text-anchor="start" x="832" y="-286.8" font-family="Times,serif" font-size="14.00" fill="#0a5040"> [</text>
<text text-anchor="start" x="841" y="-286.8" font-family="Times,serif" font-size="14.00" fill="#bc1f29"> E</text>
<text text-anchor="start" x="854" y="-286.8" font-family="Times,serif" font-size="14.00" fill="#f5a70a"> •</text>
<text text-anchor="start" x="864" y="-286.8" font-family="Times,serif" font-size="14.00" fill="#0a5040"> ]</text>
<text text-anchor="start" x="873" y="-286.8" font-family="Times,serif" font-size="14.00" fill="#bc1f29"> S</text>
</a>
</g>
</g>
<!-- state_11 -->
<g id="state_11" class="node">
<title>state_11</title>
<path fill="#f5f5dc" stroke="#b8860b" stroke-width="1.5" stroke-dasharray="5,2" d="M1038,-298C1038,-298 954,-298 954,-298 948,-298 942,-292 942,-286 942,-286 942,-190 942,-190 942,-184 948,-178 954,-178 954,-178 1038,-178 1038,-178 1044,-178 1050,-184 1050,-190 1050,-190 1050,-286 1050,-286 1050,-292 1044,-298 1038,-298"/>
<g id="a_state_11_title"><a xlink:href="#" xlink:title="state_11_title">
<text text-anchor="start" x="969.5" y="-277.6" font-family="Calibri" font-weight="bold" font-size="13.00" fill="#8b4513">Estado </text>
<text text-anchor="start" x="1008.5" y="-277.6" font-family="Calibri" font-weight="bold" font-size="13.00" fill="#8b4513">11</text>
</a>
</g>
<g id="a_state_11_item_1"><a xlink:href="#" xlink:title="state_11_item_1">
<text text-anchor="start" x="953" y="-256.8" font-family="Times,serif" font-size="14.00" fill="#bc1f29">S </text>
<text text-anchor="start" x="966" y="-256.8" font-family="Times,serif" font-size="14.00" fill="#0a5040">→ </text>
<text text-anchor="start" x="985" y="-256.8" font-family="Times,serif" font-size="14.00" fill="#0a5040"> [</text>
<text text-anchor="start" x="994" y="-256.8" font-family="Times,serif" font-size="14.00" fill="#bc1f29"> E</text>
<text text-anchor="start" x="1007" y="-256.8" font-family="Times,serif" font-size="14.00" fill="#0a5040"> ]</text>
<text text-anchor="start" x="1016" y="-256.8" font-family="Times,serif" font-size="14.00" fill="#f5a70a"> •</text>
<text text-anchor="start" x="1026" y="-256.8" font-family="Times,serif" font-size="14.00" fill="#bc1f29"> S</text>
</a>
</g>
<g id="a_state_11_item_2"><a xlink:href="#" xlink:title="state_11_item_2">
<text text-anchor="start" x="953" y="-235.8" font-family="Times,serif" font-size="14.00" fill="#bc1f29">S </text>
<text text-anchor="start" x="966" y="-235.8" font-family="Times,serif" font-size="14.00" fill="#0a5040">→ </text>
<text text-anchor="start" x="985" y="-235.8" font-family="Times,serif" font-size="14.00" fill="#f5a70a"> •</text>
<text text-anchor="start" x="995" y="-235.8" font-family="Times,serif" font-size="14.00" fill="#0a5040"> (</text>
<text text-anchor="start" x="1004" y="-235.8" font-family="Times,serif" font-size="14.00" fill="#bc1f29"> E</text>
<text text-anchor="start" x="1017" y="-235.8" font-family="Times,serif" font-size="14.00" fill="#0a5040"> )</text>
<text text-anchor="start" x="1026" y="-235.8" font-family="Times,serif" font-size="14.00" fill="#bc1f29"> S</text>
</a>
</g>
<g id="a_state_11_item_3"><a xlink:href="#" xlink:title="state_11_item_3">
<text text-anchor="start" x="953" y="-214.8" font-family="Times,serif" font-size="14.00" fill="#bc1f29">S </text>
<text text-anchor="start" x="966" y="-214.8" font-family="Times,serif" font-size="14.00" fill="#0a5040">→ </text>
<text text-anchor="start" x="985" y="-214.8" font-family="Times,serif" font-size="14.00" fill="#f5a70a"> •</text>
<text text-anchor="start" x="995" y="-214.8" font-family="Times,serif" font-size="14.00" fill="#0a5040"> [</text>
<text text-anchor="start" x="1004" y="-214.8" font-family="Times,serif" font-size="14.00" fill="#bc1f29"> E</text>
<text text-anchor="start" x="1017" y="-214.8" font-family="Times,serif" font-size="14.00" fill="#0a5040"> ]</text>
<text text-anchor="start" x="1026" y="-214.8" font-family="Times,serif" font-size="14.00" fill="#bc1f29"> S</text>
</a>
</g>
<g id="a_state_11_item_4"><a xlink:href="#" xlink:title="state_11_item_4">
<text text-anchor="start" x="953" y="-193.8" font-family="Times,serif" font-size="14.00" fill="#bc1f29">S </text>
<text text-anchor="start" x="966" y="-193.8" font-family="Times,serif" font-size="14.00" fill="#0a5040">→ </text>
<text text-anchor="start" x="985" y="-193.8" font-family="Times,serif" font-size="14.00" fill="#f5a70a"> •</text>
</a>
</g>
</g>
<!-- state_9&#45;&gt;state_11 -->
<g id="trans_16" class="edge">
<title>state_9&#45;&gt;state_11</title>
<path fill="none" stroke="#b8860b" stroke-width="1.5" d="M897.3729,-277.9665C908.6462,-273.3983 920.6209,-268.5458 932.1966,-263.855"/>
<polygon fill="#b8860b" stroke="#b8860b" stroke-width="1.5" points="933.8487,-266.962 941.8022,-259.9625 931.2198,-260.4744 933.8487,-266.962"/>
<text text-anchor="start" x="915" y="-272.8" font-family="Times,serif" font-size="14.00" fill="#0a5040"> ]</text>
</g>
<!-- state_6 -->
<g id="state_6" class="node">
<title>state_6</title>
<path fill="#fffff0" stroke="#b8860b" stroke-width="1.5" d="M869.5,-191.5C869.5,-191.5 816.5,-191.5 816.5,-191.5 810.5,-191.5 804.5,-185.5 804.5,-179.5 804.5,-179.5 804.5,-146.5 804.5,-146.5 804.5,-140.5 810.5,-134.5 816.5,-134.5 816.5,-134.5 869.5,-134.5 869.5,-134.5 875.5,-134.5 881.5,-140.5 881.5,-146.5 881.5,-146.5 881.5,-179.5 881.5,-179.5 881.5,-185.5 875.5,-191.5 869.5,-191.5"/>
<path fill="none" stroke="#b8860b" stroke-width="1.5" d="M873.5,-195.5C873.5,-195.5 812.5,-195.5 812.5,-195.5 806.5,-195.5 800.5,-189.5 800.5,-183.5 800.5,-183.5 800.5,-142.5 800.5,-142.5 800.5,-136.5 806.5,-130.5 812.5,-130.5 812.5,-130.5 873.5,-130.5 873.5,-130.5 879.5,-130.5 885.5,-136.5 885.5,-142.5 885.5,-142.5 885.5,-183.5 885.5,-183.5 885.5,-189.5 879.5,-195.5 873.5,-195.5"/>
<g id="a_state_6_title"><a xlink:href="#" xlink:title="state_6_title">
<text text-anchor="start" x="820.5" y="-170.6" font-family="Calibri" font-weight="bold" font-size="13.00" fill="#8b4513">Estado </text>
<text text-anchor="start" x="859.5" y="-170.6" font-family="Calibri" font-weight="bold" font-size="13.00" fill="#8b4513">6</text>
</a>
</g>
<g id="a_state_6_item_1"><a xlink:href="#" xlink:title="state_6_item_1">
<text text-anchor="start" x="816" y="-149.8" font-family="Times,serif" font-size="14.00" fill="#bc1f29">E </text>
<text text-anchor="start" x="829" y="-149.8" font-family="Times,serif" font-size="14.00" fill="#0a5040">→ </text>
<text text-anchor="start" x="848" y="-149.8" font-family="Times,serif" font-size="14.00" fill="#bc1f29"> S</text>
<text text-anchor="start" x="861" y="-149.8" font-family="Times,serif" font-size="14.00" fill="#f5a70a"> •</text>
</a>
</g>
</g>
<!-- state_8 -->
<g id="state_8" class="node">
<title>state_8</title>
<path fill="#fffff0" stroke="#b8860b" stroke-width="1.5" d="M867,-96.5C867,-96.5 819,-96.5 819,-96.5 813,-96.5 807,-90.5 807,-84.5 807,-84.5 807,-51.5 807,-51.5 807,-45.5 813,-39.5 819,-39.5 819,-39.5 867,-39.5 867,-39.5 873,-39.5 879,-45.5 879,-51.5 879,-51.5 879,-84.5 879,-84.5 879,-90.5 873,-96.5 867,-96.5"/>
<path fill="none" stroke="#b8860b" stroke-width="1.5" d="M871,-100.5C871,-100.5 815,-100.5 815,-100.5 809,-100.5 803,-94.5 803,-88.5 803,-88.5 803,-47.5 803,-47.5 803,-41.5 809,-35.5 815,-35.5 815,-35.5 871,-35.5 871,-35.5 877,-35.5 883,-41.5 883,-47.5 883,-47.5 883,-88.5 883,-88.5 883,-94.5 877,-100.5 871,-100.5"/>
<g id="a_state_8_title"><a xlink:href="#" xlink:title="state_8_title">
<text text-anchor="start" x="820" y="-75.6" font-family="Calibri" font-weight="bold" font-size="13.00" fill="#8b4513">Estado </text>
<text text-anchor="start" x="859" y="-75.6" font-family="Calibri" font-weight="bold" font-size="13.00" fill="#8b4513">8</text>
</a>
</g>
<g id="a_state_8_item_1"><a xlink:href="#" xlink:title="state_8_item_1">
<text text-anchor="start" x="818" y="-54.8" font-family="Times,serif" font-size="14.00" fill="#bc1f29">E </text>
<text text-anchor="start" x="831" y="-54.8" font-family="Times,serif" font-size="14.00" fill="#0a5040">→ </text>
<text text-anchor="start" x="850" y="-54.8" font-family="Times,serif" font-size="14.00" fill="#0a5040"> i</text>
<text text-anchor="start" x="858" y="-54.8" font-family="Times,serif" font-size="14.00" fill="#f5a70a"> •</text>
</a>
</g>
</g>
<!-- state_12 -->
<g id="state_12" class="node">
<title>state_12</title>
<path fill="#fffff0" stroke="#b8860b" stroke-width="1.5" d="M724,-186.5C724,-186.5 640,-186.5 640,-186.5 634,-186.5 628,-180.5 628,-174.5 628,-174.5 628,-141.5 628,-141.5 628,-135.5 634,-129.5 640,-129.5 640,-129.5 724,-129.5 724,-129.5 730,-129.5 736,-135.5 736,-141.5 736,-141.5 736,-174.5 736,-174.5 736,-180.5 730,-186.5 724,-186.5"/>
<path fill="none" stroke="#b8860b" stroke-width="1.5" d="M728,-190.5C728,-190.5 636,-190.5 636,-190.5 630,-190.5 624,-184.5 624,-178.5 624,-178.5 624,-137.5 624,-137.5 624,-131.5 630,-125.5 636,-125.5 636,-125.5 728,-125.5 728,-125.5 734,-125.5 740,-131.5 740,-137.5 740,-137.5 740,-178.5 740,-178.5 740,-184.5 734,-190.5 728,-190.5"/>
<g id="a_state_12_title"><a xlink:href="#" xlink:title="state_12_title">
<text text-anchor="start" x="655.5" y="-165.6" font-family="Calibri" font-weight="bold" font-size="13.00" fill="#8b4513">Estado </text>
<text text-anchor="start" x="694.5" y="-165.6" font-family="Calibri" font-weight="bold" font-size="13.00" fill="#8b4513">12</text>
</a>
</g>
<g id="a_state_12_item_1"><a xlink:href="#" xlink:title="state_12_item_1">
<text text-anchor="start" x="639" y="-144.8" font-family="Times,serif" font-size="14.00" fill="#bc1f29">S </text>
<text text-anchor="start" x="652" y="-144.8" font-family="Times,serif" font-size="14.00" fill="#0a5040">→ </text>
<text text-anchor="start" x="671" y="-144.8" font-family="Times,serif" font-size="14.00" fill="#0a5040"> (</text>
<text text-anchor="start" x="680" y="-144.8" font-family="Times,serif" font-size="14.00" fill="#bc1f29"> E</text>
<text text-anchor="start" x="693" y="-144.8" font-family="Times,serif" font-size="14.00" fill="#0a5040"> )</text>
<text text-anchor="start" x="702" y="-144.8" font-family="Times,serif" font-size="14.00" fill="#bc1f29"> S</text>
<text text-anchor="start" x="715" y="-144.8" font-family="Times,serif" font-size="14.00" fill="#f5a70a"> •</text>
</a>
</g>
</g>
<!-- state_13 -->
<g id="state_13" class="node">
<title>state_13</title>
<path fill="#fffff0" stroke="#b8860b" stroke-width="1.5" d="M1199,-266.5C1199,-266.5 1115,-266.5 1115,-266.5 1109,-266.5 1103,-260.5 1103,-254.5 1103,-254.5 1103,-221.5 1103,-221.5 1103,-215.5 1109,-209.5 1115,-209.5 1115,-209.5 1199,-209.5 1199,-209.5 1205,-209.5 1211,-215.5 1211,-221.5 1211,-221.5 1211,-254.5 1211,-254.5 1211,-260.5 1205,-266.5 1199,-266.5"/>
<path fill="none" stroke="#b8860b" stroke-width="1.5" d="M1203,-270.5C1203,-270.5 1111,-270.5 1111,-270.5 1105,-270.5 1099,-264.5 1099,-258.5 1099,-258.5 1099,-217.5 1099,-217.5 1099,-211.5 1105,-205.5 1111,-205.5 1111,-205.5 1203,-205.5 1203,-205.5 1209,-205.5 1215,-211.5 1215,-217.5 1215,-217.5 1215,-258.5 1215,-258.5 1215,-264.5 1209,-270.5 1203,-270.5"/>
<g id="a_state_13_title"><a xlink:href="#" xlink:title="state_13_title">
<text text-anchor="start" x="1130.5" y="-245.6" font-family="Calibri" font-weight="bold" font-size="13.00" fill="#8b4513">Estado </text>
<text text-anchor="start" x="1169.5" y="-245.6" font-family="Calibri" font-weight="bold" font-size="13.00" fill="#8b4513">13</text>
</a>
</g>
<g id="a_state_13_item_1"><a xlink:href="#" xlink:title="state_13_item_1">
<text text-anchor="start" x="1114" y="-224.8" font-family="Times,serif" font-size="14.00" fill="#bc1f29">S </text>
<text text-anchor="start" x="1127" y="-224.8" font-family="Times,serif" font-size="14.00" fill="#0a5040">→ </text>
<text text-anchor="start" x="1146" y="-224.8" font-family="Times,serif" font-size="14.00" fill="#0a5040"> [</text>
<text text-anchor="start" x="1155" y="-224.8" font-family="Times,serif" font-size="14.00" fill="#bc1f29"> E</text>
<text text-anchor="start" x="1168" y="-224.8" font-family="Times,serif" font-size="14.00" fill="#0a5040"> ]</text>
<text text-anchor="start" x="1177" y="-224.8" font-family="Times,serif" font-size="14.00" fill="#bc1f29"> S</text>
<text text-anchor="start" x="1190" y="-224.8" font-family="Times,serif" font-size="14.00" fill="#f5a70a"> •</text>
</a>
</g>
</g>
<!-- state_1 -->
<g id="state_1" class="node">
<title>state_1</title>
<path fill="#f5f5dc" stroke="#b8860b" stroke-width="1.5" stroke-dasharray="5,2" d="M96,-422C96,-422 12,-422 12,-422 6,-422 0,-416 0,-410 0,-410 0,-314 0,-314 0,-308 6,-302 12,-302 12,-302 96,-302 96,-302 102,-302 108,-308 108,-314 108,-314 108,-410 108,-410 108,-416 102,-422 96,-422"/>
<g id="a_state_1_title"><a xlink:href="#" xlink:title="state_1_title">
<text text-anchor="start" x="31" y="-401.6" font-family="Calibri" font-weight="bold" font-size="13.00" fill="#8b4513">Estado </text>
<text text-anchor="start" x="70" y="-401.6" font-family="Calibri" font-weight="bold" font-size="13.00" fill="#8b4513">1</text>
</a>
</g>
<g id="a_state_1_item_1"><a xlink:href="#" xlink:title="state_1_item_1">
<text text-anchor="start" x="11" y="-380.8" font-family="Times,serif" font-size="14.00" fill="#bc1f29">S&#39; </text>
<text text-anchor="start" x="26" y="-380.8" font-family="Times,serif" font-size="14.00" fill="#0a5040">→ </text>
<text text-anchor="start" x="45" y="-380.8" font-family="Times,serif" font-size="14.00" fill="#f5a70a"> •</text>
<text text-anchor="start" x="55" y="-380.8" font-family="Times,serif" font-size="14.00" fill="#bc1f29"> S</text>
<text text-anchor="start" x="68" y="-380.8" font-family="Times,serif" font-size="14.00" fill="#0a5040"> $</text>
</a>
</g>
<g id="a_state_1_item_2"><a xlink:href="#" xlink:title="state_1_item_2">
<text text-anchor="start" x="11" y="-359.8" font-family="Times,serif" font-size="14.00" fill="#bc1f29">S </text>
<text text-anchor="start" x="24" y="-359.8" font-family="Times,serif" font-size="14.00" fill="#0a5040">→ </text>
<text text-anchor="start" x="43" y="-359.8" font-family="Times,serif" font-size="14.00" fill="#f5a70a"> •</text>
<text text-anchor="start" x="53" y="-359.8" font-family="Times,serif" font-size="14.00" fill="#0a5040"> (</text>
<text text-anchor="start" x="62" y="-359.8" font-family="Times,serif" font-size="14.00" fill="#bc1f29"> E</text>
<text text-anchor="start" x="75" y="-359.8" font-family="Times,serif" font-size="14.00" fill="#0a5040"> )</text>
<text text-anchor="start" x="84" y="-359.8" font-family="Times,serif" font-size="14.00" fill="#bc1f29"> S</text>
</a>
</g>
<g id="a_state_1_item_3"><a xlink:href="#" xlink:title="state_1_item_3">
<text text-anchor="start" x="11" y="-338.8" font-family="Times,serif" font-size="14.00" fill="#bc1f29">S </text>
<text text-anchor="start" x="24" y="-338.8" font-family="Times,serif" font-size="14.00" fill="#0a5040">→ </text>
<text text-anchor="start" x="43" y="-338.8" font-family="Times,serif" font-size="14.00" fill="#f5a70a"> •</text>
<text text-anchor="start" x="53" y="-338.8" font-family="Times,serif" font-size="14.00" fill="#0a5040"> [</text>
<text text-anchor="start" x="62" y="-338.8" font-family="Times,serif" font-size="14.00" fill="#bc1f29"> E</text>
<text text-anchor="start" x="75" y="-338.8" font-family="Times,serif" font-size="14.00" fill="#0a5040"> ]</text>
<text text-anchor="start" x="84" y="-338.8" font-family="Times,serif" font-size="14.00" fill="#bc1f29"> S</text>
</a>
</g>
<g id="a_state_1_item_4"><a xlink:href="#" xlink:title="state_1_item_4">
<text text-anchor="start" x="11" y="-317.8" font-family="Times,serif" font-size="14.00" fill="#bc1f29">S </text>
<text text-anchor="start" x="24" y="-317.8" font-family="Times,serif" font-size="14.00" fill="#0a5040">→ </text>
<text text-anchor="start" x="43" y="-317.8" font-family="Times,serif" font-size="14.00" fill="#f5a70a"> •</text>
</a>
</g>
</g>
<!-- state_1&#45;&gt;state_2 -->
<g id="trans_1" class="edge">
<title>state_1&#45;&gt;state_2</title>
<path fill="none" stroke="#b8860b" stroke-width="1.5" d="M108.0305,-382.9927C123.5295,-389.0146 140.4425,-395.5859 155.9991,-401.6302"/>
<polygon fill="#b8860b" stroke="#b8860b" stroke-width="1.5" points="154.8966,-404.9567 165.4853,-405.316 157.4317,-398.4319 154.8966,-404.9567"/>
<text text-anchor="start" x="126" y="-397.8" font-family="Times,serif" font-size="14.00" fill="#bc1f29"> S</text>
</g>
<!-- state_3 -->
<g id="state_3" class="node">
<title>state_3</title>
<path fill="#f5f5dc" stroke="#b8860b" stroke-width="1.5" stroke-dasharray="5,2" d="M253,-295.5C253,-295.5 169,-295.5 169,-295.5 163,-295.5 157,-289.5 157,-283.5 157,-283.5 157,-124.5 157,-124.5 157,-118.5 163,-112.5 169,-112.5 169,-112.5 253,-112.5 253,-112.5 259,-112.5 265,-118.5 265,-124.5 265,-124.5 265,-283.5 265,-283.5 265,-289.5 259,-295.5 253,-295.5"/>
<g id="a_state_3_title"><a xlink:href="#" xlink:title="state_3_title">
<text text-anchor="start" x="188" y="-274.6" font-family="Calibri" font-weight="bold" font-size="13.00" fill="#8b4513">Estado </text>
<text text-anchor="start" x="227" y="-274.6" font-family="Calibri" font-weight="bold" font-size="13.00" fill="#8b4513">3</text>
</a>
</g>
<g id="a_state_3_item_1"><a xlink:href="#" xlink:title="state_3_item_1">
<text text-anchor="start" x="168" y="-253.8" font-family="Times,serif" font-size="14.00" fill="#bc1f29">S </text>
<text text-anchor="start" x="181" y="-253.8" font-family="Times,serif" font-size="14.00" fill="#0a5040">→ </text>
<text text-anchor="start" x="200" y="-253.8" font-family="Times,serif" font-size="14.00" fill="#0a5040"> (</text>
<text text-anchor="start" x="209" y="-253.8" font-family="Times,serif" font-size="14.00" fill="#f5a70a"> •</text>
<text text-anchor="start" x="219" y="-253.8" font-family="Times,serif" font-size="14.00" fill="#bc1f29"> E</text>
<text text-anchor="start" x="232" y="-253.8" font-family="Times,serif" font-size="14.00" fill="#0a5040"> )</text>
<text text-anchor="start" x="241" y="-253.8" font-family="Times,serif" font-size="14.00" fill="#bc1f29"> S</text>
</a>
</g>
<g id="a_state_3_item_2"><a xlink:href="#" xlink:title="state_3_item_2">
<text text-anchor="start" x="168" y="-232.8" font-family="Times,serif" font-size="14.00" fill="#bc1f29">E </text>
<text text-anchor="start" x="181" y="-232.8" font-family="Times,serif" font-size="14.00" fill="#0a5040">→ </text>
<text text-anchor="start" x="200" y="-232.8" font-family="Times,serif" font-size="14.00" fill="#f5a70a"> •</text>
<text text-anchor="start" x="210" y="-232.8" font-family="Times,serif" font-size="14.00" fill="#bc1f29"> S</text>
</a>
</g>
<g id="a_state_3_item_3"><a xlink:href="#" xlink:title="state_3_item_3">
<text text-anchor="start" x="168" y="-211.8" font-family="Times,serif" font-size="14.00" fill="#bc1f29">E </text>
<text text-anchor="start" x="181" y="-211.8" font-family="Times,serif" font-size="14.00" fill="#0a5040">→ </text>
<text text-anchor="start" x="200" y="-211.8" font-family="Times,serif" font-size="14.00" fill="#f5a70a"> •</text>
<text text-anchor="start" x="210" y="-211.8" font-family="Times,serif" font-size="14.00" fill="#0a5040"> i</text>
</a>
</g>
<g id="a_state_3_item_4"><a xlink:href="#" xlink:title="state_3_item_4">
<text text-anchor="start" x="168" y="-190.8" font-family="Times,serif" font-size="14.00" fill="#bc1f29">E </text>
<text text-anchor="start" x="181" y="-190.8" font-family="Times,serif" font-size="14.00" fill="#0a5040">→ </text>
<text text-anchor="start" x="200" y="-190.8" font-family="Times,serif" font-size="14.00" fill="#f5a70a"> •</text>
</a>
</g>
<g id="a_state_3_item_5"><a xlink:href="#" xlink:title="state_3_item_5">
<text text-anchor="start" x="168" y="-169.8" font-family="Times,serif" font-size="14.00" fill="#bc1f29">S </text>
<text text-anchor="start" x="181" y="-169.8" font-family="Times,serif" font-size="14.00" fill="#0a5040">→ </text>
<text text-anchor="start" x="200" y="-169.8" font-family="Times,serif" font-size="14.00" fill="#f5a70a"> •</text>
<text text-anchor="start" x="210" y="-169.8" font-family="Times,serif" font-size="14.00" fill="#0a5040"> (</text>
<text text-anchor="start" x="219" y="-169.8" font-family="Times,serif" font-size="14.00" fill="#bc1f29"> E</text>
<text text-anchor="start" x="232" y="-169.8" font-family="Times,serif" font-size="14.00" fill="#0a5040"> )</text>
<text text-anchor="start" x="241" y="-169.8" font-family="Times,serif" font-size="14.00" fill="#bc1f29"> S</text>
</a>
</g>
<g id="a_state_3_item_6"><a xlink:href="#" xlink:title="state_3_item_6">
<text text-anchor="start" x="168" y="-148.8" font-family="Times,serif" font-size="14.00" fill="#bc1f29">S </text>
<text text-anchor="start" x="181" y="-148.8" font-family="Times,serif" font-size="14.00" fill="#0a5040">→ </text>
<text text-anchor="start" x="200" y="-148.8" font-family="Times,serif" font-size="14.00" fill="#f5a70a"> •</text>
<text text-anchor="start" x="210" y="-148.8" font-family="Times,serif" font-size="14.00" fill="#0a5040"> [</text>
<text text-anchor="start" x="219" y="-148.8" font-family="Times,serif" font-size="14.00" fill="#bc1f29"> E</text>
<text text-anchor="start" x="232" y="-148.8" font-family="Times,serif" font-size="14.00" fill="#0a5040"> ]</text>
<text text-anchor="start" x="241" y="-148.8" font-family="Times,serif" font-size="14.00" fill="#bc1f29"> S</text>
</a>
</g>
<g id="a_state_3_item_7"><a xlink:href="#" xlink:title="state_3_item_7">
<text text-anchor="start" x="168" y="-127.8" font-family="Times,serif" font-size="14.00" fill="#bc1f29">S </text>
<text text-anchor="start" x="181" y="-127.8" font-family="Times,serif" font-size="14.00" fill="#0a5040">→ </text>
<text text-anchor="start" x="200" y="-127.8" font-family="Times,serif" font-size="14.00" fill="#f5a70a"> •</text>
</a>
</g>
</g>
<!-- state_1&#45;&gt;state_3 -->
<g id="trans_2" class="edge">
<title>state_1&#45;&gt;state_3</title>
<path fill="none" stroke="#b8860b" stroke-width="1.5" d="M108.0305,-307.6254C121.4755,-294.0947 135.9846,-279.4932 149.7493,-265.6408"/>
<polygon fill="#b8860b" stroke="#b8860b" stroke-width="1.5" points="152.304,-268.0354 156.8699,-258.4749 147.3386,-263.1014 152.304,-268.0354"/>
<text text-anchor="start" x="128" y="-290.8" font-family="Times,serif" font-size="14.00" fill="#0a5040"> (</text>
</g>
<!-- state_4 -->
<g id="state_4" class="node">
<title>state_4</title>
<path fill="#f5f5dc" stroke="#b8860b" stroke-width="1.5" stroke-dasharray="5,2" d="M724,-391.5C724,-391.5 640,-391.5 640,-391.5 634,-391.5 628,-385.5 628,-379.5 628,-379.5 628,-220.5 628,-220.5 628,-214.5 634,-208.5 640,-208.5 640,-208.5 724,-208.5 724,-208.5 730,-208.5 736,-214.5 736,-220.5 736,-220.5 736,-379.5 736,-379.5 736,-385.5 730,-391.5 724,-391.5"/>
<g id="a_state_4_title"><a xlink:href="#" xlink:title="state_4_title">
<text text-anchor="start" x="659" y="-370.6" font-family="Calibri" font-weight="bold" font-size="13.00" fill="#8b4513">Estado </text>
<text text-anchor="start" x="698" y="-370.6" font-family="Calibri" font-weight="bold" font-size="13.00" fill="#8b4513">4</text>
</a>
</g>
<g id="a_state_4_item_1"><a xlink:href="#" xlink:title="state_4_item_1">
<text text-anchor="start" x="639" y="-349.8" font-family="Times,serif" font-size="14.00" fill="#bc1f29">S </text>
<text text-anchor="start" x="652" y="-349.8" font-family="Times,serif" font-size="14.00" fill="#0a5040">→ </text>
<text text-anchor="start" x="671" y="-349.8" font-family="Times,serif" font-size="14.00" fill="#0a5040"> [</text>
<text text-anchor="start" x="680" y="-349.8" font-family="Times,serif" font-size="14.00" fill="#f5a70a"> •</text>
<text text-anchor="start" x="690" y="-349.8" font-family="Times,serif" font-size="14.00" fill="#bc1f29"> E</text>
<text text-anchor="start" x="703" y="-349.8" font-family="Times,serif" font-size="14.00" fill="#0a5040"> ]</text>
<text text-anchor="start" x="712" y="-349.8" font-family="Times,serif" font-size="14.00" fill="#bc1f29"> S</text>
</a>
</g>
<g id="a_state_4_item_2"><a xlink:href="#" xlink:title="state_4_item_2">
<text text-anchor="start" x="639" y="-328.8" font-family="Times,serif" font-size="14.00" fill="#bc1f29">E </text>
<text text-anchor="start" x="652" y="-328.8" font-family="Times,serif" font-size="14.00" fill="#0a5040">→ </text>
<text text-anchor="start" x="671" y="-328.8" font-family="Times,serif" font-size="14.00" fill="#f5a70a"> •</text>
<text text-anchor="start" x="681" y="-328.8" font-family="Times,serif" font-size="14.00" fill="#bc1f29"> S</text>
</a>
</g>
<g id="a_state_4_item_3"><a xlink:href="#" xlink:title="state_4_item_3">
<text text-anchor="start" x="639" y="-307.8" font-family="Times,serif" font-size="14.00" fill="#bc1f29">E </text>
<text text-anchor="start" x="652" y="-307.8" font-family="Times,serif" font-size="14.00" fill="#0a5040">→ </text>
<text text-anchor="start" x="671" y="-307.8" font-family="Times,serif" font-size="14.00" fill="#f5a70a"> •</text>
<text text-anchor="start" x="681" y="-307.8" font-family="Times,serif" font-size="14.00" fill="#0a5040"> i</text>
</a>
</g>
<g id="a_state_4_item_4"><a xlink:href="#" xlink:title="state_4_item_4">
<text text-anchor="start" x="639" y="-286.8" font-family="Times,serif" font-size="14.00" fill="#bc1f29">E </text>
<text text-anchor="start" x="652" y="-286.8" font-family="Times,serif" font-size="14.00" fill="#0a5040">→ </text>
<text text-anchor="start" x="671" y="-286.8" font-family="Times,serif" font-size="14.00" fill="#f5a70a"> •</text>
</a>
</g>
<g id="a_state_4_item_5"><a xlink:href="#" xlink:title="state_4_item_5">
<text text-anchor="start" x="639" y="-265.8" font-family="Times,serif" font-size="14.00" fill="#bc1f29">S </text>
<text text-anchor="start" x="652" y="-265.8" font-family="Times,serif" font-size="14.00" fill="#0a5040">→ </text>
<text text-anchor="start" x="671" y="-265.8" font-family="Times,serif" font-size="14.00" fill="#f5a70a"> •</text>
<text text-anchor="start" x="681" y="-265.8" font-family="Times,serif" font-size="14.00" fill="#0a5040"> (</text>
<text text-anchor="start" x="690" y="-265.8" font-family="Times,serif" font-size="14.00" fill="#bc1f29"> E</text>
<text text-anchor="start" x="703" y="-265.8" font-family="Times,serif" font-size="14.00" fill="#0a5040"> )</text>
<text text-anchor="start" x="712" y="-265.8" font-family="Times,serif" font-size="14.00" fill="#bc1f29"> S</text>
</a>
</g>
<g id="a_state_4_item_6"><a xlink:href="#" xlink:title="state_4_item_6">
<text text-anchor="start" x="639" y="-244.8" font-family="Times,serif" font-size="14.00" fill="#bc1f29">S </text>
<text text-anchor="start" x="652" y="-244.8" font-family="Times,serif" font-size="14.00" fill="#0a5040">→ </text>
<text text-anchor="start" x="671" y="-244.8" font-family="Times,serif" font-size="14.00" fill="#f5a70a"> •</text>
<text text-anchor="start" x="681" y="-244.8" font-family="Times,serif" font-size="14.00" fill="#0a5040"> [</text>
<text text-anchor="start" x="690" y="-244.8" font-family="Times,serif" font-size="14.00" fill="#bc1f29"> E</text>
<text text-anchor="start" x="703" y="-244.8" font-family="Times,serif" font-size="14.00" fill="#0a5040"> ]</text>
<text text-anchor="start" x="712" y="-244.8" font-family="Times,serif" font-size="14.00" fill="#bc1f29"> S</text>
</a>
</g>
<g id="a_state_4_item_7"><a xlink:href="#" xlink:title="state_4_item_7">
<text text-anchor="start" x="639" y="-223.8" font-family="Times,serif" font-size="14.00" fill="#bc1f29">S </text>
<text text-anchor="start" x="652" y="-223.8" font-family="Times,serif" font-size="14.00" fill="#0a5040">→ </text>
<text text-anchor="start" x="671" y="-223.8" font-family="Times,serif" font-size="14.00" fill="#f5a70a"> •</text>
</a>
</g>
</g>
<!-- state_1&#45;&gt;state_4 -->
<g id="trans_3" class="edge">
<title>state_1&#45;&gt;state_4</title>
<path fill="none" stroke="#b8860b" stroke-width="1.5" d="M108.132,-362C138.3927,-362 176.7925,-362 211,-362 211,-362 211,-362 521,-362 554.649,-362 589.77,-350.0603 618.5912,-336.66"/>
<polygon fill="#b8860b" stroke="#b8860b" stroke-width="1.5" points="620.2222,-339.7593 627.7175,-332.2712 617.1885,-333.4509 620.2222,-339.7593"/>
<text text-anchor="start" x="363.5" y="-365.8" font-family="Times,serif" font-size="14.00" fill="#0a5040"> [</text>
</g>
<!-- state_10&#45;&gt;state_12 -->
<g id="trans_18" class="edge">
<title>state_10&#45;&gt;state_12</title>
<path fill="none" stroke="#b8860b" stroke-width="1.5" d="M575.0586,-179.2554C587.5795,-176.7668 601.0605,-174.0874 614.0902,-171.4976"/>
<polygon fill="#b8860b" stroke="#b8860b" stroke-width="1.5" points="614.817,-174.9217 623.9429,-169.5393 613.4524,-168.056 614.817,-174.9217"/>
<text text-anchor="start" x="593" y="-178.8" font-family="Times,serif" font-size="14.00" fill="#bc1f29"> S</text>
</g>
<!-- state_10&#45;&gt;state_3 -->
<g id="trans_19" class="edge">
<title>state_10&#45;&gt;state_3</title>
<path fill="none" stroke="#b8860b" stroke-width="1.5" d="M466.8495,-171.7843C452.4415,-167.7401 436.7731,-164.0489 422,-162 374.4551,-155.4058 361.1033,-152.7655 314,-162 300.9373,-164.5609 287.4417,-168.7877 274.6932,-173.5976"/>
<polygon fill="#b8860b" stroke="#b8860b" stroke-width="1.5" points="273.1318,-170.4508 265.1096,-177.3715 275.6966,-176.964 273.1318,-170.4508"/>
<text text-anchor="start" x="363.5" y="-165.8" font-family="Times,serif" font-size="14.00" fill="#0a5040"> (</text>
</g>
<!-- state_10&#45;&gt;state_4 -->
<g id="trans_17" class="edge">
<title>state_10&#45;&gt;state_4</title>
<path fill="none" stroke="#b8860b" stroke-width="1.5" d="M575.0586,-226.9344C589.2624,-236.6389 604.7017,-247.1875 619.3162,-257.1725"/>
<polygon fill="#b8860b" stroke="#b8860b" stroke-width="1.5" points="617.5787,-260.2244 627.8101,-262.9758 621.5277,-254.4446 617.5787,-260.2244"/>
<text text-anchor="start" x="595" y="-248.8" font-family="Times,serif" font-size="14.00" fill="#0a5040"> [</text>
</g>
<!-- state_11&#45;&gt;state_13 -->
<g id="trans_20" class="edge">
<title>state_11&#45;&gt;state_13</title>
<path fill="none" stroke="#b8860b" stroke-width="1.5" d="M1050.0586,-238C1062.4567,-238 1075.7962,-238 1088.7069,-238"/>
<polygon fill="#b8860b" stroke="#b8860b" stroke-width="1.5" points="1088.9429,-241.5001 1098.9429,-238 1088.9428,-234.5001 1088.9429,-241.5001"/>
<text text-anchor="start" x="1068" y="-241.8" font-family="Times,serif" font-size="14.00" fill="#bc1f29"> S</text>
</g>
<!-- state_11&#45;&gt;state_3 -->
<g id="trans_21" class="edge">
<title>state_11&#45;&gt;state_3</title>
<path fill="none" stroke="#b8860b" stroke-width="1.5" d="M984.6811,-177.9426C967.5119,-107.437 927.4879,0 843,0 368,0 368,0 368,0 310.3467,0 270.9307,-51.8035 246.012,-103.2005"/>
<polygon fill="#b8860b" stroke="#b8860b" stroke-width="1.5" points="242.755,-101.9026 241.6795,-112.4427 249.0932,-104.8738 242.755,-101.9026"/>
<text text-anchor="start" x="595" y="-3.8" font-family="Times,serif" font-size="14.00" fill="#0a5040"> (</text>
</g>
<!-- state_11&#45;&gt;state_4 -->
<g id="trans_22" class="edge">
<title>state_11&#45;&gt;state_4</title>
<path fill="none" stroke="#b8860b" stroke-width="1.5" d="M941.942,-234.7327C899.652,-233.5748 839.7184,-235.0321 789,-248 774.3089,-251.7563 759.2438,-257.6349 745.2275,-264.1096"/>
<polygon fill="#b8860b" stroke="#b8860b" stroke-width="1.5" points="743.6948,-260.9629 736.1827,-268.4342 746.7143,-267.2782 743.6948,-260.9629"/>
<text text-anchor="start" x="838.5" y="-251.8" font-family="Times,serif" font-size="14.00" fill="#0a5040"> [</text>
</g>
<!-- state_3&#45;&gt;state_7 -->
<g id="trans_5" class="edge">
<title>state_3&#45;&gt;state_7</title>
<path fill="none" stroke="#b8860b" stroke-width="1.5" d="M265.0305,-207.7856C277.4887,-208.6584 290.8605,-209.5953 303.7072,-210.4954"/>
<polygon fill="#b8860b" stroke="#b8860b" stroke-width="1.5" points="303.6497,-213.9999 313.8699,-211.2074 304.139,-207.017 303.6497,-213.9999"/>
<text text-anchor="start" x="283" y="-212.8" font-family="Times,serif" font-size="14.00" fill="#bc1f29"> E</text>
</g>
<!-- state_3&#45;&gt;state_6 -->
<g id="trans_9" class="edge">
<title>state_3&#45;&gt;state_6</title>
<path fill="none" stroke="#b8860b" stroke-width="1.5" d="M265.1047,-143.9318C292.9884,-119.5413 329.2424,-97 368,-97 368,-97 368,-97 682,-97 720.6301,-97 760.8399,-113.4683 791.4123,-129.9524"/>
<polygon fill="#b8860b" stroke="#b8860b" stroke-width="1.5" points="789.7318,-133.0227 800.1733,-134.8186 793.1308,-126.9032 789.7318,-133.0227"/>
<text text-anchor="start" x="514.5" y="-100.8" font-family="Times,serif" font-size="14.00" fill="#bc1f29"> S</text>
</g>
<!-- state_3&#45;&gt;state_8 -->
<g id="trans_8" class="edge">
<title>state_3&#45;&gt;state_8</title>
<path fill="none" stroke="#b8860b" stroke-width="1.5" d="M261.6366,-112.0907C287.9608,-77.3319 323.9161,-46 368,-46 368,-46 368,-46 682,-46 719.4205,-46 761.2867,-51.9064 792.9452,-57.5984"/>
<polygon fill="#b8860b" stroke="#b8860b" stroke-width="1.5" points="792.3766,-61.0526 802.8466,-59.4312 793.6507,-54.1695 792.3766,-61.0526"/>
<text text-anchor="start" x="517" y="-49.8" font-family="Times,serif" font-size="14.00" fill="#0a5040"> i</text>
</g>
<!-- state_3&#45;&gt;state_3 -->
<g id="trans_6" class="edge">
<title>state_3&#45;&gt;state_3</title>
<path fill="none" stroke="#b8860b" stroke-width="1.5" d="M198.5182,-295.8625C200.8218,-306.5482 204.9824,-313.5 211,-313.5 214.949,-313.5 218.0983,-310.5061 220.4479,-305.4278"/>
<polygon fill="#b8860b" stroke="#b8860b" stroke-width="1.5" points="223.7946,-306.4527 223.4818,-295.8625 217.1222,-304.3364 223.7946,-306.4527"/>
<text text-anchor="start" x="206.5" y="-317.3" font-family="Times,serif" font-size="14.00" fill="#0a5040"> (</text>
</g>
<!-- state_3&#45;&gt;state_4 -->
<g id="trans_7" class="edge">
<title>state_3&#45;&gt;state_4</title>
<path fill="none" stroke="#b8860b" stroke-width="1.5" d="M265.4388,-280.7607C270.9263,-285.1391 276.7866,-288.979 283,-292 390.9664,-344.4946 535.5701,-329.5925 617.7535,-314.4793"/>
<polygon fill="#b8860b" stroke="#b8860b" stroke-width="1.5" points="618.5314,-317.8943 627.704,-312.592 617.2269,-311.0169 618.5314,-317.8943"/>
<text text-anchor="start" x="440" y="-331.8" font-family="Times,serif" font-size="14.00" fill="#0a5040"> [</text>
</g>
<!-- state_4&#45;&gt;state_9 -->
<g id="trans_10" class="edge">
<title>state_4&#45;&gt;state_9</title>
<path fill="none" stroke="#b8860b" stroke-width="1.5" d="M736.0586,-300C749.7314,-300 764.549,-300 778.6738,-300"/>
<polygon fill="#b8860b" stroke="#b8860b" stroke-width="1.5" points="778.8101,-303.5001 788.8101,-300 778.81,-296.5001 778.8101,-303.5001"/>
<text text-anchor="start" x="758" y="-303.8" font-family="Times,serif" font-size="14.00" fill="#bc1f29"> E</text>
</g>
<!-- state_4&#45;&gt;state_6 -->
<g id="trans_12" class="edge">
<title>state_4&#45;&gt;state_6</title>
<path fill="none" stroke="#b8860b" stroke-width="1.5" d="M736.2811,-229.322C743.2104,-222.0675 750.5111,-215.1245 758,-209 768.044,-200.7859 779.7757,-193.337 791.2591,-186.9405"/>
<polygon fill="#b8860b" stroke="#b8860b" stroke-width="1.5" points="793.2253,-189.8574 800.3784,-182.0417 789.9127,-183.6908 793.2253,-189.8574"/>
<text text-anchor="start" x="758" y="-212.8" font-family="Times,serif" font-size="14.00" fill="#bc1f29"> S</text>
</g>
<!-- state_4&#45;&gt;state_8 -->
<g id="trans_14" class="edge">
<title>state_4&#45;&gt;state_8</title>
<path fill="none" stroke="#b8860b" stroke-width="1.5" d="M735.4101,-208.3484C758.7498,-168.7376 782.3387,-129.4642 789,-121 792.4019,-116.6774 796.1357,-112.3508 800.0018,-108.1372"/>
<polygon fill="#b8860b" stroke="#b8860b" stroke-width="1.5" points="802.7151,-110.3627 807.0607,-100.7 797.6378,-105.5437 802.7151,-110.3627"/>
<text text-anchor="start" x="760.5" y="-171.8" font-family="Times,serif" font-size="14.00" fill="#0a5040"> i</text>
</g>
<!-- state_4&#45;&gt;state_3 -->
<g id="trans_11" class="edge">
<title>state_4&#45;&gt;state_3</title>
<path fill="none" stroke="#b8860b" stroke-width="1.5" d="M627.8939,-298.4254C555.1612,-295.1125 422.4591,-284.839 314,-253 300.7746,-249.1176 287.1265,-243.7239 274.2633,-237.9279"/>
<polygon fill="#b8860b" stroke="#b8860b" stroke-width="1.5" points="275.597,-234.6883 265.0529,-233.6522 272.6495,-241.0375 275.597,-234.6883"/>
<text text-anchor="start" x="440" y="-284.8" font-family="Times,serif" font-size="14.00" fill="#0a5040"> (</text>
</g>
<!-- state_4&#45;&gt;state_4 -->
<g id="trans_13" class="edge">
<title>state_4&#45;&gt;state_4</title>
<path fill="none" stroke="#b8860b" stroke-width="1.5" d="M668.8781,-391.8625C671.2999,-402.5482 675.6738,-409.5 682,-409.5 686.1516,-409.5 689.4624,-406.5061 691.9324,-401.4278"/>
<polygon fill="#b8860b" stroke="#b8860b" stroke-width="1.5" points="695.2789,-402.4562 695.1219,-391.8625 688.6383,-400.2419 695.2789,-402.4562"/>
<text text-anchor="start" x="677.5" y="-413.3" font-family="Times,serif" font-size="14.00" fill="#0a5040"> [</text>
</g>
</g>
</svg>
