<?xml version="1.0" encoding="UTF-8" standalone="no"?>
<!DOCTYPE svg PUBLIC "-//W3C//DTD SVG 1.1//EN"
 "http://www.w3.org/Graphics/SVG/1.1/DTD/svg11.dtd">
<!-- Generated by graphviz version 2.40.1 (20161225.0304)
 -->
<!-- Title: NFA Pages: 1 -->
<svg width="944pt" height="391pt"
 viewBox="0.00 0.00 944.00 391.00" xmlns="http://www.w3.org/2000/svg" xmlns:xlink="http://www.w3.org/1999/xlink">
<g id="graph0" class="graph" transform="scale(1 1) rotate(0) translate(4 387)">
<title>NFA</title>
<!-- state_10004 -->
<g id="state_10004" class="node">
<title>state_10004</title>
<path fill="#fffff0" stroke="#b8860b" stroke-width="1.5" d="M77,-300.5C77,-300.5 12,-300.5 12,-300.5 6,-300.5 0,-294.5 0,-288.5 0,-288.5 0,-261.5 0,-261.5 0,-255.5 6,-249.5 12,-249.5 12,-249.5 77,-249.5 77,-249.5 83,-249.5 89,-255.5 89,-261.5 89,-261.5 89,-288.5 89,-288.5 89,-294.5 83,-300.5 77,-300.5"/>
<g id="a_state_10004_title"><a xlink:href="#" xlink:title="state_10004_title">
<text text-anchor="start" x="22" y="-282.6" font-family="Calibri" font-weight="bold" font-size="13.00" fill="#8b4513">Estado </text>
<text text-anchor="start" x="61" y="-282.6" font-family="Calibri" font-weight="bold" font-size="13.00" fill="#8b4513">4</text>
</a>
</g>
<g id="a_state_10004_item_1"><a xlink:href="#" xlink:title="state_10004_item_1">
<text text-anchor="start" x="8.5" y="-261.8" font-family="Times,serif" font-size="14.00" fill="#bc1f29">T </text>
<text text-anchor="start" x="21.5" y="-261.8" font-family="Times,serif" font-size="14.00" fill="#0a5040">→ </text>
<text text-anchor="start" x="40.5" y="-261.8" font-family="Times,serif" font-size="14.00" fill="#f5a70a"> •</text>
<text text-anchor="start" x="50.5" y="-261.8" font-family="Times,serif" font-size="14.00" fill="#0a5040"> (</text>
<text text-anchor="start" x="59.5" y="-261.8" font-family="Times,serif" font-size="14.00" fill="#bc1f29"> E</text>
<text text-anchor="start" x="72.5" y="-261.8" font-family="Times,serif" font-size="14.00" fill="#0a5040"> )</text>
</a>
</g>
</g>
<!-- state_10009 -->
<g id="state_10009" class="node">
<title>state_10009</title>
<path fill="#fffff0" stroke="#b8860b" stroke-width="1.5" d="M211,-300.5C211,-300.5 146,-300.5 146,-300.5 140,-300.5 134,-294.5 134,-288.5 134,-288.5 134,-261.5 134,-261.5 134,-255.5 140,-249.5 146,-249.5 146,-249.5 211,-249.5 211,-249.5 217,-249.5 223,-255.5 223,-261.5 223,-261.5 223,-288.5 223,-288.5 223,-294.5 217,-300.5 211,-300.5"/>
<g id="a_state_10009_title"><a xlink:href="#" xlink:title="state_10009_title">
<text text-anchor="start" x="156" y="-282.6" font-family="Calibri" font-weight="bold" font-size="13.00" fill="#8b4513">Estado </text>
<text text-anchor="start" x="195" y="-282.6" font-family="Calibri" font-weight="bold" font-size="13.00" fill="#8b4513">9</text>
</a>
</g>
<g id="a_state_10009_item_1"><a xlink:href="#" xlink:title="state_10009_item_1">
<text text-anchor="start" x="142.5" y="-261.8" font-family="Times,serif" font-size="14.00" fill="#bc1f29">T </text>
<text text-anchor="start" x="155.5" y="-261.8" font-family="Times,serif" font-size="14.00" fill="#0a5040">→ </text>
<text text-anchor="start" x="174.5" y="-261.8" font-family="Times,serif" font-size="14.00" fill="#0a5040"> (</text>
<text text-anchor="start" x="183.5" y="-261.8" font-family="Times,serif" font-size="14.00" fill="#f5a70a"> •</text>
<text text-anchor="start" x="193.5" y="-261.8" font-family="Times,serif" font-size="14.00" fill="#bc1f29"> E</text>
<text text-anchor="start" x="206.5" y="-261.8" font-family="Times,serif" font-size="14.00" fill="#0a5040"> )</text>
</a>
</g>
</g>
<!-- state_10004&#45;&gt;state_10009 -->
<g id="trans_10" class="edge">
<title>state_10004&#45;&gt;state_10009</title>
<path fill="none" stroke="#b8860b" stroke-width="1.5" d="M89.1201,-275C100.0786,-275 111.9396,-275 123.3296,-275"/>
<polygon fill="#b8860b" stroke="#b8860b" stroke-width="1.5" points="123.6179,-278.5001 133.6179,-275 123.6179,-271.5001 123.6179,-278.5001"/>
<text text-anchor="start" x="107" y="-278.8" font-family="Times,serif" font-size="14.00" fill="#0a5040"> (</text>
</g>
<!-- state_10005 -->
<g id="state_10005" class="node">
<title>state_10005</title>
<path fill="#fffff0" stroke="#b8860b" stroke-width="1.5" d="M783.5,-194.5C783.5,-194.5 741.5,-194.5 741.5,-194.5 735.5,-194.5 729.5,-188.5 729.5,-182.5 729.5,-182.5 729.5,-155.5 729.5,-155.5 729.5,-149.5 735.5,-143.5 741.5,-143.5 741.5,-143.5 783.5,-143.5 783.5,-143.5 789.5,-143.5 795.5,-149.5 795.5,-155.5 795.5,-155.5 795.5,-182.5 795.5,-182.5 795.5,-188.5 789.5,-194.5 783.5,-194.5"/>
<g id="a_state_10005_title"><a xlink:href="#" xlink:title="state_10005_title">
<text text-anchor="start" x="739.5" y="-176.6" font-family="Calibri" font-weight="bold" font-size="13.00" fill="#8b4513">Estado </text>
<text text-anchor="start" x="778.5" y="-176.6" font-family="Calibri" font-weight="bold" font-size="13.00" fill="#8b4513">5</text>
</a>
</g>
<g id="a_state_10005_item_1"><a xlink:href="#" xlink:title="state_10005_item_1">
<text text-anchor="start" x="737.5" y="-155.8" font-family="Times,serif" font-size="14.00" fill="#bc1f29">T </text>
<text text-anchor="start" x="750.5" y="-155.8" font-family="Times,serif" font-size="14.00" fill="#0a5040">→ </text>
<text text-anchor="start" x="769.5" y="-155.8" font-family="Times,serif" font-size="14.00" fill="#f5a70a"> •</text>
<text text-anchor="start" x="779.5" y="-155.8" font-family="Times,serif" font-size="14.00" fill="#0a5040"> i</text>
</a>
</g>
</g>
<!-- state_10010 -->
<g id="state_10010" class="node">
<title>state_10010</title>
<path fill="#f5f5dc" stroke="#b8860b" stroke-width="1.5" d="M920,-194.5C920,-194.5 875,-194.5 875,-194.5 869,-194.5 863,-188.5 863,-182.5 863,-182.5 863,-155.5 863,-155.5 863,-149.5 869,-143.5 875,-143.5 875,-143.5 920,-143.5 920,-143.5 926,-143.5 932,-149.5 932,-155.5 932,-155.5 932,-182.5 932,-182.5 932,-188.5 926,-194.5 920,-194.5"/>
<path fill="none" stroke="#b8860b" stroke-width="1.5" d="M924,-198.5C924,-198.5 871,-198.5 871,-198.5 865,-198.5 859,-192.5 859,-186.5 859,-186.5 859,-151.5 859,-151.5 859,-145.5 865,-139.5 871,-139.5 871,-139.5 924,-139.5 924,-139.5 930,-139.5 936,-145.5 936,-151.5 936,-151.5 936,-186.5 936,-186.5 936,-192.5 930,-198.5 924,-198.5"/>
<g id="a_state_10010_title"><a xlink:href="#" xlink:title="state_10010_title">
<text text-anchor="start" x="871.5" y="-176.6" font-family="Calibri" font-weight="bold" font-size="13.00" fill="#8b4513">Estado </text>
<text text-anchor="start" x="910.5" y="-176.6" font-family="Calibri" font-weight="bold" font-size="13.00" fill="#8b4513">10</text>
</a>
</g>
<g id="a_state_10010_item_1"><a xlink:href="#" xlink:title="state_10010_item_1">
<text text-anchor="start" x="873" y="-155.8" font-family="Times,serif" font-size="14.00" fill="#bc1f29">T </text>
<text text-anchor="start" x="886" y="-155.8" font-family="Times,serif" font-size="14.00" fill="#0a5040">→ </text>
<text text-anchor="start" x="905" y="-155.8" font-family="Times,serif" font-size="14.00" fill="#0a5040"> i</text>
<text text-anchor="start" x="913" y="-155.8" font-family="Times,serif" font-size="14.00" fill="#f5a70a"> •</text>
</a>
</g>
</g>
<!-- state_10005&#45;&gt;state_10010 -->
<g id="trans_11" class="edge">
<title>state_10005&#45;&gt;state_10010</title>
<path fill="none" stroke="#b8860b" stroke-width="1.5" d="M795.5247,-169C811.4465,-169 830.8664,-169 848.4704,-169"/>
<polygon fill="#b8860b" stroke="#b8860b" stroke-width="1.5" points="848.5855,-172.5001 858.5854,-169 848.5854,-165.5001 848.5855,-172.5001"/>
<text text-anchor="start" x="833" y="-172.8" font-family="Times,serif" font-size="14.00" fill="#0a5040"> i</text>
</g>
<!-- state_10006 -->
<g id="state_10006" class="node">
<title>state_10006</title>
<path fill="#fffff0" stroke="#b8860b" stroke-width="1.5" d="M351.5,-84.5C351.5,-84.5 289.5,-84.5 289.5,-84.5 283.5,-84.5 277.5,-78.5 277.5,-72.5 277.5,-72.5 277.5,-45.5 277.5,-45.5 277.5,-39.5 283.5,-33.5 289.5,-33.5 289.5,-33.5 351.5,-33.5 351.5,-33.5 357.5,-33.5 363.5,-39.5 363.5,-45.5 363.5,-45.5 363.5,-72.5 363.5,-72.5 363.5,-78.5 357.5,-84.5 351.5,-84.5"/>
<g id="a_state_10006_title"><a xlink:href="#" xlink:title="state_10006_title">
<text text-anchor="start" x="297.5" y="-66.6" font-family="Calibri" font-weight="bold" font-size="13.00" fill="#8b4513">Estado </text>
<text text-anchor="start" x="336.5" y="-66.6" font-family="Calibri" font-weight="bold" font-size="13.00" fill="#8b4513">6</text>
</a>
</g>
<g id="a_state_10006_item_1"><a xlink:href="#" xlink:title="state_10006_item_1">
<text text-anchor="start" x="285.5" y="-45.8" font-family="Times,serif" font-size="14.00" fill="#bc1f29">E&#39; </text>
<text text-anchor="start" x="301.5" y="-45.8" font-family="Times,serif" font-size="14.00" fill="#0a5040">→ </text>
<text text-anchor="start" x="320.5" y="-45.8" font-family="Times,serif" font-size="14.00" fill="#bc1f29"> E</text>
<text text-anchor="start" x="333.5" y="-45.8" font-family="Times,serif" font-size="14.00" fill="#f5a70a"> •</text>
<text text-anchor="start" x="343.5" y="-45.8" font-family="Times,serif" font-size="14.00" fill="#0a5040"> $</text>
</a>
</g>
</g>
<!-- state_10011 -->
<g id="state_10011" class="node">
<title>state_10011</title>
<path fill="#f5f5dc" stroke="#b8860b" stroke-width="1.5" d="M497.5,-84.5C497.5,-84.5 435.5,-84.5 435.5,-84.5 429.5,-84.5 423.5,-78.5 423.5,-72.5 423.5,-72.5 423.5,-45.5 423.5,-45.5 423.5,-39.5 429.5,-33.5 435.5,-33.5 435.5,-33.5 497.5,-33.5 497.5,-33.5 503.5,-33.5 509.5,-39.5 509.5,-45.5 509.5,-45.5 509.5,-72.5 509.5,-72.5 509.5,-78.5 503.5,-84.5 497.5,-84.5"/>
<path fill="none" stroke="#b8860b" stroke-width="1.5" d="M501.5,-88.5C501.5,-88.5 431.5,-88.5 431.5,-88.5 425.5,-88.5 419.5,-82.5 419.5,-76.5 419.5,-76.5 419.5,-41.5 419.5,-41.5 419.5,-35.5 425.5,-29.5 431.5,-29.5 431.5,-29.5 501.5,-29.5 501.5,-29.5 507.5,-29.5 513.5,-35.5 513.5,-41.5 513.5,-41.5 513.5,-76.5 513.5,-76.5 513.5,-82.5 507.5,-88.5 501.5,-88.5"/>
<g id="a_state_10011_title"><a xlink:href="#" xlink:title="state_10011_title">
<text text-anchor="start" x="440" y="-66.6" font-family="Calibri" font-weight="bold" font-size="13.00" fill="#8b4513">Estado </text>
<text text-anchor="start" x="479" y="-66.6" font-family="Calibri" font-weight="bold" font-size="13.00" fill="#8b4513">11</text>
</a>
</g>
<g id="a_state_10011_item_1"><a xlink:href="#" xlink:title="state_10011_item_1">
<text text-anchor="start" x="431.5" y="-45.8" font-family="Times,serif" font-size="14.00" fill="#bc1f29">E&#39; </text>
<text text-anchor="start" x="447.5" y="-45.8" font-family="Times,serif" font-size="14.00" fill="#0a5040">→ </text>
<text text-anchor="start" x="466.5" y="-45.8" font-family="Times,serif" font-size="14.00" fill="#bc1f29"> E</text>
<text text-anchor="start" x="479.5" y="-45.8" font-family="Times,serif" font-size="14.00" fill="#0a5040"> $</text>
<text text-anchor="start" x="491.5" y="-45.8" font-family="Times,serif" font-size="14.00" fill="#f5a70a"> •</text>
</a>
</g>
</g>
<!-- state_10006&#45;&gt;state_10011 -->
<g id="trans_12" class="edge">
<title>state_10006&#45;&gt;state_10011</title>
<path fill="none" stroke="#b8860b" stroke-width="1.5" d="M363.5152,-59C377.7988,-59 393.9361,-59 409.1264,-59"/>
<polygon fill="#b8860b" stroke="#b8860b" stroke-width="1.5" points="409.457,-62.5001 419.457,-59 409.457,-55.5001 409.457,-62.5001"/>
<text text-anchor="start" x="387.5" y="-62.8" font-family="Times,serif" font-size="14.00" fill="#0a5040"> $</text>
</g>
<!-- state_10007 -->
<g id="state_10007" class="node">
<title>state_10007</title>
<path fill="#fffff0" stroke="#b8860b" stroke-width="1.5" d="M503,-165.5C503,-165.5 430,-165.5 430,-165.5 424,-165.5 418,-159.5 418,-153.5 418,-153.5 418,-126.5 418,-126.5 418,-120.5 424,-114.5 430,-114.5 430,-114.5 503,-114.5 503,-114.5 509,-114.5 515,-120.5 515,-126.5 515,-126.5 515,-153.5 515,-153.5 515,-159.5 509,-165.5 503,-165.5"/>
<g id="a_state_10007_title"><a xlink:href="#" xlink:title="state_10007_title">
<text text-anchor="start" x="444" y="-147.6" font-family="Calibri" font-weight="bold" font-size="13.00" fill="#8b4513">Estado </text>
<text text-anchor="start" x="483" y="-147.6" font-family="Calibri" font-weight="bold" font-size="13.00" fill="#8b4513">7</text>
</a>
</g>
<g id="a_state_10007_item_1"><a xlink:href="#" xlink:title="state_10007_item_1">
<text text-anchor="start" x="426.5" y="-126.8" font-family="Times,serif" font-size="14.00" fill="#bc1f29">E </text>
<text text-anchor="start" x="439.5" y="-126.8" font-family="Times,serif" font-size="14.00" fill="#0a5040">→ </text>
<text text-anchor="start" x="458.5" y="-126.8" font-family="Times,serif" font-size="14.00" fill="#bc1f29"> E</text>
<text text-anchor="start" x="471.5" y="-126.8" font-family="Times,serif" font-size="14.00" fill="#f5a70a"> •</text>
<text text-anchor="start" x="481.5" y="-126.8" font-family="Times,serif" font-size="14.00" fill="#0a5040"> +</text>
<text text-anchor="start" x="494.5" y="-126.8" font-family="Times,serif" font-size="14.00" fill="#bc1f29"> T</text>
</a>
</g>
</g>
<!-- state_10012 -->
<g id="state_10012" class="node">
<title>state_10012</title>
<path fill="#fffff0" stroke="#b8860b" stroke-width="1.5" d="M649,-126.5C649,-126.5 576,-126.5 576,-126.5 570,-126.5 564,-120.5 564,-114.5 564,-114.5 564,-87.5 564,-87.5 564,-81.5 570,-75.5 576,-75.5 576,-75.5 649,-75.5 649,-75.5 655,-75.5 661,-81.5 661,-87.5 661,-87.5 661,-114.5 661,-114.5 661,-120.5 655,-126.5 649,-126.5"/>
<g id="a_state_10012_title"><a xlink:href="#" xlink:title="state_10012_title">
<text text-anchor="start" x="586.5" y="-108.6" font-family="Calibri" font-weight="bold" font-size="13.00" fill="#8b4513">Estado </text>
<text text-anchor="start" x="625.5" y="-108.6" font-family="Calibri" font-weight="bold" font-size="13.00" fill="#8b4513">12</text>
</a>
</g>
<g id="a_state_10012_item_1"><a xlink:href="#" xlink:title="state_10012_item_1">
<text text-anchor="start" x="572.5" y="-87.8" font-family="Times,serif" font-size="14.00" fill="#bc1f29">E </text>
<text text-anchor="start" x="585.5" y="-87.8" font-family="Times,serif" font-size="14.00" fill="#0a5040">→ </text>
<text text-anchor="start" x="604.5" y="-87.8" font-family="Times,serif" font-size="14.00" fill="#bc1f29"> E</text>
<text text-anchor="start" x="617.5" y="-87.8" font-family="Times,serif" font-size="14.00" fill="#0a5040"> +</text>
<text text-anchor="start" x="630.5" y="-87.8" font-family="Times,serif" font-size="14.00" fill="#f5a70a"> •</text>
<text text-anchor="start" x="640.5" y="-87.8" font-family="Times,serif" font-size="14.00" fill="#bc1f29"> T</text>
</a>
</g>
</g>
<!-- state_10007&#45;&gt;state_10012 -->
<g id="trans_13" class="edge">
<title>state_10007&#45;&gt;state_10012</title>
<path fill="none" stroke="#b8860b" stroke-width="1.5" d="M515.1159,-127.0136C527.5432,-123.694 541.0356,-120.0898 553.9059,-116.6519"/>
<polygon fill="#b8860b" stroke="#b8860b" stroke-width="1.5" points="554.8406,-120.025 563.5986,-114.0627 553.0341,-113.2621 554.8406,-120.025"/>
<text text-anchor="start" x="533" y="-125.8" font-family="Times,serif" font-size="14.00" fill="#0a5040"> +</text>
</g>
<!-- state_10013 -->
<g id="state_10013" class="node">
<title>state_10013</title>
<path fill="#fffff0" stroke="#b8860b" stroke-width="1.5" d="M353,-359.5C353,-359.5 288,-359.5 288,-359.5 282,-359.5 276,-353.5 276,-347.5 276,-347.5 276,-320.5 276,-320.5 276,-314.5 282,-308.5 288,-308.5 288,-308.5 353,-308.5 353,-308.5 359,-308.5 365,-314.5 365,-320.5 365,-320.5 365,-347.5 365,-347.5 365,-353.5 359,-359.5 353,-359.5"/>
<g id="a_state_10013_title"><a xlink:href="#" xlink:title="state_10013_title">
<text text-anchor="start" x="294.5" y="-341.6" font-family="Calibri" font-weight="bold" font-size="13.00" fill="#8b4513">Estado </text>
<text text-anchor="start" x="333.5" y="-341.6" font-family="Calibri" font-weight="bold" font-size="13.00" fill="#8b4513">13</text>
</a>
</g>
<g id="a_state_10013_item_1"><a xlink:href="#" xlink:title="state_10013_item_1">
<text text-anchor="start" x="284.5" y="-320.8" font-family="Times,serif" font-size="14.00" fill="#bc1f29">T </text>
<text text-anchor="start" x="297.5" y="-320.8" font-family="Times,serif" font-size="14.00" fill="#0a5040">→ </text>
<text text-anchor="start" x="316.5" y="-320.8" font-family="Times,serif" font-size="14.00" fill="#0a5040"> (</text>
<text text-anchor="start" x="325.5" y="-320.8" font-family="Times,serif" font-size="14.00" fill="#bc1f29"> E</text>
<text text-anchor="start" x="338.5" y="-320.8" font-family="Times,serif" font-size="14.00" fill="#f5a70a"> •</text>
<text text-anchor="start" x="348.5" y="-320.8" font-family="Times,serif" font-size="14.00" fill="#0a5040"> )</text>
</a>
</g>
</g>
<!-- state_10015 -->
<g id="state_10015" class="node">
<title>state_10015</title>
<path fill="#f5f5dc" stroke="#b8860b" stroke-width="1.5" d="M499,-359.5C499,-359.5 434,-359.5 434,-359.5 428,-359.5 422,-353.5 422,-347.5 422,-347.5 422,-320.5 422,-320.5 422,-314.5 428,-308.5 434,-308.5 434,-308.5 499,-308.5 499,-308.5 505,-308.5 511,-314.5 511,-320.5 511,-320.5 511,-347.5 511,-347.5 511,-353.5 505,-359.5 499,-359.5"/>
<path fill="none" stroke="#b8860b" stroke-width="1.5" d="M503,-363.5C503,-363.5 430,-363.5 430,-363.5 424,-363.5 418,-357.5 418,-351.5 418,-351.5 418,-316.5 418,-316.5 418,-310.5 424,-304.5 430,-304.5 430,-304.5 503,-304.5 503,-304.5 509,-304.5 515,-310.5 515,-316.5 515,-316.5 515,-351.5 515,-351.5 515,-357.5 509,-363.5 503,-363.5"/>
<g id="a_state_10015_title"><a xlink:href="#" xlink:title="state_10015_title">
<text text-anchor="start" x="440.5" y="-341.6" font-family="Calibri" font-weight="bold" font-size="13.00" fill="#8b4513">Estado </text>
<text text-anchor="start" x="479.5" y="-341.6" font-family="Calibri" font-weight="bold" font-size="13.00" fill="#8b4513">15</text>
</a>
</g>
<g id="a_state_10015_item_1"><a xlink:href="#" xlink:title="state_10015_item_1">
<text text-anchor="start" x="430.5" y="-320.8" font-family="Times,serif" font-size="14.00" fill="#bc1f29">T </text>
<text text-anchor="start" x="443.5" y="-320.8" font-family="Times,serif" font-size="14.00" fill="#0a5040">→ </text>
<text text-anchor="start" x="462.5" y="-320.8" font-family="Times,serif" font-size="14.00" fill="#0a5040"> (</text>
<text text-anchor="start" x="471.5" y="-320.8" font-family="Times,serif" font-size="14.00" fill="#bc1f29"> E</text>
<text text-anchor="start" x="484.5" y="-320.8" font-family="Times,serif" font-size="14.00" fill="#0a5040"> )</text>
<text text-anchor="start" x="493.5" y="-320.8" font-family="Times,serif" font-size="14.00" fill="#f5a70a"> •</text>
</a>
</g>
</g>
<!-- state_10013&#45;&gt;state_10015 -->
<g id="trans_20" class="edge">
<title>state_10013&#45;&gt;state_10015</title>
<path fill="none" stroke="#b8860b" stroke-width="1.5" d="M365.0981,-334C378.5267,-334 393.4745,-334 407.6775,-334"/>
<polygon fill="#b8860b" stroke="#b8860b" stroke-width="1.5" points="407.8556,-337.5001 417.8556,-334 407.8555,-330.5001 407.8556,-337.5001"/>
<text text-anchor="start" x="389" y="-337.8" font-family="Times,serif" font-size="14.00" fill="#0a5040"> )</text>
</g>
<!-- state_10001 -->
<g id="state_10001" class="node">
<title>state_10001</title>
<path fill="#fffff0" stroke="#b8860b" stroke-width="1.5" d="M209.5,-146.5C209.5,-146.5 147.5,-146.5 147.5,-146.5 141.5,-146.5 135.5,-140.5 135.5,-134.5 135.5,-134.5 135.5,-107.5 135.5,-107.5 135.5,-101.5 141.5,-95.5 147.5,-95.5 147.5,-95.5 209.5,-95.5 209.5,-95.5 215.5,-95.5 221.5,-101.5 221.5,-107.5 221.5,-107.5 221.5,-134.5 221.5,-134.5 221.5,-140.5 215.5,-146.5 209.5,-146.5"/>
<g id="a_state_10001_title"><a xlink:href="#" xlink:title="state_10001_title">
<text text-anchor="start" x="155.5" y="-128.6" font-family="Calibri" font-weight="bold" font-size="13.00" fill="#8b4513">Estado </text>
<text text-anchor="start" x="194.5" y="-128.6" font-family="Calibri" font-weight="bold" font-size="13.00" fill="#8b4513">1</text>
</a>
</g>
<g id="a_state_10001_item_1"><a xlink:href="#" xlink:title="state_10001_item_1">
<text text-anchor="start" x="143.5" y="-107.8" font-family="Times,serif" font-size="14.00" fill="#bc1f29">E&#39; </text>
<text text-anchor="start" x="159.5" y="-107.8" font-family="Times,serif" font-size="14.00" fill="#0a5040">→ </text>
<text text-anchor="start" x="178.5" y="-107.8" font-family="Times,serif" font-size="14.00" fill="#f5a70a"> •</text>
<text text-anchor="start" x="188.5" y="-107.8" font-family="Times,serif" font-size="14.00" fill="#bc1f29"> E</text>
<text text-anchor="start" x="201.5" y="-107.8" font-family="Times,serif" font-size="14.00" fill="#0a5040"> $</text>
</a>
</g>
</g>
<!-- state_10001&#45;&gt;state_10006 -->
<g id="trans_2" class="edge">
<title>state_10001&#45;&gt;state_10006</title>
<path fill="none" stroke="#b8860b" stroke-width="1.5" d="M221.7682,-100.6444C228.1965,-97.7014 234.7576,-94.7425 241,-92 249.7328,-88.1634 259.0531,-84.1886 268.1249,-80.3828"/>
<polygon fill="#b8860b" stroke="#b8860b" stroke-width="1.5" points="269.5723,-83.5715 277.4538,-76.491 266.8771,-77.1111 269.5723,-83.5715"/>
<text text-anchor="start" x="241" y="-95.8" font-family="Times,serif" font-size="14.00" fill="#bc1f29"> E</text>
</g>
<!-- state_10002 -->
<g id="state_10002" class="node">
<title>state_10002</title>
<path fill="#fffff0" stroke="#b8860b" stroke-width="1.5" d="M357,-205.5C357,-205.5 284,-205.5 284,-205.5 278,-205.5 272,-199.5 272,-193.5 272,-193.5 272,-166.5 272,-166.5 272,-160.5 278,-154.5 284,-154.5 284,-154.5 357,-154.5 357,-154.5 363,-154.5 369,-160.5 369,-166.5 369,-166.5 369,-193.5 369,-193.5 369,-199.5 363,-205.5 357,-205.5"/>
<g id="a_state_10002_title"><a xlink:href="#" xlink:title="state_10002_title">
<text text-anchor="start" x="298" y="-187.6" font-family="Calibri" font-weight="bold" font-size="13.00" fill="#8b4513">Estado </text>
<text text-anchor="start" x="337" y="-187.6" font-family="Calibri" font-weight="bold" font-size="13.00" fill="#8b4513">2</text>
</a>
</g>
<g id="a_state_10002_item_1"><a xlink:href="#" xlink:title="state_10002_item_1">
<text text-anchor="start" x="280.5" y="-166.8" font-family="Times,serif" font-size="14.00" fill="#bc1f29">E </text>
<text text-anchor="start" x="293.5" y="-166.8" font-family="Times,serif" font-size="14.00" fill="#0a5040">→ </text>
<text text-anchor="start" x="312.5" y="-166.8" font-family="Times,serif" font-size="14.00" fill="#f5a70a"> •</text>
<text text-anchor="start" x="322.5" y="-166.8" font-family="Times,serif" font-size="14.00" fill="#bc1f29"> E</text>
<text text-anchor="start" x="335.5" y="-166.8" font-family="Times,serif" font-size="14.00" fill="#0a5040"> +</text>
<text text-anchor="start" x="348.5" y="-166.8" font-family="Times,serif" font-size="14.00" fill="#bc1f29"> T</text>
</a>
</g>
</g>
<!-- state_10001&#45;&gt;state_10002 -->
<g id="trans_3" class="edge">
<title>state_10001&#45;&gt;state_10002</title>
<path fill="none" stroke="#b8860b" stroke-width="1.5" d="M221.8763,-139.0225C234.7324,-144.3642 249.0202,-150.3006 262.6396,-155.9594"/>
<polygon fill="#b8860b" stroke="#b8860b" stroke-width="1.5" points="261.3582,-159.2171 271.9358,-159.8219 264.0441,-152.7528 261.3582,-159.2171"/>
<text text-anchor="start" x="242.5" y="-156.8" font-family="Times,serif" font-size="14.00" fill="#0a5040"> ε</text>
</g>
<!-- state_10003 -->
<g id="state_10003" class="node">
<title>state_10003</title>
<path fill="#fffff0" stroke="#b8860b" stroke-width="1.5" d="M490,-238.5C490,-238.5 443,-238.5 443,-238.5 437,-238.5 431,-232.5 431,-226.5 431,-226.5 431,-199.5 431,-199.5 431,-193.5 437,-187.5 443,-187.5 443,-187.5 490,-187.5 490,-187.5 496,-187.5 502,-193.5 502,-199.5 502,-199.5 502,-226.5 502,-226.5 502,-232.5 496,-238.5 490,-238.5"/>
<g id="a_state_10003_title"><a xlink:href="#" xlink:title="state_10003_title">
<text text-anchor="start" x="444" y="-220.6" font-family="Calibri" font-weight="bold" font-size="13.00" fill="#8b4513">Estado </text>
<text text-anchor="start" x="483" y="-220.6" font-family="Calibri" font-weight="bold" font-size="13.00" fill="#8b4513">3</text>
</a>
</g>
<g id="a_state_10003_item_1"><a xlink:href="#" xlink:title="state_10003_item_1">
<text text-anchor="start" x="439.5" y="-199.8" font-family="Times,serif" font-size="14.00" fill="#bc1f29">E </text>
<text text-anchor="start" x="452.5" y="-199.8" font-family="Times,serif" font-size="14.00" fill="#0a5040">→ </text>
<text text-anchor="start" x="471.5" y="-199.8" font-family="Times,serif" font-size="14.00" fill="#f5a70a"> •</text>
<text text-anchor="start" x="481.5" y="-199.8" font-family="Times,serif" font-size="14.00" fill="#bc1f29"> T</text>
</a>
</g>
</g>
<!-- state_10001&#45;&gt;state_10003 -->
<g id="trans_1" class="edge">
<title>state_10001&#45;&gt;state_10003</title>
<path fill="none" stroke="#b8860b" stroke-width="1.5" d="M221.5882,-116.0953C261.1932,-113.231 320.8784,-113.1268 369,-131 396.1613,-141.0882 396.6981,-154.3598 418,-174 420.4228,-176.2338 422.9568,-178.489 425.5409,-180.7286"/>
<polygon fill="#b8860b" stroke="#b8860b" stroke-width="1.5" points="423.4887,-183.5769 433.3834,-187.3643 428.0102,-178.2331 423.4887,-183.5769"/>
<text text-anchor="start" x="315.5" y="-134.8" font-family="Times,serif" font-size="14.00" fill="#0a5040"> ε</text>
</g>
<!-- state_10002&#45;&gt;state_10007 -->
<g id="trans_4" class="edge">
<title>state_10002&#45;&gt;state_10007</title>
<path fill="none" stroke="#b8860b" stroke-width="1.5" d="M369.1159,-166.6806C381.5432,-163.2758 395.0356,-159.5793 407.9059,-156.0532"/>
<polygon fill="#b8860b" stroke="#b8860b" stroke-width="1.5" points="408.8789,-159.4157 417.5986,-153.3976 407.0292,-152.6645 408.8789,-159.4157"/>
<text text-anchor="start" x="387" y="-165.8" font-family="Times,serif" font-size="14.00" fill="#bc1f29"> E</text>
</g>
<!-- state_10002&#45;&gt;state_10002 -->
<g id="trans_5" class="edge">
<title>state_10002&#45;&gt;state_10002</title>
<path fill="none" stroke="#b8860b" stroke-width="1.5" d="M307.0297,-205.9017C306.588,-215.5544 311.0781,-223.5 320.5,-223.5 326.2415,-223.5 330.1516,-220.5495 332.2303,-216.0602"/>
<polygon fill="#b8860b" stroke="#b8860b" stroke-width="1.5" points="335.7317,-216.3491 333.9703,-205.9017 328.8322,-215.1672 335.7317,-216.3491"/>
<text text-anchor="start" x="315.5" y="-227.3" font-family="Times,serif" font-size="14.00" fill="#0a5040"> ε</text>
</g>
<!-- state_10002&#45;&gt;state_10003 -->
<g id="trans_6" class="edge">
<title>state_10002&#45;&gt;state_10003</title>
<path fill="none" stroke="#b8860b" stroke-width="1.5" d="M369.1159,-190.9885C385.74,-194.746 404.2702,-198.9344 420.6674,-202.6406"/>
<polygon fill="#b8860b" stroke="#b8860b" stroke-width="1.5" points="420.0396,-206.0869 430.5652,-204.8778 421.5829,-199.2591 420.0396,-206.0869"/>
<text text-anchor="start" x="388.5" y="-200.8" font-family="Times,serif" font-size="14.00" fill="#0a5040"> ε</text>
</g>
<!-- state_10003&#45;&gt;state_10004 -->
<g id="trans_8" class="edge">
<title>state_10003&#45;&gt;state_10004</title>
<path fill="none" stroke="#b8860b" stroke-width="1.5" d="M449.441,-238.7457C439.3544,-254.7478 426.862,-276.0134 418,-296 407.2315,-320.2862 417.1167,-332.6826 400,-353 390.0104,-364.8576 384.0668,-365.3411 369,-369 270.4008,-392.9444 156.8792,-341.6038 93.6271,-305.7921"/>
<polygon fill="#b8860b" stroke="#b8860b" stroke-width="1.5" points="95.0797,-302.5897 84.6673,-300.6319 91.5861,-308.6557 95.0797,-302.5897"/>
<text text-anchor="start" x="242.5" y="-371.8" font-family="Times,serif" font-size="14.00" fill="#0a5040"> ε</text>
</g>
<!-- state_10003&#45;&gt;state_10005 -->
<g id="trans_9" class="edge">
<title>state_10003&#45;&gt;state_10005</title>
<path fill="none" stroke="#b8860b" stroke-width="1.5" d="M502.3945,-197.7243C520.5231,-190.7247 543.063,-183.0903 564,-179 616.8051,-168.6838 678.9255,-167.2247 719.4235,-167.6603"/>
<polygon fill="#b8860b" stroke="#b8860b" stroke-width="1.5" points="719.4356,-171.1608 729.4874,-167.8126 719.5416,-164.1616 719.4356,-171.1608"/>
<text text-anchor="start" x="607.5" y="-182.8" font-family="Times,serif" font-size="14.00" fill="#0a5040"> ε</text>
</g>
<!-- state_10008 -->
<g id="state_10008" class="node">
<title>state_10008</title>
<path fill="#f5f5dc" stroke="#b8860b" stroke-width="1.5" d="M636,-257.5C636,-257.5 589,-257.5 589,-257.5 583,-257.5 577,-251.5 577,-245.5 577,-245.5 577,-218.5 577,-218.5 577,-212.5 583,-206.5 589,-206.5 589,-206.5 636,-206.5 636,-206.5 642,-206.5 648,-212.5 648,-218.5 648,-218.5 648,-245.5 648,-245.5 648,-251.5 642,-257.5 636,-257.5"/>
<path fill="none" stroke="#b8860b" stroke-width="1.5" d="M640,-261.5C640,-261.5 585,-261.5 585,-261.5 579,-261.5 573,-255.5 573,-249.5 573,-249.5 573,-214.5 573,-214.5 573,-208.5 579,-202.5 585,-202.5 585,-202.5 640,-202.5 640,-202.5 646,-202.5 652,-208.5 652,-214.5 652,-214.5 652,-249.5 652,-249.5 652,-255.5 646,-261.5 640,-261.5"/>
<g id="a_state_10008_title"><a xlink:href="#" xlink:title="state_10008_title">
<text text-anchor="start" x="590" y="-239.6" font-family="Calibri" font-weight="bold" font-size="13.00" fill="#8b4513">Estado </text>
<text text-anchor="start" x="629" y="-239.6" font-family="Calibri" font-weight="bold" font-size="13.00" fill="#8b4513">8</text>
</a>
</g>
<g id="a_state_10008_item_1"><a xlink:href="#" xlink:title="state_10008_item_1">
<text text-anchor="start" x="585.5" y="-218.8" font-family="Times,serif" font-size="14.00" fill="#bc1f29">E </text>
<text text-anchor="start" x="598.5" y="-218.8" font-family="Times,serif" font-size="14.00" fill="#0a5040">→ </text>
<text text-anchor="start" x="617.5" y="-218.8" font-family="Times,serif" font-size="14.00" fill="#bc1f29"> T</text>
<text text-anchor="start" x="630.5" y="-218.8" font-family="Times,serif" font-size="14.00" fill="#f5a70a"> •</text>
</a>
</g>
</g>
<!-- state_10003&#45;&gt;state_10008 -->
<g id="trans_7" class="edge">
<title>state_10003&#45;&gt;state_10008</title>
<path fill="none" stroke="#b8860b" stroke-width="1.5" d="M502.2156,-217.6479C520.4035,-220.0148 542.8124,-222.9311 562.6694,-225.5152"/>
<polygon fill="#b8860b" stroke="#b8860b" stroke-width="1.5" points="562.4168,-229.0118 572.7849,-226.8316 563.3202,-222.0703 562.4168,-229.0118"/>
<text text-anchor="start" x="533" y="-226.8" font-family="Times,serif" font-size="14.00" fill="#bc1f29"> T</text>
</g>
<!-- state_10009&#45;&gt;state_10013 -->
<g id="trans_14" class="edge">
<title>state_10009&#45;&gt;state_10013</title>
<path fill="none" stroke="#b8860b" stroke-width="1.5" d="M223.0401,-293.5061C236.7846,-299.2168 252.0728,-305.569 266.3886,-311.5171"/>
<polygon fill="#b8860b" stroke="#b8860b" stroke-width="1.5" points="265.0522,-314.7519 275.6297,-315.3567 267.738,-308.2876 265.0522,-314.7519"/>
<text text-anchor="start" x="241" y="-309.8" font-family="Times,serif" font-size="14.00" fill="#bc1f29"> E</text>
</g>
<!-- state_10009&#45;&gt;state_10002 -->
<g id="trans_15" class="edge">
<title>state_10009&#45;&gt;state_10002</title>
<path fill="none" stroke="#b8860b" stroke-width="1.5" d="M216.9272,-249.2916C234.2914,-237.6748 254.9742,-223.8377 273.2746,-211.5945"/>
<polygon fill="#b8860b" stroke="#b8860b" stroke-width="1.5" points="275.6767,-214.1985 282.042,-205.7289 271.7843,-208.3804 275.6767,-214.1985"/>
<text text-anchor="start" x="242.5" y="-233.8" font-family="Times,serif" font-size="14.00" fill="#0a5040"> ε</text>
</g>
<!-- state_10009&#45;&gt;state_10003 -->
<g id="trans_16" class="edge">
<title>state_10009&#45;&gt;state_10003</title>
<path fill="none" stroke="#b8860b" stroke-width="1.5" d="M223.2578,-271.2561C262.1782,-267.3859 319.8772,-260.1629 369,-248 386.3484,-243.7045 404.92,-237.4699 421.151,-231.4488"/>
<polygon fill="#b8860b" stroke="#b8860b" stroke-width="1.5" points="422.8114,-234.5626 430.9227,-227.7467 420.3313,-228.0166 422.8114,-234.5626"/>
<text text-anchor="start" x="315.5" y="-268.8" font-family="Times,serif" font-size="14.00" fill="#0a5040"> ε</text>
</g>
<!-- state_10012&#45;&gt;state_10004 -->
<g id="trans_18" class="edge">
<title>state_10012&#45;&gt;state_10004</title>
<path fill="none" stroke="#b8860b" stroke-width="1.5" d="M592.5573,-75.2521C566.9189,-45.3283 519.3584,0 466.5,0 178.5,0 178.5,0 178.5,0 125.8742,0 74.4231,-164.8036 53.8658,-239.2502"/>
<polygon fill="#b8860b" stroke="#b8860b" stroke-width="1.5" points="50.4263,-238.5602 51.1733,-249.1287 57.1799,-240.4011 50.4263,-238.5602"/>
<text text-anchor="start" x="315.5" y="-3.8" font-family="Times,serif" font-size="14.00" fill="#0a5040"> ε</text>
</g>
<!-- state_10012&#45;&gt;state_10005 -->
<g id="trans_19" class="edge">
<title>state_10012&#45;&gt;state_10005</title>
<path fill="none" stroke="#b8860b" stroke-width="1.5" d="M661.2007,-123.0777C680.1409,-131.6639 701.6432,-141.4116 719.9499,-149.7106"/>
<polygon fill="#b8860b" stroke="#b8860b" stroke-width="1.5" points="718.6485,-152.9634 729.2014,-153.9046 721.5387,-146.588 718.6485,-152.9634"/>
<text text-anchor="start" x="680.5" y="-141.8" font-family="Times,serif" font-size="14.00" fill="#0a5040"> ε</text>
</g>
<!-- state_10014 -->
<g id="state_10014" class="node">
<title>state_10014</title>
<path fill="#f5f5dc" stroke="#b8860b" stroke-width="1.5" d="M799,-121.5C799,-121.5 726,-121.5 726,-121.5 720,-121.5 714,-115.5 714,-109.5 714,-109.5 714,-82.5 714,-82.5 714,-76.5 720,-70.5 726,-70.5 726,-70.5 799,-70.5 799,-70.5 805,-70.5 811,-76.5 811,-82.5 811,-82.5 811,-109.5 811,-109.5 811,-115.5 805,-121.5 799,-121.5"/>
<path fill="none" stroke="#b8860b" stroke-width="1.5" d="M803,-125.5C803,-125.5 722,-125.5 722,-125.5 716,-125.5 710,-119.5 710,-113.5 710,-113.5 710,-78.5 710,-78.5 710,-72.5 716,-66.5 722,-66.5 722,-66.5 803,-66.5 803,-66.5 809,-66.5 815,-72.5 815,-78.5 815,-78.5 815,-113.5 815,-113.5 815,-119.5 809,-125.5 803,-125.5"/>
<g id="a_state_10014_title"><a xlink:href="#" xlink:title="state_10014_title">
<text text-anchor="start" x="736.5" y="-103.6" font-family="Calibri" font-weight="bold" font-size="13.00" fill="#8b4513">Estado </text>
<text text-anchor="start" x="775.5" y="-103.6" font-family="Calibri" font-weight="bold" font-size="13.00" fill="#8b4513">14</text>
</a>
</g>
<g id="a_state_10014_item_1"><a xlink:href="#" xlink:title="state_10014_item_1">
<text text-anchor="start" x="722.5" y="-82.8" font-family="Times,serif" font-size="14.00" fill="#bc1f29">E </text>
<text text-anchor="start" x="735.5" y="-82.8" font-family="Times,serif" font-size="14.00" fill="#0a5040">→ </text>
<text text-anchor="start" x="754.5" y="-82.8" font-family="Times,serif" font-size="14.00" fill="#bc1f29"> E</text>
<text text-anchor="start" x="767.5" y="-82.8" font-family="Times,serif" font-size="14.00" fill="#0a5040"> +</text>
<text text-anchor="start" x="780.5" y="-82.8" font-family="Times,serif" font-size="14.00" fill="#bc1f29"> T</text>
<text text-anchor="start" x="793.5" y="-82.8" font-family="Times,serif" font-size="14.00" fill="#f5a70a"> •</text>
</a>
</g>
</g>
<!-- state_10012&#45;&gt;state_10014 -->
<g id="trans_17" class="edge">
<title>state_10012&#45;&gt;state_10014</title>
<path fill="none" stroke="#b8860b" stroke-width="1.5" d="M661.2007,-99.3766C673.4858,-98.9671 686.8487,-98.5217 699.7185,-98.0927"/>
<polygon fill="#b8860b" stroke="#b8860b" stroke-width="1.5" points="700.0261,-101.5845 709.9039,-97.7532 699.7929,-94.5884 700.0261,-101.5845"/>
<text text-anchor="start" x="679" y="-102.8" font-family="Times,serif" font-size="14.00" fill="#bc1f29"> T</text>
</g>
</g>
</svg>
