<?xml version="1.0" encoding="UTF-8" standalone="no"?>
<!DOCTYPE svg PUBLIC "-//W3C//DTD SVG 1.1//EN"
 "http://www.w3.org/Graphics/SVG/1.1/DTD/svg11.dtd">
<!-- Generated by graphviz version 2.40.1 (20161225.0304)
 -->
<!-- Title: DFA Pages: 1 -->
<svg width="748pt" height="233pt"
 viewBox="0.00 0.00 748.00 233.00" xmlns="http://www.w3.org/2000/svg" xmlns:xlink="http://www.w3.org/1999/xlink">
<g id="graph0" class="graph" transform="scale(1 1) rotate(0) translate(4 229)">
<title>DFA</title>
<!-- state_2 -->
<g id="state_2" class="node">
<title>state_2</title>
<path fill="#fffff0" stroke="#b8860b" stroke-width="1.5" d="M244.5,-221C244.5,-221 177.5,-221 177.5,-221 171.5,-221 165.5,-215 165.5,-209 165.5,-209 165.5,-176 165.5,-176 165.5,-170 171.5,-164 177.5,-164 177.5,-164 244.5,-164 244.5,-164 250.5,-164 256.5,-170 256.5,-176 256.5,-176 256.5,-209 256.5,-209 256.5,-215 250.5,-221 244.5,-221"/>
<g id="a_state_2_title"><a xlink:href="#" xlink:title="state_2_title">
<text text-anchor="start" x="188.5" y="-200.1" font-family="Calibri" font-weight="bold" font-size="13.00" fill="#8b4513">Estado </text>
<text text-anchor="start" x="227.5" y="-200.1" font-family="Calibri" font-weight="bold" font-size="13.00" fill="#8b4513">2</text>
</a>
</g>
<g id="a_state_2_item_1"><a xlink:href="#" xlink:title="state_2_item_1">
<text text-anchor="start" x="177" y="-179.3" font-family="Times,serif" font-size="14.00" fill="#bc1f29">S&#39; </text>
<text text-anchor="start" x="192" y="-179.3" font-family="Times,serif" font-size="14.00" fill="#0a5040">→ </text>
<text text-anchor="start" x="211" y="-179.3" font-family="Times,serif" font-size="14.00" fill="#bc1f29"> S</text>
<text text-anchor="start" x="224" y="-179.3" font-family="Times,serif" font-size="14.00" fill="#f5a70a"> •</text>
<text text-anchor="start" x="234" y="-179.3" font-family="Times,serif" font-size="14.00" fill="#0a5040"> $</text>
</a>
</g>
</g>
<!-- state_4 -->
<g id="state_4" class="node">
<title>state_4</title>
<path fill="#fffff0" stroke="#b8860b" stroke-width="1.5" d="M401.5,-221C401.5,-221 334.5,-221 334.5,-221 328.5,-221 322.5,-215 322.5,-209 322.5,-209 322.5,-176 322.5,-176 322.5,-170 328.5,-164 334.5,-164 334.5,-164 401.5,-164 401.5,-164 407.5,-164 413.5,-170 413.5,-176 413.5,-176 413.5,-209 413.5,-209 413.5,-215 407.5,-221 401.5,-221"/>
<path fill="none" stroke="#b8860b" stroke-width="1.5" d="M405.5,-225C405.5,-225 330.5,-225 330.5,-225 324.5,-225 318.5,-219 318.5,-213 318.5,-213 318.5,-172 318.5,-172 318.5,-166 324.5,-160 330.5,-160 330.5,-160 405.5,-160 405.5,-160 411.5,-160 417.5,-166 417.5,-172 417.5,-172 417.5,-213 417.5,-213 417.5,-219 411.5,-225 405.5,-225"/>
<g id="a_state_4_title"><a xlink:href="#" xlink:title="state_4_title">
<text text-anchor="start" x="345.5" y="-200.1" font-family="Calibri" font-weight="bold" font-size="13.00" fill="#8b4513">Estado </text>
<text text-anchor="start" x="384.5" y="-200.1" font-family="Calibri" font-weight="bold" font-size="13.00" fill="#8b4513">4</text>
</a>
</g>
<g id="a_state_4_item_1"><a xlink:href="#" xlink:title="state_4_item_1">
<text text-anchor="start" x="334" y="-179.3" font-family="Times,serif" font-size="14.00" fill="#bc1f29">S&#39; </text>
<text text-anchor="start" x="349" y="-179.3" font-family="Times,serif" font-size="14.00" fill="#0a5040">→ </text>
<text text-anchor="start" x="368" y="-179.3" font-family="Times,serif" font-size="14.00" fill="#bc1f29"> S</text>
<text text-anchor="start" x="381" y="-179.3" font-family="Times,serif" font-size="14.00" fill="#0a5040"> $</text>
<text text-anchor="start" x="393" y="-179.3" font-family="Times,serif" font-size="14.00" fill="#f5a70a"> •</text>
</a>
</g>
</g>
<!-- state_2&#45;&gt;state_4 -->
<g id="trans_3" class="edge">
<title>state_2&#45;&gt;state_4</title>
<path fill="none" stroke="#b8860b" stroke-width="1.5" d="M256.8329,-192.5C272.7979,-192.5 290.9569,-192.5 307.9034,-192.5"/>
<polygon fill="#b8860b" stroke="#b8860b" stroke-width="1.5" points="308.2678,-196.0001 318.2678,-192.5 308.2677,-189.0001 308.2678,-196.0001"/>
<text text-anchor="start" x="283.5" y="-196.3" font-family="Times,serif" font-size="14.00" fill="#0a5040"> $</text>
</g>
<!-- state_5 -->
<g id="state_5" class="node">
<title>state_5</title>
<path fill="#fffff0" stroke="#b8860b" stroke-width="1.5" d="M410,-124C410,-124 326,-124 326,-124 320,-124 314,-118 314,-112 314,-112 314,-79 314,-79 314,-73 320,-67 326,-67 326,-67 410,-67 410,-67 416,-67 422,-73 422,-79 422,-79 422,-112 422,-112 422,-118 416,-124 410,-124"/>
<g id="a_state_5_title"><a xlink:href="#" xlink:title="state_5_title">
<text text-anchor="start" x="345" y="-103.1" font-family="Calibri" font-weight="bold" font-size="13.00" fill="#8b4513">Estado </text>
<text text-anchor="start" x="384" y="-103.1" font-family="Calibri" font-weight="bold" font-size="13.00" fill="#8b4513">5</text>
</a>
</g>
<g id="a_state_5_item_1"><a xlink:href="#" xlink:title="state_5_item_1">
<text text-anchor="start" x="325" y="-82.3" font-family="Times,serif" font-size="14.00" fill="#bc1f29">S </text>
<text text-anchor="start" x="338" y="-82.3" font-family="Times,serif" font-size="14.00" fill="#0a5040">→ </text>
<text text-anchor="start" x="357" y="-82.3" font-family="Times,serif" font-size="14.00" fill="#0a5040"> (</text>
<text text-anchor="start" x="366" y="-82.3" font-family="Times,serif" font-size="14.00" fill="#bc1f29"> S</text>
<text text-anchor="start" x="379" y="-82.3" font-family="Times,serif" font-size="14.00" fill="#f5a70a"> •</text>
<text text-anchor="start" x="389" y="-82.3" font-family="Times,serif" font-size="14.00" fill="#0a5040"> )</text>
<text text-anchor="start" x="398" y="-82.3" font-family="Times,serif" font-size="14.00" fill="#bc1f29"> S</text>
</a>
</g>
</g>
<!-- state_6 -->
<g id="state_6" class="node">
<title>state_6</title>
<path fill="#f5f5dc" stroke="#b8860b" stroke-width="1.5" stroke-dasharray="5,2" d="M563,-99C563,-99 479,-99 479,-99 473,-99 467,-93 467,-87 467,-87 467,-12 467,-12 467,-6 473,0 479,0 479,0 563,0 563,0 569,0 575,-6 575,-12 575,-12 575,-87 575,-87 575,-93 569,-99 563,-99"/>
<g id="a_state_6_title"><a xlink:href="#" xlink:title="state_6_title">
<text text-anchor="start" x="498" y="-78.1" font-family="Calibri" font-weight="bold" font-size="13.00" fill="#8b4513">Estado </text>
<text text-anchor="start" x="537" y="-78.1" font-family="Calibri" font-weight="bold" font-size="13.00" fill="#8b4513">6</text>
</a>
</g>
<g id="a_state_6_item_1"><a xlink:href="#" xlink:title="state_6_item_1">
<text text-anchor="start" x="478" y="-57.3" font-family="Times,serif" font-size="14.00" fill="#bc1f29">S </text>
<text text-anchor="start" x="491" y="-57.3" font-family="Times,serif" font-size="14.00" fill="#0a5040">→ </text>
<text text-anchor="start" x="510" y="-57.3" font-family="Times,serif" font-size="14.00" fill="#0a5040"> (</text>
<text text-anchor="start" x="519" y="-57.3" font-family="Times,serif" font-size="14.00" fill="#bc1f29"> S</text>
<text text-anchor="start" x="532" y="-57.3" font-family="Times,serif" font-size="14.00" fill="#0a5040"> )</text>
<text text-anchor="start" x="541" y="-57.3" font-family="Times,serif" font-size="14.00" fill="#f5a70a"> •</text>
<text text-anchor="start" x="551" y="-57.3" font-family="Times,serif" font-size="14.00" fill="#bc1f29"> S</text>
</a>
</g>
<g id="a_state_6_item_2"><a xlink:href="#" xlink:title="state_6_item_2">
<text text-anchor="start" x="478" y="-36.3" font-family="Times,serif" font-size="14.00" fill="#bc1f29">S </text>
<text text-anchor="start" x="491" y="-36.3" font-family="Times,serif" font-size="14.00" fill="#0a5040">→ </text>
<text text-anchor="start" x="510" y="-36.3" font-family="Times,serif" font-size="14.00" fill="#f5a70a"> •</text>
<text text-anchor="start" x="520" y="-36.3" font-family="Times,serif" font-size="14.00" fill="#0a5040"> (</text>
<text text-anchor="start" x="529" y="-36.3" font-family="Times,serif" font-size="14.00" fill="#bc1f29"> S</text>
<text text-anchor="start" x="542" y="-36.3" font-family="Times,serif" font-size="14.00" fill="#0a5040"> )</text>
<text text-anchor="start" x="551" y="-36.3" font-family="Times,serif" font-size="14.00" fill="#bc1f29"> S</text>
</a>
</g>
<g id="a_state_6_item_3"><a xlink:href="#" xlink:title="state_6_item_3">
<text text-anchor="start" x="478" y="-15.3" font-family="Times,serif" font-size="14.00" fill="#bc1f29">S </text>
<text text-anchor="start" x="491" y="-15.3" font-family="Times,serif" font-size="14.00" fill="#0a5040">→ </text>
<text text-anchor="start" x="510" y="-15.3" font-family="Times,serif" font-size="14.00" fill="#f5a70a"> •</text>
</a>
</g>
</g>
<!-- state_5&#45;&gt;state_6 -->
<g id="trans_6" class="edge">
<title>state_5&#45;&gt;state_6</title>
<path fill="none" stroke="#b8860b" stroke-width="1.5" d="M422.3729,-79.1526C433.6462,-75.7632 445.6209,-72.163 457.1966,-68.6827"/>
<polygon fill="#b8860b" stroke="#b8860b" stroke-width="1.5" points="458.2334,-72.0258 466.8022,-65.7948 456.2179,-65.3223 458.2334,-72.0258"/>
<text text-anchor="start" x="440" y="-76.3" font-family="Times,serif" font-size="14.00" fill="#0a5040"> )</text>
</g>
<!-- state_7 -->
<g id="state_7" class="node">
<title>state_7</title>
<path fill="#fffff0" stroke="#b8860b" stroke-width="1.5" d="M724,-78C724,-78 640,-78 640,-78 634,-78 628,-72 628,-66 628,-66 628,-33 628,-33 628,-27 634,-21 640,-21 640,-21 724,-21 724,-21 730,-21 736,-27 736,-33 736,-33 736,-66 736,-66 736,-72 730,-78 724,-78"/>
<path fill="none" stroke="#b8860b" stroke-width="1.5" d="M728,-82C728,-82 636,-82 636,-82 630,-82 624,-76 624,-70 624,-70 624,-29 624,-29 624,-23 630,-17 636,-17 636,-17 728,-17 728,-17 734,-17 740,-23 740,-29 740,-29 740,-70 740,-70 740,-76 734,-82 728,-82"/>
<g id="a_state_7_title"><a xlink:href="#" xlink:title="state_7_title">
<text text-anchor="start" x="659" y="-57.1" font-family="Calibri" font-weight="bold" font-size="13.00" fill="#8b4513">Estado </text>
<text text-anchor="start" x="698" y="-57.1" font-family="Calibri" font-weight="bold" font-size="13.00" fill="#8b4513">7</text>
</a>
</g>
<g id="a_state_7_item_1"><a xlink:href="#" xlink:title="state_7_item_1">
<text text-anchor="start" x="639" y="-36.3" font-family="Times,serif" font-size="14.00" fill="#bc1f29">S </text>
<text text-anchor="start" x="652" y="-36.3" font-family="Times,serif" font-size="14.00" fill="#0a5040">→ </text>
<text text-anchor="start" x="671" y="-36.3" font-family="Times,serif" font-size="14.00" fill="#0a5040"> (</text>
<text text-anchor="start" x="680" y="-36.3" font-family="Times,serif" font-size="14.00" fill="#bc1f29"> S</text>
<text text-anchor="start" x="693" y="-36.3" font-family="Times,serif" font-size="14.00" fill="#0a5040"> )</text>
<text text-anchor="start" x="702" y="-36.3" font-family="Times,serif" font-size="14.00" fill="#bc1f29"> S</text>
<text text-anchor="start" x="715" y="-36.3" font-family="Times,serif" font-size="14.00" fill="#f5a70a"> •</text>
</a>
</g>
</g>
<!-- state_1 -->
<g id="state_1" class="node">
<title>state_1</title>
<path fill="#f5f5dc" stroke="#b8860b" stroke-width="1.5" stroke-dasharray="5,2" d="M96,-177C96,-177 12,-177 12,-177 6,-177 0,-171 0,-165 0,-165 0,-90 0,-90 0,-84 6,-78 12,-78 12,-78 96,-78 96,-78 102,-78 108,-84 108,-90 108,-90 108,-165 108,-165 108,-171 102,-177 96,-177"/>
<g id="a_state_1_title"><a xlink:href="#" xlink:title="state_1_title">
<text text-anchor="start" x="31" y="-156.1" font-family="Calibri" font-weight="bold" font-size="13.00" fill="#8b4513">Estado </text>
<text text-anchor="start" x="70" y="-156.1" font-family="Calibri" font-weight="bold" font-size="13.00" fill="#8b4513">1</text>
</a>
</g>
<g id="a_state_1_item_1"><a xlink:href="#" xlink:title="state_1_item_1">
<text text-anchor="start" x="11" y="-135.3" font-family="Times,serif" font-size="14.00" fill="#bc1f29">S&#39; </text>
<text text-anchor="start" x="26" y="-135.3" font-family="Times,serif" font-size="14.00" fill="#0a5040">→ </text>
<text text-anchor="start" x="45" y="-135.3" font-family="Times,serif" font-size="14.00" fill="#f5a70a"> •</text>
<text text-anchor="start" x="55" y="-135.3" font-family="Times,serif" font-size="14.00" fill="#bc1f29"> S</text>
<text text-anchor="start" x="68" y="-135.3" font-family="Times,serif" font-size="14.00" fill="#0a5040"> $</text>
</a>
</g>
<g id="a_state_1_item_2"><a xlink:href="#" xlink:title="state_1_item_2">
<text text-anchor="start" x="11" y="-114.3" font-family="Times,serif" font-size="14.00" fill="#bc1f29">S </text>
<text text-anchor="start" x="24" y="-114.3" font-family="Times,serif" font-size="14.00" fill="#0a5040">→ </text>
<text text-anchor="start" x="43" y="-114.3" font-family="Times,serif" font-size="14.00" fill="#f5a70a"> •</text>
<text text-anchor="start" x="53" y="-114.3" font-family="Times,serif" font-size="14.00" fill="#0a5040"> (</text>
<text text-anchor="start" x="62" y="-114.3" font-family="Times,serif" font-size="14.00" fill="#bc1f29"> S</text>
<text text-anchor="start" x="75" y="-114.3" font-family="Times,serif" font-size="14.00" fill="#0a5040"> )</text>
<text text-anchor="start" x="84" y="-114.3" font-family="Times,serif" font-size="14.00" fill="#bc1f29"> S</text>
</a>
</g>
<g id="a_state_1_item_3"><a xlink:href="#" xlink:title="state_1_item_3">
<text text-anchor="start" x="11" y="-93.3" font-family="Times,serif" font-size="14.00" fill="#bc1f29">S </text>
<text text-anchor="start" x="24" y="-93.3" font-family="Times,serif" font-size="14.00" fill="#0a5040">→ </text>
<text text-anchor="start" x="43" y="-93.3" font-family="Times,serif" font-size="14.00" fill="#f5a70a"> •</text>
</a>
</g>
</g>
<!-- state_1&#45;&gt;state_2 -->
<g id="trans_1" class="edge">
<title>state_1&#45;&gt;state_2</title>
<path fill="none" stroke="#b8860b" stroke-width="1.5" d="M108.0305,-149.8693C123.5295,-156.2861 140.4425,-163.2883 155.9991,-169.7289"/>
<polygon fill="#b8860b" stroke="#b8860b" stroke-width="1.5" points="154.907,-173.0648 165.4853,-173.6563 157.5847,-166.5972 154.907,-173.0648"/>
<text text-anchor="start" x="126" y="-165.3" font-family="Times,serif" font-size="14.00" fill="#bc1f29"> S</text>
</g>
<!-- state_3 -->
<g id="state_3" class="node">
<title>state_3</title>
<path fill="#f5f5dc" stroke="#b8860b" stroke-width="1.5" stroke-dasharray="5,2" d="M253,-113C253,-113 169,-113 169,-113 163,-113 157,-107 157,-101 157,-101 157,-26 157,-26 157,-20 163,-14 169,-14 169,-14 253,-14 253,-14 259,-14 265,-20 265,-26 265,-26 265,-101 265,-101 265,-107 259,-113 253,-113"/>
<g id="a_state_3_title"><a xlink:href="#" xlink:title="state_3_title">
<text text-anchor="start" x="188" y="-92.1" font-family="Calibri" font-weight="bold" font-size="13.00" fill="#8b4513">Estado </text>
<text text-anchor="start" x="227" y="-92.1" font-family="Calibri" font-weight="bold" font-size="13.00" fill="#8b4513">3</text>
</a>
</g>
<g id="a_state_3_item_1"><a xlink:href="#" xlink:title="state_3_item_1">
<text text-anchor="start" x="168" y="-71.3" font-family="Times,serif" font-size="14.00" fill="#bc1f29">S </text>
<text text-anchor="start" x="181" y="-71.3" font-family="Times,serif" font-size="14.00" fill="#0a5040">→ </text>
<text text-anchor="start" x="200" y="-71.3" font-family="Times,serif" font-size="14.00" fill="#0a5040"> (</text>
<text text-anchor="start" x="209" y="-71.3" font-family="Times,serif" font-size="14.00" fill="#f5a70a"> •</text>
<text text-anchor="start" x="219" y="-71.3" font-family="Times,serif" font-size="14.00" fill="#bc1f29"> S</text>
<text text-anchor="start" x="232" y="-71.3" font-family="Times,serif" font-size="14.00" fill="#0a5040"> )</text>
<text text-anchor="start" x="241" y="-71.3" font-family="Times,serif" font-size="14.00" fill="#bc1f29"> S</text>
</a>
</g>
<g id="a_state_3_item_2"><a xlink:href="#" xlink:title="state_3_item_2">
<text text-anchor="start" x="168" y="-50.3" font-family="Times,serif" font-size="14.00" fill="#bc1f29">S </text>
<text text-anchor="start" x="181" y="-50.3" font-family="Times,serif" font-size="14.00" fill="#0a5040">→ </text>
<text text-anchor="start" x="200" y="-50.3" font-family="Times,serif" font-size="14.00" fill="#f5a70a"> •</text>
<text text-anchor="start" x="210" y="-50.3" font-family="Times,serif" font-size="14.00" fill="#0a5040"> (</text>
<text text-anchor="start" x="219" y="-50.3" font-family="Times,serif" font-size="14.00" fill="#bc1f29"> S</text>
<text text-anchor="start" x="232" y="-50.3" font-family="Times,serif" font-size="14.00" fill="#0a5040"> )</text>
<text text-anchor="start" x="241" y="-50.3" font-family="Times,serif" font-size="14.00" fill="#bc1f29"> S</text>
</a>
</g>
<g id="a_state_3_item_3"><a xlink:href="#" xlink:title="state_3_item_3">
<text text-anchor="start" x="168" y="-29.3" font-family="Times,serif" font-size="14.00" fill="#bc1f29">S </text>
<text text-anchor="start" x="181" y="-29.3" font-family="Times,serif" font-size="14.00" fill="#0a5040">→ </text>
<text text-anchor="start" x="200" y="-29.3" font-family="Times,serif" font-size="14.00" fill="#f5a70a"> •</text>
</a>
</g>
</g>
<!-- state_1&#45;&gt;state_3 -->
<g id="trans_2" class="edge">
<title>state_1&#45;&gt;state_3</title>
<path fill="none" stroke="#b8860b" stroke-width="1.5" d="M108.0305,-105.4748C120.7354,-100.2958 134.3905,-94.7294 147.4698,-89.3977"/>
<polygon fill="#b8860b" stroke="#b8860b" stroke-width="1.5" points="148.931,-92.5817 156.8699,-85.5658 146.2885,-86.0996 148.931,-92.5817"/>
<text text-anchor="start" x="128" y="-100.3" font-family="Times,serif" font-size="14.00" fill="#0a5040"> (</text>
</g>
<!-- state_3&#45;&gt;state_5 -->
<g id="trans_4" class="edge">
<title>state_3&#45;&gt;state_5</title>
<path fill="none" stroke="#b8860b" stroke-width="1.5" d="M265.0305,-74.5126C277.4887,-77.0518 290.8605,-79.7773 303.7072,-82.3957"/>
<polygon fill="#b8860b" stroke="#b8860b" stroke-width="1.5" points="303.3723,-85.8994 313.8699,-84.4671 304.7704,-79.0404 303.3723,-85.8994"/>
<text text-anchor="start" x="283" y="-83.3" font-family="Times,serif" font-size="14.00" fill="#bc1f29"> S</text>
</g>
<!-- state_3&#45;&gt;state_3 -->
<g id="trans_5" class="edge">
<title>state_3&#45;&gt;state_3</title>
<path fill="none" stroke="#b8860b" stroke-width="1.5" d="M196.8892,-113.2454C198.3745,-123.5732 203.0781,-131 211,-131 216.075,-131 219.8291,-127.9521 222.2625,-123.046"/>
<polygon fill="#b8860b" stroke="#b8860b" stroke-width="1.5" points="225.6809,-123.8249 225.1108,-113.2454 218.959,-121.8713 225.6809,-123.8249"/>
<text text-anchor="start" x="206.5" y="-134.8" font-family="Times,serif" font-size="14.00" fill="#0a5040"> (</text>
</g>
<!-- state_6&#45;&gt;state_7 -->
<g id="trans_7" class="edge">
<title>state_6&#45;&gt;state_7</title>
<path fill="none" stroke="#b8860b" stroke-width="1.5" d="M575.0586,-49.5C587.4567,-49.5 600.7962,-49.5 613.7069,-49.5"/>
<polygon fill="#b8860b" stroke="#b8860b" stroke-width="1.5" points="613.9429,-53.0001 623.9429,-49.5 613.9428,-46.0001 613.9429,-53.0001"/>
<text text-anchor="start" x="593" y="-53.3" font-family="Times,serif" font-size="14.00" fill="#bc1f29"> S</text>
</g>
<!-- state_6&#45;&gt;state_3 -->
<g id="trans_8" class="edge">
<title>state_6&#45;&gt;state_3</title>
<path fill="none" stroke="#b8860b" stroke-width="1.5" d="M466.8227,-43.7043C424.9845,-40.1863 365.6969,-37.2836 314,-42.5 301.3918,-43.7722 288.0455,-45.8993 275.289,-48.3238"/>
<polygon fill="#b8860b" stroke="#b8860b" stroke-width="1.5" points="274.3391,-44.9439 265.2104,-50.3214 275.7001,-51.8104 274.3391,-44.9439"/>
<text text-anchor="start" x="363.5" y="-46.3" font-family="Times,serif" font-size="14.00" fill="#0a5040"> (</text>
</g>
</g>
</svg>
