<?xml version="1.0" encoding="UTF-8" standalone="no"?>
<!DOCTYPE svg PUBLIC "-//W3C//DTD SVG 1.1//EN"
 "http://www.w3.org/Graphics/SVG/1.1/DTD/svg11.dtd">
<!-- Generated by graphviz version 2.40.1 (20161225.0304)
 -->
<!-- Title: DFA Pages: 1 -->
<svg width="2895pt" height="467pt"
 viewBox="0.00 0.00 2895.00 466.50" xmlns="http://www.w3.org/2000/svg" xmlns:xlink="http://www.w3.org/1999/xlink">
<g id="graph0" class="graph" transform="scale(1 1) rotate(0) translate(4 462.5)">
<title>DFA</title>
<!-- state_1 -->
<g id="state_1" class="node">
<title>state_1</title>
<path fill="#fffff0" stroke="#b8860b" stroke-width="1.5" d="M286,-416C286,-416 12,-416 12,-416 6,-416 0,-410 0,-404 0,-404 0,-308 0,-308 0,-302 6,-296 12,-296 12,-296 286,-296 286,-296 292,-296 298,-302 298,-308 298,-308 298,-404 298,-404 298,-410 292,-416 286,-416"/>
<g id="a_state_1_title"><a xlink:href="#" xlink:title="state_1_title">
<text text-anchor="start" x="126" y="-395.6" font-family="Calibri" font-weight="bold" font-size="13.00" fill="#8b4513">Estado </text>
<text text-anchor="start" x="165" y="-395.6" font-family="Calibri" font-weight="bold" font-size="13.00" fill="#8b4513">1</text>
</a>
</g>
<g id="a_state_1_item_1"><a xlink:href="#" xlink:title="state_1_item_1">
<text text-anchor="start" x="11" y="-374.8" font-family="Times,serif" font-size="14.00" fill="#bc1f29">statement&#39; </text>
<text text-anchor="start" x="71" y="-374.8" font-family="Times,serif" font-size="14.00" fill="#0a5040">→ </text>
<text text-anchor="start" x="90" y="-374.8" font-family="Times,serif" font-size="14.00" fill="#f5a70a"> •</text>
<text text-anchor="start" x="100" y="-374.8" font-family="Times,serif" font-size="14.00" fill="#bc1f29"> statement</text>
<text text-anchor="start" x="158" y="-374.8" font-family="Times,serif" font-size="14.00" fill="#0a5040"> $</text>
</a>
</g>
<g id="a_state_1_item_2"><a xlink:href="#" xlink:title="state_1_item_2">
<text text-anchor="start" x="11" y="-353.8" font-family="Times,serif" font-size="14.00" fill="#bc1f29">statement </text>
<text text-anchor="start" x="69" y="-353.8" font-family="Times,serif" font-size="14.00" fill="#0a5040">→ </text>
<text text-anchor="start" x="88" y="-353.8" font-family="Times,serif" font-size="14.00" fill="#f5a70a"> •</text>
<text text-anchor="start" x="98" y="-353.8" font-family="Times,serif" font-size="14.00" fill="#bc1f29"> if_stmt</text>
</a>
</g>
<g id="a_state_1_item_3"><a xlink:href="#" xlink:title="state_1_item_3">
<text text-anchor="start" x="11" y="-332.8" font-family="Times,serif" font-size="14.00" fill="#bc1f29">statement </text>
<text text-anchor="start" x="69" y="-332.8" font-family="Times,serif" font-size="14.00" fill="#0a5040">→ </text>
<text text-anchor="start" x="88" y="-332.8" font-family="Times,serif" font-size="14.00" fill="#f5a70a"> •</text>
<text text-anchor="start" x="98" y="-332.8" font-family="Times,serif" font-size="14.00" fill="#0a5040"> other</text>
</a>
</g>
<g id="a_state_1_item_4"><a xlink:href="#" xlink:title="state_1_item_4">
<text text-anchor="start" x="11" y="-311.8" font-family="Times,serif" font-size="14.00" fill="#bc1f29">if_stmt </text>
<text text-anchor="start" x="55" y="-311.8" font-family="Times,serif" font-size="14.00" fill="#0a5040">→ </text>
<text text-anchor="start" x="74" y="-311.8" font-family="Times,serif" font-size="14.00" fill="#f5a70a"> •</text>
<text text-anchor="start" x="84" y="-311.8" font-family="Times,serif" font-size="14.00" fill="#0a5040"> if</text>
<text text-anchor="start" x="97" y="-311.8" font-family="Times,serif" font-size="14.00" fill="#0a5040"> (</text>
<text text-anchor="start" x="106" y="-311.8" font-family="Times,serif" font-size="14.00" fill="#bc1f29"> bool_exp</text>
<text text-anchor="start" x="165" y="-311.8" font-family="Times,serif" font-size="14.00" fill="#0a5040"> )</text>
<text text-anchor="start" x="174" y="-311.8" font-family="Times,serif" font-size="14.00" fill="#bc1f29"> statement</text>
<text text-anchor="start" x="232" y="-311.8" font-family="Times,serif" font-size="14.00" fill="#bc1f29"> else_part</text>
</a>
</g>
</g>
<!-- state_2 -->
<g id="state_2" class="node">
<title>state_2</title>
<path fill="#fffff0" stroke="#b8860b" stroke-width="1.5" d="M619.5,-452.5C619.5,-452.5 462.5,-452.5 462.5,-452.5 456.5,-452.5 450.5,-446.5 450.5,-440.5 450.5,-440.5 450.5,-407.5 450.5,-407.5 450.5,-401.5 456.5,-395.5 462.5,-395.5 462.5,-395.5 619.5,-395.5 619.5,-395.5 625.5,-395.5 631.5,-401.5 631.5,-407.5 631.5,-407.5 631.5,-440.5 631.5,-440.5 631.5,-446.5 625.5,-452.5 619.5,-452.5"/>
<g id="a_state_2_title"><a xlink:href="#" xlink:title="state_2_title">
<text text-anchor="start" x="518.5" y="-431.6" font-family="Calibri" font-weight="bold" font-size="13.00" fill="#8b4513">Estado </text>
<text text-anchor="start" x="557.5" y="-431.6" font-family="Calibri" font-weight="bold" font-size="13.00" fill="#8b4513">2</text>
</a>
</g>
<g id="a_state_2_item_1"><a xlink:href="#" xlink:title="state_2_item_1">
<text text-anchor="start" x="462" y="-410.8" font-family="Times,serif" font-size="14.00" fill="#bc1f29">statement&#39; </text>
<text text-anchor="start" x="522" y="-410.8" font-family="Times,serif" font-size="14.00" fill="#0a5040">→ </text>
<text text-anchor="start" x="541" y="-410.8" font-family="Times,serif" font-size="14.00" fill="#bc1f29"> statement</text>
<text text-anchor="start" x="599" y="-410.8" font-family="Times,serif" font-size="14.00" fill="#f5a70a"> •</text>
<text text-anchor="start" x="609" y="-410.8" font-family="Times,serif" font-size="14.00" fill="#0a5040"> $</text>
</a>
</g>
</g>
<!-- state_1&#45;&gt;state_2 -->
<g id="trans_3" class="edge">
<title>state_1&#45;&gt;state_2</title>
<path fill="none" stroke="#b8860b" stroke-width="1.5" d="M298.0369,-381.8533C345.6346,-390.1101 397.1584,-399.0479 440.4585,-406.5591"/>
<polygon fill="#b8860b" stroke="#b8860b" stroke-width="1.5" points="439.9705,-410.0267 450.4216,-408.2874 441.167,-403.1297 439.9705,-410.0267"/>
<text text-anchor="start" x="316" y="-397.8" font-family="Times,serif" font-size="14.00" fill="#bc1f29"> statement</text>
</g>
<!-- state_5 -->
<g id="state_5" class="node">
<title>state_5</title>
<path fill="#fffff0" stroke="#b8860b" stroke-width="1.5" d="M678,-264.5C678,-264.5 404,-264.5 404,-264.5 398,-264.5 392,-258.5 392,-252.5 392,-252.5 392,-219.5 392,-219.5 392,-213.5 398,-207.5 404,-207.5 404,-207.5 678,-207.5 678,-207.5 684,-207.5 690,-213.5 690,-219.5 690,-219.5 690,-252.5 690,-252.5 690,-258.5 684,-264.5 678,-264.5"/>
<g id="a_state_5_title"><a xlink:href="#" xlink:title="state_5_title">
<text text-anchor="start" x="518" y="-243.6" font-family="Calibri" font-weight="bold" font-size="13.00" fill="#8b4513">Estado </text>
<text text-anchor="start" x="557" y="-243.6" font-family="Calibri" font-weight="bold" font-size="13.00" fill="#8b4513">5</text>
</a>
</g>
<g id="a_state_5_item_1"><a xlink:href="#" xlink:title="state_5_item_1">
<text text-anchor="start" x="403" y="-222.8" font-family="Times,serif" font-size="14.00" fill="#bc1f29">if_stmt </text>
<text text-anchor="start" x="447" y="-222.8" font-family="Times,serif" font-size="14.00" fill="#0a5040">→ </text>
<text text-anchor="start" x="466" y="-222.8" font-family="Times,serif" font-size="14.00" fill="#0a5040"> if</text>
<text text-anchor="start" x="479" y="-222.8" font-family="Times,serif" font-size="14.00" fill="#f5a70a"> •</text>
<text text-anchor="start" x="489" y="-222.8" font-family="Times,serif" font-size="14.00" fill="#0a5040"> (</text>
<text text-anchor="start" x="498" y="-222.8" font-family="Times,serif" font-size="14.00" fill="#bc1f29"> bool_exp</text>
<text text-anchor="start" x="557" y="-222.8" font-family="Times,serif" font-size="14.00" fill="#0a5040"> )</text>
<text text-anchor="start" x="566" y="-222.8" font-family="Times,serif" font-size="14.00" fill="#bc1f29"> statement</text>
<text text-anchor="start" x="624" y="-222.8" font-family="Times,serif" font-size="14.00" fill="#bc1f29"> else_part</text>
</a>
</g>
</g>
<!-- state_1&#45;&gt;state_5 -->
<g id="trans_2" class="edge">
<title>state_1&#45;&gt;state_5</title>
<path fill="none" stroke="#b8860b" stroke-width="1.5" d="M298.0369,-310.3764C344.8291,-296.0523 395.4158,-280.5666 438.2533,-267.4531"/>
<polygon fill="#b8860b" stroke="#b8860b" stroke-width="1.5" points="439.2973,-270.7939 447.8348,-264.52 437.2482,-264.1005 439.2973,-270.7939"/>
<text text-anchor="start" x="338.5" y="-306.8" font-family="Times,serif" font-size="14.00" fill="#0a5040"> if</text>
</g>
<!-- state_3 -->
<g id="state_3" class="node">
<title>state_3</title>
<path fill="#fffff0" stroke="#b8860b" stroke-width="1.5" d="M2853,-355.5C2853,-355.5 2724,-355.5 2724,-355.5 2718,-355.5 2712,-349.5 2712,-343.5 2712,-343.5 2712,-310.5 2712,-310.5 2712,-304.5 2718,-298.5 2724,-298.5 2724,-298.5 2853,-298.5 2853,-298.5 2859,-298.5 2865,-304.5 2865,-310.5 2865,-310.5 2865,-343.5 2865,-343.5 2865,-349.5 2859,-355.5 2853,-355.5"/>
<path fill="none" stroke="#b8860b" stroke-width="1.5" d="M2857,-359.5C2857,-359.5 2720,-359.5 2720,-359.5 2714,-359.5 2708,-353.5 2708,-347.5 2708,-347.5 2708,-306.5 2708,-306.5 2708,-300.5 2714,-294.5 2720,-294.5 2720,-294.5 2857,-294.5 2857,-294.5 2863,-294.5 2869,-300.5 2869,-306.5 2869,-306.5 2869,-347.5 2869,-347.5 2869,-353.5 2863,-359.5 2857,-359.5"/>
<g id="a_state_3_title"><a xlink:href="#" xlink:title="state_3_title">
<text text-anchor="start" x="2766" y="-334.6" font-family="Calibri" font-weight="bold" font-size="13.00" fill="#8b4513">Estado </text>
<text text-anchor="start" x="2805" y="-334.6" font-family="Calibri" font-weight="bold" font-size="13.00" fill="#8b4513">3</text>
</a>
</g>
<g id="a_state_3_item_1"><a xlink:href="#" xlink:title="state_3_item_1">
<text text-anchor="start" x="2723.5" y="-313.8" font-family="Times,serif" font-size="14.00" fill="#bc1f29">statement </text>
<text text-anchor="start" x="2781.5" y="-313.8" font-family="Times,serif" font-size="14.00" fill="#0a5040">→ </text>
<text text-anchor="start" x="2800.5" y="-313.8" font-family="Times,serif" font-size="14.00" fill="#bc1f29"> if_stmt</text>
<text text-anchor="start" x="2844.5" y="-313.8" font-family="Times,serif" font-size="14.00" fill="#f5a70a"> •</text>
</a>
</g>
</g>
<!-- state_1&#45;&gt;state_3 -->
<g id="trans_4" class="edge">
<title>state_1&#45;&gt;state_3</title>
<path fill="none" stroke="#b8860b" stroke-width="1.5" d="M298.3616,-361.0394C371.4916,-363.0959 460.8435,-365 541,-365 541,-365 541,-365 2443,-365 2529.8487,-365 2628.2454,-352.9896 2697.756,-342.4732"/>
<polygon fill="#b8860b" stroke="#b8860b" stroke-width="1.5" points="2698.443,-345.9088 2707.7972,-340.934 2697.3824,-338.9897 2698.443,-345.9088"/>
<text text-anchor="start" x="1447" y="-368.8" font-family="Times,serif" font-size="14.00" fill="#bc1f29"> if_stmt</text>
</g>
<!-- state_4 -->
<g id="state_4" class="node">
<title>state_4</title>
<path fill="#fffff0" stroke="#b8860b" stroke-width="1.5" d="M2848,-95.5C2848,-95.5 2729,-95.5 2729,-95.5 2723,-95.5 2717,-89.5 2717,-83.5 2717,-83.5 2717,-50.5 2717,-50.5 2717,-44.5 2723,-38.5 2729,-38.5 2729,-38.5 2848,-38.5 2848,-38.5 2854,-38.5 2860,-44.5 2860,-50.5 2860,-50.5 2860,-83.5 2860,-83.5 2860,-89.5 2854,-95.5 2848,-95.5"/>
<path fill="none" stroke="#b8860b" stroke-width="1.5" d="M2852,-99.5C2852,-99.5 2725,-99.5 2725,-99.5 2719,-99.5 2713,-93.5 2713,-87.5 2713,-87.5 2713,-46.5 2713,-46.5 2713,-40.5 2719,-34.5 2725,-34.5 2725,-34.5 2852,-34.5 2852,-34.5 2858,-34.5 2864,-40.5 2864,-46.5 2864,-46.5 2864,-87.5 2864,-87.5 2864,-93.5 2858,-99.5 2852,-99.5"/>
<g id="a_state_4_title"><a xlink:href="#" xlink:title="state_4_title">
<text text-anchor="start" x="2766" y="-74.6" font-family="Calibri" font-weight="bold" font-size="13.00" fill="#8b4513">Estado </text>
<text text-anchor="start" x="2805" y="-74.6" font-family="Calibri" font-weight="bold" font-size="13.00" fill="#8b4513">4</text>
</a>
</g>
<g id="a_state_4_item_1"><a xlink:href="#" xlink:title="state_4_item_1">
<text text-anchor="start" x="2728.5" y="-53.8" font-family="Times,serif" font-size="14.00" fill="#bc1f29">statement </text>
<text text-anchor="start" x="2786.5" y="-53.8" font-family="Times,serif" font-size="14.00" fill="#0a5040">→ </text>
<text text-anchor="start" x="2805.5" y="-53.8" font-family="Times,serif" font-size="14.00" fill="#0a5040"> other</text>
<text text-anchor="start" x="2839.5" y="-53.8" font-family="Times,serif" font-size="14.00" fill="#f5a70a"> •</text>
</a>
</g>
</g>
<!-- state_1&#45;&gt;state_4 -->
<g id="trans_1" class="edge">
<title>state_1&#45;&gt;state_4</title>
<path fill="none" stroke="#b8860b" stroke-width="1.5" d="M179.7933,-295.6095C236.3888,-194.0411 367.2486,0 541,0 541,0 541,0 2443,0 2532.829,0 2633.4324,-22.0976 2702.8078,-40.9117"/>
<polygon fill="#b8860b" stroke="#b8860b" stroke-width="1.5" points="2702.2419,-44.3859 2712.8119,-43.6607 2704.0967,-37.6361 2702.2419,-44.3859"/>
<text text-anchor="start" x="1452" y="-3.8" font-family="Times,serif" font-size="14.00" fill="#0a5040"> other</text>
</g>
<!-- state_6 -->
<g id="state_6" class="node">
<title>state_6</title>
<path fill="#fffff0" stroke="#b8860b" stroke-width="1.5" d="M965.5,-454.5C965.5,-454.5 808.5,-454.5 808.5,-454.5 802.5,-454.5 796.5,-448.5 796.5,-442.5 796.5,-442.5 796.5,-409.5 796.5,-409.5 796.5,-403.5 802.5,-397.5 808.5,-397.5 808.5,-397.5 965.5,-397.5 965.5,-397.5 971.5,-397.5 977.5,-403.5 977.5,-409.5 977.5,-409.5 977.5,-442.5 977.5,-442.5 977.5,-448.5 971.5,-454.5 965.5,-454.5"/>
<path fill="none" stroke="#b8860b" stroke-width="1.5" d="M969.5,-458.5C969.5,-458.5 804.5,-458.5 804.5,-458.5 798.5,-458.5 792.5,-452.5 792.5,-446.5 792.5,-446.5 792.5,-405.5 792.5,-405.5 792.5,-399.5 798.5,-393.5 804.5,-393.5 804.5,-393.5 969.5,-393.5 969.5,-393.5 975.5,-393.5 981.5,-399.5 981.5,-405.5 981.5,-405.5 981.5,-446.5 981.5,-446.5 981.5,-452.5 975.5,-458.5 969.5,-458.5"/>
<g id="a_state_6_title"><a xlink:href="#" xlink:title="state_6_title">
<text text-anchor="start" x="864.5" y="-433.6" font-family="Calibri" font-weight="bold" font-size="13.00" fill="#8b4513">Estado </text>
<text text-anchor="start" x="903.5" y="-433.6" font-family="Calibri" font-weight="bold" font-size="13.00" fill="#8b4513">6</text>
</a>
</g>
<g id="a_state_6_item_1"><a xlink:href="#" xlink:title="state_6_item_1">
<text text-anchor="start" x="808" y="-412.8" font-family="Times,serif" font-size="14.00" fill="#bc1f29">statement&#39; </text>
<text text-anchor="start" x="868" y="-412.8" font-family="Times,serif" font-size="14.00" fill="#0a5040">→ </text>
<text text-anchor="start" x="887" y="-412.8" font-family="Times,serif" font-size="14.00" fill="#bc1f29"> statement</text>
<text text-anchor="start" x="945" y="-412.8" font-family="Times,serif" font-size="14.00" fill="#0a5040"> $</text>
<text text-anchor="start" x="957" y="-412.8" font-family="Times,serif" font-size="14.00" fill="#f5a70a"> •</text>
</a>
</g>
</g>
<!-- state_2&#45;&gt;state_6 -->
<g id="trans_5" class="edge">
<title>state_2&#45;&gt;state_6</title>
<path fill="none" stroke="#b8860b" stroke-width="1.5" d="M631.9074,-424.5255C678.0782,-424.7924 734.4046,-425.1179 782.373,-425.3952"/>
<polygon fill="#b8860b" stroke="#b8860b" stroke-width="1.5" points="782.4553,-428.8957 792.4754,-425.4536 782.4958,-421.8958 782.4553,-428.8957"/>
<text text-anchor="start" x="708" y="-428.8" font-family="Times,serif" font-size="14.00" fill="#0a5040"> $</text>
</g>
<!-- state_7 -->
<g id="state_7" class="node">
<title>state_7</title>
<path fill="#fffff0" stroke="#b8860b" stroke-width="1.5" d="M1024,-260.5C1024,-260.5 750,-260.5 750,-260.5 744,-260.5 738,-254.5 738,-248.5 738,-248.5 738,-173.5 738,-173.5 738,-167.5 744,-161.5 750,-161.5 750,-161.5 1024,-161.5 1024,-161.5 1030,-161.5 1036,-167.5 1036,-173.5 1036,-173.5 1036,-248.5 1036,-248.5 1036,-254.5 1030,-260.5 1024,-260.5"/>
<g id="a_state_7_title"><a xlink:href="#" xlink:title="state_7_title">
<text text-anchor="start" x="864" y="-239.6" font-family="Calibri" font-weight="bold" font-size="13.00" fill="#8b4513">Estado </text>
<text text-anchor="start" x="903" y="-239.6" font-family="Calibri" font-weight="bold" font-size="13.00" fill="#8b4513">7</text>
</a>
</g>
<g id="a_state_7_item_1"><a xlink:href="#" xlink:title="state_7_item_1">
<text text-anchor="start" x="749" y="-218.8" font-family="Times,serif" font-size="14.00" fill="#bc1f29">if_stmt </text>
<text text-anchor="start" x="793" y="-218.8" font-family="Times,serif" font-size="14.00" fill="#0a5040">→ </text>
<text text-anchor="start" x="812" y="-218.8" font-family="Times,serif" font-size="14.00" fill="#0a5040"> if</text>
<text text-anchor="start" x="825" y="-218.8" font-family="Times,serif" font-size="14.00" fill="#0a5040"> (</text>
<text text-anchor="start" x="834" y="-218.8" font-family="Times,serif" font-size="14.00" fill="#f5a70a"> •</text>
<text text-anchor="start" x="844" y="-218.8" font-family="Times,serif" font-size="14.00" fill="#bc1f29"> bool_exp</text>
<text text-anchor="start" x="903" y="-218.8" font-family="Times,serif" font-size="14.00" fill="#0a5040"> )</text>
<text text-anchor="start" x="912" y="-218.8" font-family="Times,serif" font-size="14.00" fill="#bc1f29"> statement</text>
<text text-anchor="start" x="970" y="-218.8" font-family="Times,serif" font-size="14.00" fill="#bc1f29"> else_part</text>
</a>
</g>
<g id="a_state_7_item_2"><a xlink:href="#" xlink:title="state_7_item_2">
<text text-anchor="start" x="749" y="-197.8" font-family="Times,serif" font-size="14.00" fill="#bc1f29">bool_exp </text>
<text text-anchor="start" x="808" y="-197.8" font-family="Times,serif" font-size="14.00" fill="#0a5040">→ </text>
<text text-anchor="start" x="827" y="-197.8" font-family="Times,serif" font-size="14.00" fill="#f5a70a"> •</text>
<text text-anchor="start" x="837" y="-197.8" font-family="Times,serif" font-size="14.00" fill="#0a5040"> true</text>
</a>
</g>
<g id="a_state_7_item_3"><a xlink:href="#" xlink:title="state_7_item_3">
<text text-anchor="start" x="749" y="-176.8" font-family="Times,serif" font-size="14.00" fill="#bc1f29">bool_exp </text>
<text text-anchor="start" x="808" y="-176.8" font-family="Times,serif" font-size="14.00" fill="#0a5040">→ </text>
<text text-anchor="start" x="827" y="-176.8" font-family="Times,serif" font-size="14.00" fill="#f5a70a"> •</text>
<text text-anchor="start" x="837" y="-176.8" font-family="Times,serif" font-size="14.00" fill="#0a5040"> false</text>
</a>
</g>
</g>
<!-- state_5&#45;&gt;state_7 -->
<g id="trans_6" class="edge">
<title>state_5&#45;&gt;state_7</title>
<path fill="none" stroke="#b8860b" stroke-width="1.5" d="M690.2456,-225.2164C702.7292,-224.3144 715.3811,-223.4002 727.9344,-222.4932"/>
<polygon fill="#b8860b" stroke="#b8860b" stroke-width="1.5" points="728.254,-225.9793 737.9757,-221.7677 727.7494,-218.9975 728.254,-225.9793"/>
<text text-anchor="start" x="709.5" y="-226.8" font-family="Times,serif" font-size="14.00" fill="#0a5040"> (</text>
</g>
<!-- state_8 -->
<g id="state_8" class="node">
<title>state_8</title>
<path fill="#fffff0" stroke="#b8860b" stroke-width="1.5" d="M1417,-289.5C1417,-289.5 1143,-289.5 1143,-289.5 1137,-289.5 1131,-283.5 1131,-277.5 1131,-277.5 1131,-244.5 1131,-244.5 1131,-238.5 1137,-232.5 1143,-232.5 1143,-232.5 1417,-232.5 1417,-232.5 1423,-232.5 1429,-238.5 1429,-244.5 1429,-244.5 1429,-277.5 1429,-277.5 1429,-283.5 1423,-289.5 1417,-289.5"/>
<g id="a_state_8_title"><a xlink:href="#" xlink:title="state_8_title">
<text text-anchor="start" x="1257" y="-268.6" font-family="Calibri" font-weight="bold" font-size="13.00" fill="#8b4513">Estado </text>
<text text-anchor="start" x="1296" y="-268.6" font-family="Calibri" font-weight="bold" font-size="13.00" fill="#8b4513">8</text>
</a>
</g>
<g id="a_state_8_item_1"><a xlink:href="#" xlink:title="state_8_item_1">
<text text-anchor="start" x="1142" y="-247.8" font-family="Times,serif" font-size="14.00" fill="#bc1f29">if_stmt </text>
<text text-anchor="start" x="1186" y="-247.8" font-family="Times,serif" font-size="14.00" fill="#0a5040">→ </text>
<text text-anchor="start" x="1205" y="-247.8" font-family="Times,serif" font-size="14.00" fill="#0a5040"> if</text>
<text text-anchor="start" x="1218" y="-247.8" font-family="Times,serif" font-size="14.00" fill="#0a5040"> (</text>
<text text-anchor="start" x="1227" y="-247.8" font-family="Times,serif" font-size="14.00" fill="#bc1f29"> bool_exp</text>
<text text-anchor="start" x="1286" y="-247.8" font-family="Times,serif" font-size="14.00" fill="#f5a70a"> •</text>
<text text-anchor="start" x="1296" y="-247.8" font-family="Times,serif" font-size="14.00" fill="#0a5040"> )</text>
<text text-anchor="start" x="1305" y="-247.8" font-family="Times,serif" font-size="14.00" fill="#bc1f29"> statement</text>
<text text-anchor="start" x="1363" y="-247.8" font-family="Times,serif" font-size="14.00" fill="#bc1f29"> else_part</text>
</a>
</g>
</g>
<!-- state_7&#45;&gt;state_8 -->
<g id="trans_7" class="edge">
<title>state_7&#45;&gt;state_8</title>
<path fill="none" stroke="#b8860b" stroke-width="1.5" d="M1036.1368,-229.9742C1063.7919,-233.4926 1092.7779,-237.1804 1120.7215,-240.7356"/>
<polygon fill="#b8860b" stroke="#b8860b" stroke-width="1.5" points="1120.6032,-244.2486 1130.965,-242.0388 1121.4867,-237.3046 1120.6032,-244.2486"/>
<text text-anchor="start" x="1054" y="-241.8" font-family="Times,serif" font-size="14.00" fill="#bc1f29"> bool_exp</text>
</g>
<!-- state_9 -->
<g id="state_9" class="node">
<title>state_9</title>
<path fill="#fffff0" stroke="#b8860b" stroke-width="1.5" d="M1336,-127.5C1336,-127.5 1224,-127.5 1224,-127.5 1218,-127.5 1212,-121.5 1212,-115.5 1212,-115.5 1212,-82.5 1212,-82.5 1212,-76.5 1218,-70.5 1224,-70.5 1224,-70.5 1336,-70.5 1336,-70.5 1342,-70.5 1348,-76.5 1348,-82.5 1348,-82.5 1348,-115.5 1348,-115.5 1348,-121.5 1342,-127.5 1336,-127.5"/>
<path fill="none" stroke="#b8860b" stroke-width="1.5" d="M1340,-131.5C1340,-131.5 1220,-131.5 1220,-131.5 1214,-131.5 1208,-125.5 1208,-119.5 1208,-119.5 1208,-78.5 1208,-78.5 1208,-72.5 1214,-66.5 1220,-66.5 1220,-66.5 1340,-66.5 1340,-66.5 1346,-66.5 1352,-72.5 1352,-78.5 1352,-78.5 1352,-119.5 1352,-119.5 1352,-125.5 1346,-131.5 1340,-131.5"/>
<g id="a_state_9_title"><a xlink:href="#" xlink:title="state_9_title">
<text text-anchor="start" x="1257" y="-106.6" font-family="Calibri" font-weight="bold" font-size="13.00" fill="#8b4513">Estado </text>
<text text-anchor="start" x="1296" y="-106.6" font-family="Calibri" font-weight="bold" font-size="13.00" fill="#8b4513">9</text>
</a>
</g>
<g id="a_state_9_item_1"><a xlink:href="#" xlink:title="state_9_item_1">
<text text-anchor="start" x="1223" y="-85.8" font-family="Times,serif" font-size="14.00" fill="#bc1f29">bool_exp </text>
<text text-anchor="start" x="1282" y="-85.8" font-family="Times,serif" font-size="14.00" fill="#0a5040">→ </text>
<text text-anchor="start" x="1301" y="-85.8" font-family="Times,serif" font-size="14.00" fill="#0a5040"> true</text>
<text text-anchor="start" x="1327" y="-85.8" font-family="Times,serif" font-size="14.00" fill="#f5a70a"> •</text>
</a>
</g>
</g>
<!-- state_7&#45;&gt;state_9 -->
<g id="trans_8" class="edge">
<title>state_7&#45;&gt;state_9</title>
<path fill="none" stroke="#b8860b" stroke-width="1.5" d="M1036.2612,-167.1918C1067.5363,-158.118 1100.3297,-148.6815 1131,-140 1152.7151,-133.8533 1176.2468,-127.3194 1198.0568,-121.3164"/>
<polygon fill="#b8860b" stroke="#b8860b" stroke-width="1.5" points="1199.2289,-124.6241 1207.9437,-118.5989 1197.3737,-117.8744 1199.2289,-124.6241"/>
<text text-anchor="start" x="1070.5" y="-164.8" font-family="Times,serif" font-size="14.00" fill="#0a5040"> true</text>
</g>
<!-- state_10 -->
<g id="state_10" class="node">
<title>state_10</title>
<path fill="#fffff0" stroke="#b8860b" stroke-width="1.5" d="M1338,-210.5C1338,-210.5 1222,-210.5 1222,-210.5 1216,-210.5 1210,-204.5 1210,-198.5 1210,-198.5 1210,-165.5 1210,-165.5 1210,-159.5 1216,-153.5 1222,-153.5 1222,-153.5 1338,-153.5 1338,-153.5 1344,-153.5 1350,-159.5 1350,-165.5 1350,-165.5 1350,-198.5 1350,-198.5 1350,-204.5 1344,-210.5 1338,-210.5"/>
<path fill="none" stroke="#b8860b" stroke-width="1.5" d="M1342,-214.5C1342,-214.5 1218,-214.5 1218,-214.5 1212,-214.5 1206,-208.5 1206,-202.5 1206,-202.5 1206,-161.5 1206,-161.5 1206,-155.5 1212,-149.5 1218,-149.5 1218,-149.5 1342,-149.5 1342,-149.5 1348,-149.5 1354,-155.5 1354,-161.5 1354,-161.5 1354,-202.5 1354,-202.5 1354,-208.5 1348,-214.5 1342,-214.5"/>
<g id="a_state_10_title"><a xlink:href="#" xlink:title="state_10_title">
<text text-anchor="start" x="1253.5" y="-189.6" font-family="Calibri" font-weight="bold" font-size="13.00" fill="#8b4513">Estado </text>
<text text-anchor="start" x="1292.5" y="-189.6" font-family="Calibri" font-weight="bold" font-size="13.00" fill="#8b4513">10</text>
</a>
</g>
<g id="a_state_10_item_1"><a xlink:href="#" xlink:title="state_10_item_1">
<text text-anchor="start" x="1221" y="-168.8" font-family="Times,serif" font-size="14.00" fill="#bc1f29">bool_exp </text>
<text text-anchor="start" x="1280" y="-168.8" font-family="Times,serif" font-size="14.00" fill="#0a5040">→ </text>
<text text-anchor="start" x="1299" y="-168.8" font-family="Times,serif" font-size="14.00" fill="#0a5040"> false</text>
<text text-anchor="start" x="1329" y="-168.8" font-family="Times,serif" font-size="14.00" fill="#f5a70a"> •</text>
</a>
</g>
</g>
<!-- state_7&#45;&gt;state_10 -->
<g id="trans_9" class="edge">
<title>state_7&#45;&gt;state_10</title>
<path fill="none" stroke="#b8860b" stroke-width="1.5" d="M1036.1368,-199.995C1090.1505,-196.0093 1149.2412,-191.6489 1195.7266,-188.2186"/>
<polygon fill="#b8860b" stroke="#b8860b" stroke-width="1.5" points="1196.0333,-191.7056 1205.7486,-187.4791 1195.5181,-184.7246 1196.0333,-191.7056"/>
<text text-anchor="start" x="1068.5" y="-201.8" font-family="Times,serif" font-size="14.00" fill="#0a5040"> false</text>
</g>
<!-- state_11 -->
<g id="state_11" class="node">
<title>state_11</title>
<path fill="#fffff0" stroke="#b8860b" stroke-width="1.5" d="M1795,-321C1795,-321 1521,-321 1521,-321 1515,-321 1509,-315 1509,-309 1509,-309 1509,-213 1509,-213 1509,-207 1515,-201 1521,-201 1521,-201 1795,-201 1795,-201 1801,-201 1807,-207 1807,-213 1807,-213 1807,-309 1807,-309 1807,-315 1801,-321 1795,-321"/>
<g id="a_state_11_title"><a xlink:href="#" xlink:title="state_11_title">
<text text-anchor="start" x="1631.5" y="-300.6" font-family="Calibri" font-weight="bold" font-size="13.00" fill="#8b4513">Estado </text>
<text text-anchor="start" x="1670.5" y="-300.6" font-family="Calibri" font-weight="bold" font-size="13.00" fill="#8b4513">11</text>
</a>
</g>
<g id="a_state_11_item_1"><a xlink:href="#" xlink:title="state_11_item_1">
<text text-anchor="start" x="1520" y="-279.8" font-family="Times,serif" font-size="14.00" fill="#bc1f29">if_stmt </text>
<text text-anchor="start" x="1564" y="-279.8" font-family="Times,serif" font-size="14.00" fill="#0a5040">→ </text>
<text text-anchor="start" x="1583" y="-279.8" font-family="Times,serif" font-size="14.00" fill="#0a5040"> if</text>
<text text-anchor="start" x="1596" y="-279.8" font-family="Times,serif" font-size="14.00" fill="#0a5040"> (</text>
<text text-anchor="start" x="1605" y="-279.8" font-family="Times,serif" font-size="14.00" fill="#bc1f29"> bool_exp</text>
<text text-anchor="start" x="1664" y="-279.8" font-family="Times,serif" font-size="14.00" fill="#0a5040"> )</text>
<text text-anchor="start" x="1673" y="-279.8" font-family="Times,serif" font-size="14.00" fill="#f5a70a"> •</text>
<text text-anchor="start" x="1683" y="-279.8" font-family="Times,serif" font-size="14.00" fill="#bc1f29"> statement</text>
<text text-anchor="start" x="1741" y="-279.8" font-family="Times,serif" font-size="14.00" fill="#bc1f29"> else_part</text>
</a>
</g>
<g id="a_state_11_item_2"><a xlink:href="#" xlink:title="state_11_item_2">
<text text-anchor="start" x="1520" y="-258.8" font-family="Times,serif" font-size="14.00" fill="#bc1f29">statement </text>
<text text-anchor="start" x="1578" y="-258.8" font-family="Times,serif" font-size="14.00" fill="#0a5040">→ </text>
<text text-anchor="start" x="1597" y="-258.8" font-family="Times,serif" font-size="14.00" fill="#f5a70a"> •</text>
<text text-anchor="start" x="1607" y="-258.8" font-family="Times,serif" font-size="14.00" fill="#bc1f29"> if_stmt</text>
</a>
</g>
<g id="a_state_11_item_3"><a xlink:href="#" xlink:title="state_11_item_3">
<text text-anchor="start" x="1520" y="-237.8" font-family="Times,serif" font-size="14.00" fill="#bc1f29">statement </text>
<text text-anchor="start" x="1578" y="-237.8" font-family="Times,serif" font-size="14.00" fill="#0a5040">→ </text>
<text text-anchor="start" x="1597" y="-237.8" font-family="Times,serif" font-size="14.00" fill="#f5a70a"> •</text>
<text text-anchor="start" x="1607" y="-237.8" font-family="Times,serif" font-size="14.00" fill="#0a5040"> other</text>
</a>
</g>
<g id="a_state_11_item_4"><a xlink:href="#" xlink:title="state_11_item_4">
<text text-anchor="start" x="1520" y="-216.8" font-family="Times,serif" font-size="14.00" fill="#bc1f29">if_stmt </text>
<text text-anchor="start" x="1564" y="-216.8" font-family="Times,serif" font-size="14.00" fill="#0a5040">→ </text>
<text text-anchor="start" x="1583" y="-216.8" font-family="Times,serif" font-size="14.00" fill="#f5a70a"> •</text>
<text text-anchor="start" x="1593" y="-216.8" font-family="Times,serif" font-size="14.00" fill="#0a5040"> if</text>
<text text-anchor="start" x="1606" y="-216.8" font-family="Times,serif" font-size="14.00" fill="#0a5040"> (</text>
<text text-anchor="start" x="1615" y="-216.8" font-family="Times,serif" font-size="14.00" fill="#bc1f29"> bool_exp</text>
<text text-anchor="start" x="1674" y="-216.8" font-family="Times,serif" font-size="14.00" fill="#0a5040"> )</text>
<text text-anchor="start" x="1683" y="-216.8" font-family="Times,serif" font-size="14.00" fill="#bc1f29"> statement</text>
<text text-anchor="start" x="1741" y="-216.8" font-family="Times,serif" font-size="14.00" fill="#bc1f29"> else_part</text>
</a>
</g>
</g>
<!-- state_8&#45;&gt;state_11 -->
<g id="trans_10" class="edge">
<title>state_8&#45;&gt;state_11</title>
<path fill="none" stroke="#b8860b" stroke-width="1.5" d="M1429.1243,-261C1451.967,-261 1475.624,-261 1498.6768,-261"/>
<polygon fill="#b8860b" stroke="#b8860b" stroke-width="1.5" points="1498.8668,-264.5001 1508.8667,-261 1498.8667,-257.5001 1498.8668,-264.5001"/>
<text text-anchor="start" x="1464.5" y="-264.8" font-family="Times,serif" font-size="14.00" fill="#0a5040"> )</text>
</g>
<!-- state_11&#45;&gt;state_5 -->
<g id="trans_14" class="edge">
<title>state_11&#45;&gt;state_5</title>
<path fill="none" stroke="#b8860b" stroke-width="1.5" d="M1508.7748,-289.395C1482.2949,-293.3939 1454.9061,-296.8652 1429,-299 1122.6569,-324.2445 1043.0862,-307.4935 738,-270 725.7004,-268.4884 712.9995,-266.7371 700.2485,-264.8424"/>
<polygon fill="#b8860b" stroke="#b8860b" stroke-width="1.5" points="700.4297,-261.33 690.0185,-263.2939 699.382,-268.2512 700.4297,-261.33"/>
<text text-anchor="start" x="1077" y="-312.8" font-family="Times,serif" font-size="14.00" fill="#0a5040"> if</text>
</g>
<!-- state_11&#45;&gt;state_3 -->
<g id="trans_12" class="edge">
<title>state_11&#45;&gt;state_3</title>
<path fill="none" stroke="#b8860b" stroke-width="1.5" d="M1807.1175,-293.9729C1838.0095,-299.6382 1870.4501,-304.7424 1901,-308 2190.5986,-338.8806 2536.2578,-334.5233 2697.4032,-330.1251"/>
<polygon fill="#b8860b" stroke="#b8860b" stroke-width="1.5" points="2697.85,-333.614 2707.7481,-329.8357 2697.6541,-326.6168 2697.85,-333.614"/>
<text text-anchor="start" x="2222.5" y="-333.8" font-family="Times,serif" font-size="14.00" fill="#bc1f29"> if_stmt</text>
</g>
<!-- state_11&#45;&gt;state_4 -->
<g id="trans_13" class="edge">
<title>state_11&#45;&gt;state_4</title>
<path fill="none" stroke="#b8860b" stroke-width="1.5" d="M1807.2829,-217.568C1838.2359,-208.6831 1870.6582,-199.4646 1901,-191 2073.49,-142.8799 2112.9578,-112.9145 2290,-86 2433.6254,-64.1656 2603.0552,-62.7872 2702.8112,-64.432"/>
<polygon fill="#b8860b" stroke="#b8860b" stroke-width="1.5" points="2702.7776,-67.9319 2712.8387,-64.6115 2702.903,-60.933 2702.7776,-67.9319"/>
<text text-anchor="start" x="2227.5" y="-102.8" font-family="Times,serif" font-size="14.00" fill="#0a5040"> other</text>
</g>
<!-- state_12 -->
<g id="state_12" class="node">
<title>state_12</title>
<path fill="#f5f5dc" stroke="#b8860b" stroke-width="1.5" stroke-dasharray="5,2" d="M2187,-298.5C2187,-298.5 1913,-298.5 1913,-298.5 1907,-298.5 1901,-292.5 1901,-286.5 1901,-286.5 1901,-211.5 1901,-211.5 1901,-205.5 1907,-199.5 1913,-199.5 1913,-199.5 2187,-199.5 2187,-199.5 2193,-199.5 2199,-205.5 2199,-211.5 2199,-211.5 2199,-286.5 2199,-286.5 2199,-292.5 2193,-298.5 2187,-298.5"/>
<g id="a_state_12_title"><a xlink:href="#" xlink:title="state_12_title">
<text text-anchor="start" x="2023.5" y="-277.6" font-family="Calibri" font-weight="bold" font-size="13.00" fill="#8b4513">Estado </text>
<text text-anchor="start" x="2062.5" y="-277.6" font-family="Calibri" font-weight="bold" font-size="13.00" fill="#8b4513">12</text>
</a>
</g>
<g id="a_state_12_item_1"><a xlink:href="#" xlink:title="state_12_item_1">
<text text-anchor="start" x="1912" y="-256.8" font-family="Times,serif" font-size="14.00" fill="#bc1f29">if_stmt </text>
<text text-anchor="start" x="1956" y="-256.8" font-family="Times,serif" font-size="14.00" fill="#0a5040">→ </text>
<text text-anchor="start" x="1975" y="-256.8" font-family="Times,serif" font-size="14.00" fill="#0a5040"> if</text>
<text text-anchor="start" x="1988" y="-256.8" font-family="Times,serif" font-size="14.00" fill="#0a5040"> (</text>
<text text-anchor="start" x="1997" y="-256.8" font-family="Times,serif" font-size="14.00" fill="#bc1f29"> bool_exp</text>
<text text-anchor="start" x="2056" y="-256.8" font-family="Times,serif" font-size="14.00" fill="#0a5040"> )</text>
<text text-anchor="start" x="2065" y="-256.8" font-family="Times,serif" font-size="14.00" fill="#bc1f29"> statement</text>
<text text-anchor="start" x="2123" y="-256.8" font-family="Times,serif" font-size="14.00" fill="#f5a70a"> •</text>
<text text-anchor="start" x="2133" y="-256.8" font-family="Times,serif" font-size="14.00" fill="#bc1f29"> else_part</text>
</a>
</g>
<g id="a_state_12_item_2"><a xlink:href="#" xlink:title="state_12_item_2">
<text text-anchor="start" x="1912" y="-235.8" font-family="Times,serif" font-size="14.00" fill="#bc1f29">else_part </text>
<text text-anchor="start" x="1967" y="-235.8" font-family="Times,serif" font-size="14.00" fill="#0a5040">→ </text>
<text text-anchor="start" x="1986" y="-235.8" font-family="Times,serif" font-size="14.00" fill="#f5a70a"> •</text>
<text text-anchor="start" x="1996" y="-235.8" font-family="Times,serif" font-size="14.00" fill="#0a5040"> else</text>
<text text-anchor="start" x="2021" y="-235.8" font-family="Times,serif" font-size="14.00" fill="#bc1f29"> statement</text>
</a>
</g>
<g id="a_state_12_item_3"><a xlink:href="#" xlink:title="state_12_item_3">
<text text-anchor="start" x="1912" y="-214.8" font-family="Times,serif" font-size="14.00" fill="#bc1f29">else_part </text>
<text text-anchor="start" x="1967" y="-214.8" font-family="Times,serif" font-size="14.00" fill="#0a5040">→ </text>
<text text-anchor="start" x="1986" y="-214.8" font-family="Times,serif" font-size="14.00" fill="#f5a70a"> •</text>
</a>
</g>
</g>
<!-- state_11&#45;&gt;state_12 -->
<g id="trans_11" class="edge">
<title>state_11&#45;&gt;state_12</title>
<path fill="none" stroke="#b8860b" stroke-width="1.5" d="M1807.0369,-256.4376C1834.4146,-255.5996 1863.0912,-254.7217 1890.7547,-253.8749"/>
<polygon fill="#b8860b" stroke="#b8860b" stroke-width="1.5" points="1891.0082,-257.3688 1900.8964,-253.5644 1890.794,-250.3721 1891.0082,-257.3688"/>
<text text-anchor="start" x="1825" y="-258.8" font-family="Times,serif" font-size="14.00" fill="#bc1f29"> statement</text>
</g>
<!-- state_14 -->
<g id="state_14" class="node">
<title>state_14</title>
<path fill="#fffff0" stroke="#b8860b" stroke-width="1.5" d="M2580,-215C2580,-215 2306,-215 2306,-215 2300,-215 2294,-209 2294,-203 2294,-203 2294,-107 2294,-107 2294,-101 2300,-95 2306,-95 2306,-95 2580,-95 2580,-95 2586,-95 2592,-101 2592,-107 2592,-107 2592,-203 2592,-203 2592,-209 2586,-215 2580,-215"/>
<g id="a_state_14_title"><a xlink:href="#" xlink:title="state_14_title">
<text text-anchor="start" x="2416.5" y="-194.6" font-family="Calibri" font-weight="bold" font-size="13.00" fill="#8b4513">Estado </text>
<text text-anchor="start" x="2455.5" y="-194.6" font-family="Calibri" font-weight="bold" font-size="13.00" fill="#8b4513">14</text>
</a>
</g>
<g id="a_state_14_item_1"><a xlink:href="#" xlink:title="state_14_item_1">
<text text-anchor="start" x="2305" y="-173.8" font-family="Times,serif" font-size="14.00" fill="#bc1f29">else_part </text>
<text text-anchor="start" x="2360" y="-173.8" font-family="Times,serif" font-size="14.00" fill="#0a5040">→ </text>
<text text-anchor="start" x="2379" y="-173.8" font-family="Times,serif" font-size="14.00" fill="#0a5040"> else</text>
<text text-anchor="start" x="2404" y="-173.8" font-family="Times,serif" font-size="14.00" fill="#f5a70a"> •</text>
<text text-anchor="start" x="2414" y="-173.8" font-family="Times,serif" font-size="14.00" fill="#bc1f29"> statement</text>
</a>
</g>
<g id="a_state_14_item_2"><a xlink:href="#" xlink:title="state_14_item_2">
<text text-anchor="start" x="2305" y="-152.8" font-family="Times,serif" font-size="14.00" fill="#bc1f29">statement </text>
<text text-anchor="start" x="2363" y="-152.8" font-family="Times,serif" font-size="14.00" fill="#0a5040">→ </text>
<text text-anchor="start" x="2382" y="-152.8" font-family="Times,serif" font-size="14.00" fill="#f5a70a"> •</text>
<text text-anchor="start" x="2392" y="-152.8" font-family="Times,serif" font-size="14.00" fill="#bc1f29"> if_stmt</text>
</a>
</g>
<g id="a_state_14_item_3"><a xlink:href="#" xlink:title="state_14_item_3">
<text text-anchor="start" x="2305" y="-131.8" font-family="Times,serif" font-size="14.00" fill="#bc1f29">statement </text>
<text text-anchor="start" x="2363" y="-131.8" font-family="Times,serif" font-size="14.00" fill="#0a5040">→ </text>
<text text-anchor="start" x="2382" y="-131.8" font-family="Times,serif" font-size="14.00" fill="#f5a70a"> •</text>
<text text-anchor="start" x="2392" y="-131.8" font-family="Times,serif" font-size="14.00" fill="#0a5040"> other</text>
</a>
</g>
<g id="a_state_14_item_4"><a xlink:href="#" xlink:title="state_14_item_4">
<text text-anchor="start" x="2305" y="-110.8" font-family="Times,serif" font-size="14.00" fill="#bc1f29">if_stmt </text>
<text text-anchor="start" x="2349" y="-110.8" font-family="Times,serif" font-size="14.00" fill="#0a5040">→ </text>
<text text-anchor="start" x="2368" y="-110.8" font-family="Times,serif" font-size="14.00" fill="#f5a70a"> •</text>
<text text-anchor="start" x="2378" y="-110.8" font-family="Times,serif" font-size="14.00" fill="#0a5040"> if</text>
<text text-anchor="start" x="2391" y="-110.8" font-family="Times,serif" font-size="14.00" fill="#0a5040"> (</text>
<text text-anchor="start" x="2400" y="-110.8" font-family="Times,serif" font-size="14.00" fill="#bc1f29"> bool_exp</text>
<text text-anchor="start" x="2459" y="-110.8" font-family="Times,serif" font-size="14.00" fill="#0a5040"> )</text>
<text text-anchor="start" x="2468" y="-110.8" font-family="Times,serif" font-size="14.00" fill="#bc1f29"> statement</text>
<text text-anchor="start" x="2526" y="-110.8" font-family="Times,serif" font-size="14.00" fill="#bc1f29"> else_part</text>
</a>
</g>
</g>
<!-- state_14&#45;&gt;state_5 -->
<g id="trans_20" class="edge">
<title>state_14&#45;&gt;state_5</title>
<path fill="none" stroke="#b8860b" stroke-width="1.5" d="M2310.8403,-94.9577C2235.9195,-66.2307 2139.5197,-38 2050,-38 887,-38 887,-38 887,-38 758.1713,-38 633.7592,-142.6831 575.453,-199.8151"/>
<polygon fill="#b8860b" stroke="#b8860b" stroke-width="1.5" points="572.6358,-197.68 568.0048,-207.2091 577.5675,-202.6477 572.6358,-197.68"/>
<text text-anchor="start" x="1462.5" y="-41.8" font-family="Times,serif" font-size="14.00" fill="#0a5040"> if</text>
</g>
<!-- state_14&#45;&gt;state_3 -->
<g id="trans_18" class="edge">
<title>state_14&#45;&gt;state_3</title>
<path fill="none" stroke="#b8860b" stroke-width="1.5" d="M2575.5006,-215.0418C2582.4519,-218.3726 2589.3195,-221.7054 2596,-225 2637.5903,-245.5113 2683.4987,-269.7725 2720.0487,-289.4866"/>
<polygon fill="#b8860b" stroke="#b8860b" stroke-width="1.5" points="2718.6697,-292.7198 2729.1311,-294.3957 2721.9981,-286.5617 2718.6697,-292.7198"/>
<text text-anchor="start" x="2621" y="-266.8" font-family="Times,serif" font-size="14.00" fill="#bc1f29"> if_stmt</text>
</g>
<!-- state_14&#45;&gt;state_4 -->
<g id="trans_19" class="edge">
<title>state_14&#45;&gt;state_4</title>
<path fill="none" stroke="#b8860b" stroke-width="1.5" d="M2592.0299,-117.0416C2629.9296,-107.3884 2669.3819,-97.3398 2702.9024,-88.802"/>
<polygon fill="#b8860b" stroke="#b8860b" stroke-width="1.5" points="2703.8218,-92.1796 2712.6485,-86.3196 2702.094,-85.3962 2703.8218,-92.1796"/>
<text text-anchor="start" x="2626" y="-114.8" font-family="Times,serif" font-size="14.00" fill="#0a5040"> other</text>
</g>
<!-- state_15 -->
<g id="state_15" class="node">
<title>state_15</title>
<path fill="#fffff0" stroke="#b8860b" stroke-width="1.5" d="M2871,-183.5C2871,-183.5 2706,-183.5 2706,-183.5 2700,-183.5 2694,-177.5 2694,-171.5 2694,-171.5 2694,-138.5 2694,-138.5 2694,-132.5 2700,-126.5 2706,-126.5 2706,-126.5 2871,-126.5 2871,-126.5 2877,-126.5 2883,-132.5 2883,-138.5 2883,-138.5 2883,-171.5 2883,-171.5 2883,-177.5 2877,-183.5 2871,-183.5"/>
<path fill="none" stroke="#b8860b" stroke-width="1.5" d="M2875,-187.5C2875,-187.5 2702,-187.5 2702,-187.5 2696,-187.5 2690,-181.5 2690,-175.5 2690,-175.5 2690,-134.5 2690,-134.5 2690,-128.5 2696,-122.5 2702,-122.5 2702,-122.5 2875,-122.5 2875,-122.5 2881,-122.5 2887,-128.5 2887,-134.5 2887,-134.5 2887,-175.5 2887,-175.5 2887,-181.5 2881,-187.5 2875,-187.5"/>
<g id="a_state_15_title"><a xlink:href="#" xlink:title="state_15_title">
<text text-anchor="start" x="2762.5" y="-162.6" font-family="Calibri" font-weight="bold" font-size="13.00" fill="#8b4513">Estado </text>
<text text-anchor="start" x="2801.5" y="-162.6" font-family="Calibri" font-weight="bold" font-size="13.00" fill="#8b4513">15</text>
</a>
</g>
<g id="a_state_15_item_1"><a xlink:href="#" xlink:title="state_15_item_1">
<text text-anchor="start" x="2705.5" y="-141.8" font-family="Times,serif" font-size="14.00" fill="#bc1f29">else_part </text>
<text text-anchor="start" x="2760.5" y="-141.8" font-family="Times,serif" font-size="14.00" fill="#0a5040">→ </text>
<text text-anchor="start" x="2779.5" y="-141.8" font-family="Times,serif" font-size="14.00" fill="#0a5040"> else</text>
<text text-anchor="start" x="2804.5" y="-141.8" font-family="Times,serif" font-size="14.00" fill="#bc1f29"> statement</text>
<text text-anchor="start" x="2862.5" y="-141.8" font-family="Times,serif" font-size="14.00" fill="#f5a70a"> •</text>
</a>
</g>
</g>
<!-- state_14&#45;&gt;state_15 -->
<g id="trans_17" class="edge">
<title>state_14&#45;&gt;state_15</title>
<path fill="none" stroke="#b8860b" stroke-width="1.5" d="M2592.0299,-155C2621.4713,-155 2651.8496,-155 2679.6564,-155"/>
<polygon fill="#b8860b" stroke="#b8860b" stroke-width="1.5" points="2679.7781,-158.5001 2689.7781,-155 2679.7781,-151.5001 2679.7781,-158.5001"/>
<text text-anchor="start" x="2614" y="-158.8" font-family="Times,serif" font-size="14.00" fill="#bc1f29"> statement</text>
</g>
<!-- state_13 -->
<g id="state_13" class="node">
<title>state_13</title>
<path fill="#fffff0" stroke="#b8860b" stroke-width="1.5" d="M2580,-294.5C2580,-294.5 2306,-294.5 2306,-294.5 2300,-294.5 2294,-288.5 2294,-282.5 2294,-282.5 2294,-249.5 2294,-249.5 2294,-243.5 2300,-237.5 2306,-237.5 2306,-237.5 2580,-237.5 2580,-237.5 2586,-237.5 2592,-243.5 2592,-249.5 2592,-249.5 2592,-282.5 2592,-282.5 2592,-288.5 2586,-294.5 2580,-294.5"/>
<path fill="none" stroke="#b8860b" stroke-width="1.5" d="M2584,-298.5C2584,-298.5 2302,-298.5 2302,-298.5 2296,-298.5 2290,-292.5 2290,-286.5 2290,-286.5 2290,-245.5 2290,-245.5 2290,-239.5 2296,-233.5 2302,-233.5 2302,-233.5 2584,-233.5 2584,-233.5 2590,-233.5 2596,-239.5 2596,-245.5 2596,-245.5 2596,-286.5 2596,-286.5 2596,-292.5 2590,-298.5 2584,-298.5"/>
<g id="a_state_13_title"><a xlink:href="#" xlink:title="state_13_title">
<text text-anchor="start" x="2416.5" y="-273.6" font-family="Calibri" font-weight="bold" font-size="13.00" fill="#8b4513">Estado </text>
<text text-anchor="start" x="2455.5" y="-273.6" font-family="Calibri" font-weight="bold" font-size="13.00" fill="#8b4513">13</text>
</a>
</g>
<g id="a_state_13_item_1"><a xlink:href="#" xlink:title="state_13_item_1">
<text text-anchor="start" x="2305" y="-252.8" font-family="Times,serif" font-size="14.00" fill="#bc1f29">if_stmt </text>
<text text-anchor="start" x="2349" y="-252.8" font-family="Times,serif" font-size="14.00" fill="#0a5040">→ </text>
<text text-anchor="start" x="2368" y="-252.8" font-family="Times,serif" font-size="14.00" fill="#0a5040"> if</text>
<text text-anchor="start" x="2381" y="-252.8" font-family="Times,serif" font-size="14.00" fill="#0a5040"> (</text>
<text text-anchor="start" x="2390" y="-252.8" font-family="Times,serif" font-size="14.00" fill="#bc1f29"> bool_exp</text>
<text text-anchor="start" x="2449" y="-252.8" font-family="Times,serif" font-size="14.00" fill="#0a5040"> )</text>
<text text-anchor="start" x="2458" y="-252.8" font-family="Times,serif" font-size="14.00" fill="#bc1f29"> statement</text>
<text text-anchor="start" x="2516" y="-252.8" font-family="Times,serif" font-size="14.00" fill="#bc1f29"> else_part</text>
<text text-anchor="start" x="2571" y="-252.8" font-family="Times,serif" font-size="14.00" fill="#f5a70a"> •</text>
</a>
</g>
</g>
<!-- state_12&#45;&gt;state_14 -->
<g id="trans_16" class="edge">
<title>state_12&#45;&gt;state_14</title>
<path fill="none" stroke="#b8860b" stroke-width="1.5" d="M2199.1368,-213.3286C2226.9132,-206.6849 2256.0322,-199.72 2284.0892,-193.0092"/>
<polygon fill="#b8860b" stroke="#b8860b" stroke-width="1.5" points="2285.0535,-196.3774 2293.965,-190.6471 2283.4251,-189.5694 2285.0535,-196.3774"/>
<text text-anchor="start" x="2232" y="-210.8" font-family="Times,serif" font-size="14.00" fill="#0a5040"> else</text>
</g>
<!-- state_12&#45;&gt;state_13 -->
<g id="trans_15" class="edge">
<title>state_12&#45;&gt;state_13</title>
<path fill="none" stroke="#b8860b" stroke-width="1.5" d="M2199.1368,-255.4512C2225.4191,-256.5881 2252.9034,-257.777 2279.5527,-258.9298"/>
<polygon fill="#b8860b" stroke="#b8860b" stroke-width="1.5" points="2279.5792,-262.4341 2289.7211,-259.3696 2279.8817,-255.4406 2279.5792,-262.4341"/>
<text text-anchor="start" x="2217" y="-261.8" font-family="Times,serif" font-size="14.00" fill="#bc1f29"> else_part</text>
</g>
</g>
</svg>
