<?xml version="1.0" encoding="UTF-8" standalone="no"?>
<!DOCTYPE svg PUBLIC "-//W3C//DTD SVG 1.1//EN"
 "http://www.w3.org/Graphics/SVG/1.1/DTD/svg11.dtd">
<!-- Generated by graphviz version 2.40.1 (20161225.0304)
 -->
<!-- Title: NFA Pages: 1 -->
<svg width="681pt" height="363pt"
 viewBox="0.00 0.00 681.00 363.00" xmlns="http://www.w3.org/2000/svg" xmlns:xlink="http://www.w3.org/1999/xlink">
<g id="graph0" class="graph" transform="scale(1 1) rotate(0) translate(4 359)">
<title>NFA</title>
<!-- state_10004 -->
<g id="state_10004" class="node">
<title>state_10004</title>
<path fill="#fffff0" stroke="#b8860b" stroke-width="1.5" d="M360.5,-278C360.5,-278 301.5,-278 301.5,-278 295.5,-278 289.5,-272 289.5,-266 289.5,-266 289.5,-239 289.5,-239 289.5,-233 295.5,-227 301.5,-227 301.5,-227 360.5,-227 360.5,-227 366.5,-227 372.5,-233 372.5,-239 372.5,-239 372.5,-266 372.5,-266 372.5,-272 366.5,-278 360.5,-278"/>
<g id="a_state_10004_title"><a xlink:href="#" xlink:title="state_10004_title">
<text text-anchor="start" x="308.5" y="-260.1" font-family="Calibri" font-weight="bold" font-size="13.00" fill="#8b4513">Estado </text>
<text text-anchor="start" x="347.5" y="-260.1" font-family="Calibri" font-weight="bold" font-size="13.00" fill="#8b4513">4</text>
</a>
</g>
<g id="a_state_10004_item_1"><a xlink:href="#" xlink:title="state_10004_item_1">
<text text-anchor="start" x="298" y="-239.3" font-family="Times,serif" font-size="14.00" fill="#bc1f29">B </text>
<text text-anchor="start" x="312" y="-239.3" font-family="Times,serif" font-size="14.00" fill="#0a5040">→ </text>
<text text-anchor="start" x="331" y="-239.3" font-family="Times,serif" font-size="14.00" fill="#f5a70a"> •</text>
<text text-anchor="start" x="341" y="-239.3" font-family="Times,serif" font-size="14.00" fill="#0a5040"> x</text>
<text text-anchor="start" x="353" y="-239.3" font-family="Times,serif" font-size="14.00" fill="#0a5040"> y</text>
</a>
</g>
</g>
<!-- state_10009 -->
<g id="state_10009" class="node">
<title>state_10009</title>
<path fill="#fffff0" stroke="#b8860b" stroke-width="1.5" d="M504,-284C504,-284 445,-284 445,-284 439,-284 433,-278 433,-272 433,-272 433,-245 433,-245 433,-239 439,-233 445,-233 445,-233 504,-233 504,-233 510,-233 516,-239 516,-245 516,-245 516,-272 516,-272 516,-278 510,-284 504,-284"/>
<g id="a_state_10009_title"><a xlink:href="#" xlink:title="state_10009_title">
<text text-anchor="start" x="452" y="-266.1" font-family="Calibri" font-weight="bold" font-size="13.00" fill="#8b4513">Estado </text>
<text text-anchor="start" x="491" y="-266.1" font-family="Calibri" font-weight="bold" font-size="13.00" fill="#8b4513">9</text>
</a>
</g>
<g id="a_state_10009_item_1"><a xlink:href="#" xlink:title="state_10009_item_1">
<text text-anchor="start" x="441.5" y="-245.3" font-family="Times,serif" font-size="14.00" fill="#bc1f29">B </text>
<text text-anchor="start" x="455.5" y="-245.3" font-family="Times,serif" font-size="14.00" fill="#0a5040">→ </text>
<text text-anchor="start" x="474.5" y="-245.3" font-family="Times,serif" font-size="14.00" fill="#0a5040"> x</text>
<text text-anchor="start" x="486.5" y="-245.3" font-family="Times,serif" font-size="14.00" fill="#f5a70a"> •</text>
<text text-anchor="start" x="496.5" y="-245.3" font-family="Times,serif" font-size="14.00" fill="#0a5040"> y</text>
</a>
</g>
</g>
<!-- state_10004&#45;&gt;state_10009 -->
<g id="trans_8" class="edge">
<title>state_10004&#45;&gt;state_10009</title>
<path fill="none" stroke="#b8860b" stroke-width="1.5" d="M372.5061,-254.2354C388.1352,-254.8889 406.1076,-255.6404 422.5697,-256.3287"/>
<polygon fill="#b8860b" stroke="#b8860b" stroke-width="1.5" points="422.4525,-259.8268 432.59,-256.7477 422.745,-252.8329 422.4525,-259.8268"/>
<text text-anchor="start" x="397" y="-259.3" font-family="Times,serif" font-size="14.00" fill="#0a5040"> x</text>
</g>
<!-- state_10005 -->
<g id="state_10005" class="node">
<title>state_10005</title>
<path fill="#fffff0" stroke="#b8860b" stroke-width="1.5" d="M360,-132C360,-132 302,-132 302,-132 296,-132 290,-126 290,-120 290,-120 290,-93 290,-93 290,-87 296,-81 302,-81 302,-81 360,-81 360,-81 366,-81 372,-87 372,-93 372,-93 372,-120 372,-120 372,-126 366,-132 360,-132"/>
<g id="a_state_10005_title"><a xlink:href="#" xlink:title="state_10005_title">
<text text-anchor="start" x="308" y="-114.1" font-family="Calibri" font-weight="bold" font-size="13.00" fill="#8b4513">Estado </text>
<text text-anchor="start" x="347" y="-114.1" font-family="Calibri" font-weight="bold" font-size="13.00" fill="#8b4513">5</text>
</a>
</g>
<g id="a_state_10005_item_1"><a xlink:href="#" xlink:title="state_10005_item_1">
<text text-anchor="start" x="298" y="-93.3" font-family="Times,serif" font-size="14.00" fill="#bc1f29">E </text>
<text text-anchor="start" x="311" y="-93.3" font-family="Times,serif" font-size="14.00" fill="#0a5040">→ </text>
<text text-anchor="start" x="330" y="-93.3" font-family="Times,serif" font-size="14.00" fill="#f5a70a"> •</text>
<text text-anchor="start" x="340" y="-93.3" font-family="Times,serif" font-size="14.00" fill="#0a5040"> x</text>
<text text-anchor="start" x="352" y="-93.3" font-family="Times,serif" font-size="14.00" fill="#0a5040"> y</text>
</a>
</g>
</g>
<!-- state_10010 -->
<g id="state_10010" class="node">
<title>state_10010</title>
<path fill="#fffff0" stroke="#b8860b" stroke-width="1.5" d="M503.5,-132C503.5,-132 445.5,-132 445.5,-132 439.5,-132 433.5,-126 433.5,-120 433.5,-120 433.5,-93 433.5,-93 433.5,-87 439.5,-81 445.5,-81 445.5,-81 503.5,-81 503.5,-81 509.5,-81 515.5,-87 515.5,-93 515.5,-93 515.5,-120 515.5,-120 515.5,-126 509.5,-132 503.5,-132"/>
<g id="a_state_10010_title"><a xlink:href="#" xlink:title="state_10010_title">
<text text-anchor="start" x="448" y="-114.1" font-family="Calibri" font-weight="bold" font-size="13.00" fill="#8b4513">Estado </text>
<text text-anchor="start" x="487" y="-114.1" font-family="Calibri" font-weight="bold" font-size="13.00" fill="#8b4513">10</text>
</a>
</g>
<g id="a_state_10010_item_1"><a xlink:href="#" xlink:title="state_10010_item_1">
<text text-anchor="start" x="441.5" y="-93.3" font-family="Times,serif" font-size="14.00" fill="#bc1f29">E </text>
<text text-anchor="start" x="454.5" y="-93.3" font-family="Times,serif" font-size="14.00" fill="#0a5040">→ </text>
<text text-anchor="start" x="473.5" y="-93.3" font-family="Times,serif" font-size="14.00" fill="#0a5040"> x</text>
<text text-anchor="start" x="485.5" y="-93.3" font-family="Times,serif" font-size="14.00" fill="#f5a70a"> •</text>
<text text-anchor="start" x="495.5" y="-93.3" font-family="Times,serif" font-size="14.00" fill="#0a5040"> y</text>
</a>
</g>
</g>
<!-- state_10005&#45;&gt;state_10010 -->
<g id="trans_9" class="edge">
<title>state_10005&#45;&gt;state_10010</title>
<path fill="none" stroke="#b8860b" stroke-width="1.5" d="M372.1213,-106.5C388.0332,-106.5 406.4191,-106.5 423.1819,-106.5"/>
<polygon fill="#b8860b" stroke="#b8860b" stroke-width="1.5" points="423.3727,-110.0001 433.3727,-106.5 423.3726,-103.0001 423.3727,-110.0001"/>
<text text-anchor="start" x="397" y="-110.3" font-family="Times,serif" font-size="14.00" fill="#0a5040"> x</text>
</g>
<!-- state_10006 -->
<g id="state_10006" class="node">
<title>state_10006</title>
<path fill="#fffff0" stroke="#b8860b" stroke-width="1.5" d="M217.5,-324C217.5,-324 153.5,-324 153.5,-324 147.5,-324 141.5,-318 141.5,-312 141.5,-312 141.5,-285 141.5,-285 141.5,-279 147.5,-273 153.5,-273 153.5,-273 217.5,-273 217.5,-273 223.5,-273 229.5,-279 229.5,-285 229.5,-285 229.5,-312 229.5,-312 229.5,-318 223.5,-324 217.5,-324"/>
<g id="a_state_10006_title"><a xlink:href="#" xlink:title="state_10006_title">
<text text-anchor="start" x="162.5" y="-306.1" font-family="Calibri" font-weight="bold" font-size="13.00" fill="#8b4513">Estado </text>
<text text-anchor="start" x="201.5" y="-306.1" font-family="Calibri" font-weight="bold" font-size="13.00" fill="#8b4513">6</text>
</a>
</g>
<g id="a_state_10006_item_1"><a xlink:href="#" xlink:title="state_10006_item_1">
<text text-anchor="start" x="149.5" y="-285.3" font-family="Times,serif" font-size="14.00" fill="#bc1f29">A&#39; </text>
<text text-anchor="start" x="166.5" y="-285.3" font-family="Times,serif" font-size="14.00" fill="#0a5040">→ </text>
<text text-anchor="start" x="185.5" y="-285.3" font-family="Times,serif" font-size="14.00" fill="#bc1f29"> A</text>
<text text-anchor="start" x="199.5" y="-285.3" font-family="Times,serif" font-size="14.00" fill="#f5a70a"> •</text>
<text text-anchor="start" x="209.5" y="-285.3" font-family="Times,serif" font-size="14.00" fill="#0a5040"> $</text>
</a>
</g>
</g>
<!-- state_10011 -->
<g id="state_10011" class="node">
<title>state_10011</title>
<path fill="#f5f5dc" stroke="#b8860b" stroke-width="1.5" d="M363,-351C363,-351 299,-351 299,-351 293,-351 287,-345 287,-339 287,-339 287,-312 287,-312 287,-306 293,-300 299,-300 299,-300 363,-300 363,-300 369,-300 375,-306 375,-312 375,-312 375,-339 375,-339 375,-345 369,-351 363,-351"/>
<path fill="none" stroke="#b8860b" stroke-width="1.5" d="M367,-355C367,-355 295,-355 295,-355 289,-355 283,-349 283,-343 283,-343 283,-308 283,-308 283,-302 289,-296 295,-296 295,-296 367,-296 367,-296 373,-296 379,-302 379,-308 379,-308 379,-343 379,-343 379,-349 373,-355 367,-355"/>
<g id="a_state_10011_title"><a xlink:href="#" xlink:title="state_10011_title">
<text text-anchor="start" x="304.5" y="-333.1" font-family="Calibri" font-weight="bold" font-size="13.00" fill="#8b4513">Estado </text>
<text text-anchor="start" x="343.5" y="-333.1" font-family="Calibri" font-weight="bold" font-size="13.00" fill="#8b4513">11</text>
</a>
</g>
<g id="a_state_10011_item_1"><a xlink:href="#" xlink:title="state_10011_item_1">
<text text-anchor="start" x="295" y="-312.3" font-family="Times,serif" font-size="14.00" fill="#bc1f29">A&#39; </text>
<text text-anchor="start" x="312" y="-312.3" font-family="Times,serif" font-size="14.00" fill="#0a5040">→ </text>
<text text-anchor="start" x="331" y="-312.3" font-family="Times,serif" font-size="14.00" fill="#bc1f29"> A</text>
<text text-anchor="start" x="345" y="-312.3" font-family="Times,serif" font-size="14.00" fill="#0a5040"> $</text>
<text text-anchor="start" x="357" y="-312.3" font-family="Times,serif" font-size="14.00" fill="#f5a70a"> •</text>
</a>
</g>
</g>
<!-- state_10006&#45;&gt;state_10011 -->
<g id="trans_10" class="edge">
<title>state_10006&#45;&gt;state_10011</title>
<path fill="none" stroke="#b8860b" stroke-width="1.5" d="M229.5496,-306.6742C243.2093,-309.2089 258.4767,-312.0421 272.9364,-314.7253"/>
<polygon fill="#b8860b" stroke="#b8860b" stroke-width="1.5" points="272.3175,-318.1701 282.7882,-316.5535 273.5947,-311.2876 272.3175,-318.1701"/>
<text text-anchor="start" x="252" y="-316.3" font-family="Times,serif" font-size="14.00" fill="#0a5040"> $</text>
</g>
<!-- state_10007 -->
<g id="state_10007" class="node">
<title>state_10007</title>
<path fill="#fffff0" stroke="#b8860b" stroke-width="1.5" d="M366.5,-209C366.5,-209 295.5,-209 295.5,-209 289.5,-209 283.5,-203 283.5,-197 283.5,-197 283.5,-170 283.5,-170 283.5,-164 289.5,-158 295.5,-158 295.5,-158 366.5,-158 366.5,-158 372.5,-158 378.5,-164 378.5,-170 378.5,-170 378.5,-197 378.5,-197 378.5,-203 372.5,-209 366.5,-209"/>
<g id="a_state_10007_title"><a xlink:href="#" xlink:title="state_10007_title">
<text text-anchor="start" x="308.5" y="-191.1" font-family="Calibri" font-weight="bold" font-size="13.00" fill="#8b4513">Estado </text>
<text text-anchor="start" x="347.5" y="-191.1" font-family="Calibri" font-weight="bold" font-size="13.00" fill="#8b4513">7</text>
</a>
</g>
<g id="a_state_10007_item_1"><a xlink:href="#" xlink:title="state_10007_item_1">
<text text-anchor="start" x="292" y="-170.3" font-family="Times,serif" font-size="14.00" fill="#bc1f29">A </text>
<text text-anchor="start" x="306" y="-170.3" font-family="Times,serif" font-size="14.00" fill="#0a5040">→ </text>
<text text-anchor="start" x="325" y="-170.3" font-family="Times,serif" font-size="14.00" fill="#bc1f29"> B</text>
<text text-anchor="start" x="339" y="-170.3" font-family="Times,serif" font-size="14.00" fill="#f5a70a"> •</text>
<text text-anchor="start" x="349" y="-170.3" font-family="Times,serif" font-size="14.00" fill="#0a5040"> c</text>
<text text-anchor="start" x="359" y="-170.3" font-family="Times,serif" font-size="14.00" fill="#0a5040"> d</text>
</a>
</g>
</g>
<!-- state_10012 -->
<g id="state_10012" class="node">
<title>state_10012</title>
<path fill="#fffff0" stroke="#b8860b" stroke-width="1.5" d="M510,-209C510,-209 439,-209 439,-209 433,-209 427,-203 427,-197 427,-197 427,-170 427,-170 427,-164 433,-158 439,-158 439,-158 510,-158 510,-158 516,-158 522,-164 522,-170 522,-170 522,-197 522,-197 522,-203 516,-209 510,-209"/>
<g id="a_state_10012_title"><a xlink:href="#" xlink:title="state_10012_title">
<text text-anchor="start" x="448.5" y="-191.1" font-family="Calibri" font-weight="bold" font-size="13.00" fill="#8b4513">Estado </text>
<text text-anchor="start" x="487.5" y="-191.1" font-family="Calibri" font-weight="bold" font-size="13.00" fill="#8b4513">12</text>
</a>
</g>
<g id="a_state_10012_item_1"><a xlink:href="#" xlink:title="state_10012_item_1">
<text text-anchor="start" x="435.5" y="-170.3" font-family="Times,serif" font-size="14.00" fill="#bc1f29">A </text>
<text text-anchor="start" x="449.5" y="-170.3" font-family="Times,serif" font-size="14.00" fill="#0a5040">→ </text>
<text text-anchor="start" x="468.5" y="-170.3" font-family="Times,serif" font-size="14.00" fill="#bc1f29"> B</text>
<text text-anchor="start" x="482.5" y="-170.3" font-family="Times,serif" font-size="14.00" fill="#0a5040"> c</text>
<text text-anchor="start" x="492.5" y="-170.3" font-family="Times,serif" font-size="14.00" fill="#f5a70a"> •</text>
<text text-anchor="start" x="502.5" y="-170.3" font-family="Times,serif" font-size="14.00" fill="#0a5040"> d</text>
</a>
</g>
</g>
<!-- state_10007&#45;&gt;state_10012 -->
<g id="trans_11" class="edge">
<title>state_10007&#45;&gt;state_10012</title>
<path fill="none" stroke="#b8860b" stroke-width="1.5" d="M378.7834,-183.5C390.8858,-183.5 404.0159,-183.5 416.5607,-183.5"/>
<polygon fill="#b8860b" stroke="#b8860b" stroke-width="1.5" points="416.9253,-187.0001 426.9252,-183.5 416.9252,-180.0001 416.9253,-187.0001"/>
<text text-anchor="start" x="398" y="-187.3" font-family="Times,serif" font-size="14.00" fill="#0a5040"> c</text>
</g>
<!-- state_10008 -->
<g id="state_10008" class="node">
<title>state_10008</title>
<path fill="#fffff0" stroke="#b8860b" stroke-width="1.5" d="M364.5,-63C364.5,-63 297.5,-63 297.5,-63 291.5,-63 285.5,-57 285.5,-51 285.5,-51 285.5,-24 285.5,-24 285.5,-18 291.5,-12 297.5,-12 297.5,-12 364.5,-12 364.5,-12 370.5,-12 376.5,-18 376.5,-24 376.5,-24 376.5,-51 376.5,-51 376.5,-57 370.5,-63 364.5,-63"/>
<g id="a_state_10008_title"><a xlink:href="#" xlink:title="state_10008_title">
<text text-anchor="start" x="308.5" y="-45.1" font-family="Calibri" font-weight="bold" font-size="13.00" fill="#8b4513">Estado </text>
<text text-anchor="start" x="347.5" y="-45.1" font-family="Calibri" font-weight="bold" font-size="13.00" fill="#8b4513">8</text>
</a>
</g>
<g id="a_state_10008_item_1"><a xlink:href="#" xlink:title="state_10008_item_1">
<text text-anchor="start" x="294" y="-24.3" font-family="Times,serif" font-size="14.00" fill="#bc1f29">A </text>
<text text-anchor="start" x="308" y="-24.3" font-family="Times,serif" font-size="14.00" fill="#0a5040">→ </text>
<text text-anchor="start" x="327" y="-24.3" font-family="Times,serif" font-size="14.00" fill="#bc1f29"> E</text>
<text text-anchor="start" x="340" y="-24.3" font-family="Times,serif" font-size="14.00" fill="#f5a70a"> •</text>
<text text-anchor="start" x="350" y="-24.3" font-family="Times,serif" font-size="14.00" fill="#0a5040"> c</text>
<text text-anchor="start" x="360" y="-24.3" font-family="Times,serif" font-size="14.00" fill="#0a5040"> f</text>
</a>
</g>
</g>
<!-- state_10013 -->
<g id="state_10013" class="node">
<title>state_10013</title>
<path fill="#fffff0" stroke="#b8860b" stroke-width="1.5" d="M508,-59C508,-59 441,-59 441,-59 435,-59 429,-53 429,-47 429,-47 429,-20 429,-20 429,-14 435,-8 441,-8 441,-8 508,-8 508,-8 514,-8 520,-14 520,-20 520,-20 520,-47 520,-47 520,-53 514,-59 508,-59"/>
<g id="a_state_10013_title"><a xlink:href="#" xlink:title="state_10013_title">
<text text-anchor="start" x="448.5" y="-41.1" font-family="Calibri" font-weight="bold" font-size="13.00" fill="#8b4513">Estado </text>
<text text-anchor="start" x="487.5" y="-41.1" font-family="Calibri" font-weight="bold" font-size="13.00" fill="#8b4513">13</text>
</a>
</g>
<g id="a_state_10013_item_1"><a xlink:href="#" xlink:title="state_10013_item_1">
<text text-anchor="start" x="437.5" y="-20.3" font-family="Times,serif" font-size="14.00" fill="#bc1f29">A </text>
<text text-anchor="start" x="451.5" y="-20.3" font-family="Times,serif" font-size="14.00" fill="#0a5040">→ </text>
<text text-anchor="start" x="470.5" y="-20.3" font-family="Times,serif" font-size="14.00" fill="#bc1f29"> E</text>
<text text-anchor="start" x="483.5" y="-20.3" font-family="Times,serif" font-size="14.00" fill="#0a5040"> c</text>
<text text-anchor="start" x="493.5" y="-20.3" font-family="Times,serif" font-size="14.00" fill="#f5a70a"> •</text>
<text text-anchor="start" x="503.5" y="-20.3" font-family="Times,serif" font-size="14.00" fill="#0a5040"> f</text>
</a>
</g>
</g>
<!-- state_10008&#45;&gt;state_10013 -->
<g id="trans_12" class="edge">
<title>state_10008&#45;&gt;state_10013</title>
<path fill="none" stroke="#b8860b" stroke-width="1.5" d="M376.7988,-36.2234C390.0021,-35.8553 404.5604,-35.4495 418.3167,-35.0661"/>
<polygon fill="#b8860b" stroke="#b8860b" stroke-width="1.5" points="418.7455,-38.5556 428.6441,-34.7782 418.5504,-31.5583 418.7455,-38.5556"/>
<text text-anchor="start" x="398" y="-39.3" font-family="Times,serif" font-size="14.00" fill="#0a5040"> c</text>
</g>
<!-- state_10014 -->
<g id="state_10014" class="node">
<title>state_10014</title>
<path fill="#f5f5dc" stroke="#b8860b" stroke-width="1.5" d="M651,-286C651,-286 592,-286 592,-286 586,-286 580,-280 580,-274 580,-274 580,-247 580,-247 580,-241 586,-235 592,-235 592,-235 651,-235 651,-235 657,-235 663,-241 663,-247 663,-247 663,-274 663,-274 663,-280 657,-286 651,-286"/>
<path fill="none" stroke="#b8860b" stroke-width="1.5" d="M655,-290C655,-290 588,-290 588,-290 582,-290 576,-284 576,-278 576,-278 576,-243 576,-243 576,-237 582,-231 588,-231 588,-231 655,-231 655,-231 661,-231 667,-237 667,-243 667,-243 667,-278 667,-278 667,-284 661,-290 655,-290"/>
<g id="a_state_10014_title"><a xlink:href="#" xlink:title="state_10014_title">
<text text-anchor="start" x="595.5" y="-268.1" font-family="Calibri" font-weight="bold" font-size="13.00" fill="#8b4513">Estado </text>
<text text-anchor="start" x="634.5" y="-268.1" font-family="Calibri" font-weight="bold" font-size="13.00" fill="#8b4513">14</text>
</a>
</g>
<g id="a_state_10014_item_1"><a xlink:href="#" xlink:title="state_10014_item_1">
<text text-anchor="start" x="588.5" y="-247.3" font-family="Times,serif" font-size="14.00" fill="#bc1f29">B </text>
<text text-anchor="start" x="602.5" y="-247.3" font-family="Times,serif" font-size="14.00" fill="#0a5040">→ </text>
<text text-anchor="start" x="621.5" y="-247.3" font-family="Times,serif" font-size="14.00" fill="#0a5040"> x</text>
<text text-anchor="start" x="633.5" y="-247.3" font-family="Times,serif" font-size="14.00" fill="#0a5040"> y</text>
<text text-anchor="start" x="645.5" y="-247.3" font-family="Times,serif" font-size="14.00" fill="#f5a70a"> •</text>
</a>
</g>
</g>
<!-- state_10009&#45;&gt;state_10014 -->
<g id="trans_13" class="edge">
<title>state_10009&#45;&gt;state_10014</title>
<path fill="none" stroke="#b8860b" stroke-width="1.5" d="M516.2311,-259.0678C531.6253,-259.2772 549.3218,-259.518 565.758,-259.7416"/>
<polygon fill="#b8860b" stroke="#b8860b" stroke-width="1.5" points="565.7505,-263.2417 575.7972,-259.8782 565.8458,-256.2424 565.7505,-263.2417"/>
<text text-anchor="start" x="540" y="-263.3" font-family="Times,serif" font-size="14.00" fill="#0a5040"> y</text>
</g>
<!-- state_10015 -->
<g id="state_10015" class="node">
<title>state_10015</title>
<path fill="#f5f5dc" stroke="#b8860b" stroke-width="1.5" d="M650.5,-132C650.5,-132 592.5,-132 592.5,-132 586.5,-132 580.5,-126 580.5,-120 580.5,-120 580.5,-93 580.5,-93 580.5,-87 586.5,-81 592.5,-81 592.5,-81 650.5,-81 650.5,-81 656.5,-81 662.5,-87 662.5,-93 662.5,-93 662.5,-120 662.5,-120 662.5,-126 656.5,-132 650.5,-132"/>
<path fill="none" stroke="#b8860b" stroke-width="1.5" d="M654.5,-136C654.5,-136 588.5,-136 588.5,-136 582.5,-136 576.5,-130 576.5,-124 576.5,-124 576.5,-89 576.5,-89 576.5,-83 582.5,-77 588.5,-77 588.5,-77 654.5,-77 654.5,-77 660.5,-77 666.5,-83 666.5,-89 666.5,-89 666.5,-124 666.5,-124 666.5,-130 660.5,-136 654.5,-136"/>
<g id="a_state_10015_title"><a xlink:href="#" xlink:title="state_10015_title">
<text text-anchor="start" x="595" y="-114.1" font-family="Calibri" font-weight="bold" font-size="13.00" fill="#8b4513">Estado </text>
<text text-anchor="start" x="634" y="-114.1" font-family="Calibri" font-weight="bold" font-size="13.00" fill="#8b4513">15</text>
</a>
</g>
<g id="a_state_10015_item_1"><a xlink:href="#" xlink:title="state_10015_item_1">
<text text-anchor="start" x="588.5" y="-93.3" font-family="Times,serif" font-size="14.00" fill="#bc1f29">E </text>
<text text-anchor="start" x="601.5" y="-93.3" font-family="Times,serif" font-size="14.00" fill="#0a5040">→ </text>
<text text-anchor="start" x="620.5" y="-93.3" font-family="Times,serif" font-size="14.00" fill="#0a5040"> x</text>
<text text-anchor="start" x="632.5" y="-93.3" font-family="Times,serif" font-size="14.00" fill="#0a5040"> y</text>
<text text-anchor="start" x="644.5" y="-93.3" font-family="Times,serif" font-size="14.00" fill="#f5a70a"> •</text>
</a>
</g>
</g>
<!-- state_10010&#45;&gt;state_10015 -->
<g id="trans_14" class="edge">
<title>state_10010&#45;&gt;state_10015</title>
<path fill="none" stroke="#b8860b" stroke-width="1.5" d="M515.8389,-106.5C531.4509,-106.5 549.4743,-106.5 566.1645,-106.5"/>
<polygon fill="#b8860b" stroke="#b8860b" stroke-width="1.5" points="566.3508,-110.0001 576.3508,-106.5 566.3507,-103.0001 566.3508,-110.0001"/>
<text text-anchor="start" x="540" y="-110.3" font-family="Times,serif" font-size="14.00" fill="#0a5040"> y</text>
</g>
<!-- state_10016 -->
<g id="state_10016" class="node">
<title>state_10016</title>
<path fill="#f5f5dc" stroke="#b8860b" stroke-width="1.5" d="M657,-209C657,-209 586,-209 586,-209 580,-209 574,-203 574,-197 574,-197 574,-170 574,-170 574,-164 580,-158 586,-158 586,-158 657,-158 657,-158 663,-158 669,-164 669,-170 669,-170 669,-197 669,-197 669,-203 663,-209 657,-209"/>
<path fill="none" stroke="#b8860b" stroke-width="1.5" d="M661,-213C661,-213 582,-213 582,-213 576,-213 570,-207 570,-201 570,-201 570,-166 570,-166 570,-160 576,-154 582,-154 582,-154 661,-154 661,-154 667,-154 673,-160 673,-166 673,-166 673,-201 673,-201 673,-207 667,-213 661,-213"/>
<g id="a_state_10016_title"><a xlink:href="#" xlink:title="state_10016_title">
<text text-anchor="start" x="595.5" y="-191.1" font-family="Calibri" font-weight="bold" font-size="13.00" fill="#8b4513">Estado </text>
<text text-anchor="start" x="634.5" y="-191.1" font-family="Calibri" font-weight="bold" font-size="13.00" fill="#8b4513">16</text>
</a>
</g>
<g id="a_state_10016_item_1"><a xlink:href="#" xlink:title="state_10016_item_1">
<text text-anchor="start" x="582.5" y="-170.3" font-family="Times,serif" font-size="14.00" fill="#bc1f29">A </text>
<text text-anchor="start" x="596.5" y="-170.3" font-family="Times,serif" font-size="14.00" fill="#0a5040">→ </text>
<text text-anchor="start" x="615.5" y="-170.3" font-family="Times,serif" font-size="14.00" fill="#bc1f29"> B</text>
<text text-anchor="start" x="629.5" y="-170.3" font-family="Times,serif" font-size="14.00" fill="#0a5040"> c</text>
<text text-anchor="start" x="639.5" y="-170.3" font-family="Times,serif" font-size="14.00" fill="#0a5040"> d</text>
<text text-anchor="start" x="651.5" y="-170.3" font-family="Times,serif" font-size="14.00" fill="#f5a70a"> •</text>
</a>
</g>
</g>
<!-- state_10012&#45;&gt;state_10016 -->
<g id="trans_15" class="edge">
<title>state_10012&#45;&gt;state_10016</title>
<path fill="none" stroke="#b8860b" stroke-width="1.5" d="M522.2267,-183.5C534.1468,-183.5 547.1025,-183.5 559.5993,-183.5"/>
<polygon fill="#b8860b" stroke="#b8860b" stroke-width="1.5" points="559.9559,-187.0001 569.9559,-183.5 559.9558,-180.0001 559.9559,-187.0001"/>
<text text-anchor="start" x="540" y="-187.3" font-family="Times,serif" font-size="14.00" fill="#0a5040"> d</text>
</g>
<!-- state_10017 -->
<g id="state_10017" class="node">
<title>state_10017</title>
<path fill="#f5f5dc" stroke="#b8860b" stroke-width="1.5" d="M655,-55C655,-55 588,-55 588,-55 582,-55 576,-49 576,-43 576,-43 576,-16 576,-16 576,-10 582,-4 588,-4 588,-4 655,-4 655,-4 661,-4 667,-10 667,-16 667,-16 667,-43 667,-43 667,-49 661,-55 655,-55"/>
<path fill="none" stroke="#b8860b" stroke-width="1.5" d="M659,-59C659,-59 584,-59 584,-59 578,-59 572,-53 572,-47 572,-47 572,-12 572,-12 572,-6 578,0 584,0 584,0 659,0 659,0 665,0 671,-6 671,-12 671,-12 671,-47 671,-47 671,-53 665,-59 659,-59"/>
<g id="a_state_10017_title"><a xlink:href="#" xlink:title="state_10017_title">
<text text-anchor="start" x="595.5" y="-37.1" font-family="Calibri" font-weight="bold" font-size="13.00" fill="#8b4513">Estado </text>
<text text-anchor="start" x="634.5" y="-37.1" font-family="Calibri" font-weight="bold" font-size="13.00" fill="#8b4513">17</text>
</a>
</g>
<g id="a_state_10017_item_1"><a xlink:href="#" xlink:title="state_10017_item_1">
<text text-anchor="start" x="584.5" y="-16.3" font-family="Times,serif" font-size="14.00" fill="#bc1f29">A </text>
<text text-anchor="start" x="598.5" y="-16.3" font-family="Times,serif" font-size="14.00" fill="#0a5040">→ </text>
<text text-anchor="start" x="617.5" y="-16.3" font-family="Times,serif" font-size="14.00" fill="#bc1f29"> E</text>
<text text-anchor="start" x="630.5" y="-16.3" font-family="Times,serif" font-size="14.00" fill="#0a5040"> c</text>
<text text-anchor="start" x="640.5" y="-16.3" font-family="Times,serif" font-size="14.00" fill="#0a5040"> f</text>
<text text-anchor="start" x="649.5" y="-16.3" font-family="Times,serif" font-size="14.00" fill="#f5a70a"> •</text>
</a>
</g>
</g>
<!-- state_10013&#45;&gt;state_10017 -->
<g id="trans_16" class="edge">
<title>state_10013&#45;&gt;state_10017</title>
<path fill="none" stroke="#b8860b" stroke-width="1.5" d="M520.2059,-32.2563C533.3025,-31.8999 547.7798,-31.506 561.5934,-31.1301"/>
<polygon fill="#b8860b" stroke="#b8860b" stroke-width="1.5" points="562.0924,-34.6179 571.9934,-30.8471 561.9019,-27.6205 562.0924,-34.6179"/>
<text text-anchor="start" x="541.5" y="-35.3" font-family="Times,serif" font-size="14.00" fill="#0a5040"> f</text>
</g>
<!-- state_10001 -->
<g id="state_10001" class="node">
<title>state_10001</title>
<path fill="#fffff0" stroke="#b8860b" stroke-width="1.5" d="M76,-236C76,-236 12,-236 12,-236 6,-236 0,-230 0,-224 0,-224 0,-197 0,-197 0,-191 6,-185 12,-185 12,-185 76,-185 76,-185 82,-185 88,-191 88,-197 88,-197 88,-224 88,-224 88,-230 82,-236 76,-236"/>
<g id="a_state_10001_title"><a xlink:href="#" xlink:title="state_10001_title">
<text text-anchor="start" x="21" y="-218.1" font-family="Calibri" font-weight="bold" font-size="13.00" fill="#8b4513">Estado </text>
<text text-anchor="start" x="60" y="-218.1" font-family="Calibri" font-weight="bold" font-size="13.00" fill="#8b4513">1</text>
</a>
</g>
<g id="a_state_10001_item_1"><a xlink:href="#" xlink:title="state_10001_item_1">
<text text-anchor="start" x="8" y="-197.3" font-family="Times,serif" font-size="14.00" fill="#bc1f29">A&#39; </text>
<text text-anchor="start" x="25" y="-197.3" font-family="Times,serif" font-size="14.00" fill="#0a5040">→ </text>
<text text-anchor="start" x="44" y="-197.3" font-family="Times,serif" font-size="14.00" fill="#f5a70a"> •</text>
<text text-anchor="start" x="54" y="-197.3" font-family="Times,serif" font-size="14.00" fill="#bc1f29"> A</text>
<text text-anchor="start" x="68" y="-197.3" font-family="Times,serif" font-size="14.00" fill="#0a5040"> $</text>
</a>
</g>
</g>
<!-- state_10001&#45;&gt;state_10006 -->
<g id="trans_2" class="edge">
<title>state_10001&#45;&gt;state_10006</title>
<path fill="none" stroke="#b8860b" stroke-width="1.5" d="M85.308,-236.1898C101.0008,-245.9492 119.0455,-257.1714 135.4595,-267.3794"/>
<polygon fill="#b8860b" stroke="#b8860b" stroke-width="1.5" points="134.0451,-270.6214 144.3852,-272.9304 137.7419,-264.6771 134.0451,-270.6214"/>
<text text-anchor="start" x="106" y="-260.3" font-family="Times,serif" font-size="14.00" fill="#bc1f29"> A</text>
</g>
<!-- state_10002 -->
<g id="state_10002" class="node">
<title>state_10002</title>
<path fill="#fffff0" stroke="#b8860b" stroke-width="1.5" d="M221,-236C221,-236 150,-236 150,-236 144,-236 138,-230 138,-224 138,-224 138,-197 138,-197 138,-191 144,-185 150,-185 150,-185 221,-185 221,-185 227,-185 233,-191 233,-197 233,-197 233,-224 233,-224 233,-230 227,-236 221,-236"/>
<g id="a_state_10002_title"><a xlink:href="#" xlink:title="state_10002_title">
<text text-anchor="start" x="163" y="-218.1" font-family="Calibri" font-weight="bold" font-size="13.00" fill="#8b4513">Estado </text>
<text text-anchor="start" x="202" y="-218.1" font-family="Calibri" font-weight="bold" font-size="13.00" fill="#8b4513">2</text>
</a>
</g>
<g id="a_state_10002_item_1"><a xlink:href="#" xlink:title="state_10002_item_1">
<text text-anchor="start" x="146.5" y="-197.3" font-family="Times,serif" font-size="14.00" fill="#bc1f29">A </text>
<text text-anchor="start" x="160.5" y="-197.3" font-family="Times,serif" font-size="14.00" fill="#0a5040">→ </text>
<text text-anchor="start" x="179.5" y="-197.3" font-family="Times,serif" font-size="14.00" fill="#f5a70a"> •</text>
<text text-anchor="start" x="189.5" y="-197.3" font-family="Times,serif" font-size="14.00" fill="#bc1f29"> B</text>
<text text-anchor="start" x="203.5" y="-197.3" font-family="Times,serif" font-size="14.00" fill="#0a5040"> c</text>
<text text-anchor="start" x="213.5" y="-197.3" font-family="Times,serif" font-size="14.00" fill="#0a5040"> d</text>
</a>
</g>
</g>
<!-- state_10001&#45;&gt;state_10002 -->
<g id="trans_3" class="edge">
<title>state_10001&#45;&gt;state_10002</title>
<path fill="none" stroke="#b8860b" stroke-width="1.5" d="M88.3832,-210.5C100.7901,-210.5 114.4594,-210.5 127.5272,-210.5"/>
<polygon fill="#b8860b" stroke="#b8860b" stroke-width="1.5" points="127.8427,-214.0001 137.8427,-210.5 127.8426,-207.0001 127.8427,-214.0001"/>
<text text-anchor="start" x="108" y="-214.3" font-family="Times,serif" font-size="14.00" fill="#0a5040"> ε</text>
</g>
<!-- state_10003 -->
<g id="state_10003" class="node">
<title>state_10003</title>
<path fill="#fffff0" stroke="#b8860b" stroke-width="1.5" d="M219,-132C219,-132 152,-132 152,-132 146,-132 140,-126 140,-120 140,-120 140,-93 140,-93 140,-87 146,-81 152,-81 152,-81 219,-81 219,-81 225,-81 231,-87 231,-93 231,-93 231,-120 231,-120 231,-126 225,-132 219,-132"/>
<g id="a_state_10003_title"><a xlink:href="#" xlink:title="state_10003_title">
<text text-anchor="start" x="163" y="-114.1" font-family="Calibri" font-weight="bold" font-size="13.00" fill="#8b4513">Estado </text>
<text text-anchor="start" x="202" y="-114.1" font-family="Calibri" font-weight="bold" font-size="13.00" fill="#8b4513">3</text>
</a>
</g>
<g id="a_state_10003_item_1"><a xlink:href="#" xlink:title="state_10003_item_1">
<text text-anchor="start" x="148.5" y="-93.3" font-family="Times,serif" font-size="14.00" fill="#bc1f29">A </text>
<text text-anchor="start" x="162.5" y="-93.3" font-family="Times,serif" font-size="14.00" fill="#0a5040">→ </text>
<text text-anchor="start" x="181.5" y="-93.3" font-family="Times,serif" font-size="14.00" fill="#f5a70a"> •</text>
<text text-anchor="start" x="191.5" y="-93.3" font-family="Times,serif" font-size="14.00" fill="#bc1f29"> E</text>
<text text-anchor="start" x="204.5" y="-93.3" font-family="Times,serif" font-size="14.00" fill="#0a5040"> c</text>
<text text-anchor="start" x="214.5" y="-93.3" font-family="Times,serif" font-size="14.00" fill="#0a5040"> f</text>
</a>
</g>
</g>
<!-- state_10001&#45;&gt;state_10003 -->
<g id="trans_1" class="edge">
<title>state_10001&#45;&gt;state_10003</title>
<path fill="none" stroke="#b8860b" stroke-width="1.5" d="M78.9775,-184.7921C98.1109,-170.7295 121.981,-153.1854 142.2727,-138.2713"/>
<polygon fill="#b8860b" stroke="#b8860b" stroke-width="1.5" points="144.4495,-141.0151 150.4344,-132.2726 140.3039,-135.3747 144.4495,-141.0151"/>
<text text-anchor="start" x="108" y="-168.3" font-family="Times,serif" font-size="14.00" fill="#0a5040"> ε</text>
</g>
<!-- state_10002&#45;&gt;state_10004 -->
<g id="trans_5" class="edge">
<title>state_10002&#45;&gt;state_10004</title>
<path fill="none" stroke="#b8860b" stroke-width="1.5" d="M233.1421,-224.2524C247.9632,-228.5306 264.3689,-233.2663 279.4443,-237.6179"/>
<polygon fill="#b8860b" stroke="#b8860b" stroke-width="1.5" points="278.5504,-241.0028 289.1289,-240.4135 280.4918,-234.2773 278.5504,-241.0028"/>
<text text-anchor="start" x="253" y="-236.3" font-family="Times,serif" font-size="14.00" fill="#0a5040"> ε</text>
</g>
<!-- state_10002&#45;&gt;state_10007 -->
<g id="trans_4" class="edge">
<title>state_10002&#45;&gt;state_10007</title>
<path fill="none" stroke="#b8860b" stroke-width="1.5" d="M233.1421,-201.6592C245.9547,-199.2816 259.9515,-196.6843 273.2493,-194.2166"/>
<polygon fill="#b8860b" stroke="#b8860b" stroke-width="1.5" points="274.0573,-197.6265 283.2508,-192.3607 272.7801,-190.744 274.0573,-197.6265"/>
<text text-anchor="start" x="251" y="-201.3" font-family="Times,serif" font-size="14.00" fill="#bc1f29"> B</text>
</g>
<!-- state_10003&#45;&gt;state_10005 -->
<g id="trans_7" class="edge">
<title>state_10003&#45;&gt;state_10005</title>
<path fill="none" stroke="#b8860b" stroke-width="1.5" d="M231.1379,-106.5C246.5885,-106.5 263.9429,-106.5 279.7968,-106.5"/>
<polygon fill="#b8860b" stroke="#b8860b" stroke-width="1.5" points="279.9633,-110.0001 289.9632,-106.5 279.9632,-103.0001 279.9633,-110.0001"/>
<text text-anchor="start" x="253" y="-110.3" font-family="Times,serif" font-size="14.00" fill="#0a5040"> ε</text>
</g>
<!-- state_10003&#45;&gt;state_10008 -->
<g id="trans_6" class="edge">
<title>state_10003&#45;&gt;state_10008</title>
<path fill="none" stroke="#b8860b" stroke-width="1.5" d="M231.1379,-84.8573C245.4243,-78.0823 261.3385,-70.5354 276.189,-63.4928"/>
<polygon fill="#b8860b" stroke="#b8860b" stroke-width="1.5" points="277.7383,-66.6318 285.2741,-59.1845 274.7389,-60.307 277.7383,-66.6318"/>
<text text-anchor="start" x="251.5" y="-77.3" font-family="Times,serif" font-size="14.00" fill="#bc1f29"> E</text>
</g>
</g>
</svg>
