<?xml version="1.0" encoding="UTF-8" standalone="no"?>
<!DOCTYPE svg PUBLIC "-//W3C//DTD SVG 1.1//EN"
 "http://www.w3.org/Graphics/SVG/1.1/DTD/svg11.dtd">
<!-- Generated by graphviz version 2.40.1 (20161225.0304)
 -->
<!-- Title: NFA Pages: 1 -->
<svg width="955pt" height="440pt"
 viewBox="0.00 0.00 955.00 439.50" xmlns="http://www.w3.org/2000/svg" xmlns:xlink="http://www.w3.org/1999/xlink">
<g id="graph0" class="graph" transform="scale(1 1) rotate(0) translate(4 435.5)">
<title>NFA</title>
<!-- state_10004 -->
<g id="state_10004" class="node">
<title>state_10004</title>
<path fill="#fffff0" stroke="#b8860b" stroke-width="1.5" d="M362,-295C362,-295 302,-295 302,-295 296,-295 290,-289 290,-283 290,-283 290,-256 290,-256 290,-250 296,-244 302,-244 302,-244 362,-244 362,-244 368,-244 374,-250 374,-256 374,-256 374,-283 374,-283 374,-289 368,-295 362,-295"/>
<g id="a_state_10004_title"><a xlink:href="#" xlink:title="state_10004_title">
<text text-anchor="start" x="309" y="-277.1" font-family="Calibri" font-weight="bold" font-size="13.00" fill="#8b4513">Estado </text>
<text text-anchor="start" x="348" y="-277.1" font-family="Calibri" font-weight="bold" font-size="13.00" fill="#8b4513">4</text>
</a>
</g>
<g id="a_state_10004_item_1"><a xlink:href="#" xlink:title="state_10004_item_1">
<text text-anchor="start" x="298" y="-256.3" font-family="Times,serif" font-size="14.00" fill="#bc1f29">L </text>
<text text-anchor="start" x="311" y="-256.3" font-family="Times,serif" font-size="14.00" fill="#0a5040">→ </text>
<text text-anchor="start" x="330" y="-256.3" font-family="Times,serif" font-size="14.00" fill="#f5a70a"> •</text>
<text text-anchor="start" x="340" y="-256.3" font-family="Times,serif" font-size="14.00" fill="#0a5040"> *</text>
<text text-anchor="start" x="352" y="-256.3" font-family="Times,serif" font-size="14.00" fill="#bc1f29"> R</text>
</a>
</g>
</g>
<!-- state_10011 -->
<g id="state_10011" class="node">
<title>state_10011</title>
<path fill="#fffff0" stroke="#b8860b" stroke-width="1.5" d="M509,-295C509,-295 449,-295 449,-295 443,-295 437,-289 437,-283 437,-283 437,-256 437,-256 437,-250 443,-244 449,-244 449,-244 509,-244 509,-244 515,-244 521,-250 521,-256 521,-256 521,-283 521,-283 521,-289 515,-295 509,-295"/>
<g id="a_state_10011_title"><a xlink:href="#" xlink:title="state_10011_title">
<text text-anchor="start" x="452.5" y="-277.1" font-family="Calibri" font-weight="bold" font-size="13.00" fill="#8b4513">Estado </text>
<text text-anchor="start" x="491.5" y="-277.1" font-family="Calibri" font-weight="bold" font-size="13.00" fill="#8b4513">11</text>
</a>
</g>
<g id="a_state_10011_item_1"><a xlink:href="#" xlink:title="state_10011_item_1">
<text text-anchor="start" x="445" y="-256.3" font-family="Times,serif" font-size="14.00" fill="#bc1f29">L </text>
<text text-anchor="start" x="458" y="-256.3" font-family="Times,serif" font-size="14.00" fill="#0a5040">→ </text>
<text text-anchor="start" x="477" y="-256.3" font-family="Times,serif" font-size="14.00" fill="#0a5040"> *</text>
<text text-anchor="start" x="489" y="-256.3" font-family="Times,serif" font-size="14.00" fill="#f5a70a"> •</text>
<text text-anchor="start" x="499" y="-256.3" font-family="Times,serif" font-size="14.00" fill="#bc1f29"> R</text>
</a>
</g>
</g>
<!-- state_10004&#45;&gt;state_10011 -->
<g id="trans_9" class="edge">
<title>state_10004&#45;&gt;state_10011</title>
<path fill="none" stroke="#b8860b" stroke-width="1.5" d="M374.1243,-269.5C390.4242,-269.5 409.2586,-269.5 426.4302,-269.5"/>
<polygon fill="#b8860b" stroke="#b8860b" stroke-width="1.5" points="426.8696,-273.0001 436.8695,-269.5 426.8695,-266.0001 426.8696,-273.0001"/>
<text text-anchor="start" x="399.5" y="-273.3" font-family="Times,serif" font-size="14.00" fill="#0a5040"> *</text>
</g>
<!-- state_10005 -->
<g id="state_10005" class="node">
<title>state_10005</title>
<path fill="#fffff0" stroke="#b8860b" stroke-width="1.5" d="M798,-392C798,-392 748,-392 748,-392 742,-392 736,-386 736,-380 736,-380 736,-353 736,-353 736,-347 742,-341 748,-341 748,-341 798,-341 798,-341 804,-341 810,-347 810,-353 810,-353 810,-380 810,-380 810,-386 804,-392 798,-392"/>
<g id="a_state_10005_title"><a xlink:href="#" xlink:title="state_10005_title">
<text text-anchor="start" x="750" y="-374.1" font-family="Calibri" font-weight="bold" font-size="13.00" fill="#8b4513">Estado </text>
<text text-anchor="start" x="789" y="-374.1" font-family="Calibri" font-weight="bold" font-size="13.00" fill="#8b4513">5</text>
</a>
</g>
<g id="a_state_10005_item_1"><a xlink:href="#" xlink:title="state_10005_item_1">
<text text-anchor="start" x="744" y="-353.3" font-family="Times,serif" font-size="14.00" fill="#bc1f29">L </text>
<text text-anchor="start" x="757" y="-353.3" font-family="Times,serif" font-size="14.00" fill="#0a5040">→ </text>
<text text-anchor="start" x="776" y="-353.3" font-family="Times,serif" font-size="14.00" fill="#f5a70a"> •</text>
<text text-anchor="start" x="786" y="-353.3" font-family="Times,serif" font-size="14.00" fill="#0a5040"> id</text>
</a>
</g>
</g>
<!-- state_10012 -->
<g id="state_10012" class="node">
<title>state_10012</title>
<path fill="#f5f5dc" stroke="#b8860b" stroke-width="1.5" d="M931,-392C931,-392 881,-392 881,-392 875,-392 869,-386 869,-380 869,-380 869,-353 869,-353 869,-347 875,-341 881,-341 881,-341 931,-341 931,-341 937,-341 943,-347 943,-353 943,-353 943,-380 943,-380 943,-386 937,-392 931,-392"/>
<path fill="none" stroke="#b8860b" stroke-width="1.5" d="M935,-396C935,-396 877,-396 877,-396 871,-396 865,-390 865,-384 865,-384 865,-349 865,-349 865,-343 871,-337 877,-337 877,-337 935,-337 935,-337 941,-337 947,-343 947,-349 947,-349 947,-384 947,-384 947,-390 941,-396 935,-396"/>
<g id="a_state_10012_title"><a xlink:href="#" xlink:title="state_10012_title">
<text text-anchor="start" x="879.5" y="-374.1" font-family="Calibri" font-weight="bold" font-size="13.00" fill="#8b4513">Estado </text>
<text text-anchor="start" x="918.5" y="-374.1" font-family="Calibri" font-weight="bold" font-size="13.00" fill="#8b4513">12</text>
</a>
</g>
<g id="a_state_10012_item_1"><a xlink:href="#" xlink:title="state_10012_item_1">
<text text-anchor="start" x="877" y="-353.3" font-family="Times,serif" font-size="14.00" fill="#bc1f29">L </text>
<text text-anchor="start" x="890" y="-353.3" font-family="Times,serif" font-size="14.00" fill="#0a5040">→ </text>
<text text-anchor="start" x="909" y="-353.3" font-family="Times,serif" font-size="14.00" fill="#0a5040"> id</text>
<text text-anchor="start" x="925" y="-353.3" font-family="Times,serif" font-size="14.00" fill="#f5a70a"> •</text>
</a>
</g>
</g>
<!-- state_10005&#45;&gt;state_10012 -->
<g id="trans_10" class="edge">
<title>state_10005&#45;&gt;state_10012</title>
<path fill="none" stroke="#b8860b" stroke-width="1.5" d="M810.0479,-366.5C823.912,-366.5 839.9164,-366.5 854.8323,-366.5"/>
<polygon fill="#b8860b" stroke="#b8860b" stroke-width="1.5" points="854.9452,-370.0001 864.9451,-366.5 854.9451,-363.0001 854.9452,-370.0001"/>
<text text-anchor="start" x="831" y="-370.3" font-family="Times,serif" font-size="14.00" fill="#0a5040"> id</text>
</g>
<!-- state_10007 -->
<g id="state_10007" class="node">
<title>state_10007</title>
<path fill="#fffff0" stroke="#b8860b" stroke-width="1.5" d="M215,-72C215,-72 153,-72 153,-72 147,-72 141,-66 141,-60 141,-60 141,-33 141,-33 141,-27 147,-21 153,-21 153,-21 215,-21 215,-21 221,-21 227,-27 227,-33 227,-33 227,-60 227,-60 227,-66 221,-72 215,-72"/>
<g id="a_state_10007_title"><a xlink:href="#" xlink:title="state_10007_title">
<text text-anchor="start" x="161" y="-54.1" font-family="Calibri" font-weight="bold" font-size="13.00" fill="#8b4513">Estado </text>
<text text-anchor="start" x="200" y="-54.1" font-family="Calibri" font-weight="bold" font-size="13.00" fill="#8b4513">7</text>
</a>
</g>
<g id="a_state_10007_item_1"><a xlink:href="#" xlink:title="state_10007_item_1">
<text text-anchor="start" x="149" y="-33.3" font-family="Times,serif" font-size="14.00" fill="#bc1f29">E&#39; </text>
<text text-anchor="start" x="165" y="-33.3" font-family="Times,serif" font-size="14.00" fill="#0a5040">→ </text>
<text text-anchor="start" x="184" y="-33.3" font-family="Times,serif" font-size="14.00" fill="#bc1f29"> E</text>
<text text-anchor="start" x="197" y="-33.3" font-family="Times,serif" font-size="14.00" fill="#f5a70a"> •</text>
<text text-anchor="start" x="207" y="-33.3" font-family="Times,serif" font-size="14.00" fill="#0a5040"> $</text>
</a>
</g>
</g>
<!-- state_10013 -->
<g id="state_10013" class="node">
<title>state_10013</title>
<path fill="#f5f5dc" stroke="#b8860b" stroke-width="1.5" d="M363,-55C363,-55 301,-55 301,-55 295,-55 289,-49 289,-43 289,-43 289,-16 289,-16 289,-10 295,-4 301,-4 301,-4 363,-4 363,-4 369,-4 375,-10 375,-16 375,-16 375,-43 375,-43 375,-49 369,-55 363,-55"/>
<path fill="none" stroke="#b8860b" stroke-width="1.5" d="M367,-59C367,-59 297,-59 297,-59 291,-59 285,-53 285,-47 285,-47 285,-12 285,-12 285,-6 291,0 297,0 297,0 367,0 367,0 373,0 379,-6 379,-12 379,-12 379,-47 379,-47 379,-53 373,-59 367,-59"/>
<g id="a_state_10013_title"><a xlink:href="#" xlink:title="state_10013_title">
<text text-anchor="start" x="305.5" y="-37.1" font-family="Calibri" font-weight="bold" font-size="13.00" fill="#8b4513">Estado </text>
<text text-anchor="start" x="344.5" y="-37.1" font-family="Calibri" font-weight="bold" font-size="13.00" fill="#8b4513">13</text>
</a>
</g>
<g id="a_state_10013_item_1"><a xlink:href="#" xlink:title="state_10013_item_1">
<text text-anchor="start" x="297" y="-16.3" font-family="Times,serif" font-size="14.00" fill="#bc1f29">E&#39; </text>
<text text-anchor="start" x="313" y="-16.3" font-family="Times,serif" font-size="14.00" fill="#0a5040">→ </text>
<text text-anchor="start" x="332" y="-16.3" font-family="Times,serif" font-size="14.00" fill="#bc1f29"> E</text>
<text text-anchor="start" x="345" y="-16.3" font-family="Times,serif" font-size="14.00" fill="#0a5040"> $</text>
<text text-anchor="start" x="357" y="-16.3" font-family="Times,serif" font-size="14.00" fill="#f5a70a"> •</text>
</a>
</g>
</g>
<!-- state_10007&#45;&gt;state_10013 -->
<g id="trans_14" class="edge">
<title>state_10007&#45;&gt;state_10013</title>
<path fill="none" stroke="#b8860b" stroke-width="1.5" d="M227.2056,-41.5372C242.0434,-39.8329 258.8916,-37.8976 274.6727,-36.0849"/>
<polygon fill="#b8860b" stroke="#b8860b" stroke-width="1.5" points="275.322,-39.5334 284.8572,-34.915 274.5231,-32.5791 275.322,-39.5334"/>
<text text-anchor="start" x="252" y="-43.3" font-family="Times,serif" font-size="14.00" fill="#0a5040"> $</text>
</g>
<!-- state_10008 -->
<g id="state_10008" class="node">
<title>state_10008</title>
<path fill="#fffff0" stroke="#b8860b" stroke-width="1.5" d="M369,-364C369,-364 295,-364 295,-364 289,-364 283,-358 283,-352 283,-352 283,-325 283,-325 283,-319 289,-313 295,-313 295,-313 369,-313 369,-313 375,-313 381,-319 381,-325 381,-325 381,-352 381,-352 381,-358 375,-364 369,-364"/>
<g id="a_state_10008_title"><a xlink:href="#" xlink:title="state_10008_title">
<text text-anchor="start" x="309" y="-346.1" font-family="Calibri" font-weight="bold" font-size="13.00" fill="#8b4513">Estado </text>
<text text-anchor="start" x="348" y="-346.1" font-family="Calibri" font-weight="bold" font-size="13.00" fill="#8b4513">8</text>
</a>
</g>
<g id="a_state_10008_item_1"><a xlink:href="#" xlink:title="state_10008_item_1">
<text text-anchor="start" x="291" y="-325.3" font-family="Times,serif" font-size="14.00" fill="#bc1f29">E </text>
<text text-anchor="start" x="304" y="-325.3" font-family="Times,serif" font-size="14.00" fill="#0a5040">→ </text>
<text text-anchor="start" x="323" y="-325.3" font-family="Times,serif" font-size="14.00" fill="#bc1f29"> L</text>
<text text-anchor="start" x="336" y="-325.3" font-family="Times,serif" font-size="14.00" fill="#f5a70a"> •</text>
<text text-anchor="start" x="346" y="-325.3" font-family="Times,serif" font-size="14.00" fill="#0a5040"> =</text>
<text text-anchor="start" x="359" y="-325.3" font-family="Times,serif" font-size="14.00" fill="#bc1f29"> R</text>
</a>
</g>
</g>
<!-- state_10014 -->
<g id="state_10014" class="node">
<title>state_10014</title>
<path fill="#fffff0" stroke="#b8860b" stroke-width="1.5" d="M516,-364C516,-364 442,-364 442,-364 436,-364 430,-358 430,-352 430,-352 430,-325 430,-325 430,-319 436,-313 442,-313 442,-313 516,-313 516,-313 522,-313 528,-319 528,-325 528,-325 528,-352 528,-352 528,-358 522,-364 516,-364"/>
<g id="a_state_10014_title"><a xlink:href="#" xlink:title="state_10014_title">
<text text-anchor="start" x="452.5" y="-346.1" font-family="Calibri" font-weight="bold" font-size="13.00" fill="#8b4513">Estado </text>
<text text-anchor="start" x="491.5" y="-346.1" font-family="Calibri" font-weight="bold" font-size="13.00" fill="#8b4513">14</text>
</a>
</g>
<g id="a_state_10014_item_1"><a xlink:href="#" xlink:title="state_10014_item_1">
<text text-anchor="start" x="438" y="-325.3" font-family="Times,serif" font-size="14.00" fill="#bc1f29">E </text>
<text text-anchor="start" x="451" y="-325.3" font-family="Times,serif" font-size="14.00" fill="#0a5040">→ </text>
<text text-anchor="start" x="470" y="-325.3" font-family="Times,serif" font-size="14.00" fill="#bc1f29"> L</text>
<text text-anchor="start" x="483" y="-325.3" font-family="Times,serif" font-size="14.00" fill="#0a5040"> =</text>
<text text-anchor="start" x="496" y="-325.3" font-family="Times,serif" font-size="14.00" fill="#f5a70a"> •</text>
<text text-anchor="start" x="506" y="-325.3" font-family="Times,serif" font-size="14.00" fill="#bc1f29"> R</text>
</a>
</g>
</g>
<!-- state_10008&#45;&gt;state_10014 -->
<g id="trans_15" class="edge">
<title>state_10008&#45;&gt;state_10014</title>
<path fill="none" stroke="#b8860b" stroke-width="1.5" d="M381.3578,-338.5C393.6651,-338.5 406.9883,-338.5 419.7197,-338.5"/>
<polygon fill="#b8860b" stroke="#b8860b" stroke-width="1.5" points="419.7725,-342.0001 429.7725,-338.5 419.7724,-335.0001 419.7725,-342.0001"/>
<text text-anchor="start" x="399" y="-342.3" font-family="Times,serif" font-size="14.00" fill="#0a5040"> =</text>
</g>
<!-- state_10001 -->
<g id="state_10001" class="node">
<title>state_10001</title>
<path fill="#fffff0" stroke="#b8860b" stroke-width="1.5" d="M74,-174C74,-174 12,-174 12,-174 6,-174 0,-168 0,-162 0,-162 0,-135 0,-135 0,-129 6,-123 12,-123 12,-123 74,-123 74,-123 80,-123 86,-129 86,-135 86,-135 86,-162 86,-162 86,-168 80,-174 74,-174"/>
<g id="a_state_10001_title"><a xlink:href="#" xlink:title="state_10001_title">
<text text-anchor="start" x="20" y="-156.1" font-family="Calibri" font-weight="bold" font-size="13.00" fill="#8b4513">Estado </text>
<text text-anchor="start" x="59" y="-156.1" font-family="Calibri" font-weight="bold" font-size="13.00" fill="#8b4513">1</text>
</a>
</g>
<g id="a_state_10001_item_1"><a xlink:href="#" xlink:title="state_10001_item_1">
<text text-anchor="start" x="8" y="-135.3" font-family="Times,serif" font-size="14.00" fill="#bc1f29">E&#39; </text>
<text text-anchor="start" x="24" y="-135.3" font-family="Times,serif" font-size="14.00" fill="#0a5040">→ </text>
<text text-anchor="start" x="43" y="-135.3" font-family="Times,serif" font-size="14.00" fill="#f5a70a"> •</text>
<text text-anchor="start" x="53" y="-135.3" font-family="Times,serif" font-size="14.00" fill="#bc1f29"> E</text>
<text text-anchor="start" x="66" y="-135.3" font-family="Times,serif" font-size="14.00" fill="#0a5040"> $</text>
</a>
</g>
</g>
<!-- state_10001&#45;&gt;state_10007 -->
<g id="trans_2" class="edge">
<title>state_10001&#45;&gt;state_10007</title>
<path fill="none" stroke="#b8860b" stroke-width="1.5" d="M78.5803,-122.7611C97.283,-109.2315 120.3722,-92.5286 140.1702,-78.2067"/>
<polygon fill="#b8860b" stroke="#b8860b" stroke-width="1.5" points="142.3803,-80.9277 148.4311,-72.2307 138.2774,-75.2561 142.3803,-80.9277"/>
<text text-anchor="start" x="104" y="-108.3" font-family="Times,serif" font-size="14.00" fill="#bc1f29"> E</text>
</g>
<!-- state_10002 -->
<g id="state_10002" class="node">
<title>state_10002</title>
<path fill="#fffff0" stroke="#b8860b" stroke-width="1.5" d="M221,-337C221,-337 147,-337 147,-337 141,-337 135,-331 135,-325 135,-325 135,-298 135,-298 135,-292 141,-286 147,-286 147,-286 221,-286 221,-286 227,-286 233,-292 233,-298 233,-298 233,-325 233,-325 233,-331 227,-337 221,-337"/>
<g id="a_state_10002_title"><a xlink:href="#" xlink:title="state_10002_title">
<text text-anchor="start" x="161" y="-319.1" font-family="Calibri" font-weight="bold" font-size="13.00" fill="#8b4513">Estado </text>
<text text-anchor="start" x="200" y="-319.1" font-family="Calibri" font-weight="bold" font-size="13.00" fill="#8b4513">2</text>
</a>
</g>
<g id="a_state_10002_item_1"><a xlink:href="#" xlink:title="state_10002_item_1">
<text text-anchor="start" x="143" y="-298.3" font-family="Times,serif" font-size="14.00" fill="#bc1f29">E </text>
<text text-anchor="start" x="156" y="-298.3" font-family="Times,serif" font-size="14.00" fill="#0a5040">→ </text>
<text text-anchor="start" x="175" y="-298.3" font-family="Times,serif" font-size="14.00" fill="#f5a70a"> •</text>
<text text-anchor="start" x="185" y="-298.3" font-family="Times,serif" font-size="14.00" fill="#bc1f29"> L</text>
<text text-anchor="start" x="198" y="-298.3" font-family="Times,serif" font-size="14.00" fill="#0a5040"> =</text>
<text text-anchor="start" x="211" y="-298.3" font-family="Times,serif" font-size="14.00" fill="#bc1f29"> R</text>
</a>
</g>
</g>
<!-- state_10001&#45;&gt;state_10002 -->
<g id="trans_3" class="edge">
<title>state_10001&#45;&gt;state_10002</title>
<path fill="none" stroke="#b8860b" stroke-width="1.5" d="M65.3419,-174.3278C89.578,-202.3455 128.3592,-247.1776 154.9463,-277.9131"/>
<polygon fill="#b8860b" stroke="#b8860b" stroke-width="1.5" points="152.5733,-280.5198 161.7627,-285.793 157.8675,-275.9402 152.5733,-280.5198"/>
<text text-anchor="start" x="105.5" y="-234.3" font-family="Times,serif" font-size="14.00" fill="#0a5040"> ε</text>
</g>
<!-- state_10003 -->
<g id="state_10003" class="node">
<title>state_10003</title>
<path fill="#fffff0" stroke="#b8860b" stroke-width="1.5" d="M208,-174C208,-174 160,-174 160,-174 154,-174 148,-168 148,-162 148,-162 148,-135 148,-135 148,-129 154,-123 160,-123 160,-123 208,-123 208,-123 214,-123 220,-129 220,-135 220,-135 220,-162 220,-162 220,-168 214,-174 208,-174"/>
<g id="a_state_10003_title"><a xlink:href="#" xlink:title="state_10003_title">
<text text-anchor="start" x="161" y="-156.1" font-family="Calibri" font-weight="bold" font-size="13.00" fill="#8b4513">Estado </text>
<text text-anchor="start" x="200" y="-156.1" font-family="Calibri" font-weight="bold" font-size="13.00" fill="#8b4513">3</text>
</a>
</g>
<g id="a_state_10003_item_1"><a xlink:href="#" xlink:title="state_10003_item_1">
<text text-anchor="start" x="156" y="-135.3" font-family="Times,serif" font-size="14.00" fill="#bc1f29">E </text>
<text text-anchor="start" x="169" y="-135.3" font-family="Times,serif" font-size="14.00" fill="#0a5040">→ </text>
<text text-anchor="start" x="188" y="-135.3" font-family="Times,serif" font-size="14.00" fill="#f5a70a"> •</text>
<text text-anchor="start" x="198" y="-135.3" font-family="Times,serif" font-size="14.00" fill="#bc1f29"> R</text>
</a>
</g>
</g>
<!-- state_10001&#45;&gt;state_10003 -->
<g id="trans_1" class="edge">
<title>state_10001&#45;&gt;state_10003</title>
<path fill="none" stroke="#b8860b" stroke-width="1.5" d="M86.0708,-148.5C102.4353,-148.5 121.1358,-148.5 137.7797,-148.5"/>
<polygon fill="#b8860b" stroke="#b8860b" stroke-width="1.5" points="137.8378,-152.0001 147.8378,-148.5 137.8377,-145.0001 137.8378,-152.0001"/>
<text text-anchor="start" x="105.5" y="-152.3" font-family="Times,serif" font-size="14.00" fill="#0a5040"> ε</text>
</g>
<!-- state_10002&#45;&gt;state_10004 -->
<g id="trans_5" class="edge">
<title>state_10002&#45;&gt;state_10004</title>
<path fill="none" stroke="#b8860b" stroke-width="1.5" d="M233.2819,-297.5146C248.3192,-293.2472 264.8951,-288.5433 280.1004,-284.2283"/>
<polygon fill="#b8860b" stroke="#b8860b" stroke-width="1.5" points="281.1999,-287.5545 289.8645,-281.4574 279.2888,-280.8204 281.1999,-287.5545"/>
<text text-anchor="start" x="253" y="-295.3" font-family="Times,serif" font-size="14.00" fill="#0a5040"> ε</text>
</g>
<!-- state_10002&#45;&gt;state_10005 -->
<g id="trans_6" class="edge">
<title>state_10002&#45;&gt;state_10005</title>
<path fill="none" stroke="#b8860b" stroke-width="1.5" d="M203.1748,-337.1859C228.7903,-368.271 277.3404,-416.5 332,-416.5 332,-416.5 332,-416.5 631,-416.5 664.3163,-416.5 699.661,-404.1032 726.7539,-391.6551"/>
<polygon fill="#b8860b" stroke="#b8860b" stroke-width="1.5" points="728.4478,-394.7252 735.976,-387.2701 725.4419,-388.4034 728.4478,-394.7252"/>
<text text-anchor="start" x="474" y="-420.3" font-family="Times,serif" font-size="14.00" fill="#0a5040"> ε</text>
</g>
<!-- state_10002&#45;&gt;state_10008 -->
<g id="trans_4" class="edge">
<title>state_10002&#45;&gt;state_10008</title>
<path fill="none" stroke="#b8860b" stroke-width="1.5" d="M233.2819,-320.4906C246.0134,-322.8133 259.8477,-325.3371 273.0194,-327.74"/>
<polygon fill="#b8860b" stroke="#b8860b" stroke-width="1.5" points="272.4675,-331.197 282.9333,-329.5487 273.7239,-324.3107 272.4675,-331.197"/>
<text text-anchor="start" x="251.5" y="-329.3" font-family="Times,serif" font-size="14.00" fill="#bc1f29"> L</text>
</g>
<!-- state_10006 -->
<g id="state_10006" class="node">
<title>state_10006</title>
<path fill="#fffff0" stroke="#b8860b" stroke-width="1.5" d="M655,-234C655,-234 607,-234 607,-234 601,-234 595,-228 595,-222 595,-222 595,-195 595,-195 595,-189 601,-183 607,-183 607,-183 655,-183 655,-183 661,-183 667,-189 667,-195 667,-195 667,-222 667,-222 667,-228 661,-234 655,-234"/>
<g id="a_state_10006_title"><a xlink:href="#" xlink:title="state_10006_title">
<text text-anchor="start" x="608" y="-216.1" font-family="Calibri" font-weight="bold" font-size="13.00" fill="#8b4513">Estado </text>
<text text-anchor="start" x="647" y="-216.1" font-family="Calibri" font-weight="bold" font-size="13.00" fill="#8b4513">6</text>
</a>
</g>
<g id="a_state_10006_item_1"><a xlink:href="#" xlink:title="state_10006_item_1">
<text text-anchor="start" x="603" y="-195.3" font-family="Times,serif" font-size="14.00" fill="#bc1f29">R </text>
<text text-anchor="start" x="617" y="-195.3" font-family="Times,serif" font-size="14.00" fill="#0a5040">→ </text>
<text text-anchor="start" x="636" y="-195.3" font-family="Times,serif" font-size="14.00" fill="#f5a70a"> •</text>
<text text-anchor="start" x="646" y="-195.3" font-family="Times,serif" font-size="14.00" fill="#bc1f29"> L</text>
</a>
</g>
</g>
<!-- state_10003&#45;&gt;state_10006 -->
<g id="trans_8" class="edge">
<title>state_10003&#45;&gt;state_10006</title>
<path fill="none" stroke="#b8860b" stroke-width="1.5" d="M220.2012,-153.3592C300.8716,-164.1875 495.3086,-190.2864 584.6669,-202.2808"/>
<polygon fill="#b8860b" stroke="#b8860b" stroke-width="1.5" points="584.3965,-205.7758 594.7733,-203.6374 585.3278,-198.838 584.3965,-205.7758"/>
<text text-anchor="start" x="400.5" y="-182.3" font-family="Times,serif" font-size="14.00" fill="#0a5040"> ε</text>
</g>
<!-- state_10010 -->
<g id="state_10010" class="node">
<title>state_10010</title>
<path fill="#f5f5dc" stroke="#b8860b" stroke-width="1.5" d="M356,-132C356,-132 308,-132 308,-132 302,-132 296,-126 296,-120 296,-120 296,-93 296,-93 296,-87 302,-81 308,-81 308,-81 356,-81 356,-81 362,-81 368,-87 368,-93 368,-93 368,-120 368,-120 368,-126 362,-132 356,-132"/>
<path fill="none" stroke="#b8860b" stroke-width="1.5" d="M360,-136C360,-136 304,-136 304,-136 298,-136 292,-130 292,-124 292,-124 292,-89 292,-89 292,-83 298,-77 304,-77 304,-77 360,-77 360,-77 366,-77 372,-83 372,-89 372,-89 372,-124 372,-124 372,-130 366,-136 360,-136"/>
<g id="a_state_10010_title"><a xlink:href="#" xlink:title="state_10010_title">
<text text-anchor="start" x="305.5" y="-114.1" font-family="Calibri" font-weight="bold" font-size="13.00" fill="#8b4513">Estado </text>
<text text-anchor="start" x="344.5" y="-114.1" font-family="Calibri" font-weight="bold" font-size="13.00" fill="#8b4513">10</text>
</a>
</g>
<g id="a_state_10010_item_1"><a xlink:href="#" xlink:title="state_10010_item_1">
<text text-anchor="start" x="304" y="-93.3" font-family="Times,serif" font-size="14.00" fill="#bc1f29">E </text>
<text text-anchor="start" x="317" y="-93.3" font-family="Times,serif" font-size="14.00" fill="#0a5040">→ </text>
<text text-anchor="start" x="336" y="-93.3" font-family="Times,serif" font-size="14.00" fill="#bc1f29"> R</text>
<text text-anchor="start" x="350" y="-93.3" font-family="Times,serif" font-size="14.00" fill="#f5a70a"> •</text>
</a>
</g>
</g>
<!-- state_10003&#45;&gt;state_10010 -->
<g id="trans_7" class="edge">
<title>state_10003&#45;&gt;state_10010</title>
<path fill="none" stroke="#b8860b" stroke-width="1.5" d="M220.2049,-138.2256C238.8111,-132.9455 261.7749,-126.4287 282.0402,-120.6778"/>
<polygon fill="#b8860b" stroke="#b8860b" stroke-width="1.5" points="283.0763,-124.022 291.7409,-117.9249 281.1652,-117.288 283.0763,-124.022"/>
<text text-anchor="start" x="251" y="-133.3" font-family="Times,serif" font-size="14.00" fill="#bc1f29"> R</text>
</g>
<!-- state_10006&#45;&gt;state_10004 -->
<g id="trans_12" class="edge">
<title>state_10006&#45;&gt;state_10004</title>
<path fill="none" stroke="#b8860b" stroke-width="1.5" d="M594.7238,-206.341C553.9286,-204.9002 486.0553,-205.4897 430,-220.5 414.0226,-224.7784 397.5928,-231.8035 382.8612,-239.2158"/>
<polygon fill="#b8860b" stroke="#b8860b" stroke-width="1.5" points="381.1858,-236.142 373.9274,-243.8599 384.4145,-242.3529 381.1858,-236.142"/>
<text text-anchor="start" x="474" y="-224.3" font-family="Times,serif" font-size="14.00" fill="#0a5040"> ε</text>
</g>
<!-- state_10006&#45;&gt;state_10005 -->
<g id="trans_13" class="edge">
<title>state_10006&#45;&gt;state_10005</title>
<path fill="none" stroke="#b8860b" stroke-width="1.5" d="M667.1199,-229.7923C673.0441,-233.989 678.9044,-238.6177 684,-243.5 711.58,-269.9257 736.4543,-305.8474 752.8486,-332.0465"/>
<polygon fill="#b8860b" stroke="#b8860b" stroke-width="1.5" points="750.0614,-334.1955 758.2843,-340.8765 756.0225,-330.5259 750.0614,-334.1955"/>
<text text-anchor="start" x="703.5" y="-280.3" font-family="Times,serif" font-size="14.00" fill="#0a5040"> ε</text>
</g>
<!-- state_10009 -->
<g id="state_10009" class="node">
<title>state_10009</title>
<path fill="#f5f5dc" stroke="#b8860b" stroke-width="1.5" d="M797,-234C797,-234 749,-234 749,-234 743,-234 737,-228 737,-222 737,-222 737,-195 737,-195 737,-189 743,-183 749,-183 749,-183 797,-183 797,-183 803,-183 809,-189 809,-195 809,-195 809,-222 809,-222 809,-228 803,-234 797,-234"/>
<path fill="none" stroke="#b8860b" stroke-width="1.5" d="M801,-238C801,-238 745,-238 745,-238 739,-238 733,-232 733,-226 733,-226 733,-191 733,-191 733,-185 739,-179 745,-179 745,-179 801,-179 801,-179 807,-179 813,-185 813,-191 813,-191 813,-226 813,-226 813,-232 807,-238 801,-238"/>
<g id="a_state_10009_title"><a xlink:href="#" xlink:title="state_10009_title">
<text text-anchor="start" x="750" y="-216.1" font-family="Calibri" font-weight="bold" font-size="13.00" fill="#8b4513">Estado </text>
<text text-anchor="start" x="789" y="-216.1" font-family="Calibri" font-weight="bold" font-size="13.00" fill="#8b4513">9</text>
</a>
</g>
<g id="a_state_10009_item_1"><a xlink:href="#" xlink:title="state_10009_item_1">
<text text-anchor="start" x="745" y="-195.3" font-family="Times,serif" font-size="14.00" fill="#bc1f29">R </text>
<text text-anchor="start" x="759" y="-195.3" font-family="Times,serif" font-size="14.00" fill="#0a5040">→ </text>
<text text-anchor="start" x="778" y="-195.3" font-family="Times,serif" font-size="14.00" fill="#bc1f29"> L</text>
<text text-anchor="start" x="791" y="-195.3" font-family="Times,serif" font-size="14.00" fill="#f5a70a"> •</text>
</a>
</g>
</g>
<!-- state_10006&#45;&gt;state_10009 -->
<g id="trans_11" class="edge">
<title>state_10006&#45;&gt;state_10009</title>
<path fill="none" stroke="#b8860b" stroke-width="1.5" d="M667.2,-208.5C684.0384,-208.5 704.3463,-208.5 722.649,-208.5"/>
<polygon fill="#b8860b" stroke="#b8860b" stroke-width="1.5" points="722.8631,-212.0001 732.8631,-208.5 722.863,-205.0001 722.8631,-212.0001"/>
<text text-anchor="start" x="702" y="-212.3" font-family="Times,serif" font-size="14.00" fill="#bc1f29"> L</text>
</g>
<!-- state_10011&#45;&gt;state_10006 -->
<g id="trans_17" class="edge">
<title>state_10011&#45;&gt;state_10006</title>
<path fill="none" stroke="#b8860b" stroke-width="1.5" d="M521.3405,-252.5081C541.2846,-244.5042 565.1042,-234.945 585.4403,-226.7838"/>
<polygon fill="#b8860b" stroke="#b8860b" stroke-width="1.5" points="586.834,-229.9959 594.811,-223.0232 584.2268,-223.4995 586.834,-229.9959"/>
<text text-anchor="start" x="548" y="-244.3" font-family="Times,serif" font-size="14.00" fill="#0a5040"> ε</text>
</g>
<!-- state_10015 -->
<g id="state_10015" class="node">
<title>state_10015</title>
<path fill="#f5f5dc" stroke="#b8860b" stroke-width="1.5" d="M661,-307C661,-307 601,-307 601,-307 595,-307 589,-301 589,-295 589,-295 589,-268 589,-268 589,-262 595,-256 601,-256 601,-256 661,-256 661,-256 667,-256 673,-262 673,-268 673,-268 673,-295 673,-295 673,-301 667,-307 661,-307"/>
<path fill="none" stroke="#b8860b" stroke-width="1.5" d="M665,-311C665,-311 597,-311 597,-311 591,-311 585,-305 585,-299 585,-299 585,-264 585,-264 585,-258 591,-252 597,-252 597,-252 665,-252 665,-252 671,-252 677,-258 677,-264 677,-264 677,-299 677,-299 677,-305 671,-311 665,-311"/>
<g id="a_state_10015_title"><a xlink:href="#" xlink:title="state_10015_title">
<text text-anchor="start" x="604.5" y="-289.1" font-family="Calibri" font-weight="bold" font-size="13.00" fill="#8b4513">Estado </text>
<text text-anchor="start" x="643.5" y="-289.1" font-family="Calibri" font-weight="bold" font-size="13.00" fill="#8b4513">15</text>
</a>
</g>
<g id="a_state_10015_item_1"><a xlink:href="#" xlink:title="state_10015_item_1">
<text text-anchor="start" x="597" y="-268.3" font-family="Times,serif" font-size="14.00" fill="#bc1f29">L </text>
<text text-anchor="start" x="610" y="-268.3" font-family="Times,serif" font-size="14.00" fill="#0a5040">→ </text>
<text text-anchor="start" x="629" y="-268.3" font-family="Times,serif" font-size="14.00" fill="#0a5040"> *</text>
<text text-anchor="start" x="641" y="-268.3" font-family="Times,serif" font-size="14.00" fill="#bc1f29"> R</text>
<text text-anchor="start" x="655" y="-268.3" font-family="Times,serif" font-size="14.00" fill="#f5a70a"> •</text>
</a>
</g>
</g>
<!-- state_10011&#45;&gt;state_10015 -->
<g id="trans_16" class="edge">
<title>state_10011&#45;&gt;state_10015</title>
<path fill="none" stroke="#b8860b" stroke-width="1.5" d="M521.3405,-272.8427C537.8625,-274.147 557.0442,-275.6614 574.7017,-277.0554"/>
<polygon fill="#b8860b" stroke="#b8860b" stroke-width="1.5" points="574.6461,-280.5618 584.8905,-277.8598 575.197,-273.5835 574.6461,-280.5618"/>
<text text-anchor="start" x="546" y="-279.3" font-family="Times,serif" font-size="14.00" fill="#bc1f29"> R</text>
</g>
<!-- state_10014&#45;&gt;state_10006 -->
<g id="trans_19" class="edge">
<title>state_10014&#45;&gt;state_10006</title>
<path fill="none" stroke="#b8860b" stroke-width="1.5" d="M528.1675,-319.2216C539.8347,-312.7836 551.3798,-304.6057 560,-294.5 575.5994,-276.2124 563.2013,-262.4414 578,-243.5 580.6349,-240.1275 583.6891,-236.9732 586.9748,-234.0483"/>
<polygon fill="#b8860b" stroke="#b8860b" stroke-width="1.5" points="589.354,-236.6271 594.9736,-227.6454 584.9795,-231.1622 589.354,-236.6271"/>
<text text-anchor="start" x="548" y="-310.3" font-family="Times,serif" font-size="14.00" fill="#0a5040"> ε</text>
</g>
<!-- state_10016 -->
<g id="state_10016" class="node">
<title>state_10016</title>
<path fill="#f5f5dc" stroke="#b8860b" stroke-width="1.5" d="M668,-384C668,-384 594,-384 594,-384 588,-384 582,-378 582,-372 582,-372 582,-345 582,-345 582,-339 588,-333 594,-333 594,-333 668,-333 668,-333 674,-333 680,-339 680,-345 680,-345 680,-372 680,-372 680,-378 674,-384 668,-384"/>
<path fill="none" stroke="#b8860b" stroke-width="1.5" d="M672,-388C672,-388 590,-388 590,-388 584,-388 578,-382 578,-376 578,-376 578,-341 578,-341 578,-335 584,-329 590,-329 590,-329 672,-329 672,-329 678,-329 684,-335 684,-341 684,-341 684,-376 684,-376 684,-382 678,-388 672,-388"/>
<g id="a_state_10016_title"><a xlink:href="#" xlink:title="state_10016_title">
<text text-anchor="start" x="604.5" y="-366.1" font-family="Calibri" font-weight="bold" font-size="13.00" fill="#8b4513">Estado </text>
<text text-anchor="start" x="643.5" y="-366.1" font-family="Calibri" font-weight="bold" font-size="13.00" fill="#8b4513">16</text>
</a>
</g>
<g id="a_state_10016_item_1"><a xlink:href="#" xlink:title="state_10016_item_1">
<text text-anchor="start" x="590" y="-345.3" font-family="Times,serif" font-size="14.00" fill="#bc1f29">E </text>
<text text-anchor="start" x="603" y="-345.3" font-family="Times,serif" font-size="14.00" fill="#0a5040">→ </text>
<text text-anchor="start" x="622" y="-345.3" font-family="Times,serif" font-size="14.00" fill="#bc1f29"> L</text>
<text text-anchor="start" x="635" y="-345.3" font-family="Times,serif" font-size="14.00" fill="#0a5040"> =</text>
<text text-anchor="start" x="648" y="-345.3" font-family="Times,serif" font-size="14.00" fill="#bc1f29"> R</text>
<text text-anchor="start" x="662" y="-345.3" font-family="Times,serif" font-size="14.00" fill="#f5a70a"> •</text>
</a>
</g>
</g>
<!-- state_10014&#45;&gt;state_10016 -->
<g id="trans_18" class="edge">
<title>state_10014&#45;&gt;state_10016</title>
<path fill="none" stroke="#b8860b" stroke-width="1.5" d="M528.35,-344.9934C540.9912,-346.6567 554.7587,-348.4683 567.9855,-350.2086"/>
<polygon fill="#b8860b" stroke="#b8860b" stroke-width="1.5" points="567.5958,-353.6874 577.967,-351.522 568.5091,-346.7473 567.5958,-353.6874"/>
<text text-anchor="start" x="546" y="-352.3" font-family="Times,serif" font-size="14.00" fill="#bc1f29"> R</text>
</g>
</g>
</svg>
