<?xml version="1.0" encoding="UTF-8" standalone="no"?>
<!DOCTYPE svg PUBLIC "-//W3C//DTD SVG 1.1//EN"
 "http://www.w3.org/Graphics/SVG/1.1/DTD/svg11.dtd">
<!-- Generated by graphviz version 2.40.1 (20161225.0304)
 -->
<!-- Title: NFA Pages: 1 -->
<svg width="1151pt" height="363pt"
 viewBox="0.00 0.00 1151.00 363.00" xmlns="http://www.w3.org/2000/svg" xmlns:xlink="http://www.w3.org/1999/xlink">
<g id="graph0" class="graph" transform="scale(1 1) rotate(0) translate(4 359)">
<title>NFA</title>
<!-- state_10002 -->
<g id="state_10002" class="node">
<title>state_10002</title>
<path fill="#fffff0" stroke="#b8860b" stroke-width="1.5" d="M837,-274C837,-274 774,-274 774,-274 768,-274 762,-268 762,-262 762,-262 762,-235 762,-235 762,-229 768,-223 774,-223 774,-223 837,-223 837,-223 843,-223 849,-229 849,-235 849,-235 849,-262 849,-262 849,-268 843,-274 837,-274"/>
<g id="a_state_10002_title"><a xlink:href="#" xlink:title="state_10002_title">
<text text-anchor="start" x="783" y="-256.1" font-family="Calibri" font-weight="bold" font-size="13.00" fill="#8b4513">Estado </text>
<text text-anchor="start" x="822" y="-256.1" font-family="Calibri" font-weight="bold" font-size="13.00" fill="#8b4513">2</text>
</a>
</g>
<g id="a_state_10002_item_1"><a xlink:href="#" xlink:title="state_10002_item_1">
<text text-anchor="start" x="770.5" y="-235.3" font-family="Times,serif" font-size="14.00" fill="#bc1f29">List </text>
<text text-anchor="start" x="796.5" y="-235.3" font-family="Times,serif" font-size="14.00" fill="#0a5040">→ </text>
<text text-anchor="start" x="815.5" y="-235.3" font-family="Times,serif" font-size="14.00" fill="#f5a70a"> •</text>
<text text-anchor="start" x="825.5" y="-235.3" font-family="Times,serif" font-size="14.00" fill="#0a5040"> id</text>
</a>
</g>
</g>
<!-- state_10010 -->
<g id="state_10010" class="node">
<title>state_10010</title>
<path fill="#f5f5dc" stroke="#b8860b" stroke-width="1.5" d="M1078,-274C1078,-274 1015,-274 1015,-274 1009,-274 1003,-268 1003,-262 1003,-262 1003,-235 1003,-235 1003,-229 1009,-223 1015,-223 1015,-223 1078,-223 1078,-223 1084,-223 1090,-229 1090,-235 1090,-235 1090,-262 1090,-262 1090,-268 1084,-274 1078,-274"/>
<path fill="none" stroke="#b8860b" stroke-width="1.5" d="M1082,-278C1082,-278 1011,-278 1011,-278 1005,-278 999,-272 999,-266 999,-266 999,-231 999,-231 999,-225 1005,-219 1011,-219 1011,-219 1082,-219 1082,-219 1088,-219 1094,-225 1094,-231 1094,-231 1094,-266 1094,-266 1094,-272 1088,-278 1082,-278"/>
<g id="a_state_10010_title"><a xlink:href="#" xlink:title="state_10010_title">
<text text-anchor="start" x="1020.5" y="-256.1" font-family="Calibri" font-weight="bold" font-size="13.00" fill="#8b4513">Estado </text>
<text text-anchor="start" x="1059.5" y="-256.1" font-family="Calibri" font-weight="bold" font-size="13.00" fill="#8b4513">10</text>
</a>
</g>
<g id="a_state_10010_item_1"><a xlink:href="#" xlink:title="state_10010_item_1">
<text text-anchor="start" x="1011.5" y="-235.3" font-family="Times,serif" font-size="14.00" fill="#bc1f29">List </text>
<text text-anchor="start" x="1037.5" y="-235.3" font-family="Times,serif" font-size="14.00" fill="#0a5040">→ </text>
<text text-anchor="start" x="1056.5" y="-235.3" font-family="Times,serif" font-size="14.00" fill="#0a5040"> id</text>
<text text-anchor="start" x="1072.5" y="-235.3" font-family="Times,serif" font-size="14.00" fill="#f5a70a"> •</text>
</a>
</g>
</g>
<!-- state_10002&#45;&gt;state_10010 -->
<g id="trans_5" class="edge">
<title>state_10002&#45;&gt;state_10010</title>
<path fill="none" stroke="#b8860b" stroke-width="1.5" d="M849.1433,-248.5C888.1975,-248.5 945.7376,-248.5 988.6229,-248.5"/>
<polygon fill="#b8860b" stroke="#b8860b" stroke-width="1.5" points="988.6375,-252.0001 998.6374,-248.5 988.6374,-245.0001 988.6375,-252.0001"/>
<text text-anchor="start" x="916" y="-252.3" font-family="Times,serif" font-size="14.00" fill="#0a5040"> id</text>
</g>
<!-- state_10005 -->
<g id="state_10005" class="node">
<title>state_10005</title>
<path fill="#fffff0" stroke="#b8860b" stroke-width="1.5" d="M309,-111C309,-111 222,-111 222,-111 216,-111 210,-105 210,-99 210,-99 210,-72 210,-72 210,-66 216,-60 222,-60 222,-60 309,-60 309,-60 315,-60 321,-66 321,-72 321,-72 321,-99 321,-99 321,-105 315,-111 309,-111"/>
<g id="a_state_10005_title"><a xlink:href="#" xlink:title="state_10005_title">
<text text-anchor="start" x="243" y="-93.1" font-family="Calibri" font-weight="bold" font-size="13.00" fill="#8b4513">Estado </text>
<text text-anchor="start" x="282" y="-93.1" font-family="Calibri" font-weight="bold" font-size="13.00" fill="#8b4513">5</text>
</a>
</g>
<g id="a_state_10005_item_1"><a xlink:href="#" xlink:title="state_10005_item_1">
<text text-anchor="start" x="218.5" y="-72.3" font-family="Times,serif" font-size="14.00" fill="#bc1f29">List&#39; </text>
<text text-anchor="start" x="246.5" y="-72.3" font-family="Times,serif" font-size="14.00" fill="#0a5040">→ </text>
<text text-anchor="start" x="265.5" y="-72.3" font-family="Times,serif" font-size="14.00" fill="#bc1f29"> List</text>
<text text-anchor="start" x="291.5" y="-72.3" font-family="Times,serif" font-size="14.00" fill="#f5a70a"> •</text>
<text text-anchor="start" x="301.5" y="-72.3" font-family="Times,serif" font-size="14.00" fill="#0a5040"> $</text>
</a>
</g>
</g>
<!-- state_10012 -->
<g id="state_10012" class="node">
<title>state_10012</title>
<path fill="#f5f5dc" stroke="#b8860b" stroke-width="1.5" d="M556,-75C556,-75 469,-75 469,-75 463,-75 457,-69 457,-63 457,-63 457,-36 457,-36 457,-30 463,-24 469,-24 469,-24 556,-24 556,-24 562,-24 568,-30 568,-36 568,-36 568,-63 568,-63 568,-69 562,-75 556,-75"/>
<path fill="none" stroke="#b8860b" stroke-width="1.5" d="M560,-79C560,-79 465,-79 465,-79 459,-79 453,-73 453,-67 453,-67 453,-32 453,-32 453,-26 459,-20 465,-20 465,-20 560,-20 560,-20 566,-20 572,-26 572,-32 572,-32 572,-67 572,-67 572,-73 566,-79 560,-79"/>
<g id="a_state_10012_title"><a xlink:href="#" xlink:title="state_10012_title">
<text text-anchor="start" x="486.5" y="-57.1" font-family="Calibri" font-weight="bold" font-size="13.00" fill="#8b4513">Estado </text>
<text text-anchor="start" x="525.5" y="-57.1" font-family="Calibri" font-weight="bold" font-size="13.00" fill="#8b4513">12</text>
</a>
</g>
<g id="a_state_10012_item_1"><a xlink:href="#" xlink:title="state_10012_item_1">
<text text-anchor="start" x="465.5" y="-36.3" font-family="Times,serif" font-size="14.00" fill="#bc1f29">List&#39; </text>
<text text-anchor="start" x="493.5" y="-36.3" font-family="Times,serif" font-size="14.00" fill="#0a5040">→ </text>
<text text-anchor="start" x="512.5" y="-36.3" font-family="Times,serif" font-size="14.00" fill="#bc1f29"> List</text>
<text text-anchor="start" x="538.5" y="-36.3" font-family="Times,serif" font-size="14.00" fill="#0a5040"> $</text>
<text text-anchor="start" x="550.5" y="-36.3" font-family="Times,serif" font-size="14.00" fill="#f5a70a"> •</text>
</a>
</g>
</g>
<!-- state_10005&#45;&gt;state_10012 -->
<g id="trans_14" class="edge">
<title>state_10005&#45;&gt;state_10012</title>
<path fill="none" stroke="#b8860b" stroke-width="1.5" d="M321.2396,-77.376C357.1583,-72.1409 404.1526,-65.2915 442.5691,-59.6924"/>
<polygon fill="#b8860b" stroke="#b8860b" stroke-width="1.5" points="443.2579,-63.129 452.6485,-58.2233 442.2482,-56.2022 443.2579,-63.129"/>
<text text-anchor="start" x="383" y="-73.3" font-family="Times,serif" font-size="14.00" fill="#0a5040"> $</text>
</g>
<!-- state_10007 -->
<g id="state_10007" class="node">
<title>state_10007</title>
<path fill="#fffff0" stroke="#b8860b" stroke-width="1.5" d="M846,-347C846,-347 765,-347 765,-347 759,-347 753,-341 753,-335 753,-335 753,-308 753,-308 753,-302 759,-296 765,-296 765,-296 846,-296 846,-296 852,-296 858,-302 858,-308 858,-308 858,-335 858,-335 858,-341 852,-347 846,-347"/>
<g id="a_state_10007_title"><a xlink:href="#" xlink:title="state_10007_title">
<text text-anchor="start" x="783" y="-329.1" font-family="Calibri" font-weight="bold" font-size="13.00" fill="#8b4513">Estado </text>
<text text-anchor="start" x="822" y="-329.1" font-family="Calibri" font-weight="bold" font-size="13.00" fill="#8b4513">7</text>
</a>
</g>
<g id="a_state_10007_item_1"><a xlink:href="#" xlink:title="state_10007_item_1">
<text text-anchor="start" x="761.5" y="-308.3" font-family="Times,serif" font-size="14.00" fill="#bc1f29">List </text>
<text text-anchor="start" x="787.5" y="-308.3" font-family="Times,serif" font-size="14.00" fill="#0a5040">→ </text>
<text text-anchor="start" x="806.5" y="-308.3" font-family="Times,serif" font-size="14.00" fill="#bc1f29"> List</text>
<text text-anchor="start" x="832.5" y="-308.3" font-family="Times,serif" font-size="14.00" fill="#f5a70a"> •</text>
<text text-anchor="start" x="842.5" y="-308.3" font-family="Times,serif" font-size="14.00" fill="#0a5040"> ,</text>
</a>
</g>
</g>
<!-- state_10013 -->
<g id="state_10013" class="node">
<title>state_10013</title>
<path fill="#f5f5dc" stroke="#b8860b" stroke-width="1.5" d="M1087,-351C1087,-351 1006,-351 1006,-351 1000,-351 994,-345 994,-339 994,-339 994,-312 994,-312 994,-306 1000,-300 1006,-300 1006,-300 1087,-300 1087,-300 1093,-300 1099,-306 1099,-312 1099,-312 1099,-339 1099,-339 1099,-345 1093,-351 1087,-351"/>
<path fill="none" stroke="#b8860b" stroke-width="1.5" d="M1091,-355C1091,-355 1002,-355 1002,-355 996,-355 990,-349 990,-343 990,-343 990,-308 990,-308 990,-302 996,-296 1002,-296 1002,-296 1091,-296 1091,-296 1097,-296 1103,-302 1103,-308 1103,-308 1103,-343 1103,-343 1103,-349 1097,-355 1091,-355"/>
<g id="a_state_10013_title"><a xlink:href="#" xlink:title="state_10013_title">
<text text-anchor="start" x="1020.5" y="-333.1" font-family="Calibri" font-weight="bold" font-size="13.00" fill="#8b4513">Estado </text>
<text text-anchor="start" x="1059.5" y="-333.1" font-family="Calibri" font-weight="bold" font-size="13.00" fill="#8b4513">13</text>
</a>
</g>
<g id="a_state_10013_item_1"><a xlink:href="#" xlink:title="state_10013_item_1">
<text text-anchor="start" x="1002.5" y="-312.3" font-family="Times,serif" font-size="14.00" fill="#bc1f29">List </text>
<text text-anchor="start" x="1028.5" y="-312.3" font-family="Times,serif" font-size="14.00" fill="#0a5040">→ </text>
<text text-anchor="start" x="1047.5" y="-312.3" font-family="Times,serif" font-size="14.00" fill="#bc1f29"> List</text>
<text text-anchor="start" x="1073.5" y="-312.3" font-family="Times,serif" font-size="14.00" fill="#0a5040"> ,</text>
<text text-anchor="start" x="1081.5" y="-312.3" font-family="Times,serif" font-size="14.00" fill="#f5a70a"> •</text>
</a>
</g>
</g>
<!-- state_10007&#45;&gt;state_10013 -->
<g id="trans_18" class="edge">
<title>state_10007&#45;&gt;state_10013</title>
<path fill="none" stroke="#b8860b" stroke-width="1.5" d="M858.0907,-322.3729C893.8165,-322.9658 941.3668,-323.7551 979.7591,-324.3923"/>
<polygon fill="#b8860b" stroke="#b8860b" stroke-width="1.5" points="979.7604,-327.8927 989.8172,-324.5592 979.8767,-320.8936 979.7604,-327.8927"/>
<text text-anchor="start" x="920" y="-327.3" font-family="Times,serif" font-size="14.00" fill="#0a5040"> ,</text>
</g>
<!-- state_10008 -->
<g id="state_10008" class="node">
<title>state_10008</title>
<path fill="#fffff0" stroke="#b8860b" stroke-width="1.5" d="M856,-197C856,-197 755,-197 755,-197 749,-197 743,-191 743,-185 743,-185 743,-158 743,-158 743,-152 749,-146 755,-146 755,-146 856,-146 856,-146 862,-146 868,-152 868,-158 868,-158 868,-185 868,-185 868,-191 862,-197 856,-197"/>
<g id="a_state_10008_title"><a xlink:href="#" xlink:title="state_10008_title">
<text text-anchor="start" x="783" y="-179.1" font-family="Calibri" font-weight="bold" font-size="13.00" fill="#8b4513">Estado </text>
<text text-anchor="start" x="822" y="-179.1" font-family="Calibri" font-weight="bold" font-size="13.00" fill="#8b4513">8</text>
</a>
</g>
<g id="a_state_10008_item_1"><a xlink:href="#" xlink:title="state_10008_item_1">
<text text-anchor="start" x="751.5" y="-158.3" font-family="Times,serif" font-size="14.00" fill="#bc1f29">OptComma </text>
<text text-anchor="start" x="823.5" y="-158.3" font-family="Times,serif" font-size="14.00" fill="#0a5040">→ </text>
<text text-anchor="start" x="842.5" y="-158.3" font-family="Times,serif" font-size="14.00" fill="#f5a70a"> •</text>
<text text-anchor="start" x="852.5" y="-158.3" font-family="Times,serif" font-size="14.00" fill="#0a5040"> ,</text>
</a>
</g>
</g>
<!-- state_10014 -->
<g id="state_10014" class="node">
<title>state_10014</title>
<path fill="#f5f5dc" stroke="#b8860b" stroke-width="1.5" d="M1097,-197C1097,-197 996,-197 996,-197 990,-197 984,-191 984,-185 984,-185 984,-158 984,-158 984,-152 990,-146 996,-146 996,-146 1097,-146 1097,-146 1103,-146 1109,-152 1109,-158 1109,-158 1109,-185 1109,-185 1109,-191 1103,-197 1097,-197"/>
<path fill="none" stroke="#b8860b" stroke-width="1.5" d="M1101,-201C1101,-201 992,-201 992,-201 986,-201 980,-195 980,-189 980,-189 980,-154 980,-154 980,-148 986,-142 992,-142 992,-142 1101,-142 1101,-142 1107,-142 1113,-148 1113,-154 1113,-154 1113,-189 1113,-189 1113,-195 1107,-201 1101,-201"/>
<g id="a_state_10014_title"><a xlink:href="#" xlink:title="state_10014_title">
<text text-anchor="start" x="1020.5" y="-179.1" font-family="Calibri" font-weight="bold" font-size="13.00" fill="#8b4513">Estado </text>
<text text-anchor="start" x="1059.5" y="-179.1" font-family="Calibri" font-weight="bold" font-size="13.00" fill="#8b4513">14</text>
</a>
</g>
<g id="a_state_10014_item_1"><a xlink:href="#" xlink:title="state_10014_item_1">
<text text-anchor="start" x="992.5" y="-158.3" font-family="Times,serif" font-size="14.00" fill="#bc1f29">OptComma </text>
<text text-anchor="start" x="1064.5" y="-158.3" font-family="Times,serif" font-size="14.00" fill="#0a5040">→ </text>
<text text-anchor="start" x="1083.5" y="-158.3" font-family="Times,serif" font-size="14.00" fill="#0a5040"> ,</text>
<text text-anchor="start" x="1091.5" y="-158.3" font-family="Times,serif" font-size="14.00" fill="#f5a70a"> •</text>
</a>
</g>
</g>
<!-- state_10008&#45;&gt;state_10014 -->
<g id="trans_19" class="edge">
<title>state_10008&#45;&gt;state_10014</title>
<path fill="none" stroke="#b8860b" stroke-width="1.5" d="M868.1908,-171.5C899.2833,-171.5 937.1053,-171.5 969.9016,-171.5"/>
<polygon fill="#b8860b" stroke="#b8860b" stroke-width="1.5" points="969.9054,-175.0001 979.9054,-171.5 969.9054,-168.0001 969.9054,-175.0001"/>
<text text-anchor="start" x="920" y="-175.3" font-family="Times,serif" font-size="14.00" fill="#0a5040"> ,</text>
</g>
<!-- state_10011 -->
<g id="state_10011" class="node">
<title>state_10011</title>
<path fill="#fffff0" stroke="#b8860b" stroke-width="1.5" d="M886,-128C886,-128 725,-128 725,-128 719,-128 713,-122 713,-116 713,-116 713,-89 713,-89 713,-83 719,-77 725,-77 725,-77 886,-77 886,-77 892,-77 898,-83 898,-89 898,-89 898,-116 898,-116 898,-122 892,-128 886,-128"/>
<g id="a_state_10011_title"><a xlink:href="#" xlink:title="state_10011_title">
<text text-anchor="start" x="779.5" y="-110.1" font-family="Calibri" font-weight="bold" font-size="13.00" fill="#8b4513">Estado </text>
<text text-anchor="start" x="818.5" y="-110.1" font-family="Calibri" font-weight="bold" font-size="13.00" fill="#8b4513">11</text>
</a>
</g>
<g id="a_state_10011_item_1"><a xlink:href="#" xlink:title="state_10011_item_1">
<text text-anchor="start" x="721.5" y="-89.3" font-family="Times,serif" font-size="14.00" fill="#bc1f29">List </text>
<text text-anchor="start" x="747.5" y="-89.3" font-family="Times,serif" font-size="14.00" fill="#0a5040">→ </text>
<text text-anchor="start" x="766.5" y="-89.3" font-family="Times,serif" font-size="14.00" fill="#bc1f29"> List</text>
<text text-anchor="start" x="792.5" y="-89.3" font-family="Times,serif" font-size="14.00" fill="#bc1f29"> OptComma</text>
<text text-anchor="start" x="864.5" y="-89.3" font-family="Times,serif" font-size="14.00" fill="#f5a70a"> •</text>
<text text-anchor="start" x="874.5" y="-89.3" font-family="Times,serif" font-size="14.00" fill="#0a5040"> id</text>
</a>
</g>
</g>
<!-- state_10015 -->
<g id="state_10015" class="node">
<title>state_10015</title>
<path fill="#f5f5dc" stroke="#b8860b" stroke-width="1.5" d="M1127,-120C1127,-120 966,-120 966,-120 960,-120 954,-114 954,-108 954,-108 954,-81 954,-81 954,-75 960,-69 966,-69 966,-69 1127,-69 1127,-69 1133,-69 1139,-75 1139,-81 1139,-81 1139,-108 1139,-108 1139,-114 1133,-120 1127,-120"/>
<path fill="none" stroke="#b8860b" stroke-width="1.5" d="M1131,-124C1131,-124 962,-124 962,-124 956,-124 950,-118 950,-112 950,-112 950,-77 950,-77 950,-71 956,-65 962,-65 962,-65 1131,-65 1131,-65 1137,-65 1143,-71 1143,-77 1143,-77 1143,-112 1143,-112 1143,-118 1137,-124 1131,-124"/>
<g id="a_state_10015_title"><a xlink:href="#" xlink:title="state_10015_title">
<text text-anchor="start" x="1020.5" y="-102.1" font-family="Calibri" font-weight="bold" font-size="13.00" fill="#8b4513">Estado </text>
<text text-anchor="start" x="1059.5" y="-102.1" font-family="Calibri" font-weight="bold" font-size="13.00" fill="#8b4513">15</text>
</a>
</g>
<g id="a_state_10015_item_1"><a xlink:href="#" xlink:title="state_10015_item_1">
<text text-anchor="start" x="962.5" y="-81.3" font-family="Times,serif" font-size="14.00" fill="#bc1f29">List </text>
<text text-anchor="start" x="988.5" y="-81.3" font-family="Times,serif" font-size="14.00" fill="#0a5040">→ </text>
<text text-anchor="start" x="1007.5" y="-81.3" font-family="Times,serif" font-size="14.00" fill="#bc1f29"> List</text>
<text text-anchor="start" x="1033.5" y="-81.3" font-family="Times,serif" font-size="14.00" fill="#bc1f29"> OptComma</text>
<text text-anchor="start" x="1105.5" y="-81.3" font-family="Times,serif" font-size="14.00" fill="#0a5040"> id</text>
<text text-anchor="start" x="1121.5" y="-81.3" font-family="Times,serif" font-size="14.00" fill="#f5a70a"> •</text>
</a>
</g>
</g>
<!-- state_10011&#45;&gt;state_10015 -->
<g id="trans_20" class="edge">
<title>state_10011&#45;&gt;state_10015</title>
<path fill="none" stroke="#b8860b" stroke-width="1.5" d="M898.3322,-99.4184C911.8832,-98.9686 925.9276,-98.5024 939.7287,-98.0443"/>
<polygon fill="#b8860b" stroke="#b8860b" stroke-width="1.5" points="939.8461,-101.5424 949.7245,-97.7125 939.6138,-94.5463 939.8461,-101.5424"/>
<text text-anchor="start" x="916" y="-103.3" font-family="Times,serif" font-size="14.00" fill="#0a5040"> id</text>
</g>
<!-- state_10001 -->
<g id="state_10001" class="node">
<title>state_10001</title>
<path fill="#fffff0" stroke="#b8860b" stroke-width="1.5" d="M99,-287C99,-287 12,-287 12,-287 6,-287 0,-281 0,-275 0,-275 0,-248 0,-248 0,-242 6,-236 12,-236 12,-236 99,-236 99,-236 105,-236 111,-242 111,-248 111,-248 111,-275 111,-275 111,-281 105,-287 99,-287"/>
<g id="a_state_10001_title"><a xlink:href="#" xlink:title="state_10001_title">
<text text-anchor="start" x="33" y="-269.1" font-family="Calibri" font-weight="bold" font-size="13.00" fill="#8b4513">Estado </text>
<text text-anchor="start" x="72" y="-269.1" font-family="Calibri" font-weight="bold" font-size="13.00" fill="#8b4513">1</text>
</a>
</g>
<g id="a_state_10001_item_1"><a xlink:href="#" xlink:title="state_10001_item_1">
<text text-anchor="start" x="8.5" y="-248.3" font-family="Times,serif" font-size="14.00" fill="#bc1f29">List&#39; </text>
<text text-anchor="start" x="36.5" y="-248.3" font-family="Times,serif" font-size="14.00" fill="#0a5040">→ </text>
<text text-anchor="start" x="55.5" y="-248.3" font-family="Times,serif" font-size="14.00" fill="#f5a70a"> •</text>
<text text-anchor="start" x="65.5" y="-248.3" font-family="Times,serif" font-size="14.00" fill="#bc1f29"> List</text>
<text text-anchor="start" x="91.5" y="-248.3" font-family="Times,serif" font-size="14.00" fill="#0a5040"> $</text>
</a>
</g>
</g>
<!-- state_10001&#45;&gt;state_10002 -->
<g id="trans_3" class="edge">
<title>state_10001&#45;&gt;state_10002</title>
<path fill="none" stroke="#b8860b" stroke-width="1.5" d="M111.2322,-272.4082C117.2225,-273.4933 123.2331,-274.5451 129,-275.5 257.8561,-296.8367 289.709,-307.3665 420,-316.5 502.0209,-322.2497 522.7981,-318.3258 605,-316.5 645.0296,-315.6109 659.7778,-331.541 695,-312.5 707.0442,-305.989 702.2929,-296.0332 713,-287.5 724.6274,-278.2334 738.7778,-270.8118 752.4784,-265.0346"/>
<polygon fill="#b8860b" stroke="#b8860b" stroke-width="1.5" points="753.8629,-268.2506 761.855,-261.2953 751.2699,-261.7485 753.8629,-268.2506"/>
<text text-anchor="start" x="384" y="-318.3" font-family="Times,serif" font-size="14.00" fill="#0a5040"> ε</text>
</g>
<!-- state_10001&#45;&gt;state_10005 -->
<g id="trans_1" class="edge">
<title>state_10001&#45;&gt;state_10005</title>
<path fill="none" stroke="#b8860b" stroke-width="1.5" d="M83.0006,-235.869C106.4927,-214.2319 141.4023,-182.6832 173,-156.5 188.929,-143.3006 206.8799,-129.3258 222.7004,-117.298"/>
<polygon fill="#b8860b" stroke="#b8860b" stroke-width="1.5" points="224.8959,-120.0258 230.7574,-111.2 220.6714,-114.4442 224.8959,-120.0258"/>
<text text-anchor="start" x="129" y="-196.3" font-family="Times,serif" font-size="14.00" fill="#bc1f29"> List</text>
</g>
<!-- state_10003 -->
<g id="state_10003" class="node">
<title>state_10003</title>
<path fill="#fffff0" stroke="#b8860b" stroke-width="1.5" d="M346,-216C346,-216 185,-216 185,-216 179,-216 173,-210 173,-204 173,-204 173,-177 173,-177 173,-171 179,-165 185,-165 185,-165 346,-165 346,-165 352,-165 358,-171 358,-177 358,-177 358,-204 358,-204 358,-210 352,-216 346,-216"/>
<g id="a_state_10003_title"><a xlink:href="#" xlink:title="state_10003_title">
<text text-anchor="start" x="243" y="-198.1" font-family="Calibri" font-weight="bold" font-size="13.00" fill="#8b4513">Estado </text>
<text text-anchor="start" x="282" y="-198.1" font-family="Calibri" font-weight="bold" font-size="13.00" fill="#8b4513">3</text>
</a>
</g>
<g id="a_state_10003_item_1"><a xlink:href="#" xlink:title="state_10003_item_1">
<text text-anchor="start" x="181.5" y="-177.3" font-family="Times,serif" font-size="14.00" fill="#bc1f29">List </text>
<text text-anchor="start" x="207.5" y="-177.3" font-family="Times,serif" font-size="14.00" fill="#0a5040">→ </text>
<text text-anchor="start" x="226.5" y="-177.3" font-family="Times,serif" font-size="14.00" fill="#f5a70a"> •</text>
<text text-anchor="start" x="236.5" y="-177.3" font-family="Times,serif" font-size="14.00" fill="#bc1f29"> List</text>
<text text-anchor="start" x="262.5" y="-177.3" font-family="Times,serif" font-size="14.00" fill="#bc1f29"> OptComma</text>
<text text-anchor="start" x="334.5" y="-177.3" font-family="Times,serif" font-size="14.00" fill="#0a5040"> id</text>
</a>
</g>
</g>
<!-- state_10001&#45;&gt;state_10003 -->
<g id="trans_4" class="edge">
<title>state_10001&#45;&gt;state_10003</title>
<path fill="none" stroke="#b8860b" stroke-width="1.5" d="M111.2248,-242.6597C132.3705,-235.5104 156.9645,-227.1953 180.2197,-219.3329"/>
<polygon fill="#b8860b" stroke="#b8860b" stroke-width="1.5" points="181.3909,-222.6316 189.7431,-216.113 179.1489,-216.0003 181.3909,-222.6316"/>
<text text-anchor="start" x="137" y="-240.3" font-family="Times,serif" font-size="14.00" fill="#0a5040"> ε</text>
</g>
<!-- state_10004 -->
<g id="state_10004" class="node">
<title>state_10004</title>
<path fill="#fffff0" stroke="#b8860b" stroke-width="1.5" d="M553,-274C553,-274 472,-274 472,-274 466,-274 460,-268 460,-262 460,-262 460,-235 460,-235 460,-229 466,-223 472,-223 472,-223 553,-223 553,-223 559,-223 565,-229 565,-235 565,-235 565,-262 565,-262 565,-268 559,-274 553,-274"/>
<g id="a_state_10004_title"><a xlink:href="#" xlink:title="state_10004_title">
<text text-anchor="start" x="490" y="-256.1" font-family="Calibri" font-weight="bold" font-size="13.00" fill="#8b4513">Estado </text>
<text text-anchor="start" x="529" y="-256.1" font-family="Calibri" font-weight="bold" font-size="13.00" fill="#8b4513">4</text>
</a>
</g>
<g id="a_state_10004_item_1"><a xlink:href="#" xlink:title="state_10004_item_1">
<text text-anchor="start" x="468.5" y="-235.3" font-family="Times,serif" font-size="14.00" fill="#bc1f29">List </text>
<text text-anchor="start" x="494.5" y="-235.3" font-family="Times,serif" font-size="14.00" fill="#0a5040">→ </text>
<text text-anchor="start" x="513.5" y="-235.3" font-family="Times,serif" font-size="14.00" fill="#f5a70a"> •</text>
<text text-anchor="start" x="523.5" y="-235.3" font-family="Times,serif" font-size="14.00" fill="#bc1f29"> List</text>
<text text-anchor="start" x="549.5" y="-235.3" font-family="Times,serif" font-size="14.00" fill="#0a5040"> ,</text>
</a>
</g>
</g>
<!-- state_10001&#45;&gt;state_10004 -->
<g id="trans_2" class="edge">
<title>state_10001&#45;&gt;state_10004</title>
<path fill="none" stroke="#b8860b" stroke-width="1.5" d="M111.0548,-262.2408C179.5265,-262.8352 299.4152,-262.8388 402,-257.5 417.5312,-256.6917 434.2663,-255.4971 449.8982,-254.2405"/>
<polygon fill="#b8860b" stroke="#b8860b" stroke-width="1.5" points="450.3087,-257.7186 459.9875,-253.4092 449.7338,-250.7423 450.3087,-257.7186"/>
<text text-anchor="start" x="260.5" y="-266.3" font-family="Times,serif" font-size="14.00" fill="#0a5040"> ε</text>
</g>
<!-- state_10003&#45;&gt;state_10002 -->
<g id="trans_7" class="edge">
<title>state_10003&#45;&gt;state_10002</title>
<path fill="none" stroke="#b8860b" stroke-width="1.5" d="M358.1428,-187.6548C426.6347,-186.8354 522.0149,-188.3892 605,-199.5 655.5861,-206.2729 711.9468,-220.677 751.998,-232.1243"/>
<polygon fill="#b8860b" stroke="#b8860b" stroke-width="1.5" points="751.2369,-235.5476 761.8156,-234.9645 753.1822,-228.8233 751.2369,-235.5476"/>
<text text-anchor="start" x="507.5" y="-203.3" font-family="Times,serif" font-size="14.00" fill="#0a5040"> ε</text>
</g>
<!-- state_10003&#45;&gt;state_10003 -->
<g id="trans_8" class="edge">
<title>state_10003&#45;&gt;state_10003</title>
<path fill="none" stroke="#b8860b" stroke-width="1.5" d="M242.6753,-216.4017C241.9269,-226.0544 249.5352,-234 265.5,-234 275.478,-234 282.1918,-230.8962 285.6412,-226.2118"/>
<polygon fill="#b8860b" stroke="#b8860b" stroke-width="1.5" points="289.0621,-226.9708 288.3247,-216.4017 282.3101,-225.1238 289.0621,-226.9708"/>
<text text-anchor="start" x="260.5" y="-237.8" font-family="Times,serif" font-size="14.00" fill="#0a5040"> ε</text>
</g>
<!-- state_10003&#45;&gt;state_10004 -->
<g id="trans_9" class="edge">
<title>state_10003&#45;&gt;state_10004</title>
<path fill="none" stroke="#b8860b" stroke-width="1.5" d="M358.1892,-208.6954C372.8803,-211.8146 387.8798,-215.1385 402,-218.5 417.546,-222.2009 434.2249,-226.5358 449.7923,-230.7416"/>
<polygon fill="#b8860b" stroke="#b8860b" stroke-width="1.5" points="449.2702,-234.2269 459.8386,-233.4788 451.1104,-227.4731 449.2702,-234.2269"/>
<text text-anchor="start" x="384" y="-222.3" font-family="Times,serif" font-size="14.00" fill="#0a5040"> ε</text>
</g>
<!-- state_10006 -->
<g id="state_10006" class="node">
<title>state_10006</title>
<path fill="#fffff0" stroke="#b8860b" stroke-width="1.5" d="M593,-148C593,-148 432,-148 432,-148 426,-148 420,-142 420,-136 420,-136 420,-109 420,-109 420,-103 426,-97 432,-97 432,-97 593,-97 593,-97 599,-97 605,-103 605,-109 605,-109 605,-136 605,-136 605,-142 599,-148 593,-148"/>
<g id="a_state_10006_title"><a xlink:href="#" xlink:title="state_10006_title">
<text text-anchor="start" x="490" y="-130.1" font-family="Calibri" font-weight="bold" font-size="13.00" fill="#8b4513">Estado </text>
<text text-anchor="start" x="529" y="-130.1" font-family="Calibri" font-weight="bold" font-size="13.00" fill="#8b4513">6</text>
</a>
</g>
<g id="a_state_10006_item_1"><a xlink:href="#" xlink:title="state_10006_item_1">
<text text-anchor="start" x="428.5" y="-109.3" font-family="Times,serif" font-size="14.00" fill="#bc1f29">List </text>
<text text-anchor="start" x="454.5" y="-109.3" font-family="Times,serif" font-size="14.00" fill="#0a5040">→ </text>
<text text-anchor="start" x="473.5" y="-109.3" font-family="Times,serif" font-size="14.00" fill="#bc1f29"> List</text>
<text text-anchor="start" x="499.5" y="-109.3" font-family="Times,serif" font-size="14.00" fill="#f5a70a"> •</text>
<text text-anchor="start" x="509.5" y="-109.3" font-family="Times,serif" font-size="14.00" fill="#bc1f29"> OptComma</text>
<text text-anchor="start" x="581.5" y="-109.3" font-family="Times,serif" font-size="14.00" fill="#0a5040"> id</text>
</a>
</g>
</g>
<!-- state_10003&#45;&gt;state_10006 -->
<g id="trans_6" class="edge">
<title>state_10003&#45;&gt;state_10006</title>
<path fill="none" stroke="#b8860b" stroke-width="1.5" d="M343.773,-164.9675C354.5648,-161.6641 365.5328,-158.4192 376,-155.5 386.8982,-152.4606 398.3308,-149.4388 409.7458,-146.528"/>
<polygon fill="#b8860b" stroke="#b8860b" stroke-width="1.5" points="410.9193,-149.8416 419.7588,-144.0009 409.2063,-143.0545 410.9193,-149.8416"/>
<text text-anchor="start" x="376" y="-159.3" font-family="Times,serif" font-size="14.00" fill="#bc1f29"> List</text>
</g>
<!-- state_10004&#45;&gt;state_10002 -->
<g id="trans_11" class="edge">
<title>state_10004&#45;&gt;state_10002</title>
<path fill="none" stroke="#b8860b" stroke-width="1.5" d="M565.2209,-248.5C617.8923,-248.5 698.4645,-248.5 751.561,-248.5"/>
<polygon fill="#b8860b" stroke="#b8860b" stroke-width="1.5" points="751.7976,-252.0001 761.7976,-248.5 751.7975,-245.0001 751.7976,-252.0001"/>
<text text-anchor="start" x="654" y="-252.3" font-family="Times,serif" font-size="14.00" fill="#0a5040"> ε</text>
</g>
<!-- state_10004&#45;&gt;state_10007 -->
<g id="trans_10" class="edge">
<title>state_10004&#45;&gt;state_10007</title>
<path fill="none" stroke="#b8860b" stroke-width="1.5" d="M565.2209,-261.6352C615.0611,-274.0528 689.8834,-292.6945 742.7695,-305.8709"/>
<polygon fill="#b8860b" stroke="#b8860b" stroke-width="1.5" points="742.1594,-309.3258 752.7089,-308.3473 743.8517,-302.5335 742.1594,-309.3258"/>
<text text-anchor="start" x="646" y="-297.3" font-family="Times,serif" font-size="14.00" fill="#bc1f29"> List</text>
</g>
<!-- state_10004&#45;&gt;state_10003 -->
<g id="trans_12" class="edge">
<title>state_10004&#45;&gt;state_10003</title>
<path fill="none" stroke="#b8860b" stroke-width="1.5" d="M459.762,-245.9329C434.1958,-243.8732 403.2079,-240.1663 376,-233.5 361.6231,-229.9775 346.6047,-225.0412 332.4394,-219.7634"/>
<polygon fill="#b8860b" stroke="#b8860b" stroke-width="1.5" points="333.3778,-216.375 322.7874,-216.0682 330.8749,-222.9123 333.3778,-216.375"/>
<text text-anchor="start" x="384" y="-242.3" font-family="Times,serif" font-size="14.00" fill="#0a5040"> ε</text>
</g>
<!-- state_10004&#45;&gt;state_10004 -->
<g id="trans_13" class="edge">
<title>state_10004&#45;&gt;state_10004</title>
<path fill="none" stroke="#b8860b" stroke-width="1.5" d="M489.6753,-274.4017C488.9269,-284.0544 496.5352,-292 512.5,-292 522.478,-292 529.1918,-288.8962 532.6412,-284.2118"/>
<polygon fill="#b8860b" stroke="#b8860b" stroke-width="1.5" points="536.0621,-284.9708 535.3247,-274.4017 529.3101,-283.1238 536.0621,-284.9708"/>
<text text-anchor="start" x="507.5" y="-295.8" font-family="Times,serif" font-size="14.00" fill="#0a5040"> ε</text>
</g>
<!-- state_10006&#45;&gt;state_10008 -->
<g id="trans_16" class="edge">
<title>state_10006&#45;&gt;state_10008</title>
<path fill="none" stroke="#b8860b" stroke-width="1.5" d="M605.207,-138.0039C646.2991,-144.876 693.9482,-152.8446 732.4599,-159.2851"/>
<polygon fill="#b8860b" stroke="#b8860b" stroke-width="1.5" points="732.1138,-162.7758 742.5542,-160.9732 733.2685,-155.8716 732.1138,-162.7758"/>
<text text-anchor="start" x="654" y="-156.3" font-family="Times,serif" font-size="14.00" fill="#0a5040"> ε</text>
</g>
<!-- state_10006&#45;&gt;state_10011 -->
<g id="trans_15" class="edge">
<title>state_10006&#45;&gt;state_10011</title>
<path fill="none" stroke="#b8860b" stroke-width="1.5" d="M605.2823,-110.1082C611.272,-109.5051 617.2171,-108.9604 623,-108.5 648.6661,-106.4567 676.4159,-105.1059 702.3439,-104.214"/>
<polygon fill="#b8860b" stroke="#b8860b" stroke-width="1.5" points="702.6825,-107.705 712.5637,-103.8825 702.4555,-100.7086 702.6825,-107.705"/>
<text text-anchor="start" x="623" y="-112.3" font-family="Times,serif" font-size="14.00" fill="#bc1f29"> OptComma</text>
</g>
<!-- state_10009 -->
<g id="state_10009" class="node">
<title>state_10009</title>
<path fill="#f5f5dc" stroke="#b8860b" stroke-width="1.5" d="M852,-55C852,-55 759,-55 759,-55 753,-55 747,-49 747,-43 747,-43 747,-16 747,-16 747,-10 753,-4 759,-4 759,-4 852,-4 852,-4 858,-4 864,-10 864,-16 864,-16 864,-43 864,-43 864,-49 858,-55 852,-55"/>
<path fill="none" stroke="#b8860b" stroke-width="1.5" d="M856,-59C856,-59 755,-59 755,-59 749,-59 743,-53 743,-47 743,-47 743,-12 743,-12 743,-6 749,0 755,0 755,0 856,0 856,0 862,0 868,-6 868,-12 868,-12 868,-47 868,-47 868,-53 862,-59 856,-59"/>
<g id="a_state_10009_title"><a xlink:href="#" xlink:title="state_10009_title">
<text text-anchor="start" x="783" y="-37.1" font-family="Calibri" font-weight="bold" font-size="13.00" fill="#8b4513">Estado </text>
<text text-anchor="start" x="822" y="-37.1" font-family="Calibri" font-weight="bold" font-size="13.00" fill="#8b4513">9</text>
</a>
</g>
<g id="a_state_10009_item_1"><a xlink:href="#" xlink:title="state_10009_item_1">
<text text-anchor="start" x="755.5" y="-16.3" font-family="Times,serif" font-size="14.00" fill="#bc1f29">OptComma </text>
<text text-anchor="start" x="827.5" y="-16.3" font-family="Times,serif" font-size="14.00" fill="#0a5040">→ </text>
<text text-anchor="start" x="846.5" y="-16.3" font-family="Times,serif" font-size="14.00" fill="#f5a70a"> •</text>
</a>
</g>
</g>
<!-- state_10006&#45;&gt;state_10009 -->
<g id="trans_17" class="edge">
<title>state_10006&#45;&gt;state_10009</title>
<path fill="none" stroke="#b8860b" stroke-width="1.5" d="M587.9058,-96.9672C599.6381,-93.0767 611.6342,-89.146 623,-85.5 659.1907,-73.8904 699.5801,-61.4445 733.1438,-51.2413"/>
<polygon fill="#b8860b" stroke="#b8860b" stroke-width="1.5" points="734.3207,-54.5418 742.8731,-48.2882 732.2877,-47.8435 734.3207,-54.5418"/>
<text text-anchor="start" x="654" y="-89.3" font-family="Times,serif" font-size="14.00" fill="#0a5040"> ε</text>
</g>
</g>
</svg>
