<?xml version="1.0" encoding="UTF-8" standalone="no"?>
<!DOCTYPE svg PUBLIC "-//W3C//DTD SVG 1.1//EN"
 "http://www.w3.org/Graphics/SVG/1.1/DTD/svg11.dtd">
<!-- Generated by graphviz version 2.40.1 (20161225.0304)
 -->
<!-- Title: DFA Pages: 1 -->
<svg width="1771pt" height="509pt"
 viewBox="0.00 0.00 1771.00 508.50" xmlns="http://www.w3.org/2000/svg" xmlns:xlink="http://www.w3.org/1999/xlink">
<g id="graph0" class="graph" transform="scale(1 1) rotate(0) translate(4 504.5)">
<title>DFA</title>
<!-- state_2 -->
<g id="state_2" class="node">
<title>state_2</title>
<path fill="#fffff0" stroke="#b8860b" stroke-width="1.5" d="M547,-428.5C547,-428.5 454,-428.5 454,-428.5 448,-428.5 442,-422.5 442,-416.5 442,-416.5 442,-383.5 442,-383.5 442,-377.5 448,-371.5 454,-371.5 454,-371.5 547,-371.5 547,-371.5 553,-371.5 559,-377.5 559,-383.5 559,-383.5 559,-416.5 559,-416.5 559,-422.5 553,-428.5 547,-428.5"/>
<g id="a_state_2_title"><a xlink:href="#" xlink:title="state_2_title">
<text text-anchor="start" x="478" y="-407.6" font-family="Calibri" font-weight="bold" font-size="13.00" fill="#8b4513">Estado </text>
<text text-anchor="start" x="517" y="-407.6" font-family="Calibri" font-weight="bold" font-size="13.00" fill="#8b4513">2</text>
</a>
</g>
<g id="a_state_2_item_1"><a xlink:href="#" xlink:title="state_2_item_1">
<text text-anchor="start" x="453.5" y="-386.8" font-family="Times,serif" font-size="14.00" fill="#bc1f29">List&#39; </text>
<text text-anchor="start" x="481.5" y="-386.8" font-family="Times,serif" font-size="14.00" fill="#0a5040">→ </text>
<text text-anchor="start" x="500.5" y="-386.8" font-family="Times,serif" font-size="14.00" fill="#bc1f29"> List</text>
<text text-anchor="start" x="526.5" y="-386.8" font-family="Times,serif" font-size="14.00" fill="#f5a70a"> •</text>
<text text-anchor="start" x="536.5" y="-386.8" font-family="Times,serif" font-size="14.00" fill="#0a5040"> $</text>
</a>
</g>
</g>
<!-- state_6 -->
<g id="state_6" class="node">
<title>state_6</title>
<path fill="#fffff0" stroke="#b8860b" stroke-width="1.5" d="M1023,-496.5C1023,-496.5 930,-496.5 930,-496.5 924,-496.5 918,-490.5 918,-484.5 918,-484.5 918,-451.5 918,-451.5 918,-445.5 924,-439.5 930,-439.5 930,-439.5 1023,-439.5 1023,-439.5 1029,-439.5 1035,-445.5 1035,-451.5 1035,-451.5 1035,-484.5 1035,-484.5 1035,-490.5 1029,-496.5 1023,-496.5"/>
<path fill="none" stroke="#b8860b" stroke-width="1.5" d="M1027,-500.5C1027,-500.5 926,-500.5 926,-500.5 920,-500.5 914,-494.5 914,-488.5 914,-488.5 914,-447.5 914,-447.5 914,-441.5 920,-435.5 926,-435.5 926,-435.5 1027,-435.5 1027,-435.5 1033,-435.5 1039,-441.5 1039,-447.5 1039,-447.5 1039,-488.5 1039,-488.5 1039,-494.5 1033,-500.5 1027,-500.5"/>
<g id="a_state_6_title"><a xlink:href="#" xlink:title="state_6_title">
<text text-anchor="start" x="954" y="-475.6" font-family="Calibri" font-weight="bold" font-size="13.00" fill="#8b4513">Estado </text>
<text text-anchor="start" x="993" y="-475.6" font-family="Calibri" font-weight="bold" font-size="13.00" fill="#8b4513">6</text>
</a>
</g>
<g id="a_state_6_item_1"><a xlink:href="#" xlink:title="state_6_item_1">
<text text-anchor="start" x="929.5" y="-454.8" font-family="Times,serif" font-size="14.00" fill="#bc1f29">List&#39; </text>
<text text-anchor="start" x="957.5" y="-454.8" font-family="Times,serif" font-size="14.00" fill="#0a5040">→ </text>
<text text-anchor="start" x="976.5" y="-454.8" font-family="Times,serif" font-size="14.00" fill="#bc1f29"> List</text>
<text text-anchor="start" x="1002.5" y="-454.8" font-family="Times,serif" font-size="14.00" fill="#0a5040"> $</text>
<text text-anchor="start" x="1014.5" y="-454.8" font-family="Times,serif" font-size="14.00" fill="#f5a70a"> •</text>
</a>
</g>
</g>
<!-- state_2&#45;&gt;state_6 -->
<g id="trans_5" class="edge">
<title>state_2&#45;&gt;state_6</title>
<path fill="none" stroke="#b8860b" stroke-width="1.5" d="M559.3444,-408.4063C646.3421,-420.8346 809.1458,-444.0923 903.5893,-457.5842"/>
<polygon fill="#b8860b" stroke="#b8860b" stroke-width="1.5" points="903.2393,-461.0696 913.6338,-459.0191 904.2293,-454.14 903.2393,-461.0696"/>
<text text-anchor="start" x="732.5" y="-449.8" font-family="Times,serif" font-size="14.00" fill="#0a5040"> $</text>
</g>
<!-- state_3 -->
<g id="state_3" class="node">
<title>state_3</title>
<path fill="#fffff0" stroke="#b8860b" stroke-width="1.5" d="M619,-228.5C619,-228.5 382,-228.5 382,-228.5 376,-228.5 370,-222.5 370,-216.5 370,-216.5 370,-141.5 370,-141.5 370,-135.5 376,-129.5 382,-129.5 382,-129.5 619,-129.5 619,-129.5 625,-129.5 631,-135.5 631,-141.5 631,-141.5 631,-216.5 631,-216.5 631,-222.5 625,-228.5 619,-228.5"/>
<g id="a_state_3_title"><a xlink:href="#" xlink:title="state_3_title">
<text text-anchor="start" x="478" y="-207.6" font-family="Calibri" font-weight="bold" font-size="13.00" fill="#8b4513">Estado </text>
<text text-anchor="start" x="517" y="-207.6" font-family="Calibri" font-weight="bold" font-size="13.00" fill="#8b4513">3</text>
</a>
</g>
<g id="a_state_3_item_1"><a xlink:href="#" xlink:title="state_3_item_1">
<text text-anchor="start" x="381.5" y="-186.8" font-family="Times,serif" font-size="14.00" fill="#bc1f29">List </text>
<text text-anchor="start" x="407.5" y="-186.8" font-family="Times,serif" font-size="14.00" fill="#0a5040">→ </text>
<text text-anchor="start" x="426.5" y="-186.8" font-family="Times,serif" font-size="14.00" fill="#bc1f29"> NoCommas</text>
<text text-anchor="start" x="499.5" y="-186.8" font-family="Times,serif" font-size="14.00" fill="#f5a70a"> •</text>
<text text-anchor="start" x="509.5" y="-186.8" font-family="Times,serif" font-size="14.00" fill="#bc1f29"> IdList</text>
<text text-anchor="start" x="547.5" y="-186.8" font-family="Times,serif" font-size="14.00" fill="#bc1f29"> NoCommas</text>
</a>
</g>
<g id="a_state_3_item_2"><a xlink:href="#" xlink:title="state_3_item_2">
<text text-anchor="start" x="381.5" y="-165.8" font-family="Times,serif" font-size="14.00" fill="#bc1f29">IdList </text>
<text text-anchor="start" x="419.5" y="-165.8" font-family="Times,serif" font-size="14.00" fill="#0a5040">→ </text>
<text text-anchor="start" x="438.5" y="-165.8" font-family="Times,serif" font-size="14.00" fill="#f5a70a"> •</text>
<text text-anchor="start" x="448.5" y="-165.8" font-family="Times,serif" font-size="14.00" fill="#0a5040"> id</text>
</a>
</g>
<g id="a_state_3_item_3"><a xlink:href="#" xlink:title="state_3_item_3">
<text text-anchor="start" x="381.5" y="-144.8" font-family="Times,serif" font-size="14.00" fill="#bc1f29">IdList </text>
<text text-anchor="start" x="419.5" y="-144.8" font-family="Times,serif" font-size="14.00" fill="#0a5040">→ </text>
<text text-anchor="start" x="438.5" y="-144.8" font-family="Times,serif" font-size="14.00" fill="#f5a70a"> •</text>
<text text-anchor="start" x="448.5" y="-144.8" font-family="Times,serif" font-size="14.00" fill="#bc1f29"> IdList</text>
<text text-anchor="start" x="486.5" y="-144.8" font-family="Times,serif" font-size="14.00" fill="#bc1f29"> OneComma</text>
<text text-anchor="start" x="560.5" y="-144.8" font-family="Times,serif" font-size="14.00" fill="#0a5040"> id</text>
</a>
</g>
</g>
<!-- state_8 -->
<g id="state_8" class="node">
<title>state_8</title>
<path fill="#fffff0" stroke="#b8860b" stroke-width="1.5" d="M1017,-190.5C1017,-190.5 936,-190.5 936,-190.5 930,-190.5 924,-184.5 924,-178.5 924,-178.5 924,-145.5 924,-145.5 924,-139.5 930,-133.5 936,-133.5 936,-133.5 1017,-133.5 1017,-133.5 1023,-133.5 1029,-139.5 1029,-145.5 1029,-145.5 1029,-178.5 1029,-178.5 1029,-184.5 1023,-190.5 1017,-190.5"/>
<path fill="none" stroke="#b8860b" stroke-width="1.5" d="M1021,-194.5C1021,-194.5 932,-194.5 932,-194.5 926,-194.5 920,-188.5 920,-182.5 920,-182.5 920,-141.5 920,-141.5 920,-135.5 926,-129.5 932,-129.5 932,-129.5 1021,-129.5 1021,-129.5 1027,-129.5 1033,-135.5 1033,-141.5 1033,-141.5 1033,-182.5 1033,-182.5 1033,-188.5 1027,-194.5 1021,-194.5"/>
<g id="a_state_8_title"><a xlink:href="#" xlink:title="state_8_title">
<text text-anchor="start" x="954" y="-169.6" font-family="Calibri" font-weight="bold" font-size="13.00" fill="#8b4513">Estado </text>
<text text-anchor="start" x="993" y="-169.6" font-family="Calibri" font-weight="bold" font-size="13.00" fill="#8b4513">8</text>
</a>
</g>
<g id="a_state_8_item_1"><a xlink:href="#" xlink:title="state_8_item_1">
<text text-anchor="start" x="935.5" y="-148.8" font-family="Times,serif" font-size="14.00" fill="#bc1f29">IdList </text>
<text text-anchor="start" x="973.5" y="-148.8" font-family="Times,serif" font-size="14.00" fill="#0a5040">→ </text>
<text text-anchor="start" x="992.5" y="-148.8" font-family="Times,serif" font-size="14.00" fill="#0a5040"> id</text>
<text text-anchor="start" x="1008.5" y="-148.8" font-family="Times,serif" font-size="14.00" fill="#f5a70a"> •</text>
</a>
</g>
</g>
<!-- state_3&#45;&gt;state_8 -->
<g id="trans_7" class="edge">
<title>state_3&#45;&gt;state_8</title>
<path fill="none" stroke="#b8860b" stroke-width="1.5" d="M631.1987,-174.3322C721.4379,-171.1094 837.706,-166.9569 909.6602,-164.3871"/>
<polygon fill="#b8860b" stroke="#b8860b" stroke-width="1.5" points="910.0778,-167.8745 919.9464,-164.0198 909.8279,-160.879 910.0778,-167.8745"/>
<text text-anchor="start" x="730.5" y="-176.8" font-family="Times,serif" font-size="14.00" fill="#0a5040"> id</text>
</g>
<!-- state_7 -->
<g id="state_7" class="node">
<title>state_7</title>
<path fill="#f5f5dc" stroke="#b8860b" stroke-width="1.5" stroke-dasharray="5,2" d="M1095,-417C1095,-417 858,-417 858,-417 852,-417 846,-411 846,-405 846,-405 846,-225 846,-225 846,-219 852,-213 858,-213 858,-213 1095,-213 1095,-213 1101,-213 1107,-219 1107,-225 1107,-225 1107,-405 1107,-405 1107,-411 1101,-417 1095,-417"/>
<g id="a_state_7_title"><a xlink:href="#" xlink:title="state_7_title">
<text text-anchor="start" x="954" y="-396.6" font-family="Calibri" font-weight="bold" font-size="13.00" fill="#8b4513">Estado </text>
<text text-anchor="start" x="993" y="-396.6" font-family="Calibri" font-weight="bold" font-size="13.00" fill="#8b4513">7</text>
</a>
</g>
<g id="a_state_7_item_1"><a xlink:href="#" xlink:title="state_7_item_1">
<text text-anchor="start" x="857.5" y="-375.8" font-family="Times,serif" font-size="14.00" fill="#bc1f29">List </text>
<text text-anchor="start" x="883.5" y="-375.8" font-family="Times,serif" font-size="14.00" fill="#0a5040">→ </text>
<text text-anchor="start" x="902.5" y="-375.8" font-family="Times,serif" font-size="14.00" fill="#bc1f29"> NoCommas</text>
<text text-anchor="start" x="975.5" y="-375.8" font-family="Times,serif" font-size="14.00" fill="#bc1f29"> IdList</text>
<text text-anchor="start" x="1013.5" y="-375.8" font-family="Times,serif" font-size="14.00" fill="#f5a70a"> •</text>
<text text-anchor="start" x="1023.5" y="-375.8" font-family="Times,serif" font-size="14.00" fill="#bc1f29"> NoCommas</text>
</a>
</g>
<g id="a_state_7_item_2"><a xlink:href="#" xlink:title="state_7_item_2">
<text text-anchor="start" x="857.5" y="-354.8" font-family="Times,serif" font-size="14.00" fill="#bc1f29">IdList </text>
<text text-anchor="start" x="895.5" y="-354.8" font-family="Times,serif" font-size="14.00" fill="#0a5040">→ </text>
<text text-anchor="start" x="914.5" y="-354.8" font-family="Times,serif" font-size="14.00" fill="#bc1f29"> IdList</text>
<text text-anchor="start" x="952.5" y="-354.8" font-family="Times,serif" font-size="14.00" fill="#f5a70a"> •</text>
<text text-anchor="start" x="962.5" y="-354.8" font-family="Times,serif" font-size="14.00" fill="#bc1f29"> OneComma</text>
<text text-anchor="start" x="1036.5" y="-354.8" font-family="Times,serif" font-size="14.00" fill="#0a5040"> id</text>
</a>
</g>
<g id="a_state_7_item_3"><a xlink:href="#" xlink:title="state_7_item_3">
<text text-anchor="start" x="857.5" y="-333.8" font-family="Times,serif" font-size="14.00" fill="#bc1f29">NoCommas </text>
<text text-anchor="start" x="930.5" y="-333.8" font-family="Times,serif" font-size="14.00" fill="#0a5040">→ </text>
<text text-anchor="start" x="949.5" y="-333.8" font-family="Times,serif" font-size="14.00" fill="#f5a70a"> •</text>
<text text-anchor="start" x="959.5" y="-333.8" font-family="Times,serif" font-size="14.00" fill="#bc1f29"> Commas</text>
</a>
</g>
<g id="a_state_7_item_4"><a xlink:href="#" xlink:title="state_7_item_4">
<text text-anchor="start" x="857.5" y="-312.8" font-family="Times,serif" font-size="14.00" fill="#bc1f29">NoCommas </text>
<text text-anchor="start" x="930.5" y="-312.8" font-family="Times,serif" font-size="14.00" fill="#0a5040">→ </text>
<text text-anchor="start" x="949.5" y="-312.8" font-family="Times,serif" font-size="14.00" fill="#f5a70a"> •</text>
</a>
</g>
<g id="a_state_7_item_5"><a xlink:href="#" xlink:title="state_7_item_5">
<text text-anchor="start" x="857.5" y="-291.8" font-family="Times,serif" font-size="14.00" fill="#bc1f29">OneComma </text>
<text text-anchor="start" x="931.5" y="-291.8" font-family="Times,serif" font-size="14.00" fill="#0a5040">→ </text>
<text text-anchor="start" x="950.5" y="-291.8" font-family="Times,serif" font-size="14.00" fill="#f5a70a"> •</text>
<text text-anchor="start" x="960.5" y="-291.8" font-family="Times,serif" font-size="14.00" fill="#bc1f29"> Commas</text>
</a>
</g>
<g id="a_state_7_item_6"><a xlink:href="#" xlink:title="state_7_item_6">
<text text-anchor="start" x="857.5" y="-270.8" font-family="Times,serif" font-size="14.00" fill="#bc1f29">OneComma </text>
<text text-anchor="start" x="931.5" y="-270.8" font-family="Times,serif" font-size="14.00" fill="#0a5040">→ </text>
<text text-anchor="start" x="950.5" y="-270.8" font-family="Times,serif" font-size="14.00" fill="#f5a70a"> •</text>
</a>
</g>
<g id="a_state_7_item_7"><a xlink:href="#" xlink:title="state_7_item_7">
<text text-anchor="start" x="857.5" y="-249.8" font-family="Times,serif" font-size="14.00" fill="#bc1f29">Commas </text>
<text text-anchor="start" x="912.5" y="-249.8" font-family="Times,serif" font-size="14.00" fill="#0a5040">→ </text>
<text text-anchor="start" x="931.5" y="-249.8" font-family="Times,serif" font-size="14.00" fill="#f5a70a"> •</text>
<text text-anchor="start" x="941.5" y="-249.8" font-family="Times,serif" font-size="14.00" fill="#bc1f29"> Commas</text>
<text text-anchor="start" x="996.5" y="-249.8" font-family="Times,serif" font-size="14.00" fill="#0a5040"> ,</text>
</a>
</g>
<g id="a_state_7_item_8"><a xlink:href="#" xlink:title="state_7_item_8">
<text text-anchor="start" x="857.5" y="-228.8" font-family="Times,serif" font-size="14.00" fill="#bc1f29">Commas </text>
<text text-anchor="start" x="912.5" y="-228.8" font-family="Times,serif" font-size="14.00" fill="#0a5040">→ </text>
<text text-anchor="start" x="931.5" y="-228.8" font-family="Times,serif" font-size="14.00" fill="#f5a70a"> •</text>
<text text-anchor="start" x="941.5" y="-228.8" font-family="Times,serif" font-size="14.00" fill="#0a5040"> ,</text>
</a>
</g>
</g>
<!-- state_3&#45;&gt;state_7 -->
<g id="trans_6" class="edge">
<title>state_3&#45;&gt;state_7</title>
<path fill="none" stroke="#b8860b" stroke-width="1.5" d="M631.1987,-216.3425C694.6817,-234.4805 771.0467,-256.299 835.8025,-274.8007"/>
<polygon fill="#b8860b" stroke="#b8860b" stroke-width="1.5" points="835.1033,-278.2409 845.6801,-277.6229 837.0264,-271.5103 835.1033,-278.2409"/>
<text text-anchor="start" x="719.5" y="-274.8" font-family="Times,serif" font-size="14.00" fill="#bc1f29"> IdList</text>
</g>
<!-- state_11 -->
<g id="state_11" class="node">
<title>state_11</title>
<path fill="#fffff0" stroke="#b8860b" stroke-width="1.5" d="M1448,-340.5C1448,-340.5 1255,-340.5 1255,-340.5 1249,-340.5 1243,-334.5 1243,-328.5 1243,-328.5 1243,-295.5 1243,-295.5 1243,-289.5 1249,-283.5 1255,-283.5 1255,-283.5 1448,-283.5 1448,-283.5 1454,-283.5 1460,-289.5 1460,-295.5 1460,-295.5 1460,-328.5 1460,-328.5 1460,-334.5 1454,-340.5 1448,-340.5"/>
<g id="a_state_11_title"><a xlink:href="#" xlink:title="state_11_title">
<text text-anchor="start" x="1325.5" y="-319.6" font-family="Calibri" font-weight="bold" font-size="13.00" fill="#8b4513">Estado </text>
<text text-anchor="start" x="1364.5" y="-319.6" font-family="Calibri" font-weight="bold" font-size="13.00" fill="#8b4513">11</text>
</a>
</g>
<g id="a_state_11_item_1"><a xlink:href="#" xlink:title="state_11_item_1">
<text text-anchor="start" x="1254.5" y="-298.8" font-family="Times,serif" font-size="14.00" fill="#bc1f29">IdList </text>
<text text-anchor="start" x="1292.5" y="-298.8" font-family="Times,serif" font-size="14.00" fill="#0a5040">→ </text>
<text text-anchor="start" x="1311.5" y="-298.8" font-family="Times,serif" font-size="14.00" fill="#bc1f29"> IdList</text>
<text text-anchor="start" x="1349.5" y="-298.8" font-family="Times,serif" font-size="14.00" fill="#bc1f29"> OneComma</text>
<text text-anchor="start" x="1423.5" y="-298.8" font-family="Times,serif" font-size="14.00" fill="#f5a70a"> •</text>
<text text-anchor="start" x="1433.5" y="-298.8" font-family="Times,serif" font-size="14.00" fill="#0a5040"> id</text>
</a>
</g>
</g>
<!-- state_13 -->
<g id="state_13" class="node">
<title>state_13</title>
<path fill="#fffff0" stroke="#b8860b" stroke-width="1.5" d="M1747,-340.5C1747,-340.5 1554,-340.5 1554,-340.5 1548,-340.5 1542,-334.5 1542,-328.5 1542,-328.5 1542,-295.5 1542,-295.5 1542,-289.5 1548,-283.5 1554,-283.5 1554,-283.5 1747,-283.5 1747,-283.5 1753,-283.5 1759,-289.5 1759,-295.5 1759,-295.5 1759,-328.5 1759,-328.5 1759,-334.5 1753,-340.5 1747,-340.5"/>
<path fill="none" stroke="#b8860b" stroke-width="1.5" d="M1751,-344.5C1751,-344.5 1550,-344.5 1550,-344.5 1544,-344.5 1538,-338.5 1538,-332.5 1538,-332.5 1538,-291.5 1538,-291.5 1538,-285.5 1544,-279.5 1550,-279.5 1550,-279.5 1751,-279.5 1751,-279.5 1757,-279.5 1763,-285.5 1763,-291.5 1763,-291.5 1763,-332.5 1763,-332.5 1763,-338.5 1757,-344.5 1751,-344.5"/>
<g id="a_state_13_title"><a xlink:href="#" xlink:title="state_13_title">
<text text-anchor="start" x="1624.5" y="-319.6" font-family="Calibri" font-weight="bold" font-size="13.00" fill="#8b4513">Estado </text>
<text text-anchor="start" x="1663.5" y="-319.6" font-family="Calibri" font-weight="bold" font-size="13.00" fill="#8b4513">13</text>
</a>
</g>
<g id="a_state_13_item_1"><a xlink:href="#" xlink:title="state_13_item_1">
<text text-anchor="start" x="1553.5" y="-298.8" font-family="Times,serif" font-size="14.00" fill="#bc1f29">IdList </text>
<text text-anchor="start" x="1591.5" y="-298.8" font-family="Times,serif" font-size="14.00" fill="#0a5040">→ </text>
<text text-anchor="start" x="1610.5" y="-298.8" font-family="Times,serif" font-size="14.00" fill="#bc1f29"> IdList</text>
<text text-anchor="start" x="1648.5" y="-298.8" font-family="Times,serif" font-size="14.00" fill="#bc1f29"> OneComma</text>
<text text-anchor="start" x="1722.5" y="-298.8" font-family="Times,serif" font-size="14.00" fill="#0a5040"> id</text>
<text text-anchor="start" x="1738.5" y="-298.8" font-family="Times,serif" font-size="14.00" fill="#f5a70a"> •</text>
</a>
</g>
</g>
<!-- state_11&#45;&gt;state_13 -->
<g id="trans_13" class="edge">
<title>state_11&#45;&gt;state_13</title>
<path fill="none" stroke="#b8860b" stroke-width="1.5" d="M1460.2917,-312C1482.1563,-312 1505.2785,-312 1527.5849,-312"/>
<polygon fill="#b8860b" stroke="#b8860b" stroke-width="1.5" points="1527.7689,-315.5001 1537.7688,-312 1527.7688,-308.5001 1527.7689,-315.5001"/>
<text text-anchor="start" x="1504" y="-315.8" font-family="Times,serif" font-size="14.00" fill="#0a5040"> id</text>
</g>
<!-- state_5 -->
<g id="state_5" class="node">
<title>state_5</title>
<path fill="#fffff0" stroke="#b8860b" stroke-width="1.5" d="M1396.5,-138.5C1396.5,-138.5 1306.5,-138.5 1306.5,-138.5 1300.5,-138.5 1294.5,-132.5 1294.5,-126.5 1294.5,-126.5 1294.5,-93.5 1294.5,-93.5 1294.5,-87.5 1300.5,-81.5 1306.5,-81.5 1306.5,-81.5 1396.5,-81.5 1396.5,-81.5 1402.5,-81.5 1408.5,-87.5 1408.5,-93.5 1408.5,-93.5 1408.5,-126.5 1408.5,-126.5 1408.5,-132.5 1402.5,-138.5 1396.5,-138.5"/>
<path fill="none" stroke="#b8860b" stroke-width="1.5" d="M1400.5,-142.5C1400.5,-142.5 1302.5,-142.5 1302.5,-142.5 1296.5,-142.5 1290.5,-136.5 1290.5,-130.5 1290.5,-130.5 1290.5,-89.5 1290.5,-89.5 1290.5,-83.5 1296.5,-77.5 1302.5,-77.5 1302.5,-77.5 1400.5,-77.5 1400.5,-77.5 1406.5,-77.5 1412.5,-83.5 1412.5,-89.5 1412.5,-89.5 1412.5,-130.5 1412.5,-130.5 1412.5,-136.5 1406.5,-142.5 1400.5,-142.5"/>
<g id="a_state_5_title"><a xlink:href="#" xlink:title="state_5_title">
<text text-anchor="start" x="1328.5" y="-117.6" font-family="Calibri" font-weight="bold" font-size="13.00" fill="#8b4513">Estado </text>
<text text-anchor="start" x="1367.5" y="-117.6" font-family="Calibri" font-weight="bold" font-size="13.00" fill="#8b4513">5</text>
</a>
</g>
<g id="a_state_5_item_1"><a xlink:href="#" xlink:title="state_5_item_1">
<text text-anchor="start" x="1305.5" y="-96.8" font-family="Times,serif" font-size="14.00" fill="#bc1f29">Commas </text>
<text text-anchor="start" x="1360.5" y="-96.8" font-family="Times,serif" font-size="14.00" fill="#0a5040">→ </text>
<text text-anchor="start" x="1379.5" y="-96.8" font-family="Times,serif" font-size="14.00" fill="#0a5040"> ,</text>
<text text-anchor="start" x="1387.5" y="-96.8" font-family="Times,serif" font-size="14.00" fill="#f5a70a"> •</text>
</a>
</g>
</g>
<!-- state_9 -->
<g id="state_9" class="node">
<title>state_9</title>
<path fill="#fffff0" stroke="#b8860b" stroke-width="1.5" d="M1723,-130.5C1723,-130.5 1578,-130.5 1578,-130.5 1572,-130.5 1566,-124.5 1566,-118.5 1566,-118.5 1566,-85.5 1566,-85.5 1566,-79.5 1572,-73.5 1578,-73.5 1578,-73.5 1723,-73.5 1723,-73.5 1729,-73.5 1735,-79.5 1735,-85.5 1735,-85.5 1735,-118.5 1735,-118.5 1735,-124.5 1729,-130.5 1723,-130.5"/>
<path fill="none" stroke="#b8860b" stroke-width="1.5" d="M1727,-134.5C1727,-134.5 1574,-134.5 1574,-134.5 1568,-134.5 1562,-128.5 1562,-122.5 1562,-122.5 1562,-81.5 1562,-81.5 1562,-75.5 1568,-69.5 1574,-69.5 1574,-69.5 1727,-69.5 1727,-69.5 1733,-69.5 1739,-75.5 1739,-81.5 1739,-81.5 1739,-122.5 1739,-122.5 1739,-128.5 1733,-134.5 1727,-134.5"/>
<g id="a_state_9_title"><a xlink:href="#" xlink:title="state_9_title">
<text text-anchor="start" x="1628" y="-109.6" font-family="Calibri" font-weight="bold" font-size="13.00" fill="#8b4513">Estado </text>
<text text-anchor="start" x="1667" y="-109.6" font-family="Calibri" font-weight="bold" font-size="13.00" fill="#8b4513">9</text>
</a>
</g>
<g id="a_state_9_item_1"><a xlink:href="#" xlink:title="state_9_item_1">
<text text-anchor="start" x="1577.5" y="-88.8" font-family="Times,serif" font-size="14.00" fill="#bc1f29">Commas </text>
<text text-anchor="start" x="1632.5" y="-88.8" font-family="Times,serif" font-size="14.00" fill="#0a5040">→ </text>
<text text-anchor="start" x="1651.5" y="-88.8" font-family="Times,serif" font-size="14.00" fill="#bc1f29"> Commas</text>
<text text-anchor="start" x="1706.5" y="-88.8" font-family="Times,serif" font-size="14.00" fill="#0a5040"> ,</text>
<text text-anchor="start" x="1714.5" y="-88.8" font-family="Times,serif" font-size="14.00" fill="#f5a70a"> •</text>
</a>
</g>
</g>
<!-- state_10 -->
<g id="state_10" class="node">
<title>state_10</title>
<path fill="#fffff0" stroke="#b8860b" stroke-width="1.5" d="M1470,-419.5C1470,-419.5 1233,-419.5 1233,-419.5 1227,-419.5 1221,-413.5 1221,-407.5 1221,-407.5 1221,-374.5 1221,-374.5 1221,-368.5 1227,-362.5 1233,-362.5 1233,-362.5 1470,-362.5 1470,-362.5 1476,-362.5 1482,-368.5 1482,-374.5 1482,-374.5 1482,-407.5 1482,-407.5 1482,-413.5 1476,-419.5 1470,-419.5"/>
<path fill="none" stroke="#b8860b" stroke-width="1.5" d="M1474,-423.5C1474,-423.5 1229,-423.5 1229,-423.5 1223,-423.5 1217,-417.5 1217,-411.5 1217,-411.5 1217,-370.5 1217,-370.5 1217,-364.5 1223,-358.5 1229,-358.5 1229,-358.5 1474,-358.5 1474,-358.5 1480,-358.5 1486,-364.5 1486,-370.5 1486,-370.5 1486,-411.5 1486,-411.5 1486,-417.5 1480,-423.5 1474,-423.5"/>
<g id="a_state_10_title"><a xlink:href="#" xlink:title="state_10_title">
<text text-anchor="start" x="1325.5" y="-398.6" font-family="Calibri" font-weight="bold" font-size="13.00" fill="#8b4513">Estado </text>
<text text-anchor="start" x="1364.5" y="-398.6" font-family="Calibri" font-weight="bold" font-size="13.00" fill="#8b4513">10</text>
</a>
</g>
<g id="a_state_10_item_1"><a xlink:href="#" xlink:title="state_10_item_1">
<text text-anchor="start" x="1232.5" y="-377.8" font-family="Times,serif" font-size="14.00" fill="#bc1f29">List </text>
<text text-anchor="start" x="1258.5" y="-377.8" font-family="Times,serif" font-size="14.00" fill="#0a5040">→ </text>
<text text-anchor="start" x="1277.5" y="-377.8" font-family="Times,serif" font-size="14.00" fill="#bc1f29"> NoCommas</text>
<text text-anchor="start" x="1350.5" y="-377.8" font-family="Times,serif" font-size="14.00" fill="#bc1f29"> IdList</text>
<text text-anchor="start" x="1388.5" y="-377.8" font-family="Times,serif" font-size="14.00" fill="#bc1f29"> NoCommas</text>
<text text-anchor="start" x="1461.5" y="-377.8" font-family="Times,serif" font-size="14.00" fill="#f5a70a"> •</text>
</a>
</g>
</g>
<!-- state_1 -->
<g id="state_1" class="node">
<title>state_1</title>
<path fill="#f5f5dc" stroke="#b8860b" stroke-width="1.5" stroke-dasharray="5,2" d="M249,-198C249,-198 12,-198 12,-198 6,-198 0,-192 0,-186 0,-186 0,-48 0,-48 0,-42 6,-36 12,-36 12,-36 249,-36 249,-36 255,-36 261,-42 261,-48 261,-48 261,-186 261,-186 261,-192 255,-198 249,-198"/>
<g id="a_state_1_title"><a xlink:href="#" xlink:title="state_1_title">
<text text-anchor="start" x="108" y="-177.6" font-family="Calibri" font-weight="bold" font-size="13.00" fill="#8b4513">Estado </text>
<text text-anchor="start" x="147" y="-177.6" font-family="Calibri" font-weight="bold" font-size="13.00" fill="#8b4513">1</text>
</a>
</g>
<g id="a_state_1_item_1"><a xlink:href="#" xlink:title="state_1_item_1">
<text text-anchor="start" x="11.5" y="-156.8" font-family="Times,serif" font-size="14.00" fill="#bc1f29">List&#39; </text>
<text text-anchor="start" x="39.5" y="-156.8" font-family="Times,serif" font-size="14.00" fill="#0a5040">→ </text>
<text text-anchor="start" x="58.5" y="-156.8" font-family="Times,serif" font-size="14.00" fill="#f5a70a"> •</text>
<text text-anchor="start" x="68.5" y="-156.8" font-family="Times,serif" font-size="14.00" fill="#bc1f29"> List</text>
<text text-anchor="start" x="94.5" y="-156.8" font-family="Times,serif" font-size="14.00" fill="#0a5040"> $</text>
</a>
</g>
<g id="a_state_1_item_2"><a xlink:href="#" xlink:title="state_1_item_2">
<text text-anchor="start" x="11.5" y="-135.8" font-family="Times,serif" font-size="14.00" fill="#bc1f29">List </text>
<text text-anchor="start" x="37.5" y="-135.8" font-family="Times,serif" font-size="14.00" fill="#0a5040">→ </text>
<text text-anchor="start" x="56.5" y="-135.8" font-family="Times,serif" font-size="14.00" fill="#f5a70a"> •</text>
<text text-anchor="start" x="66.5" y="-135.8" font-family="Times,serif" font-size="14.00" fill="#bc1f29"> NoCommas</text>
<text text-anchor="start" x="139.5" y="-135.8" font-family="Times,serif" font-size="14.00" fill="#bc1f29"> IdList</text>
<text text-anchor="start" x="177.5" y="-135.8" font-family="Times,serif" font-size="14.00" fill="#bc1f29"> NoCommas</text>
</a>
</g>
<g id="a_state_1_item_3"><a xlink:href="#" xlink:title="state_1_item_3">
<text text-anchor="start" x="11.5" y="-114.8" font-family="Times,serif" font-size="14.00" fill="#bc1f29">NoCommas </text>
<text text-anchor="start" x="84.5" y="-114.8" font-family="Times,serif" font-size="14.00" fill="#0a5040">→ </text>
<text text-anchor="start" x="103.5" y="-114.8" font-family="Times,serif" font-size="14.00" fill="#f5a70a"> •</text>
<text text-anchor="start" x="113.5" y="-114.8" font-family="Times,serif" font-size="14.00" fill="#bc1f29"> Commas</text>
</a>
</g>
<g id="a_state_1_item_4"><a xlink:href="#" xlink:title="state_1_item_4">
<text text-anchor="start" x="11.5" y="-93.8" font-family="Times,serif" font-size="14.00" fill="#bc1f29">NoCommas </text>
<text text-anchor="start" x="84.5" y="-93.8" font-family="Times,serif" font-size="14.00" fill="#0a5040">→ </text>
<text text-anchor="start" x="103.5" y="-93.8" font-family="Times,serif" font-size="14.00" fill="#f5a70a"> •</text>
</a>
</g>
<g id="a_state_1_item_5"><a xlink:href="#" xlink:title="state_1_item_5">
<text text-anchor="start" x="11.5" y="-72.8" font-family="Times,serif" font-size="14.00" fill="#bc1f29">Commas </text>
<text text-anchor="start" x="66.5" y="-72.8" font-family="Times,serif" font-size="14.00" fill="#0a5040">→ </text>
<text text-anchor="start" x="85.5" y="-72.8" font-family="Times,serif" font-size="14.00" fill="#f5a70a"> •</text>
<text text-anchor="start" x="95.5" y="-72.8" font-family="Times,serif" font-size="14.00" fill="#bc1f29"> Commas</text>
<text text-anchor="start" x="150.5" y="-72.8" font-family="Times,serif" font-size="14.00" fill="#0a5040"> ,</text>
</a>
</g>
<g id="a_state_1_item_6"><a xlink:href="#" xlink:title="state_1_item_6">
<text text-anchor="start" x="11.5" y="-51.8" font-family="Times,serif" font-size="14.00" fill="#bc1f29">Commas </text>
<text text-anchor="start" x="66.5" y="-51.8" font-family="Times,serif" font-size="14.00" fill="#0a5040">→ </text>
<text text-anchor="start" x="85.5" y="-51.8" font-family="Times,serif" font-size="14.00" fill="#f5a70a"> •</text>
<text text-anchor="start" x="95.5" y="-51.8" font-family="Times,serif" font-size="14.00" fill="#0a5040"> ,</text>
</a>
</g>
</g>
<!-- state_1&#45;&gt;state_2 -->
<g id="trans_3" class="edge">
<title>state_1&#45;&gt;state_2</title>
<path fill="none" stroke="#b8860b" stroke-width="1.5" d="M236.5272,-198.0964C308.8367,-253.4034 400.9622,-323.8671 455.0646,-365.248"/>
<polygon fill="#b8860b" stroke="#b8860b" stroke-width="1.5" points="453.0188,-368.0897 463.0881,-371.385 457.2715,-362.5296 453.0188,-368.0897"/>
<text text-anchor="start" x="302.5" y="-286.8" font-family="Times,serif" font-size="14.00" fill="#bc1f29"> List</text>
</g>
<!-- state_1&#45;&gt;state_3 -->
<g id="trans_4" class="edge">
<title>state_1&#45;&gt;state_3</title>
<path fill="none" stroke="#b8860b" stroke-width="1.5" d="M261.2085,-138.9025C293.1549,-144.2557 327.4711,-150.006 359.8597,-155.4332"/>
<polygon fill="#b8860b" stroke="#b8860b" stroke-width="1.5" points="359.4037,-158.9056 369.8447,-157.1064 360.5606,-152.0018 359.4037,-158.9056"/>
<text text-anchor="start" x="279" y="-156.8" font-family="Times,serif" font-size="14.00" fill="#bc1f29"> NoCommas</text>
</g>
<!-- state_1&#45;&gt;state_5 -->
<g id="trans_2" class="edge">
<title>state_1&#45;&gt;state_5</title>
<path fill="none" stroke="#b8860b" stroke-width="1.5" d="M261.1684,-116.2509C518.1619,-114.7775 1081.6095,-111.5473 1280.3687,-110.4078"/>
<polygon fill="#b8860b" stroke="#b8860b" stroke-width="1.5" points="1280.4221,-113.9076 1290.4019,-110.3503 1280.3819,-106.9078 1280.4221,-113.9076"/>
<text text-anchor="start" x="734.5" y="-116.8" font-family="Times,serif" font-size="14.00" fill="#0a5040"> ,</text>
</g>
<!-- state_4 -->
<g id="state_4" class="node">
<title>state_4</title>
<path fill="#f5f5dc" stroke="#b8860b" stroke-width="1.5" stroke-dasharray="5,2" d="M816,-78C816,-78 661,-78 661,-78 655,-78 649,-72 649,-66 649,-66 649,-12 649,-12 649,-6 655,0 661,0 661,0 816,0 816,0 822,0 828,-6 828,-12 828,-12 828,-66 828,-66 828,-72 822,-78 816,-78"/>
<g id="a_state_4_title"><a xlink:href="#" xlink:title="state_4_title">
<text text-anchor="start" x="716" y="-57.6" font-family="Calibri" font-weight="bold" font-size="13.00" fill="#8b4513">Estado </text>
<text text-anchor="start" x="755" y="-57.6" font-family="Calibri" font-weight="bold" font-size="13.00" fill="#8b4513">4</text>
</a>
</g>
<g id="a_state_4_item_1"><a xlink:href="#" xlink:title="state_4_item_1">
<text text-anchor="start" x="660.5" y="-36.8" font-family="Times,serif" font-size="14.00" fill="#bc1f29">NoCommas </text>
<text text-anchor="start" x="733.5" y="-36.8" font-family="Times,serif" font-size="14.00" fill="#0a5040">→ </text>
<text text-anchor="start" x="752.5" y="-36.8" font-family="Times,serif" font-size="14.00" fill="#bc1f29"> Commas</text>
<text text-anchor="start" x="807.5" y="-36.8" font-family="Times,serif" font-size="14.00" fill="#f5a70a"> •</text>
</a>
</g>
<g id="a_state_4_item_2"><a xlink:href="#" xlink:title="state_4_item_2">
<text text-anchor="start" x="660.5" y="-15.8" font-family="Times,serif" font-size="14.00" fill="#bc1f29">Commas </text>
<text text-anchor="start" x="715.5" y="-15.8" font-family="Times,serif" font-size="14.00" fill="#0a5040">→ </text>
<text text-anchor="start" x="734.5" y="-15.8" font-family="Times,serif" font-size="14.00" fill="#bc1f29"> Commas</text>
<text text-anchor="start" x="789.5" y="-15.8" font-family="Times,serif" font-size="14.00" fill="#f5a70a"> •</text>
<text text-anchor="start" x="799.5" y="-15.8" font-family="Times,serif" font-size="14.00" fill="#0a5040"> ,</text>
</a>
</g>
</g>
<!-- state_1&#45;&gt;state_4 -->
<g id="trans_1" class="edge">
<title>state_1&#45;&gt;state_4</title>
<path fill="none" stroke="#b8860b" stroke-width="1.5" d="M261.2912,-75.6427C267.2496,-74.3036 273.1723,-73.0783 279,-72 401.5461,-49.3248 545.1505,-42.0273 638.7752,-39.7882"/>
<polygon fill="#b8860b" stroke="#b8860b" stroke-width="1.5" points="638.8881,-43.2867 648.807,-39.5631 638.731,-36.2884 638.8881,-43.2867"/>
<text text-anchor="start" x="288" y="-75.8" font-family="Times,serif" font-size="14.00" fill="#bc1f29"> Commas</text>
</g>
<!-- state_4&#45;&gt;state_9 -->
<g id="trans_8" class="edge">
<title>state_4&#45;&gt;state_9</title>
<path fill="none" stroke="#b8860b" stroke-width="1.5" d="M828.0548,-37.7182C968.7118,-36.7736 1249.7583,-39.2033 1486,-68 1507.4636,-70.6163 1530.2933,-74.5692 1551.8972,-78.8649"/>
<polygon fill="#b8860b" stroke="#b8860b" stroke-width="1.5" points="1551.2315,-82.3011 1561.7278,-80.8592 1552.6233,-75.4408 1551.2315,-82.3011"/>
<text text-anchor="start" x="1158" y="-48.8" font-family="Times,serif" font-size="14.00" fill="#0a5040"> ,</text>
</g>
<!-- state_7&#45;&gt;state_11 -->
<g id="trans_10" class="edge">
<title>state_7&#45;&gt;state_11</title>
<path fill="none" stroke="#b8860b" stroke-width="1.5" d="M1107.1304,-313.955C1147.9541,-313.6284 1192.7505,-313.27 1232.7138,-312.9503"/>
<polygon fill="#b8860b" stroke="#b8860b" stroke-width="1.5" points="1232.7928,-316.4499 1242.7645,-312.8699 1232.7368,-309.4501 1232.7928,-316.4499"/>
<text text-anchor="start" x="1125" y="-316.8" font-family="Times,serif" font-size="14.00" fill="#bc1f29"> OneComma</text>
</g>
<!-- state_7&#45;&gt;state_5 -->
<g id="trans_12" class="edge">
<title>state_7&#45;&gt;state_5</title>
<path fill="none" stroke="#b8860b" stroke-width="1.5" d="M1107.1004,-219.9964C1141.7901,-197.2037 1179.9407,-174.2156 1217,-156 1236.9801,-146.1792 1259.5809,-137.5677 1280.4742,-130.5326"/>
<polygon fill="#b8860b" stroke="#b8860b" stroke-width="1.5" points="1281.8526,-133.7637 1290.2552,-127.3103 1279.6622,-127.1152 1281.8526,-133.7637"/>
<text text-anchor="start" x="1158" y="-209.8" font-family="Times,serif" font-size="14.00" fill="#0a5040"> ,</text>
</g>
<!-- state_7&#45;&gt;state_10 -->
<g id="trans_9" class="edge">
<title>state_7&#45;&gt;state_10</title>
<path fill="none" stroke="#b8860b" stroke-width="1.5" d="M1107.1304,-341.4744C1139.3124,-347.9966 1173.9633,-355.0192 1206.769,-361.6679"/>
<polygon fill="#b8860b" stroke="#b8860b" stroke-width="1.5" points="1206.3902,-365.1622 1216.8861,-363.7183 1207.7806,-358.3016 1206.3902,-365.1622"/>
<text text-anchor="start" x="1125.5" y="-362.8" font-family="Times,serif" font-size="14.00" fill="#bc1f29"> NoCommas</text>
</g>
<!-- state_12 -->
<g id="state_12" class="node">
<title>state_12</title>
<path fill="#f5f5dc" stroke="#b8860b" stroke-width="1.5" stroke-dasharray="5,2" d="M1429.5,-263.5C1429.5,-263.5 1273.5,-263.5 1273.5,-263.5 1267.5,-263.5 1261.5,-257.5 1261.5,-251.5 1261.5,-251.5 1261.5,-176.5 1261.5,-176.5 1261.5,-170.5 1267.5,-164.5 1273.5,-164.5 1273.5,-164.5 1429.5,-164.5 1429.5,-164.5 1435.5,-164.5 1441.5,-170.5 1441.5,-176.5 1441.5,-176.5 1441.5,-251.5 1441.5,-251.5 1441.5,-257.5 1435.5,-263.5 1429.5,-263.5"/>
<g id="a_state_12_title"><a xlink:href="#" xlink:title="state_12_title">
<text text-anchor="start" x="1325" y="-242.6" font-family="Calibri" font-weight="bold" font-size="13.00" fill="#8b4513">Estado </text>
<text text-anchor="start" x="1364" y="-242.6" font-family="Calibri" font-weight="bold" font-size="13.00" fill="#8b4513">12</text>
</a>
</g>
<g id="a_state_12_item_1"><a xlink:href="#" xlink:title="state_12_item_1">
<text text-anchor="start" x="1272.5" y="-221.8" font-family="Times,serif" font-size="14.00" fill="#bc1f29">NoCommas </text>
<text text-anchor="start" x="1345.5" y="-221.8" font-family="Times,serif" font-size="14.00" fill="#0a5040">→ </text>
<text text-anchor="start" x="1364.5" y="-221.8" font-family="Times,serif" font-size="14.00" fill="#bc1f29"> Commas</text>
<text text-anchor="start" x="1419.5" y="-221.8" font-family="Times,serif" font-size="14.00" fill="#f5a70a"> •</text>
</a>
</g>
<g id="a_state_12_item_2"><a xlink:href="#" xlink:title="state_12_item_2">
<text text-anchor="start" x="1272.5" y="-200.8" font-family="Times,serif" font-size="14.00" fill="#bc1f29">OneComma </text>
<text text-anchor="start" x="1346.5" y="-200.8" font-family="Times,serif" font-size="14.00" fill="#0a5040">→ </text>
<text text-anchor="start" x="1365.5" y="-200.8" font-family="Times,serif" font-size="14.00" fill="#bc1f29"> Commas</text>
<text text-anchor="start" x="1420.5" y="-200.8" font-family="Times,serif" font-size="14.00" fill="#f5a70a"> •</text>
</a>
</g>
<g id="a_state_12_item_3"><a xlink:href="#" xlink:title="state_12_item_3">
<text text-anchor="start" x="1272.5" y="-179.8" font-family="Times,serif" font-size="14.00" fill="#bc1f29">Commas </text>
<text text-anchor="start" x="1327.5" y="-179.8" font-family="Times,serif" font-size="14.00" fill="#0a5040">→ </text>
<text text-anchor="start" x="1346.5" y="-179.8" font-family="Times,serif" font-size="14.00" fill="#bc1f29"> Commas</text>
<text text-anchor="start" x="1401.5" y="-179.8" font-family="Times,serif" font-size="14.00" fill="#f5a70a"> •</text>
<text text-anchor="start" x="1411.5" y="-179.8" font-family="Times,serif" font-size="14.00" fill="#0a5040"> ,</text>
</a>
</g>
</g>
<!-- state_7&#45;&gt;state_12 -->
<g id="trans_11" class="edge">
<title>state_7&#45;&gt;state_12</title>
<path fill="none" stroke="#b8860b" stroke-width="1.5" d="M1107.1304,-279.8169C1154.4902,-267.0613 1207.1968,-252.8657 1251.5012,-240.933"/>
<polygon fill="#b8860b" stroke="#b8860b" stroke-width="1.5" points="1252.6576,-244.2463 1261.4033,-238.266 1250.8371,-237.4872 1252.6576,-244.2463"/>
<text text-anchor="start" x="1134.5" y="-276.8" font-family="Times,serif" font-size="14.00" fill="#bc1f29"> Commas</text>
</g>
<!-- state_12&#45;&gt;state_9 -->
<g id="trans_14" class="edge">
<title>state_12&#45;&gt;state_9</title>
<path fill="none" stroke="#b8860b" stroke-width="1.5" d="M1441.6153,-180.2444C1477.1304,-166.9411 1517.9844,-151.6379 1554.0904,-138.1133"/>
<polygon fill="#b8860b" stroke="#b8860b" stroke-width="1.5" points="1555.5121,-141.3183 1563.6489,-134.5328 1553.0566,-134.7631 1555.5121,-141.3183"/>
<text text-anchor="start" x="1508" y="-157.8" font-family="Times,serif" font-size="14.00" fill="#0a5040"> ,</text>
</g>
</g>
</svg>
