<?xml version="1.0" encoding="UTF-8" standalone="no"?>
<!DOCTYPE svg PUBLIC "-//W3C//DTD SVG 1.1//EN"
 "http://www.w3.org/Graphics/SVG/1.1/DTD/svg11.dtd">
<!-- Generated by graphviz version 2.40.1 (20161225.0304)
 -->
<!-- Title: NFA Pages: 1 -->
<svg width="1262pt" height="486pt"
 viewBox="0.00 0.00 1262.00 485.50" xmlns="http://www.w3.org/2000/svg" xmlns:xlink="http://www.w3.org/1999/xlink">
<g id="graph0" class="graph" transform="scale(1 1) rotate(0) translate(4 481.5)">
<title>NFA</title>
<!-- state_10004 -->
<g id="state_10004" class="node">
<title>state_10004</title>
<path fill="#fffff0" stroke="#b8860b" stroke-width="1.5" d="M1093,-369C1093,-369 1043,-369 1043,-369 1037,-369 1031,-363 1031,-357 1031,-357 1031,-330 1031,-330 1031,-324 1037,-318 1043,-318 1043,-318 1093,-318 1093,-318 1099,-318 1105,-324 1105,-330 1105,-330 1105,-357 1105,-357 1105,-363 1099,-369 1093,-369"/>
<g id="a_state_10004_title"><a xlink:href="#" xlink:title="state_10004_title">
<text text-anchor="start" x="1045" y="-351.1" font-family="Calibri" font-weight="bold" font-size="13.00" fill="#8b4513">Estado </text>
<text text-anchor="start" x="1084" y="-351.1" font-family="Calibri" font-weight="bold" font-size="13.00" fill="#8b4513">4</text>
</a>
</g>
<g id="a_state_10004_item_1"><a xlink:href="#" xlink:title="state_10004_item_1">
<text text-anchor="start" x="1039" y="-330.3" font-family="Times,serif" font-size="14.00" fill="#bc1f29">E </text>
<text text-anchor="start" x="1052" y="-330.3" font-family="Times,serif" font-size="14.00" fill="#0a5040">→ </text>
<text text-anchor="start" x="1071" y="-330.3" font-family="Times,serif" font-size="14.00" fill="#f5a70a"> •</text>
<text text-anchor="start" x="1081" y="-330.3" font-family="Times,serif" font-size="14.00" fill="#0a5040"> id</text>
</a>
</g>
</g>
<!-- state_10008 -->
<g id="state_10008" class="node">
<title>state_10008</title>
<path fill="#f5f5dc" stroke="#b8860b" stroke-width="1.5" d="M1238,-369C1238,-369 1188,-369 1188,-369 1182,-369 1176,-363 1176,-357 1176,-357 1176,-330 1176,-330 1176,-324 1182,-318 1188,-318 1188,-318 1238,-318 1238,-318 1244,-318 1250,-324 1250,-330 1250,-330 1250,-357 1250,-357 1250,-363 1244,-369 1238,-369"/>
<path fill="none" stroke="#b8860b" stroke-width="1.5" d="M1242,-373C1242,-373 1184,-373 1184,-373 1178,-373 1172,-367 1172,-361 1172,-361 1172,-326 1172,-326 1172,-320 1178,-314 1184,-314 1184,-314 1242,-314 1242,-314 1248,-314 1254,-320 1254,-326 1254,-326 1254,-361 1254,-361 1254,-367 1248,-373 1242,-373"/>
<g id="a_state_10008_title"><a xlink:href="#" xlink:title="state_10008_title">
<text text-anchor="start" x="1190" y="-351.1" font-family="Calibri" font-weight="bold" font-size="13.00" fill="#8b4513">Estado </text>
<text text-anchor="start" x="1229" y="-351.1" font-family="Calibri" font-weight="bold" font-size="13.00" fill="#8b4513">8</text>
</a>
</g>
<g id="a_state_10008_item_1"><a xlink:href="#" xlink:title="state_10008_item_1">
<text text-anchor="start" x="1184" y="-330.3" font-family="Times,serif" font-size="14.00" fill="#bc1f29">E </text>
<text text-anchor="start" x="1197" y="-330.3" font-family="Times,serif" font-size="14.00" fill="#0a5040">→ </text>
<text text-anchor="start" x="1216" y="-330.3" font-family="Times,serif" font-size="14.00" fill="#0a5040"> id</text>
<text text-anchor="start" x="1232" y="-330.3" font-family="Times,serif" font-size="14.00" fill="#f5a70a"> •</text>
</a>
</g>
</g>
<!-- state_10004&#45;&gt;state_10008 -->
<g id="trans_13" class="edge">
<title>state_10004&#45;&gt;state_10008</title>
<path fill="none" stroke="#b8860b" stroke-width="1.5" d="M1105.3411,-343.5C1122.5455,-343.5 1143.2352,-343.5 1161.8598,-343.5"/>
<polygon fill="#b8860b" stroke="#b8860b" stroke-width="1.5" points="1161.9592,-347.0001 1171.9592,-343.5 1161.9592,-340.0001 1161.9592,-347.0001"/>
<text text-anchor="start" x="1138" y="-347.3" font-family="Times,serif" font-size="14.00" fill="#0a5040"> id</text>
</g>
<!-- state_10005 -->
<g id="state_10005" class="node">
<title>state_10005</title>
<path fill="#fffff0" stroke="#b8860b" stroke-width="1.5" d="M214.5,-61C214.5,-61 152.5,-61 152.5,-61 146.5,-61 140.5,-55 140.5,-49 140.5,-49 140.5,-22 140.5,-22 140.5,-16 146.5,-10 152.5,-10 152.5,-10 214.5,-10 214.5,-10 220.5,-10 226.5,-16 226.5,-22 226.5,-22 226.5,-49 226.5,-49 226.5,-55 220.5,-61 214.5,-61"/>
<g id="a_state_10005_title"><a xlink:href="#" xlink:title="state_10005_title">
<text text-anchor="start" x="160.5" y="-43.1" font-family="Calibri" font-weight="bold" font-size="13.00" fill="#8b4513">Estado </text>
<text text-anchor="start" x="199.5" y="-43.1" font-family="Calibri" font-weight="bold" font-size="13.00" fill="#8b4513">5</text>
</a>
</g>
<g id="a_state_10005_item_1"><a xlink:href="#" xlink:title="state_10005_item_1">
<text text-anchor="start" x="148.5" y="-22.3" font-family="Times,serif" font-size="14.00" fill="#bc1f29">E&#39; </text>
<text text-anchor="start" x="164.5" y="-22.3" font-family="Times,serif" font-size="14.00" fill="#0a5040">→ </text>
<text text-anchor="start" x="183.5" y="-22.3" font-family="Times,serif" font-size="14.00" fill="#bc1f29"> E</text>
<text text-anchor="start" x="196.5" y="-22.3" font-family="Times,serif" font-size="14.00" fill="#f5a70a"> •</text>
<text text-anchor="start" x="206.5" y="-22.3" font-family="Times,serif" font-size="14.00" fill="#0a5040"> $</text>
</a>
</g>
</g>
<!-- state_10009 -->
<g id="state_10009" class="node">
<title>state_10009</title>
<path fill="#f5f5dc" stroke="#b8860b" stroke-width="1.5" d="M360.5,-55C360.5,-55 298.5,-55 298.5,-55 292.5,-55 286.5,-49 286.5,-43 286.5,-43 286.5,-16 286.5,-16 286.5,-10 292.5,-4 298.5,-4 298.5,-4 360.5,-4 360.5,-4 366.5,-4 372.5,-10 372.5,-16 372.5,-16 372.5,-43 372.5,-43 372.5,-49 366.5,-55 360.5,-55"/>
<path fill="none" stroke="#b8860b" stroke-width="1.5" d="M364.5,-59C364.5,-59 294.5,-59 294.5,-59 288.5,-59 282.5,-53 282.5,-47 282.5,-47 282.5,-12 282.5,-12 282.5,-6 288.5,0 294.5,0 294.5,0 364.5,0 364.5,0 370.5,0 376.5,-6 376.5,-12 376.5,-12 376.5,-47 376.5,-47 376.5,-53 370.5,-59 364.5,-59"/>
<g id="a_state_10009_title"><a xlink:href="#" xlink:title="state_10009_title">
<text text-anchor="start" x="306.5" y="-37.1" font-family="Calibri" font-weight="bold" font-size="13.00" fill="#8b4513">Estado </text>
<text text-anchor="start" x="345.5" y="-37.1" font-family="Calibri" font-weight="bold" font-size="13.00" fill="#8b4513">9</text>
</a>
</g>
<g id="a_state_10009_item_1"><a xlink:href="#" xlink:title="state_10009_item_1">
<text text-anchor="start" x="294.5" y="-16.3" font-family="Times,serif" font-size="14.00" fill="#bc1f29">E&#39; </text>
<text text-anchor="start" x="310.5" y="-16.3" font-family="Times,serif" font-size="14.00" fill="#0a5040">→ </text>
<text text-anchor="start" x="329.5" y="-16.3" font-family="Times,serif" font-size="14.00" fill="#bc1f29"> E</text>
<text text-anchor="start" x="342.5" y="-16.3" font-family="Times,serif" font-size="14.00" fill="#0a5040"> $</text>
<text text-anchor="start" x="354.5" y="-16.3" font-family="Times,serif" font-size="14.00" fill="#f5a70a"> •</text>
</a>
</g>
</g>
<!-- state_10005&#45;&gt;state_10009 -->
<g id="trans_14" class="edge">
<title>state_10005&#45;&gt;state_10009</title>
<path fill="none" stroke="#b8860b" stroke-width="1.5" d="M226.5152,-33.7323C240.7988,-33.1453 256.9361,-32.4821 272.1264,-31.8578"/>
<polygon fill="#b8860b" stroke="#b8860b" stroke-width="1.5" points="272.6092,-35.341 282.457,-31.4333 272.3217,-28.3469 272.6092,-35.341"/>
<text text-anchor="start" x="250.5" y="-37.3" font-family="Times,serif" font-size="14.00" fill="#0a5040"> $</text>
</g>
<!-- state_10006 -->
<g id="state_10006" class="node">
<title>state_10006</title>
<path fill="#fffff0" stroke="#b8860b" stroke-width="1.5" d="M366,-294C366,-294 293,-294 293,-294 287,-294 281,-288 281,-282 281,-282 281,-255 281,-255 281,-249 287,-243 293,-243 293,-243 366,-243 366,-243 372,-243 378,-249 378,-255 378,-255 378,-282 378,-282 378,-288 372,-294 366,-294"/>
<g id="a_state_10006_title"><a xlink:href="#" xlink:title="state_10006_title">
<text text-anchor="start" x="307" y="-276.1" font-family="Calibri" font-weight="bold" font-size="13.00" fill="#8b4513">Estado </text>
<text text-anchor="start" x="346" y="-276.1" font-family="Calibri" font-weight="bold" font-size="13.00" fill="#8b4513">6</text>
</a>
</g>
<g id="a_state_10006_item_1"><a xlink:href="#" xlink:title="state_10006_item_1">
<text text-anchor="start" x="289.5" y="-255.3" font-family="Times,serif" font-size="14.00" fill="#bc1f29">E </text>
<text text-anchor="start" x="302.5" y="-255.3" font-family="Times,serif" font-size="14.00" fill="#0a5040">→ </text>
<text text-anchor="start" x="321.5" y="-255.3" font-family="Times,serif" font-size="14.00" fill="#bc1f29"> E</text>
<text text-anchor="start" x="334.5" y="-255.3" font-family="Times,serif" font-size="14.00" fill="#f5a70a"> •</text>
<text text-anchor="start" x="344.5" y="-255.3" font-family="Times,serif" font-size="14.00" fill="#0a5040"> +</text>
<text text-anchor="start" x="357.5" y="-255.3" font-family="Times,serif" font-size="14.00" fill="#bc1f29"> E</text>
</a>
</g>
</g>
<!-- state_10010 -->
<g id="state_10010" class="node">
<title>state_10010</title>
<path fill="#fffff0" stroke="#b8860b" stroke-width="1.5" d="M512,-321C512,-321 439,-321 439,-321 433,-321 427,-315 427,-309 427,-309 427,-282 427,-282 427,-276 433,-270 439,-270 439,-270 512,-270 512,-270 518,-270 524,-276 524,-282 524,-282 524,-309 524,-309 524,-315 518,-321 512,-321"/>
<g id="a_state_10010_title"><a xlink:href="#" xlink:title="state_10010_title">
<text text-anchor="start" x="449.5" y="-303.1" font-family="Calibri" font-weight="bold" font-size="13.00" fill="#8b4513">Estado </text>
<text text-anchor="start" x="488.5" y="-303.1" font-family="Calibri" font-weight="bold" font-size="13.00" fill="#8b4513">10</text>
</a>
</g>
<g id="a_state_10010_item_1"><a xlink:href="#" xlink:title="state_10010_item_1">
<text text-anchor="start" x="435.5" y="-282.3" font-family="Times,serif" font-size="14.00" fill="#bc1f29">E </text>
<text text-anchor="start" x="448.5" y="-282.3" font-family="Times,serif" font-size="14.00" fill="#0a5040">→ </text>
<text text-anchor="start" x="467.5" y="-282.3" font-family="Times,serif" font-size="14.00" fill="#bc1f29"> E</text>
<text text-anchor="start" x="480.5" y="-282.3" font-family="Times,serif" font-size="14.00" fill="#0a5040"> +</text>
<text text-anchor="start" x="493.5" y="-282.3" font-family="Times,serif" font-size="14.00" fill="#f5a70a"> •</text>
<text text-anchor="start" x="503.5" y="-282.3" font-family="Times,serif" font-size="14.00" fill="#bc1f29"> E</text>
</a>
</g>
</g>
<!-- state_10006&#45;&gt;state_10010 -->
<g id="trans_15" class="edge">
<title>state_10006&#45;&gt;state_10010</title>
<path fill="none" stroke="#b8860b" stroke-width="1.5" d="M378.1159,-277.4906C390.4213,-279.7663 403.7711,-282.2351 416.5271,-284.5941"/>
<polygon fill="#b8860b" stroke="#b8860b" stroke-width="1.5" points="416.1289,-288.0797 426.5986,-286.4566 417.4018,-281.1964 416.1289,-288.0797"/>
<text text-anchor="start" x="396" y="-287.3" font-family="Times,serif" font-size="14.00" fill="#0a5040"> +</text>
</g>
<!-- state_10007 -->
<g id="state_10007" class="node">
<title>state_10007</title>
<path fill="#fffff0" stroke="#b8860b" stroke-width="1.5" d="M811,-218C811,-218 739,-218 739,-218 733,-218 727,-212 727,-206 727,-206 727,-179 727,-179 727,-173 733,-167 739,-167 739,-167 811,-167 811,-167 817,-167 823,-173 823,-179 823,-179 823,-206 823,-206 823,-212 817,-218 811,-218"/>
<g id="a_state_10007_title"><a xlink:href="#" xlink:title="state_10007_title">
<text text-anchor="start" x="752" y="-200.1" font-family="Calibri" font-weight="bold" font-size="13.00" fill="#8b4513">Estado </text>
<text text-anchor="start" x="791" y="-200.1" font-family="Calibri" font-weight="bold" font-size="13.00" fill="#8b4513">7</text>
</a>
</g>
<g id="a_state_10007_item_1"><a xlink:href="#" xlink:title="state_10007_item_1">
<text text-anchor="start" x="735" y="-179.3" font-family="Times,serif" font-size="14.00" fill="#bc1f29">E </text>
<text text-anchor="start" x="748" y="-179.3" font-family="Times,serif" font-size="14.00" fill="#0a5040">→ </text>
<text text-anchor="start" x="767" y="-179.3" font-family="Times,serif" font-size="14.00" fill="#bc1f29"> E</text>
<text text-anchor="start" x="780" y="-179.3" font-family="Times,serif" font-size="14.00" fill="#f5a70a"> •</text>
<text text-anchor="start" x="790" y="-179.3" font-family="Times,serif" font-size="14.00" fill="#0a5040"> *</text>
<text text-anchor="start" x="802" y="-179.3" font-family="Times,serif" font-size="14.00" fill="#bc1f29"> E</text>
</a>
</g>
</g>
<!-- state_10011 -->
<g id="state_10011" class="node">
<title>state_10011</title>
<path fill="#fffff0" stroke="#b8860b" stroke-width="1.5" d="M955,-252C955,-252 883,-252 883,-252 877,-252 871,-246 871,-240 871,-240 871,-213 871,-213 871,-207 877,-201 883,-201 883,-201 955,-201 955,-201 961,-201 967,-207 967,-213 967,-213 967,-240 967,-240 967,-246 961,-252 955,-252"/>
<g id="a_state_10011_title"><a xlink:href="#" xlink:title="state_10011_title">
<text text-anchor="start" x="892.5" y="-234.1" font-family="Calibri" font-weight="bold" font-size="13.00" fill="#8b4513">Estado </text>
<text text-anchor="start" x="931.5" y="-234.1" font-family="Calibri" font-weight="bold" font-size="13.00" fill="#8b4513">11</text>
</a>
</g>
<g id="a_state_10011_item_1"><a xlink:href="#" xlink:title="state_10011_item_1">
<text text-anchor="start" x="879" y="-213.3" font-family="Times,serif" font-size="14.00" fill="#bc1f29">E </text>
<text text-anchor="start" x="892" y="-213.3" font-family="Times,serif" font-size="14.00" fill="#0a5040">→ </text>
<text text-anchor="start" x="911" y="-213.3" font-family="Times,serif" font-size="14.00" fill="#bc1f29"> E</text>
<text text-anchor="start" x="924" y="-213.3" font-family="Times,serif" font-size="14.00" fill="#0a5040"> *</text>
<text text-anchor="start" x="936" y="-213.3" font-family="Times,serif" font-size="14.00" fill="#f5a70a"> •</text>
<text text-anchor="start" x="946" y="-213.3" font-family="Times,serif" font-size="14.00" fill="#bc1f29"> E</text>
</a>
</g>
</g>
<!-- state_10007&#45;&gt;state_10011 -->
<g id="trans_16" class="edge">
<title>state_10007&#45;&gt;state_10011</title>
<path fill="none" stroke="#b8860b" stroke-width="1.5" d="M823.3505,-203.9161C835.3422,-206.7475 848.3184,-209.8113 860.7294,-212.7417"/>
<polygon fill="#b8860b" stroke="#b8860b" stroke-width="1.5" points="859.9953,-216.1645 870.532,-215.0562 861.6039,-209.3518 859.9953,-216.1645"/>
<text text-anchor="start" x="841" y="-215.3" font-family="Times,serif" font-size="14.00" fill="#0a5040"> *</text>
</g>
<!-- state_10001 -->
<g id="state_10001" class="node">
<title>state_10001</title>
<path fill="#fffff0" stroke="#b8860b" stroke-width="1.5" d="M74,-180C74,-180 12,-180 12,-180 6,-180 0,-174 0,-168 0,-168 0,-141 0,-141 0,-135 6,-129 12,-129 12,-129 74,-129 74,-129 80,-129 86,-135 86,-141 86,-141 86,-168 86,-168 86,-174 80,-180 74,-180"/>
<g id="a_state_10001_title"><a xlink:href="#" xlink:title="state_10001_title">
<text text-anchor="start" x="20" y="-162.1" font-family="Calibri" font-weight="bold" font-size="13.00" fill="#8b4513">Estado </text>
<text text-anchor="start" x="59" y="-162.1" font-family="Calibri" font-weight="bold" font-size="13.00" fill="#8b4513">1</text>
</a>
</g>
<g id="a_state_10001_item_1"><a xlink:href="#" xlink:title="state_10001_item_1">
<text text-anchor="start" x="8" y="-141.3" font-family="Times,serif" font-size="14.00" fill="#bc1f29">E&#39; </text>
<text text-anchor="start" x="24" y="-141.3" font-family="Times,serif" font-size="14.00" fill="#0a5040">→ </text>
<text text-anchor="start" x="43" y="-141.3" font-family="Times,serif" font-size="14.00" fill="#f5a70a"> •</text>
<text text-anchor="start" x="53" y="-141.3" font-family="Times,serif" font-size="14.00" fill="#bc1f29"> E</text>
<text text-anchor="start" x="66" y="-141.3" font-family="Times,serif" font-size="14.00" fill="#0a5040"> $</text>
</a>
</g>
</g>
<!-- state_10001&#45;&gt;state_10004 -->
<g id="trans_2" class="edge">
<title>state_10001&#45;&gt;state_10004</title>
<path fill="none" stroke="#b8860b" stroke-width="1.5" d="M48.875,-180.2301C66.5162,-254.2548 121.6414,-462.5 183.5,-462.5 183.5,-462.5 183.5,-462.5 919,-462.5 973.782,-462.5 1019.9983,-412.779 1045.8334,-377.6156"/>
<polygon fill="#b8860b" stroke="#b8860b" stroke-width="1.5" points="1049.0001,-379.2029 1051.9553,-369.0285 1043.3003,-375.1393 1049.0001,-379.2029"/>
<text text-anchor="start" x="543.5" y="-466.3" font-family="Times,serif" font-size="14.00" fill="#0a5040"> ε</text>
</g>
<!-- state_10001&#45;&gt;state_10005 -->
<g id="trans_3" class="edge">
<title>state_10001&#45;&gt;state_10005</title>
<path fill="none" stroke="#b8860b" stroke-width="1.5" d="M55.5267,-128.6336C66.083,-109.2147 82.8428,-83.201 104,-66.5 111.9361,-60.2354 121.2912,-55.1077 130.7447,-50.956"/>
<polygon fill="#b8860b" stroke="#b8860b" stroke-width="1.5" points="132.2336,-54.1291 140.182,-47.1237 129.5999,-47.6434 132.2336,-54.1291"/>
<text text-anchor="start" x="104" y="-70.3" font-family="Times,serif" font-size="14.00" fill="#bc1f29"> E</text>
</g>
<!-- state_10002 -->
<g id="state_10002" class="node">
<title>state_10002</title>
<path fill="#fffff0" stroke="#b8860b" stroke-width="1.5" d="M220,-240C220,-240 147,-240 147,-240 141,-240 135,-234 135,-228 135,-228 135,-201 135,-201 135,-195 141,-189 147,-189 147,-189 220,-189 220,-189 226,-189 232,-195 232,-201 232,-201 232,-228 232,-228 232,-234 226,-240 220,-240"/>
<g id="a_state_10002_title"><a xlink:href="#" xlink:title="state_10002_title">
<text text-anchor="start" x="161" y="-222.1" font-family="Calibri" font-weight="bold" font-size="13.00" fill="#8b4513">Estado </text>
<text text-anchor="start" x="200" y="-222.1" font-family="Calibri" font-weight="bold" font-size="13.00" fill="#8b4513">2</text>
</a>
</g>
<g id="a_state_10002_item_1"><a xlink:href="#" xlink:title="state_10002_item_1">
<text text-anchor="start" x="143.5" y="-201.3" font-family="Times,serif" font-size="14.00" fill="#bc1f29">E </text>
<text text-anchor="start" x="156.5" y="-201.3" font-family="Times,serif" font-size="14.00" fill="#0a5040">→ </text>
<text text-anchor="start" x="175.5" y="-201.3" font-family="Times,serif" font-size="14.00" fill="#f5a70a"> •</text>
<text text-anchor="start" x="185.5" y="-201.3" font-family="Times,serif" font-size="14.00" fill="#bc1f29"> E</text>
<text text-anchor="start" x="198.5" y="-201.3" font-family="Times,serif" font-size="14.00" fill="#0a5040"> +</text>
<text text-anchor="start" x="211.5" y="-201.3" font-family="Times,serif" font-size="14.00" fill="#bc1f29"> E</text>
</a>
</g>
</g>
<!-- state_10001&#45;&gt;state_10002 -->
<g id="trans_4" class="edge">
<title>state_10001&#45;&gt;state_10002</title>
<path fill="none" stroke="#b8860b" stroke-width="1.5" d="M86.3011,-172.9916C98.6285,-178.256 112.261,-184.0776 125.3198,-189.6544"/>
<polygon fill="#b8860b" stroke="#b8860b" stroke-width="1.5" points="124.1292,-192.9517 134.7004,-193.6603 126.8784,-186.5141 124.1292,-192.9517"/>
<text text-anchor="start" x="105.5" y="-188.3" font-family="Times,serif" font-size="14.00" fill="#0a5040"> ε</text>
</g>
<!-- state_10003 -->
<g id="state_10003" class="node">
<title>state_10003</title>
<path fill="#fffff0" stroke="#b8860b" stroke-width="1.5" d="M661.5,-234C661.5,-234 589.5,-234 589.5,-234 583.5,-234 577.5,-228 577.5,-222 577.5,-222 577.5,-195 577.5,-195 577.5,-189 583.5,-183 589.5,-183 589.5,-183 661.5,-183 661.5,-183 667.5,-183 673.5,-189 673.5,-195 673.5,-195 673.5,-222 673.5,-222 673.5,-228 667.5,-234 661.5,-234"/>
<g id="a_state_10003_title"><a xlink:href="#" xlink:title="state_10003_title">
<text text-anchor="start" x="602.5" y="-216.1" font-family="Calibri" font-weight="bold" font-size="13.00" fill="#8b4513">Estado </text>
<text text-anchor="start" x="641.5" y="-216.1" font-family="Calibri" font-weight="bold" font-size="13.00" fill="#8b4513">3</text>
</a>
</g>
<g id="a_state_10003_item_1"><a xlink:href="#" xlink:title="state_10003_item_1">
<text text-anchor="start" x="585.5" y="-195.3" font-family="Times,serif" font-size="14.00" fill="#bc1f29">E </text>
<text text-anchor="start" x="598.5" y="-195.3" font-family="Times,serif" font-size="14.00" fill="#0a5040">→ </text>
<text text-anchor="start" x="617.5" y="-195.3" font-family="Times,serif" font-size="14.00" fill="#f5a70a"> •</text>
<text text-anchor="start" x="627.5" y="-195.3" font-family="Times,serif" font-size="14.00" fill="#bc1f29"> E</text>
<text text-anchor="start" x="640.5" y="-195.3" font-family="Times,serif" font-size="14.00" fill="#0a5040"> *</text>
<text text-anchor="start" x="652.5" y="-195.3" font-family="Times,serif" font-size="14.00" fill="#bc1f29"> E</text>
</a>
</g>
</g>
<!-- state_10001&#45;&gt;state_10003 -->
<g id="trans_1" class="edge">
<title>state_10001&#45;&gt;state_10003</title>
<path fill="none" stroke="#b8860b" stroke-width="1.5" d="M80.8791,-128.9649C108.1899,-113.0195 146.5942,-95.5 183.5,-95.5 183.5,-95.5 183.5,-95.5 475.5,-95.5 512.0453,-95.5 524.5843,-96.2407 555,-116.5 576.7849,-131.0105 594.6332,-154.5278 606.9208,-174.1525"/>
<polygon fill="#b8860b" stroke="#b8860b" stroke-width="1.5" points="604.0056,-176.0959 612.1694,-182.849 609.9988,-172.4789 604.0056,-176.0959"/>
<text text-anchor="start" x="324.5" y="-99.3" font-family="Times,serif" font-size="14.00" fill="#0a5040"> ε</text>
</g>
<!-- state_10002&#45;&gt;state_10004 -->
<g id="trans_8" class="edge">
<title>state_10002&#45;&gt;state_10004</title>
<path fill="none" stroke="#b8860b" stroke-width="1.5" d="M188.9578,-240.0489C202.3567,-295.0028 242.3308,-419.5 329.5,-419.5 329.5,-419.5 329.5,-419.5 919,-419.5 960.3627,-419.5 1001.8249,-395.9715 1030.4705,-375.0972"/>
<polygon fill="#b8860b" stroke="#b8860b" stroke-width="1.5" points="1032.6713,-377.8216 1038.5665,-369.0183 1028.4682,-372.2239 1032.6713,-377.8216"/>
<text text-anchor="start" x="620.5" y="-423.3" font-family="Times,serif" font-size="14.00" fill="#0a5040"> ε</text>
</g>
<!-- state_10002&#45;&gt;state_10006 -->
<g id="trans_5" class="edge">
<title>state_10002&#45;&gt;state_10006</title>
<path fill="none" stroke="#b8860b" stroke-width="1.5" d="M232.1159,-232.4812C244.5432,-237.0776 258.0356,-242.068 270.9059,-246.8282"/>
<polygon fill="#b8860b" stroke="#b8860b" stroke-width="1.5" points="270.0054,-250.2268 280.5986,-250.4132 272.4337,-243.6615 270.0054,-250.2268"/>
<text text-anchor="start" x="250" y="-247.3" font-family="Times,serif" font-size="14.00" fill="#bc1f29"> E</text>
</g>
<!-- state_10002&#45;&gt;state_10002 -->
<g id="trans_6" class="edge">
<title>state_10002&#45;&gt;state_10002</title>
<path fill="none" stroke="#b8860b" stroke-width="1.5" d="M170.0297,-240.4017C169.588,-250.0544 174.0781,-258 183.5,-258 189.2415,-258 193.1516,-255.0495 195.2303,-250.5602"/>
<polygon fill="#b8860b" stroke="#b8860b" stroke-width="1.5" points="198.7317,-250.8491 196.9703,-240.4017 191.8322,-249.6672 198.7317,-250.8491"/>
<text text-anchor="start" x="178.5" y="-261.8" font-family="Times,serif" font-size="14.00" fill="#0a5040"> ε</text>
</g>
<!-- state_10002&#45;&gt;state_10003 -->
<g id="trans_7" class="edge">
<title>state_10002&#45;&gt;state_10003</title>
<path fill="none" stroke="#b8860b" stroke-width="1.5" d="M232.0661,-213.8407C313.9303,-212.7295 479.0583,-210.4879 567.104,-209.2927"/>
<polygon fill="#b8860b" stroke="#b8860b" stroke-width="1.5" points="567.2382,-212.7913 577.1897,-209.1558 567.1431,-205.7919 567.2382,-212.7913"/>
<text text-anchor="start" x="397.5" y="-216.3" font-family="Times,serif" font-size="14.00" fill="#0a5040"> ε</text>
</g>
<!-- state_10003&#45;&gt;state_10004 -->
<g id="trans_12" class="edge">
<title>state_10003&#45;&gt;state_10004</title>
<path fill="none" stroke="#b8860b" stroke-width="1.5" d="M673.504,-230.4322C690.2402,-237.6503 709.27,-245.385 727,-251.5 830.0318,-287.0354 954.3739,-317.5752 1020.7679,-332.9264"/>
<polygon fill="#b8860b" stroke="#b8860b" stroke-width="1.5" points="1020.3841,-336.4294 1030.914,-335.2582 1021.952,-329.6072 1020.3841,-336.4294"/>
<text text-anchor="start" x="842" y="-294.3" font-family="Times,serif" font-size="14.00" fill="#0a5040"> ε</text>
</g>
<!-- state_10003&#45;&gt;state_10007 -->
<g id="trans_9" class="edge">
<title>state_10003&#45;&gt;state_10007</title>
<path fill="none" stroke="#b8860b" stroke-width="1.5" d="M673.6257,-203.3494C687.3631,-201.8792 702.4805,-200.2613 716.753,-198.7338"/>
<polygon fill="#b8860b" stroke="#b8860b" stroke-width="1.5" points="717.3938,-202.1853 726.9645,-197.6409 716.6488,-195.225 717.3938,-202.1853"/>
<text text-anchor="start" x="696" y="-204.3" font-family="Times,serif" font-size="14.00" fill="#bc1f29"> E</text>
</g>
<!-- state_10003&#45;&gt;state_10002 -->
<g id="trans_10" class="edge">
<title>state_10003&#45;&gt;state_10002</title>
<path fill="none" stroke="#b8860b" stroke-width="1.5" d="M577.1759,-201.7217C530.7532,-196.0173 458.6231,-189.267 396,-192.5 343.9874,-195.1852 285.0986,-201.544 242.5265,-206.7382"/>
<polygon fill="#b8860b" stroke="#b8860b" stroke-width="1.5" points="241.837,-203.2967 232.3417,-207.9966 242.6955,-210.2439 241.837,-203.2967"/>
<text text-anchor="start" x="397.5" y="-196.3" font-family="Times,serif" font-size="14.00" fill="#0a5040"> ε</text>
</g>
<!-- state_10003&#45;&gt;state_10003 -->
<g id="trans_11" class="edge">
<title>state_10003&#45;&gt;state_10003</title>
<path fill="none" stroke="#b8860b" stroke-width="1.5" d="M611.2813,-234.4017C610.8151,-244.0544 615.5547,-252 625.5,-252 631.5604,-252 635.6878,-249.0495 637.882,-244.5602"/>
<polygon fill="#b8860b" stroke="#b8860b" stroke-width="1.5" points="641.3836,-244.8649 639.7187,-234.4017 634.4953,-243.6194 641.3836,-244.8649"/>
<text text-anchor="start" x="620.5" y="-255.8" font-family="Times,serif" font-size="14.00" fill="#0a5040"> ε</text>
</g>
<!-- state_10010&#45;&gt;state_10004 -->
<g id="trans_20" class="edge">
<title>state_10010&#45;&gt;state_10004</title>
<path fill="none" stroke="#b8860b" stroke-width="1.5" d="M524.2385,-299.4484C636.0648,-308.5078 909.9331,-330.6946 1020.5261,-339.654"/>
<polygon fill="#b8860b" stroke="#b8860b" stroke-width="1.5" points="1020.4581,-343.1599 1030.7081,-340.4789 1021.0234,-336.1827 1020.4581,-343.1599"/>
<text text-anchor="start" x="770" y="-327.3" font-family="Times,serif" font-size="14.00" fill="#0a5040"> ε</text>
</g>
<!-- state_10010&#45;&gt;state_10002 -->
<g id="trans_18" class="edge">
<title>state_10010&#45;&gt;state_10002</title>
<path fill="none" stroke="#b8860b" stroke-width="1.5" d="M426.5957,-307.617C386.1706,-315.2344 327.9912,-320.5704 281,-302.5 252.4412,-291.5178 227.0332,-267.8703 209.3196,-247.8525"/>
<polygon fill="#b8860b" stroke="#b8860b" stroke-width="1.5" points="211.8486,-245.4249 202.6828,-240.1107 206.5341,-249.9808 211.8486,-245.4249"/>
<text text-anchor="start" x="324.5" y="-319.3" font-family="Times,serif" font-size="14.00" fill="#0a5040"> ε</text>
</g>
<!-- state_10010&#45;&gt;state_10003 -->
<g id="trans_19" class="edge">
<title>state_10010&#45;&gt;state_10003</title>
<path fill="none" stroke="#b8860b" stroke-width="1.5" d="M519.6936,-269.8677C536.2516,-260.2641 555.2342,-249.2542 572.5079,-239.2354"/>
<polygon fill="#b8860b" stroke="#b8860b" stroke-width="1.5" points="574.469,-242.1442 581.3633,-234.0993 570.9569,-236.0889 574.469,-242.1442"/>
<text text-anchor="start" x="543.5" y="-259.3" font-family="Times,serif" font-size="14.00" fill="#0a5040"> ε</text>
</g>
<!-- state_10012 -->
<g id="state_10012" class="node">
<title>state_10012</title>
<path fill="#f5f5dc" stroke="#b8860b" stroke-width="1.5" d="M662,-379C662,-379 589,-379 589,-379 583,-379 577,-373 577,-367 577,-367 577,-340 577,-340 577,-334 583,-328 589,-328 589,-328 662,-328 662,-328 668,-328 674,-334 674,-340 674,-340 674,-367 674,-367 674,-373 668,-379 662,-379"/>
<path fill="none" stroke="#b8860b" stroke-width="1.5" d="M666,-383C666,-383 585,-383 585,-383 579,-383 573,-377 573,-371 573,-371 573,-336 573,-336 573,-330 579,-324 585,-324 585,-324 666,-324 666,-324 672,-324 678,-330 678,-336 678,-336 678,-371 678,-371 678,-377 672,-383 666,-383"/>
<g id="a_state_10012_title"><a xlink:href="#" xlink:title="state_10012_title">
<text text-anchor="start" x="599.5" y="-361.1" font-family="Calibri" font-weight="bold" font-size="13.00" fill="#8b4513">Estado </text>
<text text-anchor="start" x="638.5" y="-361.1" font-family="Calibri" font-weight="bold" font-size="13.00" fill="#8b4513">12</text>
</a>
</g>
<g id="a_state_10012_item_1"><a xlink:href="#" xlink:title="state_10012_item_1">
<text text-anchor="start" x="585.5" y="-340.3" font-family="Times,serif" font-size="14.00" fill="#bc1f29">E </text>
<text text-anchor="start" x="598.5" y="-340.3" font-family="Times,serif" font-size="14.00" fill="#0a5040">→ </text>
<text text-anchor="start" x="617.5" y="-340.3" font-family="Times,serif" font-size="14.00" fill="#bc1f29"> E</text>
<text text-anchor="start" x="630.5" y="-340.3" font-family="Times,serif" font-size="14.00" fill="#0a5040"> +</text>
<text text-anchor="start" x="643.5" y="-340.3" font-family="Times,serif" font-size="14.00" fill="#bc1f29"> E</text>
<text text-anchor="start" x="656.5" y="-340.3" font-family="Times,serif" font-size="14.00" fill="#f5a70a"> •</text>
</a>
</g>
</g>
<!-- state_10010&#45;&gt;state_10012 -->
<g id="trans_17" class="edge">
<title>state_10010&#45;&gt;state_10012</title>
<path fill="none" stroke="#b8860b" stroke-width="1.5" d="M524.2007,-314.3309C536.729,-319.1752 550.3784,-324.453 563.4824,-329.5199"/>
<polygon fill="#b8860b" stroke="#b8860b" stroke-width="1.5" points="562.3146,-332.8208 572.9039,-333.1629 564.8392,-326.2919 562.3146,-332.8208"/>
<text text-anchor="start" x="542" y="-330.3" font-family="Times,serif" font-size="14.00" fill="#bc1f29"> E</text>
</g>
<!-- state_10011&#45;&gt;state_10004 -->
<g id="trans_24" class="edge">
<title>state_10011&#45;&gt;state_10004</title>
<path fill="none" stroke="#b8860b" stroke-width="1.5" d="M967.3528,-248.9375C977.8644,-254.6955 988.6326,-261.3158 998,-268.5 1013.595,-280.4604 1028.7512,-296.0442 1040.9496,-309.9058"/>
<polygon fill="#b8860b" stroke="#b8860b" stroke-width="1.5" points="1038.5937,-312.5337 1047.771,-317.8279 1043.8982,-307.9662 1038.5937,-312.5337"/>
<text text-anchor="start" x="986.5" y="-272.3" font-family="Times,serif" font-size="14.00" fill="#0a5040"> ε</text>
</g>
<!-- state_10011&#45;&gt;state_10002 -->
<g id="trans_22" class="edge">
<title>state_10011&#45;&gt;state_10002</title>
<path fill="none" stroke="#b8860b" stroke-width="1.5" d="M895.191,-200.5731C868.6334,-174.6152 823.0498,-138.5 775,-138.5 329.5,-138.5 329.5,-138.5 329.5,-138.5 288.9715,-138.5 248.5376,-161.827 220.5329,-182.6339"/>
<polygon fill="#b8860b" stroke="#b8860b" stroke-width="1.5" points="218.0604,-180.1192 212.2546,-188.9817 222.3199,-185.6742 218.0604,-180.1192"/>
<text text-anchor="start" x="543.5" y="-142.3" font-family="Times,serif" font-size="14.00" fill="#0a5040"> ε</text>
</g>
<!-- state_10011&#45;&gt;state_10003 -->
<g id="trans_23" class="edge">
<title>state_10011&#45;&gt;state_10003</title>
<path fill="none" stroke="#b8860b" stroke-width="1.5" d="M870.7142,-229.7644C864.7508,-230.0679 858.7371,-230.3263 853,-230.5 796.9974,-232.1955 782.7179,-232.3886 727,-226.5 712.8935,-225.0092 697.7922,-222.716 683.6644,-220.2602"/>
<polygon fill="#b8860b" stroke="#b8860b" stroke-width="1.5" points="684.038,-216.7715 673.5773,-218.4524 682.8031,-223.6617 684.038,-216.7715"/>
<text text-anchor="start" x="770" y="-236.3" font-family="Times,serif" font-size="14.00" fill="#0a5040"> ε</text>
</g>
<!-- state_10013 -->
<g id="state_10013" class="node">
<title>state_10013</title>
<path fill="#f5f5dc" stroke="#b8860b" stroke-width="1.5" d="M1104,-252C1104,-252 1032,-252 1032,-252 1026,-252 1020,-246 1020,-240 1020,-240 1020,-213 1020,-213 1020,-207 1026,-201 1032,-201 1032,-201 1104,-201 1104,-201 1110,-201 1116,-207 1116,-213 1116,-213 1116,-240 1116,-240 1116,-246 1110,-252 1104,-252"/>
<path fill="none" stroke="#b8860b" stroke-width="1.5" d="M1108,-256C1108,-256 1028,-256 1028,-256 1022,-256 1016,-250 1016,-244 1016,-244 1016,-209 1016,-209 1016,-203 1022,-197 1028,-197 1028,-197 1108,-197 1108,-197 1114,-197 1120,-203 1120,-209 1120,-209 1120,-244 1120,-244 1120,-250 1114,-256 1108,-256"/>
<g id="a_state_10013_title"><a xlink:href="#" xlink:title="state_10013_title">
<text text-anchor="start" x="1041.5" y="-234.1" font-family="Calibri" font-weight="bold" font-size="13.00" fill="#8b4513">Estado </text>
<text text-anchor="start" x="1080.5" y="-234.1" font-family="Calibri" font-weight="bold" font-size="13.00" fill="#8b4513">13</text>
</a>
</g>
<g id="a_state_10013_item_1"><a xlink:href="#" xlink:title="state_10013_item_1">
<text text-anchor="start" x="1028" y="-213.3" font-family="Times,serif" font-size="14.00" fill="#bc1f29">E </text>
<text text-anchor="start" x="1041" y="-213.3" font-family="Times,serif" font-size="14.00" fill="#0a5040">→ </text>
<text text-anchor="start" x="1060" y="-213.3" font-family="Times,serif" font-size="14.00" fill="#bc1f29"> E</text>
<text text-anchor="start" x="1073" y="-213.3" font-family="Times,serif" font-size="14.00" fill="#0a5040"> *</text>
<text text-anchor="start" x="1085" y="-213.3" font-family="Times,serif" font-size="14.00" fill="#bc1f29"> E</text>
<text text-anchor="start" x="1098" y="-213.3" font-family="Times,serif" font-size="14.00" fill="#f5a70a"> •</text>
</a>
</g>
</g>
<!-- state_10011&#45;&gt;state_10013 -->
<g id="trans_21" class="edge">
<title>state_10011&#45;&gt;state_10013</title>
<path fill="none" stroke="#b8860b" stroke-width="1.5" d="M967.376,-226.5C979.5792,-226.5 992.8531,-226.5 1005.637,-226.5"/>
<polygon fill="#b8860b" stroke="#b8860b" stroke-width="1.5" points="1005.7546,-230.0001 1015.7546,-226.5 1005.7545,-223.0001 1005.7546,-230.0001"/>
<text text-anchor="start" x="985" y="-230.3" font-family="Times,serif" font-size="14.00" fill="#bc1f29"> E</text>
</g>
</g>
</svg>
