<?xml version="1.0" encoding="UTF-8" standalone="no"?>
<!DOCTYPE svg PUBLIC "-//W3C//DTD SVG 1.1//EN"
 "http://www.w3.org/Graphics/SVG/1.1/DTD/svg11.dtd">
<!-- Generated by graphviz version 2.40.1 (20161225.0304)
 -->
<!-- Title: DFA Pages: 1 -->
<svg width="1130pt" height="520pt"
 viewBox="0.00 0.00 1130.00 520.00" xmlns="http://www.w3.org/2000/svg" xmlns:xlink="http://www.w3.org/1999/xlink">
<g id="graph0" class="graph" transform="scale(1 1) rotate(0) translate(4 516)">
<title>DFA</title>
<!-- state_1 -->
<g id="state_1" class="node">
<title>state_1</title>
<path fill="#fffff0" stroke="#b8860b" stroke-width="1.5" d="M91,-418.5C91,-418.5 12,-418.5 12,-418.5 6,-418.5 0,-412.5 0,-406.5 0,-406.5 0,-247.5 0,-247.5 0,-241.5 6,-235.5 12,-235.5 12,-235.5 91,-235.5 91,-235.5 97,-235.5 103,-241.5 103,-247.5 103,-247.5 103,-406.5 103,-406.5 103,-412.5 97,-418.5 91,-418.5"/>
<g id="a_state_1_title"><a xlink:href="#" xlink:title="state_1_title">
<text text-anchor="start" x="29" y="-397.6" font-family="Calibri" font-weight="bold" font-size="13.00" fill="#8b4513">Estado </text>
<text text-anchor="start" x="68" y="-397.6" font-family="Calibri" font-weight="bold" font-size="13.00" fill="#8b4513">1</text>
</a>
</g>
<g id="a_state_1_item_1"><a xlink:href="#" xlink:title="state_1_item_1">
<text text-anchor="start" x="11.5" y="-376.8" font-family="Times,serif" font-size="14.00" fill="#bc1f29">E&#39; </text>
<text text-anchor="start" x="27.5" y="-376.8" font-family="Times,serif" font-size="14.00" fill="#0a5040">→ </text>
<text text-anchor="start" x="46.5" y="-376.8" font-family="Times,serif" font-size="14.00" fill="#f5a70a"> •</text>
<text text-anchor="start" x="56.5" y="-376.8" font-family="Times,serif" font-size="14.00" fill="#bc1f29"> E</text>
<text text-anchor="start" x="69.5" y="-376.8" font-family="Times,serif" font-size="14.00" fill="#0a5040"> $</text>
</a>
</g>
<g id="a_state_1_item_2"><a xlink:href="#" xlink:title="state_1_item_2">
<text text-anchor="start" x="11.5" y="-355.8" font-family="Times,serif" font-size="14.00" fill="#bc1f29">E </text>
<text text-anchor="start" x="24.5" y="-355.8" font-family="Times,serif" font-size="14.00" fill="#0a5040">→ </text>
<text text-anchor="start" x="43.5" y="-355.8" font-family="Times,serif" font-size="14.00" fill="#f5a70a"> •</text>
<text text-anchor="start" x="53.5" y="-355.8" font-family="Times,serif" font-size="14.00" fill="#bc1f29"> E</text>
<text text-anchor="start" x="66.5" y="-355.8" font-family="Times,serif" font-size="14.00" fill="#0a5040"> +</text>
<text text-anchor="start" x="79.5" y="-355.8" font-family="Times,serif" font-size="14.00" fill="#bc1f29"> T</text>
</a>
</g>
<g id="a_state_1_item_3"><a xlink:href="#" xlink:title="state_1_item_3">
<text text-anchor="start" x="11.5" y="-334.8" font-family="Times,serif" font-size="14.00" fill="#bc1f29">E </text>
<text text-anchor="start" x="24.5" y="-334.8" font-family="Times,serif" font-size="14.00" fill="#0a5040">→ </text>
<text text-anchor="start" x="43.5" y="-334.8" font-family="Times,serif" font-size="14.00" fill="#f5a70a"> •</text>
<text text-anchor="start" x="53.5" y="-334.8" font-family="Times,serif" font-size="14.00" fill="#bc1f29"> T</text>
</a>
</g>
<g id="a_state_1_item_4"><a xlink:href="#" xlink:title="state_1_item_4">
<text text-anchor="start" x="11.5" y="-313.8" font-family="Times,serif" font-size="14.00" fill="#bc1f29">T </text>
<text text-anchor="start" x="24.5" y="-313.8" font-family="Times,serif" font-size="14.00" fill="#0a5040">→ </text>
<text text-anchor="start" x="43.5" y="-313.8" font-family="Times,serif" font-size="14.00" fill="#f5a70a"> •</text>
<text text-anchor="start" x="53.5" y="-313.8" font-family="Times,serif" font-size="14.00" fill="#bc1f29"> T</text>
<text text-anchor="start" x="66.5" y="-313.8" font-family="Times,serif" font-size="14.00" fill="#0a5040"> *</text>
<text text-anchor="start" x="78.5" y="-313.8" font-family="Times,serif" font-size="14.00" fill="#bc1f29"> F</text>
</a>
</g>
<g id="a_state_1_item_5"><a xlink:href="#" xlink:title="state_1_item_5">
<text text-anchor="start" x="11.5" y="-292.8" font-family="Times,serif" font-size="14.00" fill="#bc1f29">T </text>
<text text-anchor="start" x="24.5" y="-292.8" font-family="Times,serif" font-size="14.00" fill="#0a5040">→ </text>
<text text-anchor="start" x="43.5" y="-292.8" font-family="Times,serif" font-size="14.00" fill="#f5a70a"> •</text>
<text text-anchor="start" x="53.5" y="-292.8" font-family="Times,serif" font-size="14.00" fill="#bc1f29"> F</text>
</a>
</g>
<g id="a_state_1_item_6"><a xlink:href="#" xlink:title="state_1_item_6">
<text text-anchor="start" x="11.5" y="-271.8" font-family="Times,serif" font-size="14.00" fill="#bc1f29">F </text>
<text text-anchor="start" x="24.5" y="-271.8" font-family="Times,serif" font-size="14.00" fill="#0a5040">→ </text>
<text text-anchor="start" x="43.5" y="-271.8" font-family="Times,serif" font-size="14.00" fill="#f5a70a"> •</text>
<text text-anchor="start" x="53.5" y="-271.8" font-family="Times,serif" font-size="14.00" fill="#0a5040"> ( </text>
<text text-anchor="start" x="66.5" y="-271.8" font-family="Times,serif" font-size="14.00" fill="#bc1f29"> E</text>
<text text-anchor="start" x="79.5" y="-271.8" font-family="Times,serif" font-size="14.00" fill="#0a5040"> )</text>
</a>
</g>
<g id="a_state_1_item_7"><a xlink:href="#" xlink:title="state_1_item_7">
<text text-anchor="start" x="11.5" y="-250.8" font-family="Times,serif" font-size="14.00" fill="#bc1f29">F </text>
<text text-anchor="start" x="24.5" y="-250.8" font-family="Times,serif" font-size="14.00" fill="#0a5040">→ </text>
<text text-anchor="start" x="43.5" y="-250.8" font-family="Times,serif" font-size="14.00" fill="#f5a70a"> •</text>
<text text-anchor="start" x="53.5" y="-250.8" font-family="Times,serif" font-size="14.00" fill="#0a5040"> id</text>
</a>
</g>
</g>
<!-- state_2 -->
<g id="state_2" class="node">
<title>state_2</title>
<path fill="#fffff0" stroke="#b8860b" stroke-width="1.5" d="M243,-299C243,-299 164,-299 164,-299 158,-299 152,-293 152,-287 152,-287 152,-233 152,-233 152,-227 158,-221 164,-221 164,-221 243,-221 243,-221 249,-221 255,-227 255,-233 255,-233 255,-287 255,-287 255,-293 249,-299 243,-299"/>
<g id="a_state_2_title"><a xlink:href="#" xlink:title="state_2_title">
<text text-anchor="start" x="181" y="-278.6" font-family="Calibri" font-weight="bold" font-size="13.00" fill="#8b4513">Estado </text>
<text text-anchor="start" x="220" y="-278.6" font-family="Calibri" font-weight="bold" font-size="13.00" fill="#8b4513">2</text>
</a>
</g>
<g id="a_state_2_item_1"><a xlink:href="#" xlink:title="state_2_item_1">
<text text-anchor="start" x="163.5" y="-257.8" font-family="Times,serif" font-size="14.00" fill="#bc1f29">E&#39; </text>
<text text-anchor="start" x="179.5" y="-257.8" font-family="Times,serif" font-size="14.00" fill="#0a5040">→ </text>
<text text-anchor="start" x="198.5" y="-257.8" font-family="Times,serif" font-size="14.00" fill="#bc1f29"> E</text>
<text text-anchor="start" x="211.5" y="-257.8" font-family="Times,serif" font-size="14.00" fill="#f5a70a"> •</text>
<text text-anchor="start" x="221.5" y="-257.8" font-family="Times,serif" font-size="14.00" fill="#0a5040"> $</text>
</a>
</g>
<g id="a_state_2_item_2"><a xlink:href="#" xlink:title="state_2_item_2">
<text text-anchor="start" x="163.5" y="-236.8" font-family="Times,serif" font-size="14.00" fill="#bc1f29">E </text>
<text text-anchor="start" x="176.5" y="-236.8" font-family="Times,serif" font-size="14.00" fill="#0a5040">→ </text>
<text text-anchor="start" x="195.5" y="-236.8" font-family="Times,serif" font-size="14.00" fill="#bc1f29"> E</text>
<text text-anchor="start" x="208.5" y="-236.8" font-family="Times,serif" font-size="14.00" fill="#f5a70a"> •</text>
<text text-anchor="start" x="218.5" y="-236.8" font-family="Times,serif" font-size="14.00" fill="#0a5040"> +</text>
<text text-anchor="start" x="231.5" y="-236.8" font-family="Times,serif" font-size="14.00" fill="#bc1f29"> T</text>
</a>
</g>
</g>
<!-- state_1&#45;&gt;state_2 -->
<g id="trans_3" class="edge">
<title>state_1&#45;&gt;state_2</title>
<path fill="none" stroke="#b8860b" stroke-width="1.5" d="M103.3846,-304.1298C115.98,-298.5779 129.5611,-292.5915 142.5336,-286.8734"/>
<polygon fill="#b8860b" stroke="#b8860b" stroke-width="1.5" points="144.1104,-290.0033 151.8492,-282.7671 141.287,-283.598 144.1104,-290.0033"/>
<text text-anchor="start" x="121" y="-298.8" font-family="Times,serif" font-size="14.00" fill="#bc1f29"> E</text>
</g>
<!-- state_5 -->
<g id="state_5" class="node">
<title>state_5</title>
<path fill="#fffff0" stroke="#b8860b" stroke-width="1.5" d="M547,-351.5C547,-351.5 468,-351.5 468,-351.5 462,-351.5 456,-345.5 456,-339.5 456,-339.5 456,-180.5 456,-180.5 456,-174.5 462,-168.5 468,-168.5 468,-168.5 547,-168.5 547,-168.5 553,-168.5 559,-174.5 559,-180.5 559,-180.5 559,-339.5 559,-339.5 559,-345.5 553,-351.5 547,-351.5"/>
<g id="a_state_5_title"><a xlink:href="#" xlink:title="state_5_title">
<text text-anchor="start" x="485" y="-330.6" font-family="Calibri" font-weight="bold" font-size="13.00" fill="#8b4513">Estado </text>
<text text-anchor="start" x="524" y="-330.6" font-family="Calibri" font-weight="bold" font-size="13.00" fill="#8b4513">5</text>
</a>
</g>
<g id="a_state_5_item_1"><a xlink:href="#" xlink:title="state_5_item_1">
<text text-anchor="start" x="467.5" y="-309.8" font-family="Times,serif" font-size="14.00" fill="#bc1f29">F </text>
<text text-anchor="start" x="480.5" y="-309.8" font-family="Times,serif" font-size="14.00" fill="#0a5040">→ </text>
<text text-anchor="start" x="499.5" y="-309.8" font-family="Times,serif" font-size="14.00" fill="#0a5040"> ( </text>
<text text-anchor="start" x="512.5" y="-309.8" font-family="Times,serif" font-size="14.00" fill="#f5a70a"> •</text>
<text text-anchor="start" x="522.5" y="-309.8" font-family="Times,serif" font-size="14.00" fill="#bc1f29"> E</text>
<text text-anchor="start" x="535.5" y="-309.8" font-family="Times,serif" font-size="14.00" fill="#0a5040"> )</text>
</a>
</g>
<g id="a_state_5_item_2"><a xlink:href="#" xlink:title="state_5_item_2">
<text text-anchor="start" x="467.5" y="-288.8" font-family="Times,serif" font-size="14.00" fill="#bc1f29">E </text>
<text text-anchor="start" x="480.5" y="-288.8" font-family="Times,serif" font-size="14.00" fill="#0a5040">→ </text>
<text text-anchor="start" x="499.5" y="-288.8" font-family="Times,serif" font-size="14.00" fill="#f5a70a"> •</text>
<text text-anchor="start" x="509.5" y="-288.8" font-family="Times,serif" font-size="14.00" fill="#bc1f29"> E</text>
<text text-anchor="start" x="522.5" y="-288.8" font-family="Times,serif" font-size="14.00" fill="#0a5040"> +</text>
<text text-anchor="start" x="535.5" y="-288.8" font-family="Times,serif" font-size="14.00" fill="#bc1f29"> T</text>
</a>
</g>
<g id="a_state_5_item_3"><a xlink:href="#" xlink:title="state_5_item_3">
<text text-anchor="start" x="467.5" y="-267.8" font-family="Times,serif" font-size="14.00" fill="#bc1f29">E </text>
<text text-anchor="start" x="480.5" y="-267.8" font-family="Times,serif" font-size="14.00" fill="#0a5040">→ </text>
<text text-anchor="start" x="499.5" y="-267.8" font-family="Times,serif" font-size="14.00" fill="#f5a70a"> •</text>
<text text-anchor="start" x="509.5" y="-267.8" font-family="Times,serif" font-size="14.00" fill="#bc1f29"> T</text>
</a>
</g>
<g id="a_state_5_item_4"><a xlink:href="#" xlink:title="state_5_item_4">
<text text-anchor="start" x="467.5" y="-246.8" font-family="Times,serif" font-size="14.00" fill="#bc1f29">T </text>
<text text-anchor="start" x="480.5" y="-246.8" font-family="Times,serif" font-size="14.00" fill="#0a5040">→ </text>
<text text-anchor="start" x="499.5" y="-246.8" font-family="Times,serif" font-size="14.00" fill="#f5a70a"> •</text>
<text text-anchor="start" x="509.5" y="-246.8" font-family="Times,serif" font-size="14.00" fill="#bc1f29"> T</text>
<text text-anchor="start" x="522.5" y="-246.8" font-family="Times,serif" font-size="14.00" fill="#0a5040"> *</text>
<text text-anchor="start" x="534.5" y="-246.8" font-family="Times,serif" font-size="14.00" fill="#bc1f29"> F</text>
</a>
</g>
<g id="a_state_5_item_5"><a xlink:href="#" xlink:title="state_5_item_5">
<text text-anchor="start" x="467.5" y="-225.8" font-family="Times,serif" font-size="14.00" fill="#bc1f29">T </text>
<text text-anchor="start" x="480.5" y="-225.8" font-family="Times,serif" font-size="14.00" fill="#0a5040">→ </text>
<text text-anchor="start" x="499.5" y="-225.8" font-family="Times,serif" font-size="14.00" fill="#f5a70a"> •</text>
<text text-anchor="start" x="509.5" y="-225.8" font-family="Times,serif" font-size="14.00" fill="#bc1f29"> F</text>
</a>
</g>
<g id="a_state_5_item_6"><a xlink:href="#" xlink:title="state_5_item_6">
<text text-anchor="start" x="467.5" y="-204.8" font-family="Times,serif" font-size="14.00" fill="#bc1f29">F </text>
<text text-anchor="start" x="480.5" y="-204.8" font-family="Times,serif" font-size="14.00" fill="#0a5040">→ </text>
<text text-anchor="start" x="499.5" y="-204.8" font-family="Times,serif" font-size="14.00" fill="#f5a70a"> •</text>
<text text-anchor="start" x="509.5" y="-204.8" font-family="Times,serif" font-size="14.00" fill="#0a5040"> ( </text>
<text text-anchor="start" x="522.5" y="-204.8" font-family="Times,serif" font-size="14.00" fill="#bc1f29"> E</text>
<text text-anchor="start" x="535.5" y="-204.8" font-family="Times,serif" font-size="14.00" fill="#0a5040"> )</text>
</a>
</g>
<g id="a_state_5_item_7"><a xlink:href="#" xlink:title="state_5_item_7">
<text text-anchor="start" x="467.5" y="-183.8" font-family="Times,serif" font-size="14.00" fill="#bc1f29">F </text>
<text text-anchor="start" x="480.5" y="-183.8" font-family="Times,serif" font-size="14.00" fill="#0a5040">→ </text>
<text text-anchor="start" x="499.5" y="-183.8" font-family="Times,serif" font-size="14.00" fill="#f5a70a"> •</text>
<text text-anchor="start" x="509.5" y="-183.8" font-family="Times,serif" font-size="14.00" fill="#0a5040"> id</text>
</a>
</g>
</g>
<!-- state_1&#45;&gt;state_5 -->
<g id="trans_2" class="edge">
<title>state_1&#45;&gt;state_5</title>
<path fill="none" stroke="#b8860b" stroke-width="1.5" d="M103.2906,-329.5289C173.2872,-331.6576 301.473,-330.9807 407,-305 420.0911,-301.777 433.5965,-296.9146 446.2944,-291.5608"/>
<polygon fill="#b8860b" stroke="#b8860b" stroke-width="1.5" points="448.0685,-294.605 455.8269,-287.3899 445.2625,-288.192 448.0685,-294.605"/>
<text text-anchor="start" x="273" y="-328.8" font-family="Times,serif" font-size="14.00" fill="#0a5040"> ( </text>
</g>
<!-- state_4 -->
<g id="state_4" class="node">
<title>state_4</title>
<path fill="#fffff0" stroke="#b8860b" stroke-width="1.5" d="M776,-202.5C776,-202.5 723,-202.5 723,-202.5 717,-202.5 711,-196.5 711,-190.5 711,-190.5 711,-157.5 711,-157.5 711,-151.5 717,-145.5 723,-145.5 723,-145.5 776,-145.5 776,-145.5 782,-145.5 788,-151.5 788,-157.5 788,-157.5 788,-190.5 788,-190.5 788,-196.5 782,-202.5 776,-202.5"/>
<path fill="none" stroke="#b8860b" stroke-width="1.5" d="M780,-206.5C780,-206.5 719,-206.5 719,-206.5 713,-206.5 707,-200.5 707,-194.5 707,-194.5 707,-153.5 707,-153.5 707,-147.5 713,-141.5 719,-141.5 719,-141.5 780,-141.5 780,-141.5 786,-141.5 792,-147.5 792,-153.5 792,-153.5 792,-194.5 792,-194.5 792,-200.5 786,-206.5 780,-206.5"/>
<g id="a_state_4_title"><a xlink:href="#" xlink:title="state_4_title">
<text text-anchor="start" x="727" y="-181.6" font-family="Calibri" font-weight="bold" font-size="13.00" fill="#8b4513">Estado </text>
<text text-anchor="start" x="766" y="-181.6" font-family="Calibri" font-weight="bold" font-size="13.00" fill="#8b4513">4</text>
</a>
</g>
<g id="a_state_4_item_1"><a xlink:href="#" xlink:title="state_4_item_1">
<text text-anchor="start" x="722.5" y="-160.8" font-family="Times,serif" font-size="14.00" fill="#bc1f29">T </text>
<text text-anchor="start" x="735.5" y="-160.8" font-family="Times,serif" font-size="14.00" fill="#0a5040">→ </text>
<text text-anchor="start" x="754.5" y="-160.8" font-family="Times,serif" font-size="14.00" fill="#bc1f29"> F</text>
<text text-anchor="start" x="767.5" y="-160.8" font-family="Times,serif" font-size="14.00" fill="#f5a70a"> •</text>
</a>
</g>
</g>
<!-- state_1&#45;&gt;state_4 -->
<g id="trans_1" class="edge">
<title>state_1&#45;&gt;state_4</title>
<path fill="none" stroke="#b8860b" stroke-width="1.5" d="M61.3973,-235.1615C76.2117,-150.5381 112.9376,-38 203.5,-38 203.5,-38 203.5,-38 431.5,-38 532.2261,-38 637.4898,-96.3961 698.0943,-136.6575"/>
<polygon fill="#b8860b" stroke="#b8860b" stroke-width="1.5" points="696.4565,-139.7742 706.706,-142.457 700.3666,-133.9681 696.4565,-139.7742"/>
<text text-anchor="start" x="349" y="-41.8" font-family="Times,serif" font-size="14.00" fill="#bc1f29"> F</text>
</g>
<!-- state_6 -->
<g id="state_6" class="node">
<title>state_6</title>
<path fill="#fffff0" stroke="#b8860b" stroke-width="1.5" d="M1095,-281.5C1095,-281.5 1039,-281.5 1039,-281.5 1033,-281.5 1027,-275.5 1027,-269.5 1027,-269.5 1027,-236.5 1027,-236.5 1027,-230.5 1033,-224.5 1039,-224.5 1039,-224.5 1095,-224.5 1095,-224.5 1101,-224.5 1107,-230.5 1107,-236.5 1107,-236.5 1107,-269.5 1107,-269.5 1107,-275.5 1101,-281.5 1095,-281.5"/>
<path fill="none" stroke="#b8860b" stroke-width="1.5" d="M1099,-285.5C1099,-285.5 1035,-285.5 1035,-285.5 1029,-285.5 1023,-279.5 1023,-273.5 1023,-273.5 1023,-232.5 1023,-232.5 1023,-226.5 1029,-220.5 1035,-220.5 1035,-220.5 1099,-220.5 1099,-220.5 1105,-220.5 1111,-226.5 1111,-232.5 1111,-232.5 1111,-273.5 1111,-273.5 1111,-279.5 1105,-285.5 1099,-285.5"/>
<g id="a_state_6_title"><a xlink:href="#" xlink:title="state_6_title">
<text text-anchor="start" x="1044" y="-260.6" font-family="Calibri" font-weight="bold" font-size="13.00" fill="#8b4513">Estado </text>
<text text-anchor="start" x="1083" y="-260.6" font-family="Calibri" font-weight="bold" font-size="13.00" fill="#8b4513">6</text>
</a>
</g>
<g id="a_state_6_item_1"><a xlink:href="#" xlink:title="state_6_item_1">
<text text-anchor="start" x="1038" y="-239.8" font-family="Times,serif" font-size="14.00" fill="#bc1f29">F </text>
<text text-anchor="start" x="1051" y="-239.8" font-family="Times,serif" font-size="14.00" fill="#0a5040">→ </text>
<text text-anchor="start" x="1070" y="-239.8" font-family="Times,serif" font-size="14.00" fill="#0a5040"> id</text>
<text text-anchor="start" x="1086" y="-239.8" font-family="Times,serif" font-size="14.00" fill="#f5a70a"> •</text>
</a>
</g>
</g>
<!-- state_1&#45;&gt;state_6 -->
<g id="trans_5" class="edge">
<title>state_1&#45;&gt;state_6</title>
<path fill="none" stroke="#b8860b" stroke-width="1.5" d="M93.7622,-418.9657C119.0177,-459.0213 155.595,-497 203.5,-497 203.5,-497 203.5,-497 906.5,-497 978.7482,-497 963.8872,-425.6736 994,-360 1005.604,-334.6927 996.7994,-323.3249 1012,-300 1013.4401,-297.7902 1015.014,-295.6267 1016.6902,-293.5167"/>
<polygon fill="#b8860b" stroke="#b8860b" stroke-width="1.5" points="1019.6229,-295.4815 1023.5947,-285.6593 1014.3646,-290.8609 1019.6229,-295.4815"/>
<text text-anchor="start" x="499.5" y="-500.8" font-family="Times,serif" font-size="14.00" fill="#0a5040"> id</text>
</g>
<!-- state_3 -->
<g id="state_3" class="node">
<title>state_3</title>
<path fill="#f5f5dc" stroke="#b8860b" stroke-width="1.5" stroke-dasharray="5,2" d="M788.5,-393C788.5,-393 710.5,-393 710.5,-393 704.5,-393 698.5,-387 698.5,-381 698.5,-381 698.5,-327 698.5,-327 698.5,-321 704.5,-315 710.5,-315 710.5,-315 788.5,-315 788.5,-315 794.5,-315 800.5,-321 800.5,-327 800.5,-327 800.5,-381 800.5,-381 800.5,-387 794.5,-393 788.5,-393"/>
<g id="a_state_3_title"><a xlink:href="#" xlink:title="state_3_title">
<text text-anchor="start" x="726.5" y="-372.6" font-family="Calibri" font-weight="bold" font-size="13.00" fill="#8b4513">Estado </text>
<text text-anchor="start" x="765.5" y="-372.6" font-family="Calibri" font-weight="bold" font-size="13.00" fill="#8b4513">3</text>
</a>
</g>
<g id="a_state_3_item_1"><a xlink:href="#" xlink:title="state_3_item_1">
<text text-anchor="start" x="709.5" y="-351.8" font-family="Times,serif" font-size="14.00" fill="#bc1f29">E </text>
<text text-anchor="start" x="722.5" y="-351.8" font-family="Times,serif" font-size="14.00" fill="#0a5040">→ </text>
<text text-anchor="start" x="741.5" y="-351.8" font-family="Times,serif" font-size="14.00" fill="#bc1f29"> T</text>
<text text-anchor="start" x="754.5" y="-351.8" font-family="Times,serif" font-size="14.00" fill="#f5a70a"> •</text>
</a>
</g>
<g id="a_state_3_item_2"><a xlink:href="#" xlink:title="state_3_item_2">
<text text-anchor="start" x="709.5" y="-330.8" font-family="Times,serif" font-size="14.00" fill="#bc1f29">T </text>
<text text-anchor="start" x="722.5" y="-330.8" font-family="Times,serif" font-size="14.00" fill="#0a5040">→ </text>
<text text-anchor="start" x="741.5" y="-330.8" font-family="Times,serif" font-size="14.00" fill="#bc1f29"> T</text>
<text text-anchor="start" x="754.5" y="-330.8" font-family="Times,serif" font-size="14.00" fill="#f5a70a"> •</text>
<text text-anchor="start" x="764.5" y="-330.8" font-family="Times,serif" font-size="14.00" fill="#0a5040"> *</text>
<text text-anchor="start" x="776.5" y="-330.8" font-family="Times,serif" font-size="14.00" fill="#bc1f29"> F</text>
</a>
</g>
</g>
<!-- state_1&#45;&gt;state_3 -->
<g id="trans_4" class="edge">
<title>state_1&#45;&gt;state_3</title>
<path fill="none" stroke="#b8860b" stroke-width="1.5" d="M103.053,-398.0532C129.3834,-425.759 164.1652,-451 203.5,-451 203.5,-451 203.5,-451 507.5,-451 584.4187,-451 616.9398,-481.0444 680,-437 693.3277,-427.6913 688.6526,-416.9919 696.5831,-401.536"/>
<polygon fill="#b8860b" stroke="#b8860b" stroke-width="1.5" points="699.6016,-403.3123 702.0413,-393.0022 693.7047,-399.5406 699.6016,-403.3123"/>
<text text-anchor="start" x="349" y="-454.8" font-family="Times,serif" font-size="14.00" fill="#bc1f29"> T</text>
</g>
<!-- state_8 -->
<g id="state_8" class="node">
<title>state_8</title>
<path fill="#fffff0" stroke="#b8860b" stroke-width="1.5" d="M395,-212.5C395,-212.5 316,-212.5 316,-212.5 310,-212.5 304,-206.5 304,-200.5 304,-200.5 304,-83.5 304,-83.5 304,-77.5 310,-71.5 316,-71.5 316,-71.5 395,-71.5 395,-71.5 401,-71.5 407,-77.5 407,-83.5 407,-83.5 407,-200.5 407,-200.5 407,-206.5 401,-212.5 395,-212.5"/>
<g id="a_state_8_title"><a xlink:href="#" xlink:title="state_8_title">
<text text-anchor="start" x="333" y="-191.6" font-family="Calibri" font-weight="bold" font-size="13.00" fill="#8b4513">Estado </text>
<text text-anchor="start" x="372" y="-191.6" font-family="Calibri" font-weight="bold" font-size="13.00" fill="#8b4513">8</text>
</a>
</g>
<g id="a_state_8_item_1"><a xlink:href="#" xlink:title="state_8_item_1">
<text text-anchor="start" x="315.5" y="-170.8" font-family="Times,serif" font-size="14.00" fill="#bc1f29">E </text>
<text text-anchor="start" x="328.5" y="-170.8" font-family="Times,serif" font-size="14.00" fill="#0a5040">→ </text>
<text text-anchor="start" x="347.5" y="-170.8" font-family="Times,serif" font-size="14.00" fill="#bc1f29"> E</text>
<text text-anchor="start" x="360.5" y="-170.8" font-family="Times,serif" font-size="14.00" fill="#0a5040"> +</text>
<text text-anchor="start" x="373.5" y="-170.8" font-family="Times,serif" font-size="14.00" fill="#f5a70a"> •</text>
<text text-anchor="start" x="383.5" y="-170.8" font-family="Times,serif" font-size="14.00" fill="#bc1f29"> T</text>
</a>
</g>
<g id="a_state_8_item_2"><a xlink:href="#" xlink:title="state_8_item_2">
<text text-anchor="start" x="315.5" y="-149.8" font-family="Times,serif" font-size="14.00" fill="#bc1f29">T </text>
<text text-anchor="start" x="328.5" y="-149.8" font-family="Times,serif" font-size="14.00" fill="#0a5040">→ </text>
<text text-anchor="start" x="347.5" y="-149.8" font-family="Times,serif" font-size="14.00" fill="#f5a70a"> •</text>
<text text-anchor="start" x="357.5" y="-149.8" font-family="Times,serif" font-size="14.00" fill="#bc1f29"> T</text>
<text text-anchor="start" x="370.5" y="-149.8" font-family="Times,serif" font-size="14.00" fill="#0a5040"> *</text>
<text text-anchor="start" x="382.5" y="-149.8" font-family="Times,serif" font-size="14.00" fill="#bc1f29"> F</text>
</a>
</g>
<g id="a_state_8_item_3"><a xlink:href="#" xlink:title="state_8_item_3">
<text text-anchor="start" x="315.5" y="-128.8" font-family="Times,serif" font-size="14.00" fill="#bc1f29">T </text>
<text text-anchor="start" x="328.5" y="-128.8" font-family="Times,serif" font-size="14.00" fill="#0a5040">→ </text>
<text text-anchor="start" x="347.5" y="-128.8" font-family="Times,serif" font-size="14.00" fill="#f5a70a"> •</text>
<text text-anchor="start" x="357.5" y="-128.8" font-family="Times,serif" font-size="14.00" fill="#bc1f29"> F</text>
</a>
</g>
<g id="a_state_8_item_4"><a xlink:href="#" xlink:title="state_8_item_4">
<text text-anchor="start" x="315.5" y="-107.8" font-family="Times,serif" font-size="14.00" fill="#bc1f29">F </text>
<text text-anchor="start" x="328.5" y="-107.8" font-family="Times,serif" font-size="14.00" fill="#0a5040">→ </text>
<text text-anchor="start" x="347.5" y="-107.8" font-family="Times,serif" font-size="14.00" fill="#f5a70a"> •</text>
<text text-anchor="start" x="357.5" y="-107.8" font-family="Times,serif" font-size="14.00" fill="#0a5040"> ( </text>
<text text-anchor="start" x="370.5" y="-107.8" font-family="Times,serif" font-size="14.00" fill="#bc1f29"> E</text>
<text text-anchor="start" x="383.5" y="-107.8" font-family="Times,serif" font-size="14.00" fill="#0a5040"> )</text>
</a>
</g>
<g id="a_state_8_item_5"><a xlink:href="#" xlink:title="state_8_item_5">
<text text-anchor="start" x="315.5" y="-86.8" font-family="Times,serif" font-size="14.00" fill="#bc1f29">F </text>
<text text-anchor="start" x="328.5" y="-86.8" font-family="Times,serif" font-size="14.00" fill="#0a5040">→ </text>
<text text-anchor="start" x="347.5" y="-86.8" font-family="Times,serif" font-size="14.00" fill="#f5a70a"> •</text>
<text text-anchor="start" x="357.5" y="-86.8" font-family="Times,serif" font-size="14.00" fill="#0a5040"> id</text>
</a>
</g>
</g>
<!-- state_2&#45;&gt;state_8 -->
<g id="trans_7" class="edge">
<title>state_2&#45;&gt;state_8</title>
<path fill="none" stroke="#b8860b" stroke-width="1.5" d="M254.1138,-220.7077C267.4694,-210.3395 282.0067,-199.054 295.7934,-188.3512"/>
<polygon fill="#b8860b" stroke="#b8860b" stroke-width="1.5" points="298.0566,-191.0252 303.8094,-182.1282 293.764,-185.4958 298.0566,-191.0252"/>
<text text-anchor="start" x="273" y="-208.8" font-family="Times,serif" font-size="14.00" fill="#0a5040"> +</text>
</g>
<!-- state_7 -->
<g id="state_7" class="node">
<title>state_7</title>
<path fill="#fffff0" stroke="#b8860b" stroke-width="1.5" d="M389.5,-291.5C389.5,-291.5 321.5,-291.5 321.5,-291.5 315.5,-291.5 309.5,-285.5 309.5,-279.5 309.5,-279.5 309.5,-246.5 309.5,-246.5 309.5,-240.5 315.5,-234.5 321.5,-234.5 321.5,-234.5 389.5,-234.5 389.5,-234.5 395.5,-234.5 401.5,-240.5 401.5,-246.5 401.5,-246.5 401.5,-279.5 401.5,-279.5 401.5,-285.5 395.5,-291.5 389.5,-291.5"/>
<path fill="none" stroke="#b8860b" stroke-width="1.5" d="M393.5,-295.5C393.5,-295.5 317.5,-295.5 317.5,-295.5 311.5,-295.5 305.5,-289.5 305.5,-283.5 305.5,-283.5 305.5,-242.5 305.5,-242.5 305.5,-236.5 311.5,-230.5 317.5,-230.5 317.5,-230.5 393.5,-230.5 393.5,-230.5 399.5,-230.5 405.5,-236.5 405.5,-242.5 405.5,-242.5 405.5,-283.5 405.5,-283.5 405.5,-289.5 399.5,-295.5 393.5,-295.5"/>
<g id="a_state_7_title"><a xlink:href="#" xlink:title="state_7_title">
<text text-anchor="start" x="332.5" y="-270.6" font-family="Calibri" font-weight="bold" font-size="13.00" fill="#8b4513">Estado </text>
<text text-anchor="start" x="371.5" y="-270.6" font-family="Calibri" font-weight="bold" font-size="13.00" fill="#8b4513">7</text>
</a>
</g>
<g id="a_state_7_item_1"><a xlink:href="#" xlink:title="state_7_item_1">
<text text-anchor="start" x="320.5" y="-249.8" font-family="Times,serif" font-size="14.00" fill="#bc1f29">E&#39; </text>
<text text-anchor="start" x="336.5" y="-249.8" font-family="Times,serif" font-size="14.00" fill="#0a5040">→ </text>
<text text-anchor="start" x="355.5" y="-249.8" font-family="Times,serif" font-size="14.00" fill="#bc1f29"> E</text>
<text text-anchor="start" x="368.5" y="-249.8" font-family="Times,serif" font-size="14.00" fill="#0a5040"> $</text>
<text text-anchor="start" x="380.5" y="-249.8" font-family="Times,serif" font-size="14.00" fill="#f5a70a"> •</text>
</a>
</g>
</g>
<!-- state_2&#45;&gt;state_7 -->
<g id="trans_6" class="edge">
<title>state_2&#45;&gt;state_7</title>
<path fill="none" stroke="#b8860b" stroke-width="1.5" d="M255.3846,-261.024C268.1426,-261.2758 281.9119,-261.5476 295.0357,-261.8066"/>
<polygon fill="#b8860b" stroke="#b8860b" stroke-width="1.5" points="295.3234,-265.3129 305.3906,-262.011 295.4616,-258.3143 295.3234,-265.3129"/>
<text text-anchor="start" x="273.5" y="-264.8" font-family="Times,serif" font-size="14.00" fill="#0a5040"> $</text>
</g>
<!-- state_5&#45;&gt;state_5 -->
<g id="trans_10" class="edge">
<title>state_5&#45;&gt;state_5</title>
<path fill="none" stroke="#b8860b" stroke-width="1.5" d="M495.3383,-351.8625C497.5828,-362.5482 501.6367,-369.5 507.5,-369.5 511.3478,-369.5 514.4163,-366.5061 516.7056,-361.4278"/>
<polygon fill="#b8860b" stroke="#b8860b" stroke-width="1.5" points="520.053,-362.4501 519.6617,-351.8625 513.365,-360.3832 520.053,-362.4501"/>
<text text-anchor="start" x="501" y="-373.3" font-family="Times,serif" font-size="14.00" fill="#0a5040"> ( </text>
</g>
<!-- state_10 -->
<g id="state_10" class="node">
<title>state_10</title>
<path fill="#fffff0" stroke="#b8860b" stroke-width="1.5" d="M789,-123C789,-123 710,-123 710,-123 704,-123 698,-117 698,-111 698,-111 698,-57 698,-57 698,-51 704,-45 710,-45 710,-45 789,-45 789,-45 795,-45 801,-51 801,-57 801,-57 801,-111 801,-111 801,-117 795,-123 789,-123"/>
<g id="a_state_10_title"><a xlink:href="#" xlink:title="state_10_title">
<text text-anchor="start" x="723.5" y="-102.6" font-family="Calibri" font-weight="bold" font-size="13.00" fill="#8b4513">Estado </text>
<text text-anchor="start" x="762.5" y="-102.6" font-family="Calibri" font-weight="bold" font-size="13.00" fill="#8b4513">10</text>
</a>
</g>
<g id="a_state_10_item_1"><a xlink:href="#" xlink:title="state_10_item_1">
<text text-anchor="start" x="709.5" y="-81.8" font-family="Times,serif" font-size="14.00" fill="#bc1f29">F </text>
<text text-anchor="start" x="722.5" y="-81.8" font-family="Times,serif" font-size="14.00" fill="#0a5040">→ </text>
<text text-anchor="start" x="741.5" y="-81.8" font-family="Times,serif" font-size="14.00" fill="#0a5040"> ( </text>
<text text-anchor="start" x="754.5" y="-81.8" font-family="Times,serif" font-size="14.00" fill="#bc1f29"> E</text>
<text text-anchor="start" x="767.5" y="-81.8" font-family="Times,serif" font-size="14.00" fill="#f5a70a"> •</text>
<text text-anchor="start" x="777.5" y="-81.8" font-family="Times,serif" font-size="14.00" fill="#0a5040"> )</text>
</a>
</g>
<g id="a_state_10_item_2"><a xlink:href="#" xlink:title="state_10_item_2">
<text text-anchor="start" x="709.5" y="-60.8" font-family="Times,serif" font-size="14.00" fill="#bc1f29">E </text>
<text text-anchor="start" x="722.5" y="-60.8" font-family="Times,serif" font-size="14.00" fill="#0a5040">→ </text>
<text text-anchor="start" x="741.5" y="-60.8" font-family="Times,serif" font-size="14.00" fill="#bc1f29"> E</text>
<text text-anchor="start" x="754.5" y="-60.8" font-family="Times,serif" font-size="14.00" fill="#f5a70a"> •</text>
<text text-anchor="start" x="764.5" y="-60.8" font-family="Times,serif" font-size="14.00" fill="#0a5040"> +</text>
<text text-anchor="start" x="777.5" y="-60.8" font-family="Times,serif" font-size="14.00" fill="#bc1f29"> T</text>
</a>
</g>
</g>
<!-- state_5&#45;&gt;state_10 -->
<g id="trans_11" class="edge">
<title>state_5&#45;&gt;state_10</title>
<path fill="none" stroke="#b8860b" stroke-width="1.5" d="M559.1457,-184.0461C564.7991,-177.9177 570.7754,-172.1242 577,-167 609.9521,-139.8732 653.2548,-119.0752 688.2303,-105.083"/>
<polygon fill="#b8860b" stroke="#b8860b" stroke-width="1.5" points="689.8205,-108.2193 697.8588,-101.3173 687.2709,-101.7001 689.8205,-108.2193"/>
<text text-anchor="start" x="622" y="-170.8" font-family="Times,serif" font-size="14.00" fill="#bc1f29"> E</text>
</g>
<!-- state_5&#45;&gt;state_4 -->
<g id="trans_9" class="edge">
<title>state_5&#45;&gt;state_4</title>
<path fill="none" stroke="#b8860b" stroke-width="1.5" d="M559.0055,-216.7633C564.851,-213.0774 570.9044,-209.7241 577,-207 587.925,-202.1177 650.3157,-190.8143 696.9456,-182.8006"/>
<polygon fill="#b8860b" stroke="#b8860b" stroke-width="1.5" points="697.6619,-186.2291 706.9289,-181.0936 696.482,-179.3292 697.6619,-186.2291"/>
<text text-anchor="start" x="622" y="-210.8" font-family="Times,serif" font-size="14.00" fill="#bc1f29"> F</text>
</g>
<!-- state_5&#45;&gt;state_6 -->
<g id="trans_13" class="edge">
<title>state_5&#45;&gt;state_6</title>
<path fill="none" stroke="#b8860b" stroke-width="1.5" d="M559.1028,-256.7345C565.1344,-256.4404 571.2017,-256.1845 577,-256 735.2189,-250.9659 922.3151,-251.6651 1012.7153,-252.4225"/>
<polygon fill="#b8860b" stroke="#b8860b" stroke-width="1.5" points="1012.6989,-255.9224 1022.7291,-252.51 1012.7601,-248.9227 1012.6989,-255.9224"/>
<text text-anchor="start" x="819" y="-256.8" font-family="Times,serif" font-size="14.00" fill="#0a5040"> id</text>
</g>
<!-- state_5&#45;&gt;state_3 -->
<g id="trans_12" class="edge">
<title>state_5&#45;&gt;state_3</title>
<path fill="none" stroke="#b8860b" stroke-width="1.5" d="M559.0757,-287.8187C565.057,-290.7146 571.1204,-293.5062 577,-296 613.2693,-311.3834 655.1312,-325.5411 688.533,-336.0175"/>
<polygon fill="#b8860b" stroke="#b8860b" stroke-width="1.5" points="687.5755,-339.385 698.1637,-339.01 689.6526,-332.7003 687.5755,-339.385"/>
<text text-anchor="start" x="622" y="-335.8" font-family="Times,serif" font-size="14.00" fill="#bc1f29"> T</text>
</g>
<!-- state_8&#45;&gt;state_5 -->
<g id="trans_16" class="edge">
<title>state_8&#45;&gt;state_5</title>
<path fill="none" stroke="#b8860b" stroke-width="1.5" d="M407.3846,-182.2789C420.3468,-192.3416 434.3531,-203.2149 447.6655,-213.5495"/>
<polygon fill="#b8860b" stroke="#b8860b" stroke-width="1.5" points="445.8038,-216.5351 455.8492,-219.9027 450.0963,-211.0057 445.8038,-216.5351"/>
<text text-anchor="start" x="425" y="-208.8" font-family="Times,serif" font-size="14.00" fill="#0a5040"> ( </text>
</g>
<!-- state_8&#45;&gt;state_4 -->
<g id="trans_15" class="edge">
<title>state_8&#45;&gt;state_4</title>
<path fill="none" stroke="#b8860b" stroke-width="1.5" d="M407.2257,-137.7166C471.7565,-133.603 585.1598,-130.4356 680,-149 685.5055,-150.0777 691.1591,-151.5172 696.7494,-153.1633"/>
<polygon fill="#b8860b" stroke="#b8860b" stroke-width="1.5" points="696.1076,-156.6314 706.6977,-156.3161 698.2224,-149.9585 696.1076,-156.6314"/>
<text text-anchor="start" x="501" y="-139.8" font-family="Times,serif" font-size="14.00" fill="#bc1f29"> F</text>
</g>
<!-- state_8&#45;&gt;state_6 -->
<g id="trans_17" class="edge">
<title>state_8&#45;&gt;state_6</title>
<path fill="none" stroke="#b8860b" stroke-width="1.5" d="M396.5224,-71.416C422.9789,-35.7779 461.0951,0 507.5,0 507.5,0 507.5,0 906.5,0 1004.9128,0 1045.5257,-138.1851 1060.0203,-210.3056"/>
<polygon fill="#b8860b" stroke="#b8860b" stroke-width="1.5" points="1056.6446,-211.2853 1061.9731,-220.4426 1063.5182,-209.9611 1056.6446,-211.2853"/>
<text text-anchor="start" x="741.5" y="-3.8" font-family="Times,serif" font-size="14.00" fill="#0a5040"> id</text>
</g>
<!-- state_11 -->
<g id="state_11" class="node">
<title>state_11</title>
<path fill="#f5f5dc" stroke="#b8860b" stroke-width="1.5" stroke-dasharray="5,2" d="M668,-436C668,-436 589,-436 589,-436 583,-436 577,-430 577,-424 577,-424 577,-370 577,-370 577,-364 583,-358 589,-358 589,-358 668,-358 668,-358 674,-358 680,-364 680,-370 680,-370 680,-424 680,-424 680,-430 674,-436 668,-436"/>
<g id="a_state_11_title"><a xlink:href="#" xlink:title="state_11_title">
<text text-anchor="start" x="602.5" y="-415.6" font-family="Calibri" font-weight="bold" font-size="13.00" fill="#8b4513">Estado </text>
<text text-anchor="start" x="641.5" y="-415.6" font-family="Calibri" font-weight="bold" font-size="13.00" fill="#8b4513">11</text>
</a>
</g>
<g id="a_state_11_item_1"><a xlink:href="#" xlink:title="state_11_item_1">
<text text-anchor="start" x="588.5" y="-394.8" font-family="Times,serif" font-size="14.00" fill="#bc1f29">E </text>
<text text-anchor="start" x="601.5" y="-394.8" font-family="Times,serif" font-size="14.00" fill="#0a5040">→ </text>
<text text-anchor="start" x="620.5" y="-394.8" font-family="Times,serif" font-size="14.00" fill="#bc1f29"> E</text>
<text text-anchor="start" x="633.5" y="-394.8" font-family="Times,serif" font-size="14.00" fill="#0a5040"> +</text>
<text text-anchor="start" x="646.5" y="-394.8" font-family="Times,serif" font-size="14.00" fill="#bc1f29"> T</text>
<text text-anchor="start" x="659.5" y="-394.8" font-family="Times,serif" font-size="14.00" fill="#f5a70a"> •</text>
</a>
</g>
<g id="a_state_11_item_2"><a xlink:href="#" xlink:title="state_11_item_2">
<text text-anchor="start" x="588.5" y="-373.8" font-family="Times,serif" font-size="14.00" fill="#bc1f29">T </text>
<text text-anchor="start" x="601.5" y="-373.8" font-family="Times,serif" font-size="14.00" fill="#0a5040">→ </text>
<text text-anchor="start" x="620.5" y="-373.8" font-family="Times,serif" font-size="14.00" fill="#bc1f29"> T</text>
<text text-anchor="start" x="633.5" y="-373.8" font-family="Times,serif" font-size="14.00" fill="#f5a70a"> •</text>
<text text-anchor="start" x="643.5" y="-373.8" font-family="Times,serif" font-size="14.00" fill="#0a5040"> *</text>
<text text-anchor="start" x="655.5" y="-373.8" font-family="Times,serif" font-size="14.00" fill="#bc1f29"> F</text>
</a>
</g>
</g>
<!-- state_8&#45;&gt;state_11 -->
<g id="trans_14" class="edge">
<title>state_8&#45;&gt;state_11</title>
<path fill="none" stroke="#b8860b" stroke-width="1.5" d="M403.1083,-212.9274C404.4768,-215.6215 405.7799,-218.3174 407,-221 440.0852,-293.743 392.6778,-345.2509 456,-394 486.9143,-417.7996 531.027,-418.1571 566.9042,-412.7662"/>
<polygon fill="#b8860b" stroke="#b8860b" stroke-width="1.5" points="567.5043,-416.2145 576.7872,-411.108 566.3459,-409.311 567.5043,-416.2145"/>
<text text-anchor="start" x="425" y="-378.8" font-family="Times,serif" font-size="14.00" fill="#bc1f29"> T</text>
</g>
<!-- state_9 -->
<g id="state_9" class="node">
<title>state_9</title>
<path fill="#fffff0" stroke="#b8860b" stroke-width="1.5" d="M945.5,-390.5C945.5,-390.5 867.5,-390.5 867.5,-390.5 861.5,-390.5 855.5,-384.5 855.5,-378.5 855.5,-378.5 855.5,-303.5 855.5,-303.5 855.5,-297.5 861.5,-291.5 867.5,-291.5 867.5,-291.5 945.5,-291.5 945.5,-291.5 951.5,-291.5 957.5,-297.5 957.5,-303.5 957.5,-303.5 957.5,-378.5 957.5,-378.5 957.5,-384.5 951.5,-390.5 945.5,-390.5"/>
<g id="a_state_9_title"><a xlink:href="#" xlink:title="state_9_title">
<text text-anchor="start" x="883.5" y="-369.6" font-family="Calibri" font-weight="bold" font-size="13.00" fill="#8b4513">Estado </text>
<text text-anchor="start" x="922.5" y="-369.6" font-family="Calibri" font-weight="bold" font-size="13.00" fill="#8b4513">9</text>
</a>
</g>
<g id="a_state_9_item_1"><a xlink:href="#" xlink:title="state_9_item_1">
<text text-anchor="start" x="866.5" y="-348.8" font-family="Times,serif" font-size="14.00" fill="#bc1f29">T </text>
<text text-anchor="start" x="879.5" y="-348.8" font-family="Times,serif" font-size="14.00" fill="#0a5040">→ </text>
<text text-anchor="start" x="898.5" y="-348.8" font-family="Times,serif" font-size="14.00" fill="#bc1f29"> T</text>
<text text-anchor="start" x="911.5" y="-348.8" font-family="Times,serif" font-size="14.00" fill="#0a5040"> *</text>
<text text-anchor="start" x="923.5" y="-348.8" font-family="Times,serif" font-size="14.00" fill="#f5a70a"> •</text>
<text text-anchor="start" x="933.5" y="-348.8" font-family="Times,serif" font-size="14.00" fill="#bc1f29"> F</text>
</a>
</g>
<g id="a_state_9_item_2"><a xlink:href="#" xlink:title="state_9_item_2">
<text text-anchor="start" x="866.5" y="-327.8" font-family="Times,serif" font-size="14.00" fill="#bc1f29">F </text>
<text text-anchor="start" x="879.5" y="-327.8" font-family="Times,serif" font-size="14.00" fill="#0a5040">→ </text>
<text text-anchor="start" x="898.5" y="-327.8" font-family="Times,serif" font-size="14.00" fill="#f5a70a"> •</text>
<text text-anchor="start" x="908.5" y="-327.8" font-family="Times,serif" font-size="14.00" fill="#0a5040"> ( </text>
<text text-anchor="start" x="921.5" y="-327.8" font-family="Times,serif" font-size="14.00" fill="#bc1f29"> E</text>
<text text-anchor="start" x="934.5" y="-327.8" font-family="Times,serif" font-size="14.00" fill="#0a5040"> )</text>
</a>
</g>
<g id="a_state_9_item_3"><a xlink:href="#" xlink:title="state_9_item_3">
<text text-anchor="start" x="866.5" y="-306.8" font-family="Times,serif" font-size="14.00" fill="#bc1f29">F </text>
<text text-anchor="start" x="879.5" y="-306.8" font-family="Times,serif" font-size="14.00" fill="#0a5040">→ </text>
<text text-anchor="start" x="898.5" y="-306.8" font-family="Times,serif" font-size="14.00" fill="#f5a70a"> •</text>
<text text-anchor="start" x="908.5" y="-306.8" font-family="Times,serif" font-size="14.00" fill="#0a5040"> id</text>
</a>
</g>
</g>
<!-- state_9&#45;&gt;state_5 -->
<g id="trans_19" class="edge">
<title>state_9&#45;&gt;state_5</title>
<path fill="none" stroke="#b8860b" stroke-width="1.5" d="M855.2626,-312.4647C838.4389,-304.2639 819.3425,-296.1536 801,-291 723.0103,-269.0875 629.4055,-262.417 569.22,-260.5196"/>
<polygon fill="#b8860b" stroke="#b8860b" stroke-width="1.5" points="569.2138,-257.0182 559.1196,-260.2362 569.0175,-264.0154 569.2138,-257.0182"/>
<text text-anchor="start" x="743" y="-294.8" font-family="Times,serif" font-size="14.00" fill="#0a5040"> ( </text>
</g>
<!-- state_9&#45;&gt;state_6 -->
<g id="trans_20" class="edge">
<title>state_9&#45;&gt;state_6</title>
<path fill="none" stroke="#b8860b" stroke-width="1.5" d="M957.7245,-312.9143C975.5366,-303.1482 995.5536,-292.1731 1013.5417,-282.3104"/>
<polygon fill="#b8860b" stroke="#b8860b" stroke-width="1.5" points="1015.6553,-285.1433 1022.7411,-277.2666 1012.2899,-279.0053 1015.6553,-285.1433"/>
<text text-anchor="start" x="978" y="-302.8" font-family="Times,serif" font-size="14.00" fill="#0a5040"> id</text>
</g>
<!-- state_12 -->
<g id="state_12" class="node">
<title>state_12</title>
<path fill="#fffff0" stroke="#b8860b" stroke-width="1.5" d="M1106,-369.5C1106,-369.5 1028,-369.5 1028,-369.5 1022,-369.5 1016,-363.5 1016,-357.5 1016,-357.5 1016,-324.5 1016,-324.5 1016,-318.5 1022,-312.5 1028,-312.5 1028,-312.5 1106,-312.5 1106,-312.5 1112,-312.5 1118,-318.5 1118,-324.5 1118,-324.5 1118,-357.5 1118,-357.5 1118,-363.5 1112,-369.5 1106,-369.5"/>
<path fill="none" stroke="#b8860b" stroke-width="1.5" d="M1110,-373.5C1110,-373.5 1024,-373.5 1024,-373.5 1018,-373.5 1012,-367.5 1012,-361.5 1012,-361.5 1012,-320.5 1012,-320.5 1012,-314.5 1018,-308.5 1024,-308.5 1024,-308.5 1110,-308.5 1110,-308.5 1116,-308.5 1122,-314.5 1122,-320.5 1122,-320.5 1122,-361.5 1122,-361.5 1122,-367.5 1116,-373.5 1110,-373.5"/>
<g id="a_state_12_title"><a xlink:href="#" xlink:title="state_12_title">
<text text-anchor="start" x="1040.5" y="-348.6" font-family="Calibri" font-weight="bold" font-size="13.00" fill="#8b4513">Estado </text>
<text text-anchor="start" x="1079.5" y="-348.6" font-family="Calibri" font-weight="bold" font-size="13.00" fill="#8b4513">12</text>
</a>
</g>
<g id="a_state_12_item_1"><a xlink:href="#" xlink:title="state_12_item_1">
<text text-anchor="start" x="1027" y="-327.8" font-family="Times,serif" font-size="14.00" fill="#bc1f29">T </text>
<text text-anchor="start" x="1040" y="-327.8" font-family="Times,serif" font-size="14.00" fill="#0a5040">→ </text>
<text text-anchor="start" x="1059" y="-327.8" font-family="Times,serif" font-size="14.00" fill="#bc1f29"> T</text>
<text text-anchor="start" x="1072" y="-327.8" font-family="Times,serif" font-size="14.00" fill="#0a5040"> *</text>
<text text-anchor="start" x="1084" y="-327.8" font-family="Times,serif" font-size="14.00" fill="#bc1f29"> F</text>
<text text-anchor="start" x="1097" y="-327.8" font-family="Times,serif" font-size="14.00" fill="#f5a70a"> •</text>
</a>
</g>
</g>
<!-- state_9&#45;&gt;state_12 -->
<g id="trans_18" class="edge">
<title>state_9&#45;&gt;state_12</title>
<path fill="none" stroke="#b8860b" stroke-width="1.5" d="M957.7245,-341C971.7379,-341 987.1161,-341 1001.7974,-341"/>
<polygon fill="#b8860b" stroke="#b8860b" stroke-width="1.5" points="1001.8247,-344.5001 1011.8247,-341 1001.8246,-337.5001 1001.8247,-344.5001"/>
<text text-anchor="start" x="979.5" y="-344.8" font-family="Times,serif" font-size="14.00" fill="#bc1f29"> F</text>
</g>
<!-- state_10&#45;&gt;state_8 -->
<g id="trans_21" class="edge">
<title>state_10&#45;&gt;state_8</title>
<path fill="none" stroke="#b8860b" stroke-width="1.5" d="M697.7458,-87.3695C638.8525,-91.7289 539.9503,-100.6474 456,-116 443.2148,-118.3381 429.6574,-121.4222 416.7775,-124.6465"/>
<polygon fill="#b8860b" stroke="#b8860b" stroke-width="1.5" points="415.9029,-121.2574 407.0842,-127.1294 417.6399,-128.0385 415.9029,-121.2574"/>
<text text-anchor="start" x="501" y="-119.8" font-family="Times,serif" font-size="14.00" fill="#0a5040"> +</text>
</g>
<!-- state_13 -->
<g id="state_13" class="node">
<title>state_13</title>
<path fill="#fffff0" stroke="#b8860b" stroke-width="1.5" d="M944,-112.5C944,-112.5 869,-112.5 869,-112.5 863,-112.5 857,-106.5 857,-100.5 857,-100.5 857,-67.5 857,-67.5 857,-61.5 863,-55.5 869,-55.5 869,-55.5 944,-55.5 944,-55.5 950,-55.5 956,-61.5 956,-67.5 956,-67.5 956,-100.5 956,-100.5 956,-106.5 950,-112.5 944,-112.5"/>
<path fill="none" stroke="#b8860b" stroke-width="1.5" d="M948,-116.5C948,-116.5 865,-116.5 865,-116.5 859,-116.5 853,-110.5 853,-104.5 853,-104.5 853,-63.5 853,-63.5 853,-57.5 859,-51.5 865,-51.5 865,-51.5 948,-51.5 948,-51.5 954,-51.5 960,-57.5 960,-63.5 960,-63.5 960,-104.5 960,-104.5 960,-110.5 954,-116.5 948,-116.5"/>
<g id="a_state_13_title"><a xlink:href="#" xlink:title="state_13_title">
<text text-anchor="start" x="880.5" y="-91.6" font-family="Calibri" font-weight="bold" font-size="13.00" fill="#8b4513">Estado </text>
<text text-anchor="start" x="919.5" y="-91.6" font-family="Calibri" font-weight="bold" font-size="13.00" fill="#8b4513">13</text>
</a>
</g>
<g id="a_state_13_item_1"><a xlink:href="#" xlink:title="state_13_item_1">
<text text-anchor="start" x="868.5" y="-70.8" font-family="Times,serif" font-size="14.00" fill="#bc1f29">F </text>
<text text-anchor="start" x="881.5" y="-70.8" font-family="Times,serif" font-size="14.00" fill="#0a5040">→ </text>
<text text-anchor="start" x="900.5" y="-70.8" font-family="Times,serif" font-size="14.00" fill="#0a5040"> ( </text>
<text text-anchor="start" x="913.5" y="-70.8" font-family="Times,serif" font-size="14.00" fill="#bc1f29"> E</text>
<text text-anchor="start" x="926.5" y="-70.8" font-family="Times,serif" font-size="14.00" fill="#0a5040"> )</text>
<text text-anchor="start" x="935.5" y="-70.8" font-family="Times,serif" font-size="14.00" fill="#f5a70a"> •</text>
</a>
</g>
</g>
<!-- state_10&#45;&gt;state_13 -->
<g id="trans_22" class="edge">
<title>state_10&#45;&gt;state_13</title>
<path fill="none" stroke="#b8860b" stroke-width="1.5" d="M801.3428,-84C814.5102,-84 828.813,-84 842.5058,-84"/>
<polygon fill="#b8860b" stroke="#b8860b" stroke-width="1.5" points="842.829,-87.5001 852.8289,-84 842.8289,-80.5001 842.829,-87.5001"/>
<text text-anchor="start" x="822.5" y="-87.8" font-family="Times,serif" font-size="14.00" fill="#0a5040"> )</text>
</g>
<!-- state_3&#45;&gt;state_9 -->
<g id="trans_8" class="edge">
<title>state_3&#45;&gt;state_9</title>
<path fill="none" stroke="#b8860b" stroke-width="1.5" d="M800.9077,-349.7433C815.0766,-348.5701 830.5878,-347.2857 845.2537,-346.0713"/>
<polygon fill="#b8860b" stroke="#b8860b" stroke-width="1.5" points="845.5681,-349.5574 855.2451,-345.244 844.9904,-342.5813 845.5681,-349.5574"/>
<text text-anchor="start" x="821" y="-350.8" font-family="Times,serif" font-size="14.00" fill="#0a5040"> *</text>
</g>
<!-- state_11&#45;&gt;state_9 -->
<g id="trans_23" class="edge">
<title>state_11&#45;&gt;state_9</title>
<path fill="none" stroke="#b8860b" stroke-width="1.5" d="M680.3508,-406.1787C715.0811,-410.472 761.5008,-412.5973 801,-402 816.6532,-397.8004 832.3848,-390.6524 846.7462,-382.6964"/>
<polygon fill="#b8860b" stroke="#b8860b" stroke-width="1.5" points="848.5784,-385.6803 855.4983,-377.6575 845.0857,-379.6139 848.5784,-385.6803"/>
<text text-anchor="start" x="743.5" y="-412.8" font-family="Times,serif" font-size="14.00" fill="#0a5040"> *</text>
</g>
</g>
</svg>
