<?xml version="1.0" encoding="UTF-8" standalone="no"?>
<!DOCTYPE svg PUBLIC "-//W3C//DTD SVG 1.1//EN"
 "http://www.w3.org/Graphics/SVG/1.1/DTD/svg11.dtd">
<!-- Generated by graphviz version 2.40.1 (20161225.0304)
 -->
<!-- Title: DFA Pages: 1 -->
<svg width="567pt" height="320pt"
 viewBox="0.00 0.00 567.00 319.50" xmlns="http://www.w3.org/2000/svg" xmlns:xlink="http://www.w3.org/1999/xlink">
<g id="graph0" class="graph" transform="scale(1 1) rotate(0) translate(4 315.5)">
<title>DFA</title>
<!-- state_1 -->
<g id="state_1" class="node">
<title>state_1</title>
<path fill="#fffff0" stroke="#b8860b" stroke-width="1.5" d="M89,-223.5C89,-223.5 12,-223.5 12,-223.5 6,-223.5 0,-217.5 0,-211.5 0,-211.5 0,-94.5 0,-94.5 0,-88.5 6,-82.5 12,-82.5 12,-82.5 89,-82.5 89,-82.5 95,-82.5 101,-88.5 101,-94.5 101,-94.5 101,-211.5 101,-211.5 101,-217.5 95,-223.5 89,-223.5"/>
<g id="a_state_1_title"><a xlink:href="#" xlink:title="state_1_title">
<text text-anchor="start" x="28" y="-202.6" font-family="Calibri" font-weight="bold" font-size="13.00" fill="#8b4513">Estado </text>
<text text-anchor="start" x="67" y="-202.6" font-family="Calibri" font-weight="bold" font-size="13.00" fill="#8b4513">1</text>
</a>
</g>
<g id="a_state_1_item_1"><a xlink:href="#" xlink:title="state_1_item_1">
<text text-anchor="start" x="11.5" y="-181.8" font-family="Times,serif" font-size="14.00" fill="#bc1f29">A&#39; </text>
<text text-anchor="start" x="28.5" y="-181.8" font-family="Times,serif" font-size="14.00" fill="#0a5040">→ </text>
<text text-anchor="start" x="47.5" y="-181.8" font-family="Times,serif" font-size="14.00" fill="#f5a70a"> •</text>
<text text-anchor="start" x="57.5" y="-181.8" font-family="Times,serif" font-size="14.00" fill="#bc1f29"> A</text>
<text text-anchor="start" x="71.5" y="-181.8" font-family="Times,serif" font-size="14.00" fill="#0a5040"> $</text>
</a>
</g>
<g id="a_state_1_item_2"><a xlink:href="#" xlink:title="state_1_item_2">
<text text-anchor="start" x="11.5" y="-160.8" font-family="Times,serif" font-size="14.00" fill="#bc1f29">A </text>
<text text-anchor="start" x="25.5" y="-160.8" font-family="Times,serif" font-size="14.00" fill="#0a5040">→ </text>
<text text-anchor="start" x="44.5" y="-160.8" font-family="Times,serif" font-size="14.00" fill="#f5a70a"> •</text>
<text text-anchor="start" x="54.5" y="-160.8" font-family="Times,serif" font-size="14.00" fill="#bc1f29"> B</text>
<text text-anchor="start" x="68.5" y="-160.8" font-family="Times,serif" font-size="14.00" fill="#0a5040"> c</text>
<text text-anchor="start" x="78.5" y="-160.8" font-family="Times,serif" font-size="14.00" fill="#0a5040"> d</text>
</a>
</g>
<g id="a_state_1_item_3"><a xlink:href="#" xlink:title="state_1_item_3">
<text text-anchor="start" x="11.5" y="-139.8" font-family="Times,serif" font-size="14.00" fill="#bc1f29">A </text>
<text text-anchor="start" x="25.5" y="-139.8" font-family="Times,serif" font-size="14.00" fill="#0a5040">→ </text>
<text text-anchor="start" x="44.5" y="-139.8" font-family="Times,serif" font-size="14.00" fill="#f5a70a"> •</text>
<text text-anchor="start" x="54.5" y="-139.8" font-family="Times,serif" font-size="14.00" fill="#bc1f29"> E</text>
<text text-anchor="start" x="67.5" y="-139.8" font-family="Times,serif" font-size="14.00" fill="#0a5040"> c</text>
<text text-anchor="start" x="77.5" y="-139.8" font-family="Times,serif" font-size="14.00" fill="#0a5040"> f</text>
</a>
</g>
<g id="a_state_1_item_4"><a xlink:href="#" xlink:title="state_1_item_4">
<text text-anchor="start" x="11.5" y="-118.8" font-family="Times,serif" font-size="14.00" fill="#bc1f29">B </text>
<text text-anchor="start" x="25.5" y="-118.8" font-family="Times,serif" font-size="14.00" fill="#0a5040">→ </text>
<text text-anchor="start" x="44.5" y="-118.8" font-family="Times,serif" font-size="14.00" fill="#f5a70a"> •</text>
<text text-anchor="start" x="54.5" y="-118.8" font-family="Times,serif" font-size="14.00" fill="#0a5040"> x</text>
<text text-anchor="start" x="66.5" y="-118.8" font-family="Times,serif" font-size="14.00" fill="#0a5040"> y</text>
</a>
</g>
<g id="a_state_1_item_5"><a xlink:href="#" xlink:title="state_1_item_5">
<text text-anchor="start" x="11.5" y="-97.8" font-family="Times,serif" font-size="14.00" fill="#bc1f29">E </text>
<text text-anchor="start" x="24.5" y="-97.8" font-family="Times,serif" font-size="14.00" fill="#0a5040">→ </text>
<text text-anchor="start" x="43.5" y="-97.8" font-family="Times,serif" font-size="14.00" fill="#f5a70a"> •</text>
<text text-anchor="start" x="53.5" y="-97.8" font-family="Times,serif" font-size="14.00" fill="#0a5040"> x</text>
<text text-anchor="start" x="65.5" y="-97.8" font-family="Times,serif" font-size="14.00" fill="#0a5040"> y</text>
</a>
</g>
</g>
<!-- state_2 -->
<g id="state_2" class="node">
<title>state_2</title>
<path fill="#fffff0" stroke="#b8860b" stroke-width="1.5" d="M236.5,-305.5C236.5,-305.5 166.5,-305.5 166.5,-305.5 160.5,-305.5 154.5,-299.5 154.5,-293.5 154.5,-293.5 154.5,-260.5 154.5,-260.5 154.5,-254.5 160.5,-248.5 166.5,-248.5 166.5,-248.5 236.5,-248.5 236.5,-248.5 242.5,-248.5 248.5,-254.5 248.5,-260.5 248.5,-260.5 248.5,-293.5 248.5,-293.5 248.5,-299.5 242.5,-305.5 236.5,-305.5"/>
<g id="a_state_2_title"><a xlink:href="#" xlink:title="state_2_title">
<text text-anchor="start" x="178.5" y="-284.6" font-family="Calibri" font-weight="bold" font-size="13.00" fill="#8b4513">Estado </text>
<text text-anchor="start" x="217.5" y="-284.6" font-family="Calibri" font-weight="bold" font-size="13.00" fill="#8b4513">2</text>
</a>
</g>
<g id="a_state_2_item_1"><a xlink:href="#" xlink:title="state_2_item_1">
<text text-anchor="start" x="165.5" y="-263.8" font-family="Times,serif" font-size="14.00" fill="#bc1f29">A&#39; </text>
<text text-anchor="start" x="182.5" y="-263.8" font-family="Times,serif" font-size="14.00" fill="#0a5040">→ </text>
<text text-anchor="start" x="201.5" y="-263.8" font-family="Times,serif" font-size="14.00" fill="#bc1f29"> A</text>
<text text-anchor="start" x="215.5" y="-263.8" font-family="Times,serif" font-size="14.00" fill="#f5a70a"> •</text>
<text text-anchor="start" x="225.5" y="-263.8" font-family="Times,serif" font-size="14.00" fill="#0a5040"> $</text>
</a>
</g>
</g>
<!-- state_1&#45;&gt;state_2 -->
<g id="trans_3" class="edge">
<title>state_1&#45;&gt;state_2</title>
<path fill="none" stroke="#b8860b" stroke-width="1.5" d="M101.0029,-196.4663C116.8813,-209.9288 134.5615,-224.7117 151,-238 152.7149,-239.3863 154.4684,-240.7927 156.2442,-242.2079"/>
<polygon fill="#b8860b" stroke="#b8860b" stroke-width="1.5" points="154.1059,-244.979 164.122,-248.4326 158.4457,-239.4867 154.1059,-244.979"/>
<text text-anchor="start" x="119" y="-225.8" font-family="Times,serif" font-size="14.00" fill="#bc1f29"> A</text>
</g>
<!-- state_3 -->
<g id="state_3" class="node">
<title>state_3</title>
<path fill="#fffff0" stroke="#b8860b" stroke-width="1.5" d="M240,-228.5C240,-228.5 163,-228.5 163,-228.5 157,-228.5 151,-222.5 151,-216.5 151,-216.5 151,-183.5 151,-183.5 151,-177.5 157,-171.5 163,-171.5 163,-171.5 240,-171.5 240,-171.5 246,-171.5 252,-177.5 252,-183.5 252,-183.5 252,-216.5 252,-216.5 252,-222.5 246,-228.5 240,-228.5"/>
<g id="a_state_3_title"><a xlink:href="#" xlink:title="state_3_title">
<text text-anchor="start" x="179" y="-207.6" font-family="Calibri" font-weight="bold" font-size="13.00" fill="#8b4513">Estado </text>
<text text-anchor="start" x="218" y="-207.6" font-family="Calibri" font-weight="bold" font-size="13.00" fill="#8b4513">3</text>
</a>
</g>
<g id="a_state_3_item_1"><a xlink:href="#" xlink:title="state_3_item_1">
<text text-anchor="start" x="162.5" y="-186.8" font-family="Times,serif" font-size="14.00" fill="#bc1f29">A </text>
<text text-anchor="start" x="176.5" y="-186.8" font-family="Times,serif" font-size="14.00" fill="#0a5040">→ </text>
<text text-anchor="start" x="195.5" y="-186.8" font-family="Times,serif" font-size="14.00" fill="#bc1f29"> B</text>
<text text-anchor="start" x="209.5" y="-186.8" font-family="Times,serif" font-size="14.00" fill="#f5a70a"> •</text>
<text text-anchor="start" x="219.5" y="-186.8" font-family="Times,serif" font-size="14.00" fill="#0a5040"> c</text>
<text text-anchor="start" x="229.5" y="-186.8" font-family="Times,serif" font-size="14.00" fill="#0a5040"> d</text>
</a>
</g>
</g>
<!-- state_1&#45;&gt;state_3 -->
<g id="trans_4" class="edge">
<title>state_1&#45;&gt;state_3</title>
<path fill="none" stroke="#b8860b" stroke-width="1.5" d="M101.2009,-168.7811C114.0934,-172.794 128.0712,-177.1447 141.3828,-181.288"/>
<polygon fill="#b8860b" stroke="#b8860b" stroke-width="1.5" points="140.3446,-184.6304 150.9329,-184.2606 142.425,-177.9467 140.3446,-184.6304"/>
<text text-anchor="start" x="119" y="-180.8" font-family="Times,serif" font-size="14.00" fill="#bc1f29"> B</text>
</g>
<!-- state_4 -->
<g id="state_4" class="node">
<title>state_4</title>
<path fill="#fffff0" stroke="#b8860b" stroke-width="1.5" d="M238,-153.5C238,-153.5 165,-153.5 165,-153.5 159,-153.5 153,-147.5 153,-141.5 153,-141.5 153,-108.5 153,-108.5 153,-102.5 159,-96.5 165,-96.5 165,-96.5 238,-96.5 238,-96.5 244,-96.5 250,-102.5 250,-108.5 250,-108.5 250,-141.5 250,-141.5 250,-147.5 244,-153.5 238,-153.5"/>
<g id="a_state_4_title"><a xlink:href="#" xlink:title="state_4_title">
<text text-anchor="start" x="179" y="-132.6" font-family="Calibri" font-weight="bold" font-size="13.00" fill="#8b4513">Estado </text>
<text text-anchor="start" x="218" y="-132.6" font-family="Calibri" font-weight="bold" font-size="13.00" fill="#8b4513">4</text>
</a>
</g>
<g id="a_state_4_item_1"><a xlink:href="#" xlink:title="state_4_item_1">
<text text-anchor="start" x="164.5" y="-111.8" font-family="Times,serif" font-size="14.00" fill="#bc1f29">A </text>
<text text-anchor="start" x="178.5" y="-111.8" font-family="Times,serif" font-size="14.00" fill="#0a5040">→ </text>
<text text-anchor="start" x="197.5" y="-111.8" font-family="Times,serif" font-size="14.00" fill="#bc1f29"> E</text>
<text text-anchor="start" x="210.5" y="-111.8" font-family="Times,serif" font-size="14.00" fill="#f5a70a"> •</text>
<text text-anchor="start" x="220.5" y="-111.8" font-family="Times,serif" font-size="14.00" fill="#0a5040"> c</text>
<text text-anchor="start" x="230.5" y="-111.8" font-family="Times,serif" font-size="14.00" fill="#0a5040"> f</text>
</a>
</g>
</g>
<!-- state_1&#45;&gt;state_4 -->
<g id="trans_1" class="edge">
<title>state_1&#45;&gt;state_4</title>
<path fill="none" stroke="#b8860b" stroke-width="1.5" d="M101.2009,-143.5985C114.6449,-141.1056 129.2692,-138.3938 143.0875,-135.8315"/>
<polygon fill="#b8860b" stroke="#b8860b" stroke-width="1.5" points="143.7843,-139.262 152.9785,-133.9974 142.5079,-132.3793 143.7843,-139.262"/>
<text text-anchor="start" x="119.5" y="-142.8" font-family="Times,serif" font-size="14.00" fill="#bc1f29"> E</text>
</g>
<!-- state_5 -->
<g id="state_5" class="node">
<title>state_5</title>
<path fill="#fffff0" stroke="#b8860b" stroke-width="1.5" d="M234,-78C234,-78 169,-78 169,-78 163,-78 157,-72 157,-66 157,-66 157,-12 157,-12 157,-6 163,0 169,0 169,0 234,0 234,0 240,0 246,-6 246,-12 246,-12 246,-66 246,-66 246,-72 240,-78 234,-78"/>
<g id="a_state_5_title"><a xlink:href="#" xlink:title="state_5_title">
<text text-anchor="start" x="179" y="-57.6" font-family="Calibri" font-weight="bold" font-size="13.00" fill="#8b4513">Estado </text>
<text text-anchor="start" x="218" y="-57.6" font-family="Calibri" font-weight="bold" font-size="13.00" fill="#8b4513">5</text>
</a>
</g>
<g id="a_state_5_item_1"><a xlink:href="#" xlink:title="state_5_item_1">
<text text-anchor="start" x="168.5" y="-36.8" font-family="Times,serif" font-size="14.00" fill="#bc1f29">B </text>
<text text-anchor="start" x="182.5" y="-36.8" font-family="Times,serif" font-size="14.00" fill="#0a5040">→ </text>
<text text-anchor="start" x="201.5" y="-36.8" font-family="Times,serif" font-size="14.00" fill="#0a5040"> x</text>
<text text-anchor="start" x="213.5" y="-36.8" font-family="Times,serif" font-size="14.00" fill="#f5a70a"> •</text>
<text text-anchor="start" x="223.5" y="-36.8" font-family="Times,serif" font-size="14.00" fill="#0a5040"> y</text>
</a>
</g>
<g id="a_state_5_item_2"><a xlink:href="#" xlink:title="state_5_item_2">
<text text-anchor="start" x="168.5" y="-15.8" font-family="Times,serif" font-size="14.00" fill="#bc1f29">E </text>
<text text-anchor="start" x="181.5" y="-15.8" font-family="Times,serif" font-size="14.00" fill="#0a5040">→ </text>
<text text-anchor="start" x="200.5" y="-15.8" font-family="Times,serif" font-size="14.00" fill="#0a5040"> x</text>
<text text-anchor="start" x="212.5" y="-15.8" font-family="Times,serif" font-size="14.00" fill="#f5a70a"> •</text>
<text text-anchor="start" x="222.5" y="-15.8" font-family="Times,serif" font-size="14.00" fill="#0a5040"> y</text>
</a>
</g>
</g>
<!-- state_1&#45;&gt;state_5 -->
<g id="trans_2" class="edge">
<title>state_1&#45;&gt;state_5</title>
<path fill="none" stroke="#b8860b" stroke-width="1.5" d="M101.2009,-114.7225C116.3819,-103.2613 133.0678,-90.664 148.3988,-79.0896"/>
<polygon fill="#b8860b" stroke="#b8860b" stroke-width="1.5" points="150.8864,-81.5971 156.7585,-72.7783 146.6687,-76.0104 150.8864,-81.5971"/>
<text text-anchor="start" x="120" y="-103.8" font-family="Times,serif" font-size="14.00" fill="#0a5040"> x</text>
</g>
<!-- state_6 -->
<g id="state_6" class="node">
<title>state_6</title>
<path fill="#fffff0" stroke="#b8860b" stroke-width="1.5" d="M386,-307.5C386,-307.5 316,-307.5 316,-307.5 310,-307.5 304,-301.5 304,-295.5 304,-295.5 304,-262.5 304,-262.5 304,-256.5 310,-250.5 316,-250.5 316,-250.5 386,-250.5 386,-250.5 392,-250.5 398,-256.5 398,-262.5 398,-262.5 398,-295.5 398,-295.5 398,-301.5 392,-307.5 386,-307.5"/>
<path fill="none" stroke="#b8860b" stroke-width="1.5" d="M390,-311.5C390,-311.5 312,-311.5 312,-311.5 306,-311.5 300,-305.5 300,-299.5 300,-299.5 300,-258.5 300,-258.5 300,-252.5 306,-246.5 312,-246.5 312,-246.5 390,-246.5 390,-246.5 396,-246.5 402,-252.5 402,-258.5 402,-258.5 402,-299.5 402,-299.5 402,-305.5 396,-311.5 390,-311.5"/>
<g id="a_state_6_title"><a xlink:href="#" xlink:title="state_6_title">
<text text-anchor="start" x="328" y="-286.6" font-family="Calibri" font-weight="bold" font-size="13.00" fill="#8b4513">Estado </text>
<text text-anchor="start" x="367" y="-286.6" font-family="Calibri" font-weight="bold" font-size="13.00" fill="#8b4513">6</text>
</a>
</g>
<g id="a_state_6_item_1"><a xlink:href="#" xlink:title="state_6_item_1">
<text text-anchor="start" x="315" y="-265.8" font-family="Times,serif" font-size="14.00" fill="#bc1f29">A&#39; </text>
<text text-anchor="start" x="332" y="-265.8" font-family="Times,serif" font-size="14.00" fill="#0a5040">→ </text>
<text text-anchor="start" x="351" y="-265.8" font-family="Times,serif" font-size="14.00" fill="#bc1f29"> A</text>
<text text-anchor="start" x="365" y="-265.8" font-family="Times,serif" font-size="14.00" fill="#0a5040"> $</text>
<text text-anchor="start" x="377" y="-265.8" font-family="Times,serif" font-size="14.00" fill="#f5a70a"> •</text>
</a>
</g>
</g>
<!-- state_2&#45;&gt;state_6 -->
<g id="trans_5" class="edge">
<title>state_2&#45;&gt;state_6</title>
<path fill="none" stroke="#b8860b" stroke-width="1.5" d="M248.8027,-277.6328C261.7547,-277.8061 275.9834,-277.9964 289.6011,-278.1786"/>
<polygon fill="#b8860b" stroke="#b8860b" stroke-width="1.5" points="289.8183,-281.6817 299.8643,-278.3159 289.912,-274.6824 289.8183,-281.6817"/>
<text text-anchor="start" x="270" y="-281.8" font-family="Times,serif" font-size="14.00" fill="#0a5040"> $</text>
</g>
<!-- state_7 -->
<g id="state_7" class="node">
<title>state_7</title>
<path fill="#fffff0" stroke="#b8860b" stroke-width="1.5" d="M389.5,-228.5C389.5,-228.5 312.5,-228.5 312.5,-228.5 306.5,-228.5 300.5,-222.5 300.5,-216.5 300.5,-216.5 300.5,-183.5 300.5,-183.5 300.5,-177.5 306.5,-171.5 312.5,-171.5 312.5,-171.5 389.5,-171.5 389.5,-171.5 395.5,-171.5 401.5,-177.5 401.5,-183.5 401.5,-183.5 401.5,-216.5 401.5,-216.5 401.5,-222.5 395.5,-228.5 389.5,-228.5"/>
<g id="a_state_7_title"><a xlink:href="#" xlink:title="state_7_title">
<text text-anchor="start" x="328.5" y="-207.6" font-family="Calibri" font-weight="bold" font-size="13.00" fill="#8b4513">Estado </text>
<text text-anchor="start" x="367.5" y="-207.6" font-family="Calibri" font-weight="bold" font-size="13.00" fill="#8b4513">7</text>
</a>
</g>
<g id="a_state_7_item_1"><a xlink:href="#" xlink:title="state_7_item_1">
<text text-anchor="start" x="312" y="-186.8" font-family="Times,serif" font-size="14.00" fill="#bc1f29">A </text>
<text text-anchor="start" x="326" y="-186.8" font-family="Times,serif" font-size="14.00" fill="#0a5040">→ </text>
<text text-anchor="start" x="345" y="-186.8" font-family="Times,serif" font-size="14.00" fill="#bc1f29"> B</text>
<text text-anchor="start" x="359" y="-186.8" font-family="Times,serif" font-size="14.00" fill="#0a5040"> c</text>
<text text-anchor="start" x="369" y="-186.8" font-family="Times,serif" font-size="14.00" fill="#f5a70a"> •</text>
<text text-anchor="start" x="379" y="-186.8" font-family="Times,serif" font-size="14.00" fill="#0a5040"> d</text>
</a>
</g>
</g>
<!-- state_3&#45;&gt;state_7 -->
<g id="trans_6" class="edge">
<title>state_3&#45;&gt;state_7</title>
<path fill="none" stroke="#b8860b" stroke-width="1.5" d="M252.1139,-200C264.4126,-200 277.6878,-200 290.3968,-200"/>
<polygon fill="#b8860b" stroke="#b8860b" stroke-width="1.5" points="290.4383,-203.5001 300.4382,-200 290.4382,-196.5001 290.4383,-203.5001"/>
<text text-anchor="start" x="271" y="-203.8" font-family="Times,serif" font-size="14.00" fill="#0a5040"> c</text>
</g>
<!-- state_8 -->
<g id="state_8" class="node">
<title>state_8</title>
<path fill="#fffff0" stroke="#b8860b" stroke-width="1.5" d="M387.5,-153.5C387.5,-153.5 314.5,-153.5 314.5,-153.5 308.5,-153.5 302.5,-147.5 302.5,-141.5 302.5,-141.5 302.5,-108.5 302.5,-108.5 302.5,-102.5 308.5,-96.5 314.5,-96.5 314.5,-96.5 387.5,-96.5 387.5,-96.5 393.5,-96.5 399.5,-102.5 399.5,-108.5 399.5,-108.5 399.5,-141.5 399.5,-141.5 399.5,-147.5 393.5,-153.5 387.5,-153.5"/>
<g id="a_state_8_title"><a xlink:href="#" xlink:title="state_8_title">
<text text-anchor="start" x="328.5" y="-132.6" font-family="Calibri" font-weight="bold" font-size="13.00" fill="#8b4513">Estado </text>
<text text-anchor="start" x="367.5" y="-132.6" font-family="Calibri" font-weight="bold" font-size="13.00" fill="#8b4513">8</text>
</a>
</g>
<g id="a_state_8_item_1"><a xlink:href="#" xlink:title="state_8_item_1">
<text text-anchor="start" x="314" y="-111.8" font-family="Times,serif" font-size="14.00" fill="#bc1f29">A </text>
<text text-anchor="start" x="328" y="-111.8" font-family="Times,serif" font-size="14.00" fill="#0a5040">→ </text>
<text text-anchor="start" x="347" y="-111.8" font-family="Times,serif" font-size="14.00" fill="#bc1f29"> E</text>
<text text-anchor="start" x="360" y="-111.8" font-family="Times,serif" font-size="14.00" fill="#0a5040"> c</text>
<text text-anchor="start" x="370" y="-111.8" font-family="Times,serif" font-size="14.00" fill="#f5a70a"> •</text>
<text text-anchor="start" x="380" y="-111.8" font-family="Times,serif" font-size="14.00" fill="#0a5040"> f</text>
</a>
</g>
</g>
<!-- state_4&#45;&gt;state_8 -->
<g id="trans_7" class="edge">
<title>state_4&#45;&gt;state_8</title>
<path fill="none" stroke="#b8860b" stroke-width="1.5" d="M250.0384,-125C263.554,-125 278.3788,-125 292.4063,-125"/>
<polygon fill="#b8860b" stroke="#b8860b" stroke-width="1.5" points="292.4496,-128.5001 302.4495,-125 292.4495,-121.5001 292.4496,-128.5001"/>
<text text-anchor="start" x="271" y="-128.8" font-family="Times,serif" font-size="14.00" fill="#0a5040"> c</text>
</g>
<!-- state_9 -->
<g id="state_9" class="node">
<title>state_9</title>
<path fill="#f5f5dc" stroke="#b8860b" stroke-width="1.5" stroke-dasharray="5,2" d="M383.5,-78C383.5,-78 318.5,-78 318.5,-78 312.5,-78 306.5,-72 306.5,-66 306.5,-66 306.5,-12 306.5,-12 306.5,-6 312.5,0 318.5,0 318.5,0 383.5,0 383.5,0 389.5,0 395.5,-6 395.5,-12 395.5,-12 395.5,-66 395.5,-66 395.5,-72 389.5,-78 383.5,-78"/>
<g id="a_state_9_title"><a xlink:href="#" xlink:title="state_9_title">
<text text-anchor="start" x="328.5" y="-57.6" font-family="Calibri" font-weight="bold" font-size="13.00" fill="#8b4513">Estado </text>
<text text-anchor="start" x="367.5" y="-57.6" font-family="Calibri" font-weight="bold" font-size="13.00" fill="#8b4513">9</text>
</a>
</g>
<g id="a_state_9_item_1"><a xlink:href="#" xlink:title="state_9_item_1">
<text text-anchor="start" x="318" y="-36.8" font-family="Times,serif" font-size="14.00" fill="#bc1f29">B </text>
<text text-anchor="start" x="332" y="-36.8" font-family="Times,serif" font-size="14.00" fill="#0a5040">→ </text>
<text text-anchor="start" x="351" y="-36.8" font-family="Times,serif" font-size="14.00" fill="#0a5040"> x</text>
<text text-anchor="start" x="363" y="-36.8" font-family="Times,serif" font-size="14.00" fill="#0a5040"> y</text>
<text text-anchor="start" x="375" y="-36.8" font-family="Times,serif" font-size="14.00" fill="#f5a70a"> •</text>
</a>
</g>
<g id="a_state_9_item_2"><a xlink:href="#" xlink:title="state_9_item_2">
<text text-anchor="start" x="318" y="-15.8" font-family="Times,serif" font-size="14.00" fill="#bc1f29">E </text>
<text text-anchor="start" x="331" y="-15.8" font-family="Times,serif" font-size="14.00" fill="#0a5040">→ </text>
<text text-anchor="start" x="350" y="-15.8" font-family="Times,serif" font-size="14.00" fill="#0a5040"> x</text>
<text text-anchor="start" x="362" y="-15.8" font-family="Times,serif" font-size="14.00" fill="#0a5040"> y</text>
<text text-anchor="start" x="374" y="-15.8" font-family="Times,serif" font-size="14.00" fill="#f5a70a"> •</text>
</a>
</g>
</g>
<!-- state_5&#45;&gt;state_9 -->
<g id="trans_8" class="edge">
<title>state_5&#45;&gt;state_9</title>
<path fill="none" stroke="#b8860b" stroke-width="1.5" d="M246.3549,-39C262.0958,-39 279.9541,-39 296.405,-39"/>
<polygon fill="#b8860b" stroke="#b8860b" stroke-width="1.5" points="296.4345,-42.5001 306.4345,-39 296.4345,-35.5001 296.4345,-42.5001"/>
<text text-anchor="start" x="270" y="-42.8" font-family="Times,serif" font-size="14.00" fill="#0a5040"> y</text>
</g>
<!-- state_10 -->
<g id="state_10" class="node">
<title>state_10</title>
<path fill="#fffff0" stroke="#b8860b" stroke-width="1.5" d="M543,-232.5C543,-232.5 466,-232.5 466,-232.5 460,-232.5 454,-226.5 454,-220.5 454,-220.5 454,-187.5 454,-187.5 454,-181.5 460,-175.5 466,-175.5 466,-175.5 543,-175.5 543,-175.5 549,-175.5 555,-181.5 555,-187.5 555,-187.5 555,-220.5 555,-220.5 555,-226.5 549,-232.5 543,-232.5"/>
<path fill="none" stroke="#b8860b" stroke-width="1.5" d="M547,-236.5C547,-236.5 462,-236.5 462,-236.5 456,-236.5 450,-230.5 450,-224.5 450,-224.5 450,-183.5 450,-183.5 450,-177.5 456,-171.5 462,-171.5 462,-171.5 547,-171.5 547,-171.5 553,-171.5 559,-177.5 559,-183.5 559,-183.5 559,-224.5 559,-224.5 559,-230.5 553,-236.5 547,-236.5"/>
<g id="a_state_10_title"><a xlink:href="#" xlink:title="state_10_title">
<text text-anchor="start" x="478.5" y="-211.6" font-family="Calibri" font-weight="bold" font-size="13.00" fill="#8b4513">Estado </text>
<text text-anchor="start" x="517.5" y="-211.6" font-family="Calibri" font-weight="bold" font-size="13.00" fill="#8b4513">10</text>
</a>
</g>
<g id="a_state_10_item_1"><a xlink:href="#" xlink:title="state_10_item_1">
<text text-anchor="start" x="465.5" y="-190.8" font-family="Times,serif" font-size="14.00" fill="#bc1f29">A </text>
<text text-anchor="start" x="479.5" y="-190.8" font-family="Times,serif" font-size="14.00" fill="#0a5040">→ </text>
<text text-anchor="start" x="498.5" y="-190.8" font-family="Times,serif" font-size="14.00" fill="#bc1f29"> B</text>
<text text-anchor="start" x="512.5" y="-190.8" font-family="Times,serif" font-size="14.00" fill="#0a5040"> c</text>
<text text-anchor="start" x="522.5" y="-190.8" font-family="Times,serif" font-size="14.00" fill="#0a5040"> d</text>
<text text-anchor="start" x="534.5" y="-190.8" font-family="Times,serif" font-size="14.00" fill="#f5a70a"> •</text>
</a>
</g>
</g>
<!-- state_7&#45;&gt;state_10 -->
<g id="trans_9" class="edge">
<title>state_7&#45;&gt;state_10</title>
<path fill="none" stroke="#b8860b" stroke-width="1.5" d="M401.6871,-201.3208C413.8834,-201.6387 427.0762,-201.9824 439.8142,-202.3144"/>
<polygon fill="#b8860b" stroke="#b8860b" stroke-width="1.5" points="439.8168,-205.8155 449.9047,-202.5773 439.9993,-198.8179 439.8168,-205.8155"/>
<text text-anchor="start" x="420" y="-205.8" font-family="Times,serif" font-size="14.00" fill="#0a5040"> d</text>
</g>
<!-- state_11 -->
<g id="state_11" class="node">
<title>state_11</title>
<path fill="#fffff0" stroke="#b8860b" stroke-width="1.5" d="M541,-149.5C541,-149.5 468,-149.5 468,-149.5 462,-149.5 456,-143.5 456,-137.5 456,-137.5 456,-104.5 456,-104.5 456,-98.5 462,-92.5 468,-92.5 468,-92.5 541,-92.5 541,-92.5 547,-92.5 553,-98.5 553,-104.5 553,-104.5 553,-137.5 553,-137.5 553,-143.5 547,-149.5 541,-149.5"/>
<path fill="none" stroke="#b8860b" stroke-width="1.5" d="M545,-153.5C545,-153.5 464,-153.5 464,-153.5 458,-153.5 452,-147.5 452,-141.5 452,-141.5 452,-100.5 452,-100.5 452,-94.5 458,-88.5 464,-88.5 464,-88.5 545,-88.5 545,-88.5 551,-88.5 557,-94.5 557,-100.5 557,-100.5 557,-141.5 557,-141.5 557,-147.5 551,-153.5 545,-153.5"/>
<g id="a_state_11_title"><a xlink:href="#" xlink:title="state_11_title">
<text text-anchor="start" x="478.5" y="-128.6" font-family="Calibri" font-weight="bold" font-size="13.00" fill="#8b4513">Estado </text>
<text text-anchor="start" x="517.5" y="-128.6" font-family="Calibri" font-weight="bold" font-size="13.00" fill="#8b4513">11</text>
</a>
</g>
<g id="a_state_11_item_1"><a xlink:href="#" xlink:title="state_11_item_1">
<text text-anchor="start" x="467.5" y="-107.8" font-family="Times,serif" font-size="14.00" fill="#bc1f29">A </text>
<text text-anchor="start" x="481.5" y="-107.8" font-family="Times,serif" font-size="14.00" fill="#0a5040">→ </text>
<text text-anchor="start" x="500.5" y="-107.8" font-family="Times,serif" font-size="14.00" fill="#bc1f29"> E</text>
<text text-anchor="start" x="513.5" y="-107.8" font-family="Times,serif" font-size="14.00" fill="#0a5040"> c</text>
<text text-anchor="start" x="523.5" y="-107.8" font-family="Times,serif" font-size="14.00" fill="#0a5040"> f</text>
<text text-anchor="start" x="532.5" y="-107.8" font-family="Times,serif" font-size="14.00" fill="#f5a70a"> •</text>
</a>
</g>
</g>
<!-- state_8&#45;&gt;state_11 -->
<g id="trans_10" class="edge">
<title>state_8&#45;&gt;state_11</title>
<path fill="none" stroke="#b8860b" stroke-width="1.5" d="M399.5684,-123.7344C412.9973,-123.3844 427.7629,-122.9997 441.8694,-122.6321"/>
<polygon fill="#b8860b" stroke="#b8860b" stroke-width="1.5" points="442.0907,-126.1276 451.9961,-122.3682 441.9083,-119.13 442.0907,-126.1276"/>
<text text-anchor="start" x="421.5" y="-127.8" font-family="Times,serif" font-size="14.00" fill="#0a5040"> f</text>
</g>
</g>
</svg>
